  0
SECTION
  2
HEADER
  9
$ACADVER
  1
AC1024
  9
$ACADMAINTVER
 70
     6
  9
$DWGCODEPAGE
  3
ANSI_1252
  9
$INSBASE
 10
0.0
 20
0.0
 30
0.0
  9
$EXTMIN
 10
1.000000000000000E+20
 20
1.000000000000000E+20
 30
1.000000000000000E+20
  9
$EXTMAX
 10
-1.000000000000000E+20
 20
-1.000000000000000E+20
 30
-1.000000000000000E+20
  9
$LIMMIN
 10
0.0
 20
0.0
  9
$LIMMAX
 10
12.0
 20
9.0
  9
$ORTHOMODE
 70
     0
  9
$REGENMODE
 70
     1
  9
$FILLMODE
 70
     1
  9
$QTEXTMODE
 70
     0
  9
$MIRRTEXT
 70
     1
  9
$LTSCALE
 40
1.0
  9
$ATTMODE
 70
     1
  9
$TEXTSIZE
 40
0.2
  9
$TRACEWID
 40
0.05
  9
$TEXTSTYLE
  7
Standard
  9
$CLAYER
  8
0
  9
$CELTYPE
  6
ByLayer
  9
$CECOLOR
 62
   256
  9
$CELTSCALE
 40
1.0
  9
$DISPSILH
 70
     0
  9
$DIMSCALE
 40
1.0
  9
$DIMASZ
 40
0.18
  9
$DIMEXO
 40
0.0625
  9
$DIMDLI
 40
0.38
  9
$DIMRND
 40
0.0
  9
$DIMDLE
 40
0.0
  9
$DIMEXE
 40
0.18
  9
$DIMTP
 40
0.0
  9
$DIMTM
 40
0.0
  9
$DIMTXT
 40
0.18
  9
$DIMCEN
 40
0.09
  9
$DIMTSZ
 40
0.0
  9
$DIMTOL
 70
     0
  9
$DIMLIM
 70
     0
  9
$DIMTIH
 70
     1
  9
$DIMTOH
 70
     1
  9
$DIMSE1
 70
     0
  9
$DIMSE2
 70
     0
  9
$DIMTAD
 70
     0
  9
$DIMZIN
 70
     0
  9
$DIMBLK
  1

  9
$DIMASO
 70
     1
  9
$DIMSHO
 70
     1
  9
$DIMPOST
  1

  9
$DIMAPOST
  1

  9
$DIMALT
 70
     0
  9
$DIMALTD
 70
     2
  9
$DIMALTF
 40
25.4
  9
$DIMLFAC
 40
1.0
  9
$DIMTOFL
 70
     0
  9
$DIMTVP
 40
0.0
  9
$DIMTIX
 70
     0
  9
$DIMSOXD
 70
     0
  9
$DIMSAH
 70
     0
  9
$DIMBLK1
  1

  9
$DIMBLK2
  1

  9
$DIMSTYLE
  2
Standard
  9
$DIMCLRD
 70
     0
  9
$DIMCLRE
 70
     0
  9
$DIMCLRT
 70
     0
  9
$DIMTFAC
 40
1.0
  9
$DIMGAP
 40
0.09
  9
$DIMJUST
 70
     0
  9
$DIMSD1
 70
     0
  9
$DIMSD2
 70
     0
  9
$DIMTOLJ
 70
     1
  9
$DIMTZIN
 70
     0
  9
$DIMALTZ
 70
     0
  9
$DIMALTTZ
 70
     0
  9
$DIMUPT
 70
     0
  9
$DIMDEC
 70
     4
  9
$DIMTDEC
 70
     4
  9
$DIMALTU
 70
     2
  9
$DIMALTTD
 70
     2
  9
$DIMTXSTY
  7
Standard
  9
$DIMAUNIT
 70
     0
  9
$DIMADEC
 70
     0
  9
$DIMALTRND
 40
0.0
  9
$DIMAZIN
 70
     0
  9
$DIMDSEP
 70
    46
  9
$DIMATFIT
 70
     3
  9
$DIMFRAC
 70
     0
  9
$DIMLDRBLK
  1

  9
$DIMLUNIT
 70
     2
  9
$DIMLWD
 70
    -2
  9
$DIMLWE
 70
    -2
  9
$DIMTMOVE
 70
     0
  9
$DIMFXL
 40
1.0
  9
$DIMFXLON
 70
     0
  9
$DIMJOGANG
 40
0.7853981633974483
  9
$DIMTFILL
 70
     0
  9
$DIMTFILLCLR
 70
     0
  9
$DIMARCSYM
 70
     0
  9
$DIMLTYPE
  6

  9
$DIMLTEX1
  6

  9
$DIMLTEX2
  6

  9
$DIMTXTDIRECTION
 70
     0
  9
$LUNITS
 70
     2
  9
$LUPREC
 70
     4
  9
$SKETCHINC
 40
0.1
  9
$FILLETRAD
 40
0.5
  9
$AUNITS
 70
     0
  9
$AUPREC
 70
     0
  9
$MENU
  1
.
  9
$ELEVATION
 40
0.0
  9
$PELEVATION
 40
0.0
  9
$THICKNESS
 40
0.0
  9
$LIMCHECK
 70
     0
  9
$CHAMFERA
 40
0.5
  9
$CHAMFERB
 40
0.5
  9
$CHAMFERC
 40
1.0
  9
$CHAMFERD
 40
0.0
  9
$SKPOLY
 70
     0
  9
$TDCREATE
 40
2458565.859197431
  9
$TDUCREATE
 40
2458565.817530764
  9
$TDUPDATE
 40
2458565.859197581
  9
$TDUUPDATE
 40
2458565.817530914
  9
$TDINDWG
 40
0.0000000116
  9
$TDUSRTIMER
 40
0.0000000116
  9
$USRTIMER
 70
     1
  9
$ANGBASE
 50
0.0
  9
$ANGDIR
 70
     0
  9
$PDMODE
 70
     0
  9
$PDSIZE
 40
0.0
  9
$PLINEWID
 40
0.0
  9
$SPLFRAME
 70
     0
  9
$SPLINETYPE
 70
     6
  9
$SPLINESEGS
 70
     8
  9
$HANDSEED
  5
CD
  9
$SURFTAB1
 70
     6
  9
$SURFTAB2
 70
     6
  9
$SURFTYPE
 70
     6
  9
$SURFU
 70
     6
  9
$SURFV
 70
     6
  9
$UCSBASE
  2

  9
$UCSNAME
  2

  9
$UCSORG
 10
0.0
 20
0.0
 30
0.0
  9
$UCSXDIR
 10
1.0
 20
0.0
 30
0.0
  9
$UCSYDIR
 10
0.0
 20
1.0
 30
0.0
  9
$UCSORTHOREF
  2

  9
$UCSORTHOVIEW
 70
     0
  9
$UCSORGTOP
 10
0.0
 20
0.0
 30
0.0
  9
$UCSORGBOTTOM
 10
0.0
 20
0.0
 30
0.0
  9
$UCSORGLEFT
 10
0.0
 20
0.0
 30
0.0
  9
$UCSORGRIGHT
 10
0.0
 20
0.0
 30
0.0
  9
$UCSORGFRONT
 10
0.0
 20
0.0
 30
0.0
  9
$UCSORGBACK
 10
0.0
 20
0.0
 30
0.0
  9
$PUCSBASE
  2

  9
$PUCSNAME
  2

  9
$PUCSORG
 10
0.0
 20
0.0
 30
0.0
  9
$PUCSXDIR
 10
1.0
 20
0.0
 30
0.0
  9
$PUCSYDIR
 10
0.0
 20
1.0
 30
0.0
  9
$PUCSORTHOREF
  2

  9
$PUCSORTHOVIEW
 70
     0
  9
$PUCSORGTOP
 10
0.0
 20
0.0
 30
0.0
  9
$PUCSORGBOTTOM
 10
0.0
 20
0.0
 30
0.0
  9
$PUCSORGLEFT
 10
0.0
 20
0.0
 30
0.0
  9
$PUCSORGRIGHT
 10
0.0
 20
0.0
 30
0.0
  9
$PUCSORGFRONT
 10
0.0
 20
0.0
 30
0.0
  9
$PUCSORGBACK
 10
0.0
 20
0.0
 30
0.0
  9
$USERI1
 70
     0
  9
$USERI2
 70
     0
  9
$USERI3
 70
     0
  9
$USERI4
 70
     0
  9
$USERI5
 70
     0
  9
$USERR1
 40
0.0
  9
$USERR2
 40
0.0
  9
$USERR3
 40
0.0
  9
$USERR4
 40
0.0
  9
$USERR5
 40
0.0
  9
$WORLDVIEW
 70
     1
  9
$SHADEDGE
 70
     3
  9
$SHADEDIF
 70
    70
  9
$TILEMODE
 70
     1
  9
$MAXACTVP
 70
    64
  9
$PINSBASE
 10
0.0
 20
0.0
 30
0.0
  9
$PLIMCHECK
 70
     0
  9
$PEXTMIN
 10
1.000000000000000E+20
 20
1.000000000000000E+20
 30
1.000000000000000E+20
  9
$PEXTMAX
 10
-1.000000000000000E+20
 20
-1.000000000000000E+20
 30
-1.000000000000000E+20
  9
$PLIMMIN
 10
0.0
 20
0.0
  9
$PLIMMAX
 10
12.0
 20
9.0
  9
$UNITMODE
 70
     0
  9
$VISRETAIN
 70
     1
  9
$PLINEGEN
 70
     0
  9
$PSLTSCALE
 70
     1
  9
$TREEDEPTH
 70
  3020
  9
$CMLSTYLE
  2
Standard
  9
$CMLJUST
 70
     0
  9
$CMLSCALE
 40
1.0
  9
$PROXYGRAPHICS
 70
     1
  9
$MEASUREMENT
 70
     0
  9
$CELWEIGHT
370
    -1
  9
$ENDCAPS
280
     0
  9
$JOINSTYLE
280
     0
  9
$LWDISPLAY
290
     1
  9
$INSUNITS
 70
     1
  9
$HYPERLINKBASE
  1

  9
$STYLESHEET
  1

  9
$XEDIT
290
     1
  9
$CEPSNTYPE
380
     0
  9
$PSTYLEMODE
290
     1
  9
$FINGERPRINTGUID
  2
{31290885-A7F4-4B88-9CF8-97B8427563ED}
  9
$VERSIONGUID
  2
{FAEB1C32-E019-11D5-929B-00C0DF256EC4}
  9
$EXTNAMES
290
     1
  9
$PSVPSCALE
 40
0.0
  9
$OLESTARTUP
290
     0
  9
$SORTENTS
280
   127
  9
$INDEXCTL
280
     0
  9
$HIDETEXT
280
     1
  9
$XCLIPFRAME
280
     2
  9
$HALOGAP
280
     0
  9
$OBSCOLOR
 70
   257
  9
$OBSLTYPE
280
     0
  9
$INTERSECTIONDISPLAY
280
     0
  9
$INTERSECTIONCOLOR
 70
   257
  9
$DIMASSOC
280
     2
  9
$PROJECTNAME
  1

  9
$CAMERADISPLAY
290
     0
  9
$LENSLENGTH
 40
50.0
  9
$CAMERAHEIGHT
 40
0.0
  9
$STEPSPERSEC
 40
2.0
  9
$STEPSIZE
 40
6.0
  9
$3DDWFPREC
 40
2.0
  9
$PSOLWIDTH
 40
0.25
  9
$PSOLHEIGHT
 40
4.0
  9
$LOFTANG1
 40
1.570796326794897
  9
$LOFTANG2
 40
1.570796326794897
  9
$LOFTMAG1
 40
0.0
  9
$LOFTMAG2
 40
0.0
  9
$LOFTPARAM
 70
     7
  9
$LOFTNORMALS
280
     1
  9
$LATITUDE
 40
37.795
  9
$LONGITUDE
 40
-122.394
  9
$NORTHDIRECTION
 40
0.0
  9
$TIMEZONE
 70
 -8000
  9
$LIGHTGLYPHDISPLAY
280
     1
  9
$TILEMODELIGHTSYNCH
280
     1
  9
$CMATERIAL
347
3C
  9
$SOLIDHIST
280
     1
  9
$SHOWHIST
280
     1
  9
$DWFFRAME
280
     2
  9
$DGNFRAME
280
     2
  9
$REALWORLDSCALE
290
     1
  9
$INTERFERECOLOR
 62
   256
  9
$CSHADOW
280
     0
  9
$SHADOWPLANELOCATION
 40
0.0
  0
ENDSEC
  0
SECTION
  2
CLASSES
  0
CLASS
  1
ACDBDICTIONARYWDFLT
  2
AcDbDictionaryWithDefault
  3
ObjectDBX Classes
 90
        0
 91
        4
280
     0
281
     0
  0
CLASS
  1
VISUALSTYLE
  2
AcDbVisualStyle
  3
ObjectDBX Classes
 90
     4095
 91
        4
280
     0
281
     0
  0
CLASS
  1
MATERIAL
  2
AcDbMaterial
  3
ObjectDBX Classes
 90
     1153
 91
        4
280
     0
281
     0
  0
CLASS
  1
SUN
  2
AcDbSun
  3
SCENEOE
 90
     1024
 91
        4
280
     0
281
     0
  0
ENDSEC
  0
SECTION
  2
TABLES
  0
TABLE
  2
VPORT
  5
8
330
0
100
AcDbSymbolTable
 70
     1
  0
VPORT
  5
29
330
8
100
AcDbSymbolTableRecord
100
AcDbViewportTableRecord
  2
*Active
 70
     0
 10
0.0
 20
0.0
 11
1.0
 21
1.0
 12
0.0
 22
0.0
 13
0.0
 23
0.0
 14
0.5
 24
0.5
 15
0.5
 25
0.5
 16
0.0
 26
0.0
 36
1.0
 17
128.4993055234307
 27
-91.00079164391644
 37
0.0
 40
182.0015832878329
 41
1.412067996355954
 42
50.0
 43
0.0
 44
0.0
 50
0.0
 51
0.0
 71
     0
 72
   100
 73
     1
 74
     3
 75
     0
 76
     0
 77
     0
 78
     0
281
     0
 65
     1
110
0.0
120
0.0
130
0.0
111
1.0
121
0.0
131
0.0
112
0.0
122
1.0
132
0.0
 79
     0
146
0.0
 60
     3
 61
     5
292
     1
282
     1
141
0.0
142
0.0
 63
   250
361
3F
  0
ENDTAB
  0
TABLE
  2
LTYPE
  5
5
330
0
100
AcDbSymbolTable
 70
     1
  0
LTYPE
  5
14
330
5
100
AcDbSymbolTableRecord
100
AcDbLinetypeTableRecord
  2
ByBlock
 70
     0
  3

 72
    65
 73
     0
 40
0.0
  0
LTYPE
  5
15
330
5
100
AcDbSymbolTableRecord
100
AcDbLinetypeTableRecord
  2
ByLayer
 70
     0
  3

 72
    65
 73
     0
 40
0.0
  0
LTYPE
  5
16
330
5
100
AcDbSymbolTableRecord
100
AcDbLinetypeTableRecord
  2
Continuous
 70
     0
  3
Solid line
 72
    65
 73
     0
 40
0.0
  0
ENDTAB
  0
TABLE
  2
LAYER
  5
2
330
0
100
AcDbSymbolTable
 70
     2
  0
LAYER
  5
10
330
2
100
AcDbSymbolTableRecord
100
AcDbLayerTableRecord
  2
0
 70
     0
 62
     7
  6
Continuous
370
    -3
390
F
347
3E
  0
LAYER
  5
40
330
2
100
AcDbSymbolTableRecord
100
AcDbLayerTableRecord
  2
Layer 1
 70
     0
 62
     7
  6
Continuous
370
    -3
390
F
347
3E
  0
ENDTAB
  0
TABLE
  2
STYLE
  5
3
330
0
100
AcDbSymbolTable
 70
     1
  0
STYLE
  5
11
330
3
100
AcDbSymbolTableRecord
100
AcDbTextStyleTableRecord
  2
Standard
 70
     0
 40
0.0
 41
1.0
 50
0.0
 71
     0
 42
0.2
  3
txt
  4

  0
ENDTAB
  0
TABLE
  2
VIEW
  5
6
330
0
100
AcDbSymbolTable
 70
     0
  0
ENDTAB
  0
TABLE
  2
UCS
  5
7
330
0
100
AcDbSymbolTable
 70
     0
  0
ENDTAB
  0
TABLE
  2
APPID
  5
9
330
0
100
AcDbSymbolTable
 70
     1
  0
APPID
  5
12
330
9
100
AcDbSymbolTableRecord
100
AcDbRegAppTableRecord
  2
ACAD
 70
     0
  0
ENDTAB
  0
TABLE
  2
DIMSTYLE
  5
A
330
0
100
AcDbSymbolTable
 70
     1
100
AcDbDimStyleTable
  0
DIMSTYLE
105
27
330
A
100
AcDbSymbolTableRecord
100
AcDbDimStyleTableRecord
  2
Standard
 70
     0
178
     0
340
11
  0
ENDTAB
  0
TABLE
  2
BLOCK_RECORD
  5
1
330
0
100
AcDbSymbolTable
 70
    10
  0
BLOCK_RECORD
  5
1F
330
1
100
AcDbSymbolTableRecord
100
AcDbBlockTableRecord
  2
*Model_Space
340
22
 70
     0
280
     1
281
     0
  0
BLOCK_RECORD
  5
1B
330
1
100
AcDbSymbolTableRecord
100
AcDbBlockTableRecord
  2
*Paper_Space
340
1E
 70
     0
280
     1
281
     0
  0
BLOCK_RECORD
  5
23
330
1
100
AcDbSymbolTableRecord
100
AcDbBlockTableRecord
  2
*Paper_Space0
340
26
 70
     0
280
     1
281
     0
  0
BLOCK_RECORD
  5
41
330
1
100
AcDbSymbolTableRecord
100
AcDbBlockTableRecord
  2
block 2
340
0
102
{BLKREFS
331
42
102
}
 70
     0
280
     1
281
     0
  0
BLOCK_RECORD
  5
45
330
1
100
AcDbSymbolTableRecord
100
AcDbBlockTableRecord
  2
block 3
340
0
102
{BLKREFS
331
46
102
}
 70
     0
280
     1
281
     0
  0
BLOCK_RECORD
  5
7D
330
1
100
AcDbSymbolTableRecord
100
AcDbBlockTableRecord
  2
block 4
340
0
102
{BLKREFS
331
7E
102
}
 70
     0
280
     1
281
     0
  0
BLOCK_RECORD
  5
81
330
1
100
AcDbSymbolTableRecord
100
AcDbBlockTableRecord
  2
block 5
340
0
102
{BLKREFS
331
82
102
}
 70
     0
280
     1
281
     0
  0
BLOCK_RECORD
  5
85
330
1
100
AcDbSymbolTableRecord
100
AcDbBlockTableRecord
  2
block 6
340
0
102
{BLKREFS
331
86
102
}
 70
     0
280
     1
281
     0
  0
BLOCK_RECORD
  5
B9
330
1
100
AcDbSymbolTableRecord
100
AcDbBlockTableRecord
  2
block 7
340
0
102
{BLKREFS
331
BA
102
}
 70
     0
280
     1
281
     0
  0
BLOCK_RECORD
  5
BD
330
1
100
AcDbSymbolTableRecord
100
AcDbBlockTableRecord
  2
block 8
340
0
102
{BLKREFS
331
BE
102
}
 70
     0
280
     1
281
     0
  0
BLOCK_RECORD
  5
C1
330
1
100
AcDbSymbolTableRecord
100
AcDbBlockTableRecord
  2
block 9
340
0
102
{BLKREFS
331
C2
102
}
 70
     0
280
     1
281
     0
  0
BLOCK_RECORD
  5
C7
330
1
100
AcDbSymbolTableRecord
100
AcDbBlockTableRecord
  2
block 10
340
0
102
{BLKREFS
331
C8
102
}
 70
     0
280
     1
281
     0
  0
ENDTAB
  0
ENDSEC
  0
SECTION
  2
BLOCKS
  0
BLOCK
  5
20
330
1F
100
AcDbEntity
  8
0
100
AcDbBlockBegin
  2
*Model_Space
 70
     0
 10
0.0
 20
0.0
 30
0.0
  3
*Model_Space
  1

  0
ENDBLK
  5
21
330
1F
100
AcDbEntity
  8
0
100
AcDbBlockEnd
  0
BLOCK
  5
1C
330
1B
100
AcDbEntity
 67
     1
  8
0
100
AcDbBlockBegin
  2
*Paper_Space
 70
     0
 10
0.0
 20
0.0
 30
0.0
  3
*Paper_Space
  1

  0
ENDBLK
  5
1D
330
1B
100
AcDbEntity
 67
     1
  8
0
100
AcDbBlockEnd
  0
BLOCK
  5
24
330
23
100
AcDbEntity
  8
0
100
AcDbBlockBegin
  2
*Paper_Space0
 70
     0
 10
0.0
 20
0.0
 30
0.0
  3
*Paper_Space0
  1

  0
ENDBLK
  5
25
330
23
100
AcDbEntity
  8
0
100
AcDbBlockEnd
  0
BLOCK
  5
43
330
41
100
AcDbEntity
  8
0
100
AcDbBlockBegin
  2
block 2
 70
     0
 10
0.0
 20
0.0
 30
0.0
  3
block 2
  1

  0
INSERT
  5
46
330
41
100
AcDbEntity
  8
Layer 1
100
AcDbBlockReference
  2
block 3
 10
0.0
 20
0.0
 30
0.0
  0
INSERT
  5
7E
330
41
100
AcDbEntity
  8
Layer 1
100
AcDbBlockReference
  2
block 4
 10
0.0
 20
0.0
 30
0.0
  0
ENDBLK
  5
44
330
41
100
AcDbEntity
  8
0
100
AcDbBlockEnd
  0
BLOCK
  5
47
330
45
100
AcDbEntity
  8
0
100
AcDbBlockBegin
  2
block 3
 70
     0
 10
0.0
 20
0.0
 30
0.0
  3
block 3
  1

  0
POLYLINE
  5
49
330
45
100
AcDbEntity
  8
Layer 1
370
     0
100
AcDb2dPolyline
 66
     1
 10
0.0
 20
0.0
 30
0.0
  0
VERTEX
  5
4A
330
49
100
AcDbEntity
  8
Layer 1
370
     0
100
AcDbVertex
100
AcDb2dVertex
 10
147.4369372689897
 20
-117.0953514830042
 30
0.0
  0
VERTEX
  5
4B
330
49
100
AcDbEntity
  8
Layer 1
370
     0
100
AcDbVertex
100
AcDb2dVertex
 10
147.4369372689897
 20
-118.6546292603916
 30
0.0
  0
VERTEX
  5
4C
330
49
100
AcDbEntity
  8
Layer 1
370
     0
100
AcDbVertex
100
AcDb2dVertex
 10
142.381631714698
 20
-118.6546292603916
 30
0.0
  0
VERTEX
  5
4D
330
49
100
AcDbEntity
  8
Layer 1
370
     0
100
AcDbVertex
100
AcDb2dVertex
 10
142.381631714698
 20
-117.0953514830042
 30
0.0
  0
VERTEX
  5
4E
330
49
100
AcDbEntity
  8
Layer 1
370
     0
100
AcDbVertex
100
AcDb2dVertex
 10
143.7327706032491
 20
-117.0953514830042
 30
0.0
  0
VERTEX
  5
4F
330
49
100
AcDbEntity
  8
Layer 1
370
     0
100
AcDbVertex
100
AcDb2dVertex
 10
143.7327706032491
 20
-107.8666848186448
 30
0.0
  0
VERTEX
  5
50
330
49
100
AcDbEntity
  8
Layer 1
370
     0
100
AcDbVertex
100
AcDb2dVertex
 10
142.381631714698
 20
-107.8666848186448
 30
0.0
  0
VERTEX
  5
51
330
49
100
AcDbEntity
  8
Layer 1
370
     0
100
AcDbVertex
100
AcDb2dVertex
 10
142.381631714698
 20
-106.1592403746271
 30
0.0
  0
VERTEX
  5
52
330
49
100
AcDbEntity
  8
Layer 1
370
     0
100
AcDbVertex
100
AcDb2dVertex
 10
147.4369372689897
 20
-106.1592403746271
 30
0.0
  0
VERTEX
  5
53
330
49
100
AcDbEntity
  8
Layer 1
370
     0
100
AcDbVertex
100
AcDb2dVertex
 10
147.4369372689897
 20
-107.8666848186448
 30
0.0
  0
VERTEX
  5
54
330
49
100
AcDbEntity
  8
Layer 1
370
     0
100
AcDbVertex
100
AcDb2dVertex
 10
146.0258261582314
 20
-107.8666848186448
 30
0.0
  0
VERTEX
  5
55
330
49
100
AcDbEntity
  8
Layer 1
370
     0
100
AcDbVertex
100
AcDb2dVertex
 10
146.0258261582314
 20
-117.0953514830042
 30
0.0
  0
VERTEX
  5
56
330
49
100
AcDbEntity
  8
Layer 1
370
     0
100
AcDbVertex
100
AcDb2dVertex
 10
147.4369372689897
 20
-117.0953514830042
 30
0.0
  0
SEQEND
  5
58
330
49
100
AcDbEntity
  8
Layer 1
370
     0
  0
HATCH
  5
57
330
45
100
AcDbEntity
  8
Layer 1
 62
    18
420
        0
100
AcDbHatch
 10
0.0
 20
0.0
 30
0.0
210
0.0
220
0.0
230
1.0
  2
SOLID
 70
     1
 71
     0
 91
        1
 92
        1
 93
       12
 72
     1
 10
147.4369372689897
 20
-117.0953514830042
 11
147.4369372689897
 21
-118.6546292603916
 72
     1
 10
147.4369372689897
 20
-118.6546292603916
 11
142.381631714698
 21
-118.6546292603916
 72
     1
 10
142.381631714698
 20
-118.6546292603916
 11
142.381631714698
 21
-117.0953514830042
 72
     1
 10
142.381631714698
 20
-117.0953514830042
 11
143.7327706032491
 21
-117.0953514830042
 72
     1
 10
143.7327706032491
 20
-117.0953514830042
 11
143.7327706032491
 21
-107.8666848186448
 72
     1
 10
143.7327706032491
 20
-107.8666848186448
 11
142.381631714698
 21
-107.8666848186448
 72
     1
 10
142.381631714698
 20
-107.8666848186448
 11
142.381631714698
 21
-106.1592403746271
 72
     1
 10
142.381631714698
 20
-106.1592403746271
 11
147.4369372689897
 21
-106.1592403746271
 72
     1
 10
147.4369372689897
 20
-106.1592403746271
 11
147.4369372689897
 21
-107.8666848186448
 72
     1
 10
147.4369372689897
 20
-107.8666848186448
 11
146.0258261582314
 21
-107.8666848186448
 72
     1
 10
146.0258261582314
 20
-107.8666848186448
 11
146.0258261582314
 21
-117.0953514830042
 72
     1
 10
146.0258261582314
 20
-117.0953514830042
 11
147.4369372689897
 21
-117.0953514830042
 97
        0
 75
     2
 76
     1
 98
        0
  0
SPLINE
  5
59
330
45
100
AcDbEntity
  8
Layer 1
370
     0
100
AcDbSpline
210
0.0
220
0.0
230
1.0
 70
    11
 71
     3
 72
    50
 73
    46
 74
     0
 42
0.0000000001
 43
0.0000000001
 12
1.0
 22
0.0
 32
0.0
 13
1.0
 23
0.0
 33
0.0
 40
0.0
 40
0.0
 40
0.0
 40
0.0
 40
1.0
 40
1.0
 40
1.0
 40
2.0
 40
2.0
 40
2.0
 40
3.0
 40
3.0
 40
3.0
 40
4.0
 40
4.0
 40
4.0
 40
5.0
 40
5.0
 40
5.0
 40
6.0
 40
6.0
 40
6.0
 40
7.0
 40
7.0
 40
7.0
 40
8.0
 40
8.0
 40
8.0
 40
9.0
 40
9.0
 40
9.0
 40
10.0
 40
10.0
 40
10.0
 40
11.0
 40
11.0
 40
11.0
 40
12.0
 40
12.0
 40
12.0
 40
13.0
 40
13.0
 40
13.0
 40
14.0
 40
14.0
 40
14.0
 40
15.0
 40
15.0
 40
15.0
 40
15.0
 10
138.1518261602
 20
-114.4248237058942
 30
0.0
 10
138.1518261602
 20
-114.4248237058942
 30
0.0
 10
138.148298382423
 20
-112.9713792618122
 30
0.0
 10
138.148298382423
 20
-112.9713792618122
 30
0.0
 10
138.148298382423
 20
-112.9713792618122
 30
0.0
 10
138.148298382423
 20
-112.9502125951516
 30
0.0
 10
138.148298382423
 20
-112.9502125951516
 30
0.0
 10
138.1588817157533
 20
-112.8408514840674
 30
0.0
 10
138.2506039379533
 20
-111.7754625954447
 30
0.0
 10
137.5591594936813
 20
-111.2745181511261
 30
0.0
 10
137.1711039382227
 20
-110.995823706751
 30
0.0
 10
136.7124928272265
 20
-111.0169903734129
 30
0.0
 10
136.2362428273454
 20
-111.041684817851
 30
0.0
 10
135.5765483830656
 20
-111.0734348178432
 30
0.0
 10
135.0650206054161
 20
-111.2780459289024
 30
0.0
 10
134.7686872721568
 20
-111.4226848177551
 30
0.0
 10
134.7686872721568
 20
-111.4226848177551
 30
0.0
 10
134.0313817167855
 20
-109.9833514847823
 30
0.0
 10
134.0313817167855
 20
-109.9833514847823
 30
0.0
 10
134.9274372721167
 20
-109.6094070404309
 30
0.0
 10
135.707076160811
 20
-109.4753514849085
 30
0.0
 10
136.2362428273454
 20
-109.4224348182558
 30
0.0
 10
136.7830483827647
 20
-109.3695181516018
 30
0.0
 10
137.4392150492668
 20
-109.3095459293952
 30
0.0
 10
138.2364928268454
 20
-109.5423792626703
 30
0.0
 10
138.4940206045586
 20
-109.6164625959848
 30
0.0
 10
138.7938817155949
 20
-109.7011292626309
 30
0.0
 10
139.0902150488542
 20
-109.8951570403599
 30
0.0
 10
140.0568261597236
 20
-110.5231014846469
 30
0.0
 10
140.229687270792
 20
-111.8036848176605
 30
0.0
 10
140.2649650485605
 20
-112.1882125953422
 30
0.0
 10
140.2649650485605
 20
-112.1882125953422
 30
0.0
 10
140.2649650485605
 20
-118.6546292603916
 30
0.0
 10
140.2649650485605
 20
-118.6546292603916
 30
0.0
 10
140.2649650485605
 20
-118.6546292603916
 30
0.0
 10
138.1588817157533
 20
-118.6546292603916
 30
0.0
 10
138.1588817157533
 20
-118.6546292603916
 30
0.0
 10
138.1588817157533
 20
-118.6546292603916
 30
0.0
 10
138.1588817157533
 20
-117.95260148279
 30
0.0
 10
138.1588817157533
 20
-117.95260148279
 30
0.0
 10
138.1588817157533
 20
-117.95260148279
 30
0.0
 10
138.1553539379769
 20
-116.3897959276251
 30
0.0
 10
138.1553539379769
 20
-116.3897959276251
 30
0.0
 10
138.1553539379769
 20
-116.3897959276251
 30
0.0
 10
138.1518261602
 20
-114.4248237058942
 30
0.0
 10
138.1518261602
 20
-114.4248237058942
 30
0.0
  0
HATCH
  5
5A
330
45
100
AcDbEntity
  8
Layer 1
 62
    18
420
        0
100
AcDbHatch
 10
0.0
 20
0.0
 30
0.0
210
0.0
220
0.0
230
1.0
  2
SOLID
 70
     1
 71
     0
 91
        1
 92
        1
 93
        1
 72
     4
 94
        3
 73
     0
 74
     1
 95
       50
 96
       46
 40
0.0
 40
0.0
 40
0.0
 40
0.0
 40
1.0
 40
1.0
 40
1.0
 40
2.0
 40
2.0
 40
2.0
 40
3.0
 40
3.0
 40
3.0
 40
4.0
 40
4.0
 40
4.0
 40
5.0
 40
5.0
 40
5.0
 40
6.0
 40
6.0
 40
6.0
 40
7.0
 40
7.0
 40
7.0
 40
8.0
 40
8.0
 40
8.0
 40
9.0
 40
9.0
 40
9.0
 40
10.0
 40
10.0
 40
10.0
 40
11.0
 40
11.0
 40
11.0
 40
12.0
 40
12.0
 40
12.0
 40
13.0
 40
13.0
 40
13.0
 40
14.0
 40
14.0
 40
14.0
 40
15.0
 40
15.0
 40
15.0
 40
15.0
 10
138.1518261602
 20
-114.4248237058942
 10
138.1518261602
 20
-114.4248237058942
 10
138.148298382423
 20
-112.9713792618122
 10
138.148298382423
 20
-112.9713792618122
 10
138.148298382423
 20
-112.9713792618122
 10
138.148298382423
 20
-112.9502125951516
 10
138.148298382423
 20
-112.9502125951516
 10
138.1588817157533
 20
-112.8408514840674
 10
138.2506039379533
 20
-111.7754625954447
 10
137.5591594936813
 20
-111.2745181511261
 10
137.1711039382227
 20
-110.995823706751
 10
136.7124928272265
 20
-111.0169903734129
 10
136.2362428273454
 20
-111.041684817851
 10
135.5765483830656
 20
-111.0734348178432
 10
135.0650206054161
 20
-111.2780459289024
 10
134.7686872721568
 20
-111.4226848177551
 10
134.7686872721568
 20
-111.4226848177551
 10
134.0313817167855
 20
-109.9833514847823
 10
134.0313817167855
 20
-109.9833514847823
 10
134.9274372721167
 20
-109.6094070404309
 10
135.707076160811
 20
-109.4753514849085
 10
136.2362428273454
 20
-109.4224348182558
 10
136.7830483827647
 20
-109.3695181516018
 10
137.4392150492668
 20
-109.3095459293952
 10
138.2364928268454
 20
-109.5423792626703
 10
138.4940206045586
 20
-109.6164625959848
 10
138.7938817155949
 20
-109.7011292626309
 10
139.0902150488542
 20
-109.8951570403599
 10
140.0568261597236
 20
-110.5231014846469
 10
140.229687270792
 20
-111.8036848176605
 10
140.2649650485605
 20
-112.1882125953422
 10
140.2649650485605
 20
-112.1882125953422
 10
140.2649650485605
 20
-118.6546292603916
 10
140.2649650485605
 20
-118.6546292603916
 10
140.2649650485605
 20
-118.6546292603916
 10
138.1588817157533
 20
-118.6546292603916
 10
138.1588817157533
 20
-118.6546292603916
 10
138.1588817157533
 20
-118.6546292603916
 10
138.1588817157533
 20
-117.95260148279
 10
138.1588817157533
 20
-117.95260148279
 10
138.1588817157533
 20
-117.95260148279
 10
138.1553539379769
 20
-116.3897959276251
 10
138.1553539379769
 20
-116.3897959276251
 10
138.1553539379769
 20
-116.3897959276251
 10
138.1518261602
 20
-114.4248237058942
 10
138.1518261602
 20
-114.4248237058942
 97
        0
 97
        0
 75
     2
 76
     1
 98
        0
  0
SPLINE
  5
5B
330
45
100
AcDbEntity
  8
Layer 1
370
     0
100
AcDbSpline
210
0.0
220
0.0
230
1.0
 70
    11
 71
     3
 72
    53
 73
    49
 74
     0
 42
0.0000000001
 43
0.0000000001
 12
1.0
 22
0.0
 32
0.0
 13
1.0
 23
0.0
 33
0.0
 40
0.0
 40
0.0
 40
0.0
 40
0.0
 40
1.0
 40
1.0
 40
1.0
 40
2.0
 40
2.0
 40
2.0
 40
3.0
 40
3.0
 40
3.0
 40
4.0
 40
4.0
 40
4.0
 40
5.0
 40
5.0
 40
5.0
 40
6.0
 40
6.0
 40
6.0
 40
7.0
 40
7.0
 40
7.0
 40
8.0
 40
8.0
 40
8.0
 40
9.0
 40
9.0
 40
9.0
 40
10.0
 40
10.0
 40
10.0
 40
11.0
 40
11.0
 40
11.0
 40
12.0
 40
12.0
 40
12.0
 40
13.0
 40
13.0
 40
13.0
 40
14.0
 40
14.0
 40
14.0
 40
15.0
 40
15.0
 40
15.0
 40
16.0
 40
16.0
 40
16.0
 40
16.0
 10
138.1553539379769
 20
-116.3897959276251
 30
0.0
 10
138.1553539379769
 20
-116.3897959276251
 30
0.0
 10
138.1588817157533
 20
-117.95260148279
 30
0.0
 10
138.1588817157533
 20
-117.95260148279
 30
0.0
 10
138.0107150491243
 20
-118.100768149419
 30
0.0
 10
137.8166872713952
 20
-118.2630459271559
 30
0.0
 10
137.5732706047886
 20
-118.4041570382323
 30
0.0
 10
137.4850761603662
 20
-118.4570737048862
 30
0.0
 10
137.0511594938082
 20
-118.7040181492679
 30
0.0
 10
136.4126317161902
 20
-118.7851570381376
 30
0.0
 10
136.1092428273776
 20
-118.8239625936824
 30
0.0
 10
135.2026039387155
 20
-118.9262681492127
 30
0.0
 10
134.3136039389376
 20
-118.3759348160178
 30
0.0
 10
134.1654372723073
 20
-118.2842125938178
 30
0.0
 10
133.036548383701
 20
-117.5574903717768
 30
0.0
 10
132.9024928281792
 20
-116.15696259435
 30
0.0
 10
132.8848539392944
 20
-115.9946848166131
 30
0.0
 10
132.7790206059871
 20
-114.6964625947153
 30
0.0
 10
133.7385761613032
 20
-113.8321570393756
 30
0.0
 10
134.0525483834467
 20
-113.5499348172242
 30
0.0
 10
134.3771039389218
 20
-113.426462595032
 30
0.0
 10
134.7686872721568
 20
-113.2747681506254
 30
0.0
 10
135.4319094942129
 20
-113.0172403729122
 30
0.0
 10
135.9892983829631
 20
-112.9749070395898
 30
0.0
 10
136.5607983828199
 20
-112.9361014840437
 30
0.0
 10
136.9664928271634
 20
-112.9078792618292
 30
0.0
 10
137.509770604805
 20
-112.9008237062753
 30
0.0
 10
138.148298382423
 20
-112.9713792618122
 30
0.0
 10
138.148298382423
 20
-112.9713792618122
 30
0.0
 10
138.1518261602
 20
-114.4248237058942
 30
0.0
 10
138.1518261602
 20
-114.4248237058942
 30
0.0
 10
137.7249650491952
 20
-114.3472125948021
 30
0.0
 10
137.3686594937293
 20
-114.3401570392481
 30
0.0
 10
137.1181872715694
 20
-114.3472125948021
 30
0.0
 10
136.546687271712
 20
-114.3683792614639
 30
0.0
 10
135.9822428274092
 20
-114.3895459281245
 30
0.0
 10
135.5024650497511
 20
-114.788184816914
 30
0.0
 10
135.3719372720063
 20
-114.8975459279983
 30
0.0
 10
135.0050483832088
 20
-115.2044625945879
 30
0.0
 10
134.9450761610016
 20
-115.715990372238
 30
0.0
 10
134.8674650499101
 20
-116.3439348165251
 30
0.0
 10
135.315492827576
 20
-116.7954903719673
 30
0.0
 10
135.3542983831215
 20
-116.830768149737
 30
0.0
 10
135.9328539385328
 20
-117.3952125940399
 30
0.0
 10
136.9100483827325
 20
-117.2646848162951
 30
0.0
 10
137.5168261603583
 20
-116.9330737052673
 30
0.0
 10
137.8025761602873
 20
-116.7778514830831
 30
0.0
 10
138.0107150491243
 20
-116.5767681498001
 30
0.0
 10
138.1553539379769
 20
-116.3897959276251
 30
0.0
  0
HATCH
  5
5C
330
45
100
AcDbEntity
  8
Layer 1
 62
    18
420
        0
100
AcDbHatch
 10
0.0
 20
0.0
 30
0.0
210
0.0
220
0.0
230
1.0
  2
SOLID
 70
     1
 71
     0
 91
        1
 92
        1
 93
        1
 72
     4
 94
        3
 73
     0
 74
     1
 95
       53
 96
       49
 40
0.0
 40
0.0
 40
0.0
 40
0.0
 40
1.0
 40
1.0
 40
1.0
 40
2.0
 40
2.0
 40
2.0
 40
3.0
 40
3.0
 40
3.0
 40
4.0
 40
4.0
 40
4.0
 40
5.0
 40
5.0
 40
5.0
 40
6.0
 40
6.0
 40
6.0
 40
7.0
 40
7.0
 40
7.0
 40
8.0
 40
8.0
 40
8.0
 40
9.0
 40
9.0
 40
9.0
 40
10.0
 40
10.0
 40
10.0
 40
11.0
 40
11.0
 40
11.0
 40
12.0
 40
12.0
 40
12.0
 40
13.0
 40
13.0
 40
13.0
 40
14.0
 40
14.0
 40
14.0
 40
15.0
 40
15.0
 40
15.0
 40
16.0
 40
16.0
 40
16.0
 40
16.0
 10
138.1553539379769
 20
-116.3897959276251
 10
138.1553539379769
 20
-116.3897959276251
 10
138.1588817157533
 20
-117.95260148279
 10
138.1588817157533
 20
-117.95260148279
 10
138.0107150491243
 20
-118.100768149419
 10
137.8166872713952
 20
-118.2630459271559
 10
137.5732706047886
 20
-118.4041570382323
 10
137.4850761603662
 20
-118.4570737048862
 10
137.0511594938082
 20
-118.7040181492679
 10
136.4126317161902
 20
-118.7851570381376
 10
136.1092428273776
 20
-118.8239625936824
 10
135.2026039387155
 20
-118.9262681492127
 10
134.3136039389376
 20
-118.3759348160178
 10
134.1654372723073
 20
-118.2842125938178
 10
133.036548383701
 20
-117.5574903717768
 10
132.9024928281792
 20
-116.15696259435
 10
132.8848539392944
 20
-115.9946848166131
 10
132.7790206059871
 20
-114.6964625947153
 10
133.7385761613032
 20
-113.8321570393756
 10
134.0525483834467
 20
-113.5499348172242
 10
134.3771039389218
 20
-113.426462595032
 10
134.7686872721568
 20
-113.2747681506254
 10
135.4319094942129
 20
-113.0172403729122
 10
135.9892983829631
 20
-112.9749070395898
 10
136.5607983828199
 20
-112.9361014840437
 10
136.9664928271634
 20
-112.9078792618292
 10
137.509770604805
 20
-112.9008237062753
 10
138.148298382423
 20
-112.9713792618122
 10
138.148298382423
 20
-112.9713792618122
 10
138.1518261602
 20
-114.4248237058942
 10
138.1518261602
 20
-114.4248237058942
 10
137.7249650491952
 20
-114.3472125948021
 10
137.3686594937293
 20
-114.3401570392481
 10
137.1181872715694
 20
-114.3472125948021
 10
136.546687271712
 20
-114.3683792614639
 10
135.9822428274092
 20
-114.3895459281245
 10
135.5024650497511
 20
-114.788184816914
 10
135.3719372720063
 20
-114.8975459279983
 10
135.0050483832088
 20
-115.2044625945879
 10
134.9450761610016
 20
-115.715990372238
 10
134.8674650499101
 20
-116.3439348165251
 10
135.315492827576
 20
-116.7954903719673
 10
135.3542983831215
 20
-116.830768149737
 10
135.9328539385328
 20
-117.3952125940399
 10
136.9100483827325
 20
-117.2646848162951
 10
137.5168261603583
 20
-116.9330737052673
 10
137.8025761602873
 20
-116.7778514830831
 10
138.0107150491243
 20
-116.5767681498001
 10
138.1553539379769
 20
-116.3897959276251
 97
        0
 97
        0
 75
     2
 76
     1
 98
        0
  0
SPLINE
  5
5D
330
45
100
AcDbEntity
  8
Layer 1
370
     0
100
AcDbSpline
210
0.0
220
0.0
230
1.0
 70
    11
 71
     3
 72
    53
 73
    49
 74
     0
 42
0.0000000001
 43
0.0000000001
 12
1.0
 22
0.0
 32
0.0
 13
1.0
 23
0.0
 33
0.0
 40
0.0
 40
0.0
 40
0.0
 40
0.0
 40
1.0
 40
1.0
 40
1.0
 40
2.0
 40
2.0
 40
2.0
 40
3.0
 40
3.0
 40
3.0
 40
4.0
 40
4.0
 40
4.0
 40
5.0
 40
5.0
 40
5.0
 40
6.0
 40
6.0
 40
6.0
 40
7.0
 40
7.0
 40
7.0
 40
8.0
 40
8.0
 40
8.0
 40
9.0
 40
9.0
 40
9.0
 40
10.0
 40
10.0
 40
10.0
 40
11.0
 40
11.0
 40
11.0
 40
12.0
 40
12.0
 40
12.0
 40
13.0
 40
13.0
 40
13.0
 40
14.0
 40
14.0
 40
14.0
 40
15.0
 40
15.0
 40
15.0
 40
16.0
 40
16.0
 40
16.0
 40
16.0
 10
129.5652150512354
 20
-109.8069625959375
 30
0.0
 10
131.4666872729827
 20
-110.8159070401299
 30
0.0
 10
131.918242828425
 20
-113.9344625949059
 30
0.0
 10
131.1809372730537
 20
-116.1252125943579
 30
0.0
 10
130.849326162026
 20
-117.1165181496648
 30
0.0
 10
130.4930206065588
 20
-117.6174625939847
 30
0.0
 10
130.2390206066225
 20
-117.86087926059
 30
0.0
 10
129.5616872734585
 20
-118.5099903715389
 30
0.0
 10
128.7749928292108
 20
-118.6687403714995
 30
0.0
 10
128.4751317181746
 20
-118.7146014825995
 30
0.0
 10
127.349770607345
 20
-118.8804070381127
 30
0.0
 10
126.4113817186907
 20
-118.3829903715704
 30
0.0
 10
125.8469372743872
 20
-117.959657038344
 30
0.0
 10
125.8469372743872
 20
-117.959657038344
 30
0.0
 10
125.8469372743872
 20
-116.4709348164935
 30
0.0
 10
125.8469372743872
 20
-116.4709348164935
 30
0.0
 10
126.0444928298936
 20
-116.6755459275528
 30
0.0
 10
126.3549372742601
 20
-116.9295459274897
 30
0.0
 10
126.7994372741491
 20
-117.0671292607884
 30
0.0
 10
127.0252150518705
 20
-117.1341570385503
 30
0.0
 10
127.5120483850822
 20
-117.2858514829569
 30
0.0
 10
128.0059372738475
 20
-117.0671292607884
 30
0.0
 10
128.45749282929
 20
-116.8695737052831
 30
0.0
 10
128.6656317181269
 20
-116.4744625942698
 30
0.0
 10
128.8279094958642
 20
-116.15696259435
 30
0.0
 10
129.2547706068689
 20
-115.3208792612247
 30
0.0
 10
129.2194928290998
 20
-114.5271292614232
 30
0.0
 10
129.1806872735537
 20
-113.8921292615822
 30
0.0
 10
129.1312983846774
 20
-113.0242959284661
 30
0.0
 10
129.0572150513622
 20
-111.7401848176763
 30
0.0
 10
128.2705206071146
 20
-111.3344903733327
 30
0.0
 10
127.9847706071863
 20
-111.1863237067037
 30
0.0
 10
127.6178817183891
 20
-111.1616292622655
 30
0.0
 10
127.5649650517355
 20
-111.1581014844879
 30
0.0
 10
127.1239928296235
 20
-111.1298792622734
 30
0.0
 10
126.7923817185954
 20
-111.2604070400182
 30
0.0
 10
126.5348539408819
 20
-111.3627125955485
 30
0.0
 10
126.2667428298377
 20
-111.4720737066314
 30
0.0
 10
126.0374372743396
 20
-111.6096570399315
 30
0.0
 10
125.8469372743872
 20
-111.7507681510065
 30
0.0
 10
125.8469372743872
 20
-111.7507681510065
 30
0.0
 10
125.8469372743872
 20
-110.0574348180968
 30
0.0
 10
125.8469372743872
 20
-110.0574348180968
 30
0.0
 10
126.1891317187462
 20
-109.835184818152
 30
0.0
 10
126.6865483852885
 20
-109.5847125959927
 30
0.0
 10
127.3286039406834
 20
-109.4824070404624
 30
0.0
 10
127.5014650517513
 20
-109.4541848182479
 30
0.0
 10
128.598603940366
 20
-109.291907040511
 30
0.0
 10
129.5652150512354
 20
-109.8069625959375
 30
0.0
  0
HATCH
  5
5E
330
45
100
AcDbEntity
  8
Layer 1
 62
    18
420
        0
100
AcDbHatch
 10
0.0
 20
0.0
 30
0.0
210
0.0
220
0.0
230
1.0
  2
SOLID
 70
     1
 71
     0
 91
        1
 92
        1
 93
        1
 72
     4
 94
        3
 73
     0
 74
     1
 95
       53
 96
       49
 40
0.0
 40
0.0
 40
0.0
 40
0.0
 40
1.0
 40
1.0
 40
1.0
 40
2.0
 40
2.0
 40
2.0
 40
3.0
 40
3.0
 40
3.0
 40
4.0
 40
4.0
 40
4.0
 40
5.0
 40
5.0
 40
5.0
 40
6.0
 40
6.0
 40
6.0
 40
7.0
 40
7.0
 40
7.0
 40
8.0
 40
8.0
 40
8.0
 40
9.0
 40
9.0
 40
9.0
 40
10.0
 40
10.0
 40
10.0
 40
11.0
 40
11.0
 40
11.0
 40
12.0
 40
12.0
 40
12.0
 40
13.0
 40
13.0
 40
13.0
 40
14.0
 40
14.0
 40
14.0
 40
15.0
 40
15.0
 40
15.0
 40
16.0
 40
16.0
 40
16.0
 40
16.0
 10
129.5652150512354
 20
-109.8069625959375
 10
131.4666872729827
 20
-110.8159070401299
 10
131.918242828425
 20
-113.9344625949059
 10
131.1809372730537
 20
-116.1252125943579
 10
130.849326162026
 20
-117.1165181496648
 10
130.4930206065588
 20
-117.6174625939847
 10
130.2390206066225
 20
-117.86087926059
 10
129.5616872734585
 20
-118.5099903715389
 10
128.7749928292108
 20
-118.6687403714995
 10
128.4751317181746
 20
-118.7146014825995
 10
127.349770607345
 20
-118.8804070381127
 10
126.4113817186907
 20
-118.3829903715704
 10
125.8469372743872
 20
-117.959657038344
 10
125.8469372743872
 20
-117.959657038344
 10
125.8469372743872
 20
-116.4709348164935
 10
125.8469372743872
 20
-116.4709348164935
 10
126.0444928298936
 20
-116.6755459275528
 10
126.3549372742601
 20
-116.9295459274897
 10
126.7994372741491
 20
-117.0671292607884
 10
127.0252150518705
 20
-117.1341570385503
 10
127.5120483850822
 20
-117.2858514829569
 10
128.0059372738475
 20
-117.0671292607884
 10
128.45749282929
 20
-116.8695737052831
 10
128.6656317181269
 20
-116.4744625942698
 10
128.8279094958642
 20
-116.15696259435
 10
129.2547706068689
 20
-115.3208792612247
 10
129.2194928290998
 20
-114.5271292614232
 10
129.1806872735537
 20
-113.8921292615822
 10
129.1312983846774
 20
-113.0242959284661
 10
129.0572150513622
 20
-111.7401848176763
 10
128.2705206071146
 20
-111.3344903733327
 10
127.9847706071863
 20
-111.1863237067037
 10
127.6178817183891
 20
-111.1616292622655
 10
127.5649650517355
 20
-111.1581014844879
 10
127.1239928296235
 20
-111.1298792622734
 10
126.7923817185954
 20
-111.2604070400182
 10
126.5348539408819
 20
-111.3627125955485
 10
126.2667428298377
 20
-111.4720737066314
 10
126.0374372743396
 20
-111.6096570399315
 10
125.8469372743872
 20
-111.7507681510065
 10
125.8469372743872
 20
-111.7507681510065
 10
125.8469372743872
 20
-110.0574348180968
 10
125.8469372743872
 20
-110.0574348180968
 10
126.1891317187462
 20
-109.835184818152
 10
126.6865483852885
 20
-109.5847125959927
 10
127.3286039406834
 20
-109.4824070404624
 10
127.5014650517513
 20
-109.4541848182479
 10
128.598603940366
 20
-109.291907040511
 10
129.5652150512354
 20
-109.8069625959375
 97
        0
 97
        0
 75
     2
 76
     1
 98
        0
  0
POLYLINE
  5
5F
330
45
100
AcDbEntity
  8
Layer 1
370
     0
100
AcDb2dPolyline
 66
     1
 10
0.0
 20
0.0
 30
0.0
  0
VERTEX
  5
60
330
5F
100
AcDbEntity
  8
Layer 1
370
     0
100
AcDbVertex
100
AcDb2dVertex
 10
125.8469372743872
 20
-117.959657038344
 30
0.0
  0
VERTEX
  5
61
330
5F
100
AcDbEntity
  8
Layer 1
370
     0
100
AcDbVertex
100
AcDb2dVertex
 10
125.8469372743872
 20
-122.0518792595426
 30
0.0
  0
VERTEX
  5
62
330
5F
100
AcDbEntity
  8
Layer 1
370
     0
100
AcDbVertex
100
AcDb2dVertex
 10
123.6632428304889
 20
-122.0518792595426
 30
0.0
  0
VERTEX
  5
63
330
5F
100
AcDbEntity
  8
Layer 1
370
     0
100
AcDbVertex
100
AcDb2dVertex
 10
123.6632428304889
 20
-109.6129348182085
 30
0.0
  0
VERTEX
  5
64
330
5F
100
AcDbEntity
  8
Layer 1
370
     0
100
AcDbVertex
100
AcDb2dVertex
 10
125.8469372743872
 20
-109.6129348182085
 30
0.0
  0
VERTEX
  5
65
330
5F
100
AcDbEntity
  8
Layer 1
370
     0
100
AcDbVertex
100
AcDb2dVertex
 10
125.8469372743872
 20
-110.0574348180968
 30
0.0
  0
VERTEX
  5
66
330
5F
100
AcDbEntity
  8
Layer 1
370
     0
100
AcDbVertex
100
AcDb2dVertex
 10
125.8469372743872
 20
-111.7507681510065
 30
0.0
  0
VERTEX
  5
67
330
5F
100
AcDbEntity
  8
Layer 1
370
     0
100
AcDbVertex
100
AcDb2dVertex
 10
125.8469372743872
 20
-116.4709348164935
 30
0.0
  0
VERTEX
  5
68
330
5F
100
AcDbEntity
  8
Layer 1
370
     0
100
AcDbVertex
100
AcDb2dVertex
 10
125.8469372743872
 20
-117.959657038344
 30
0.0
  0
SEQEND
  5
6A
330
5F
100
AcDbEntity
  8
Layer 1
370
     0
  0
HATCH
  5
69
330
45
100
AcDbEntity
  8
Layer 1
 62
    18
420
        0
100
AcDbHatch
 10
0.0
 20
0.0
 30
0.0
210
0.0
220
0.0
230
1.0
  2
SOLID
 70
     1
 71
     0
 91
        1
 92
        1
 93
        8
 72
     1
 10
125.8469372743872
 20
-117.959657038344
 11
125.8469372743872
 21
-122.0518792595426
 72
     1
 10
125.8469372743872
 20
-122.0518792595426
 11
123.6632428304889
 21
-122.0518792595426
 72
     1
 10
123.6632428304889
 20
-122.0518792595426
 11
123.6632428304889
 21
-109.6129348182085
 72
     1
 10
123.6632428304889
 20
-109.6129348182085
 11
125.8469372743872
 21
-109.6129348182085
 72
     1
 10
125.8469372743872
 20
-109.6129348182085
 11
125.8469372743872
 21
-110.0574348180968
 72
     1
 10
125.8469372743872
 20
-110.0574348180968
 11
125.8469372743872
 21
-111.7507681510065
 72
     1
 10
125.8469372743872
 20
-111.7507681510065
 11
125.8469372743872
 21
-116.4709348164935
 72
     1
 10
125.8469372743872
 20
-116.4709348164935
 11
125.8469372743872
 21
-117.959657038344
 97
        0
 75
     2
 76
     1
 98
        0
  0
POLYLINE
  5
6B
330
45
100
AcDbEntity
  8
Layer 1
370
     0
100
AcDb2dPolyline
 66
     1
 10
0.0
 20
0.0
 30
0.0
  0
VERTEX
  5
6C
330
6B
100
AcDbEntity
  8
Layer 1
370
     0
100
AcDbVertex
100
AcDb2dVertex
 10
117.8353539430568
 20
-106.1592403746271
 30
0.0
  0
VERTEX
  5
6D
330
6B
100
AcDbEntity
  8
Layer 1
370
     0
100
AcDbVertex
100
AcDb2dVertex
 10
122.2732983863917
 20
-118.6546292603916
 30
0.0
  0
VERTEX
  5
6E
330
6B
100
AcDbEntity
  8
Layer 1
370
     0
100
AcDbVertex
100
AcDb2dVertex
 10
119.5992428315047
 20
-118.6546292603916
 30
0.0
  0
VERTEX
  5
6F
330
6B
100
AcDbEntity
  8
Layer 1
370
     0
100
AcDbVertex
100
AcDb2dVertex
 10
118.4209650540215
 20
-115.1691848168194
 30
0.0
  0
VERTEX
  5
70
330
6B
100
AcDbEntity
  8
Layer 1
370
     0
100
AcDbVertex
100
AcDb2dVertex
 10
114.540409499436
 20
-115.1691848168194
 30
0.0
  0
VERTEX
  5
71
330
6B
100
AcDbEntity
  8
Layer 1
370
     0
100
AcDbVertex
100
AcDb2dVertex
 10
113.4079928330525
 20
-118.6546292603916
 30
0.0
  0
VERTEX
  5
72
330
6B
100
AcDbEntity
  8
Layer 1
370
     0
100
AcDbVertex
100
AcDb2dVertex
 10
111.0726039447475
 20
-118.6546292603916
 30
0.0
  0
VERTEX
  5
73
330
6B
100
AcDbEntity
  8
Layer 1
370
     0
100
AcDbVertex
100
AcDb2dVertex
 10
115.4823261658672
 20
-106.1592403746271
 30
0.0
  0
VERTEX
  5
74
330
6B
100
AcDbEntity
  8
Layer 1
370
     0
100
AcDbVertex
100
AcDb2dVertex
 10
117.8353539430568
 20
-106.1592403746271
 30
0.0
  0
SEQEND
  5
75
330
6B
100
AcDbEntity
  8
Layer 1
370
     0
  0
POLYLINE
  5
76
330
45
100
AcDbEntity
  8
Layer 1
370
     0
100
AcDb2dPolyline
 66
     1
 10
0.0
 20
0.0
 30
0.0
  0
VERTEX
  5
77
330
76
100
AcDbEntity
  8
Layer 1
370
     0
100
AcDbVertex
100
AcDb2dVertex
 10
117.8353539430568
 20
-113.4229348172557
 30
0.0
  0
VERTEX
  5
78
330
76
100
AcDbEntity
  8
Layer 1
370
     0
100
AcDbVertex
100
AcDb2dVertex
 10
116.4806872767287
 20
-109.39421259604
 30
0.0
  0
VERTEX
  5
79
330
76
100
AcDbEntity
  8
Layer 1
370
     0
100
AcDbVertex
100
AcDb2dVertex
 10
115.1295483881777
 20
-113.4229348172557
 30
0.0
  0
VERTEX
  5
7A
330
76
100
AcDbEntity
  8
Layer 1
370
     0
100
AcDbVertex
100
AcDb2dVertex
 10
117.8353539430568
 20
-113.4229348172557
 30
0.0
  0
SEQEND
  5
7B
330
76
100
AcDbEntity
  8
Layer 1
370
     0
  0
HATCH
  5
7C
330
45
100
AcDbEntity
  8
Layer 1
 62
    18
420
        0
100
AcDbHatch
 10
0.0
 20
0.0
 30
0.0
210
0.0
220
0.0
230
1.0
  2
SOLID
 70
     1
 71
     0
 91
        2
 92
        1
 93
        8
 72
     1
 10
117.8353539430568
 20
-106.1592403746271
 11
122.2732983863917
 21
-118.6546292603916
 72
     1
 10
122.2732983863917
 20
-118.6546292603916
 11
119.5992428315047
 21
-118.6546292603916
 72
     1
 10
119.5992428315047
 20
-118.6546292603916
 11
118.4209650540215
 21
-115.1691848168194
 72
     1
 10
118.4209650540215
 20
-115.1691848168194
 11
114.540409499436
 21
-115.1691848168194
 72
     1
 10
114.540409499436
 20
-115.1691848168194
 11
113.4079928330525
 21
-118.6546292603916
 72
     1
 10
113.4079928330525
 20
-118.6546292603916
 11
111.0726039447475
 21
-118.6546292603916
 72
     1
 10
111.0726039447475
 20
-118.6546292603916
 11
115.4823261658672
 21
-106.1592403746271
 72
     1
 10
115.4823261658672
 20
-106.1592403746271
 11
117.8353539430568
 21
-106.1592403746271
 97
        0
 92
        1
 93
        3
 72
     1
 10
117.8353539430568
 20
-113.4229348172557
 11
116.4806872767287
 21
-109.39421259604
 72
     1
 10
116.4806872767287
 20
-109.39421259604
 11
115.1295483881777
 21
-113.4229348172557
 72
     1
 10
115.1295483881777
 20
-113.4229348172557
 11
117.8353539430568
 21
-113.4229348172557
 97
        0
 75
     2
 76
     1
 98
        0
  0
ENDBLK
  5
48
330
45
100
AcDbEntity
  8
0
100
AcDbBlockEnd
  0
BLOCK
  5
7F
330
7D
100
AcDbEntity
  8
0
100
AcDbBlockBegin
  2
block 4
 70
     0
 10
0.0
 20
0.0
 30
0.0
  3
block 4
  1

  0
ENDBLK
  5
80
330
7D
100
AcDbEntity
  8
0
100
AcDbBlockEnd
  0
BLOCK
  5
83
330
81
100
AcDbEntity
  8
0
100
AcDbBlockBegin
  2
block 5
 70
     0
 10
0.0
 20
0.0
 30
0.0
  3
block 5
  1

  0
INSERT
  5
86
330
81
100
AcDbEntity
  8
Layer 1
100
AcDbBlockReference
  2
block 6
 10
0.0
 20
0.0
 30
0.0
  0
INSERT
  5
BA
330
81
100
AcDbEntity
  8
Layer 1
100
AcDbBlockReference
  2
block 7
 10
0.0
 20
0.0
 30
0.0
  0
ENDBLK
  5
84
330
81
100
AcDbEntity
  8
0
100
AcDbBlockEnd
  0
BLOCK
  5
87
330
85
100
AcDbEntity
  8
0
100
AcDbBlockBegin
  2
block 6
 70
     0
 10
0.0
 20
0.0
 30
0.0
  3
block 6
  1

  0
SPLINE
  5
89
330
85
100
AcDbEntity
  8
Layer 1
370
     0
100
AcDbSpline
210
0.0
220
0.0
230
1.0
 70
    11
 71
     3
 72
    50
 73
    46
 74
     0
 42
0.0000000001
 43
0.0000000001
 12
1.0
 22
0.0
 32
0.0
 13
1.0
 23
0.0
 33
0.0
 40
0.0
 40
0.0
 40
0.0
 40
0.0
 40
1.0
 40
1.0
 40
1.0
 40
2.0
 40
2.0
 40
2.0
 40
3.0
 40
3.0
 40
3.0
 40
4.0
 40
4.0
 40
4.0
 40
5.0
 40
5.0
 40
5.0
 40
6.0
 40
6.0
 40
6.0
 40
7.0
 40
7.0
 40
7.0
 40
8.0
 40
8.0
 40
8.0
 40
9.0
 40
9.0
 40
9.0
 40
10.0
 40
10.0
 40
10.0
 40
11.0
 40
11.0
 40
11.0
 40
12.0
 40
12.0
 40
12.0
 40
13.0
 40
13.0
 40
13.0
 40
14.0
 40
14.0
 40
14.0
 40
15.0
 40
15.0
 40
15.0
 40
15.0
 10
148.3764430865873
 20
-80.68484682213244
 30
0.0
 10
148.3764430865873
 20
-80.68484682213244
 30
0.0
 10
145.882304198322
 20
-81.97248571069929
 30
0.0
 10
145.882304198322
 20
-81.97248571069929
 30
0.0
 10
145.882304198322
 20
-81.97248571069929
 30
0.0
 10
145.878776420545
 20
-81.97248571069929
 30
0.0
 10
145.878776420545
 20
-81.97248571069929
 30
0.0
 10
145.878776420545
 20
-81.97248571069929
 30
0.0
 10
145.878776420545
 20
-76.91012460085364
 30
0.0
 10
145.878776420545
 20
-76.91012460085364
 30
0.0
 10
145.878776420545
 20
-76.08109682328299
 30
0.0
 10
145.9069986427602
 20
-75.41434682344989
 30
0.0
 10
145.8329153094457
 20
-75.07920793464453
 30
0.0
 10
145.5048319761943
 20
-73.5728468239105
 30
0.0
 10
144.4464986431255
 20
-72.64504126858652
 30
0.0
 10
143.8503041988299
 20
-72.12293015760609
 30
0.0
 10
143.2364708656501
 20
-71.58670793551778
 30
0.0
 10
142.6896653102315
 20
-71.2868468244815
 30
0.0
 10
142.569720865817
 20
-71.21981904672094
 30
0.0
 10
141.9982208659596
 20
-70.89879126902348
 30
0.0
 10
140.8128875329224
 20
-70.22145793585945
 30
0.0
 10
139.165415311112
 20
-69.27248571387429
 30
0.0
 10
140.7423319773849
 20
-68.14712460304433
 30
0.0
 10
139.7157486443082
 20
-68.88090238063864
 30
0.0
 10
141.2926653105804
 20
-67.7555412698087
 30
0.0
 10
141.2926653105804
 20
-67.7555412698087
 30
0.0
 10
141.3103041994647
 20
-67.72379126981723
 30
0.0
 10
141.3103041994647
 20
-67.72379126981723
 30
0.0
 10
142.3404153103183
 20
-68.33762460299702
 30
0.0
 10
143.2964430878574
 20
-68.89501349174654
 30
0.0
 10
144.1043041987662
 20
-69.3465690471888
 30
0.0
 10
144.2524708653958
 20
-69.42770793605789
 30
0.0
 10
144.9368597541138
 20
-69.70993015820929
 30
0.0
 10
145.7517764205766
 20
-70.28495793584304
 30
0.0
 10
145.9599153094135
 20
-70.43312460247269
 30
0.0
 10
146.1327764204813
 20
-70.56718015799508
 30
0.0
 10
146.2209708649037
 20
-70.63773571353262
 30
0.0
 10
147.5297764201324
 20
-71.70312460215531
 30
0.0
 10
148.073054197774
 20
-73.45290237949598
 30
0.0
 10
148.1330264199813
 20
-73.75629126830859
 30
0.0
 10
148.4081930865794
 20
-75.1356523790748
 30
0.0
 10
148.31647086438
 20
-75.27676349015115
 30
0.0
 10
148.3376375310412
 20
-76.63495793425554
 30
0.0
 10
148.358804197703
 20
-77.98609682280662
 30
0.0
 10
148.3729153088103
 20
-79.33370793358137
 30
0.0
 10
148.3764430865873
 20
-80.68484682213244
 30
0.0
  0
HATCH
  5
8A
330
85
100
AcDbEntity
  8
Layer 1
 62
    18
420
        0
100
AcDbHatch
 10
0.0
 20
0.0
 30
0.0
210
0.0
220
0.0
230
1.0
  2
SOLID
 70
     1
 71
     0
 91
        1
 92
        1
 93
        1
 72
     4
 94
        3
 73
     0
 74
     1
 95
       50
 96
       46
 40
0.0
 40
0.0
 40
0.0
 40
0.0
 40
1.0
 40
1.0
 40
1.0
 40
2.0
 40
2.0
 40
2.0
 40
3.0
 40
3.0
 40
3.0
 40
4.0
 40
4.0
 40
4.0
 40
5.0
 40
5.0
 40
5.0
 40
6.0
 40
6.0
 40
6.0
 40
7.0
 40
7.0
 40
7.0
 40
8.0
 40
8.0
 40
8.0
 40
9.0
 40
9.0
 40
9.0
 40
10.0
 40
10.0
 40
10.0
 40
11.0
 40
11.0
 40
11.0
 40
12.0
 40
12.0
 40
12.0
 40
13.0
 40
13.0
 40
13.0
 40
14.0
 40
14.0
 40
14.0
 40
15.0
 40
15.0
 40
15.0
 40
15.0
 10
148.3764430865873
 20
-80.68484682213244
 10
148.3764430865873
 20
-80.68484682213244
 10
145.882304198322
 20
-81.97248571069929
 10
145.882304198322
 20
-81.97248571069929
 10
145.882304198322
 20
-81.97248571069929
 10
145.878776420545
 20
-81.97248571069929
 10
145.878776420545
 20
-81.97248571069929
 10
145.878776420545
 20
-81.97248571069929
 10
145.878776420545
 20
-76.91012460085364
 10
145.878776420545
 20
-76.91012460085364
 10
145.878776420545
 20
-76.08109682328299
 10
145.9069986427602
 20
-75.41434682344989
 10
145.8329153094457
 20
-75.07920793464453
 10
145.5048319761943
 20
-73.5728468239105
 10
144.4464986431255
 20
-72.64504126858652
 10
143.8503041988299
 20
-72.12293015760609
 10
143.2364708656501
 20
-71.58670793551778
 10
142.6896653102315
 20
-71.2868468244815
 10
142.569720865817
 20
-71.21981904672094
 10
141.9982208659596
 20
-70.89879126902348
 10
140.8128875329224
 20
-70.22145793585945
 10
139.165415311112
 20
-69.27248571387429
 10
140.7423319773849
 20
-68.14712460304433
 10
139.7157486443082
 20
-68.88090238063864
 10
141.2926653105804
 20
-67.7555412698087
 10
141.2926653105804
 20
-67.7555412698087
 10
141.3103041994647
 20
-67.72379126981723
 10
141.3103041994647
 20
-67.72379126981723
 10
142.3404153103183
 20
-68.33762460299702
 10
143.2964430878574
 20
-68.89501349174654
 10
144.1043041987662
 20
-69.3465690471888
 10
144.2524708653958
 20
-69.42770793605789
 10
144.9368597541138
 20
-69.70993015820929
 10
145.7517764205766
 20
-70.28495793584304
 10
145.9599153094135
 20
-70.43312460247269
 10
146.1327764204813
 20
-70.56718015799508
 10
146.2209708649037
 20
-70.63773571353262
 10
147.5297764201324
 20
-71.70312460215531
 10
148.073054197774
 20
-73.45290237949598
 10
148.1330264199813
 20
-73.75629126830859
 10
148.4081930865794
 20
-75.1356523790748
 10
148.31647086438
 20
-75.27676349015115
 10
148.3376375310412
 20
-76.63495793425554
 10
148.358804197703
 20
-77.98609682280662
 10
148.3729153088103
 20
-79.33370793358137
 10
148.3764430865873
 20
-80.68484682213244
 97
        0
 97
        0
 75
     2
 76
     1
 98
        0
  0
SPLINE
  5
8B
330
85
100
AcDbEntity
  8
Layer 1
370
     0
100
AcDbSpline
210
0.0
220
0.0
230
1.0
 70
    11
 71
     3
 72
    26
 73
    22
 74
     0
 42
0.0000000001
 43
0.0000000001
 12
1.0
 22
0.0
 32
0.0
 13
1.0
 23
0.0
 33
0.0
 40
0.0
 40
0.0
 40
0.0
 40
0.0
 40
1.0
 40
1.0
 40
1.0
 40
2.0
 40
2.0
 40
2.0
 40
3.0
 40
3.0
 40
3.0
 40
4.0
 40
4.0
 40
4.0
 40
5.0
 40
5.0
 40
5.0
 40
6.0
 40
6.0
 40
6.0
 40
7.0
 40
7.0
 40
7.0
 40
7.0
 10
147.1029153091277
 20
-93.17318015234324
 30
0.0
 10
147.7802486422917
 20
-93.17318015234324
 30
0.0
 10
148.3270541977109
 20
-93.71998570776184
 30
0.0
 10
148.3270541977109
 20
-94.3973190409265
 30
0.0
 10
148.3270541977109
 20
-94.77126348527665
 30
0.0
 10
148.1577208644201
 20
-95.10640237408201
 30
0.0
 10
147.8931375311529
 20
-95.33218015180313
 30
0.0
 10
147.8931375311529
 20
-95.33218015180313
 30
0.0
 10
147.882554197822
 20
-95.33923570735708
 30
0.0
 10
147.882554197822
 20
-95.33923570735708
 30
0.0
 10
147.882554197822
 20
-95.33923570735708
 30
0.0
 10
147.5650541979015
 20
-95.52973570730975
 30
0.0
 10
147.5650541979015
 20
-95.52973570730975
 30
0.0
 10
147.4239430868258
 20
-95.58970792951766
 30
0.0
 10
147.2651930868652
 20
-95.62145792950977
 30
0.0
 10
147.1029153091277
 20
-95.62145792950977
 30
0.0
 10
146.4255819759636
 20
-95.62145792950977
 30
0.0
 10
145.878776420545
 20
-95.07112459631355
 30
0.0
 10
145.878776420545
 20
-94.3973190409265
 30
0.0
 10
145.878776420545
 20
-93.71998570776184
 30
0.0
 10
146.4255819759636
 20
-93.17318015234324
 30
0.0
 10
147.1029153091277
 20
-93.17318015234324
 30
0.0
  0
HATCH
  5
8C
330
85
100
AcDbEntity
  8
Layer 1
 62
    18
420
        0
100
AcDbHatch
 10
0.0
 20
0.0
 30
0.0
210
0.0
220
0.0
230
1.0
  2
SOLID
 70
     1
 71
     0
 91
        1
 92
        1
 93
        1
 72
     4
 94
        3
 73
     0
 74
     1
 95
       26
 96
       22
 40
0.0
 40
0.0
 40
0.0
 40
0.0
 40
1.0
 40
1.0
 40
1.0
 40
2.0
 40
2.0
 40
2.0
 40
3.0
 40
3.0
 40
3.0
 40
4.0
 40
4.0
 40
4.0
 40
5.0
 40
5.0
 40
5.0
 40
6.0
 40
6.0
 40
6.0
 40
7.0
 40
7.0
 40
7.0
 40
7.0
 10
147.1029153091277
 20
-93.17318015234324
 10
147.7802486422917
 20
-93.17318015234324
 10
148.3270541977109
 20
-93.71998570776184
 10
148.3270541977109
 20
-94.3973190409265
 10
148.3270541977109
 20
-94.77126348527665
 10
148.1577208644201
 20
-95.10640237408201
 10
147.8931375311529
 20
-95.33218015180313
 10
147.8931375311529
 20
-95.33218015180313
 10
147.882554197822
 20
-95.33923570735708
 10
147.882554197822
 20
-95.33923570735708
 10
147.882554197822
 20
-95.33923570735708
 10
147.5650541979015
 20
-95.52973570730975
 10
147.5650541979015
 20
-95.52973570730975
 10
147.4239430868258
 20
-95.58970792951766
 10
147.2651930868652
 20
-95.62145792950977
 10
147.1029153091277
 20
-95.62145792950977
 10
146.4255819759636
 20
-95.62145792950977
 10
145.878776420545
 20
-95.07112459631355
 10
145.878776420545
 20
-94.3973190409265
 10
145.878776420545
 20
-93.71998570776184
 10
146.4255819759636
 20
-93.17318015234324
 10
147.1029153091277
 20
-93.17318015234324
 97
        0
 97
        0
 75
     2
 76
     1
 98
        0
  0
SPLINE
  5
8D
330
85
100
AcDbEntity
  8
Layer 1
370
     0
100
AcDbSpline
210
0.0
220
0.0
230
1.0
 70
    11
 71
     3
 72
    35
 73
    31
 74
     0
 42
0.0000000001
 43
0.0000000001
 12
1.0
 22
0.0
 32
0.0
 13
1.0
 23
0.0
 33
0.0
 40
0.0
 40
0.0
 40
0.0
 40
0.0
 40
1.0
 40
1.0
 40
1.0
 40
2.0
 40
2.0
 40
2.0
 40
3.0
 40
3.0
 40
3.0
 40
4.0
 40
4.0
 40
4.0
 40
5.0
 40
5.0
 40
5.0
 40
6.0
 40
6.0
 40
6.0
 40
7.0
 40
7.0
 40
7.0
 40
8.0
 40
8.0
 40
8.0
 40
9.0
 40
9.0
 40
9.0
 40
10.0
 40
10.0
 40
10.0
 40
10.0
 10
148.3270541977109
 20
-94.3973190409265
 30
0.0
 10
148.3270541977109
 20
-93.71998570776184
 30
0.0
 10
147.7802486422917
 20
-93.17318015234324
 30
0.0
 10
147.1029153091277
 20
-93.17318015234324
 30
0.0
 10
146.4255819759636
 20
-93.17318015234324
 30
0.0
 10
145.878776420545
 20
-93.71998570776184
 30
0.0
 10
145.878776420545
 20
-94.3973190409265
 30
0.0
 10
145.878776420545
 20
-94.3973190409265
 30
0.0
 10
145.878776420545
 20
-88.54473570905594
 30
0.0
 10
145.878776420545
 20
-88.54473570905594
 30
0.0
 10
145.878776420545
 20
-88.54473570905594
 30
0.0
 10
145.878776420545
 20
-86.7173468206238
 30
0.0
 10
145.878776420545
 20
-86.7173468206238
 30
0.0
 10
145.878776420545
 20
-86.7173468206238
 30
0.0
 10
145.878776420545
 20
-83.81751348801566
 30
0.0
 10
145.878776420545
 20
-83.81751348801566
 30
0.0
 10
145.878776420545
 20
-83.81751348801566
 30
0.0
 10
148.3799708643642
 20
-82.52281904389486
 30
0.0
 10
148.3799708643642
 20
-82.52281904389486
 30
0.0
 10
148.3799708643642
 20
-85.63784682089386
 30
0.0
 10
148.3482208643721
 20
-88.74934682011587
 30
0.0
 10
148.3376375310412
 20
-91.86437459711519
 30
0.0
 10
148.3376375310412
 20
-92.60168015248648
 30
0.0
 10
148.3376375310412
 20
-93.19434681900508
 30
0.0
 10
148.3376375310412
 20
-93.51890237447888
 30
0.0
 10
148.3376375310412
 20
-93.51890237447888
 30
0.0
 10
148.3376375310412
 20
-94.3973190409265
 30
0.0
 10
148.3376375310412
 20
-94.3973190409265
 30
0.0
 10
148.3376375310412
 20
-94.3973190409265
 30
0.0
 10
148.3270541977109
 20
-94.3973190409265
 30
0.0
 10
148.3270541977109
 20
-94.3973190409265
 30
0.0
  0
HATCH
  5
8E
330
85
100
AcDbEntity
  8
Layer 1
 62
    18
420
        0
100
AcDbHatch
 10
0.0
 20
0.0
 30
0.0
210
0.0
220
0.0
230
1.0
  2
SOLID
 70
     1
 71
     0
 91
        1
 92
        1
 93
        1
 72
     4
 94
        3
 73
     0
 74
     1
 95
       35
 96
       31
 40
0.0
 40
0.0
 40
0.0
 40
0.0
 40
1.0
 40
1.0
 40
1.0
 40
2.0
 40
2.0
 40
2.0
 40
3.0
 40
3.0
 40
3.0
 40
4.0
 40
4.0
 40
4.0
 40
5.0
 40
5.0
 40
5.0
 40
6.0
 40
6.0
 40
6.0
 40
7.0
 40
7.0
 40
7.0
 40
8.0
 40
8.0
 40
8.0
 40
9.0
 40
9.0
 40
9.0
 40
10.0
 40
10.0
 40
10.0
 40
10.0
 10
148.3270541977109
 20
-94.3973190409265
 10
148.3270541977109
 20
-93.71998570776184
 10
147.7802486422917
 20
-93.17318015234324
 10
147.1029153091277
 20
-93.17318015234324
 10
146.4255819759636
 20
-93.17318015234324
 10
145.878776420545
 20
-93.71998570776184
 10
145.878776420545
 20
-94.3973190409265
 10
145.878776420545
 20
-94.3973190409265
 10
145.878776420545
 20
-88.54473570905594
 10
145.878776420545
 20
-88.54473570905594
 10
145.878776420545
 20
-88.54473570905594
 10
145.878776420545
 20
-86.7173468206238
 10
145.878776420545
 20
-86.7173468206238
 10
145.878776420545
 20
-86.7173468206238
 10
145.878776420545
 20
-83.81751348801566
 10
145.878776420545
 20
-83.81751348801566
 10
145.878776420545
 20
-83.81751348801566
 10
148.3799708643642
 20
-82.52281904389486
 10
148.3799708643642
 20
-82.52281904389486
 10
148.3799708643642
 20
-85.63784682089386
 10
148.3482208643721
 20
-88.74934682011587
 10
148.3376375310412
 20
-91.86437459711519
 10
148.3376375310412
 20
-92.60168015248648
 10
148.3376375310412
 20
-93.19434681900508
 10
148.3376375310412
 20
-93.51890237447888
 10
148.3376375310412
 20
-93.51890237447888
 10
148.3376375310412
 20
-94.3973190409265
 10
148.3376375310412
 20
-94.3973190409265
 10
148.3376375310412
 20
-94.3973190409265
 10
148.3270541977109
 20
-94.3973190409265
 10
148.3270541977109
 20
-94.3973190409265
 97
        0
 97
        0
 75
     2
 76
     1
 98
        0
  0
SPLINE
  5
8F
330
85
100
AcDbEntity
  8
Layer 1
370
     0
100
AcDbSpline
210
0.0
220
0.0
230
1.0
 70
    11
 71
     3
 72
    17
 73
    13
 74
     0
 42
0.0000000001
 43
0.0000000001
 12
1.0
 22
0.0
 32
0.0
 13
1.0
 23
0.0
 33
0.0
 40
0.0
 40
0.0
 40
0.0
 40
0.0
 40
1.0
 40
1.0
 40
1.0
 40
2.0
 40
2.0
 40
2.0
 40
3.0
 40
3.0
 40
3.0
 40
4.0
 40
4.0
 40
4.0
 40
4.0
 10
145.878776420545
 20
-83.81751348801566
 30
0.0
 10
145.878776420545
 20
-83.81751348801566
 30
0.0
 10
145.878776420545
 20
-86.7173468206238
 30
0.0
 10
145.878776420545
 20
-86.7173468206238
 30
0.0
 10
145.878776420545
 20
-86.7173468206238
 30
0.0
 10
144.0125819765675
 20
-87.68043015371686
 30
0.0
 10
144.0125819765675
 20
-87.68043015371686
 30
0.0
 10
144.0161097543438
 20
-86.71381904284748
 30
0.0
 10
144.0196375321208
 20
-85.74720793197744
 30
0.0
 10
144.0196375321208
 20
-84.78059682110806
 30
0.0
 10
144.0196375321208
 20
-84.78059682110806
 30
0.0
 10
145.878776420545
 20
-83.81751348801566
 30
0.0
 10
145.878776420545
 20
-83.81751348801566
 30
0.0
  0
HATCH
  5
90
330
85
100
AcDbEntity
  8
Layer 1
 62
    18
420
        0
100
AcDbHatch
 10
0.0
 20
0.0
 30
0.0
210
0.0
220
0.0
230
1.0
  2
SOLID
 70
     1
 71
     0
 91
        1
 92
        1
 93
        1
 72
     4
 94
        3
 73
     0
 74
     1
 95
       17
 96
       13
 40
0.0
 40
0.0
 40
0.0
 40
0.0
 40
1.0
 40
1.0
 40
1.0
 40
2.0
 40
2.0
 40
2.0
 40
3.0
 40
3.0
 40
3.0
 40
4.0
 40
4.0
 40
4.0
 40
4.0
 10
145.878776420545
 20
-83.81751348801566
 10
145.878776420545
 20
-83.81751348801566
 10
145.878776420545
 20
-86.7173468206238
 10
145.878776420545
 20
-86.7173468206238
 10
145.878776420545
 20
-86.7173468206238
 10
144.0125819765675
 20
-87.68043015371686
 10
144.0125819765675
 20
-87.68043015371686
 10
144.0161097543438
 20
-86.71381904284748
 10
144.0196375321208
 20
-85.74720793197744
 10
144.0196375321208
 20
-84.78059682110806
 10
144.0196375321208
 20
-84.78059682110806
 10
145.878776420545
 20
-83.81751348801566
 10
145.878776420545
 20
-83.81751348801566
 97
        0
 97
        0
 75
     2
 76
     1
 98
        0
  0
SPLINE
  5
91
330
85
100
AcDbEntity
  8
Layer 1
370
     0
100
AcDbSpline
210
0.0
220
0.0
230
1.0
 70
    11
 71
     3
 72
    47
 73
    43
 74
     0
 42
0.0000000001
 43
0.0000000001
 12
1.0
 22
0.0
 32
0.0
 13
1.0
 23
0.0
 33
0.0
 40
0.0
 40
0.0
 40
0.0
 40
0.0
 40
1.0
 40
1.0
 40
1.0
 40
2.0
 40
2.0
 40
2.0
 40
3.0
 40
3.0
 40
3.0
 40
4.0
 40
4.0
 40
4.0
 40
5.0
 40
5.0
 40
5.0
 40
6.0
 40
6.0
 40
6.0
 40
7.0
 40
7.0
 40
7.0
 40
8.0
 40
8.0
 40
8.0
 40
9.0
 40
9.0
 40
9.0
 40
10.0
 40
10.0
 40
10.0
 40
11.0
 40
11.0
 40
11.0
 40
12.0
 40
12.0
 40
12.0
 40
13.0
 40
13.0
 40
13.0
 40
14.0
 40
14.0
 40
14.0
 40
14.0
 10
144.0196375321208
 20
-84.78059682110806
 30
0.0
 10
144.0196375321208
 20
-85.74720793197744
 30
0.0
 10
144.0161097543438
 20
-86.71381904284748
 30
0.0
 10
144.0125819765675
 20
-87.68043015371686
 30
0.0
 10
144.0125819765675
 20
-87.68043015371686
 30
0.0
 10
141.5184430883016
 20
-88.97512459783765
 30
0.0
 10
141.5184430883016
 20
-88.97512459783765
 30
0.0
 10
141.5184430883016
 20
-88.97512459783765
 30
0.0
 10
141.5184430883016
 20
-79.5383190446413
 30
0.0
 10
141.5184430883016
 20
-79.5383190446413
 30
0.0
 10
141.5184430883016
 20
-78.70929126707064
 30
0.0
 10
141.5466653105167
 20
-78.04606904501387
 30
0.0
 10
141.4725819772022
 20
-77.70740237843218
 30
0.0
 10
141.1444986439508
 20
-76.2010412676975
 30
0.0
 10
140.0861653108821
 20
-75.27676349015115
 30
0.0
 10
139.4864430888101
 20
-74.7511246013931
 30
0.0
 10
138.8761375334067
 20
-74.21490237930543
 30
0.0
 10
138.3293319779881
 20
-73.91504126826915
 30
0.0
 10
138.2093875335736
 20
-73.84801349050795
 30
0.0
 10
137.1404708671739
 20
-73.25181904621238
 30
0.0
 10
133.9372486457525
 20
-71.40326349111903
 30
0.0
 10
129.5592764246248
 20
-68.88795793619259
 30
0.0
 10
131.1079708686825
 20
-67.78376349202384
 30
0.0
 10
130.2471930911198
 20
-68.39759682520427
 30
0.0
 10
131.820581979615
 20
-67.27223571437433
 30
0.0
 10
134.7027764233389
 20
-69.01848571393738
 30
0.0
 10
138.5762764223704
 20
-71.4420690466651
 30
0.0
 10
139.7439708665234
 20
-71.97476349097644
 30
0.0
 10
139.8991930887063
 20
-72.04531904651462
 30
0.0
 10
140.5765264218704
 20
-72.34165237977328
 30
0.0
 10
141.3914430883338
 20
-72.91668015740765
 30
0.0
 10
141.5995819771707
 20
-73.06131904626034
 30
0.0
 10
141.7724430882385
 20
-73.19537460178209
 30
0.0
 10
141.8606375326609
 20
-73.26945793509724
 30
0.0
 10
143.1694430878889
 20
-74.33131904594296
 30
0.0
 10
143.7127208655312
 20
-76.08109682328299
 30
0.0
 10
143.7726930877384
 20
-76.38448571209624
 30
0.0
 10
144.0478597543359
 20
-77.76737460063943
 30
0.0
 10
143.9561375321366
 20
-77.90495793393816
 30
0.0
 10
143.9773041987984
 20
-79.26668015582015
 30
0.0
 10
144.0090541987905
 20
-81.10465237758258
 30
0.0
 10
144.0196375321208
 20
-82.94262459934565
 30
0.0
 10
144.0196375321208
 20
-84.78059682110806
 30
0.0
  0
HATCH
  5
92
330
85
100
AcDbEntity
  8
Layer 1
 62
    18
420
        0
100
AcDbHatch
 10
0.0
 20
0.0
 30
0.0
210
0.0
220
0.0
230
1.0
  2
SOLID
 70
     1
 71
     0
 91
        1
 92
        1
 93
        1
 72
     4
 94
        3
 73
     0
 74
     1
 95
       47
 96
       43
 40
0.0
 40
0.0
 40
0.0
 40
0.0
 40
1.0
 40
1.0
 40
1.0
 40
2.0
 40
2.0
 40
2.0
 40
3.0
 40
3.0
 40
3.0
 40
4.0
 40
4.0
 40
4.0
 40
5.0
 40
5.0
 40
5.0
 40
6.0
 40
6.0
 40
6.0
 40
7.0
 40
7.0
 40
7.0
 40
8.0
 40
8.0
 40
8.0
 40
9.0
 40
9.0
 40
9.0
 40
10.0
 40
10.0
 40
10.0
 40
11.0
 40
11.0
 40
11.0
 40
12.0
 40
12.0
 40
12.0
 40
13.0
 40
13.0
 40
13.0
 40
14.0
 40
14.0
 40
14.0
 40
14.0
 10
144.0196375321208
 20
-84.78059682110806
 10
144.0196375321208
 20
-85.74720793197744
 10
144.0161097543438
 20
-86.71381904284748
 10
144.0125819765675
 20
-87.68043015371686
 10
144.0125819765675
 20
-87.68043015371686
 10
141.5184430883016
 20
-88.97512459783765
 10
141.5184430883016
 20
-88.97512459783765
 10
141.5184430883016
 20
-88.97512459783765
 10
141.5184430883016
 20
-79.5383190446413
 10
141.5184430883016
 20
-79.5383190446413
 10
141.5184430883016
 20
-78.70929126707064
 10
141.5466653105167
 20
-78.04606904501387
 10
141.4725819772022
 20
-77.70740237843218
 10
141.1444986439508
 20
-76.2010412676975
 10
140.0861653108821
 20
-75.27676349015115
 10
139.4864430888101
 20
-74.7511246013931
 10
138.8761375334067
 20
-74.21490237930543
 10
138.3293319779881
 20
-73.91504126826915
 10
138.2093875335736
 20
-73.84801349050795
 10
137.1404708671739
 20
-73.25181904621238
 10
133.9372486457525
 20
-71.40326349111903
 10
129.5592764246248
 20
-68.88795793619259
 10
131.1079708686825
 20
-67.78376349202384
 10
130.2471930911198
 20
-68.39759682520427
 10
131.820581979615
 20
-67.27223571437433
 10
134.7027764233389
 20
-69.01848571393738
 10
138.5762764223704
 20
-71.4420690466651
 10
139.7439708665234
 20
-71.97476349097644
 10
139.8991930887063
 20
-72.04531904651462
 10
140.5765264218704
 20
-72.34165237977328
 10
141.3914430883338
 20
-72.91668015740765
 10
141.5995819771707
 20
-73.06131904626034
 10
141.7724430882385
 20
-73.19537460178209
 10
141.8606375326609
 20
-73.26945793509724
 10
143.1694430878889
 20
-74.33131904594296
 10
143.7127208655312
 20
-76.08109682328299
 10
143.7726930877384
 20
-76.38448571209624
 10
144.0478597543359
 20
-77.76737460063943
 10
143.9561375321366
 20
-77.90495793393816
 10
143.9773041987984
 20
-79.26668015582015
 10
144.0090541987905
 20
-81.10465237758258
 10
144.0196375321208
 20
-82.94262459934565
 10
144.0196375321208
 20
-84.78059682110806
 97
        0
 97
        0
 75
     2
 76
     1
 98
        0
  0
SPLINE
  5
93
330
85
100
AcDbEntity
  8
Layer 1
370
     0
100
AcDbSpline
210
0.0
220
0.0
230
1.0
 70
    11
 71
     3
 72
    20
 73
    16
 74
     0
 42
0.0000000001
 43
0.0000000001
 12
1.0
 22
0.0
 32
0.0
 13
1.0
 23
0.0
 33
0.0
 40
0.0
 40
0.0
 40
0.0
 40
0.0
 40
1.0
 40
1.0
 40
1.0
 40
2.0
 40
2.0
 40
2.0
 40
3.0
 40
3.0
 40
3.0
 40
4.0
 40
4.0
 40
4.0
 40
5.0
 40
5.0
 40
5.0
 40
5.0
 10
142.7425819768848
 20
-95.8013745961309
 30
0.0
 10
143.4163875322719
 20
-95.8013745961309
 30
0.0
 10
143.9667208654675
 20
-96.3517079293271
 30
0.0
 10
143.9667208654675
 20
-97.02551348471415
 30
0.0
 10
143.9667208654675
 20
-97.44884681794063
 30
0.0
 10
143.7515264210766
 20
-97.82279126229206
 30
0.0
 10
143.4269708656022
 20
-98.04151348445923
 30
0.0
 10
143.2294153100962
 20
-98.1720412622053
 30
0.0
 10
142.9965819768211
 20
-98.24965237329614
 30
0.0
 10
142.7425819768848
 20
-98.24965237329614
 30
0.0
 10
142.0652486437208
 20
-98.24965237329614
 30
0.0
 10
141.5184430883016
 20
-97.70284681787754
 30
0.0
 10
141.5184430883016
 20
-97.02551348471415
 30
0.0
 10
141.5184430883016
 20
-96.3517079293271
 30
0.0
 10
142.0652486437208
 20
-95.8013745961309
 30
0.0
 10
142.7425819768848
 20
-95.8013745961309
 30
0.0
  0
HATCH
  5
94
330
85
100
AcDbEntity
  8
Layer 1
 62
    18
420
        0
100
AcDbHatch
 10
0.0
 20
0.0
 30
0.0
210
0.0
220
0.0
230
1.0
  2
SOLID
 70
     1
 71
     0
 91
        1
 92
        1
 93
        1
 72
     4
 94
        3
 73
     0
 74
     1
 95
       20
 96
       16
 40
0.0
 40
0.0
 40
0.0
 40
0.0
 40
1.0
 40
1.0
 40
1.0
 40
2.0
 40
2.0
 40
2.0
 40
3.0
 40
3.0
 40
3.0
 40
4.0
 40
4.0
 40
4.0
 40
5.0
 40
5.0
 40
5.0
 40
5.0
 10
142.7425819768848
 20
-95.8013745961309
 10
143.4163875322719
 20
-95.8013745961309
 10
143.9667208654675
 20
-96.3517079293271
 10
143.9667208654675
 20
-97.02551348471415
 10
143.9667208654675
 20
-97.44884681794063
 10
143.7515264210766
 20
-97.82279126229206
 10
143.4269708656022
 20
-98.04151348445923
 10
143.2294153100962
 20
-98.1720412622053
 10
142.9965819768211
 20
-98.24965237329614
 10
142.7425819768848
 20
-98.24965237329614
 10
142.0652486437208
 20
-98.24965237329614
 10
141.5184430883016
 20
-97.70284681787754
 10
141.5184430883016
 20
-97.02551348471415
 10
141.5184430883016
 20
-96.3517079293271
 10
142.0652486437208
 20
-95.8013745961309
 10
142.7425819768848
 20
-95.8013745961309
 97
        0
 97
        0
 75
     2
 76
     1
 98
        0
  0
SPLINE
  5
95
330
85
100
AcDbEntity
  8
Layer 1
370
     0
100
AcDbSpline
210
0.0
220
0.0
230
1.0
 70
    11
 71
     3
 72
    32
 73
    28
 74
     0
 42
0.0000000001
 43
0.0000000001
 12
1.0
 22
0.0
 32
0.0
 13
1.0
 23
0.0
 33
0.0
 40
0.0
 40
0.0
 40
0.0
 40
0.0
 40
1.0
 40
1.0
 40
1.0
 40
2.0
 40
2.0
 40
2.0
 40
3.0
 40
3.0
 40
3.0
 40
4.0
 40
4.0
 40
4.0
 40
5.0
 40
5.0
 40
5.0
 40
6.0
 40
6.0
 40
6.0
 40
7.0
 40
7.0
 40
7.0
 40
8.0
 40
8.0
 40
8.0
 40
9.0
 40
9.0
 40
9.0
 40
9.0
 10
143.9773041987984
 20
-94.49256904090285
 30
0.0
 10
143.9773041987984
 20
-95.23340237405046
 30
0.0
 10
143.9773041987984
 20
-95.82254126279273
 30
0.0
 10
143.9773041987984
 20
-96.15062459604414
 30
0.0
 10
143.9773041987984
 20
-96.15062459604414
 30
0.0
 10
143.9773041987984
 20
-97.02551348471415
 30
0.0
 10
143.9773041987984
 20
-97.02551348471415
 30
0.0
 10
143.9773041987984
 20
-97.02551348471415
 30
0.0
 10
143.9667208654675
 20
-97.02551348471415
 30
0.0
 10
143.9667208654675
 20
-97.02551348471415
 30
0.0
 10
143.9667208654675
 20
-96.3517079293271
 30
0.0
 10
143.4163875322719
 20
-95.8013745961309
 30
0.0
 10
142.7425819768848
 20
-95.8013745961309
 30
0.0
 10
142.0652486437208
 20
-95.8013745961309
 30
0.0
 10
141.5184430883016
 20
-96.3517079293271
 30
0.0
 10
141.5184430883016
 20
-97.02551348471415
 30
0.0
 10
141.5184430883016
 20
-97.02551348471415
 30
0.0
 10
141.5184430883016
 20
-90.79898570849282
 30
0.0
 10
141.5184430883016
 20
-90.79898570849282
 30
0.0
 10
141.5184430883016
 20
-90.79898570849282
 30
0.0
 10
141.5219708660786
 20
-90.79898570849282
 30
0.0
 10
141.5219708660786
 20
-90.79898570849282
 30
0.0
 10
141.5219708660786
 20
-90.79898570849282
 30
0.0
 10
144.0019986432366
 20
-89.5148745977023
 30
0.0
 10
144.0019986432366
 20
-89.5148745977023
 30
0.0
 10
143.9949430876826
 20
-91.17645793062057
 30
0.0
 10
143.9843597543523
 20
-92.83451348576155
 30
0.0
 10
143.9773041987984
 20
-94.49256904090285
 30
0.0
  0
HATCH
  5
96
330
85
100
AcDbEntity
  8
Layer 1
 62
    18
420
        0
100
AcDbHatch
 10
0.0
 20
0.0
 30
0.0
210
0.0
220
0.0
230
1.0
  2
SOLID
 70
     1
 71
     0
 91
        1
 92
        1
 93
        1
 72
     4
 94
        3
 73
     0
 74
     1
 95
       32
 96
       28
 40
0.0
 40
0.0
 40
0.0
 40
0.0
 40
1.0
 40
1.0
 40
1.0
 40
2.0
 40
2.0
 40
2.0
 40
3.0
 40
3.0
 40
3.0
 40
4.0
 40
4.0
 40
4.0
 40
5.0
 40
5.0
 40
5.0
 40
6.0
 40
6.0
 40
6.0
 40
7.0
 40
7.0
 40
7.0
 40
8.0
 40
8.0
 40
8.0
 40
9.0
 40
9.0
 40
9.0
 40
9.0
 10
143.9773041987984
 20
-94.49256904090285
 10
143.9773041987984
 20
-95.23340237405046
 10
143.9773041987984
 20
-95.82254126279273
 10
143.9773041987984
 20
-96.15062459604414
 10
143.9773041987984
 20
-96.15062459604414
 10
143.9773041987984
 20
-97.02551348471415
 10
143.9773041987984
 20
-97.02551348471415
 10
143.9773041987984
 20
-97.02551348471415
 10
143.9667208654675
 20
-97.02551348471415
 10
143.9667208654675
 20
-97.02551348471415
 10
143.9667208654675
 20
-96.3517079293271
 10
143.4163875322719
 20
-95.8013745961309
 10
142.7425819768848
 20
-95.8013745961309
 10
142.0652486437208
 20
-95.8013745961309
 10
141.5184430883016
 20
-96.3517079293271
 10
141.5184430883016
 20
-97.02551348471415
 10
141.5184430883016
 20
-97.02551348471415
 10
141.5184430883016
 20
-90.79898570849282
 10
141.5184430883016
 20
-90.79898570849282
 10
141.5184430883016
 20
-90.79898570849282
 10
141.5219708660786
 20
-90.79898570849282
 10
141.5219708660786
 20
-90.79898570849282
 10
141.5219708660786
 20
-90.79898570849282
 10
144.0019986432366
 20
-89.5148745977023
 10
144.0019986432366
 20
-89.5148745977023
 10
143.9949430876826
 20
-91.17645793062057
 10
143.9843597543523
 20
-92.83451348576155
 10
143.9773041987984
 20
-94.49256904090285
 97
        0
 97
        0
 75
     2
 76
     1
 98
        0
  0
SPLINE
  5
97
330
85
100
AcDbEntity
  8
Layer 1
370
     0
100
AcDbSpline
210
0.0
220
0.0
230
1.0
 70
    11
 71
     3
 72
    23
 73
    19
 74
     0
 42
0.0000000001
 43
0.0000000001
 12
1.0
 22
0.0
 32
0.0
 13
1.0
 23
0.0
 33
0.0
 40
0.0
 40
0.0
 40
0.0
 40
0.0
 40
1.0
 40
1.0
 40
1.0
 40
2.0
 40
2.0
 40
2.0
 40
3.0
 40
3.0
 40
3.0
 40
4.0
 40
4.0
 40
4.0
 40
5.0
 40
5.0
 40
5.0
 40
6.0
 40
6.0
 40
6.0
 40
6.0
 10
138.0118319780676
 20
-98.72943015095417
 30
0.0
 10
138.6891653112316
 20
-98.72943015095417
 30
0.0
 10
139.2359708666502
 20
-99.27623570637277
 30
0.0
 10
139.2359708666502
 20
-99.95356903953744
 30
0.0
 10
139.2359708666502
 20
-100.2816523727889
 30
0.0
 10
139.1054430889048
 20
-100.5815134838245
 30
0.0
 10
138.8937764222916
 20
-100.8002357059917
 30
0.0
 10
138.8937764222916
 20
-100.8002357059917
 30
0.0
 10
138.3540264224262
 20
-101.1283190392431
 30
0.0
 10
138.3540264224262
 20
-101.1283190392431
 30
0.0
 10
138.2481930891196
 20
-101.1600690392352
 30
0.0
 10
138.1317764224821
 20
-101.1777079281207
 30
0.0
 10
138.0118319780676
 20
-101.1777079281207
 30
0.0
 10
137.3344986449036
 20
-101.1777079281207
 30
0.0
 10
136.7876930894843
 20
-100.6273745949245
 30
0.0
 10
136.7876930894843
 20
-99.95356903953744
 30
0.0
 10
136.7876930894843
 20
-99.27623570637277
 30
0.0
 10
137.3344986449036
 20
-98.72943015095417
 30
0.0
 10
138.0118319780676
 20
-98.72943015095417
 30
0.0
  0
HATCH
  5
98
330
85
100
AcDbEntity
  8
Layer 1
 62
    18
420
        0
100
AcDbHatch
 10
0.0
 20
0.0
 30
0.0
210
0.0
220
0.0
230
1.0
  2
SOLID
 70
     1
 71
     0
 91
        1
 92
        1
 93
        1
 72
     4
 94
        3
 73
     0
 74
     1
 95
       23
 96
       19
 40
0.0
 40
0.0
 40
0.0
 40
0.0
 40
1.0
 40
1.0
 40
1.0
 40
2.0
 40
2.0
 40
2.0
 40
3.0
 40
3.0
 40
3.0
 40
4.0
 40
4.0
 40
4.0
 40
5.0
 40
5.0
 40
5.0
 40
6.0
 40
6.0
 40
6.0
 40
6.0
 10
138.0118319780676
 20
-98.72943015095417
 10
138.6891653112316
 20
-98.72943015095417
 10
139.2359708666502
 20
-99.27623570637277
 10
139.2359708666502
 20
-99.95356903953744
 10
139.2359708666502
 20
-100.2816523727889
 10
139.1054430889048
 20
-100.5815134838245
 10
138.8937764222916
 20
-100.8002357059917
 10
138.8937764222916
 20
-100.8002357059917
 10
138.3540264224262
 20
-101.1283190392431
 10
138.3540264224262
 20
-101.1283190392431
 10
138.2481930891196
 20
-101.1600690392352
 10
138.1317764224821
 20
-101.1777079281207
 10
138.0118319780676
 20
-101.1777079281207
 10
137.3344986449036
 20
-101.1777079281207
 10
136.7876930894843
 20
-100.6273745949245
 10
136.7876930894843
 20
-99.95356903953744
 10
136.7876930894843
 20
-99.27623570637277
 10
137.3344986449036
 20
-98.72943015095417
 10
138.0118319780676
 20
-98.72943015095417
 97
        0
 97
        0
 75
     2
 76
     1
 98
        0
  0
SPLINE
  5
99
330
85
100
AcDbEntity
  8
Layer 1
370
     0
100
AcDbSpline
210
0.0
220
0.0
230
1.0
 70
    11
 71
     3
 72
    56
 73
    52
 74
     0
 42
0.0000000001
 43
0.0000000001
 12
1.0
 22
0.0
 32
0.0
 13
1.0
 23
0.0
 33
0.0
 40
0.0
 40
0.0
 40
0.0
 40
0.0
 40
1.0
 40
1.0
 40
1.0
 40
2.0
 40
2.0
 40
2.0
 40
3.0
 40
3.0
 40
3.0
 40
4.0
 40
4.0
 40
4.0
 40
5.0
 40
5.0
 40
5.0
 40
6.0
 40
6.0
 40
6.0
 40
7.0
 40
7.0
 40
7.0
 40
8.0
 40
8.0
 40
8.0
 40
9.0
 40
9.0
 40
9.0
 40
10.0
 40
10.0
 40
10.0
 40
11.0
 40
11.0
 40
11.0
 40
12.0
 40
12.0
 40
12.0
 40
13.0
 40
13.0
 40
13.0
 40
14.0
 40
14.0
 40
14.0
 40
15.0
 40
15.0
 40
15.0
 40
16.0
 40
16.0
 40
16.0
 40
17.0
 40
17.0
 40
17.0
 40
17.0
 10
139.2465541999811
 20
-99.07515237308982
 30
0.0
 10
139.2465541999811
 20
-99.07515237308982
 30
0.0
 10
139.2465541999811
 20
-99.95356903953744
 30
0.0
 10
139.2465541999811
 20
-99.95356903953744
 30
0.0
 10
139.2465541999811
 20
-99.95356903953744
 30
0.0
 10
139.2359708666502
 20
-99.95356903953744
 30
0.0
 10
139.2359708666502
 20
-99.95356903953744
 30
0.0
 10
139.2359708666502
 20
-99.27623570637277
 30
0.0
 10
138.6891653112316
 20
-98.72943015095417
 30
0.0
 10
138.0118319780676
 20
-98.72943015095417
 30
0.0
 10
137.3344986449036
 20
-98.72943015095417
 30
0.0
 10
136.7876930894843
 20
-99.27623570637277
 30
0.0
 10
136.7876930894843
 20
-99.95356903953744
 30
0.0
 10
136.7876930894843
 20
-99.95356903953744
 30
0.0
 10
136.7876930894843
 20
-82.46637459946457
 30
0.0
 10
136.7876930894843
 20
-82.46637459946457
 30
0.0
 10
136.7876930894843
 20
-81.63734682189393
 30
0.0
 10
136.8159153116995
 20
-80.97059682206083
 30
0.0
 10
136.741831978385
 20
-80.63545793325547
 30
0.0
 10
136.4137486451336
 20
-79.12909682252143
 30
0.0
 10
135.3554153120648
 20
-78.20129126719746
 30
0.0
 10
134.7592208677692
 20
-77.67918015621703
 30
0.0
 10
134.1453875345894
 20
-77.14295793412872
 30
0.0
 10
133.5985819791708
 20
-76.84309682309244
 30
0.0
 10
133.4786375347563
 20
-76.77606904533188
 30
0.0
 10
132.8013042015923
 20
-76.40212460098046
 30
0.0
 10
131.2702486464194
 20
-75.5201801567565
 30
0.0
 10
129.1324153136208
 20
-74.28898571261993
 30
0.0
 10
130.7128597576699
 20
-73.16362460178998
 30
0.0
 10
129.7039153134775
 20
-73.88329126827703
 30
0.0
 10
131.2808319797504
 20
-72.75440237967011
 30
0.0
 10
132.9318319793371
 20
-73.75629126830859
 30
0.0
 10
134.3782208678645
 20
-74.61354126809438
 30
0.0
 10
135.0132208677061
 20
-74.90281904579973
 30
0.0
 10
135.1684430898891
 20
-74.96984682356093
 30
0.0
 10
135.8457764230531
 20
-75.26618015682023
 30
0.0
 10
136.6606930895165
 20
-75.84120793445398
 30
0.0
 10
136.8688319783534
 20
-75.98937460108363
 30
0.0
 10
137.0416930894212
 20
-76.12343015660602
 30
0.0
 10
137.1298875338436
 20
-76.19398571214356
 30
0.0
 10
138.4386930890717
 20
-77.25584682298928
 30
0.0
 10
138.9819708667139
 20
-79.00915237810692
 30
0.0
 10
139.0419430889212
 20
-79.31254126691952
 30
0.0
 10
139.3171097555187
 20
-80.69190237768574
 30
0.0
 10
139.2253875333193
 20
-80.83301348876209
 30
0.0
 10
139.2465541999811
 20
-82.19120793286648
 30
0.0
 10
139.3312208666266
 20
-87.26768015382001
 30
0.0
 10
139.2641930888653
 20
-92.34415237477323
 30
0.0
 10
139.2465541999811
 20
-97.42062459572612
 30
0.0
 10
139.2465541999811
 20
-98.15793015109742
 30
0.0
 10
139.2465541999811
 20
-98.75059681761601
 30
0.0
 10
139.2465541999811
 20
-99.07515237308982
 30
0.0
  0
HATCH
  5
9A
330
85
100
AcDbEntity
  8
Layer 1
 62
    18
420
        0
100
AcDbHatch
 10
0.0
 20
0.0
 30
0.0
210
0.0
220
0.0
230
1.0
  2
SOLID
 70
     1
 71
     0
 91
        1
 92
        1
 93
        1
 72
     4
 94
        3
 73
     0
 74
     1
 95
       56
 96
       52
 40
0.0
 40
0.0
 40
0.0
 40
0.0
 40
1.0
 40
1.0
 40
1.0
 40
2.0
 40
2.0
 40
2.0
 40
3.0
 40
3.0
 40
3.0
 40
4.0
 40
4.0
 40
4.0
 40
5.0
 40
5.0
 40
5.0
 40
6.0
 40
6.0
 40
6.0
 40
7.0
 40
7.0
 40
7.0
 40
8.0
 40
8.0
 40
8.0
 40
9.0
 40
9.0
 40
9.0
 40
10.0
 40
10.0
 40
10.0
 40
11.0
 40
11.0
 40
11.0
 40
12.0
 40
12.0
 40
12.0
 40
13.0
 40
13.0
 40
13.0
 40
14.0
 40
14.0
 40
14.0
 40
15.0
 40
15.0
 40
15.0
 40
16.0
 40
16.0
 40
16.0
 40
17.0
 40
17.0
 40
17.0
 40
17.0
 10
139.2465541999811
 20
-99.07515237308982
 10
139.2465541999811
 20
-99.07515237308982
 10
139.2465541999811
 20
-99.95356903953744
 10
139.2465541999811
 20
-99.95356903953744
 10
139.2465541999811
 20
-99.95356903953744
 10
139.2359708666502
 20
-99.95356903953744
 10
139.2359708666502
 20
-99.95356903953744
 10
139.2359708666502
 20
-99.27623570637277
 10
138.6891653112316
 20
-98.72943015095417
 10
138.0118319780676
 20
-98.72943015095417
 10
137.3344986449036
 20
-98.72943015095417
 10
136.7876930894843
 20
-99.27623570637277
 10
136.7876930894843
 20
-99.95356903953744
 10
136.7876930894843
 20
-99.95356903953744
 10
136.7876930894843
 20
-82.46637459946457
 10
136.7876930894843
 20
-82.46637459946457
 10
136.7876930894843
 20
-81.63734682189393
 10
136.8159153116995
 20
-80.97059682206083
 10
136.741831978385
 20
-80.63545793325547
 10
136.4137486451336
 20
-79.12909682252143
 10
135.3554153120648
 20
-78.20129126719746
 10
134.7592208677692
 20
-77.67918015621703
 10
134.1453875345894
 20
-77.14295793412872
 10
133.5985819791708
 20
-76.84309682309244
 10
133.4786375347563
 20
-76.77606904533188
 10
132.8013042015923
 20
-76.40212460098046
 10
131.2702486464194
 20
-75.5201801567565
 10
129.1324153136208
 20
-74.28898571261993
 10
130.7128597576699
 20
-73.16362460178998
 10
129.7039153134775
 20
-73.88329126827703
 10
131.2808319797504
 20
-72.75440237967011
 10
132.9318319793371
 20
-73.75629126830859
 10
134.3782208678645
 20
-74.61354126809438
 10
135.0132208677061
 20
-74.90281904579973
 10
135.1684430898891
 20
-74.96984682356093
 10
135.8457764230531
 20
-75.26618015682023
 10
136.6606930895165
 20
-75.84120793445398
 10
136.8688319783534
 20
-75.98937460108363
 10
137.0416930894212
 20
-76.12343015660602
 10
137.1298875338436
 20
-76.19398571214356
 10
138.4386930890717
 20
-77.25584682298928
 10
138.9819708667139
 20
-79.00915237810692
 10
139.0419430889212
 20
-79.31254126691952
 10
139.3171097555187
 20
-80.69190237768574
 10
139.2253875333193
 20
-80.83301348876209
 10
139.2465541999811
 20
-82.19120793286648
 10
139.3312208666266
 20
-87.26768015382001
 10
139.2641930888653
 20
-92.34415237477323
 10
139.2465541999811
 20
-97.42062459572612
 10
139.2465541999811
 20
-98.15793015109742
 10
139.2465541999811
 20
-98.75059681761601
 10
139.2465541999811
 20
-99.07515237308982
 97
        0
 97
        0
 75
     2
 76
     1
 98
        0
  0
SPLINE
  5
9B
330
85
100
AcDbEntity
  8
Layer 1
370
     0
100
AcDbSpline
210
0.0
220
0.0
230
1.0
 70
    11
 71
     3
 72
    23
 73
    19
 74
     0
 42
0.0000000001
 43
0.0000000001
 12
1.0
 22
0.0
 32
0.0
 13
1.0
 23
0.0
 33
0.0
 40
0.0
 40
0.0
 40
0.0
 40
0.0
 40
1.0
 40
1.0
 40
1.0
 40
2.0
 40
2.0
 40
2.0
 40
3.0
 40
3.0
 40
3.0
 40
4.0
 40
4.0
 40
4.0
 40
5.0
 40
5.0
 40
5.0
 40
6.0
 40
6.0
 40
6.0
 40
6.0
 10
133.139970868174
 20
-101.6857079279932
 30
0.0
 10
133.817304201338
 20
-101.6857079279932
 30
0.0
 10
134.3641097567572
 20
-102.2325134834119
 30
0.0
 10
134.3641097567572
 20
-102.9098468165765
 30
0.0
 10
134.3641097567572
 20
-103.2379301498266
 30
0.0
 10
134.2335819790118
 20
-103.5377912608636
 30
0.0
 10
134.0219153123979
 20
-103.7565134830307
 30
0.0
 10
134.0219153123979
 20
-103.7565134830307
 30
0.0
 10
133.4892208680872
 20
-104.0810690385058
 30
0.0
 10
133.4892208680872
 20
-104.0810690385058
 30
0.0
 10
133.379859757003
 20
-104.1163468162743
 30
0.0
 10
133.2634430903655
 20
-104.1339857051585
 30
0.0
 10
133.139970868174
 20
-104.1339857051585
 30
0.0
 10
132.4626375350099
 20
-104.1339857051585
 30
0.0
 10
131.9158319795914
 20
-103.5871801497399
 30
0.0
 10
131.9158319795914
 20
-102.9098468165765
 30
0.0
 10
131.9158319795914
 20
-102.2325134834119
 30
0.0
 10
132.4626375350099
 20
-101.6857079279932
 30
0.0
 10
133.139970868174
 20
-101.6857079279932
 30
0.0
  0
HATCH
  5
9C
330
85
100
AcDbEntity
  8
Layer 1
 62
    18
420
        0
100
AcDbHatch
 10
0.0
 20
0.0
 30
0.0
210
0.0
220
0.0
230
1.0
  2
SOLID
 70
     1
 71
     0
 91
        1
 92
        1
 93
        1
 72
     4
 94
        3
 73
     0
 74
     1
 95
       23
 96
       19
 40
0.0
 40
0.0
 40
0.0
 40
0.0
 40
1.0
 40
1.0
 40
1.0
 40
2.0
 40
2.0
 40
2.0
 40
3.0
 40
3.0
 40
3.0
 40
4.0
 40
4.0
 40
4.0
 40
5.0
 40
5.0
 40
5.0
 40
6.0
 40
6.0
 40
6.0
 40
6.0
 10
133.139970868174
 20
-101.6857079279932
 10
133.817304201338
 20
-101.6857079279932
 10
134.3641097567572
 20
-102.2325134834119
 10
134.3641097567572
 20
-102.9098468165765
 10
134.3641097567572
 20
-103.2379301498266
 10
134.2335819790118
 20
-103.5377912608636
 10
134.0219153123979
 20
-103.7565134830307
 10
134.0219153123979
 20
-103.7565134830307
 10
133.4892208680872
 20
-104.0810690385058
 10
133.4892208680872
 20
-104.0810690385058
 10
133.379859757003
 20
-104.1163468162743
 10
133.2634430903655
 20
-104.1339857051585
 10
133.139970868174
 20
-104.1339857051585
 10
132.4626375350099
 20
-104.1339857051585
 10
131.9158319795914
 20
-103.5871801497399
 10
131.9158319795914
 20
-102.9098468165765
 10
131.9158319795914
 20
-102.2325134834119
 10
132.4626375350099
 20
-101.6857079279932
 10
133.139970868174
 20
-101.6857079279932
 97
        0
 97
        0
 75
     2
 76
     1
 98
        0
  0
SPLINE
  5
9D
330
85
100
AcDbEntity
  8
Layer 1
370
     0
100
AcDbSpline
210
0.0
220
0.0
230
1.0
 70
    11
 71
     3
 72
    29
 73
    25
 74
     0
 42
0.0000000001
 43
0.0000000001
 12
1.0
 22
0.0
 32
0.0
 13
1.0
 23
0.0
 33
0.0
 40
0.0
 40
0.0
 40
0.0
 40
0.0
 40
1.0
 40
1.0
 40
1.0
 40
2.0
 40
2.0
 40
2.0
 40
3.0
 40
3.0
 40
3.0
 40
4.0
 40
4.0
 40
4.0
 40
5.0
 40
5.0
 40
5.0
 40
6.0
 40
6.0
 40
6.0
 40
7.0
 40
7.0
 40
7.0
 40
8.0
 40
8.0
 40
8.0
 40
8.0
 10
133.139970868174
 20
-101.6857079279932
 30
0.0
 10
132.4626375350099
 20
-101.6857079279932
 30
0.0
 10
131.9158319795914
 20
-102.2325134834119
 30
0.0
 10
131.9158319795914
 20
-102.9098468165765
 30
0.0
 10
131.9158319795914
 20
-102.9098468165765
 30
0.0
 10
131.9158319795914
 20
-86.97840237611466
 30
0.0
 10
131.9158319795914
 20
-86.97840237611466
 30
0.0
 10
131.9158319795914
 20
-86.97840237611466
 30
0.0
 10
134.3852764234184
 20
-85.6978190431011
 30
0.0
 10
134.3852764234184
 20
-85.6978190431011
 30
0.0
 10
134.4558319789566
 20
-90.58731904187894
 30
0.0
 10
134.3923319789724
 20
-95.48387459620976
 30
0.0
 10
134.3782208678645
 20
-100.3769023727652
 30
0.0
 10
134.3746930900875
 20
-101.1142079281365
 30
0.0
 10
134.3746930900875
 20
-101.7068745946551
 30
0.0
 10
134.3782208678645
 20
-102.0349579279052
 30
0.0
 10
134.3782208678645
 20
-102.0349579279052
 30
0.0
 10
134.3782208678645
 20
-102.9098468165765
 30
0.0
 10
134.3782208678645
 20
-102.9098468165765
 30
0.0
 10
134.3782208678645
 20
-102.9098468165765
 30
0.0
 10
134.3641097567572
 20
-102.9098468165765
 30
0.0
 10
134.3641097567572
 20
-102.9098468165765
 30
0.0
 10
134.3641097567572
 20
-102.2325134834119
 30
0.0
 10
133.817304201338
 20
-101.6857079279932
 30
0.0
 10
133.139970868174
 20
-101.6857079279932
 30
0.0
  0
HATCH
  5
9E
330
85
100
AcDbEntity
  8
Layer 1
 62
    18
420
        0
100
AcDbHatch
 10
0.0
 20
0.0
 30
0.0
210
0.0
220
0.0
230
1.0
  2
SOLID
 70
     1
 71
     0
 91
        1
 92
        1
 93
        1
 72
     4
 94
        3
 73
     0
 74
     1
 95
       29
 96
       25
 40
0.0
 40
0.0
 40
0.0
 40
0.0
 40
1.0
 40
1.0
 40
1.0
 40
2.0
 40
2.0
 40
2.0
 40
3.0
 40
3.0
 40
3.0
 40
4.0
 40
4.0
 40
4.0
 40
5.0
 40
5.0
 40
5.0
 40
6.0
 40
6.0
 40
6.0
 40
7.0
 40
7.0
 40
7.0
 40
8.0
 40
8.0
 40
8.0
 40
8.0
 10
133.139970868174
 20
-101.6857079279932
 10
132.4626375350099
 20
-101.6857079279932
 10
131.9158319795914
 20
-102.2325134834119
 10
131.9158319795914
 20
-102.9098468165765
 10
131.9158319795914
 20
-102.9098468165765
 10
131.9158319795914
 20
-86.97840237611466
 10
131.9158319795914
 20
-86.97840237611466
 10
131.9158319795914
 20
-86.97840237611466
 10
134.3852764234184
 20
-85.6978190431011
 10
134.3852764234184
 20
-85.6978190431011
 10
134.4558319789566
 20
-90.58731904187894
 10
134.3923319789724
 20
-95.48387459620976
 10
134.3782208678645
 20
-100.3769023727652
 10
134.3746930900875
 20
-101.1142079281365
 10
134.3746930900875
 20
-101.7068745946551
 10
134.3782208678645
 20
-102.0349579279052
 10
134.3782208678645
 20
-102.0349579279052
 10
134.3782208678645
 20
-102.9098468165765
 10
134.3782208678645
 20
-102.9098468165765
 10
134.3782208678645
 20
-102.9098468165765
 10
134.3641097567572
 20
-102.9098468165765
 10
134.3641097567572
 20
-102.9098468165765
 10
134.3641097567572
 20
-102.2325134834119
 10
133.817304201338
 20
-101.6857079279932
 10
133.139970868174
 20
-101.6857079279932
 97
        0
 97
        0
 75
     2
 76
     1
 98
        0
  0
SPLINE
  5
9F
330
85
100
AcDbEntity
  8
Layer 1
370
     0
100
AcDbSpline
210
0.0
220
0.0
230
1.0
 70
    11
 71
     3
 72
    44
 73
    40
 74
     0
 42
0.0000000001
 43
0.0000000001
 12
1.0
 22
0.0
 32
0.0
 13
1.0
 23
0.0
 33
0.0
 40
0.0
 40
0.0
 40
0.0
 40
0.0
 40
1.0
 40
1.0
 40
1.0
 40
2.0
 40
2.0
 40
2.0
 40
3.0
 40
3.0
 40
3.0
 40
4.0
 40
4.0
 40
4.0
 40
5.0
 40
5.0
 40
5.0
 40
6.0
 40
6.0
 40
6.0
 40
7.0
 40
7.0
 40
7.0
 40
8.0
 40
8.0
 40
8.0
 40
9.0
 40
9.0
 40
9.0
 40
10.0
 40
10.0
 40
10.0
 40
11.0
 40
11.0
 40
11.0
 40
12.0
 40
12.0
 40
12.0
 40
13.0
 40
13.0
 40
13.0
 40
13.0
 10
125.4211930923259
 20
-75.08626349019846
 30
0.0
 10
126.6806097586779
 20
-75.83768015667764
 30
0.0
 10
128.0952486472132
 20
-76.67376348980159
 30
0.0
 10
130.1448875355895
 20
-77.8590968228388
 30
0.0
 10
130.2895264244422
 20
-77.94376348948423
 30
0.0
 10
130.9739153131601
 20
-78.22598571163563
 30
0.0
 10
131.7888319796229
 20
-78.80101348927
 30
0.0
 10
131.9969708684598
 20
-78.94565237812269
 30
0.0
 10
132.1698319795276
 20
-79.07970793364444
 30
0.0
 10
132.261554201727
 20
-79.1537912669596
 30
0.0
 10
133.5668319791787
 20
-80.21565237780531
 30
0.0
 10
134.1101097568203
 20
-81.96543015514534
 30
0.0
 10
134.1700819790276
 20
-82.26881904395859
 30
0.0
 10
134.2229986456815
 20
-82.52634682167184
 30
0.0
 10
134.261804201227
 20
-82.74154126606268
 30
0.0
 10
134.2900264234421
 20
-82.92851348823775
 30
0.0
 10
134.2900264234421
 20
-82.92851348823775
 30
0.0
 10
131.9228875351453
 20
-84.15618015459799
 30
0.0
 10
131.9228875351453
 20
-84.15618015459799
 30
0.0
 10
131.9228875351453
 20
-84.15618015459799
 30
0.0
 10
131.9158319795914
 20
-84.15618015459799
 30
0.0
 10
131.9158319795914
 20
-84.15618015459799
 30
0.0
 10
131.9123042018144
 20
-83.91981904354594
 30
0.0
 10
131.9017208684841
 20
-83.72931904359326
 30
0.0
 10
131.869970868492
 20
-83.59173571029453
 30
0.0
 10
131.5418875352406
 20
-82.08537459955986
 30
0.0
 10
130.4835542021718
 20
-81.16109682201287
 30
0.0
 10
129.8873597578763
 20
-80.63545793325547
 30
0.0
 10
129.2735264246965
 20
-80.09923571116778
 30
0.0
 10
128.7267208692775
 20
-79.79937460013151
 30
0.0
 10
128.606776424863
 20
-79.7323468223703
 30
0.0
 10
127.6013597584476
 20
-79.17143015584382
 30
0.0
 10
124.7191653147237
 20
-77.50984682292619
 30
0.0
 10
120.7468875379389
 20
-75.2238468234972
 30
0.0
 10
121.5371097599638
 20
-74.65940237919438
 30
0.0
 10
122.2638319820041
 20
-74.14434682376725
 30
0.0
 10
122.9870264262679
 20
-73.62223571278683
 30
0.0
 10
123.8231097593921
 20
-74.12318015710606
 30
0.0
 10
124.5886375369786
 20
-74.58531904587923
 30
0.0
 10
125.4211930923259
 20
-75.08626349019846
 30
0.0
  0
HATCH
  5
A0
330
85
100
AcDbEntity
  8
Layer 1
 62
    18
420
        0
100
AcDbHatch
 10
0.0
 20
0.0
 30
0.0
210
0.0
220
0.0
230
1.0
  2
SOLID
 70
     1
 71
     0
 91
        1
 92
        1
 93
        1
 72
     4
 94
        3
 73
     0
 74
     1
 95
       44
 96
       40
 40
0.0
 40
0.0
 40
0.0
 40
0.0
 40
1.0
 40
1.0
 40
1.0
 40
2.0
 40
2.0
 40
2.0
 40
3.0
 40
3.0
 40
3.0
 40
4.0
 40
4.0
 40
4.0
 40
5.0
 40
5.0
 40
5.0
 40
6.0
 40
6.0
 40
6.0
 40
7.0
 40
7.0
 40
7.0
 40
8.0
 40
8.0
 40
8.0
 40
9.0
 40
9.0
 40
9.0
 40
10.0
 40
10.0
 40
10.0
 40
11.0
 40
11.0
 40
11.0
 40
12.0
 40
12.0
 40
12.0
 40
13.0
 40
13.0
 40
13.0
 40
13.0
 10
125.4211930923259
 20
-75.08626349019846
 10
126.6806097586779
 20
-75.83768015667764
 10
128.0952486472132
 20
-76.67376348980159
 10
130.1448875355895
 20
-77.8590968228388
 10
130.2895264244422
 20
-77.94376348948423
 10
130.9739153131601
 20
-78.22598571163563
 10
131.7888319796229
 20
-78.80101348927
 10
131.9969708684598
 20
-78.94565237812269
 10
132.1698319795276
 20
-79.07970793364444
 10
132.261554201727
 20
-79.1537912669596
 10
133.5668319791787
 20
-80.21565237780531
 10
134.1101097568203
 20
-81.96543015514534
 10
134.1700819790276
 20
-82.26881904395859
 10
134.2229986456815
 20
-82.52634682167184
 10
134.261804201227
 20
-82.74154126606268
 10
134.2900264234421
 20
-82.92851348823775
 10
134.2900264234421
 20
-82.92851348823775
 10
131.9228875351453
 20
-84.15618015459799
 10
131.9228875351453
 20
-84.15618015459799
 10
131.9228875351453
 20
-84.15618015459799
 10
131.9158319795914
 20
-84.15618015459799
 10
131.9158319795914
 20
-84.15618015459799
 10
131.9123042018144
 20
-83.91981904354594
 10
131.9017208684841
 20
-83.72931904359326
 10
131.869970868492
 20
-83.59173571029453
 10
131.5418875352406
 20
-82.08537459955986
 10
130.4835542021718
 20
-81.16109682201287
 10
129.8873597578763
 20
-80.63545793325547
 10
129.2735264246965
 20
-80.09923571116778
 10
128.7267208692775
 20
-79.79937460013151
 10
128.606776424863
 20
-79.7323468223703
 10
127.6013597584476
 20
-79.17143015584382
 10
124.7191653147237
 20
-77.50984682292619
 10
120.7468875379389
 20
-75.2238468234972
 10
121.5371097599638
 20
-74.65940237919438
 10
122.2638319820041
 20
-74.14434682376725
 10
122.9870264262679
 20
-73.62223571278683
 10
123.8231097593921
 20
-74.12318015710606
 10
124.5886375369786
 20
-74.58531904587923
 10
125.4211930923259
 20
-75.08626349019846
 97
        0
 97
        0
 75
     2
 76
     1
 98
        0
  0
SPLINE
  5
A1
330
85
100
AcDbEntity
  8
Layer 1
370
     0
100
AcDbSpline
210
0.0
220
0.0
230
1.0
 70
    11
 71
     3
 72
    26
 73
    22
 74
     0
 42
0.0000000001
 43
0.0000000001
 12
1.0
 22
0.0
 32
0.0
 13
1.0
 23
0.0
 33
0.0
 40
0.0
 40
0.0
 40
0.0
 40
0.0
 40
1.0
 40
1.0
 40
1.0
 40
2.0
 40
2.0
 40
2.0
 40
3.0
 40
3.0
 40
3.0
 40
4.0
 40
4.0
 40
4.0
 40
5.0
 40
5.0
 40
5.0
 40
6.0
 40
6.0
 40
6.0
 40
7.0
 40
7.0
 40
7.0
 40
7.0
 10
128.2857486471655
 20
-104.5890690383784
 30
0.0
 10
128.948970869222
 20
-104.5890690383784
 30
0.0
 10
129.4851930913103
 20
-105.1394023715746
 30
0.0
 10
129.4851930913103
 20
-105.8202634825156
 30
0.0
 10
129.4851930913103
 20
-106.2330134824118
 30
0.0
 10
129.2841097580274
 20
-106.5999023712092
 30
0.0
 10
128.9771930914372
 20
-106.822152371154
 30
0.0
 10
128.9771930914372
 20
-106.822152371154
 30
0.0
 10
128.8149153137003
 20
-106.9209301489067
 30
0.0
 10
128.8149153137003
 20
-106.9209301489067
 30
0.0
 10
128.6561653137394
 20
-107.0020690377752
 30
0.0
 10
128.4762486471179
 20
-107.0479301488752
 30
0.0
 10
128.2857486471655
 20
-107.0479301488752
 30
0.0
 10
127.8976930917069
 20
-107.0479301488752
 30
0.0
 10
127.5519708695709
 20
-106.8609579266988
 30
0.0
 10
127.3403042029574
 20
-106.5681523712171
 30
0.0
 10
127.1780264252201
 20
-106.3600134823802
 30
0.0
 10
127.0863042030208
 20
-106.102485704667
 30
0.0
 10
127.0863042030208
 20
-105.8202634825156
 30
0.0
 10
127.0863042030208
 20
-105.1394023715746
 30
0.0
 10
127.6225264251091
 20
-104.5890690383784
 30
0.0
 10
128.2857486471655
 20
-104.5890690383784
 30
0.0
  0
HATCH
  5
A2
330
85
100
AcDbEntity
  8
Layer 1
 62
    18
420
        0
100
AcDbHatch
 10
0.0
 20
0.0
 30
0.0
210
0.0
220
0.0
230
1.0
  2
SOLID
 70
     1
 71
     0
 91
        1
 92
        1
 93
        1
 72
     4
 94
        3
 73
     0
 74
     1
 95
       26
 96
       22
 40
0.0
 40
0.0
 40
0.0
 40
0.0
 40
1.0
 40
1.0
 40
1.0
 40
2.0
 40
2.0
 40
2.0
 40
3.0
 40
3.0
 40
3.0
 40
4.0
 40
4.0
 40
4.0
 40
5.0
 40
5.0
 40
5.0
 40
6.0
 40
6.0
 40
6.0
 40
7.0
 40
7.0
 40
7.0
 40
7.0
 10
128.2857486471655
 20
-104.5890690383784
 10
128.948970869222
 20
-104.5890690383784
 10
129.4851930913103
 20
-105.1394023715746
 10
129.4851930913103
 20
-105.8202634825156
 10
129.4851930913103
 20
-106.2330134824118
 10
129.2841097580274
 20
-106.5999023712092
 10
128.9771930914372
 20
-106.822152371154
 10
128.9771930914372
 20
-106.822152371154
 10
128.8149153137003
 20
-106.9209301489067
 10
128.8149153137003
 20
-106.9209301489067
 10
128.6561653137394
 20
-107.0020690377752
 10
128.4762486471179
 20
-107.0479301488752
 10
128.2857486471655
 20
-107.0479301488752
 10
127.8976930917069
 20
-107.0479301488752
 10
127.5519708695709
 20
-106.8609579266988
 10
127.3403042029574
 20
-106.5681523712171
 10
127.1780264252201
 20
-106.3600134823802
 10
127.0863042030208
 20
-106.102485704667
 10
127.0863042030208
 20
-105.8202634825156
 10
127.0863042030208
 20
-105.1394023715746
 10
127.6225264251091
 20
-104.5890690383784
 10
128.2857486471655
 20
-104.5890690383784
 97
        0
 97
        0
 75
     2
 76
     1
 98
        0
  0
SPLINE
  5
A3
330
85
100
AcDbEntity
  8
Layer 1
370
     0
100
AcDbSpline
210
0.0
220
0.0
230
1.0
 70
    11
 71
     3
 72
    17
 73
    13
 74
     0
 42
0.0000000001
 43
0.0000000001
 12
1.0
 22
0.0
 32
0.0
 13
1.0
 23
0.0
 33
0.0
 40
0.0
 40
0.0
 40
0.0
 40
0.0
 40
1.0
 40
1.0
 40
1.0
 40
2.0
 40
2.0
 40
2.0
 40
3.0
 40
3.0
 40
3.0
 40
4.0
 40
4.0
 40
4.0
 40
4.0
 10
125.2130542034893
 20
-72.03473571318371
 30
0.0
 10
126.0914708699363
 20
-72.54273571305689
 30
0.0
 10
126.9240264252836
 20
-73.01898571293731
 30
0.0
 10
127.693081980647
 20
-73.46348571282626
 30
0.0
 10
126.9557764252757
 20
-73.98912460158365
 30
0.0
 10
126.2184708699044
 20
-74.5147634903417
 30
0.0
 10
125.4211930923259
 20
-75.08626349019846
 30
0.0
 10
124.5886375369786
 20
-74.58531904587923
 30
0.0
 10
123.8231097593921
 20
-74.12318015710606
 30
0.0
 10
122.9870264262679
 20
-73.62223571278683
 30
0.0
 10
123.7066930927546
 20
-73.11070793513667
 30
0.0
 10
124.4263597592413
 20
-72.59565237971019
 30
0.0
 10
125.2130542034893
 20
-72.03473571318371
 30
0.0
  0
HATCH
  5
A4
330
85
100
AcDbEntity
  8
Layer 1
 62
    18
420
        0
100
AcDbHatch
 10
0.0
 20
0.0
 30
0.0
210
0.0
220
0.0
230
1.0
  2
SOLID
 70
     1
 71
     0
 91
        1
 92
        1
 93
        1
 72
     4
 94
        3
 73
     0
 74
     1
 95
       17
 96
       13
 40
0.0
 40
0.0
 40
0.0
 40
0.0
 40
1.0
 40
1.0
 40
1.0
 40
2.0
 40
2.0
 40
2.0
 40
3.0
 40
3.0
 40
3.0
 40
4.0
 40
4.0
 40
4.0
 40
4.0
 10
125.2130542034893
 20
-72.03473571318371
 10
126.0914708699363
 20
-72.54273571305689
 10
126.9240264252836
 20
-73.01898571293731
 10
127.693081980647
 20
-73.46348571282626
 10
126.9557764252757
 20
-73.98912460158365
 10
126.2184708699044
 20
-74.5147634903417
 10
125.4211930923259
 20
-75.08626349019846
 10
124.5886375369786
 20
-74.58531904587923
 10
123.8231097593921
 20
-74.12318015710606
 10
122.9870264262679
 20
-73.62223571278683
 10
123.7066930927546
 20
-73.11070793513667
 10
124.4263597592413
 20
-72.59565237971019
 10
125.2130542034893
 20
-72.03473571318371
 97
        0
 97
        0
 75
     2
 76
     1
 98
        0
  0
SPLINE
  5
A5
330
85
100
AcDbEntity
  8
Layer 1
370
     0
100
AcDbSpline
210
0.0
220
0.0
230
1.0
 70
    11
 71
     3
 72
    35
 73
    31
 74
     0
 42
0.0000000001
 43
0.0000000001
 12
1.0
 22
0.0
 32
0.0
 13
1.0
 23
0.0
 33
0.0
 40
0.0
 40
0.0
 40
0.0
 40
0.0
 40
1.0
 40
1.0
 40
1.0
 40
2.0
 40
2.0
 40
2.0
 40
3.0
 40
3.0
 40
3.0
 40
4.0
 40
4.0
 40
4.0
 40
5.0
 40
5.0
 40
5.0
 40
6.0
 40
6.0
 40
6.0
 40
7.0
 40
7.0
 40
7.0
 40
8.0
 40
8.0
 40
8.0
 40
9.0
 40
9.0
 40
9.0
 40
10.0
 40
10.0
 40
10.0
 40
10.0
 10
127.1109986474589
 20
-59.57109682741075
 30
0.0
 10
127.491998647364
 20
-59.77923571624765
 30
0.0
 10
127.7495264250772
 20
-60.18493016059055
 30
0.0
 10
127.7495264250772
 20
-60.64706904936404
 30
0.0
 10
127.7495264250772
 20
-61.32440238252774
 30
0.0
 10
127.2027208696583
 20
-61.87120793794666
 30
0.0
 10
126.5253875364943
 20
-61.87120793794666
 30
0.0
 10
126.4019153143031
 20
-61.87120793794666
 30
0.0
 10
126.2854986476656
 20
-61.85356904906212
 30
0.0
 10
126.1726097588047
 20
-61.81829127129335
 30
0.0
 10
126.0173875366214
 20
-61.73009682687096
 30
0.0
 10
125.8621653144378
 20
-61.64190238244856
 30
0.0
 10
125.7069430922546
 20
-61.55370793802616
 30
0.0
 10
125.7069430922546
 20
-61.55018016024919
 30
0.0
 10
125.7034153144776
 20
-61.55018016024919
 30
0.0
 10
125.7034153144776
 20
-61.55018016024919
 30
0.0
 10
125.4564708700949
 20
-61.32793016030472
 30
0.0
 10
125.3012486479117
 20
-61.00690238260725
 30
0.0
 10
125.3012486479117
 20
-60.64706904936404
 30
0.0
 10
125.3012486479117
 20
-60.2449023827978
 30
0.0
 10
125.4952764256407
 20
-59.88859682733124
 30
0.0
 10
125.7986653144539
 20
-59.66634682738677
 30
0.0
 10
125.7986653144539
 20
-59.66634682738677
 30
0.0
 10
125.9962208699599
 20
-59.54640238297226
 30
0.0
 10
125.9962208699599
 20
-59.54640238297226
 30
0.0
 10
126.1584986476971
 20
-59.46526349410381
 30
0.0
 10
126.3384153143189
 20
-59.4229301607811
 30
0.0
 10
126.5253875364943
 20
-59.4229301607811
 30
0.0
 10
126.7370542031082
 20
-59.4229301607811
 30
0.0
 10
126.9346097586142
 20
-59.4758468274344
 30
0.0
 10
127.1109986474589
 20
-59.57109682741075
 30
0.0
  0
HATCH
  5
A6
330
85
100
AcDbEntity
  8
Layer 1
 62
    18
420
        0
100
AcDbHatch
 10
0.0
 20
0.0
 30
0.0
210
0.0
220
0.0
230
1.0
  2
SOLID
 70
     1
 71
     0
 91
        1
 92
        1
 93
        1
 72
     4
 94
        3
 73
     0
 74
     1
 95
       35
 96
       31
 40
0.0
 40
0.0
 40
0.0
 40
0.0
 40
1.0
 40
1.0
 40
1.0
 40
2.0
 40
2.0
 40
2.0
 40
3.0
 40
3.0
 40
3.0
 40
4.0
 40
4.0
 40
4.0
 40
5.0
 40
5.0
 40
5.0
 40
6.0
 40
6.0
 40
6.0
 40
7.0
 40
7.0
 40
7.0
 40
8.0
 40
8.0
 40
8.0
 40
9.0
 40
9.0
 40
9.0
 40
10.0
 40
10.0
 40
10.0
 40
10.0
 10
127.1109986474589
 20
-59.57109682741075
 10
127.491998647364
 20
-59.77923571624765
 10
127.7495264250772
 20
-60.18493016059055
 10
127.7495264250772
 20
-60.64706904936404
 10
127.7495264250772
 20
-61.32440238252774
 10
127.2027208696583
 20
-61.87120793794666
 10
126.5253875364943
 20
-61.87120793794666
 10
126.4019153143031
 20
-61.87120793794666
 10
126.2854986476656
 20
-61.85356904906212
 10
126.1726097588047
 20
-61.81829127129335
 10
126.0173875366214
 20
-61.73009682687096
 10
125.8621653144378
 20
-61.64190238244856
 10
125.7069430922546
 20
-61.55370793802616
 10
125.7069430922546
 20
-61.55018016024919
 10
125.7034153144776
 20
-61.55018016024919
 10
125.7034153144776
 20
-61.55018016024919
 10
125.4564708700949
 20
-61.32793016030472
 10
125.3012486479117
 20
-61.00690238260725
 10
125.3012486479117
 20
-60.64706904936404
 10
125.3012486479117
 20
-60.2449023827978
 10
125.4952764256407
 20
-59.88859682733124
 10
125.7986653144539
 20
-59.66634682738677
 10
125.7986653144539
 20
-59.66634682738677
 10
125.9962208699599
 20
-59.54640238297226
 10
125.9962208699599
 20
-59.54640238297226
 10
126.1584986476971
 20
-59.46526349410381
 10
126.3384153143189
 20
-59.4229301607811
 10
126.5253875364943
 20
-59.4229301607811
 10
126.7370542031082
 20
-59.4229301607811
 10
126.9346097586142
 20
-59.4758468274344
 10
127.1109986474589
 20
-59.57109682741075
 97
        0
 97
        0
 75
     2
 76
     1
 98
        0
  0
SPLINE
  5
A7
330
85
100
AcDbEntity
  8
Layer 1
370
     0
100
AcDbSpline
210
0.0
220
0.0
230
1.0
 70
    11
 71
     3
 72
    32
 73
    28
 74
     0
 42
0.0000000001
 43
0.0000000001
 12
1.0
 22
0.0
 32
0.0
 13
1.0
 23
0.0
 33
0.0
 40
0.0
 40
0.0
 40
0.0
 40
0.0
 40
1.0
 40
1.0
 40
1.0
 40
2.0
 40
2.0
 40
2.0
 40
3.0
 40
3.0
 40
3.0
 40
4.0
 40
4.0
 40
4.0
 40
5.0
 40
5.0
 40
5.0
 40
6.0
 40
6.0
 40
6.0
 40
7.0
 40
7.0
 40
7.0
 40
8.0
 40
8.0
 40
8.0
 40
9.0
 40
9.0
 40
9.0
 40
9.0
 10
127.1145264252359
 20
-59.56051349407983
 30
0.0
 10
130.6952208687857
 20
-61.42318016028106
 30
0.0
 10
133.5139153125254
 20
-63.0424301598763
 30
0.0
 10
135.4929986453635
 20
-64.23129127069015
 30
0.0
 10
136.8688319783534
 20
-65.05326349270686
 30
0.0
 10
138.3646097557572
 20
-65.96343015914596
 30
0.0
 10
139.7968875331767
 20
-66.82068015893142
 30
0.0
 10
139.7968875331767
 20
-66.82068015893142
 30
0.0
 10
139.7827764220688
 20
-66.84184682559327
 30
0.0
 10
139.7827764220688
 20
-66.84184682559327
 30
0.0
 10
138.2093875335736
 20
-67.96720793642257
 30
0.0
 10
139.1901097555508
 20
-67.26518015882039
 30
0.0
 10
137.6202486448319
 20
-68.38701349187336
 30
0.0
 10
134.6463319789086
 20
-66.67604127007876
 30
0.0
 10
130.6423042021318
 20
-64.37240238176587
 30
0.0
 10
126.1726097588047
 20
-61.81829127129335
 30
0.0
 10
126.2854986476656
 20
-61.85356904906212
 30
0.0
 10
126.4019153143031
 20
-61.87120793794666
 30
0.0
 10
126.5253875364943
 20
-61.87120793794666
 30
0.0
 10
127.2027208696583
 20
-61.87120793794666
 30
0.0
 10
127.7495264250772
 20
-61.32440238252774
 30
0.0
 10
127.7495264250772
 20
-60.64706904936404
 30
0.0
 10
127.7495264250772
 20
-60.18493016059055
 30
0.0
 10
127.491998647364
 20
-59.77923571624765
 30
0.0
 10
127.1109986474589
 20
-59.57109682741075
 30
0.0
 10
127.1109986474589
 20
-59.57109682741075
 30
0.0
 10
127.1145264252359
 20
-59.56051349407983
 30
0.0
 10
127.1145264252359
 20
-59.56051349407983
 30
0.0
  0
HATCH
  5
A8
330
85
100
AcDbEntity
  8
Layer 1
 62
    18
420
        0
100
AcDbHatch
 10
0.0
 20
0.0
 30
0.0
210
0.0
220
0.0
230
1.0
  2
SOLID
 70
     1
 71
     0
 91
        1
 92
        1
 93
        1
 72
     4
 94
        3
 73
     0
 74
     1
 95
       32
 96
       28
 40
0.0
 40
0.0
 40
0.0
 40
0.0
 40
1.0
 40
1.0
 40
1.0
 40
2.0
 40
2.0
 40
2.0
 40
3.0
 40
3.0
 40
3.0
 40
4.0
 40
4.0
 40
4.0
 40
5.0
 40
5.0
 40
5.0
 40
6.0
 40
6.0
 40
6.0
 40
7.0
 40
7.0
 40
7.0
 40
8.0
 40
8.0
 40
8.0
 40
9.0
 40
9.0
 40
9.0
 40
9.0
 10
127.1145264252359
 20
-59.56051349407983
 10
130.6952208687857
 20
-61.42318016028106
 10
133.5139153125254
 20
-63.0424301598763
 10
135.4929986453635
 20
-64.23129127069015
 10
136.8688319783534
 20
-65.05326349270686
 10
138.3646097557572
 20
-65.96343015914596
 10
139.7968875331767
 20
-66.82068015893142
 10
139.7968875331767
 20
-66.82068015893142
 10
139.7827764220688
 20
-66.84184682559327
 10
139.7827764220688
 20
-66.84184682559327
 10
138.2093875335736
 20
-67.96720793642257
 10
139.1901097555508
 20
-67.26518015882039
 10
137.6202486448319
 20
-68.38701349187336
 10
134.6463319789086
 20
-66.67604127007876
 10
130.6423042021318
 20
-64.37240238176587
 10
126.1726097588047
 20
-61.81829127129335
 10
126.2854986476656
 20
-61.85356904906212
 10
126.4019153143031
 20
-61.87120793794666
 10
126.5253875364943
 20
-61.87120793794666
 10
127.2027208696583
 20
-61.87120793794666
 10
127.7495264250772
 20
-61.32440238252774
 10
127.7495264250772
 20
-60.64706904936404
 10
127.7495264250772
 20
-60.18493016059055
 10
127.491998647364
 20
-59.77923571624765
 10
127.1109986474589
 20
-59.57109682741075
 10
127.1109986474589
 20
-59.57109682741075
 10
127.1145264252359
 20
-59.56051349407983
 10
127.1145264252359
 20
-59.56051349407983
 97
        0
 97
        0
 75
     2
 76
     1
 98
        0
  0
SPLINE
  5
A9
330
85
100
AcDbEntity
  8
Layer 1
370
     0
100
AcDbSpline
210
0.0
220
0.0
230
1.0
 70
    11
 71
     3
 72
    41
 73
    37
 74
     0
 42
0.0000000001
 43
0.0000000001
 12
1.0
 22
0.0
 32
0.0
 13
1.0
 23
0.0
 33
0.0
 40
0.0
 40
0.0
 40
0.0
 40
0.0
 40
1.0
 40
1.0
 40
1.0
 40
2.0
 40
2.0
 40
2.0
 40
3.0
 40
3.0
 40
3.0
 40
4.0
 40
4.0
 40
4.0
 40
5.0
 40
5.0
 40
5.0
 40
6.0
 40
6.0
 40
6.0
 40
7.0
 40
7.0
 40
7.0
 40
8.0
 40
8.0
 40
8.0
 40
9.0
 40
9.0
 40
9.0
 40
10.0
 40
10.0
 40
10.0
 40
11.0
 40
11.0
 40
11.0
 40
12.0
 40
12.0
 40
12.0
 40
12.0
 10
122.7506653152158
 20
-62.19929127119808
 30
0.0
 10
123.1316653151205
 20
-62.40743016003498
 30
0.0
 10
123.3891930928341
 20
-62.81312460437788
 30
0.0
 10
123.3891930928341
 20
-63.27526349315137
 30
0.0
 10
123.3891930928341
 20
-63.9525968263154
 30
0.0
 10
122.8423875374152
 20
-64.499402381734
 30
0.0
 10
122.1650542042511
 20
-64.499402381734
 30
0.0
 10
122.038054204283
 20
-64.499402381734
 30
0.0
 10
121.9181097598685
 20
-64.48176349284978
 30
0.0
 10
121.801693093231
 20
-64.44295793730372
 30
0.0
 10
121.801693093231
 20
-64.44295793730372
 30
0.0
 10
121.798165315454
 20
-64.44295793730372
 30
0.0
 10
121.798165315454
 20
-64.44295793730372
 30
0.0
 10
121.6464708710474
 20
-64.35476349288132
 30
0.0
 10
121.4983042044177
 20
-64.2700968262359
 30
0.0
 10
121.3466097600114
 20
-64.18543015959047
 30
0.0
 10
121.3466097600114
 20
-64.1819023818135
 30
0.0
 10
121.3430819822345
 20
-64.1819023818135
 30
0.0
 10
121.3430819822345
 20
-64.1819023818135
 30
0.0
 10
121.0961375378518
 20
-63.95612460409205
 30
0.0
 10
120.9409153156682
 20
-63.63509682639458
 30
0.0
 10
120.9409153156682
 20
-63.27526349315137
 30
0.0
 10
120.9409153156682
 20
-62.93659682656936
 30
0.0
 10
121.0784986489673
 20
-62.63673571553309
 30
0.0
 10
121.2972208711348
 20
-62.41448571558861
 30
0.0
 10
121.2972208711348
 20
-62.41448571558861
 30
0.0
 10
121.3007486489117
 20
-62.41095793781196
 30
0.0
 10
121.3007486489117
 20
-62.41095793781196
 30
0.0
 10
121.3007486489117
 20
-62.41095793781196
 30
0.0
 10
121.801693093231
 20
-62.10756904899871
 30
0.0
 10
121.801693093231
 20
-62.10756904899871
 30
0.0
 10
121.9181097598685
 20
-62.06876349345297
 30
0.0
 10
122.038054204283
 20
-62.05112460456843
 30
0.0
 10
122.1650542042511
 20
-62.05112460456843
 30
0.0
 10
122.376720870865
 20
-62.05112460456843
 30
0.0
 10
122.574276426371
 20
-62.10404127122174
 30
0.0
 10
122.7506653152158
 20
-62.19929127119808
 30
0.0
  0
HATCH
  5
AA
330
85
100
AcDbEntity
  8
Layer 1
 62
    18
420
        0
100
AcDbHatch
 10
0.0
 20
0.0
 30
0.0
210
0.0
220
0.0
230
1.0
  2
SOLID
 70
     1
 71
     0
 91
        1
 92
        1
 93
        1
 72
     4
 94
        3
 73
     0
 74
     1
 95
       41
 96
       37
 40
0.0
 40
0.0
 40
0.0
 40
0.0
 40
1.0
 40
1.0
 40
1.0
 40
2.0
 40
2.0
 40
2.0
 40
3.0
 40
3.0
 40
3.0
 40
4.0
 40
4.0
 40
4.0
 40
5.0
 40
5.0
 40
5.0
 40
6.0
 40
6.0
 40
6.0
 40
7.0
 40
7.0
 40
7.0
 40
8.0
 40
8.0
 40
8.0
 40
9.0
 40
9.0
 40
9.0
 40
10.0
 40
10.0
 40
10.0
 40
11.0
 40
11.0
 40
11.0
 40
12.0
 40
12.0
 40
12.0
 40
12.0
 10
122.7506653152158
 20
-62.19929127119808
 10
123.1316653151205
 20
-62.40743016003498
 10
123.3891930928341
 20
-62.81312460437788
 10
123.3891930928341
 20
-63.27526349315137
 10
123.3891930928341
 20
-63.9525968263154
 10
122.8423875374152
 20
-64.499402381734
 10
122.1650542042511
 20
-64.499402381734
 10
122.038054204283
 20
-64.499402381734
 10
121.9181097598685
 20
-64.48176349284978
 10
121.801693093231
 20
-64.44295793730372
 10
121.801693093231
 20
-64.44295793730372
 10
121.798165315454
 20
-64.44295793730372
 10
121.798165315454
 20
-64.44295793730372
 10
121.6464708710474
 20
-64.35476349288132
 10
121.4983042044177
 20
-64.2700968262359
 10
121.3466097600114
 20
-64.18543015959047
 10
121.3466097600114
 20
-64.1819023818135
 10
121.3430819822345
 20
-64.1819023818135
 10
121.3430819822345
 20
-64.1819023818135
 10
121.0961375378518
 20
-63.95612460409205
 10
120.9409153156682
 20
-63.63509682639458
 10
120.9409153156682
 20
-63.27526349315137
 10
120.9409153156682
 20
-62.93659682656936
 10
121.0784986489673
 20
-62.63673571553309
 10
121.2972208711348
 20
-62.41448571558861
 10
121.2972208711348
 20
-62.41448571558861
 10
121.3007486489117
 20
-62.41095793781196
 10
121.3007486489117
 20
-62.41095793781196
 10
121.3007486489117
 20
-62.41095793781196
 10
121.801693093231
 20
-62.10756904899871
 10
121.801693093231
 20
-62.10756904899871
 10
121.9181097598685
 20
-62.06876349345297
 10
122.038054204283
 20
-62.05112460456843
 10
122.1650542042511
 20
-62.05112460456843
 10
122.376720870865
 20
-62.05112460456843
 10
122.574276426371
 20
-62.10404127122174
 10
122.7506653152158
 20
-62.19929127119808
 97
        0
 97
        0
 75
     2
 76
     1
 98
        0
  0
SPLINE
  5
AB
330
85
100
AcDbEntity
  8
Layer 1
370
     0
100
AcDbSpline
210
0.0
220
0.0
230
1.0
 70
    11
 71
     3
 72
    26
 73
    22
 74
     0
 42
0.0000000001
 43
0.0000000001
 12
1.0
 22
0.0
 32
0.0
 13
1.0
 23
0.0
 33
0.0
 40
0.0
 40
0.0
 40
0.0
 40
0.0
 40
1.0
 40
1.0
 40
1.0
 40
2.0
 40
2.0
 40
2.0
 40
3.0
 40
3.0
 40
3.0
 40
4.0
 40
4.0
 40
4.0
 40
5.0
 40
5.0
 40
5.0
 40
6.0
 40
6.0
 40
6.0
 40
7.0
 40
7.0
 40
7.0
 40
7.0
 10
122.7541930929928
 20
-62.18870793786748
 30
0.0
 10
125.6293319811628
 20
-63.68095793749426
 30
0.0
 10
128.0105819805675
 20
-65.02504127049171
 30
0.0
 10
129.8626653134381
 20
-66.10806904799864
 30
0.0
 10
128.2892764249422
 20
-67.23343015882827
 30
0.0
 10
129.1324153136208
 20
-66.63018015897939
 30
0.0
 10
127.5731375362324
 20
-67.74495793647841
 30
0.0
 10
125.7845542033464
 20
-66.71837460340178
 30
0.0
 10
123.8407486482767
 20
-65.60712460367941
 30
0.0
 10
121.801693093231
 20
-64.44295793730372
 30
0.0
 10
121.9181097598685
 20
-64.48176349284978
 30
0.0
 10
122.038054204283
 20
-64.499402381734
 30
0.0
 10
122.1650542042511
 20
-64.499402381734
 30
0.0
 10
122.8423875374152
 20
-64.499402381734
 30
0.0
 10
123.3891930928341
 20
-63.9525968263154
 30
0.0
 10
123.3891930928341
 20
-63.27526349315137
 30
0.0
 10
123.3891930928341
 20
-62.81312460437788
 30
0.0
 10
123.1316653151205
 20
-62.40743016003498
 30
0.0
 10
122.7506653152158
 20
-62.19929127119808
 30
0.0
 10
122.7506653152158
 20
-62.19929127119808
 30
0.0
 10
122.7541930929928
 20
-62.18870793786748
 30
0.0
 10
122.7541930929928
 20
-62.18870793786748
 30
0.0
  0
HATCH
  5
AC
330
85
100
AcDbEntity
  8
Layer 1
 62
    18
420
        0
100
AcDbHatch
 10
0.0
 20
0.0
 30
0.0
210
0.0
220
0.0
230
1.0
  2
SOLID
 70
     1
 71
     0
 91
        1
 92
        1
 93
        1
 72
     4
 94
        3
 73
     0
 74
     1
 95
       26
 96
       22
 40
0.0
 40
0.0
 40
0.0
 40
0.0
 40
1.0
 40
1.0
 40
1.0
 40
2.0
 40
2.0
 40
2.0
 40
3.0
 40
3.0
 40
3.0
 40
4.0
 40
4.0
 40
4.0
 40
5.0
 40
5.0
 40
5.0
 40
6.0
 40
6.0
 40
6.0
 40
7.0
 40
7.0
 40
7.0
 40
7.0
 10
122.7541930929928
 20
-62.18870793786748
 10
125.6293319811628
 20
-63.68095793749426
 10
128.0105819805675
 20
-65.02504127049171
 10
129.8626653134381
 20
-66.10806904799864
 10
128.2892764249422
 20
-67.23343015882827
 10
129.1324153136208
 20
-66.63018015897939
 10
127.5731375362324
 20
-67.74495793647841
 10
125.7845542033464
 20
-66.71837460340178
 10
123.8407486482767
 20
-65.60712460367941
 10
121.801693093231
 20
-64.44295793730372
 10
121.9181097598685
 20
-64.48176349284978
 10
122.038054204283
 20
-64.499402381734
 10
122.1650542042511
 20
-64.499402381734
 10
122.8423875374152
 20
-64.499402381734
 10
123.3891930928341
 20
-63.9525968263154
 10
123.3891930928341
 20
-63.27526349315137
 10
123.3891930928341
 20
-62.81312460437788
 10
123.1316653151205
 20
-62.40743016003498
 10
122.7506653152158
 20
-62.19929127119808
 10
122.7506653152158
 20
-62.19929127119808
 10
122.7541930929928
 20
-62.18870793786748
 10
122.7541930929928
 20
-62.18870793786748
 97
        0
 97
        0
 75
     2
 76
     1
 98
        0
  0
SPLINE
  5
AD
330
85
100
AcDbEntity
  8
Layer 1
370
     0
100
AcDbSpline
210
0.0
220
0.0
230
1.0
 70
    11
 71
     3
 72
    35
 73
    31
 74
     0
 42
0.0000000001
 43
0.0000000001
 12
1.0
 22
0.0
 32
0.0
 13
1.0
 23
0.0
 33
0.0
 40
0.0
 40
0.0
 40
0.0
 40
0.0
 40
1.0
 40
1.0
 40
1.0
 40
2.0
 40
2.0
 40
2.0
 40
3.0
 40
3.0
 40
3.0
 40
4.0
 40
4.0
 40
4.0
 40
5.0
 40
5.0
 40
5.0
 40
6.0
 40
6.0
 40
6.0
 40
7.0
 40
7.0
 40
7.0
 40
8.0
 40
8.0
 40
8.0
 40
9.0
 40
9.0
 40
9.0
 40
10.0
 40
10.0
 40
10.0
 40
10.0
 10
118.0199153163986
 20
-65.12734682602168
 30
0.0
 10
118.4009153163033
 20
-65.33195793708161
 30
0.0
 10
118.6584430940168
 20
-65.73765238142451
 30
0.0
 10
118.6584430940168
 20
-66.20331904797497
 30
0.0
 10
118.6584430940168
 20
-66.88065238113869
 30
0.0
 10
118.1116375385979
 20
-67.42745793655793
 30
0.0
 10
117.4343042054339
 20
-67.42745793655793
 30
0.0
 10
117.3108319832424
 20
-67.42745793655793
 30
0.0
 10
117.1944153166049
 20
-67.40981904767305
 30
0.0
 10
117.0815264277443
 20
-67.37454126990397
 30
0.0
 10
116.9263042055607
 20
-67.28634682548157
 30
0.0
 10
116.7710819833774
 20
-67.19815238105917
 30
0.0
 10
116.6123319834172
 20
-67.10643015886045
 30
0.0
 10
116.3653875390345
 20
-66.88418015891565
 30
0.0
 10
116.2101653168509
 20
-66.56315238121819
 30
0.0
 10
116.2101653168509
 20
-66.20331904797497
 30
0.0
 10
116.2101653168509
 20
-65.7940968258548
 30
0.0
 10
116.4112486501339
 20
-65.43073571483461
 30
0.0
 10
116.7216930945008
 20
-65.20848571489013
 30
0.0
 10
116.7216930945008
 20
-65.20848571489013
 30
0.0
 10
116.8522208722459
 20
-65.12734682602168
 30
0.0
 10
116.8522208722459
 20
-65.12734682602168
 30
0.0
 10
116.8522208722459
 20
-65.12734682602168
 30
0.0
 10
116.8733875389074
 20
-65.11676349269077
 30
0.0
 10
116.8733875389074
 20
-65.11676349269077
 30
0.0
 10
117.0391930944216
 20
-65.02856904826837
 30
0.0
 10
117.229693094374
 20
-64.97918015939203
 30
0.0
 10
117.4343042054339
 20
-64.97918015939203
 30
0.0
 10
117.6459708720474
 20
-64.97918015939203
 30
0.0
 10
117.8435264275538
 20
-65.03209682604535
 30
0.0
 10
118.0199153163986
 20
-65.12734682602168
 30
0.0
  0
HATCH
  5
AE
330
85
100
AcDbEntity
  8
Layer 1
 62
    18
420
        0
100
AcDbHatch
 10
0.0
 20
0.0
 30
0.0
210
0.0
220
0.0
230
1.0
  2
SOLID
 70
     1
 71
     0
 91
        1
 92
        1
 93
        1
 72
     4
 94
        3
 73
     0
 74
     1
 95
       35
 96
       31
 40
0.0
 40
0.0
 40
0.0
 40
0.0
 40
1.0
 40
1.0
 40
1.0
 40
2.0
 40
2.0
 40
2.0
 40
3.0
 40
3.0
 40
3.0
 40
4.0
 40
4.0
 40
4.0
 40
5.0
 40
5.0
 40
5.0
 40
6.0
 40
6.0
 40
6.0
 40
7.0
 40
7.0
 40
7.0
 40
8.0
 40
8.0
 40
8.0
 40
9.0
 40
9.0
 40
9.0
 40
10.0
 40
10.0
 40
10.0
 40
10.0
 10
118.0199153163986
 20
-65.12734682602168
 10
118.4009153163033
 20
-65.33195793708161
 10
118.6584430940168
 20
-65.73765238142451
 10
118.6584430940168
 20
-66.20331904797497
 10
118.6584430940168
 20
-66.88065238113869
 10
118.1116375385979
 20
-67.42745793655793
 10
117.4343042054339
 20
-67.42745793655793
 10
117.3108319832424
 20
-67.42745793655793
 10
117.1944153166049
 20
-67.40981904767305
 10
117.0815264277443
 20
-67.37454126990397
 10
116.9263042055607
 20
-67.28634682548157
 10
116.7710819833774
 20
-67.19815238105917
 10
116.6123319834172
 20
-67.10643015886045
 10
116.3653875390345
 20
-66.88418015891565
 10
116.2101653168509
 20
-66.56315238121819
 10
116.2101653168509
 20
-66.20331904797497
 10
116.2101653168509
 20
-65.7940968258548
 10
116.4112486501339
 20
-65.43073571483461
 10
116.7216930945008
 20
-65.20848571489013
 10
116.7216930945008
 20
-65.20848571489013
 10
116.8522208722459
 20
-65.12734682602168
 10
116.8522208722459
 20
-65.12734682602168
 10
116.8522208722459
 20
-65.12734682602168
 10
116.8733875389074
 20
-65.11676349269077
 10
116.8733875389074
 20
-65.11676349269077
 10
117.0391930944216
 20
-65.02856904826837
 10
117.229693094374
 20
-64.97918015939203
 10
117.4343042054339
 20
-64.97918015939203
 10
117.6459708720474
 20
-64.97918015939203
 10
117.8435264275538
 20
-65.03209682604535
 10
118.0199153163986
 20
-65.12734682602168
 97
        0
 97
        0
 75
     2
 76
     1
 98
        0
  0
SPLINE
  5
AF
330
85
100
AcDbEntity
  8
Layer 1
370
     0
100
AcDbSpline
210
0.0
220
0.0
230
1.0
 70
    11
 71
     3
 72
    32
 73
    28
 74
     0
 42
0.0000000001
 43
0.0000000001
 12
1.0
 22
0.0
 32
0.0
 13
1.0
 23
0.0
 33
0.0
 40
0.0
 40
0.0
 40
0.0
 40
0.0
 40
1.0
 40
1.0
 40
1.0
 40
2.0
 40
2.0
 40
2.0
 40
3.0
 40
3.0
 40
3.0
 40
4.0
 40
4.0
 40
4.0
 40
5.0
 40
5.0
 40
5.0
 40
6.0
 40
6.0
 40
6.0
 40
7.0
 40
7.0
 40
7.0
 40
8.0
 40
8.0
 40
8.0
 40
9.0
 40
9.0
 40
9.0
 40
9.0
 10
118.0234430941755
 20
-65.11676349269077
 30
0.0
 10
121.6041375377247
 20
-66.97590238111502
 30
0.0
 10
124.4228319814644
 20
-68.59868015848724
 30
0.0
 10
126.4019153143031
 20
-69.78754126930077
 30
0.0
 10
127.4390819807104
 20
-70.40843015803452
 30
0.0
 10
128.6667486470703
 20
-71.15984682451369
 30
0.0
 10
129.8767764245453
 20
-71.9006801576613
 30
0.0
 10
129.1112486469589
 20
-72.44748571308054
 30
0.0
 10
128.4021653138031
 20
-72.95548571295372
 30
0.0
 10
127.693081980647
 20
-73.46348571282626
 30
0.0
 10
126.9240264252836
 20
-73.01898571293731
 30
0.0
 10
126.0914708699363
 20
-72.54273571305689
 30
0.0
 10
125.2130542034893
 20
-72.03473571318371
 30
0.0
 10
122.8212208707537
 20
-70.66243015797143
 30
0.0
 10
120.0554430936673
 20
-69.07140238059132
 30
0.0
 10
117.0815264277443
 20
-67.37454126990397
 30
0.0
 10
117.1944153166049
 20
-67.40981904767305
 30
0.0
 10
117.3108319832424
 20
-67.42745793655793
 30
0.0
 10
117.4343042054339
 20
-67.42745793655793
 30
0.0
 10
118.1116375385979
 20
-67.42745793655793
 30
0.0
 10
118.6584430940168
 20
-66.88065238113869
 30
0.0
 10
118.6584430940168
 20
-66.20331904797497
 30
0.0
 10
118.6584430940168
 20
-65.73765238142451
 30
0.0
 10
118.4009153163033
 20
-65.33195793708161
 30
0.0
 10
118.0199153163986
 20
-65.12734682602168
 30
0.0
 10
118.0199153163986
 20
-65.12734682602168
 30
0.0
 10
118.0234430941755
 20
-65.11676349269077
 30
0.0
 10
118.0234430941755
 20
-65.11676349269077
 30
0.0
  0
HATCH
  5
B0
330
85
100
AcDbEntity
  8
Layer 1
 62
    18
420
        0
100
AcDbHatch
 10
0.0
 20
0.0
 30
0.0
210
0.0
220
0.0
230
1.0
  2
SOLID
 70
     1
 71
     0
 91
        1
 92
        1
 93
        1
 72
     4
 94
        3
 73
     0
 74
     1
 95
       32
 96
       28
 40
0.0
 40
0.0
 40
0.0
 40
0.0
 40
1.0
 40
1.0
 40
1.0
 40
2.0
 40
2.0
 40
2.0
 40
3.0
 40
3.0
 40
3.0
 40
4.0
 40
4.0
 40
4.0
 40
5.0
 40
5.0
 40
5.0
 40
6.0
 40
6.0
 40
6.0
 40
7.0
 40
7.0
 40
7.0
 40
8.0
 40
8.0
 40
8.0
 40
9.0
 40
9.0
 40
9.0
 40
9.0
 10
118.0234430941755
 20
-65.11676349269077
 10
121.6041375377247
 20
-66.97590238111502
 10
124.4228319814644
 20
-68.59868015848724
 10
126.4019153143031
 20
-69.78754126930077
 10
127.4390819807104
 20
-70.40843015803452
 10
128.6667486470703
 20
-71.15984682451369
 10
129.8767764245453
 20
-71.9006801576613
 10
129.1112486469589
 20
-72.44748571308054
 10
128.4021653138031
 20
-72.95548571295372
 10
127.693081980647
 20
-73.46348571282626
 10
126.9240264252836
 20
-73.01898571293731
 10
126.0914708699363
 20
-72.54273571305689
 10
125.2130542034893
 20
-72.03473571318371
 10
122.8212208707537
 20
-70.66243015797143
 10
120.0554430936673
 20
-69.07140238059132
 10
117.0815264277443
 20
-67.37454126990397
 10
117.1944153166049
 20
-67.40981904767305
 10
117.3108319832424
 20
-67.42745793655793
 10
117.4343042054339
 20
-67.42745793655793
 10
118.1116375385979
 20
-67.42745793655793
 10
118.6584430940168
 20
-66.88065238113869
 10
118.6584430940168
 20
-66.20331904797497
 10
118.6584430940168
 20
-65.73765238142451
 10
118.4009153163033
 20
-65.33195793708161
 10
118.0199153163986
 20
-65.12734682602168
 10
118.0199153163986
 20
-65.12734682602168
 10
118.0234430941755
 20
-65.11676349269077
 10
118.0234430941755
 20
-65.11676349269077
 97
        0
 97
        0
 75
     2
 76
     1
 98
        0
  0
SPLINE
  5
B1
330
85
100
AcDbEntity
  8
Layer 1
370
     0
100
AcDbSpline
210
0.0
220
0.0
230
1.0
 70
    11
 71
     3
 72
    32
 73
    28
 74
     0
 42
0.0000000001
 43
0.0000000001
 12
1.0
 22
0.0
 32
0.0
 13
1.0
 23
0.0
 33
0.0
 40
0.0
 40
0.0
 40
0.0
 40
0.0
 40
1.0
 40
1.0
 40
1.0
 40
2.0
 40
2.0
 40
2.0
 40
3.0
 40
3.0
 40
3.0
 40
4.0
 40
4.0
 40
4.0
 40
5.0
 40
5.0
 40
5.0
 40
6.0
 40
6.0
 40
6.0
 40
7.0
 40
7.0
 40
7.0
 40
8.0
 40
8.0
 40
8.0
 40
9.0
 40
9.0
 40
9.0
 40
9.0
 10
113.1480542065053
 20
-68.08362460306012
 30
0.0
 10
113.52905420641
 20
-68.29176349189702
 30
0.0
 10
113.7865819841235
 20
-68.69745793623991
 30
0.0
 10
113.7865819841235
 20
-69.15959682501372
 30
0.0
 10
113.7865819841235
 20
-69.83693015817775
 30
0.0
 10
113.2397764287046
 20
-70.38373571359635
 30
0.0
 10
112.5624430955406
 20
-70.38373571359635
 30
0.0
 10
112.4389708733494
 20
-70.38373571359635
 30
0.0
 10
112.3225542067119
 20
-70.36609682471213
 30
0.0
 10
112.209665317851
 20
-70.33081904694303
 30
0.0
 10
112.0544430956678
 20
-70.24262460252065
 30
0.0
 10
111.8956930957075
 20
-70.15090238032127
 30
0.0
 10
111.7404708735239
 20
-70.06270793589889
 30
0.0
 10
111.4935264291413
 20
-69.84045793595472
 30
0.0
 10
111.338304206958
 20
-69.51943015825661
 30
0.0
 10
111.338304206958
 20
-69.15959682501372
 30
0.0
 10
111.338304206958
 20
-68.78918015843928
 30
0.0
 10
111.5041097624719
 20
-68.45404126963456
 30
0.0
 10
111.768693095739
 20
-68.23531904746673
 30
0.0
 10
111.768693095739
 20
-68.23531904746673
 30
0.0
 10
112.1179430956517
 20
-68.02012460307589
 30
0.0
 10
112.1179430956517
 20
-68.02012460307589
 30
0.0
 10
112.2555264289507
 20
-67.9636801586456
 30
0.0
 10
112.4072208733573
 20
-67.93545793643047
 30
0.0
 10
112.5624430955406
 20
-67.93545793643047
 30
0.0
 10
112.7741097621545
 20
-67.93545793643047
 30
0.0
 10
112.9716653176605
 20
-67.98837460308441
 30
0.0
 10
113.1480542065053
 20
-68.08362460306012
 30
0.0
  0
HATCH
  5
B2
330
85
100
AcDbEntity
  8
Layer 1
 62
    18
420
        0
100
AcDbHatch
 10
0.0
 20
0.0
 30
0.0
210
0.0
220
0.0
230
1.0
  2
SOLID
 70
     1
 71
     0
 91
        1
 92
        1
 93
        1
 72
     4
 94
        3
 73
     0
 74
     1
 95
       32
 96
       28
 40
0.0
 40
0.0
 40
0.0
 40
0.0
 40
1.0
 40
1.0
 40
1.0
 40
2.0
 40
2.0
 40
2.0
 40
3.0
 40
3.0
 40
3.0
 40
4.0
 40
4.0
 40
4.0
 40
5.0
 40
5.0
 40
5.0
 40
6.0
 40
6.0
 40
6.0
 40
7.0
 40
7.0
 40
7.0
 40
8.0
 40
8.0
 40
8.0
 40
9.0
 40
9.0
 40
9.0
 40
9.0
 10
113.1480542065053
 20
-68.08362460306012
 10
113.52905420641
 20
-68.29176349189702
 10
113.7865819841235
 20
-68.69745793623991
 10
113.7865819841235
 20
-69.15959682501372
 10
113.7865819841235
 20
-69.83693015817775
 10
113.2397764287046
 20
-70.38373571359635
 10
112.5624430955406
 20
-70.38373571359635
 10
112.4389708733494
 20
-70.38373571359635
 10
112.3225542067119
 20
-70.36609682471213
 10
112.209665317851
 20
-70.33081904694303
 10
112.0544430956678
 20
-70.24262460252065
 10
111.8956930957075
 20
-70.15090238032127
 10
111.7404708735239
 20
-70.06270793589889
 10
111.4935264291413
 20
-69.84045793595472
 10
111.338304206958
 20
-69.51943015825661
 10
111.338304206958
 20
-69.15959682501372
 10
111.338304206958
 20
-68.78918015843928
 10
111.5041097624719
 20
-68.45404126963456
 10
111.768693095739
 20
-68.23531904746673
 10
111.768693095739
 20
-68.23531904746673
 10
112.1179430956517
 20
-68.02012460307589
 10
112.1179430956517
 20
-68.02012460307589
 10
112.2555264289507
 20
-67.9636801586456
 10
112.4072208733573
 20
-67.93545793643047
 10
112.5624430955406
 20
-67.93545793643047
 10
112.7741097621545
 20
-67.93545793643047
 10
112.9716653176605
 20
-67.98837460308441
 10
113.1480542065053
 20
-68.08362460306012
 97
        0
 97
        0
 75
     2
 76
     1
 98
        0
  0
SPLINE
  5
B3
330
85
100
AcDbEntity
  8
Layer 1
370
     0
100
AcDbSpline
210
0.0
220
0.0
230
1.0
 70
    11
 71
     3
 72
    26
 73
    22
 74
     0
 42
0.0000000001
 43
0.0000000001
 12
1.0
 22
0.0
 32
0.0
 13
1.0
 23
0.0
 33
0.0
 40
0.0
 40
0.0
 40
0.0
 40
0.0
 40
1.0
 40
1.0
 40
1.0
 40
2.0
 40
2.0
 40
2.0
 40
3.0
 40
3.0
 40
3.0
 40
4.0
 40
4.0
 40
4.0
 40
5.0
 40
5.0
 40
5.0
 40
6.0
 40
6.0
 40
6.0
 40
7.0
 40
7.0
 40
7.0
 40
7.0
 10
113.1515819842822
 20
-68.07304126972983
 30
0.0
 10
116.7322764278317
 20
-69.93570793593042
 30
0.0
 10
119.5509708715714
 20
-71.55495793552566
 30
0.0
 10
121.5300542044098
 20
-72.74381904633984
 30
0.0
 10
119.9531375381373
 20
-73.86918015716915
 30
0.0
 10
120.8315542045846
 20
-73.2412357128821
 30
0.0
 10
119.2546375383121
 20
-74.36659682371206
 30
0.0
 10
117.123859761067
 20
-73.14245793512879
 30
0.0
 10
114.7426097616623
 20
-71.77720793547046
 30
0.0
 10
112.209665317851
 20
-70.33081904694303
 30
0.0
 10
112.3225542067119
 20
-70.36609682471213
 30
0.0
 10
112.4389708733494
 20
-70.38373571359635
 30
0.0
 10
112.5624430955406
 20
-70.38373571359635
 30
0.0
 10
113.2397764287046
 20
-70.38373571359635
 30
0.0
 10
113.7865819841235
 20
-69.83693015817775
 30
0.0
 10
113.7865819841235
 20
-69.15959682501372
 30
0.0
 10
113.7865819841235
 20
-68.69745793623991
 30
0.0
 10
113.52905420641
 20
-68.29176349189702
 30
0.0
 10
113.1480542065053
 20
-68.08362460306012
 30
0.0
 10
113.1480542065053
 20
-68.08362460306012
 30
0.0
 10
113.1515819842822
 20
-68.07304126972983
 30
0.0
 10
113.1515819842822
 20
-68.07304126972983
 30
0.0
  0
HATCH
  5
B4
330
85
100
AcDbEntity
  8
Layer 1
 62
    18
420
        0
100
AcDbHatch
 10
0.0
 20
0.0
 30
0.0
210
0.0
220
0.0
230
1.0
  2
SOLID
 70
     1
 71
     0
 91
        1
 92
        1
 93
        1
 72
     4
 94
        3
 73
     0
 74
     1
 95
       26
 96
       22
 40
0.0
 40
0.0
 40
0.0
 40
0.0
 40
1.0
 40
1.0
 40
1.0
 40
2.0
 40
2.0
 40
2.0
 40
3.0
 40
3.0
 40
3.0
 40
4.0
 40
4.0
 40
4.0
 40
5.0
 40
5.0
 40
5.0
 40
6.0
 40
6.0
 40
6.0
 40
7.0
 40
7.0
 40
7.0
 40
7.0
 10
113.1515819842822
 20
-68.07304126972983
 10
116.7322764278317
 20
-69.93570793593042
 10
119.5509708715714
 20
-71.55495793552566
 10
121.5300542044098
 20
-72.74381904633984
 10
119.9531375381373
 20
-73.86918015716915
 10
120.8315542045846
 20
-73.2412357128821
 10
119.2546375383121
 20
-74.36659682371206
 10
117.123859761067
 20
-73.14245793512879
 10
114.7426097616623
 20
-71.77720793547046
 10
112.209665317851
 20
-70.33081904694303
 10
112.3225542067119
 20
-70.36609682471213
 10
112.4389708733494
 20
-70.38373571359635
 10
112.5624430955406
 20
-70.38373571359635
 10
113.2397764287046
 20
-70.38373571359635
 10
113.7865819841235
 20
-69.83693015817775
 10
113.7865819841235
 20
-69.15959682501372
 10
113.7865819841235
 20
-68.69745793623991
 10
113.52905420641
 20
-68.29176349189702
 10
113.1480542065053
 20
-68.08362460306012
 10
113.1480542065053
 20
-68.08362460306012
 10
113.1515819842822
 20
-68.07304126972983
 10
113.1515819842822
 20
-68.07304126972983
 97
        0
 97
        0
 75
     2
 76
     1
 98
        0
  0
SPLINE
  5
B5
330
85
100
AcDbEntity
  8
Layer 1
370
     0
100
AcDbSpline
210
0.0
220
0.0
230
1.0
 70
    11
 71
     3
 72
    26
 73
    22
 74
     0
 42
0.0000000001
 43
0.0000000001
 12
1.0
 22
0.0
 32
0.0
 13
1.0
 23
0.0
 33
0.0
 40
0.0
 40
0.0
 40
0.0
 40
0.0
 40
1.0
 40
1.0
 40
1.0
 40
2.0
 40
2.0
 40
2.0
 40
3.0
 40
3.0
 40
3.0
 40
4.0
 40
4.0
 40
4.0
 40
5.0
 40
5.0
 40
5.0
 40
6.0
 40
6.0
 40
6.0
 40
7.0
 40
7.0
 40
7.0
 40
7.0
 10
108.6889430965091
 20
-70.81765238015439
 30
0.0
 10
109.0628875408599
 20
-71.02579126899128
 30
0.0
 10
109.3168875407965
 20
-71.43148571333418
 30
0.0
 10
109.3168875407965
 20
-71.89715237988497
 30
0.0
 10
109.3168875407965
 20
-72.57801349082533
 30
0.0
 10
108.7806653187085
 20
-73.12834682402153
 30
0.0
 10
108.117443096652
 20
-73.12834682402153
 30
0.0
 10
107.9939708744606
 20
-73.12834682402153
 30
0.0
 10
107.8740264300461
 20
-73.11070793513667
 30
0.0
 10
107.7611375411855
 20
-73.07190237959125
 30
0.0
 10
107.6129708745558
 20
-72.98370793516887
 30
0.0
 10
107.4612764301492
 20
-72.89551349074647
 30
0.0
 10
107.3095819857429
 20
-72.80731904632407
 30
0.0
 10
107.0696930969139
 20
-72.58506904637927
 30
0.0
 10
106.9179986525073
 20
-72.26051349090483
 30
0.0
 10
106.9179986525073
 20
-71.89715237988497
 30
0.0
 10
106.9179986525073
 20
-71.21981904672094
 30
0.0
 10
107.4542208745956
 20
-70.66948571352474
 30
0.0
 10
108.117443096652
 20
-70.66948571352474
 30
0.0
 10
108.3255819854886
 20
-70.66948571352474
 30
0.0
 10
108.519609763218
 20
-70.72240238017868
 30
0.0
 10
108.6889430965091
 20
-70.81765238015439
 30
0.0
  0
HATCH
  5
B6
330
85
100
AcDbEntity
  8
Layer 1
 62
    18
420
        0
100
AcDbHatch
 10
0.0
 20
0.0
 30
0.0
210
0.0
220
0.0
230
1.0
  2
SOLID
 70
     1
 71
     0
 91
        1
 92
        1
 93
        1
 72
     4
 94
        3
 73
     0
 74
     1
 95
       26
 96
       22
 40
0.0
 40
0.0
 40
0.0
 40
0.0
 40
1.0
 40
1.0
 40
1.0
 40
2.0
 40
2.0
 40
2.0
 40
3.0
 40
3.0
 40
3.0
 40
4.0
 40
4.0
 40
4.0
 40
5.0
 40
5.0
 40
5.0
 40
6.0
 40
6.0
 40
6.0
 40
7.0
 40
7.0
 40
7.0
 40
7.0
 10
108.6889430965091
 20
-70.81765238015439
 10
109.0628875408599
 20
-71.02579126899128
 10
109.3168875407965
 20
-71.43148571333418
 10
109.3168875407965
 20
-71.89715237988497
 10
109.3168875407965
 20
-72.57801349082533
 10
108.7806653187085
 20
-73.12834682402153
 10
108.117443096652
 20
-73.12834682402153
 10
107.9939708744606
 20
-73.12834682402153
 10
107.8740264300461
 20
-73.11070793513667
 10
107.7611375411855
 20
-73.07190237959125
 10
107.6129708745558
 20
-72.98370793516887
 10
107.4612764301492
 20
-72.89551349074647
 10
107.3095819857429
 20
-72.80731904632407
 10
107.0696930969139
 20
-72.58506904637927
 10
106.9179986525073
 20
-72.26051349090483
 10
106.9179986525073
 20
-71.89715237988497
 10
106.9179986525073
 20
-71.21981904672094
 10
107.4542208745956
 20
-70.66948571352474
 10
108.117443096652
 20
-70.66948571352474
 10
108.3255819854886
 20
-70.66948571352474
 10
108.519609763218
 20
-70.72240238017868
 10
108.6889430965091
 20
-70.81765238015439
 97
        0
 97
        0
 75
     2
 76
     1
 98
        0
  0
SPLINE
  5
B7
330
85
100
AcDbEntity
  8
Layer 1
370
     0
100
AcDbSpline
210
0.0
220
0.0
230
1.0
 70
    11
 71
     3
 72
    68
 73
    64
 74
     0
 42
0.0000000001
 43
0.0000000001
 12
1.0
 22
0.0
 32
0.0
 13
1.0
 23
0.0
 33
0.0
 40
0.0
 40
0.0
 40
0.0
 40
0.0
 40
1.0
 40
1.0
 40
1.0
 40
2.0
 40
2.0
 40
2.0
 40
3.0
 40
3.0
 40
3.0
 40
4.0
 40
4.0
 40
4.0
 40
5.0
 40
5.0
 40
5.0
 40
6.0
 40
6.0
 40
6.0
 40
7.0
 40
7.0
 40
7.0
 40
8.0
 40
8.0
 40
8.0
 40
9.0
 40
9.0
 40
9.0
 40
10.0
 40
10.0
 40
10.0
 40
11.0
 40
11.0
 40
11.0
 40
12.0
 40
12.0
 40
12.0
 40
13.0
 40
13.0
 40
13.0
 40
14.0
 40
14.0
 40
14.0
 40
15.0
 40
15.0
 40
15.0
 40
16.0
 40
16.0
 40
16.0
 40
17.0
 40
17.0
 40
17.0
 40
18.0
 40
18.0
 40
18.0
 40
19.0
 40
19.0
 40
19.0
 40
20.0
 40
20.0
 40
20.0
 40
21.0
 40
21.0
 40
21.0
 40
21.0
 10
108.6924708742861
 20
-70.81059682460108
 30
0.0
 10
112.2061375400741
 20
-72.67679126857864
 30
0.0
 10
114.9648597616068
 20
-74.3066246015048
 30
0.0
 10
116.9051375388995
 20
-75.49901349009531
 30
0.0
 10
119.7626375381849
 20
-77.25584682298928
 30
0.0
 10
122.9799708707142
 20
-79.28079126692741
 30
0.0
 10
125.347109759011
 20
-80.63898571103243
 30
0.0
 10
125.491748647864
 20
-80.72365237767785
 30
0.0
 10
126.1620264254741
 20
-81.00940237760688
 30
0.0
 10
126.9628319808296
 20
-81.58443015524063
 30
0.0
 10
127.1639153141126
 20
-81.73259682187027
 30
0.0
 10
127.3367764251804
 20
-81.870180155169
 30
0.0
 10
127.4214430918258
 20
-81.94073571070717
 30
0.0
 10
128.702026424839
 20
-83.00965237710685
 30
0.0
 10
129.2382486469274
 20
-84.76648571000082
 30
0.0
 10
129.2946930913577
 20
-85.0734023765904
 30
0.0
 10
129.5663319801788
 20
-86.45981904291055
 30
0.0
 10
129.4746097579794
 20
-86.60093015398627
 30
0.0
 10
129.4993042024176
 20
-87.9697079314222
 30
0.0
 10
129.580443091286
 20
-93.07087459681296
 30
0.0
 10
129.5134153135255
 20
-98.1720412622053
 30
0.0
 10
129.4993042024176
 20
-103.2732079275964
 30
0.0
 10
129.4957764246406
 20
-104.014041260744
 30
0.0
 10
129.4957764246406
 20
-104.6102357050402
 30
0.0
 10
129.4993042024176
 20
-104.9383190382916
 30
0.0
 10
129.4993042024176
 20
-104.9383190382916
 30
0.0
 10
129.4993042024176
 20
-105.8202634825156
 30
0.0
 10
129.4993042024176
 20
-105.8202634825156
 30
0.0
 10
129.4993042024176
 20
-105.8202634825156
 30
0.0
 10
129.4851930913103
 20
-105.8202634825156
 30
0.0
 10
129.4851930913103
 20
-105.8202634825156
 30
0.0
 10
129.4851930913103
 20
-105.1394023715746
 30
0.0
 10
128.948970869222
 20
-104.5890690383784
 30
0.0
 10
128.2857486471655
 20
-104.5890690383784
 30
0.0
 10
127.6225264251091
 20
-104.5890690383784
 30
0.0
 10
127.0863042030208
 20
-105.1394023715746
 30
0.0
 10
127.0863042030208
 20
-105.8202634825156
 30
0.0
 10
127.0863042030208
 20
-105.8202634825156
 30
0.0
 10
127.0863042030208
 20
-88.24487459801968
 30
0.0
 10
127.0863042030208
 20
-88.24487459801968
 30
0.0
 10
127.0863042030208
 20
-87.41231904267269
 30
0.0
 10
127.1145264252359
 20
-86.74204126506261
 30
0.0
 10
127.0404430919211
 20
-86.40337459848028
 30
0.0
 10
126.7194153142236
 20
-84.8899579321923
 30
0.0
 10
125.6822486478164
 20
-83.95862459909137
 30
0.0
 10
125.0966375368517
 20
-83.43298571033397
 30
0.0
 10
124.4933875370025
 20
-82.89323571046931
 30
0.0
 10
123.9606930926912
 20
-82.59337459943303
 30
0.0
 10
123.8442764260536
 20
-82.52281904389486
 30
0.0
 10
122.2426653153429
 20
-81.6091245996788
 30
0.0
 10
115.765665316962
 20
-77.75679126730851
 30
0.0
 10
107.7611375411855
 20
-73.07190237959125
 30
0.0
 10
107.8740264300461
 20
-73.11070793513667
 30
0.0
 10
107.9939708744606
 20
-73.12834682402153
 30
0.0
 10
108.117443096652
 20
-73.12834682402153
 30
0.0
 10
108.7806653187085
 20
-73.12834682402153
 30
0.0
 10
109.3168875407965
 20
-72.57801349082533
 30
0.0
 10
109.3168875407965
 20
-71.89715237988497
 30
0.0
 10
109.3168875407965
 20
-71.43148571333418
 30
0.0
 10
109.0628875408599
 20
-71.02579126899128
 30
0.0
 10
108.6889430965091
 20
-70.81765238015439
 30
0.0
 10
108.6889430965091
 20
-70.81765238015439
 30
0.0
 10
108.6924708742861
 20
-70.81059682460108
 30
0.0
 10
108.6924708742861
 20
-70.81059682460108
 30
0.0
  0
HATCH
  5
B8
330
85
100
AcDbEntity
  8
Layer 1
 62
    18
420
        0
100
AcDbHatch
 10
0.0
 20
0.0
 30
0.0
210
0.0
220
0.0
230
1.0
  2
SOLID
 70
     1
 71
     0
 91
        1
 92
        1
 93
        1
 72
     4
 94
        3
 73
     0
 74
     1
 95
       68
 96
       64
 40
0.0
 40
0.0
 40
0.0
 40
0.0
 40
1.0
 40
1.0
 40
1.0
 40
2.0
 40
2.0
 40
2.0
 40
3.0
 40
3.0
 40
3.0
 40
4.0
 40
4.0
 40
4.0
 40
5.0
 40
5.0
 40
5.0
 40
6.0
 40
6.0
 40
6.0
 40
7.0
 40
7.0
 40
7.0
 40
8.0
 40
8.0
 40
8.0
 40
9.0
 40
9.0
 40
9.0
 40
10.0
 40
10.0
 40
10.0
 40
11.0
 40
11.0
 40
11.0
 40
12.0
 40
12.0
 40
12.0
 40
13.0
 40
13.0
 40
13.0
 40
14.0
 40
14.0
 40
14.0
 40
15.0
 40
15.0
 40
15.0
 40
16.0
 40
16.0
 40
16.0
 40
17.0
 40
17.0
 40
17.0
 40
18.0
 40
18.0
 40
18.0
 40
19.0
 40
19.0
 40
19.0
 40
20.0
 40
20.0
 40
20.0
 40
21.0
 40
21.0
 40
21.0
 40
21.0
 10
108.6924708742861
 20
-70.81059682460108
 10
112.2061375400741
 20
-72.67679126857864
 10
114.9648597616068
 20
-74.3066246015048
 10
116.9051375388995
 20
-75.49901349009531
 10
119.7626375381849
 20
-77.25584682298928
 10
122.9799708707142
 20
-79.28079126692741
 10
125.347109759011
 20
-80.63898571103243
 10
125.491748647864
 20
-80.72365237767785
 10
126.1620264254741
 20
-81.00940237760688
 10
126.9628319808296
 20
-81.58443015524063
 10
127.1639153141126
 20
-81.73259682187027
 10
127.3367764251804
 20
-81.870180155169
 10
127.4214430918258
 20
-81.94073571070717
 10
128.702026424839
 20
-83.00965237710685
 10
129.2382486469274
 20
-84.76648571000082
 10
129.2946930913577
 20
-85.0734023765904
 10
129.5663319801788
 20
-86.45981904291055
 10
129.4746097579794
 20
-86.60093015398627
 10
129.4993042024176
 20
-87.9697079314222
 10
129.580443091286
 20
-93.07087459681296
 10
129.5134153135255
 20
-98.1720412622053
 10
129.4993042024176
 20
-103.2732079275964
 10
129.4957764246406
 20
-104.014041260744
 10
129.4957764246406
 20
-104.6102357050402
 10
129.4993042024176
 20
-104.9383190382916
 10
129.4993042024176
 20
-104.9383190382916
 10
129.4993042024176
 20
-105.8202634825156
 10
129.4993042024176
 20
-105.8202634825156
 10
129.4993042024176
 20
-105.8202634825156
 10
129.4851930913103
 20
-105.8202634825156
 10
129.4851930913103
 20
-105.8202634825156
 10
129.4851930913103
 20
-105.1394023715746
 10
128.948970869222
 20
-104.5890690383784
 10
128.2857486471655
 20
-104.5890690383784
 10
127.6225264251091
 20
-104.5890690383784
 10
127.0863042030208
 20
-105.1394023715746
 10
127.0863042030208
 20
-105.8202634825156
 10
127.0863042030208
 20
-105.8202634825156
 10
127.0863042030208
 20
-88.24487459801968
 10
127.0863042030208
 20
-88.24487459801968
 10
127.0863042030208
 20
-87.41231904267269
 10
127.1145264252359
 20
-86.74204126506261
 10
127.0404430919211
 20
-86.40337459848028
 10
126.7194153142236
 20
-84.8899579321923
 10
125.6822486478164
 20
-83.95862459909137
 10
125.0966375368517
 20
-83.43298571033397
 10
124.4933875370025
 20
-82.89323571046931
 10
123.9606930926912
 20
-82.59337459943303
 10
123.8442764260536
 20
-82.52281904389486
 10
122.2426653153429
 20
-81.6091245996788
 10
115.765665316962
 20
-77.75679126730851
 10
107.7611375411855
 20
-73.07190237959125
 10
107.8740264300461
 20
-73.11070793513667
 10
107.9939708744606
 20
-73.12834682402153
 10
108.117443096652
 20
-73.12834682402153
 10
108.7806653187085
 20
-73.12834682402153
 10
109.3168875407965
 20
-72.57801349082533
 10
109.3168875407965
 20
-71.89715237988497
 10
109.3168875407965
 20
-71.43148571333418
 10
109.0628875408599
 20
-71.02579126899128
 10
108.6889430965091
 20
-70.81765238015439
 10
108.6889430965091
 20
-70.81765238015439
 10
108.6924708742861
 20
-70.81059682460108
 10
108.6924708742861
 20
-70.81059682460108
 97
        0
 97
        0
 75
     2
 76
     1
 98
        0
  0
ENDBLK
  5
88
330
85
100
AcDbEntity
  8
0
100
AcDbBlockEnd
  0
BLOCK
  5
BB
330
B9
100
AcDbEntity
  8
0
100
AcDbBlockBegin
  2
block 7
 70
     0
 10
0.0
 20
0.0
 30
0.0
  3
block 7
  1

  0
ENDBLK
  5
BC
330
B9
100
AcDbEntity
  8
0
100
AcDbBlockEnd
  0
BLOCK
  5
BF
330
BD
100
AcDbEntity
  8
0
100
AcDbBlockBegin
  2
block 8
 70
     0
 10
0.0
 20
0.0
 30
0.0
  3
block 8
  1

  0
INSERT
  5
C2
330
BD
100
AcDbEntity
  8
Layer 1
100
AcDbBlockReference
  2
block 9
 10
0.0
 20
0.0
 30
0.0
  0
INSERT
  5
C8
330
BD
100
AcDbEntity
  8
Layer 1
100
AcDbBlockReference
  2
block 10
 10
0.0
 20
0.0
 30
0.0
  0
ENDBLK
  5
C0
330
BD
100
AcDbEntity
  8
0
100
AcDbBlockEnd
  0
BLOCK
  5
C3
330
C1
100
AcDbEntity
  8
0
100
AcDbBlockBegin
  2
block 9
 70
     0
 10
0.0
 20
0.0
 30
0.0
  3
block 9
  1

  0
SPLINE
  5
C5
330
C1
100
AcDbEntity
  8
Layer 1
370
     0
100
AcDbSpline
210
0.0
220
0.0
230
1.0
 70
    11
 71
     3
 72
    77
 73
    73
 74
     0
 42
0.0000000001
 43
0.0000000001
 12
1.0
 22
0.0
 32
0.0
 13
1.0
 23
0.0
 33
0.0
 40
0.0
 40
0.0
 40
0.0
 40
0.0
 40
1.0
 40
1.0
 40
1.0
 40
2.0
 40
2.0
 40
2.0
 40
3.0
 40
3.0
 40
3.0
 40
4.0
 40
4.0
 40
4.0
 40
5.0
 40
5.0
 40
5.0
 40
6.0
 40
6.0
 40
6.0
 40
7.0
 40
7.0
 40
7.0
 40
8.0
 40
8.0
 40
8.0
 40
9.0
 40
9.0
 40
9.0
 40
10.0
 40
10.0
 40
10.0
 40
11.0
 40
11.0
 40
11.0
 40
12.0
 40
12.0
 40
12.0
 40
13.0
 40
13.0
 40
13.0
 40
14.0
 40
14.0
 40
14.0
 40
15.0
 40
15.0
 40
15.0
 40
16.0
 40
16.0
 40
16.0
 40
17.0
 40
17.0
 40
17.0
 40
18.0
 40
18.0
 40
18.0
 40
19.0
 40
19.0
 40
19.0
 40
20.0
 40
20.0
 40
20.0
 40
21.0
 40
21.0
 40
21.0
 40
22.0
 40
22.0
 40
22.0
 40
23.0
 40
23.0
 40
23.0
 40
24.0
 40
24.0
 40
24.0
 40
24.0
 10
116.1238610820802
 20
-101.9704166411738
 30
0.0
 10
114.7198055268758
 20
-101.1061110858347
 30
0.0
 10
109.6927221947992
 20
-97.42311108675528
 30
0.0
 10
108.3662777506863
 20
-91.75749997706076
 30
0.0
 10
108.2251666396103
 20
-91.15424997721156
 30
0.0
 10
107.0045555288046
 20
-85.48511108974006
 30
0.0
 10
109.9819999725046
 20
-83.47074997913252
 30
0.0
 10
112.7689444162522
 20
-81.5869166462701
 30
0.0
 10
118.1170555260265
 20
-84.29977775670285
 30
0.0
 10
120.3959999699009
 20
-87.99688886688985
 30
0.0
 10
121.9552777472889
 20
-90.52630553292418
 30
0.0
 10
122.5796944137996
 20
-94.74905553186827
 30
0.0
 10
120.8228610809053
 20
-96.02963886488182
 30
0.0
 10
120.2548888588252
 20
-96.44238886477865
 30
0.0
 10
119.1930277479795
 20
-96.72108330915309
 30
0.0
 10
118.1558610815723
 20
-96.5446944203083
 30
0.0
 10
117.1539721929338
 20
-96.37888886479443
 30
0.0
 10
116.5154444153155
 20
-95.84972219826005
 30
0.0
 10
115.9721666376736
 20
-95.39463886504018
 30
0.0
 10
114.7656666379755
 20
-94.37863886529446
 30
0.0
 10
112.8289166384594
 20
-92.08911108808914
 30
0.0
 10
113.4674444160777
 20
-90.08886108858886
 30
0.0
 10
113.523888860508
 20
-89.91247219974407
 30
0.0
 10
113.8025833048827
 20
-89.04111108885103
 30
0.0
 10
114.5681110824692
 20
-88.72361108893021
 30
0.0
 10
115.3759721933783
 20
-88.39199997790215
 30
0.0
 10
116.201472193172
 20
-88.80827775557563
 30
0.0
 10
116.6283333041764
 20
-89.04816664440466
 30
0.0
 10
117.5455555261691
 20
-89.56674997760844
 30
0.0
 10
117.9759444149505
 20
-90.44516664405542
 30
0.0
 10
118.1840833037874
 20
-90.8755555328368
 30
0.0
 10
117.8983333038587
 20
-90.44869442183239
 30
0.0
 10
117.2809721929019
 20
-89.67963886646899
 30
0.0
 10
116.2438055264947
 20
-89.33038886655639
 30
0.0
 10
115.86280552659
 20
-89.20338886658826
 30
0.0
 10
115.3265833045016
 20
-89.02347219996649
 30
0.0
 10
114.8221110824058
 20
-89.27041664434913
 30
0.0
 10
114.197694415895
 20
-89.57380553316206
 30
0.0
 10
114.0177777492733
 20
-90.31816664408728
 30
0.0
 10
113.9719166381739
 20
-90.51219442181662
 30
0.0
 10
113.5768055271613
 20
-92.15261108807273
 30
0.0
 10
115.0478888601269
 20
-93.75069442100677
 30
0.0
 10
115.6405555266455
 20
-94.39274997640172
 30
0.0
 10
116.1450277487417
 20
-94.94308330959792
 30
0.0
 10
116.6036388597379
 20
-95.4263888650323
 30
0.0
 10
117.3973888595395
 20
-95.66627775386131
 30
0.0
 10
117.5702499706076
 20
-95.71919442051463
 30
0.0
 10
118.7097221925448
 20
-96.0613888648733
 30
0.0
 10
119.5775555256612
 20
-95.5145833094547
 30
0.0
 10
120.7875833031366
 20
-94.75611108742221
 30
0.0
 10
120.674694414276
 20
-92.77349997680648
 30
0.0
 10
120.6394166365069
 20
-92.18083331028787
 30
0.0
 10
120.4206944143394
 20
-88.3743610890176
 30
0.0
 10
116.7059444152682
 20
-86.06719442292774
 30
0.0
 10
116.1556110820723
 20
-85.72499997856876
 30
0.0
 10
115.2031110823105
 20
-85.13586108982713
 30
0.0
 10
114.5328333047001
 20
-84.95594442320568
 30
0.0
 10
114.1236110825802
 20
-84.87480553433691
 30
0.0
 10
113.5838610827152
 20
-84.77249997880695
 30
0.0
 10
111.9222777497973
 20
-84.4267777566713
 30
0.0
 10
110.5781944167998
 20
-85.36163886754858
 30
0.0
 10
109.3328888615557
 20
-86.22594442288799
 30
0.0
 10
109.1741388615955
 20
-87.67938886696903
 30
0.0
 10
109.0471388616273
 20
-88.37788886679458
 30
0.0
 10
108.6837777506068
 20
-90.37108331074059
 30
0.0
 10
109.2446944171333
 20
-92.13849997696548
 30
0.0
 10
110.3488888613017
 20
-94.63616664300771
 30
0.0
 10
110.7828055278598
 20
-95.60983330943104
 30
0.0
 10
111.4742499721314
 20
-96.89041664244394
 30
0.0
 10
112.7301388607064
 20
-98.54494441980826
 30
0.0
 10
113.9189999715203
 20
-100.1112777527502
 30
0.0
 10
115.1607777489878
 20
-101.2260555302492
 30
0.0
 10
116.1238610820802
 20
-101.9704166411738
 30
0.0
  0
HATCH
  5
C6
330
C1
100
AcDbEntity
  8
Layer 1
 62
    18
420
        0
100
AcDbHatch
 10
0.0
 20
0.0
 30
0.0
210
0.0
220
0.0
230
1.0
  2
SOLID
 70
     1
 71
     0
 91
        1
 92
        1
 93
        1
 72
     4
 94
        3
 73
     0
 74
     1
 95
       77
 96
       73
 40
0.0
 40
0.0
 40
0.0
 40
0.0
 40
1.0
 40
1.0
 40
1.0
 40
2.0
 40
2.0
 40
2.0
 40
3.0
 40
3.0
 40
3.0
 40
4.0
 40
4.0
 40
4.0
 40
5.0
 40
5.0
 40
5.0
 40
6.0
 40
6.0
 40
6.0
 40
7.0
 40
7.0
 40
7.0
 40
8.0
 40
8.0
 40
8.0
 40
9.0
 40
9.0
 40
9.0
 40
10.0
 40
10.0
 40
10.0
 40
11.0
 40
11.0
 40
11.0
 40
12.0
 40
12.0
 40
12.0
 40
13.0
 40
13.0
 40
13.0
 40
14.0
 40
14.0
 40
14.0
 40
15.0
 40
15.0
 40
15.0
 40
16.0
 40
16.0
 40
16.0
 40
17.0
 40
17.0
 40
17.0
 40
18.0
 40
18.0
 40
18.0
 40
19.0
 40
19.0
 40
19.0
 40
20.0
 40
20.0
 40
20.0
 40
21.0
 40
21.0
 40
21.0
 40
22.0
 40
22.0
 40
22.0
 40
23.0
 40
23.0
 40
23.0
 40
24.0
 40
24.0
 40
24.0
 40
24.0
 10
116.1238610820802
 20
-101.9704166411738
 10
114.7198055268758
 20
-101.1061110858347
 10
109.6927221947992
 20
-97.42311108675528
 10
108.3662777506863
 20
-91.75749997706076
 10
108.2251666396103
 20
-91.15424997721156
 10
107.0045555288046
 20
-85.48511108974006
 10
109.9819999725046
 20
-83.47074997913252
 10
112.7689444162522
 20
-81.5869166462701
 10
118.1170555260265
 20
-84.29977775670285
 10
120.3959999699009
 20
-87.99688886688985
 10
121.9552777472889
 20
-90.52630553292418
 10
122.5796944137996
 20
-94.74905553186827
 10
120.8228610809053
 20
-96.02963886488182
 10
120.2548888588252
 20
-96.44238886477865
 10
119.1930277479795
 20
-96.72108330915309
 10
118.1558610815723
 20
-96.5446944203083
 10
117.1539721929338
 20
-96.37888886479443
 10
116.5154444153155
 20
-95.84972219826005
 10
115.9721666376736
 20
-95.39463886504018
 10
114.7656666379755
 20
-94.37863886529446
 10
112.8289166384594
 20
-92.08911108808914
 10
113.4674444160777
 20
-90.08886108858886
 10
113.523888860508
 20
-89.91247219974407
 10
113.8025833048827
 20
-89.04111108885103
 10
114.5681110824692
 20
-88.72361108893021
 10
115.3759721933783
 20
-88.39199997790215
 10
116.201472193172
 20
-88.80827775557563
 10
116.6283333041764
 20
-89.04816664440466
 10
117.5455555261691
 20
-89.56674997760844
 10
117.9759444149505
 20
-90.44516664405542
 10
118.1840833037874
 20
-90.8755555328368
 10
117.8983333038587
 20
-90.44869442183239
 10
117.2809721929019
 20
-89.67963886646899
 10
116.2438055264947
 20
-89.33038886655639
 10
115.86280552659
 20
-89.20338886658826
 10
115.3265833045016
 20
-89.02347219996649
 10
114.8221110824058
 20
-89.27041664434913
 10
114.197694415895
 20
-89.57380553316206
 10
114.0177777492733
 20
-90.31816664408728
 10
113.9719166381739
 20
-90.51219442181662
 10
113.5768055271613
 20
-92.15261108807273
 10
115.0478888601269
 20
-93.75069442100677
 10
115.6405555266455
 20
-94.39274997640172
 10
116.1450277487417
 20
-94.94308330959792
 10
116.6036388597379
 20
-95.4263888650323
 10
117.3973888595395
 20
-95.66627775386131
 10
117.5702499706076
 20
-95.71919442051463
 10
118.7097221925448
 20
-96.0613888648733
 10
119.5775555256612
 20
-95.5145833094547
 10
120.7875833031366
 20
-94.75611108742221
 10
120.674694414276
 20
-92.77349997680648
 10
120.6394166365069
 20
-92.18083331028787
 10
120.4206944143394
 20
-88.3743610890176
 10
116.7059444152682
 20
-86.06719442292774
 10
116.1556110820723
 20
-85.72499997856876
 10
115.2031110823105
 20
-85.13586108982713
 10
114.5328333047001
 20
-84.95594442320568
 10
114.1236110825802
 20
-84.87480553433691
 10
113.5838610827152
 20
-84.77249997880695
 10
111.9222777497973
 20
-84.4267777566713
 10
110.5781944167998
 20
-85.36163886754858
 10
109.3328888615557
 20
-86.22594442288799
 10
109.1741388615955
 20
-87.67938886696903
 10
109.0471388616273
 20
-88.37788886679458
 10
108.6837777506068
 20
-90.37108331074059
 10
109.2446944171333
 20
-92.13849997696548
 10
110.3488888613017
 20
-94.63616664300771
 10
110.7828055278598
 20
-95.60983330943104
 10
111.4742499721314
 20
-96.89041664244394
 10
112.7301388607064
 20
-98.54494441980826
 10
113.9189999715203
 20
-100.1112777527502
 10
115.1607777489878
 20
-101.2260555302492
 10
116.1238610820802
 20
-101.9704166411738
 97
        0
 97
        0
 75
     2
 76
     1
 98
        0
  0
ENDBLK
  5
C4
330
C1
100
AcDbEntity
  8
0
100
AcDbBlockEnd
  0
BLOCK
  5
C9
330
C7
100
AcDbEntity
  8
0
100
AcDbBlockBegin
  2
block 10
 70
     0
 10
0.0
 20
0.0
 30
0.0
  3
block 10
  1

  0
ENDBLK
  5
CA
330
C7
100
AcDbEntity
  8
0
100
AcDbBlockEnd
  0
ENDSEC
  0
SECTION
  2
ENTITIES
  0
INSERT
  5
42
330
1F
100
AcDbEntity
  8
Layer 1
100
AcDbBlockReference
  2
block 2
 10
0.0
 20
0.0
 30
0.0
  0
INSERT
  5
82
330
1F
100
AcDbEntity
  8
Layer 1
100
AcDbBlockReference
  2
block 5
 10
0.0
 20
0.0
 30
0.0
  0
INSERT
  5
BE
330
1F
100
AcDbEntity
  8
Layer 1
100
AcDbBlockReference
  2
block 8
 10
0.0
 20
0.0
 30
0.0
  0
ENDSEC
  0
SECTION
  2
OBJECTS
  0
DICTIONARY
  5
C
330
0
100
AcDbDictionary
281
     1
  3
ACAD_GROUP
350
D
  3
ACAD_LAYOUT
350
1A
  3
ACAD_MATERIAL
350
3B
  3
ACAD_MLEADERSTYLE
350
CC
  3
ACAD_MLINESTYLE
350
17
  3
ACAD_PLOTSETTINGS
350
19
  3
ACAD_PLOTSTYLENAME
350
E
  3
ACAD_TABLESTYLE
350
CB
  3
ACAD_VISUALSTYLE
350
2A
  0
SUN
  5
3F
330
29
100
AcDbSun
 90
        1
290
     0
 63
     7
421
 16777215
 40
1.0
291
     1
 91
  2455826
 92
 54000000
292
     0
 70
     2
 71
   256
280
     1
  0
DICTIONARY
  5
D
102
{ACAD_REACTORS
330
C
102
}
330
C
100
AcDbDictionary
281
     1
  0
DICTIONARY
  5
1A
102
{ACAD_REACTORS
330
C
102
}
330
C
100
AcDbDictionary
281
     1
  3
Layout1
350
1E
  3
Layout2
350
26
  3
Model
350
22
  0
DICTIONARY
  5
3B
102
{ACAD_REACTORS
330
C
102
}
330
C
100
AcDbDictionary
281
     1
  3
ByBlock
350
3D
  3
ByLayer
350
3C
  3
Global
350
3E
  0
DICTIONARY
  5
CC
102
{ACAD_REACTORS
330
C
102
}
330
C
100
AcDbDictionary
281
     1
  0
DICTIONARY
  5
17
102
{ACAD_REACTORS
330
C
102
}
330
C
100
AcDbDictionary
281
     1
  3
Standard
350
18
  0
DICTIONARY
  5
19
102
{ACAD_REACTORS
330
C
102
}
330
C
100
AcDbDictionary
281
     1
  0
ACDBDICTIONARYWDFLT
  5
E
102
{ACAD_REACTORS
330
C
102
}
330
C
100
AcDbDictionary
281
     1
  3
Normal
350
F
100
AcDbDictionaryWithDefault
340
F
  0
DICTIONARY
  5
CB
102
{ACAD_REACTORS
330
C
102
}
330
C
100
AcDbDictionary
281
     1
  0
DICTIONARY
  5
2A
102
{ACAD_REACTORS
330
C
102
}
330
C
100
AcDbDictionary
281
     1
  3
2dWireframe
350
2F
  3
3D Hidden
350
31
  3
3dWireframe
350
30
  3
Basic
350
32
  3
Brighten
350
36
  3
ColorChange
350
3A
  3
Conceptual
350
34
  3
Dim
350
35
  3
Facepattern
350
39
  3
Flat
350
2B
  3
FlatWithEdges
350
2C
  3
Gouraud
350
2D
  3
GouraudWithEdges
350
2E
  3
Linepattern
350
38
  3
Realistic
350
33
  3
Thicken
350
37
  0
LAYOUT
  5
1E
102
{ACAD_REACTORS
330
1A
102
}
330
1A
100
AcDbPlotSettings
  1

  2
none_device
  4

  6

 40
0.0
 41
0.0
 42
0.0
 43
0.0
 44
0.0
 45
0.0
 46
0.0
 47
0.0
 48
0.0
 49
0.0
140
0.0
141
0.0
142
1.0
143
1.0
 70
   688
 72
     0
 73
     0
 74
     5
  7

 75
    16
 76
     0
 77
     2
 78
   300
147
1.0
148
0.0
149
0.0
100
AcDbLayout
  1
Layout1
 70
     1
 71
     1
 10
0.0
 20
0.0
 11
12.0
 21
9.0
 12
0.0
 22
0.0
 32
0.0
 14
1.000000000000000E+20
 24
1.000000000000000E+20
 34
1.000000000000000E+20
 15
-1.000000000000000E+20
 25
-1.000000000000000E+20
 35
-1.000000000000000E+20
146
0.0
 13
0.0
 23
0.0
 33
0.0
 16
1.0
 26
0.0
 36
0.0
 17
0.0
 27
1.0
 37
0.0
 76
     0
330
1B
  0
LAYOUT
  5
26
102
{ACAD_REACTORS
330
1A
102
}
330
1A
100
AcDbPlotSettings
  1

  2
none_device
  4

  6

 40
0.0
 41
0.0
 42
0.0
 43
0.0
 44
0.0
 45
0.0
 46
0.0
 47
0.0
 48
0.0
 49
0.0
140
0.0
141
0.0
142
1.0
143
1.0
 70
   688
 72
     0
 73
     0
 74
     5
  7

 75
    16
 76
     0
 77
     2
 78
   300
147
1.0
148
0.0
149
0.0
100
AcDbLayout
  1
Layout2
 70
     1
 71
     2
 10
0.0
 20
0.0
 11
0.0
 21
0.0
 12
0.0
 22
0.0
 32
0.0
 14
0.0
 24
0.0
 34
0.0
 15
0.0
 25
0.0
 35
0.0
146
0.0
 13
0.0
 23
0.0
 33
0.0
 16
1.0
 26
0.0
 36
0.0
 17
0.0
 27
1.0
 37
0.0
 76
     0
330
23
  0
LAYOUT
  5
22
102
{ACAD_REACTORS
330
1A
102
}
330
1A
100
AcDbPlotSettings
  1

  2
none_device
  4

  6

 40
0.0
 41
0.0
 42
0.0
 43
0.0
 44
0.0
 45
0.0
 46
0.0
 47
0.0
 48
0.0
 49
0.0
140
0.0
141
0.0
142
1.0
143
1.0
 70
  1712
 72
     0
 73
     0
 74
     0
  7

 75
     0
 76
     0
 77
     2
 78
   300
147
1.0
148
0.0
149
0.0
100
AcDbLayout
  1
Model
 70
     1
 71
     0
 10
0.0
 20
0.0
 11
12.0
 21
9.0
 12
0.0
 22
0.0
 32
0.0
 14
1.000000000000000E+20
 24
1.000000000000000E+20
 34
1.000000000000000E+20
 15
-1.000000000000000E+20
 25
-1.000000000000000E+20
 35
-1.000000000000000E+20
146
0.0
 13
0.0
 23
0.0
 33
0.0
 16
1.0
 26
0.0
 36
0.0
 17
0.0
 27
1.0
 37
0.0
 76
     0
330
1F
331
29
  0
MATERIAL
  5
3D
102
{ACAD_REACTORS
330
3B
102
}
330
3B
100
AcDbMaterial
  1
ByBlock
 72
     1
 94
      127
  0
MATERIAL
  5
3C
102
{ACAD_REACTORS
330
3B
102
}
330
3B
100
AcDbMaterial
  1
ByLayer
 72
     1
 94
      127
  0
MATERIAL
  5
3E
102
{ACAD_REACTORS
330
3B
102
}
330
3B
100
AcDbMaterial
  1
Global
 72
     1
 94
      127
  0
MLINESTYLE
  5
18
102
{ACAD_REACTORS
330
17
102
}
330
17
100
AcDbMlineStyle
  2
Standard
 70
     0
  3

 62
   256
 51
90.0
 52
90.0
 71
     2
 49
0.5
 62
   256
  6
BYLAYER
 49
-0.5
 62
   256
  6
BYLAYER
  0
ACDBPLACEHOLDER
  5
F
102
{ACAD_REACTORS
330
E
102
}
330
E
  0
VISUALSTYLE
  5
2F
102
{ACAD_REACTORS
330
2A
102
}
330
2A
100
AcDbVisualStyle
  2
2dWireframe
 70
     4
177
     2
291
     0
 71
     0
176
     1
 72
     2
176
     1
 73
     0
176
     1
 90
        0
176
     1
 40
-0.6
176
     1
 41
-30.0
176
     1
 62
     5
 63
     7
421
 16777215
176
     1
 74
     1
176
     1
 91
        4
176
     1
 64
     7
176
     1
 65
   257
176
     1
 75
     1
176
     1
175
     1
176
     1
 42
1.0
176
     1
 92
        0
176
     1
 66
   257
176
     1
 43
1.0
176
     1
 76
     1
176
     1
 77
     6
176
     1
 78
     2
176
     1
 67
     7
176
     1
 79
     5
176
     1
170
     0
176
     1
171
     0
176
     1
290
     0
176
     1
 93
        1
176
     1
 44
0.0
176
     1
173
     0
176
     1
  0
VISUALSTYLE
  5
31
102
{ACAD_REACTORS
330
2A
102
}
330
2A
100
AcDbVisualStyle
  2
3D Hidden
 70
     6
177
     2
291
     0
 71
     1
176
     1
 72
     2
176
     1
 73
     2
176
     1
 90
        0
176
     1
 40
-0.6
176
     1
 41
-30.0
176
     1
 62
     5
 63
     7
421
 16777215
176
     1
 74
     2
176
     1
 91
        2
176
     1
 64
     7
176
     1
 65
   257
176
     1
 75
     2
176
     1
175
     1
176
     1
 42
40.0
176
     1
 92
        0
176
     1
 66
   257
176
     1
 43
1.0
176
     1
 76
     1
176
     1
 77
     6
176
     1
 78
     2
176
     1
 67
     7
176
     1
 79
     3
176
     1
170
     0
176
     1
171
     0
176
     1
290
     0
176
     1
 93
        1
176
     1
 44
0.0
176
     1
173
     0
176
     1
  0
VISUALSTYLE
  5
30
102
{ACAD_REACTORS
330
2A
102
}
330
2A
100
AcDbVisualStyle
  2
3dWireframe
 70
     5
177
     2
291
     0
 71
     0
176
     1
 72
     2
176
     1
 73
     0
176
     1
 90
        0
176
     1
 40
-0.6
176
     1
 41
-30.0
176
     1
 62
     5
 63
     7
421
 16777215
176
     1
 74
     1
176
     1
 91
        4
176
     1
 64
     7
176
     1
 65
   257
176
     1
 75
     1
176
     1
175
     1
176
     1
 42
1.0
176
     1
 92
        0
176
     1
 66
   257
176
     1
 43
1.0
176
     1
 76
     1
176
     1
 77
     6
176
     1
 78
     2
176
     1
 67
     7
176
     1
 79
     5
176
     1
170
     0
176
     1
171
     0
176
     1
290
     0
176
     1
 93
        1
176
     1
 44
0.0
176
     1
173
     0
176
     1
  0
VISUALSTYLE
  5
32
102
{ACAD_REACTORS
330
2A
102
}
330
2A
100
AcDbVisualStyle
  2
Basic
 70
     7
177
     2
291
     1
 71
     1
176
     1
 72
     0
176
     1
 73
     1
176
     1
 90
        0
176
     1
 40
-0.6
176
     1
 41
-30.0
176
     1
 62
     5
 63
     7
421
 16777215
176
     1
 74
     0
176
     1
 91
        4
176
     1
 64
     7
176
     1
 65
   257
176
     1
 75
     1
176
     1
175
     1
176
     1
 42
1.0
176
     1
 92
        8
176
     1
 66
     7
176
     1
 43
1.0
176
     1
 76
     1
176
     1
 77
     6
176
     1
 78
     2
176
     1
 67
     7
176
     1
 79
     5
176
     1
170
     0
176
     1
171
     0
176
     1
290
     0
176
     1
 93
        1
176
     1
 44
0.0
176
     1
173
     0
176
     1
  0
VISUALSTYLE
  5
36
102
{ACAD_REACTORS
330
2A
102
}
330
2A
100
AcDbVisualStyle
  2
Brighten
 70
    12
177
     2
291
     1
 71
     2
176
     1
 72
     2
176
     1
 73
     0
176
     1
 90
        0
176
     1
 40
-0.6
176
     1
 41
-30.0
176
     1
 62
     5
 63
     7
421
 16777215
176
     1
 74
     1
176
     1
 91
        4
176
     1
 64
     7
176
     1
 65
   257
176
     1
 75
     1
176
     1
175
     1
176
     1
 42
1.0
176
     1
 92
        8
176
     1
 66
     7
176
     1
 43
1.0
176
     1
 76
     1
176
     1
 77
     6
176
     1
 78
     2
176
     1
 67
     7
176
     1
 79
     5
176
     1
170
     0
176
     1
171
     0
176
     1
290
     0
176
     1
 93
        1
176
     1
 44
50.0
176
     1
173
     0
176
     1
  0
VISUALSTYLE
  5
3A
102
{ACAD_REACTORS
330
2A
102
}
330
2A
100
AcDbVisualStyle
  2
ColorChange
 70
    16
177
     2
291
     1
 71
     2
176
     1
 72
     2
176
     1
 73
     3
176
     1
 90
        0
176
     1
 40
-0.6
176
     1
 41
-30.0
176
     1
 62
     5
 63
     8
421
  8421504
176
     1
 74
     1
176
     1
 91
        4
176
     1
 64
     7
176
     1
 65
   257
176
     1
 75
     1
176
     1
175
     1
176
     1
 42
1.0
176
     1
 92
        8
176
     1
 66
     8
424
  8421504
176
     1
 43
1.0
176
     1
 76
     1
176
     1
 77
     6
176
     1
 78
     2
176
     1
 67
     7
176
     1
 79
     5
176
     1
170
     0
176
     1
171
     0
176
     1
290
     0
176
     1
 93
        1
176
     1
 44
0.0
176
     1
173
     0
176
     1
  0
VISUALSTYLE
  5
34
102
{ACAD_REACTORS
330
2A
102
}
330
2A
100
AcDbVisualStyle
  2
Conceptual
 70
     9
177
     2
291
     0
 71
     3
176
     1
 72
     2
176
     1
 73
     0
176
     1
 90
        0
176
     1
 40
-0.6
176
     1
 41
-30.0
176
     1
 62
     5
 63
     7
421
 16777215
176
     1
 74
     2
176
     1
 91
        2
176
     1
 64
     7
176
     1
 65
   257
176
     1
 75
     1
176
     1
175
     1
176
     1
 42
40.0
176
     1
 92
        8
176
     1
 66
     7
176
     1
 43
1.0
176
     1
 76
     1
176
     1
 77
     6
176
     1
 78
     2
176
     1
 67
     7
176
     1
 79
     3
176
     1
170
     0
176
     1
171
     0
176
     1
290
     0
176
     1
 93
        1
176
     1
 44
0.0
176
     1
173
     0
176
     1
  0
VISUALSTYLE
  5
35
102
{ACAD_REACTORS
330
2A
102
}
330
2A
100
AcDbVisualStyle
  2
Dim
 70
    11
177
     2
291
     1
 71
     2
176
     1
 72
     2
176
     1
 73
     0
176
     1
 90
        0
176
     1
 40
-0.6
176
     1
 41
-30.0
176
     1
 62
     5
 63
     7
421
 16777215
176
     1
 74
     1
176
     1
 91
        4
176
     1
 64
     7
176
     1
 65
   257
176
     1
 75
     1
176
     1
175
     1
176
     1
 42
1.0
176
     1
 92
        8
176
     1
 66
     7
176
     1
 43
1.0
176
     1
 76
     1
176
     1
 77
     6
176
     1
 78
     2
176
     1
 67
     7
176
     1
 79
     5
176
     1
170
     0
176
     1
171
     0
176
     1
290
     0
176
     1
 93
        1
176
     1
 44
-50.0
176
     1
173
     0
176
     1
  0
VISUALSTYLE
  5
39
102
{ACAD_REACTORS
330
2A
102
}
330
2A
100
AcDbVisualStyle
  2
Facepattern
 70
    15
177
     2
291
     1
 71
     2
176
     1
 72
     2
176
     1
 73
     0
176
     1
 90
        0
176
     1
 40
-0.6
176
     1
 41
-30.0
176
     1
 62
     5
 63
     7
421
 16777215
176
     1
 74
     1
176
     1
 91
        4
176
     1
 64
     7
176
     1
 65
   257
176
     1
 75
     1
176
     1
175
     1
176
     1
 42
1.0
176
     1
 92
        8
176
     1
 66
     7
176
     1
 43
1.0
176
     1
 76
     1
176
     1
 77
     6
176
     1
 78
     2
176
     1
 67
     7
176
     1
 79
     5
176
     1
170
     0
176
     1
171
     0
176
     1
290
     0
176
     1
 93
        1
176
     1
 44
0.0
176
     1
173
     0
176
     1
  0
VISUALSTYLE
  5
2B
102
{ACAD_REACTORS
330
2A
102
}
330
2A
100
AcDbVisualStyle
  2
Flat
 70
     0
177
     2
291
     1
 71
     2
176
     1
 72
     1
176
     1
 73
     1
176
     1
 90
        2
176
     1
 40
-0.6
176
     1
 41
30.0
176
     1
 62
     5
 63
     7
421
 16777215
176
     1
 74
     0
176
     1
 91
        4
176
     1
 64
     7
176
     1
 65
   257
176
     1
 75
     1
176
     1
175
     1
176
     1
 42
1.0
176
     1
 92
        8
176
     1
 66
     7
176
     1
 43
1.0
176
     1
 76
     1
176
     1
 77
     6
176
     1
 78
     2
176
     1
 67
     7
176
     1
 79
     5
176
     1
170
     0
176
     1
171
     0
176
     1
290
     0
176
     1
 93
       13
176
     1
 44
0.0
176
     1
173
     0
176
     1
  0
VISUALSTYLE
  5
2C
102
{ACAD_REACTORS
330
2A
102
}
330
2A
100
AcDbVisualStyle
  2
FlatWithEdges
 70
     1
177
     2
291
     1
 71
     2
176
     1
 72
     1
176
     1
 73
     1
176
     1
 90
        2
176
     1
 40
-0.6
176
     1
 41
30.0
176
     1
 62
     5
 63
     7
421
 16777215
176
     1
 74
     1
176
     1
 91
        4
176
     1
 64
     7
176
     1
 65
   257
176
     1
 75
     1
176
     1
175
     1
176
     1
 42
1.0
176
     1
 92
        0
176
     1
 66
   257
176
     1
 43
1.0
176
     1
 76
     1
176
     1
 77
     6
176
     1
 78
     2
176
     1
 67
     7
176
     1
 79
     5
176
     1
170
     0
176
     1
171
     0
176
     1
290
     0
176
     1
 93
       13
176
     1
 44
0.0
176
     1
173
     0
176
     1
  0
VISUALSTYLE
  5
2D
102
{ACAD_REACTORS
330
2A
102
}
330
2A
100
AcDbVisualStyle
  2
Gouraud
 70
     2
177
     2
291
     1
 71
     2
176
     1
 72
     2
176
     1
 73
     1
176
     1
 90
        2
176
     1
 40
-0.6
176
     1
 41
30.0
176
     1
 62
     5
 63
     7
421
 16777215
176
     1
 74
     0
176
     1
 91
        4
176
     1
 64
     7
176
     1
 65
   257
176
     1
 75
     1
176
     1
175
     1
176
     1
 42
1.0
176
     1
 92
        0
176
     1
 66
     7
176
     1
 43
1.0
176
     1
 76
     1
176
     1
 77
     6
176
     1
 78
     2
176
     1
 67
     7
176
     1
 79
     5
176
     1
170
     0
176
     1
171
     0
176
     1
290
     0
176
     1
 93
       13
176
     1
 44
0.0
176
     1
173
     0
176
     1
  0
VISUALSTYLE
  5
2E
102
{ACAD_REACTORS
330
2A
102
}
330
2A
100
AcDbVisualStyle
  2
GouraudWithEdges
 70
     3
177
     2
291
     1
 71
     2
176
     1
 72
     2
176
     1
 73
     1
176
     1
 90
        2
176
     1
 40
-0.6
176
     1
 41
30.0
176
     1
 62
     5
 63
     7
421
 16777215
176
     1
 74
     1
176
     1
 91
        4
176
     1
 64
     7
176
     1
 65
   257
176
     1
 75
     1
176
     1
175
     1
176
     1
 42
1.0
176
     1
 92
        0
176
     1
 66
   257
176
     1
 43
1.0
176
     1
 76
     1
176
     1
 77
     6
176
     1
 78
     2
176
     1
 67
     7
176
     1
 79
     5
176
     1
170
     0
176
     1
171
     0
176
     1
290
     0
176
     1
 93
       13
176
     1
 44
0.0
176
     1
173
     0
176
     1
  0
VISUALSTYLE
  5
38
102
{ACAD_REACTORS
330
2A
102
}
330
2A
100
AcDbVisualStyle
  2
Linepattern
 70
    14
177
     2
291
     1
 71
     2
176
     1
 72
     2
176
     1
 73
     0
176
     1
 90
        0
176
     1
 40
-0.6
176
     1
 41
-30.0
176
     1
 62
     5
 63
     7
421
 16777215
176
     1
 74
     1
176
     1
 91
        4
176
     1
 64
     7
176
     1
 65
   257
176
     1
 75
     7
176
     1
175
     7
176
     1
 42
1.0
176
     1
 92
        8
176
     1
 66
     7
176
     1
 43
1.0
176
     1
 76
     1
176
     1
 77
     6
176
     1
 78
     2
176
     1
 67
     7
176
     1
 79
     5
176
     1
170
     0
176
     1
171
     0
176
     1
290
     0
176
     1
 93
        1
176
     1
 44
0.0
176
     1
173
     0
176
     1
  0
VISUALSTYLE
  5
33
102
{ACAD_REACTORS
330
2A
102
}
330
2A
100
AcDbVisualStyle
  2
Realistic
 70
     8
177
     2
291
     0
 71
     2
176
     1
 72
     2
176
     1
 73
     0
176
     1
 90
        0
176
     1
 40
-0.6
176
     1
 41
-30.0
176
     1
 62
     5
 63
     7
421
 16777215
176
     1
 74
     1
176
     1
 91
        0
176
     1
 64
     7
176
     1
 65
   257
176
     1
 75
     1
176
     1
175
     1
176
     1
 42
1.0
176
     1
 92
        8
176
     1
 66
     8
424
  7895160
176
     1
 43
1.0
176
     1
 76
     1
176
     1
 77
     6
176
     1
 78
     2
176
     1
 67
     7
176
     1
 79
     5
176
     1
170
     0
176
     1
171
     0
176
     1
290
     0
176
     1
 93
       13
176
     1
 44
0.0
176
     1
173
     0
176
     1
  0
VISUALSTYLE
  5
37
102
{ACAD_REACTORS
330
2A
102
}
330
2A
100
AcDbVisualStyle
  2
Thicken
 70
    13
177
     2
291
     1
 71
     2
176
     1
 72
     2
176
     1
 73
     0
176
     1
 90
        0
176
     1
 40
-0.6
176
     1
 41
-30.0
176
     1
 62
     5
 63
     7
421
 16777215
176
     1
 74
     1
176
     1
 91
        4
176
     1
 64
     7
176
     1
 65
   257
176
     1
 75
     1
176
     1
175
     1
176
     1
 42
1.0
176
     1
 92
       12
176
     1
 66
     7
176
     1
 43
1.0
176
     1
 76
     1
176
     1
 77
     6
176
     1
 78
     2
176
     1
 67
     7
176
     1
 79
     5
176
     1
170
     0
176
     1
171
     0
176
     1
290
     0
176
     1
 93
        1
176
     1
 44
0.0
176
     1
173
     0
176
     1
  0
ENDSEC
  0
EOF
