  0
SECTION
  2
HEADER
  9
$ACADVER
  1
AC1009
  9
$DWGCODEPAGE
  3
ansi_1252
  9
$INSBASE
 10
0.0
 20
0.0
 30
0.0
  9
$EXTMIN
 10
-108.3746263922394
 20
-15.56510396575763
 30
0.0
  9
$EXTMAX
 10
227.9843479667275
 20
127.4861780855212
 30
0.0
  9
$LIMMIN
 10
-105.0
 20
-148.5
  9
$LIMMAX
 10
105.0
 20
148.5
  9
$ORTHOMODE
 70
     0
  9
$REGENMODE
 70
     1
  9
$FILLMODE
 70
     1
  9
$QTEXTMODE
 70
     0
  9
$MIRRTEXT
 70
     1
  9
$DRAGMODE
 70
     2
  9
$LTSCALE
 40
1.0
  9
$OSMODE
 70
    37
  9
$ATTMODE
 70
     1
  9
$TEXTSIZE
 40
2.5
  9
$TRACEWID
 40
1.0
  9
$TEXTSTYLE
  7
STANDARD
  9
$CLAYER
  8
THICK_SOLID_LAYER
  9
$CELTYPE
  6
BYLAYER
  9
$CECOLOR
 62
   256
  9
$DIMSCALE
 40
1.0
  9
$DIMASZ
 40
4.0
  9
$DIMEXO
 40
0.0
  9
$DIMDLI
 40
0.38
  9
$DIMRND
 40
0.0
  9
$DIMDLE
 40
6.0
  9
$DIMEXE
 40
2.0
  9
$DIMTP
 40
0.0
  9
$DIMTM
 40
0.0
  9
$DIMTXT
 40
3.5
  9
$DIMCEN
 40
0.0
  9
$DIMTSZ
 40
0.0
  9
$DIMTOL
 70
     0
  9
$DIMLIM
 70
     0
  9
$DIMTIH
 70
     0
  9
$DIMTOH
 70
     0
  9
$DIMSE1
 70
     0
  9
$DIMSE2
 70
     0
  9
$DIMTAD
 70
     1
  9
$DIMZIN
 70
     8
  9
$DIMBLK
  1
CAXARROW
  9
$DIMASO
 70
     1
  9
$DIMSHO
 70
     1
  9
$DIMPOST
  1

  9
$DIMAPOST
  1

  9
$DIMALT
 70
     0
  9
$DIMALTD
 70
     2
  9
$DIMALTF
 40
1.0
  9
$DIMLFAC
 40
1.0
  9
$DIMTOFL
 70
     1
  9
$DIMTVP
 40
0.0
  9
$DIMTIX
 70
     0
  9
$DIMSOXD
 70
     0
  9
$DIMSAH
 70
     0
  9
$DIMBLK1
  1

  9
$DIMBLK2
  1

  9
$DIMSTYLE
  2
STANDARD
  9
$DIMCLRD
 70
     0
  9
$DIMCLRE
 70
     0
  9
$DIMCLRT
 70
     0
  9
$DIMTFAC
 40
0.7071067811865475
  9
$DIMGAP
 40
0.625
  9
$LUNITS
 70
     2
  9
$LUPREC
 70
     4
  9
$SKETCHINC
 40
1.0
  9
$FILLETRAD
 40
10.0
  9
$AUNITS
 70
     0
  9
$AUPREC
 70
     0
  9
$MENU
  1
.
  9
$ELEVATION
 40
0.0
  9
$PELEVATION
 40
0.0
  9
$THICKNESS
 40
0.0
  9
$LIMCHECK
 70
     0
  9
$CHAMFERA
 40
0.0
  9
$CHAMFERB
 40
0.0
  9
$SKPOLY
 70
     0
  9
$TDCREATE
 40
2458563.754275104
  9
$TDUPDATE
 40
2458563.754278542
  9
$TDINDWG
 40
0.0000000116
  9
$TDUSRTIMER
 40
0.0000000116
  9
$USRTIMER
 70
     1
  9
$ANGBASE
 50
0.0
  9
$ANGDIR
 70
     0
  9
$PDMODE
 70
     0
  9
$PDSIZE
 40
-5.0
  9
$PLINEWID
 40
0.0
  9
$COORDS
 70
     1
  9
$SPLFRAME
 70
     0
  9
$SPLINETYPE
 70
     6
  9
$SPLINESEGS
 70
     8
  9
$ATTDIA
 70
     0
  9
$ATTREQ
 70
     1
  9
$HANDLING
 70
     1
  9
$HANDSEED
  5
253
  9
$SURFTAB1
 70
     6
  9
$SURFTAB2
 70
     6
  9
$SURFTYPE
 70
     6
  9
$SURFU
 70
     6
  9
$SURFV
 70
     6
  9
$UCSNAME
  2

  9
$UCSORG
 10
0.0
 20
0.0
 30
0.0
  9
$UCSXDIR
 10
1.0
 20
0.0
 30
0.0
  9
$UCSYDIR
 10
0.0
 20
1.0
 30
0.0
  9
$PUCSNAME
  2

  9
$PUCSORG
 10
0.0
 20
0.0
 30
0.0
  9
$PUCSXDIR
 10
1.0
 20
0.0
 30
0.0
  9
$PUCSYDIR
 10
0.0
 20
1.0
 30
0.0
  9
$USERI1
 70
     0
  9
$USERI2
 70
     0
  9
$USERI3
 70
     0
  9
$USERI4
 70
     0
  9
$USERI5
 70
     0
  9
$USERR1
 40
0.0
  9
$USERR2
 40
0.0
  9
$USERR3
 40
0.0
  9
$USERR4
 40
0.0
  9
$USERR5
 40
0.0
  9
$WORLDVIEW
 70
     1
  9
$SHADEDGE
 70
     3
  9
$SHADEDIF
 70
    70
  9
$TILEMODE
 70
     1
  9
$MAXACTVP
 70
    64
  9
$PLIMCHECK
 70
     0
  9
$PEXTMIN
 10
1.000000000000000E+20
 20
1.000000000000000E+20
 30
1.000000000000000E+20
  9
$PEXTMAX
 10
-1.000000000000000E+20
 20
-1.000000000000000E+20
 30
-1.000000000000000E+20
  9
$PLIMMIN
 10
0.0
 20
0.0
  9
$PLIMMAX
 10
420.0
 20
297.0
  9
$UNITMODE
 70
     0
  9
$VISRETAIN
 70
     1
  9
$PLINEGEN
 70
     0
  9
$PSLTSCALE
 70
     1
  0
ENDSEC
  0
SECTION
  2
TABLES
  0
TABLE
  2
VPORT
 70
     1
  0
VPORT
  2
*ACTIVE
 70
     0
 10
0.0
 20
0.0
 11
1.0
 21
1.0
 12
59.80486078724401
 22
55.9605370598818
 13
0.0
 23
0.0
 14
10.0
 24
10.0
 15
10.0
 25
10.0
 16
0.0
 26
0.0
 36
1.0
 17
0.0
 27
0.0
 37
0.0
 40
143.0512820512789
 41
2.351317440401506
 42
50.0
 43
0.0
 44
0.0
 50
0.0
 51
0.0
 71
     0
 72
   100
 73
     1
 74
     3
 75
     0
 76
     0
 77
     0
 78
     0
  0
ENDTAB
  0
TABLE
  2
LTYPE
 70
     4
  0
LTYPE
  2
CONTINUOUS
 70
     0
  3
Solid line
 72
    65
 73
     0
 40
0.0
  0
LTYPE
  2
DASH
 70
     0
  3
Dash: __ __ __ __ __ __ __ __ __ __ __ __ __
 72
    65
 73
     2
 40
2.0
 49
1.0
 49
-1.0
  0
LTYPE
  2
DASH_DOT
 70
     0
  3
Dash Dot: ____ . ____ . ____ . ____ . ____ . ____
 72
    65
 73
     4
 40
18.0
 49
12.0
 49
-2.0
 49
2.0
 49
-2.0
  0
LTYPE
  2
DASH_DOUBLE-DOT
 70
     0
  3
Dash Double-dot: ____ . . ____ . . ____ . . ____ . . ____ 
 72
    65
 73
     6
 40
22.0
 49
12.0
 49
-2.0
 49
2.0
 49
-2.0
 49
2.0
 49
-2.0
  0
ENDTAB
  0
TABLE
  2
LAYER
 70
     8
  0
LAYER
  2
0
 70
     0
 62
     7
  6
CONTINUOUS
  0
LAYER
  2
CENTERLINE_LAYER
 70
     0
 62
     1
  6
DASH_DOT
  0
LAYER
  2
DASH_LAYER
 70
     0
 62
     6
  6
DASH
  0
LAYER
  2
SOLID_LAYER
 70
     0
 62
     7
  6
CONTINUOUS
  0
LAYER
  2
THICK_SOLID_LAYER
 70
     0
 62
     7
  6
CONTINUOUS
  0
LAYER
  2
DIMENSION_LAYER
 70
     0
 62
     3
  6
CONTINUOUS
  0
LAYER
  2
HATCH_LAYER
 70
     0
 62
     4
  6
CONTINUOUS
  0
LAYER
  2
HIDDEN_LAYER
 70
     0
 62
    -7
  6
CONTINUOUS
  0
ENDTAB
  0
TABLE
  2
STYLE
 70
     1
  0
STYLE
  2
STANDARD
 70
     0
 40
0.0
 41
0.667
 50
0.0
 71
     0
 42
0.0
  3
txt
  4

  0
ENDTAB
  0
TABLE
  2
VIEW
 70
     0
  0
ENDTAB
  0
TABLE
  2
UCS
 70
     0
  0
ENDTAB
  0
TABLE
  2
APPID
 70
    79
  0
APPID
  2
ACAD
 70
     0
  0
APPID
  2
CAXA_DRAFT_PAPERORDER
 70
     0
  0
APPID
  2
CAXA_DRAFT_ROUGH
 70
     0
  0
APPID
  2
CAXA_DRAFT_ROUGH_STD
 70
     0
  0
APPID
  2
CAXA_DRAFT_DATUM
 70
     0
  0
APPID
  2
CAXA_DRAFT_WELD
 70
     0
  0
APPID
  2
CAXA_DRAFT_GEOTOL
 70
     0
  0
APPID
  2
CAXA_DRAFT_CUTS
 70
     0
  0
APPID
  2
CAXA_DRAFT_DIMHALF
 70
     0
  0
APPID
  2
CAXA_DRAFT_DIMRAY
 70
     0
  0
APPID
  2
CAXA_DRAFT_DIMARCLEN
 70
     0
  0
APPID
  2
CAXA_DRAFT_DIMTAPER
 70
     0
  0
APPID
  2
CAXA_DRAFT_DIMPITCH
 70
     0
  0
APPID
  2
CAXA_DRAFT_DIMCOORD
 70
     0
  0
APPID
  2
CAXA_DRAFT_DIMORIALIGN
 70
     0
  0
APPID
  2
CAXA_DRAFT_DIMHOLEPOS
 70
     0
  0
APPID
  2
CAXA_DRAFT_DIMCRDLEADER
 70
     0
  0
APPID
  2
CAXA_DRAFT_DIMCHAMFER
 70
     0
  0
APPID
  2
CAXA_DRAFT_DIMCENTERHOLE
 70
     0
  0
APPID
  2
CAXA_DRAFT_DIMLEADER
 70
     0
  0
APPID
  2
CAXA_DRAFT_DIMCRDLIST
 70
     0
  0
APPID
  2
CAXA_DRAFT_PAPERSCALE
 70
     0
  0
APPID
  2
CAXA_DRAFT_FILEVERSION
 70
     0
  0
APPID
  2
CAXA_DRAFT_PRODUCTVERSION
 70
     0
  0
APPID
  2
CAXA_DRAFT_DATATABLE
 70
     0
  0
APPID
  2
CAXA_DRAFT_PAPERINFO
 70
     0
  0
APPID
  2
CAXA_DRAFT_PAPERFRAME
 70
     0
  0
APPID
  2
CAXA_DRAFT_PAPERTITLE
 70
     0
  0
APPID
  2
CAXA_DRAFT_PAPERPAREATABLE
 70
     0
  0
APPID
  2
CAXA_DRAFT_PARTNO
 70
     0
  0
APPID
  2
CAXA_DRAFT_BOMTABLE
 70
     0
  0
APPID
  2
CAXA_DRAFT_BLKREF_EXTATT
 70
     0
  0
APPID
  2
CAXA_DRAFT_DBVIEWDATA
 70
     0
  0
APPID
  2
CAXA_DRAFT_DIMSYMTOL
 70
     0
  0
APPID
  2
CAXA_DRAFT_DIMASSEMTOL
 70
     0
  0
APPID
  2
CAXA_DRAFT_DIMANGLETOL
 70
     0
  0
APPID
  2
CAXA_DRAFT_DRAFTDATA
 70
     0
  0
APPID
  2
CAXA_DRAFT_DIMORIGIN
 70
     0
  0
APPID
  2
CAXA_DRAFT_ENLARGE_EDGE
 70
     0
  0
APPID
  2
CAXA_DRAFT_DIMSTY_T_VPOS
 70
     0
  0
APPID
  2
CAXA_DRAFT_DIMSTY_AT_VPOS
 70
     0
  0
APPID
  2
CAXA_DRAFT_BLKHIDE
 70
     0
  0
APPID
  2
CAXA_DRAFT_DIMARROWREVERSE
 70
     0
  0
APPID
  2
CAXA_DRAFT_TXTSTYLE
 70
     0
  0
APPID
  2
CAXA_DRAFT_ATTRIBUTE_2PT
 70
     0
  0
APPID
  2
CAXA_DRAFT_ATTDEF_2PT
 70
     0
  0
APPID
  2
CAXA_DRAFT_DIMBIGARC
 70
     0
  0
APPID
  2
CAXA_DRAFT_ISNEB09R3
 70
     0
  0
APPID
  2
CAXA_DRAFT_WIPEOUT_B_HIDE
 70
     0
  0
APPID
  2
CAXA_DRAFT_BLKREF_SYMBOL
 70
     0
  0
APPID
  2
CAXA_DRAFT_ENL_COMMENTS
 70
     0
  0
APPID
  2
CAXA_DRAFT_ENL_TSCALE
 70
     0
  0
APPID
  2
CAXA_DRAFT_TXTSCALE
 70
     0
  0
APPID
  2
CAXA_DRAFT_KEEPLTSEG_ZOOM
 70
     0
  0
APPID
  2
CAXA_DRAFT_SPECLIB
 70
     0
  0
APPID
  2
CAXA_DRAFT_DATUM_2011R2
 70
     0
  0
APPID
  2
CAXA_DRAFT_ROUGH_2011R2
 70
     0
  0
APPID
  2
CAXA_DRAFT_GEOTOL_2011R2
 70
     0
  0
APPID
  2
CAXA_DRAFT_DMOVMAP_2011R3
 70
     0
  0
APPID
  2
CAXA_DRAFT_DDTSTY_2011R3
 70
     0
  0
APPID
  2
CAXA_DRAFT_SDTSTY_2011R3
 70
     0
  0
APPID
  2
CDRAFT_TXTROT_2011R3
 70
     0
  0
APPID
  2
CDRAFT_TOLOUT_2011R3
 70
     0
  0
APPID
  2
CAXA_DRAFT_DIMARCLENSTYLE
 70
     0
  0
APPID
  2
CAXA_DRAFT_DMOVMAP_2013
 70
     0
  0
APPID
  2
CAXA_DRAFT_DS_DLLNTYPE
 70
     0
  0
APPID
  2
CAXA_DRAFT_DS_LBLLNTYPE
 70
     0
  0
APPID
  2
CAXA_DRAFT_DS_RBLLNTYPE
 70
     0
  0
APPID
  2
CAXA_DRAFT_DS_ISFILLDFM
 70
     0
  0
APPID
  2
CAXA_DRAFT_DS_DISPZTOOL
 70
     0
  0
APPID
  2
CAXA_DRAFT_DS_SYMCOLOR
 70
     0
  0
APPID
  2
CAXA_DRAFT_HATCH_SCALE_ANG
 70
     0
  0
APPID
  2
CAXA_DRAFT_GEOTOL_ISFROMDW
 70
     0
  0
APPID
  2
CXDRAGDIADIMLNSTYLE
 70
     0
  0
APPID
  2
CXDRAGRADDIMLNSTYLE
 70
     0
  0
APPID
  2
CX_DBANNOTATE_SIMDIMORITXT
 70
     0
  0
APPID
  2
CX_DBANNOTATE_TXTLOCPARA
 70
     0
  0
APPID
  2
CX_DBANNOTATE_DRAGTXTLOC
 70
     0
  0
APPID
  2
ACAECLAYERSTANDARD
 70
     0
  0
ENDTAB
  0
TABLE
  2
DIMSTYLE
 70
     2
  0
DIMSTYLE
  2
STANDARD
 70
     0
  3

  4

  5
CAXARROW
  6

  7

 40
1.0
 41
4.0
 42
0.0
 43
0.38
 44
2.0
 45
0.0
 46
6.0
 47
0.0
 48
0.0
140
3.5
141
0.0
142
0.0
143
1.0
144
1.0
145
0.0
146
0.7071067811865475
147
0.625
 71
     0
 72
     0
 73
     0
 74
     0
 75
     0
 76
     0
 77
     1
 78
     8
170
     0
171
     2
172
     1
173
     0
174
     0
175
     0
176
     0
177
     0
178
     0
  0
ENDTAB
  0
ENDSEC
  0
SECTION
  2
BLOCKS
  0
BLOCK
  8
0
  2
$MODEL_SPACE
 70
     0
 10
0.0
 20
0.0
 30
0.0
  3
$MODEL_SPACE
  1

  0
ENDBLK
  5
21
  8
0
  0
BLOCK
 67
     1
  8
0
  2
$PAPER_SPACE
 70
     0
 10
0.0
 20
0.0
 30
0.0
  3
$PAPER_SPACE
  1

  0
ENDBLK
  5
1D
 67
     1
  8
0
  0
BLOCK
  8
0
  2
_CAXARROW
 70
     0
 10
0.0
 20
0.0
 30
0.0
  3
_CAXARROW
  1

  0
INSERT
  5
C6
  8
0
 62
     0
  2
*U2
 10
0.0
 20
0.0
 30
0.0
1001
ACAD
1002
{
1000
R14_HATCH_DATA
1000
C6
1011
1.0
1021
0.0
1031
0.0
1021
0.0
1031
0.0
1011
0.0
1021
1.0
1031
0.0
1021
1.0
1031
0.0
1011
0.0
1021
0.0
1031
1.0
1021
0.0
1031
1.0
1040
0.0
1010
0.0
1020
0.0
1030
1.0
1020
0.0
1030
1.0
1000
SOLID
1070
     1
1070
     1
1071
        1
1071
        0
1071
        3
1070
     1
1040
0.0
1040
0.0
1040
-1.0
1040
0.125
1070
     1
1040
-1.0
1040
0.125
1040
-1.0
1040
-0.125
1070
     1
1040
-1.0
1040
-0.125
1040
0.0
1040
0.0
1071
        0
1070
     0
1070
     1
1071
        1
1040
0.0
1040
0.0
1040
0.0
1002
}
  0
ENDBLK
  5
C8
  8
0
  0
BLOCK
  8
0
  2
*U2
 70
     1
 10
0.0
 20
0.0
 30
0.0
  3
*U2
  1

  0
SOLID
  5
24E
  8
0
 62
     0
 10
-1.0
 20
-0.125
 30
0.0
 11
-1.0
 21
0.125
 31
0.0
 12
0.0
 22
0.0
 32
0.0
 13
0.0
 23
0.0
 33
0.0
  0
ENDBLK
  5
250
  8
0
  0
ENDSEC
  0
SECTION
  2
ENTITIES
  0
CIRCLE
  5
EF
  8
0
 10
74.49999999999999
 20
31.49999999999999
 30
0.0
 40
1.600000000000004
  0
CIRCLE
  5
F0
  8
0
 10
32.49999999999999
 20
71.49999999999999
 30
0.0
 40
1.600000000000004
  0
CIRCLE
  5
F1
  8
0
 10
32.49999999999999
 20
91.49999999999997
 30
0.0
 40
1.600000000000004
  0
CIRCLE
  5
F2
  8
0
 10
11.49999999999999
 20
91.49999999999997
 30
0.0
 40
1.599999999999999
  0
CIRCLE
  5
F3
  8
0
 10
11.5
 20
31.5
 30
0.0
 40
1.599999999999999
  0
CIRCLE
  5
F4
  8
0
 10
11.49999999999999
 20
71.49999999999999
 30
0.0
 40
1.599999999999999
  0
CIRCLE
  5
F5
  8
0
 10
32.50000000000001
 20
51.49999999999999
 30
0.0
 40
1.599999999999998
  0
CIRCLE
  5
F6
  8
0
 10
53.49999999999999
 20
71.49999999999999
 30
0.0
 40
1.599999999999998
  0
CIRCLE
  5
F7
  8
0
 10
79.99999999999999
 20
31.49999999999999
 30
0.0
 40
0.9000000000000125
  0
CIRCLE
  5
F8
  8
0
 10
79.99999999999999
 20
51.49999999999999
 30
0.0
 40
0.9000000000000125
  0
CIRCLE
  5
F9
  8
0
 10
37.99999999999999
 20
31.49999999999999
 30
0.0
 40
0.9000000000000125
  0
CIRCLE
  5
FA
  8
0
 10
79.99999999999999
 20
91.49999999999997
 30
0.0
 40
0.9000000000000125
  0
CIRCLE
  5
FB
  8
0
 10
26.99999999999999
 20
91.49999999999997
 30
0.0
 40
0.9000000000000085
  0
CIRCLE
  5
FC
  8
0
 10
47.99999999999999
 20
91.49999999999997
 30
0.0
 40
0.9000000000000055
  0
CIRCLE
  5
FD
  8
0
 10
16.99999999999998
 20
31.49999999999999
 30
0.0
 40
0.9000000000000055
  0
CIRCLE
  5
FE
  8
0
 10
58.99999999999999
 20
71.49999999999999
 30
0.0
 40
0.9000000000000055
  0
CIRCLE
  5
FF
  8
0
 10
16.99999999999998
 20
51.5
 30
0.0
 40
0.9000000000000055
  0
CIRCLE
  5
100
  8
0
 10
5.999999999999979
 20
91.49999999999997
 30
0.0
 40
0.900000000000001
  0
CIRCLE
  5
101
  8
0
 10
5.999999999999993
 20
31.5
 30
0.0
 40
0.9
  0
CIRCLE
  5
102
  8
0
 10
5.999999999999993
 20
51.5
 30
0.0
 40
0.8999999999999997
  0
CIRCLE
  5
103
  8
0
 10
47.99999999999999
 20
71.49999999999999
 30
0.0
 40
0.8999999999999976
  0
CIRCLE
  5
104
  8
0
 10
68.99999999999999
 20
71.49999999999999
 30
0.0
 40
0.8999999999999976
  0
CIRCLE
  5
105
  8
0
 10
68.99999999999999
 20
51.49999999999999
 30
0.0
 40
0.8999999999999976
  0
CIRCLE
  5
106
  8
0
 10
68.99999999999999
 20
91.49999999999997
 30
0.0
 40
0.8999999999999976
  0
LINE
  5
107
  8
0
 10
69.89999999999999
 20
27.875
 30
0.0
 11
69.89999999999999
 21
27.52499999999999
 31
0.0
  0
LINE
  5
108
  8
0
 10
69.09999999999998
 20
27.875
 30
0.0
 11
69.89999999999999
 21
27.875
 31
0.0
  0
LINE
  5
109
  8
0
 10
69.09999999999998
 20
27.52499999999999
 30
0.0
 11
69.09999999999998
 21
27.875
 31
0.0
  0
LINE
  5
10A
  8
0
 10
69.89999999999999
 20
27.52499999999999
 30
0.0
 11
69.09999999999998
 21
27.52499999999999
 31
0.0
  0
LINE
  5
10B
  8
0
 10
27.89999999999999
 20
27.875
 30
0.0
 11
27.89999999999999
 21
27.52499999999999
 31
0.0
  0
LINE
  5
10C
  8
0
 10
27.10000000000001
 20
27.875
 30
0.0
 11
27.89999999999999
 21
27.875
 31
0.0
  0
LINE
  5
10D
  8
0
 10
27.09999999999998
 20
27.52499999999999
 30
0.0
 11
27.10000000000001
 21
27.875
 31
0.0
  0
LINE
  5
10E
  8
0
 10
27.89999999999999
 20
27.52499999999999
 30
0.0
 11
27.09999999999998
 21
27.52499999999999
 31
0.0
  0
LINE
  5
10F
  8
0
 10
48.89999999999999
 20
67.875
 30
0.0
 11
48.89999999999999
 21
67.52499999999999
 31
0.0
  0
LINE
  5
110
  8
0
 10
48.09999999999998
 20
67.875
 30
0.0
 11
48.89999999999999
 21
67.875
 31
0.0
  0
LINE
  5
111
  8
0
 10
48.09999999999998
 20
67.52499999999999
 30
0.0
 11
48.09999999999998
 21
67.875
 31
0.0
  0
LINE
  5
112
  8
0
 10
48.89999999999999
 20
67.52499999999999
 30
0.0
 11
48.09999999999998
 21
67.52499999999999
 31
0.0
  0
LINE
  5
113
  8
0
 10
69.89999999999999
 20
87.87499999999999
 30
0.0
 11
69.89999999999999
 21
87.52499999999998
 31
0.0
  0
LINE
  5
114
  8
0
 10
69.09999999999998
 20
87.87499999999999
 30
0.0
 11
69.89999999999999
 21
87.87499999999999
 31
0.0
  0
LINE
  5
115
  8
0
 10
69.09999999999998
 20
87.52499999999998
 30
0.0
 11
69.09999999999998
 21
87.87499999999999
 31
0.0
  0
LINE
  5
116
  8
0
 10
69.89999999999999
 20
87.52499999999998
 30
0.0
 11
69.09999999999998
 21
87.52499999999998
 31
0.0
  0
LINE
  5
117
  8
0
 10
6.899999999999991
 20
87.87499999999999
 30
0.0
 11
6.899999999999991
 21
87.52499999999999
 31
0.0
  0
LINE
  5
118
  8
0
 10
6.099999999999987
 20
87.87499999999999
 30
0.0
 11
6.899999999999991
 21
87.87499999999999
 31
0.0
  0
LINE
  5
119
  8
0
 10
6.099999999999987
 20
87.52499999999999
 30
0.0
 11
6.099999999999987
 21
87.87499999999999
 31
0.0
  0
LINE
  5
11A
  8
0
 10
6.899999999999991
 20
87.52499999999999
 30
0.0
 11
6.099999999999987
 21
87.52499999999999
 31
0.0
  0
LINE
  5
11B
  8
0
 10
27.89999999999999
 20
67.875
 30
0.0
 11
27.89999999999999
 21
67.52499999999999
 31
0.0
  0
LINE
  5
11C
  8
0
 10
27.09999999999998
 20
67.875
 30
0.0
 11
27.89999999999999
 21
67.875
 31
0.0
  0
LINE
  5
11D
  8
0
 10
27.09999999999998
 20
67.52499999999999
 30
0.0
 11
27.09999999999998
 21
67.875
 31
0.0
  0
LINE
  5
11E
  8
0
 10
27.89999999999999
 20
67.52499999999999
 30
0.0
 11
27.09999999999998
 21
67.52499999999999
 31
0.0
  0
LINE
  5
11F
  8
0
 10
69.89999999999999
 20
47.87499999999999
 30
0.0
 11
69.89999999999999
 21
47.52499999999999
 31
0.0
  0
LINE
  5
120
  8
0
 10
69.09999999999998
 20
47.87499999999999
 30
0.0
 11
69.89999999999999
 21
47.87499999999999
 31
0.0
  0
LINE
  5
121
  8
0
 10
69.09999999999998
 20
47.52499999999999
 30
0.0
 11
69.09999999999998
 21
47.87499999999999
 31
0.0
  0
LINE
  5
122
  8
0
 10
69.89999999999999
 20
47.52499999999999
 30
0.0
 11
69.09999999999998
 21
47.52499999999999
 31
0.0
  0
LINE
  5
123
  8
0
 10
48.89999999999999
 20
87.87499999999999
 30
0.0
 11
48.89999999999999
 21
87.52499999999998
 31
0.0
  0
LINE
  5
124
  8
0
 10
48.09999999999998
 20
87.87499999999999
 30
0.0
 11
48.89999999999999
 21
87.87499999999999
 31
0.0
  0
LINE
  5
125
  8
0
 10
48.09999999999998
 20
87.52499999999998
 30
0.0
 11
48.09999999999998
 21
87.87499999999999
 31
0.0
  0
LINE
  5
126
  8
0
 10
48.89999999999999
 20
87.52499999999998
 30
0.0
 11
48.09999999999998
 21
87.52499999999998
 31
0.0
  0
LINE
  5
127
  8
0
 10
11.95
 20
85.74999999999999
 30
0.0
 11
11.95
 21
85.44999999999997
 31
0.0
  0
LINE
  5
128
  8
0
 10
11.04999999999999
 20
85.74999999999999
 30
0.0
 11
11.95
 21
85.74999999999999
 31
0.0
  0
LINE
  5
129
  8
0
 10
11.04999999999999
 20
85.44999999999997
 30
0.0
 11
11.04999999999999
 21
85.74999999999999
 31
0.0
  0
LINE
  5
12A
  8
0
 10
11.95
 20
85.44999999999997
 30
0.0
 11
11.04999999999999
 21
85.44999999999997
 31
0.0
  0
LINE
  5
12B
  8
0
 10
74.94999999999997
 20
85.74999999999999
 30
0.0
 11
74.94999999999997
 21
85.44999999999997
 31
0.0
  0
LINE
  5
12C
  8
0
 10
74.05
 20
85.74999999999999
 30
0.0
 11
74.94999999999997
 21
85.74999999999999
 31
0.0
  0
LINE
  5
12D
  8
0
 10
74.05
 20
85.44999999999997
 30
0.0
 11
74.05
 21
85.74999999999999
 31
0.0
  0
LINE
  5
12E
  8
0
 10
74.94999999999997
 20
85.44999999999997
 30
0.0
 11
74.05
 21
85.44999999999997
 31
0.0
  0
LINE
  5
12F
  8
0
 10
11.95
 20
45.74999999999999
 30
0.0
 11
11.95
 21
45.44999999999999
 31
0.0
  0
LINE
  5
130
  8
0
 10
11.04999999999999
 20
45.74999999999999
 30
0.0
 11
11.95
 21
45.74999999999999
 31
0.0
  0
LINE
  5
131
  8
0
 10
11.04999999999999
 20
45.44999999999999
 30
0.0
 11
11.04999999999999
 21
45.74999999999999
 31
0.0
  0
LINE
  5
132
  8
0
 10
11.95
 20
45.44999999999999
 30
0.0
 11
11.04999999999999
 21
45.44999999999999
 31
0.0
  0
LINE
  5
133
  8
0
 10
11.95
 20
25.74999999999999
 30
0.0
 11
11.95
 21
25.44999999999999
 31
0.0
  0
LINE
  5
134
  8
0
 10
11.05
 20
25.74999999999999
 30
0.0
 11
11.95
 21
25.74999999999999
 31
0.0
  0
LINE
  5
135
  8
0
 10
11.05
 20
25.44999999999999
 30
0.0
 11
11.05
 21
25.74999999999999
 31
0.0
  0
LINE
  5
136
  8
0
 10
11.95
 20
25.44999999999999
 30
0.0
 11
11.05
 21
25.44999999999999
 31
0.0
  0
LINE
  5
137
  8
0
 10
32.95
 20
25.74999999999999
 30
0.0
 11
32.95
 21
25.44999999999999
 31
0.0
  0
LINE
  5
138
  8
0
 10
32.05
 20
25.74999999999999
 30
0.0
 11
32.95
 21
25.74999999999999
 31
0.0
  0
LINE
  5
139
  8
0
 10
32.05
 20
25.44999999999999
 30
0.0
 11
32.05
 21
25.74999999999999
 31
0.0
  0
LINE
  5
13A
  8
0
 10
32.95
 20
25.44999999999999
 30
0.0
 11
32.05
 21
25.44999999999999
 31
0.0
  0
LINE
  5
13B
  8
0
 10
53.94999999999997
 20
45.74999999999999
 30
0.0
 11
53.94999999999997
 21
45.44999999999999
 31
0.0
  0
LINE
  5
13C
  8
0
 10
53.04999999999997
 20
45.74999999999999
 30
0.0
 11
53.94999999999997
 21
45.74999999999999
 31
0.0
  0
LINE
  5
13D
  8
0
 10
53.04999999999997
 20
45.44999999999999
 30
0.0
 11
53.04999999999997
 21
45.74999999999999
 31
0.0
  0
LINE
  5
13E
  8
0
 10
53.94999999999997
 20
45.44999999999999
 30
0.0
 11
53.04999999999997
 21
45.44999999999999
 31
0.0
  0
LINE
  5
13F
  8
0
 10
53.94999999999997
 20
65.75
 30
0.0
 11
53.94999999999997
 21
65.44999999999999
 31
0.0
  0
LINE
  5
140
  8
0
 10
53.04999999999997
 20
65.75
 30
0.0
 11
53.94999999999997
 21
65.75
 31
0.0
  0
LINE
  5
141
  8
0
 10
53.04999999999997
 20
65.44999999999999
 30
0.0
 11
53.04999999999997
 21
65.75
 31
0.0
  0
LINE
  5
142
  8
0
 10
53.94999999999997
 20
65.44999999999999
 30
0.0
 11
53.04999999999997
 21
65.44999999999999
 31
0.0
  0
LINE
  5
143
  8
0
 10
74.94999999999997
 20
25.74999999999999
 30
0.0
 11
74.94999999999997
 21
25.44999999999999
 31
0.0
  0
LINE
  5
144
  8
0
 10
74.04999999999997
 20
25.74999999999999
 30
0.0
 11
74.94999999999997
 21
25.74999999999999
 31
0.0
  0
LINE
  5
145
  8
0
 10
74.04999999999997
 20
25.44999999999999
 30
0.0
 11
74.04999999999997
 21
25.74999999999999
 31
0.0
  0
LINE
  5
146
  8
0
 10
74.94999999999997
 20
25.44999999999999
 30
0.0
 11
74.04999999999997
 21
25.44999999999999
 31
0.0
  0
CIRCLE
  5
147
  8
0
 10
75.5399999999979
 20
83.87999999999826
 30
0.0
 40
0.2500000000021276
  0
CIRCLE
  5
148
  8
0
 10
65.37999999999748
 20
83.87999999999727
 30
0.0
 40
0.2500000000025466
  0
CIRCLE
  5
149
  8
0
 10
67.91999999999761
 20
99.11999999999827
 30
0.0
 40
0.2500000000024051
  0
CIRCLE
  5
14A
  8
0
 10
62.8399999999997
 20
99.12000000000056
 30
0.0
 40
0.2500000000003175
  0
CIRCLE
  5
14B
  8
0
 10
55.22000000000183
 20
83.8800000000023
 30
0.0
 40
0.2499999999981756
  0
CIRCLE
  5
14C
  8
0
 10
70.46
 20
83.87999999999911
 30
0.0
 40
0.2500000000000159
  0
CIRCLE
  5
14D
  8
0
 10
80.62000000000101
 20
83.88000000000007
 30
0.0
 40
0.2499999999990141
  0
CIRCLE
  5
14E
  8
0
 10
57.75999999999608
 20
99.11999999999558
 30
0.0
 40
0.250000000003925
  0
CIRCLE
  5
14F
  8
0
 10
52.67999999999979
 20
99.12000000000138
 30
0.0
 40
0.250000000000232
  0
CIRCLE
  5
150
  8
0
 10
80.6200000000001
 20
99.11999999999935
 30
0.0
 40
0.249999999999918
  0
CIRCLE
  5
151
  8
0
 10
75.53999999999847
 20
99.11999999999895
 30
0.0
 40
0.250000000001543
  0
CIRCLE
  5
152
  8
0
 10
62.84000000000084
 20
83.88000000000154
 30
0.0
 40
0.2499999999991074
  0
LINE
  5
153
  8
0
 10
85.99999999999999
 20
24.99999999999999
 30
0.0
 11
85.99999999999999
 21
102.0
 31
0.0
  0
ARC
  5
154
  8
0
 10
81.00000000000001
 20
24.99999999999999
 30
0.0
 40
5.0
 50
270.0
 51
0.0000000000001221
  0
LINE
  5
155
  8
0
 10
0.9999999999994174
 20
19.99999999999999
 30
0.0
 11
81.00000000000001
 21
19.99999999999999
 31
0.0
  0
CIRCLE
  5
156
  8
0
 10
52.67999999999769
 20
83.87999999999732
 30
0.0
 40
0.2500000000022897
  0
CIRCLE
  5
157
  8
0
 10
72.99999999999595
 20
83.87999999999678
 30
0.0
 40
0.2500000000040328
  0
CIRCLE
  5
158
  8
0
 10
78.07999999999977
 20
99.12000000000002
 30
0.0
 40
0.2500000000002356
  0
CIRCLE
  5
159
  8
0
 10
60.29999999999917
 20
83.8799999999998
 30
0.0
 40
0.2500000000007913
  0
CIRCLE
  5
15A
  8
0
 10
55.22000000000067
 20
99.12000000000123
 30
0.0
 40
0.2499999999993442
  0
CIRCLE
  5
15B
  8
0
 10
60.29999999999795
 20
99.11999999999817
 30
0.0
 40
0.2500000000020793
  0
CIRCLE
  5
15C
  8
0
 10
78.0799999999988
 20
83.87999999999884
 30
0.0
 40
0.25000000000121
  0
CIRCLE
  5
15D
  8
0
 10
70.45999999999778
 20
99.119999999997
 30
0.0
 40
0.250000000002242
  0
CIRCLE
  5
15E
  8
0
 10
57.75999999999759
 20
83.87999999999695
 30
0.0
 40
0.2500000000024295
  0
CIRCLE
  5
15F
  8
0
 10
65.37999999999595
 20
99.11999999999584
 30
0.0
 40
0.250000000004077
  0
CIRCLE
  5
160
  8
0
 10
72.9999999999978
 20
99.11999999999938
 30
0.0
 40
0.2500000000022357
  0
CIRCLE
  5
161
  8
0
 10
67.91999999999807
 20
83.8799999999986
 30
0.0
 40
0.2500000000019602
  0
LINE
  5
162
  8
0
 10
32.94999999999997
 20
65.75
 30
0.0
 11
32.94999999999997
 21
65.44999999999999
 31
0.0
  0
LINE
  5
163
  8
0
 10
32.05
 20
65.75
 30
0.0
 11
32.94999999999997
 21
65.75
 31
0.0
  0
LINE
  5
164
  8
0
 10
32.05
 20
65.44999999999999
 30
0.0
 11
32.05
 21
65.75
 31
0.0
  0
LINE
  5
165
  8
0
 10
32.94999999999997
 20
65.44999999999999
 30
0.0
 11
32.05
 21
65.44999999999999
 31
0.0
  0
LINE
  5
166
  8
0
 10
53.94999999999997
 20
25.74999999999999
 30
0.0
 11
53.94999999999997
 21
25.44999999999999
 31
0.0
  0
LINE
  5
167
  8
0
 10
53.04999999999997
 20
25.74999999999999
 30
0.0
 11
53.94999999999997
 21
25.74999999999999
 31
0.0
  0
LINE
  5
168
  8
0
 10
53.04999999999997
 20
25.44999999999999
 30
0.0
 11
53.04999999999997
 21
25.74999999999999
 31
0.0
  0
LINE
  5
169
  8
0
 10
53.94999999999997
 20
25.44999999999999
 30
0.0
 11
53.04999999999997
 21
25.44999999999999
 31
0.0
  0
LINE
  5
16A
  8
0
 10
74.94999999999997
 20
45.74999999999999
 30
0.0
 11
74.94999999999997
 21
45.44999999999999
 31
0.0
  0
LINE
  5
16B
  8
0
 10
74.05
 20
45.74999999999999
 30
0.0
 11
74.94999999999997
 21
45.74999999999999
 31
0.0
  0
LINE
  5
16C
  8
0
 10
74.05
 20
45.44999999999999
 30
0.0
 11
74.05
 21
45.74999999999999
 31
0.0
  0
LINE
  5
16D
  8
0
 10
74.94999999999997
 20
45.44999999999999
 30
0.0
 11
74.05
 21
45.44999999999999
 31
0.0
  0
LINE
  5
16E
  8
0
 10
74.94999999999997
 20
65.75
 30
0.0
 11
74.94999999999997
 21
65.44999999999999
 31
0.0
  0
LINE
  5
16F
  8
0
 10
74.05
 20
65.75
 30
0.0
 11
74.94999999999997
 21
65.75
 31
0.0
  0
LINE
  5
170
  8
0
 10
74.05
 20
65.44999999999999
 30
0.0
 11
74.05
 21
65.75
 31
0.0
  0
LINE
  5
171
  8
0
 10
74.94999999999997
 20
65.44999999999999
 30
0.0
 11
74.05
 21
65.44999999999999
 31
0.0
  0
LINE
  5
172
  8
0
 10
32.95
 20
45.74999999999999
 30
0.0
 11
32.95
 21
45.44999999999999
 31
0.0
  0
LINE
  5
173
  8
0
 10
32.05
 20
45.74999999999999
 30
0.0
 11
32.95
 21
45.74999999999999
 31
0.0
  0
LINE
  5
174
  8
0
 10
32.05
 20
45.44999999999999
 30
0.0
 11
32.05
 21
45.74999999999999
 31
0.0
  0
LINE
  5
175
  8
0
 10
32.95
 20
45.44999999999999
 30
0.0
 11
32.05
 21
45.44999999999999
 31
0.0
  0
LINE
  5
176
  8
0
 10
32.94999999999997
 20
85.74999999999999
 30
0.0
 11
32.94999999999997
 21
85.44999999999997
 31
0.0
  0
LINE
  5
177
  8
0
 10
32.05
 20
85.74999999999999
 30
0.0
 11
32.94999999999997
 21
85.74999999999999
 31
0.0
  0
LINE
  5
178
  8
0
 10
32.05
 20
85.44999999999997
 30
0.0
 11
32.05
 21
85.74999999999999
 31
0.0
  0
LINE
  5
179
  8
0
 10
32.94999999999997
 20
85.44999999999997
 30
0.0
 11
32.05
 21
85.44999999999997
 31
0.0
  0
LINE
  5
17A
  8
0
 10
11.95
 20
65.75
 30
0.0
 11
11.95
 21
65.44999999999999
 31
0.0
  0
LINE
  5
17B
  8
0
 10
11.04999999999999
 20
65.75
 30
0.0
 11
11.95
 21
65.75
 31
0.0
  0
LINE
  5
17C
  8
0
 10
11.04999999999999
 20
65.44999999999999
 30
0.0
 11
11.04999999999999
 21
65.75
 31
0.0
  0
LINE
  5
17D
  8
0
 10
11.95
 20
65.44999999999999
 30
0.0
 11
11.04999999999999
 21
65.44999999999999
 31
0.0
  0
LINE
  5
17E
  8
0
 10
53.94999999999997
 20
85.74999999999999
 30
0.0
 11
53.94999999999997
 21
85.44999999999997
 31
0.0
  0
LINE
  5
17F
  8
0
 10
53.05
 20
85.74999999999999
 30
0.0
 11
53.94999999999997
 21
85.74999999999999
 31
0.0
  0
LINE
  5
180
  8
0
 10
53.05
 20
85.44999999999997
 30
0.0
 11
53.05
 21
85.74999999999999
 31
0.0
  0
LINE
  5
181
  8
0
 10
53.94999999999997
 20
85.44999999999997
 30
0.0
 11
53.05
 21
85.44999999999997
 31
0.0
  0
LINE
  5
182
  8
0
 10
6.899999999999991
 20
47.87499999999999
 30
0.0
 11
6.899999999999991
 21
47.52499999999999
 31
0.0
  0
LINE
  5
183
  8
0
 10
6.099999999999994
 20
47.87499999999999
 30
0.0
 11
6.899999999999991
 21
47.87499999999999
 31
0.0
  0
LINE
  5
184
  8
0
 10
6.099999999999994
 20
47.52499999999999
 30
0.0
 11
6.099999999999994
 21
47.87499999999999
 31
0.0
  0
LINE
  5
185
  8
0
 10
6.899999999999991
 20
47.52499999999999
 30
0.0
 11
6.099999999999994
 21
47.52499999999999
 31
0.0
  0
LINE
  5
186
  8
0
 10
27.89999999999999
 20
47.87499999999999
 30
0.0
 11
27.89999999999999
 21
47.52499999999999
 31
0.0
  0
LINE
  5
187
  8
0
 10
27.10000000000001
 20
47.87499999999999
 30
0.0
 11
27.89999999999999
 21
47.87499999999999
 31
0.0
  0
LINE
  5
188
  8
0
 10
27.09999999999998
 20
47.52499999999999
 30
0.0
 11
27.10000000000001
 21
47.87499999999999
 31
0.0
  0
LINE
  5
189
  8
0
 10
27.89999999999999
 20
47.52499999999999
 30
0.0
 11
27.09999999999998
 21
47.52499999999999
 31
0.0
  0
LINE
  5
18A
  8
0
 10
48.89999999999999
 20
47.87499999999999
 30
0.0
 11
48.89999999999999
 21
47.52499999999999
 31
0.0
  0
LINE
  5
18B
  8
0
 10
48.09999999999998
 20
47.87499999999999
 30
0.0
 11
48.89999999999999
 21
47.87499999999999
 31
0.0
  0
LINE
  5
18C
  8
0
 10
48.09999999999998
 20
47.52499999999999
 30
0.0
 11
48.09999999999998
 21
47.87499999999999
 31
0.0
  0
LINE
  5
18D
  8
0
 10
48.89999999999999
 20
47.52499999999999
 30
0.0
 11
48.09999999999998
 21
47.52499999999999
 31
0.0
  0
LINE
  5
18E
  8
0
 10
27.89999999999999
 20
87.87499999999999
 30
0.0
 11
27.89999999999999
 21
87.52499999999998
 31
0.0
  0
LINE
  5
18F
  8
0
 10
27.09999999999998
 20
87.87499999999999
 30
0.0
 11
27.89999999999999
 21
87.87499999999999
 31
0.0
  0
LINE
  5
190
  8
0
 10
27.09999999999998
 20
87.52499999999998
 30
0.0
 11
27.09999999999998
 21
87.87499999999999
 31
0.0
  0
LINE
  5
191
  8
0
 10
27.89999999999999
 20
87.52499999999998
 30
0.0
 11
27.09999999999998
 21
87.52499999999998
 31
0.0
  0
LINE
  5
192
  8
0
 10
6.899999999999991
 20
67.875
 30
0.0
 11
6.899999999999991
 21
67.52499999999999
 31
0.0
  0
LINE
  5
193
  8
0
 10
6.099999999999994
 20
67.875
 30
0.0
 11
6.899999999999991
 21
67.875
 31
0.0
  0
LINE
  5
194
  8
0
 10
6.099999999999987
 20
67.52499999999999
 30
0.0
 11
6.099999999999994
 21
67.875
 31
0.0
  0
LINE
  5
195
  8
0
 10
6.899999999999991
 20
67.52499999999999
 30
0.0
 11
6.099999999999987
 21
67.52499999999999
 31
0.0
  0
LINE
  5
196
  8
0
 10
69.89999999999999
 20
67.875
 30
0.0
 11
69.89999999999999
 21
67.52499999999999
 31
0.0
  0
LINE
  5
197
  8
0
 10
69.09999999999998
 20
67.875
 30
0.0
 11
69.89999999999999
 21
67.875
 31
0.0
  0
LINE
  5
198
  8
0
 10
69.09999999999998
 20
67.52499999999999
 30
0.0
 11
69.09999999999998
 21
67.875
 31
0.0
  0
LINE
  5
199
  8
0
 10
69.89999999999999
 20
67.52499999999999
 30
0.0
 11
69.09999999999998
 21
67.52499999999999
 31
0.0
  0
LINE
  5
19A
  8
0
 10
6.899999999999999
 20
27.875
 30
0.0
 11
6.899999999999991
 21
27.52499999999999
 31
0.0
  0
LINE
  5
19B
  8
0
 10
6.099999999999994
 20
27.875
 30
0.0
 11
6.899999999999999
 21
27.875
 31
0.0
  0
LINE
  5
19C
  8
0
 10
6.099999999999994
 20
27.52499999999999
 30
0.0
 11
6.099999999999994
 21
27.875
 31
0.0
  0
LINE
  5
19D
  8
0
 10
6.899999999999991
 20
27.52499999999999
 30
0.0
 11
6.099999999999994
 21
27.52499999999999
 31
0.0
  0
LINE
  5
19E
  8
0
 10
48.89999999999999
 20
27.875
 30
0.0
 11
48.89999999999999
 21
27.52499999999999
 31
0.0
  0
LINE
  5
19F
  8
0
 10
48.09999999999998
 20
27.875
 30
0.0
 11
48.89999999999999
 21
27.875
 31
0.0
  0
LINE
  5
1A0
  8
0
 10
48.09999999999998
 20
27.52499999999999
 30
0.0
 11
48.09999999999998
 21
27.875
 31
0.0
  0
LINE
  5
1A1
  8
0
 10
48.89999999999999
 20
27.52499999999999
 30
0.0
 11
48.09999999999998
 21
27.52499999999999
 31
0.0
  0
CIRCLE
  5
1A2
  8
0
 10
26.99999999999999
 20
31.49999999999999
 30
0.0
 40
0.8999999999999976
  0
CIRCLE
  5
1A3
  8
0
 10
26.99999999999999
 20
51.5
 30
0.0
 40
0.8999999999999976
  0
CIRCLE
  5
1A4
  8
0
 10
68.99999999999996
 20
31.49999999999999
 30
0.0
 40
0.8999999999999976
  0
CIRCLE
  5
1A5
  8
0
 10
47.99999999999999
 20
51.49999999999999
 30
0.0
 40
0.8999999999999976
  0
CIRCLE
  5
1A6
  8
0
 10
47.99999999999999
 20
31.49999999999999
 30
0.0
 40
0.8999999999999976
  0
CIRCLE
  5
1A7
  8
0
 10
5.999999999999993
 20
71.49999999999999
 30
0.0
 40
0.8999999999999997
  0
CIRCLE
  5
1A8
  8
0
 10
16.99999999999998
 20
91.49999999999997
 30
0.0
 40
0.9000000000000015
  0
CIRCLE
  5
1A9
  8
0
 10
16.99999999999998
 20
71.49999999999999
 30
0.0
 40
0.9000000000000015
  0
CIRCLE
  5
1AA
  8
0
 10
58.99999999999999
 20
31.49999999999999
 30
0.0
 40
0.9000000000000055
  0
CIRCLE
  5
1AB
  8
0
 10
37.99999999999999
 20
71.49999999999999
 30
0.0
 40
0.9000000000000055
  0
CIRCLE
  5
1AC
  8
0
 10
58.99999999999999
 20
51.49999999999999
 30
0.0
 40
0.9000000000000055
  0
CIRCLE
  5
1AD
  8
0
 10
37.99999999999999
 20
91.49999999999997
 30
0.0
 40
0.9000000000000055
  0
CIRCLE
  5
1AE
  8
0
 10
26.99999999999999
 20
71.49999999999999
 30
0.0
 40
0.9000000000000085
  0
CIRCLE
  5
1AF
  8
0
 10
58.99999999999999
 20
91.49999999999997
 30
0.0
 40
0.9000000000000125
  0
CIRCLE
  5
1B0
  8
0
 10
79.99999999999999
 20
71.49999999999999
 30
0.0
 40
0.9000000000000125
  0
CIRCLE
  5
1B1
  8
0
 10
37.99999999999999
 20
51.49999999999999
 30
0.0
 40
0.9000000000000125
  0
CIRCLE
  5
1B2
  8
0
 10
32.50000000000001
 20
31.49999999999999
 30
0.0
 40
1.599999999999998
  0
CIRCLE
  5
1B3
  8
0
 10
53.49999999999999
 20
51.49999999999999
 30
0.0
 40
1.599999999999998
  0
CIRCLE
  5
1B4
  8
0
 10
53.49999999999999
 20
31.49999999999999
 30
0.0
 40
1.599999999999998
  0
CIRCLE
  5
1B5
  8
0
 10
11.49999999999999
 20
51.5
 30
0.0
 40
1.599999999999999
  0
CIRCLE
  5
1B6
  8
0
 10
53.49999999999999
 20
91.49999999999997
 30
0.0
 40
1.599999999999998
  0
CIRCLE
  5
1B7
  8
0
 10
74.49999999999999
 20
91.49999999999997
 30
0.0
 40
1.600000000000004
  0
CIRCLE
  5
1B8
  8
0
 10
74.49999999999999
 20
71.49999999999999
 30
0.0
 40
1.600000000000004
  0
CIRCLE
  5
1B9
  8
0
 10
74.49999999999999
 20
51.49999999999999
 30
0.0
 40
1.600000000000004
  0
LINE
  5
1BA
  8
THICK_SOLID_LAYER
 10
0.4999999999995097
 20
103.0
 30
0.0
 11
15.49999999999951
 21
103.0
 31
0.0
  0
LINE
  5
1BB
  8
THICK_SOLID_LAYER
 10
0.9999999999996305
 20
102.0
 30
0.0
 11
15.49999999999951
 21
102.0
 31
0.0
  0
ARC
  5
1BC
  8
THICK_SOLID_LAYER
 10
15.49999999999968
 20
102.4999999999999
 30
0.0
 40
0.5000000000000709
 50
270.0
 51
90.0
  0
LINE
  5
1BD
  8
THICK_SOLID_LAYER
 10
0.9999999999996305
 20
102.0
 30
0.0
 11
15.49999999999951
 21
102.0
 31
0.0
  0
ARC
  5
1BE
  8
THICK_SOLID_LAYER
 10
15.49999999999968
 20
102.4999999999999
 30
0.0
 40
0.5000000000000709
 50
270.0
 51
90.0
  0
LINE
  5
1BF
  8
THICK_SOLID_LAYER
 10
-0.0000000000003695
 20
103.0
 30
0.0
 11
15.49999999999951
 21
103.0
 31
0.0
  0
LINE
  5
1C0
  8
THICK_SOLID_LAYER
 10
19.49999999999951
 20
102.0
 30
0.0
 11
34.4999999999995
 21
102.0
 31
0.0
  0
ARC
  5
1C1
  8
THICK_SOLID_LAYER
 10
19.49999999999951
 20
102.4999999999999
 30
0.0
 40
0.4999999999998081
 50
90.0
 51
270.0
  0
ARC
  5
1C2
  8
THICK_SOLID_LAYER
 10
34.49999999999967
 20
102.4999999999999
 30
0.0
 40
0.5000000000000709
 50
270.0
 51
90.0
  0
LINE
  5
1C3
  8
THICK_SOLID_LAYER
 10
19.49999999999951
 20
103.0
 30
0.0
 11
34.4999999999995
 21
103.0
 31
0.0
  0
LINE
  5
1C4
  8
THICK_SOLID_LAYER
 10
38.4999999999995
 20
102.0
 30
0.0
 11
53.4999999999995
 21
102.0
 31
0.0
  0
ARC
  5
1C5
  8
THICK_SOLID_LAYER
 10
38.4999999999995
 20
102.4999999999999
 30
0.0
 40
0.4999999999998081
 50
90.0
 51
270.0
  0
ARC
  5
1C6
  8
THICK_SOLID_LAYER
 10
53.49999999999967
 20
102.4999999999999
 30
0.0
 40
0.5000000000000709
 50
270.0
 51
90.0
  0
LINE
  5
1C7
  8
THICK_SOLID_LAYER
 10
38.4999999999995
 20
103.0
 30
0.0
 11
53.4999999999995
 21
103.0
 31
0.0
  0
LINE
  5
1C8
  8
THICK_SOLID_LAYER
 10
57.4999999999995
 20
102.0
 30
0.0
 11
72.4999999999995
 21
102.0
 31
0.0
  0
ARC
  5
1C9
  8
THICK_SOLID_LAYER
 10
57.4999999999995
 20
102.4999999999999
 30
0.0
 40
0.4999999999998081
 50
90.0
 51
270.0
  0
ARC
  5
1CA
  8
THICK_SOLID_LAYER
 10
72.49999999999967
 20
102.4999999999999
 30
0.0
 40
0.5000000000000709
 50
270.0
 51
90.0
  0
LINE
  5
1CB
  8
THICK_SOLID_LAYER
 10
57.4999999999995
 20
103.0
 30
0.0
 11
72.4999999999995
 21
103.0
 31
0.0
  0
LINE
  5
1CC
  8
THICK_SOLID_LAYER
 10
76.4999999999995
 20
102.0
 30
0.0
 11
85.99999999999999
 21
102.0
 31
0.0
  0
ARC
  5
1CD
  8
THICK_SOLID_LAYER
 10
76.4999999999995
 20
102.4999999999999
 30
0.0
 40
0.4999999999998081
 50
90.0
 51
270.0
  0
LINE
  5
1CE
  8
THICK_SOLID_LAYER
 10
76.4999999999995
 20
103.0
 30
0.0
 11
86.00000000000003
 21
103.0
 31
0.0
  0
LINE
  5
1CF
  8
THICK_SOLID_LAYER
 10
-0.0000000000003695
 20
102.4999999999999
 30
0.0
 11
-0.0000000000004121
 21
87.49999999999991
 31
0.0
  0
CIRCLE
  5
1D0
  8
0
 10
5.999999999999993
 20
11.49999999999999
 30
0.0
 40
0.9
  0
LINE
  5
1D1
  8
0
 10
6.899999999999999
 20
7.875000000000007
 30
0.0
 11
6.899999999999991
 21
7.524999999999984
 31
0.0
  0
LINE
  5
1D2
  8
0
 10
6.099999999999994
 20
7.875000000000007
 30
0.0
 11
6.899999999999999
 21
7.875000000000007
 31
0.0
  0
LINE
  5
1D3
  8
0
 10
6.099999999999994
 20
7.524999999999984
 30
0.0
 11
6.099999999999994
 21
7.875000000000007
 31
0.0
  0
LINE
  5
1D4
  8
0
 10
6.899999999999991
 20
7.524999999999984
 30
0.0
 11
6.099999999999994
 21
7.524999999999984
 31
0.0
  0
CIRCLE
  5
1D5
  8
0
 10
11.5
 20
11.49999999999999
 30
0.0
 40
1.599999999999999
  0
LINE
  5
1D6
  8
0
 10
11.05
 20
5.749999999999986
 30
0.0
 11
11.95
 21
5.749999999999986
 31
0.0
  0
LINE
  5
1D7
  8
0
 10
11.05
 20
5.449999999999989
 30
0.0
 11
11.05
 21
5.749999999999986
 31
0.0
  0
LINE
  5
1D8
  8
0
 10
11.95
 20
5.449999999999989
 30
0.0
 11
11.05
 21
5.449999999999989
 31
0.0
  0
LINE
  5
1D9
  8
0
 10
11.95
 20
5.749999999999986
 30
0.0
 11
11.95
 21
5.449999999999989
 31
0.0
  0
CIRCLE
  5
1DA
  8
0
 10
16.99999999999998
 20
11.49999999999999
 30
0.0
 40
0.9000000000000055
  0
CIRCLE
  5
1DB
  8
0
 10
74.49999999999999
 20
11.49999999999999
 30
0.0
 40
1.600000000000004
  0
CIRCLE
  5
1DC
  8
0
 10
79.99999999999999
 20
11.49999999999999
 30
0.0
 40
0.9000000000000125
  0
CIRCLE
  5
1DD
  8
0
 10
37.99999999999999
 20
11.49999999999999
 30
0.0
 40
0.9000000000000125
  0
LINE
  5
1DE
  8
0
 10
69.89999999999999
 20
7.875000000000007
 30
0.0
 11
69.89999999999999
 21
7.524999999999984
 31
0.0
  0
LINE
  5
1DF
  8
0
 10
69.09999999999998
 20
7.875000000000007
 30
0.0
 11
69.89999999999999
 21
7.875000000000007
 31
0.0
  0
LINE
  5
1E0
  8
0
 10
69.09999999999998
 20
7.524999999999984
 30
0.0
 11
69.09999999999998
 21
7.875000000000007
 31
0.0
  0
LINE
  5
1E1
  8
0
 10
69.89999999999999
 20
7.524999999999984
 30
0.0
 11
69.09999999999998
 21
7.524999999999984
 31
0.0
  0
LINE
  5
1E2
  8
0
 10
27.89999999999999
 20
7.875000000000007
 30
0.0
 11
27.89999999999999
 21
7.524999999999984
 31
0.0
  0
LINE
  5
1E3
  8
0
 10
27.10000000000001
 20
7.875000000000007
 30
0.0
 11
27.89999999999999
 21
7.875000000000007
 31
0.0
  0
LINE
  5
1E4
  8
0
 10
27.09999999999998
 20
7.524999999999984
 30
0.0
 11
27.10000000000001
 21
7.875000000000007
 31
0.0
  0
LINE
  5
1E5
  8
0
 10
27.89999999999999
 20
7.524999999999984
 30
0.0
 11
27.09999999999998
 21
7.524999999999984
 31
0.0
  0
LINE
  5
1E6
  8
0
 10
32.95
 20
5.749999999999986
 30
0.0
 11
32.95
 21
5.449999999999989
 31
0.0
  0
LINE
  5
1E7
  8
0
 10
32.05
 20
5.749999999999986
 30
0.0
 11
32.95
 21
5.749999999999986
 31
0.0
  0
LINE
  5
1E8
  8
0
 10
32.05
 20
5.449999999999989
 30
0.0
 11
32.05
 21
5.749999999999986
 31
0.0
  0
LINE
  5
1E9
  8
0
 10
32.95
 20
5.449999999999989
 30
0.0
 11
32.05
 21
5.449999999999989
 31
0.0
  0
LINE
  5
1EA
  8
0
 10
74.94999999999997
 20
5.749999999999986
 30
0.0
 11
74.94999999999997
 21
5.449999999999989
 31
0.0
  0
LINE
  5
1EB
  8
0
 10
74.04999999999997
 20
5.749999999999986
 30
0.0
 11
74.94999999999997
 21
5.749999999999986
 31
0.0
  0
LINE
  5
1EC
  8
0
 10
74.04999999999997
 20
5.449999999999989
 30
0.0
 11
74.04999999999997
 21
5.749999999999986
 31
0.0
  0
LINE
  5
1ED
  8
0
 10
74.94999999999997
 20
5.449999999999989
 30
0.0
 11
74.04999999999997
 21
5.449999999999989
 31
0.0
  0
LINE
  5
1EE
  8
0
 10
53.94999999999997
 20
5.749999999999986
 30
0.0
 11
53.94999999999997
 21
5.449999999999989
 31
0.0
  0
LINE
  5
1EF
  8
0
 10
53.04999999999997
 20
5.749999999999986
 30
0.0
 11
53.94999999999997
 21
5.749999999999986
 31
0.0
  0
LINE
  5
1F0
  8
0
 10
53.04999999999997
 20
5.449999999999989
 30
0.0
 11
53.04999999999997
 21
5.749999999999986
 31
0.0
  0
LINE
  5
1F1
  8
0
 10
53.94999999999997
 20
5.449999999999989
 30
0.0
 11
53.04999999999997
 21
5.449999999999989
 31
0.0
  0
LINE
  5
1F2
  8
0
 10
48.89999999999999
 20
7.875000000000007
 30
0.0
 11
48.89999999999999
 21
7.524999999999984
 31
0.0
  0
LINE
  5
1F3
  8
0
 10
48.09999999999998
 20
7.875000000000007
 30
0.0
 11
48.89999999999999
 21
7.875000000000007
 31
0.0
  0
LINE
  5
1F4
  8
0
 10
48.09999999999998
 20
7.524999999999984
 30
0.0
 11
48.09999999999998
 21
7.875000000000007
 31
0.0
  0
LINE
  5
1F5
  8
0
 10
48.89999999999999
 20
7.524999999999984
 30
0.0
 11
48.09999999999998
 21
7.524999999999984
 31
0.0
  0
CIRCLE
  5
1F6
  8
0
 10
26.99999999999999
 20
11.49999999999999
 30
0.0
 40
0.8999999999999976
  0
CIRCLE
  5
1F7
  8
0
 10
68.99999999999996
 20
11.49999999999999
 30
0.0
 40
0.8999999999999976
  0
CIRCLE
  5
1F8
  8
0
 10
47.99999999999999
 20
11.49999999999999
 30
0.0
 40
0.8999999999999976
  0
CIRCLE
  5
1F9
  8
0
 10
58.99999999999999
 20
11.49999999999999
 30
0.0
 40
0.9000000000000055
  0
CIRCLE
  5
1FA
  8
0
 10
32.50000000000001
 20
11.49999999999999
 30
0.0
 40
1.599999999999998
  0
CIRCLE
  5
1FB
  8
0
 10
53.49999999999999
 20
11.49999999999999
 30
0.0
 40
1.599999999999998
  0
LINE
  5
1FC
  8
THICK_SOLID_LAYER
 10
0.9999999999996305
 20
102.0
 30
0.0
 11
0.999999999999595
 21
87.49999999999991
 31
0.0
  0
LINE
  5
1FD
  8
THICK_SOLID_LAYER
 10
-0.0000000000003695
 20
102.4999999999999
 30
0.0
 11
-0.0000000000004121
 21
87.49999999999991
 31
0.0
  0
ARC
  5
1FE
  8
THICK_SOLID_LAYER
 10
0.4999999999994671
 20
87.49999999999974
 30
0.0
 40
0.5000000000000708
 50
180.0
 51
0.0
  0
LINE
  5
1FF
  8
THICK_SOLID_LAYER
 10
-0.0000000000003624
 20
103.0
 30
0.0
 11
-0.000000000000405
 21
87.49999999999991
 31
0.0
  0
ARC
  5
200
  8
THICK_SOLID_LAYER
 10
0.4999999999994742
 20
87.49999999999974
 30
0.0
 40
0.5000000000000708
 50
180.0
 51
0.0
  0
LINE
  5
201
  8
THICK_SOLID_LAYER
 10
0.9999999999996376
 20
102.0
 30
0.0
 11
0.9999999999996021
 21
87.49999999999991
 31
0.0
  0
LINE
  5
202
  8
THICK_SOLID_LAYER
 10
-0.000000000000405
 20
83.49999999999991
 30
0.0
 11
-0.0000000000004476
 21
68.49999999999991
 31
0.0
  0
ARC
  5
203
  8
THICK_SOLID_LAYER
 10
0.4999999999994742
 20
83.49999999999991
 30
0.0
 40
0.499999999999808
 50
0.0
 51
180.0
  0
ARC
  5
204
  8
THICK_SOLID_LAYER
 10
0.4999999999994316
 20
68.49999999999974
 30
0.0
 40
0.5000000000000708
 50
180.0
 51
0.0
  0
LINE
  5
205
  8
THICK_SOLID_LAYER
 10
0.999999999999595
 20
83.49999999999991
 30
0.0
 11
0.9999999999995595
 21
68.49999999999991
 31
0.0
  0
LINE
  5
206
  8
THICK_SOLID_LAYER
 10
-0.0000000000004619
 20
64.49999999999991
 30
0.0
 11
-0.0000000000005045
 21
49.49999999999992
 31
0.0
  0
ARC
  5
207
  8
THICK_SOLID_LAYER
 10
0.4999999999994174
 20
64.49999999999991
 30
0.0
 40
0.499999999999808
 50
0.0
 51
180.0
  0
ARC
  5
208
  8
THICK_SOLID_LAYER
 10
0.4999999999993747
 20
49.49999999999975
 30
0.0
 40
0.5000000000000708
 50
180.0
 51
0.0
  0
LINE
  5
209
  8
THICK_SOLID_LAYER
 10
0.9999999999995381
 20
64.49999999999991
 30
0.0
 11
0.9999999999995026
 21
49.49999999999992
 31
0.0
  0
LINE
  5
20A
  8
THICK_SOLID_LAYER
 10
-0.0000000000005045
 20
45.49999999999992
 30
0.0
 11
-0.0000000000005471
 21
30.49999999999992
 31
0.0
  0
ARC
  5
20B
  8
THICK_SOLID_LAYER
 10
0.4999999999993747
 20
45.49999999999992
 30
0.0
 40
0.499999999999808
 50
0.0
 51
180.0
  0
ARC
  5
20C
  8
THICK_SOLID_LAYER
 10
0.4999999999993321
 20
30.49999999999975
 30
0.0
 40
0.5000000000000708
 50
179.9999999999996
 51
0.0000000000004071
  0
LINE
  5
20D
  8
THICK_SOLID_LAYER
 10
0.9999999999994955
 20
45.49999999999992
 30
0.0
 11
0.99999999999946
 21
30.49999999999992
 31
0.0
  0
LINE
  5
20E
  8
0
 10
0.0
 20
0.0
 30
0.0
 11
81.00000000000001
 21
0.0
 31
0.0
  0
ARC
  5
20F
  8
0
 10
81.00000000000001
 20
5.0
 30
0.0
 40
5.0
 50
270.0
 51
0.0000000000001018
  0
LINE
  5
210
  8
THICK_SOLID_LAYER
 10
86.0
 20
24.99999999999999
 30
0.0
 11
86.0
 21
5.000000000000007
 31
0.0
  0
LINE
  5
211
  8
THICK_SOLID_LAYER
 10
0.0
 20
0.0
 30
0.0
 11
0.0
 21
19.00000000000026
 31
0.0
  0
LINE
  5
212
  8
THICK_SOLID_LAYER
 10
-0.0000000000005613
 20
26.49999999999994
 30
0.0
 11
-0.0000000000005826
 21
19.99999999999996
 31
0.0
  0
ARC
  5
213
  8
THICK_SOLID_LAYER
 10
0.4999999999993179
 20
26.49999999999994
 30
0.0
 40
0.499999999999808
 50
0.0
 51
180.0
  0
LINE
  5
214
  8
THICK_SOLID_LAYER
 10
0.9999999999994387
 20
26.49999999999994
 30
0.0
 11
0.9999999999994174
 21
18.99999999999993
 31
0.0
  0
LINE
  5
215
  8
THICK_SOLID_LAYER
 10
0.0000000000000142
 20
19.00000000000026
 30
0.0
 11
0.9999999999994174
 21
18.99999999999992
 31
0.0
  0
LINE
  5
216
  8
0
 10
-4.450000000000578
 20
106.4000000000001
 30
0.0
 11
-4.450000000000564
 21
104.4
 31
0.0
  0
LINE
  5
217
  8
0
 10
-6.550000000000573
 20
106.4000000000001
 30
0.0
 11
-4.450000000000578
 21
106.4000000000001
 31
0.0
  0
LINE
  5
218
  8
0
 10
-6.550000000000573
 20
104.4
 30
0.0
 11
-6.550000000000573
 21
106.4000000000001
 31
0.0
  0
LINE
  5
219
  8
0
 10
-4.450000000000564
 20
104.4
 30
0.0
 11
-6.550000000000573
 21
104.4
 31
0.0
  0
CIRCLE
  5
21A
  8
0
 10
70.89097525182838
 20
111.0090249582251
 30
0.0
 40
1.000000000000007
  0
CIRCLE
  5
21B
  8
0
 10
23.39097525182839
 20
111.0090249582251
 30
0.0
 40
1.000000000000001
  0
CIRCLE
  5
21C
  8
0
 10
10.8909752518284
 20
107.2500000000001
 30
0.0
 40
0.5000000000000149
  0
CIRCLE
  5
21D
  8
0
 10
-12.50000000000058
 20
113.5000000000001
 30
0.0
 40
0.5000000000000007
  0
CIRCLE
  5
21E
  8
0
 10
-4.250000000000277
 20
25.10000000000006
 30
0.0
 40
0.5000000000000007
  0
CIRCLE
  5
21F
  8
0
 10
-12.50000000000058
 20
108.5000000000001
 30
0.0
 40
0.5000000000000007
  0
CIRCLE
  5
220
  8
0
 10
1.999999999999424
 20
111.0
 30
0.0
 40
0.5000000000000007
  0
CIRCLE
  5
221
  8
0
 10
-6.750000000000291
 20
25.10000000000006
 30
0.0
 40
0.5
  0
CIRCLE
  5
222
  8
0
 10
80.89097525182837
 20
109.7500000000001
 30
0.0
 40
0.4999999999999994
  0
CIRCLE
  5
223
  8
0
 10
10.89097525182838
 20
112.2500000000001
 30
0.0
 40
0.4999999999999865
  0
CIRCLE
  5
224
  8
0
 10
80.89097525182837
 20
112.2500000000001
 30
0.0
 40
0.4999999999999726
  0
ARC
  5
225
  8
0
 10
80.99999999999974
 20
114.0
 30
0.0
 40
5.0
 50
0.0
 51
90.0
  0
LINE
  5
226
  8
0
 10
85.99999999999972
 20
103.0
 30
0.0
 11
85.99999999999974
 21
114.0
 31
0.0
  0
LINE
  5
227
  8
0
 10
-9.00000000000039
 20
20.00000000000004
 30
0.0
 11
-0.0000000000003766
 21
20.00000000000003
 31
0.0
  0
ARC
  5
228
  8
0
 10
-9.000000000000377
 20
25.00000000000004
 30
0.0
 40
5.0
 50
179.9999999999999
 51
270.0
  0
LINE
  5
229
  8
0
 10
-14.00000000000038
 20
114.0
 30
0.0
 11
-14.00000000000038
 21
25.00000000000005
 31
0.0
  0
ARC
  5
22A
  8
0
 10
-9.00000000000039
 20
114.0
 30
0.0
 40
5.0
 50
90.0
 51
180.0000000000003
  0
LINE
  5
22B
  8
0
 10
80.99999999999974
 20
119.0
 30
0.0
 11
-9.000000000000377
 21
119.0
 31
0.0
  0
CIRCLE
  5
22C
  8
0
 10
80.89097525182837
 20
107.2500000000001
 30
0.0
 40
0.4999999999999812
  0
CIRCLE
  5
22D
  8
0
 10
80.89097525182837
 20
114.7500000000001
 30
0.0
 40
0.4999999999999934
  0
CIRCLE
  5
22E
  8
0
 10
-9.25000000000032
 20
95.10000000000004
 30
0.0
 40
0.5
  0
CIRCLE
  5
22F
  8
0
 10
-9.25000000000032
 20
25.10000000000006
 30
0.0
 40
0.5
  0
CIRCLE
  5
230
  8
0
 10
1.999999999999424
 20
108.5
 30
0.0
 40
0.5000000000000007
  0
CIRCLE
  5
231
  8
0
 10
-4.250000000000291
 20
95.10000000000005
 30
0.0
 40
0.5000000000000007
  0
CIRCLE
  5
232
  8
0
 10
1.999999999999424
 20
113.5000000000001
 30
0.0
 40
0.5000000000000007
  0
CIRCLE
  5
233
  8
0
 10
-1.750000000000249
 20
25.10000000000006
 30
0.0
 40
0.500000000000003
  0
CIRCLE
  5
234
  8
0
 10
-5.490975041775293
 20
82.60000000000007
 30
0.0
 40
1.0
  0
CIRCLE
  5
235
  8
0
 10
-5.490975041775293
 20
35.10000000000006
 30
0.0
 40
1.000000000000001
  0
LINE
  5
236
  8
0
 10
-4.450000000000564
 20
115.6000000000001
 30
0.0
 11
-6.550000000000558
 21
115.6000000000001
 31
0.0
  0
LINE
  5
237
  8
0
 10
-4.450000000000564
 20
117.6000000000001
 30
0.0
 11
-4.450000000000564
 21
115.6000000000001
 31
0.0
  0
LINE
  5
238
  8
0
 10
-6.550000000000558
 20
117.6000000000001
 30
0.0
 11
-4.450000000000564
 21
117.6000000000001
 31
0.0
  0
LINE
  5
239
  8
0
 10
-6.550000000000558
 20
115.6000000000001
 30
0.0
 11
-6.550000000000558
 21
117.6000000000001
 31
0.0
  0
ENDSEC
  0
EOF
