  0
SECTION
  2
HEADER
  9
$ACADVER
  1
AC1009
  9
$DWGCODEPAGE
  3
ansi_1252
  9
$INSBASE
 10
0.0
 20
0.0
 30
0.0
  9
$EXTMIN
 10
-136.8444165621079
 20
-13.59127979924709
 30
0.0
  9
$EXTMAX
 10
173.5294855708909
 20
118.4087202007529
 30
0.0
  9
$LIMMIN
 10
-105.0
 20
-148.5
  9
$LIMMAX
 10
105.0
 20
148.5
  9
$ORTHOMODE
 70
     0
  9
$REGENMODE
 70
     1
  9
$FILLMODE
 70
     1
  9
$QTEXTMODE
 70
     0
  9
$MIRRTEXT
 70
     1
  9
$DRAGMODE
 70
     2
  9
$LTSCALE
 40
1.0
  9
$OSMODE
 70
    37
  9
$ATTMODE
 70
     1
  9
$TEXTSIZE
 40
2.5
  9
$TRACEWID
 40
1.0
  9
$TEXTSTYLE
  7
STANDARD
  9
$CLAYER
  8
THICK_SOLID_LAYER
  9
$CELTYPE
  6
BYLAYER
  9
$CECOLOR
 62
   256
  9
$DIMSCALE
 40
1.0
  9
$DIMASZ
 40
4.0
  9
$DIMEXO
 40
0.0
  9
$DIMDLI
 40
0.38
  9
$DIMRND
 40
0.0
  9
$DIMDLE
 40
6.0
  9
$DIMEXE
 40
2.0
  9
$DIMTP
 40
0.0
  9
$DIMTM
 40
0.0
  9
$DIMTXT
 40
3.5
  9
$DIMCEN
 40
0.0
  9
$DIMTSZ
 40
0.0
  9
$DIMTOL
 70
     0
  9
$DIMLIM
 70
     0
  9
$DIMTIH
 70
     0
  9
$DIMTOH
 70
     0
  9
$DIMSE1
 70
     0
  9
$DIMSE2
 70
     0
  9
$DIMTAD
 70
     1
  9
$DIMZIN
 70
     8
  9
$DIMBLK
  1
CAXARROW
  9
$DIMASO
 70
     1
  9
$DIMSHO
 70
     1
  9
$DIMPOST
  1

  9
$DIMAPOST
  1

  9
$DIMALT
 70
     0
  9
$DIMALTD
 70
     2
  9
$DIMALTF
 40
1.0
  9
$DIMLFAC
 40
1.0
  9
$DIMTOFL
 70
     1
  9
$DIMTVP
 40
0.0
  9
$DIMTIX
 70
     0
  9
$DIMSOXD
 70
     0
  9
$DIMSAH
 70
     0
  9
$DIMBLK1
  1

  9
$DIMBLK2
  1

  9
$DIMSTYLE
  2
STANDARD
  9
$DIMCLRD
 70
     0
  9
$DIMCLRE
 70
     0
  9
$DIMCLRT
 70
     0
  9
$DIMTFAC
 40
0.7071067811865475
  9
$DIMGAP
 40
0.625
  9
$LUNITS
 70
     2
  9
$LUPREC
 70
     4
  9
$SKETCHINC
 40
1.0
  9
$FILLETRAD
 40
10.0
  9
$AUNITS
 70
     0
  9
$AUPREC
 70
     0
  9
$MENU
  1
.
  9
$ELEVATION
 40
0.0
  9
$PELEVATION
 40
0.0
  9
$THICKNESS
 40
0.0
  9
$LIMCHECK
 70
     0
  9
$CHAMFERA
 40
0.0
  9
$CHAMFERB
 40
0.0
  9
$SKPOLY
 70
     0
  9
$TDCREATE
 40
2458563.597550289
  9
$TDUPDATE
 40
2458563.597551748
  9
$TDINDWG
 40
0.0000000116
  9
$TDUSRTIMER
 40
0.0000000116
  9
$USRTIMER
 70
     1
  9
$ANGBASE
 50
0.0
  9
$ANGDIR
 70
     0
  9
$PDMODE
 70
     0
  9
$PDSIZE
 40
-5.0
  9
$PLINEWID
 40
0.0
  9
$COORDS
 70
     1
  9
$SPLFRAME
 70
     0
  9
$SPLINETYPE
 70
     6
  9
$SPLINESEGS
 70
     8
  9
$ATTDIA
 70
     0
  9
$ATTREQ
 70
     1
  9
$HANDLING
 70
     1
  9
$HANDSEED
  5
99E
  9
$SURFTAB1
 70
     6
  9
$SURFTAB2
 70
     6
  9
$SURFTYPE
 70
     6
  9
$SURFU
 70
     6
  9
$SURFV
 70
     6
  9
$UCSNAME
  2

  9
$UCSORG
 10
0.0
 20
0.0
 30
0.0
  9
$UCSXDIR
 10
1.0
 20
0.0
 30
0.0
  9
$UCSYDIR
 10
0.0
 20
1.0
 30
0.0
  9
$PUCSNAME
  2

  9
$PUCSORG
 10
0.0
 20
0.0
 30
0.0
  9
$PUCSXDIR
 10
1.0
 20
0.0
 30
0.0
  9
$PUCSYDIR
 10
0.0
 20
1.0
 30
0.0
  9
$USERI1
 70
     0
  9
$USERI2
 70
     0
  9
$USERI3
 70
     0
  9
$USERI4
 70
     0
  9
$USERI5
 70
     0
  9
$USERR1
 40
0.0
  9
$USERR2
 40
0.0
  9
$USERR3
 40
0.0
  9
$USERR4
 40
0.0
  9
$USERR5
 40
0.0
  9
$WORLDVIEW
 70
     1
  9
$SHADEDGE
 70
     3
  9
$SHADEDIF
 70
    70
  9
$TILEMODE
 70
     1
  9
$MAXACTVP
 70
    64
  9
$PLIMCHECK
 70
     0
  9
$PEXTMIN
 10
1.000000000000000E+20
 20
1.000000000000000E+20
 30
1.000000000000000E+20
  9
$PEXTMAX
 10
-1.000000000000000E+20
 20
-1.000000000000000E+20
 30
-1.000000000000000E+20
  9
$PLIMMIN
 10
0.0
 20
0.0
  9
$PLIMMAX
 10
420.0
 20
297.0
  9
$UNITMODE
 70
     0
  9
$VISRETAIN
 70
     1
  9
$PLINEGEN
 70
     0
  9
$PSLTSCALE
 70
     1
  0
ENDSEC
  0
SECTION
  2
TABLES
  0
TABLE
  2
VPORT
 70
     1
  0
VPORT
  2
*ACTIVE
 70
     0
 10
0.0
 20
0.0
 11
1.0
 21
1.0
 12
18.34253450439149
 22
52.40872020075291
 13
0.0
 23
0.0
 14
10.0
 24
10.0
 15
10.0
 25
10.0
 16
0.0
 26
0.0
 36
1.0
 17
0.0
 27
0.0
 37
0.0
 40
132.0
 41
2.351317440401506
 42
50.0
 43
0.0
 44
0.0
 50
0.0
 51
0.0
 71
     0
 72
   100
 73
     1
 74
     3
 75
     0
 76
     0
 77
     0
 78
     0
  0
ENDTAB
  0
TABLE
  2
LTYPE
 70
     4
  0
LTYPE
  2
CONTINUOUS
 70
     0
  3
Solid line
 72
    65
 73
     0
 40
0.0
  0
LTYPE
  2
DASH
 70
     0
  3
Dash: __ __ __ __ __ __ __ __ __ __ __ __ __
 72
    65
 73
     2
 40
2.0
 49
1.0
 49
-1.0
  0
LTYPE
  2
DASH_DOT
 70
     0
  3
Dash Dot: ____ . ____ . ____ . ____ . ____ . ____
 72
    65
 73
     4
 40
18.0
 49
12.0
 49
-2.0
 49
2.0
 49
-2.0
  0
LTYPE
  2
DASH_DOUBLE-DOT
 70
     0
  3
Dash Double-dot: ____ . . ____ . . ____ . . ____ . . ____ 
 72
    65
 73
     6
 40
22.0
 49
12.0
 49
-2.0
 49
2.0
 49
-2.0
 49
2.0
 49
-2.0
  0
ENDTAB
  0
TABLE
  2
LAYER
 70
     8
  0
LAYER
  2
0
 70
     0
 62
     7
  6
CONTINUOUS
  0
LAYER
  2
CENTERLINE_LAYER
 70
     0
 62
     1
  6
DASH_DOT
  0
LAYER
  2
DASH_LAYER
 70
     0
 62
     6
  6
DASH
  0
LAYER
  2
SOLID_LAYER
 70
     0
 62
     7
  6
CONTINUOUS
  0
LAYER
  2
THICK_SOLID_LAYER
 70
     0
 62
     7
  6
CONTINUOUS
  0
LAYER
  2
DIMENSION_LAYER
 70
     0
 62
     3
  6
CONTINUOUS
  0
LAYER
  2
HATCH_LAYER
 70
     0
 62
     4
  6
CONTINUOUS
  0
LAYER
  2
HIDDEN_LAYER
 70
     0
 62
    -7
  6
CONTINUOUS
  0
ENDTAB
  0
TABLE
  2
STYLE
 70
     1
  0
STYLE
  2
STANDARD
 70
     0
 40
0.0
 41
0.667
 50
0.0
 71
     0
 42
0.0
  3
gb.shx
  4
shapefont.shx
  0
ENDTAB
  0
TABLE
  2
VIEW
 70
     0
  0
ENDTAB
  0
TABLE
  2
UCS
 70
     0
  0
ENDTAB
  0
TABLE
  2
APPID
 70
    79
  0
APPID
  2
ACAD
 70
     0
  0
APPID
  2
CAXA_DRAFT_PAPERORDER
 70
     0
  0
APPID
  2
CAXA_DRAFT_ROUGH
 70
     0
  0
APPID
  2
CAXA_DRAFT_ROUGH_STD
 70
     0
  0
APPID
  2
CAXA_DRAFT_DATUM
 70
     0
  0
APPID
  2
CAXA_DRAFT_WELD
 70
     0
  0
APPID
  2
CAXA_DRAFT_GEOTOL
 70
     0
  0
APPID
  2
CAXA_DRAFT_CUTS
 70
     0
  0
APPID
  2
CAXA_DRAFT_DIMHALF
 70
     0
  0
APPID
  2
CAXA_DRAFT_DIMRAY
 70
     0
  0
APPID
  2
CAXA_DRAFT_DIMARCLEN
 70
     0
  0
APPID
  2
CAXA_DRAFT_DIMTAPER
 70
     0
  0
APPID
  2
CAXA_DRAFT_DIMPITCH
 70
     0
  0
APPID
  2
CAXA_DRAFT_DIMCOORD
 70
     0
  0
APPID
  2
CAXA_DRAFT_DIMORIALIGN
 70
     0
  0
APPID
  2
CAXA_DRAFT_DIMHOLEPOS
 70
     0
  0
APPID
  2
CAXA_DRAFT_DIMCRDLEADER
 70
     0
  0
APPID
  2
CAXA_DRAFT_DIMCHAMFER
 70
     0
  0
APPID
  2
CAXA_DRAFT_DIMCENTERHOLE
 70
     0
  0
APPID
  2
CAXA_DRAFT_DIMLEADER
 70
     0
  0
APPID
  2
CAXA_DRAFT_DIMCRDLIST
 70
     0
  0
APPID
  2
CAXA_DRAFT_PAPERSCALE
 70
     0
  0
APPID
  2
CAXA_DRAFT_FILEVERSION
 70
     0
  0
APPID
  2
CAXA_DRAFT_PRODUCTVERSION
 70
     0
  0
APPID
  2
CAXA_DRAFT_DATATABLE
 70
     0
  0
APPID
  2
CAXA_DRAFT_PAPERINFO
 70
     0
  0
APPID
  2
CAXA_DRAFT_PAPERFRAME
 70
     0
  0
APPID
  2
CAXA_DRAFT_PAPERTITLE
 70
     0
  0
APPID
  2
CAXA_DRAFT_PAPERPAREATABLE
 70
     0
  0
APPID
  2
CAXA_DRAFT_PARTNO
 70
     0
  0
APPID
  2
CAXA_DRAFT_BOMTABLE
 70
     0
  0
APPID
  2
CAXA_DRAFT_BLKREF_EXTATT
 70
     0
  0
APPID
  2
CAXA_DRAFT_DBVIEWDATA
 70
     0
  0
APPID
  2
CAXA_DRAFT_DIMSYMTOL
 70
     0
  0
APPID
  2
CAXA_DRAFT_DIMASSEMTOL
 70
     0
  0
APPID
  2
CAXA_DRAFT_DIMANGLETOL
 70
     0
  0
APPID
  2
CAXA_DRAFT_DRAFTDATA
 70
     0
  0
APPID
  2
CAXA_DRAFT_DIMORIGIN
 70
     0
  0
APPID
  2
CAXA_DRAFT_ENLARGE_EDGE
 70
     0
  0
APPID
  2
CAXA_DRAFT_DIMSTY_T_VPOS
 70
     0
  0
APPID
  2
CAXA_DRAFT_DIMSTY_AT_VPOS
 70
     0
  0
APPID
  2
CAXA_DRAFT_BLKHIDE
 70
     0
  0
APPID
  2
CAXA_DRAFT_DIMARROWREVERSE
 70
     0
  0
APPID
  2
CAXA_DRAFT_TXTSTYLE
 70
     0
  0
APPID
  2
CAXA_DRAFT_ATTRIBUTE_2PT
 70
     0
  0
APPID
  2
CAXA_DRAFT_ATTDEF_2PT
 70
     0
  0
APPID
  2
CAXA_DRAFT_DIMBIGARC
 70
     0
  0
APPID
  2
CAXA_DRAFT_ISNEB09R3
 70
     0
  0
APPID
  2
CAXA_DRAFT_WIPEOUT_B_HIDE
 70
     0
  0
APPID
  2
CAXA_DRAFT_BLKREF_SYMBOL
 70
     0
  0
APPID
  2
CAXA_DRAFT_ENL_COMMENTS
 70
     0
  0
APPID
  2
CAXA_DRAFT_ENL_TSCALE
 70
     0
  0
APPID
  2
CAXA_DRAFT_TXTSCALE
 70
     0
  0
APPID
  2
CAXA_DRAFT_KEEPLTSEG_ZOOM
 70
     0
  0
APPID
  2
CAXA_DRAFT_SPECLIB
 70
     0
  0
APPID
  2
CAXA_DRAFT_DATUM_2011R2
 70
     0
  0
APPID
  2
CAXA_DRAFT_ROUGH_2011R2
 70
     0
  0
APPID
  2
CAXA_DRAFT_GEOTOL_2011R2
 70
     0
  0
APPID
  2
CAXA_DRAFT_DMOVMAP_2011R3
 70
     0
  0
APPID
  2
CAXA_DRAFT_DDTSTY_2011R3
 70
     0
  0
APPID
  2
CAXA_DRAFT_SDTSTY_2011R3
 70
     0
  0
APPID
  2
CDRAFT_TXTROT_2011R3
 70
     0
  0
APPID
  2
CDRAFT_TOLOUT_2011R3
 70
     0
  0
APPID
  2
CAXA_DRAFT_DIMARCLENSTYLE
 70
     0
  0
APPID
  2
CAXA_DRAFT_DMOVMAP_2013
 70
     0
  0
APPID
  2
CAXA_DRAFT_DS_DLLNTYPE
 70
     0
  0
APPID
  2
CAXA_DRAFT_DS_LBLLNTYPE
 70
     0
  0
APPID
  2
CAXA_DRAFT_DS_RBLLNTYPE
 70
     0
  0
APPID
  2
CAXA_DRAFT_DS_ISFILLDFM
 70
     0
  0
APPID
  2
CAXA_DRAFT_DS_DISPZTOOL
 70
     0
  0
APPID
  2
CAXA_DRAFT_DS_SYMCOLOR
 70
     0
  0
APPID
  2
CAXA_DRAFT_HATCH_SCALE_ANG
 70
     0
  0
APPID
  2
CAXA_DRAFT_GEOTOL_ISFROMDW
 70
     0
  0
APPID
  2
CXDRAGDIADIMLNSTYLE
 70
     0
  0
APPID
  2
CXDRAGRADDIMLNSTYLE
 70
     0
  0
APPID
  2
CX_DBANNOTATE_SIMDIMORITXT
 70
     0
  0
APPID
  2
CX_DBANNOTATE_TXTLOCPARA
 70
     0
  0
APPID
  2
CX_DBANNOTATE_DRAGTXTLOC
 70
     0
  0
APPID
  2
ACAECLAYERSTANDARD
 70
     0
  0
ENDTAB
  0
TABLE
  2
DIMSTYLE
 70
     2
  0
DIMSTYLE
  2
STANDARD
 70
     0
  3

  4

  5
CAXARROW
  6

  7

 40
1.0
 41
4.0
 42
0.0
 43
0.38
 44
2.0
 45
0.0
 46
6.0
 47
0.0
 48
0.0
140
3.5
141
0.0
142
0.0
143
1.0
144
1.0
145
0.0
146
0.7071067811865475
147
0.625
 71
     0
 72
     0
 73
     0
 74
     0
 75
     0
 76
     0
 77
     1
 78
     8
170
     0
171
     2
172
     1
173
     0
174
     0
175
     0
176
     0
177
     0
178
     0
  0
ENDTAB
  0
ENDSEC
  0
SECTION
  2
BLOCKS
  0
BLOCK
  8
0
  2
$MODEL_SPACE
 70
     0
 10
0.0
 20
0.0
 30
0.0
  3
$MODEL_SPACE
  1

  0
ENDBLK
  5
21
  8
0
  0
BLOCK
 67
     1
  8
0
  2
$PAPER_SPACE
 70
     0
 10
0.0
 20
0.0
 30
0.0
  3
$PAPER_SPACE
  1

  0
ENDBLK
  5
1D
 67
     1
  8
0
  0
BLOCK
  8
0
  2
_CAXARROW
 70
     0
 10
0.0
 20
0.0
 30
0.0
  3
_CAXARROW
  1

  0
INSERT
  5
C6
  8
0
 62
     0
  2
*U2
 10
0.0
 20
0.0
 30
0.0
1001
ACAD
1002
{
1000
R14_HATCH_DATA
1000
C6
1011
1.0
1021
0.0
1031
0.0
1021
0.0
1031
0.0
1011
0.0
1021
1.0
1031
0.0
1021
1.0
1031
0.0
1011
0.0
1021
0.0
1031
1.0
1021
0.0
1031
1.0
1040
0.0
1010
0.0
1020
0.0
1030
1.0
1020
0.0
1030
1.0
1000
SOLID
1070
     1
1070
     1
1071
        1
1071
        0
1071
        3
1070
     1
1040
0.0
1040
0.0
1040
-1.0
1040
0.125
1070
     1
1040
-1.0
1040
0.125
1040
-1.0
1040
-0.125
1070
     1
1040
-1.0
1040
-0.125
1040
0.0
1040
0.0
1071
        0
1070
     0
1070
     1
1071
        1
1040
0.0
1040
0.0
1040
0.0
1002
}
  0
ENDBLK
  5
C8
  8
0
  0
BLOCK
  8
0
  2
*U2
 70
     1
 10
0.0
 20
0.0
 30
0.0
  3
*U2
  1

  0
SOLID
  5
98D
  8
0
 62
     0
 10
-1.0
 20
-0.125
 30
0.0
 11
-1.0
 21
0.125
 31
0.0
 12
0.0
 22
0.0
 32
0.0
 13
0.0
 23
0.0
 33
0.0
  0
ENDBLK
  5
98F
  8
0
  0
ENDSEC
  0
SECTION
  2
ENTITIES
  0
LINE
  5
EF
  8
0
 10
0.0000000000000071
 20
14.00000000000001
 30
0.0
 11
2.000000000000014
 21
14.0
 31
0.0
  0
LINE
  5
F0
  8
0
 10
0.0000000000000071
 20
13.52855752193732
 30
0.0
 11
0.0000000000000071
 21
14.00000000000001
 31
0.0
  0
LINE
  5
F1
  8
0
 10
2.000000000000014
 20
13.52855752193732
 30
0.0
 11
0.0000000000000071
 21
13.52855752193732
 31
0.0
  0
LINE
  5
F2
  8
0
 10
2.000000000000014
 20
14.0
 30
0.0
 11
2.000000000000014
 21
13.52855752193732
 31
0.0
  0
LINE
  5
F3
  8
0
 10
8.5
 20
6.550000000000011
 30
0.0
 11
8.350000000000016
 21
6.550000000000011
 31
0.0
  0
LINE
  5
F4
  8
0
 10
8.499999999143746
 20
6.700000000000003
 30
0.0
 11
8.5
 21
6.550000000000011
 31
0.0
  0
POLYLINE
  5
F5
  8
0
 66
     1
 10
0.0
 20
0.0
 30
0.0
  0
VERTEX
  5
128
  8
0
 10
8.584232921065066
 20
6.78786796564404
 30
0.0
  0
VERTEX
  5
129
  8
0
 10
8.581334167533942
 20
6.783703034518094
 30
0.0
  0
VERTEX
  5
12A
  8
0
 10
8.578376296699467
 20
6.779573544960288
 30
0.0
  0
VERTEX
  5
12B
  8
0
 10
8.575359955958392
 20
6.775480743938747
 30
0.0
  0
VERTEX
  5
12C
  8
0
 10
8.572285827518652
 20
6.77142586268906
 30
0.0
  0
VERTEX
  5
12D
  8
0
 10
8.569154627921439
 20
6.767410115506604
 30
0.0
  0
VERTEX
  5
12E
  8
0
 10
8.565967107513224
 20
6.763434698556408
 30
0.0
  0
VERTEX
  5
12F
  8
0
 10
8.56272404986848
 20
6.759500788702865
 30
0.0
  0
VERTEX
  5
130
  8
0
 10
8.559426271163998
 20
6.755609542361706
 30
0.0
  0
VERTEX
  5
131
  8
0
 10
8.556074619505843
 20
6.751762094376589
 30
0.0
  0
VERTEX
  5
132
  8
0
 10
8.552669974210007
 20
6.747959556922511
 30
0.0
  0
VERTEX
  5
133
  8
0
 10
8.549213245038128
 20
6.74420301843833
 30
0.0
  0
VERTEX
  5
134
  8
0
 10
8.54570537138957
 20
6.74049354259047
 30
0.0
  0
VERTEX
  5
135
  8
0
 10
8.542147321451422
 20
6.736832167269947
 30
0.0
  0
VERTEX
  5
136
  8
0
 10
8.538540091308004
 20
6.733219903624633
 30
0.0
  0
VERTEX
  5
137
  8
0
 10
8.5348847040116
 20
6.7296577351287
 30
0.0
  0
VERTEX
  5
138
  8
0
 10
8.53118220861627
 20
6.726146616691025
 30
0.0
  0
VERTEX
  5
139
  8
0
 10
8.527433679176593
 20
6.722687473804247
 30
0.0
  0
VERTEX
  5
13A
  8
0
 10
8.523640213713401
 20
6.719281201736057
 30
0.0
  0
VERTEX
  5
13B
  8
0
 10
8.519802933148565
 20
6.715928664764238
 30
0.0
  0
VERTEX
  5
13C
  8
0
 10
8.515922980210988
 20
6.712630695456751
 30
0.0
  0
VERTEX
  5
13D
  8
0
 10
8.512001518316017
 20
6.709388093998141
 30
0.0
  0
VERTEX
  5
13E
  8
0
 10
8.508039730420597
 20
6.706201627563374
 30
0.0
  0
VERTEX
  5
13F
  8
0
 10
8.504038817856465
 20
6.703072029740071
 30
0.0
  0
VERTEX
  5
140
  8
0
 10
8.499999999143746
 20
6.700000000000003
 30
0.0
  0
SEQEND
  5
992
  8
0
  0
POLYLINE
  5
F6
  8
0
 66
     1
 10
0.0
 20
0.0
 30
0.0
  0
VERTEX
  5
141
  8
0
 10
8.584232921065066
 20
7.212132034355974
 30
0.0
  0
VERTEX
  5
142
  8
0
 10
8.5849765434716
 20
7.211022744156985
 30
0.0
  0
VERTEX
  5
143
  8
0
 10
8.585719933545805
 20
7.209912718212314
 30
0.0
  0
VERTEX
  5
144
  8
0
 10
8.586462858955358
 20
7.208801220776274
 30
0.0
  0
VERTEX
  5
145
  8
0
 10
8.587205087367929
 20
7.207687516103182
 30
0.0
  0
VERTEX
  5
146
  8
0
 10
8.587946386451193
 20
7.206570868447357
 30
0.0
  0
VERTEX
  5
147
  8
0
 10
8.58868652387282
 20
7.205450542063113
 30
0.0
  0
VERTEX
  5
148
  8
0
 10
8.589425267300484
 20
7.204325801204768
 30
0.0
  0
VERTEX
  5
149
  8
0
 10
8.590162384401859
 20
7.203195910126638
 30
0.0
  0
VERTEX
  5
14A
  8
0
 10
8.590897642844613
 20
7.202060133083038
 30
0.0
  0
VERTEX
  5
14B
  8
0
 10
8.591630810296426
 20
7.200917734328286
 30
0.0
  0
VERTEX
  5
14C
  8
0
 10
8.592361659798362
 20
7.199768000392891
 30
0.0
  0
VERTEX
  5
14D
  8
0
 10
8.593090076086611
 20
7.198610680855538
 30
0.0
  0
VERTEX
  5
14E
  8
0
 10
8.593816049359402
 20
7.197445962503049
 30
0.0
  0
VERTEX
  5
14F
  8
0
 10
8.594539573940489
 20
7.196274049225107
 30
0.0
  0
VERTEX
  5
150
  8
0
 10
8.595260644153596
 20
7.195095144911387
 30
0.0
  0
VERTEX
  5
151
  8
0
 10
8.595979254322469
 20
7.193909453451565
 30
0.0
  0
VERTEX
  5
152
  8
0
 10
8.596695398770846
 20
7.192717178735321
 30
0.0
  0
VERTEX
  5
153
  8
0
 10
8.597409071822467
 20
7.191518524652331
 30
0.0
  0
VERTEX
  5
154
  8
0
 10
8.59812026780107
 20
7.190313695092271
 30
0.0
  0
VERTEX
  5
155
  8
0
 10
8.598828981030394
 20
7.18910289394482
 30
0.0
  0
VERTEX
  5
156
  8
0
 10
8.599535205833584
 20
7.187886325097431
 30
0.0
  0
VERTEX
  5
157
  8
0
 10
8.600238924037917
 20
7.186664145367517
 30
0.0
  0
VERTEX
  5
158
  8
0
 10
8.600940072797933
 20
7.185436343297287
 30
0.0
  0
VERTEX
  5
159
  8
0
 10
8.601638579289297
 20
7.184202869840038
 30
0.0
  0
VERTEX
  5
15A
  8
0
 10
8.602334370687666
 20
7.182963675949067
 30
0.0
  0
VERTEX
  5
15B
  8
0
 10
8.603027374168711
 20
7.181718712577671
 30
0.0
  0
VERTEX
  5
15C
  8
0
 10
8.603717516908086
 20
7.180467930679146
 30
0.0
  0
VERTEX
  5
15D
  8
0
 10
8.604404726081455
 20
7.17921128120679
 30
0.0
  0
VERTEX
  5
15E
  8
0
 10
8.60508892886448
 20
7.177948715113896
 30
0.0
  0
VERTEX
  5
15F
  8
0
 10
8.605770052432824
 20
7.176680183353763
 30
0.0
  0
VERTEX
  5
160
  8
0
 10
8.606448023962146
 20
7.17540563687969
 30
0.0
  0
VERTEX
  5
161
  8
0
 10
8.607122771473998
 20
7.174125029114463
 30
0.0
  0
VERTEX
  5
162
  8
0
 10
8.607794237851605
 20
7.17283835686819
 30
0.0
  0
VERTEX
  5
163
  8
0
 10
8.608462378662814
 20
7.171545653982593
 30
0.0
  0
VERTEX
  5
164
  8
0
 10
8.609127149882529
 20
7.170246955487751
 30
0.0
  0
VERTEX
  5
165
  8
0
 10
8.609788507485652
 20
7.168942296413746
 30
0.0
  0
VERTEX
  5
166
  8
0
 10
8.610446407447085
 20
7.167631711790654
 30
0.0
  0
VERTEX
  5
167
  8
0
 10
8.611100805741735
 20
7.166315236648559
 30
0.0
  0
VERTEX
  5
168
  8
0
 10
8.611751658344502
 20
7.164992906017539
 30
0.0
  0
VERTEX
  5
169
  8
0
 10
8.612398921019196
 20
7.163664754488149
 30
0.0
  0
VERTEX
  5
16A
  8
0
 10
8.6130425443219
 20
7.162330805807654
 30
0.0
  0
VERTEX
  5
16B
  8
0
 10
8.613682473397162
 20
7.160991072455715
 30
0.0
  0
VERTEX
  5
16C
  8
0
 10
8.614318653137682
 20
7.159645566387568
 30
0.0
  0
VERTEX
  5
16D
  8
0
 10
8.614951028436145
 20
7.158294299558457
 30
0.0
  0
VERTEX
  5
16E
  8
0
 10
8.615579544185247
 20
7.156937283923616
 30
0.0
  0
VERTEX
  5
16F
  8
0
 10
8.616204145277674
 20
7.155574531438285
 30
0.0
  0
VERTEX
  5
170
  8
0
 10
8.616824776606121
 20
7.154206054057705
 30
0.0
  0
VERTEX
  5
171
  8
0
 10
8.617441383087298
 20
7.152831863860834
 30
0.0
  0
VERTEX
  5
172
  8
0
 10
8.61805391056169
 20
7.151451977684671
 30
0.0
  0
VERTEX
  5
173
  8
0
 10
8.618662306064035
 20
7.150066418517388
 30
0.0
  0
VERTEX
  5
174
  8
0
 10
8.6192665167083
 20
7.148675209755261
 30
0.0
  0
VERTEX
  5
175
  8
0
 10
8.619866489608455
 20
7.147278374794581
 30
0.0
  0
VERTEX
  5
176
  8
0
 10
8.620462171878472
 20
7.145875937031628
 30
0.0
  0
VERTEX
  5
177
  8
0
 10
8.62105351063232
 20
7.144467919862689
 30
0.0
  0
VERTEX
  5
178
  8
0
 10
8.62164045298397
 20
7.143054346684043
 30
0.0
  0
VERTEX
  5
179
  8
0
 10
8.622222945928913
 20
7.14163524081436
 30
0.0
  0
VERTEX
  5
17A
  8
0
 10
8.622800928583683
 20
7.140210620410499
 30
0.0
  0
VERTEX
  5
17B
  8
0
 10
8.623374327387765
 20
7.138780495324115
 30
0.0
  0
VERTEX
  5
17C
  8
0
 10
8.62394306763398
 20
7.137344874655636
 30
0.0
  0
VERTEX
  5
17D
  8
0
 10
8.624507074615135
 20
7.13590376750548
 30
0.0
  0
VERTEX
  5
17E
  8
0
 10
8.625066273624041
 20
7.134457182974077
 30
0.0
  0
VERTEX
  5
17F
  8
0
 10
8.625620589953515
 20
7.133005130161847
 30
0.0
  0
VERTEX
  5
180
  8
0
 10
8.626169948896369
 20
7.131547618169217
 30
0.0
  0
VERTEX
  5
181
  8
0
 10
8.626714275814699
 20
7.130084656180479
 30
0.0
  0
VERTEX
  5
182
  8
0
 10
8.627253504851106
 20
7.128616264008369
 30
0.0
  0
VERTEX
  5
183
  8
0
 10
8.627787587418954
 20
7.127142482371183
 30
0.0
  0
VERTEX
  5
184
  8
0
 10
8.62831647694663
 20
7.125663354426326
 30
0.0
  0
VERTEX
  5
185
  8
0
 10
8.628840126862515
 20
7.1241789233312
 30
0.0
  0
VERTEX
  5
186
  8
0
 10
8.629358490595
 20
7.122689232243207
 30
0.0
  0
VERTEX
  5
187
  8
0
 10
8.629871521572468
 20
7.121194324319751
 30
0.0
  0
VERTEX
  5
188
  8
0
 10
8.630379173223309
 20
7.119694242718237
 30
0.0
  0
VERTEX
  5
189
  8
0
 10
8.630881398975905
 20
7.118189030596065
 30
0.0
  0
VERTEX
  5
18A
  8
0
 10
8.631378153526196
 20
7.116678732295882
 30
0.0
  0
VERTEX
  5
18B
  8
0
 10
8.631869398790379
 20
7.115163398911748
 30
0.0
  0
VERTEX
  5
18C
  8
0
 10
8.632355099237476
 20
7.113643083924776
 30
0.0
  0
VERTEX
  5
18D
  8
0
 10
8.632835219339457
 20
7.112117840818843
 30
0.0
  0
VERTEX
  5
18E
  8
0
 10
8.633309723568296
 20
7.11058772307782
 30
0.0
  0
VERTEX
  5
18F
  8
0
 10
8.633778576395962
 20
7.109052784185582
 30
0.0
  0
VERTEX
  5
190
  8
0
 10
8.634241742294428
 20
7.107513077625998
 30
0.0
  0
VERTEX
  5
191
  8
0
 10
8.634699185735657
 20
7.105968656882938
 30
0.0
  0
VERTEX
  5
192
  8
0
 10
8.635150870991936
 20
7.104419575369657
 30
0.0
  0
VERTEX
  5
193
  8
0
 10
8.635596757617904
 20
7.102865884830945
 30
0.0
  0
VERTEX
  5
194
  8
0
 10
8.63603680038016
 20
7.101307635318246
 30
0.0
  0
VERTEX
  5
195
  8
0
 10
8.636470953831534
 20
7.099744876807402
 30
0.0
  0
VERTEX
  5
196
  8
0
 10
8.63689917252486
 20
7.09817765927425
 30
0.0
  0
VERTEX
  5
197
  8
0
 10
8.637321411012964
 20
7.096606032694632
 30
0.0
  0
VERTEX
  5
198
  8
0
 10
8.637737623848677
 20
7.095030047044386
 30
0.0
  0
VERTEX
  5
199
  8
0
 10
8.638147765584833
 20
7.093449752299354
 30
0.0
  0
VERTEX
  5
19A
  8
0
 10
8.638551790773422
 20
7.091865198435854
 30
0.0
  0
VERTEX
  5
19B
  8
0
 10
8.63894965267526
 20
7.09027643616987
 30
0.0
  0
VERTEX
  5
19C
  8
0
 10
8.639341300654376
 20
7.088683518449705
 30
0.0
  0
VERTEX
  5
19D
  8
0
 10
8.639726683342554
 20
7.087086498643123
 30
0.0
  0
VERTEX
  5
19E
  8
0
 10
8.640105749371592
 20
7.085485430117902
 30
0.0
  0
VERTEX
  5
19F
  8
0
 10
8.640478447373273
 20
7.083880366241811
 30
0.0
  0
VERTEX
  5
1A0
  8
0
 10
8.640844725979388
 20
7.082271360382616
 30
0.0
  0
VERTEX
  5
1A1
  8
0
 10
8.64120453382173
 20
7.08065846590809
 30
0.0
  0
VERTEX
  5
1A2
  8
0
 10
8.641557819532084
 20
7.079041736186002
 30
0.0
  0
VERTEX
  5
1A3
  8
0
 10
8.64190453158824
 20
7.077421224936947
 30
0.0
  0
VERTEX
  5
1A4
  8
0
 10
8.642244616867638
 20
7.075796989547908
 30
0.0
  0
VERTEX
  5
1A5
  8
0
 10
8.642578021298842
 20
7.074169089579772
 30
0.0
  0
VERTEX
  5
1A6
  8
0
 10
8.642904690797945
 20
7.072537584621959
 30
0.0
  0
VERTEX
  5
1A7
  8
0
 10
8.643224571281053
 20
7.070902534263888
 30
0.0
  0
VERTEX
  5
1A8
  8
0
 10
8.64353760866427
 20
7.069263998094974
 30
0.0
  0
VERTEX
  5
1A9
  8
0
 10
8.643843748863699
 20
7.067622035704634
 30
0.0
  0
VERTEX
  5
1AA
  8
0
 10
8.644142937795442
 20
7.065976706682289
 30
0.0
  0
VERTEX
  5
1AB
  8
0
 10
8.64443512127198
 20
7.064328070647249
 30
0.0
  0
VERTEX
  5
1AC
  8
0
 10
8.64472023806315
 20
7.062676189250851
 30
0.0
  0
VERTEX
  5
1AD
  8
0
 10
8.644998215519387
 20
7.061021127439264
 30
0.0
  0
VERTEX
  5
1AE
  8
0
 10
8.645268979947566
 20
7.059362950459763
 30
0.0
  0
VERTEX
  5
1AF
  8
0
 10
8.645532457654554
 20
7.057701723559622
 30
0.0
  0
VERTEX
  5
1B0
  8
0
 10
8.645788574947213
 20
7.056037511986112
 30
0.0
  0
VERTEX
  5
1B1
  8
0
 10
8.646037258132417
 20
7.05437038098651
 30
0.0
  0
VERTEX
  5
1B2
  8
0
 10
8.646278433517029
 20
7.052700395808089
 30
0.0
  0
VERTEX
  5
1B3
  8
0
 10
8.646512027407923
 20
7.051027621698125
 30
0.0
  0
VERTEX
  5
1B4
  8
0
 10
8.646737976976619
 20
7.049352128344561
 30
0.0
  0
VERTEX
  5
1B5
  8
0
 10
8.646956268551778
 20
7.047674005527149
 30
0.0
  0
VERTEX
  5
1B6
  8
0
 10
8.647166902357956
 20
7.045993348705259
 30
0.0
  0
VERTEX
  5
1B7
  8
0
 10
8.64736987862056
 20
7.044310253338609
 30
0.0
  0
VERTEX
  5
1B8
  8
0
 10
8.647565197565001
 20
7.042624814886918
 30
0.0
  0
VERTEX
  5
1B9
  8
0
 10
8.647752859416679
 20
7.040937128809898
 30
0.0
  0
VERTEX
  5
1BA
  8
0
 10
8.647932864401005
 20
7.039247290567274
 30
0.0
  0
VERTEX
  5
1BB
  8
0
 10
8.648105212743387
 20
7.037555395618757
 30
0.0
  0
VERTEX
  5
1BC
  8
0
 10
8.648269904896924
 20
7.035861539284831
 30
0.0
  0
VERTEX
  5
1BD
  8
0
 10
8.648426945280024
 20
7.034165814461194
 30
0.0
  0
VERTEX
  5
1BE
  8
0
 10
8.64857634167699
 20
7.032468311985291
 30
0.0
  0
VERTEX
  5
1BF
  8
0
 10
8.64871810197893
 20
7.03076912262926
 30
0.0
  0
VERTEX
  5
1C0
  8
0
 10
8.648852234076951
 20
7.02906833716524
 30
0.0
  0
VERTEX
  5
1C1
  8
0
 10
8.648978745862161
 20
7.027366046365369
 30
0.0
  0
VERTEX
  5
1C2
  8
0
 10
8.649097645225664
 20
7.025662341001786
 30
0.0
  0
VERTEX
  5
1C3
  8
0
 10
8.64920894005857
 20
7.023957311846628
 30
0.0
  0
VERTEX
  5
1C4
  8
0
 10
8.649312638247537
 20
7.022251049670456
 30
0.0
  0
VERTEX
  5
1C5
  8
0
 10
8.649408745063297
 20
7.020543644316762
 30
0.0
  0
VERTEX
  5
1C6
  8
0
 10
8.649497258758426
 20
7.01883518314184
 30
0.0
  0
VERTEX
  5
1C7
  8
0
 10
8.649578176420786
 20
7.017125753089212
 30
0.0
  0
VERTEX
  5
1C8
  8
0
 10
8.649651495138242
 20
7.015415441102411
 30
0.0
  0
VERTEX
  5
1C9
  8
0
 10
8.64971721199865
 20
7.013704334124959
 30
0.0
  0
VERTEX
  5
1CA
  8
0
 10
8.64977532408988
 20
7.011992519100381
 30
0.0
  0
VERTEX
  5
1CB
  8
0
 10
8.64982582849979
 20
7.010280082972203
 30
0.0
  0
VERTEX
  5
1CC
  8
0
 10
8.649868722316247
 20
7.008567112683954
 30
0.0
  0
VERTEX
  5
1CD
  8
0
 10
8.649904002356003
 20
7.006853695213935
 30
0.0
  0
VERTEX
  5
1CE
  8
0
 10
8.649931662555707
 20
7.005139917909886
 30
0.0
  0
VERTEX
  5
1CF
  8
0
 10
8.649951695115192
 20
7.003425868342337
 30
0.0
  0
VERTEX
  5
1D0
  8
0
 10
8.64996409221034
 20
7.001711634084892
 30
0.0
  0
VERTEX
  5
1D1
  8
0
 10
8.649968846017028
 20
6.99999730271115
 30
0.0
  0
VERTEX
  5
1D2
  8
0
 10
8.64996594871114
 20
6.998282961794716
 30
0.0
  0
VERTEX
  5
1D3
  8
0
 10
8.649955392468552
 20
6.996568698909189
 30
0.0
  0
VERTEX
  5
1D4
  8
0
 10
8.649937169465149
 20
6.994854601628174
 30
0.0
  0
VERTEX
  5
1D5
  8
0
 10
8.649911271849072
 20
6.993140757534999
 30
0.0
  0
VERTEX
  5
1D6
  8
0
 10
8.64987768837702
 20
6.991427255402507
 30
0.0
  0
VERTEX
  5
1D7
  8
0
 10
8.649836401199838
 20
6.989714186320478
 30
0.0
  0
VERTEX
  5
1D8
  8
0
 10
8.649787391706734
 20
6.988001641645829
 30
0.0
  0
VERTEX
  5
1D9
  8
0
 10
8.649730641286903
 20
6.986289712735476
 30
0.0
  0
VERTEX
  5
1DA
  8
0
 10
8.649666131329546
 20
6.984578490946339
 30
0.0
  0
VERTEX
  5
1DB
  8
0
 10
8.649593843223862
 20
6.982868067635337
 30
0.0
  0
VERTEX
  5
1DC
  8
0
 10
8.649513758359054
 20
6.981158534159388
 30
0.0
  0
VERTEX
  5
1DD
  8
0
 10
8.64942585812432
 20
6.979449981875406
 30
0.0
  0
VERTEX
  5
1DE
  8
0
 10
8.64933012461662
 20
6.977742502942538
 30
0.0
  0
VERTEX
  5
1DF
  8
0
 10
8.649226544805552
 20
6.97603619504288
 30
0.0
  0
VERTEX
  5
1E0
  8
0
 10
8.649115107711957
 20
6.974331158183552
 30
0.0
  0
VERTEX
  5
1E1
  8
0
 10
8.648995802363824
 20
6.972627492379771
 30
0.0
  0
VERTEX
  5
1E2
  8
0
 10
8.648868617789146
 20
6.970925297646756
 30
0.0
  0
VERTEX
  5
1E3
  8
0
 10
8.648733543015913
 20
6.969224673999728
 30
0.0
  0
VERTEX
  5
1E4
  8
0
 10
8.64859056707212
 20
6.967525721453907
 30
0.0
  0
VERTEX
  5
1E5
  8
0
 10
8.648439678985754
 20
6.965828540024513
 30
0.0
  0
VERTEX
  5
1E6
  8
0
 10
8.648280868820219
 20
6.964133229399608
 30
0.0
  0
VERTEX
  5
1E7
  8
0
 10
8.648114161211371
 20
6.962439878343521
 30
0.0
  0
VERTEX
  5
1E8
  8
0
 10
8.647939622671553
 20
6.960748562389002
 30
0.0
  0
VERTEX
  5
1E9
  8
0
 10
8.647757322226187
 20
6.959059356274754
 30
0.0
  0
VERTEX
  5
1EA
  8
0
 10
8.647567328900687
 20
6.957372334739492
 30
0.0
  0
VERTEX
  5
1EB
  8
0
 10
8.647369711720465
 20
6.955687572521915
 30
0.0
  0
VERTEX
  5
1EC
  8
0
 10
8.647164539710946
 20
6.954005144360737
 30
0.0
  0
VERTEX
  5
1ED
  8
0
 10
8.646951881897538
 20
6.952325124994661
 30
0.0
  0
VERTEX
  5
1EE
  8
0
 10
8.64673180603474
 20
6.950647588911152
 30
0.0
  0
VERTEX
  5
1EF
  8
0
 10
8.646504367120258
 20
6.948972608075846
 30
0.0
  0
VERTEX
  5
1F0
  8
0
 10
8.646269612788256
 20
6.947300252998719
 30
0.0
  0
VERTEX
  5
1F1
  8
0
 10
8.646027590583833
 20
6.945630594172135
 30
0.0
  0
VERTEX
  5
1F2
  8
0
 10
8.64577834805209
 20
6.943963702088467
 30
0.0
  0
VERTEX
  5
1F3
  8
0
 10
8.64552193273813
 20
6.942299647240078
 30
0.0
  0
VERTEX
  5
1F4
  8
0
 10
8.645258392187042
 20
6.940638500119335
 30
0.0
  0
VERTEX
  5
1F5
  8
0
 10
8.644987773943932
 20
6.938980331218606
 30
0.0
  0
VERTEX
  5
1F6
  8
0
 10
8.644710125272548
 20
6.937325210112807
 30
0.0
  0
VERTEX
  5
1F7
  8
0
 10
8.644425492201222
 20
6.935673202348235
 30
0.0
  0
VERTEX
  5
1F8
  8
0
 10
8.644133920419275
 20
6.934024372365729
 30
0.0
  0
VERTEX
  5
1F9
  8
0
 10
8.643835455616026
 20
6.932378784606093
 30
0.0
  0
VERTEX
  5
1FA
  8
0
 10
8.64353014348079
 20
6.930736503510134
 30
0.0
  0
VERTEX
  5
1FB
  8
0
 10
8.64321802970288
 20
6.929097593518657
 30
0.0
  0
VERTEX
  5
1FC
  8
0
 10
8.642899159971615
 20
6.92746211907247
 30
0.0
  0
VERTEX
  5
1FD
  8
0
 10
8.64257357996557
 20
6.925830144607514
 30
0.0
  0
VERTEX
  5
1FE
  8
0
 10
8.642241333523378
 20
6.924201733726476
 30
0.0
  0
VERTEX
  5
1FF
  8
0
 10
8.641902460574885
 20
6.922576948261852
 30
0.0
  0
VERTEX
  5
200
  8
0
 10
8.641557000550208
 20
6.920955849819833
 30
0.0
  0
VERTEX
  5
201
  8
0
 10
8.641204992879462
 20
6.919338500006606
 30
0.0
  0
VERTEX
  5
202
  8
0
 10
8.640846476992763
 20
6.917724960428356
 30
0.0
  0
VERTEX
  5
203
  8
0
 10
8.640481492320223
 20
6.916115292691272
 30
0.0
  0
VERTEX
  5
204
  8
0
 10
8.640110078291967
 20
6.914509558401542
 30
0.0
  0
VERTEX
  5
205
  8
0
 10
8.639732274196193
 20
6.912907819206994
 30
0.0
  0
VERTEX
  5
206
  8
0
 10
8.639348115433785
 20
6.911310137896232
 30
0.0
  0
VERTEX
  5
207
  8
0
 10
8.638957633136734
 20
6.909716578510592
 30
0.0
  0
VERTEX
  5
208
  8
0
 10
8.638560858218613
 20
6.908127205155519
 30
0.0
  0
VERTEX
  5
209
  8
0
 10
8.638157821592984
 20
6.906542081936448
 30
0.0
  0
VERTEX
  5
20A
  8
0
 10
8.63774855417342
 20
6.904961272958821
 30
0.0
  0
VERTEX
  5
20B
  8
0
 10
8.637333086873483
 20
6.903384842328077
 30
0.0
  0
VERTEX
  5
20C
  8
0
 10
8.636911450606743
 20
6.901812854149656
 30
0.0
  0
VERTEX
  5
20D
  8
0
 10
8.636483676659875
 20
6.900245372134853
 30
0.0
  0
VERTEX
  5
20E
  8
0
 10
8.636049799910982
 20
6.898682456201037
 30
0.0
  0
VERTEX
  5
20F
  8
0
 10
8.635609857244054
 20
6.8971241641466
 30
0.0
  0
VERTEX
  5
210
  8
0
 10
8.63516388556495
 20
6.895570553746829
 30
0.0
  0
VERTEX
  5
211
  8
0
 10
8.63471192177953
 20
6.894021682777006
 30
0.0
  0
VERTEX
  5
212
  8
0
 10
8.63425400279366
 20
6.892477609012415
 30
0.0
  0
VERTEX
  5
213
  8
0
 10
8.633790165513192
 20
6.890938390228338
 30
0.0
  0
VERTEX
  5
214
  8
0
 10
8.633320446843998
 20
6.889404084200063
 30
0.0
  0
VERTEX
  5
215
  8
0
 10
8.632844889907572
 20
6.887874743276395
 30
0.0
  0
VERTEX
  5
216
  8
0
 10
8.632363562802299
 20
6.886350398000439
 30
0.0
  0
VERTEX
  5
217
  8
0
 10
8.631876539899482
 20
6.884831073438803
 30
0.0
  0
VERTEX
  5
218
  8
0
 10
8.63138389557043
 20
6.883316794658099
 30
0.0
  0
VERTEX
  5
219
  8
0
 10
8.630885704186452
 20
6.88180758672494
 30
0.0
  0
VERTEX
  5
21A
  8
0
 10
8.630382040118855
 20
6.88030347470594
 30
0.0
  0
VERTEX
  5
21B
  8
0
 10
8.629872977738946
 20
6.878804483667706
 30
0.0
  0
VERTEX
  5
21C
  8
0
 10
8.62935859141803
 20
6.87731063867685
 30
0.0
  0
VERTEX
  5
21D
  8
0
 10
8.628838954235592
 20
6.875821964921802
 30
0.0
  0
VERTEX
  5
21E
  8
0
 10
8.628314129689475
 20
6.8743384884945
 30
0.0
  0
VERTEX
  5
21F
  8
0
 10
8.627784176969579
 20
6.872860235893108
 30
0.0
  0
VERTEX
  5
220
  8
0
 10
8.627249155245197
 20
6.871387233617731
 30
0.0
  0
VERTEX
  5
221
  8
0
 10
8.626709123685616
 20
6.869919508168479
 30
0.0
  0
VERTEX
  5
222
  8
0
 10
8.62616414146013
 20
6.868457086045459
 30
0.0
  0
VERTEX
  5
223
  8
0
 10
8.625614267738028
 20
6.866999993748776
 30
0.0
  0
VERTEX
  5
224
  8
0
 10
8.625059561688598
 20
6.865548257778538
 30
0.0
  0
VERTEX
  5
225
  8
0
 10
8.624500082419374
 20
6.864101904453971
 30
0.0
  0
VERTEX
  5
226
  8
0
 10
8.62393588804553
 20
6.862660957188018
 30
0.0
  0
VERTEX
  5
227
  8
0
 10
8.623367035881868
 20
6.861225437049573
 30
0.0
  0
VERTEX
  5
228
  8
0
 10
8.622793583220378
 20
6.859795365040724
 30
0.0
  0
VERTEX
  5
229
  8
0
 10
8.622215587353056
 20
6.858370762163565
 30
0.0
  0
VERTEX
  5
22A
  8
0
 10
8.621633105571894
 20
6.856951649420187
 30
0.0
  0
VERTEX
  5
22B
  8
0
 10
8.62104619516888
 20
6.855538047812682
 30
0.0
  0
VERTEX
  5
22C
  8
0
 10
8.620454913436006
 20
6.854129978343138
 30
0.0
  0
VERTEX
  5
22D
  8
0
 10
8.61985931762786
 20
6.852727462013129
 30
0.0
  0
VERTEX
  5
22E
  8
0
 10
8.6192594630649
 20
6.851330519797339
 30
0.0
  0
VERTEX
  5
22F
  8
0
 10
8.618655402235706
 20
6.849939172631091
 30
0.0
  0
VERTEX
  5
230
  8
0
 10
8.618047187403679
 20
6.848553441446573
 30
0.0
  0
VERTEX
  5
231
  8
0
 10
8.617434870832211
 20
6.847173347175978
 30
0.0
  0
VERTEX
  5
232
  8
0
 10
8.6168185047847
 20
6.845798910751498
 30
0.0
  0
VERTEX
  5
233
  8
0
 10
8.616198141524542
 20
6.84443015310532
 30
0.0
  0
VERTEX
  5
234
  8
0
 10
8.615573833315134
 20
6.843067095169637
 30
0.0
  0
VERTEX
  5
235
  8
0
 10
8.614945632418554
 20
6.841709757875479
 30
0.0
  0
VERTEX
  5
236
  8
0
 10
8.614313590131193
 20
6.840358161303768
 30
0.0
  0
VERTEX
  5
237
  8
0
 10
8.61367775507817
 20
6.839012323183865
 30
0.0
  0
VERTEX
  5
238
  8
0
 10
8.613038175426547
 20
6.837672260841911
 30
0.0
  0
VERTEX
  5
239
  8
0
 10
8.612394899343405
 20
6.836337991604043
 30
0.0
  0
VERTEX
  5
23A
  8
0
 10
8.611747974995811
 20
6.835009532796399
 30
0.0
  0
VERTEX
  5
23B
  8
0
 10
8.61109745055084
 20
6.833686901745118
 30
0.0
  0
VERTEX
  5
23C
  8
0
 10
8.610443374175555
 20
6.83237011577634
 30
0.0
  0
VERTEX
  5
23D
  8
0
 10
8.60978579403703
 20
6.831059192216202
 30
0.0
  0
VERTEX
  5
23E
  8
0
 10
8.609124758072335
 20
6.829754150265798
 30
0.0
  0
VERTEX
  5
23F
  8
0
 10
8.608460312981633
 20
6.828455019209338
 30
0.0
  0
VERTEX
  5
240
  8
0
 10
8.607792505051087
 20
6.827161831705763
 30
0.0
  0
VERTEX
  5
241
  8
0
 10
8.607121380566587
 20
6.825874620416446
 30
0.0
  0
VERTEX
  5
242
  8
0
 10
8.606446985814006
 20
6.824593418002751
 30
0.0
  0
VERTEX
  5
243
  8
0
 10
8.605769367079226
 20
6.823318257126045
 30
0.0
  0
VERTEX
  5
244
  8
0
 10
8.605088570648125
 20
6.822049170447694
 30
0.0
  0
VERTEX
  5
245
  8
0
 10
8.60440464280658
 20
6.820786190629066
 30
0.0
  0
VERTEX
  5
246
  8
0
 10
8.603717631616123
 20
6.819529344967427
 30
0.0
  0
VERTEX
  5
247
  8
0
 10
8.603027603581745
 20
6.818278605043794
 30
0.0
  0
VERTEX
  5
248
  8
0
 10
8.602334636140437
 20
6.817033909414535
 30
0.0
  0
VERTEX
  5
249
  8
0
 10
8.601638806872472
 20
6.815795196203124
 30
0.0
  0
VERTEX
  5
24A
  8
0
 10
8.600940193358133
 20
6.814562403533045
 30
0.0
  0
VERTEX
  5
24B
  8
0
 10
8.600238873177696
 20
6.813335469527768
 30
0.0
  0
VERTEX
  5
24C
  8
0
 10
8.59953492391144
 20
6.812114332310777
 30
0.0
  0
VERTEX
  5
24D
  8
0
 10
8.598828423139643
 20
6.810898930005545
 30
0.0
  0
VERTEX
  5
24E
  8
0
 10
8.598119448442588
 20
6.809689200735554
 30
0.0
  0
VERTEX
  5
24F
  8
0
 10
8.597408076055027
 20
6.808485087618627
 30
0.0
  0
VERTEX
  5
250
  8
0
 10
8.596694345962641
 20
6.807286668322726
 30
0.0
  0
VERTEX
  5
251
  8
0
 10
8.595978258686223
 20
6.806094167002469
 30
0.0
  0
VERTEX
  5
252
  8
0
 10
8.595259812756431
 20
6.804907815199553
 30
0.0
  0
VERTEX
  5
253
  8
0
 10
8.594539006703915
 20
6.803727844455658
 30
0.0
  0
VERTEX
  5
254
  8
0
 10
8.593815839059323
 20
6.802554486312473
 30
0.0
  0
VERTEX
  5
255
  8
0
 10
8.593090308353316
 20
6.80138797231169
 30
0.0
  0
VERTEX
  5
256
  8
0
 10
8.592362413116533
 20
6.800228533994989
 30
0.0
  0
VERTEX
  5
257
  8
0
 10
8.591632151879635
 20
6.799076402904064
 30
0.0
  0
VERTEX
  5
258
  8
0
 10
8.590899523706787
 20
6.797931808373636
 30
0.0
  0
VERTEX
  5
259
  8
0
 10
8.590164605851339
 20
6.796794656296788
 30
0.0
  0
VERTEX
  5
25A
  8
0
 10
8.58942763537069
 20
6.795664191512571
 30
0.0
  0
VERTEX
  5
25B
  8
0
 10
8.588688868842986
 20
6.794539578109402
 30
0.0
  0
VERTEX
  5
25C
  8
0
 10
8.587948562846378
 20
6.793419980175704
 30
0.0
  0
VERTEX
  5
25D
  8
0
 10
8.58720697395902
 20
6.792304561799901
 30
0.0
  0
VERTEX
  5
25E
  8
0
 10
8.58646435875906
 20
6.791192487070411
 30
0.0
  0
VERTEX
  5
25F
  8
0
 10
8.585720973824646
 20
6.790082920075657
 30
0.0
  0
VERTEX
  5
260
  8
0
 10
8.58497707573393
 20
6.788975024904058
 30
0.0
  0
VERTEX
  5
261
  8
0
 10
8.584232921065066
 20
6.78786796564404
 30
0.0
  0
SEQEND
  5
993
  8
0
  0
POLYLINE
  5
F7
  8
0
 66
     1
 10
0.0
 20
0.0
 30
0.0
  0
VERTEX
  5
262
  8
0
 10
8.499999999143746
 20
7.300000000000011
 30
0.0
  0
VERTEX
  5
263
  8
0
 10
8.504038817856465
 20
7.296927970259941
 30
0.0
  0
VERTEX
  5
264
  8
0
 10
8.508039730420597
 20
7.293798372436638
 30
0.0
  0
VERTEX
  5
265
  8
0
 10
8.512001518316016
 20
7.29061190600187
 30
0.0
  0
VERTEX
  5
266
  8
0
 10
8.515922980210988
 20
7.287369304543258
 30
0.0
  0
VERTEX
  5
267
  8
0
 10
8.519802933148567
 20
7.28407133523577
 30
0.0
  0
VERTEX
  5
268
  8
0
 10
8.523640213713403
 20
7.280718798263951
 30
0.0
  0
VERTEX
  5
269
  8
0
 10
8.527433679176594
 20
7.277312526195762
 30
0.0
  0
VERTEX
  5
26A
  8
0
 10
8.531182208616272
 20
7.273853383308982
 30
0.0
  0
VERTEX
  5
26B
  8
0
 10
8.5348847040116
 20
7.270342264871308
 30
0.0
  0
VERTEX
  5
26C
  8
0
 10
8.538540091308004
 20
7.266780096375376
 30
0.0
  0
VERTEX
  5
26D
  8
0
 10
8.542147321451425
 20
7.263167832730063
 30
0.0
  0
VERTEX
  5
26E
  8
0
 10
8.545705371389573
 20
7.259506457409539
 30
0.0
  0
VERTEX
  5
26F
  8
0
 10
8.54921324503813
 20
7.255796981561681
 30
0.0
  0
VERTEX
  5
270
  8
0
 10
8.55266997421001
 20
7.252040443077499
 30
0.0
  0
VERTEX
  5
271
  8
0
 10
8.556074619505845
 20
7.248237905623422
 30
0.0
  0
VERTEX
  5
272
  8
0
 10
8.559426271164
 20
7.244390457638304
 30
0.0
  0
VERTEX
  5
273
  8
0
 10
8.562724049868482
 20
7.240499211297148
 30
0.0
  0
VERTEX
  5
274
  8
0
 10
8.565967107513227
 20
7.236565301443603
 30
0.0
  0
VERTEX
  5
275
  8
0
 10
8.56915462792144
 20
7.232589884493408
 30
0.0
  0
VERTEX
  5
276
  8
0
 10
8.572285827518652
 20
7.228574137310954
 30
0.0
  0
VERTEX
  5
277
  8
0
 10
8.575359955958394
 20
7.224519256061265
 30
0.0
  0
VERTEX
  5
278
  8
0
 10
8.57837629669947
 20
7.220426455039729
 30
0.0
  0
VERTEX
  5
279
  8
0
 10
8.581334167533944
 20
7.216296965481922
 30
0.0
  0
VERTEX
  5
27A
  8
0
 10
8.584232921065066
 20
7.212132034355974
 30
0.0
  0
SEQEND
  5
994
  8
0
  0
LINE
  5
F8
  8
0
 10
8.5
 20
7.450000000000003
 30
0.0
 11
8.499999999143746
 21
7.300000000000011
 31
0.0
  0
LINE
  5
F9
  8
0
 10
8.350000000000016
 20
7.450000000000003
 30
0.0
 11
8.5
 21
7.450000000000003
 31
0.0
  0
LINE
  5
FA
  8
0
 10
8.35000000436861
 20
7.212132034355974
 30
0.0
 11
8.350000000000016
 21
7.450000000000003
 31
0.0
  0
POLYLINE
  5
FB
  8
0
 66
     1
 10
0.0
 20
0.0
 30
0.0
  0
VERTEX
  5
27B
  8
0
 10
8.350000000000016
 20
6.78786796564404
 30
0.0
  0
VERTEX
  5
27C
  8
0
 10
8.351386364918307
 20
6.788370574286301
 30
0.0
  0
VERTEX
  5
27D
  8
0
 10
8.352771141083613
 20
6.788875737477179
 30
0.0
  0
VERTEX
  5
27E
  8
0
 10
8.354152739742947
 20
6.789386009765289
 30
0.0
  0
VERTEX
  5
27F
  8
0
 10
8.355529574558874
 20
6.789903941691213
 30
0.0
  0
VERTEX
  5
280
  8
0
 10
8.356900541521993
 20
6.790431283485679
 30
0.0
  0
VERTEX
  5
281
  8
0
 10
8.358265598496091
 20
6.790968023450801
 30
0.0
  0
VERTEX
  5
282
  8
0
 10
8.359624844838326
 20
6.791513915113739
 30
0.0
  0
VERTEX
  5
283
  8
0
 10
8.360978379905854
 20
6.792068712001659
 30
0.0
  0
VERTEX
  5
284
  8
0
 10
8.36232630305583
 20
6.792632167641725
 30
0.0
  0
VERTEX
  5
285
  8
0
 10
8.363668713645415
 20
6.7932040355611
 30
0.0
  0
VERTEX
  5
286
  8
0
 10
8.365005711031763
 20
6.793784069286951
 30
0.0
  0
VERTEX
  5
287
  8
0
 10
8.366337394572035
 20
6.794372022346443
 30
0.0
  0
VERTEX
  5
288
  8
0
 10
8.367663862713117
 20
6.794967649974089
 30
0.0
  0
VERTEX
  5
289
  8
0
 10
8.368985161420968
 20
6.795570805840803
 30
0.0
  0
VERTEX
  5
28A
  8
0
 10
8.370301256520534
 20
6.796181493934782
 30
0.0
  0
VERTEX
  5
28B
  8
0
 10
8.37161210708179
 20
6.79679973091426
 30
0.0
  0
VERTEX
  5
28C
  8
0
 10
8.372917672174715
 20
6.79742553343747
 30
0.0
  0
VERTEX
  5
28D
  8
0
 10
8.374217910869277
 20
6.798058918162642
 30
0.0
  0
VERTEX
  5
28E
  8
0
 10
8.37551278223546
 20
6.79869990174801
 30
0.0
  0
VERTEX
  5
28F
  8
0
 10
8.376802245343228
 20
6.799348500851802
 30
0.0
  0
VERTEX
  5
290
  8
0
 10
8.37808625926257
 20
6.800004732132259
 30
0.0
  0
VERTEX
  5
291
  8
0
 10
8.37936478373469
 20
6.800668611348058
 30
0.0
  0
VERTEX
  5
292
  8
0
 10
8.380637798466442
 20
6.801340127501375
 30
0.0
  0
VERTEX
  5
293
  8
0
 10
8.381905306025368
 20
6.802019238958091
 30
0.0
  0
VERTEX
  5
294
  8
0
 10
8.38316731023261
 20
6.802705902404129
 30
0.0
  0
VERTEX
  5
295
  8
0
 10
8.384423814909296
 20
6.803400074525406
 30
0.0
  0
VERTEX
  5
296
  8
0
 10
8.385674823876558
 20
6.804101712007845
 30
0.0
  0
VERTEX
  5
297
  8
0
 10
8.386920340955534
 20
6.804810771537367
 30
0.0
  0
VERTEX
  5
298
  8
0
 10
8.388160369967359
 20
6.805527209799893
 30
0.0
  0
VERTEX
  5
299
  8
0
 10
8.389394914733165
 20
6.806250983481342
 30
0.0
  0
VERTEX
  5
29A
  8
0
 10
8.390623978817768
 20
6.806982049980364
 30
0.0
  0
VERTEX
  5
29B
  8
0
 10
8.391847560877457
 20
6.807720380344599
 30
0.0
  0
VERTEX
  5
29C
  8
0
 10
8.393065655152647
 20
6.808465957900767
 30
0.0
  0
VERTEX
  5
29D
  8
0
 10
8.394278255726308
 20
6.809218766413362
 30
0.0
  0
VERTEX
  5
29E
  8
0
 10
8.39548535668142
 20
6.809978789646886
 30
0.0
  0
VERTEX
  5
29F
  8
0
 10
8.39668695210095
 20
6.810746011365839
 30
0.0
  0
VERTEX
  5
2A0
  8
0
 10
8.39788303606788
 20
6.811520415334719
 30
0.0
  0
VERTEX
  5
2A1
  8
0
 10
8.399073602665181
 20
6.812301985318027
 30
0.0
  0
VERTEX
  5
2A2
  8
0
 10
8.400258645975828
 20
6.813090705080262
 30
0.0
  0
VERTEX
  5
2A3
  8
0
 10
8.401438160230745
 20
6.813886558462604
 30
0.0
  0
VERTEX
  5
2A4
  8
0
 10
8.402612141643285
 20
6.81468953033372
 30
0.0
  0
VERTEX
  5
2A5
  8
0
 10
8.403780587842594
 20
6.815499606296071
 30
0.0
  0
VERTEX
  5
2A6
  8
0
 10
8.404943496488409
 20
6.816316771967984
 30
0.0
  0
VERTEX
  5
2A7
  8
0
 10
8.406100865240468
 20
6.817141012967772
 30
0.0
  0
VERTEX
  5
2A8
  8
0
 10
8.407252691758499
 20
6.817972314913756
 30
0.0
  0
VERTEX
  5
2A9
  8
0
 10
8.408398973702237
 20
6.818810663424248
 30
0.0
  0
VERTEX
  5
2AA
  8
0
 10
8.409539708731415
 20
6.819656044117575
 30
0.0
  0
VERTEX
  5
2AB
  8
0
 10
8.410674894505773
 20
6.820508442612049
 30
0.0
  0
VERTEX
  5
2AC
  8
0
 10
8.411804527913908
 20
6.821367845425108
 30
0.0
  0
VERTEX
  5
2AD
  8
0
 10
8.412928598598546
 20
6.822234247522761
 30
0.0
  0
VERTEX
  5
2AE
  8
0
 10
8.414047092232275
 20
6.823107648500093
 30
0.0
  0
VERTEX
  5
2AF
  8
0
 10
8.415159994447043
 20
6.823988047999614
 30
0.0
  0
VERTEX
  5
2B0
  8
0
 10
8.416267290874776
 20
6.824875445663818
 30
0.0
  0
VERTEX
  5
2B1
  8
0
 10
8.417368967147413
 20
6.825769841135219
 30
0.0
  0
VERTEX
  5
2B2
  8
0
 10
8.418465008896886
 20
6.82667123405631
 30
0.0
  0
VERTEX
  5
2B3
  8
0
 10
8.419555401755131
 20
6.827579624069601
 30
0.0
  0
VERTEX
  5
2B4
  8
0
 10
8.420640131354078
 20
6.828495010817592
 30
0.0
  0
VERTEX
  5
2B5
  8
0
 10
8.42171918237474
 20
6.829417392172666
 30
0.0
  0
VERTEX
  5
2B6
  8
0
 10
8.422792533581157
 20
6.830346754992964
 30
0.0
  0
VERTEX
  5
2B7
  8
0
 10
8.423860161465234
 20
6.831283081907117
 30
0.0
  0
VERTEX
  5
2B8
  8
0
 10
8.424922042514181
 20
6.832226355535012
 30
0.0
  0
VERTEX
  5
2B9
  8
0
 10
8.425978153215212
 20
6.833176558496541
 30
0.0
  0
VERTEX
  5
2BA
  8
0
 10
8.427028470055532
 20
6.834133673411593
 30
0.0
  0
VERTEX
  5
2BB
  8
0
 10
8.42807296952235
 20
6.835097682900054
 30
0.0
  0
VERTEX
  5
2BC
  8
0
 10
8.42911162810288
 20
6.836068569581814
 30
0.0
  0
VERTEX
  5
2BD
  8
0
 10
8.430144422284327
 20
6.837046316076763
 30
0.0
  0
VERTEX
  5
2BE
  8
0
 10
8.431171328648945
 20
6.838030905057253
 30
0.0
  0
VERTEX
  5
2BF
  8
0
 10
8.432192324585204
 20
6.839022319640679
 30
0.0
  0
VERTEX
  5
2C0
  8
0
 10
8.433207387887954
 20
6.840020543168763
 30
0.0
  0
VERTEX
  5
2C1
  8
0
 10
8.434216496355157
 20
6.841025558984948
 30
0.0
  0
VERTEX
  5
2C2
  8
0
 10
8.43521962778477
 20
6.842037350432666
 30
0.0
  0
VERTEX
  5
2C3
  8
0
 10
8.43621675997475
 20
6.843055900855356
 30
0.0
  0
VERTEX
  5
2C4
  8
0
 10
8.437207870723062
 20
6.844081193596457
 30
0.0
  0
VERTEX
  5
2C5
  8
0
 10
8.438192937827662
 20
6.845113211999408
 30
0.0
  0
VERTEX
  5
2C6
  8
0
 10
8.439171939086503
 20
6.846151939407642
 30
0.0
  0
VERTEX
  5
2C7
  8
0
 10
8.44014485192174
 20
6.847197359336612
 30
0.0
  0
VERTEX
  5
2C8
  8
0
 10
8.441111648763885
 20
6.848249457586417
 30
0.0
  0
VERTEX
  5
2C9
  8
0
 10
8.4420722985003
 20
6.84930822157886
 30
0.0
  0
VERTEX
  5
2CA
  8
0
 10
8.443026769942938
 20
6.850373638770251
 30
0.0
  0
VERTEX
  5
2CB
  8
0
 10
8.443975031903756
 20
6.851445696616904
 30
0.0
  0
VERTEX
  5
2CC
  8
0
 10
8.444917053194706
 20
6.852524382575128
 30
0.0
  0
VERTEX
  5
2CD
  8
0
 10
8.445852802627746
 20
6.853609684101241
 30
0.0
  0
VERTEX
  5
2CE
  8
0
 10
8.446782249014829
 20
6.854701588651549
 30
0.0
  0
VERTEX
  5
2CF
  8
0
 10
8.447705361167912
 20
6.855800083682369
 30
0.0
  0
VERTEX
  5
2D0
  8
0
 10
8.44862210773533
 20
6.856905156672036
 30
0.0
  0
VERTEX
  5
2D1
  8
0
 10
8.449532453447455
 20
6.858016795626257
 30
0.0
  0
VERTEX
  5
2D2
  8
0
 10
8.450436359028716
 20
6.859134989089965
 30
0.0
  0
VERTEX
  5
2D3
  8
0
 10
8.451333785022335
 20
6.860259725632478
 30
0.0
  0
VERTEX
  5
2D4
  8
0
 10
8.452224691971525
 20
6.861390993823118
 30
0.0
  0
VERTEX
  5
2D5
  8
0
 10
8.453109040419504
 20
6.862528782231204
 30
0.0
  0
VERTEX
  5
2D6
  8
0
 10
8.453986790909486
 20
6.863673079426054
 30
0.0
  0
VERTEX
  5
2D7
  8
0
 10
8.454857903984696
 20
6.864823873976992
 30
0.0
  0
VERTEX
  5
2D8
  8
0
 10
8.455722340188348
 20
6.865981154453337
 30
0.0
  0
VERTEX
  5
2D9
  8
0
 10
8.456580060028058
 20
6.867144909396138
 30
0.0
  0
VERTEX
  5
2DA
  8
0
 10
8.457431022187553
 20
6.868315125897978
 30
0.0
  0
VERTEX
  5
2DB
  8
0
 10
8.458275182689619
 20
6.869491788938235
 30
0.0
  0
VERTEX
  5
2DC
  8
0
 10
8.459112497346522
 20
6.870674883329094
 30
0.0
  0
VERTEX
  5
2DD
  8
0
 10
8.459942921970532
 20
6.871864393882749
 30
0.0
  0
VERTEX
  5
2DE
  8
0
 10
8.460766412373907
 20
6.873060305411378
 30
0.0
  0
VERTEX
  5
2DF
  8
0
 10
8.461582924368917
 20
6.874262602727172
 30
0.0
  0
VERTEX
  5
2E0
  8
0
 10
8.462392413767828
 20
6.875471270642318
 30
0.0
  0
VERTEX
  5
2E1
  8
0
 10
8.463194836382902
 20
6.876686293969
 30
0.0
  0
VERTEX
  5
2E2
  8
0
 10
8.463990147977064
 20
6.877907657525947
 30
0.0
  0
VERTEX
  5
2E3
  8
0
 10
8.46477829756283
 20
6.879135347026235
 30
0.0
  0
VERTEX
  5
2E4
  8
0
 10
8.465559220600559
 20
6.880369349978452
 30
0.0
  0
VERTEX
  5
2E5
  8
0
 10
8.466332850930035
 20
6.8816096541059
 30
0.0
  0
VERTEX
  5
2E6
  8
0
 10
8.467099122391058
 20
6.882856247131877
 30
0.0
  0
VERTEX
  5
2E7
  8
0
 10
8.467857968823413
 20
6.884109116779676
 30
0.0
  0
VERTEX
  5
2E8
  8
0
 10
8.468609324066898
 20
6.885368250772602
 30
0.0
  0
VERTEX
  5
2E9
  8
0
 10
8.469353121961309
 20
6.886633636833944
 30
0.0
  0
VERTEX
  5
2EA
  8
0
 10
8.470089296346432
 20
6.887905262687005
 30
0.0
  0
VERTEX
  5
2EB
  8
0
 10
8.470817781074686
 20
6.889183116034471
 30
0.0
  0
VERTEX
  5
2EC
  8
0
 10
8.471538515931323
 20
6.890467174892811
 30
0.0
  0
VERTEX
  5
2ED
  8
0
 10
8.472251456079668
 20
6.891757392171528
 30
0.0
  0
VERTEX
  5
2EE
  8
0
 10
8.472956559142048
 20
6.893053716765459
 30
0.0
  0
VERTEX
  5
2EF
  8
0
 10
8.473653782740781
 20
6.894356097569434
 30
0.0
  0
VERTEX
  5
2F0
  8
0
 10
8.474343084498193
 20
6.895664483478289
 30
0.0
  0
VERTEX
  5
2F1
  8
0
 10
8.475024422036604
 20
6.896978823386859
 30
0.0
  0
VERTEX
  5
2F2
  8
0
 10
8.475697752978345
 20
6.898299066189974
 30
0.0
  0
VERTEX
  5
2F3
  8
0
 10
8.476363034945729
 20
6.89962516078247
 30
0.0
  0
VERTEX
  5
2F4
  8
0
 10
8.477020225599984
 20
6.900957055985235
 30
0.0
  0
VERTEX
  5
2F5
  8
0
 10
8.477669283888421
 20
6.902294698174165
 30
0.0
  0
VERTEX
  5
2F6
  8
0
 10
8.478310170308884
 20
6.903638030777427
 30
0.0
  0
VERTEX
  5
2F7
  8
0
 10
8.478942845451586
 20
6.904986997047594
 30
0.0
  0
VERTEX
  5
2F8
  8
0
 10
8.479567269906749
 20
6.906341540237236
 30
0.0
  0
VERTEX
  5
2F9
  8
0
 10
8.480183404264583
 20
6.907701603598924
 30
0.0
  0
VERTEX
  5
2FA
  8
0
 10
8.480791209115306
 20
6.909067130385228
 30
0.0
  0
VERTEX
  5
2FB
  8
0
 10
8.481390645049132
 20
6.910438063848717
 30
0.0
  0
VERTEX
  5
2FC
  8
0
 10
8.481981672656277
 20
6.911814347241964
 30
0.0
  0
VERTEX
  5
2FD
  8
0
 10
8.482564251601914
 20
6.913195923893769
 30
0.0
  0
VERTEX
  5
2FE
  8
0
 10
8.48313833132288
 20
6.914582737975855
 30
0.0
  0
VERTEX
  5
2FF
  8
0
 10
8.483703854898177
 20
6.915974734183883
 30
0.0
  0
VERTEX
  5
300
  8
0
 10
8.484260765311186
 20
6.917371857221405
 30
0.0
  0
VERTEX
  5
301
  8
0
 10
8.484809005545271
 20
6.918774051791966
 30
0.0
  0
VERTEX
  5
302
  8
0
 10
8.485348518583802
 20
6.920181262599114
 30
0.0
  0
VERTEX
  5
303
  8
0
 10
8.485879247410153
 20
6.921593434346398
 30
0.0
  0
VERTEX
  5
304
  8
0
 10
8.486401135007696
 20
6.923010511737362
 30
0.0
  0
VERTEX
  5
305
  8
0
 10
8.486914124359801
 20
6.924432439475558
 30
0.0
  0
VERTEX
  5
306
  8
0
 10
8.4874181576321
 20
6.92585916133724
 30
0.0
  0
VERTEX
  5
307
  8
0
 10
8.487913172910067
 20
6.927290616471899
 30
0.0
  0
VERTEX
  5
308
  8
0
 10
8.488399107009156
 20
6.928726742588855
 30
0.0
  0
VERTEX
  5
309
  8
0
 10
8.488875896744412
 20
6.930167477396969
 30
0.0
  0
VERTEX
  5
30A
  8
0
 10
8.489343478930877
 20
6.9316127586051
 30
0.0
  0
VERTEX
  5
30B
  8
0
 10
8.489801790383595
 20
6.933062523922106
 30
0.0
  0
VERTEX
  5
30C
  8
0
 10
8.490250767917614
 20
6.934516711056848
 30
0.0
  0
VERTEX
  5
30D
  8
0
 10
8.490690348347973
 20
6.935975257718184
 30
0.0
  0
VERTEX
  5
30E
  8
0
 10
8.491120468457195
 20
6.937438101603501
 30
0.0
  0
VERTEX
  5
30F
  8
0
 10
8.491541056699848
 20
6.938905177472094
 30
0.0
  0
VERTEX
  5
310
  8
0
 10
8.491952022191507
 20
6.940376413260491
 30
0.0
  0
VERTEX
  5
311
  8
0
 10
8.492353271309353
 20
6.941851735939123
 30
0.0
  0
VERTEX
  5
312
  8
0
 10
8.492744710430578
 20
6.943331072478418
 30
0.0
  0
VERTEX
  5
313
  8
0
 10
8.493126245932357
 20
6.944814349848803
 30
0.0
  0
VERTEX
  5
314
  8
0
 10
8.493497784191883
 20
6.946301495020709
 30
0.0
  0
VERTEX
  5
315
  8
0
 10
8.493859231586335
 20
6.947792434964564
 30
0.0
  0
VERTEX
  5
316
  8
0
 10
8.494210494492899
 20
6.949287096650798
 30
0.0
  0
VERTEX
  5
317
  8
0
 10
8.49455148079724
 20
6.95078540637987
 30
0.0
  0
VERTEX
  5
318
  8
0
 10
8.49488213790308
 20
6.952287272900925
 30
0.0
  0
VERTEX
  5
319
  8
0
 10
8.495202455613297
 20
6.953792586132194
 30
0.0
  0
VERTEX
  5
31A
  8
0
 10
8.495512425816367
 20
6.955301235065617
 30
0.0
  0
VERTEX
  5
31B
  8
0
 10
8.495812040400757
 20
6.956813108693144
 30
0.0
  0
VERTEX
  5
31C
  8
0
 10
8.496101291254938
 20
6.958328096006719
 30
0.0
  0
VERTEX
  5
31D
  8
0
 10
8.496380170267383
 20
6.959846085998293
 30
0.0
  0
VERTEX
  5
31E
  8
0
 10
8.496648669338956
 20
6.961366967657834
 30
0.0
  0
VERTEX
  5
31F
  8
0
 10
8.496906784108466
 20
6.962890629380902
 30
0.0
  0
VERTEX
  5
320
  8
0
 10
8.497154519179576
 20
6.964416958137424
 30
0.0
  0
VERTEX
  5
321
  8
0
 10
8.497391880472133
 20
6.965945840688025
 30
0.0
  0
VERTEX
  5
322
  8
0
 10
8.497618873905987
 20
6.967477163793335
 30
0.0
  0
VERTEX
  5
323
  8
0
 10
8.497835505400987
 20
6.969010814213974
 30
0.0
  0
VERTEX
  5
324
  8
0
 10
8.498041780876981
 20
6.970546678710569
 30
0.0
  0
VERTEX
  5
325
  8
0
 10
8.498237706253818
 20
6.972084644043747
 30
0.0
  0
VERTEX
  5
326
  8
0
 10
8.498423285581397
 20
6.973624597613324
 30
0.0
  0
VERTEX
  5
327
  8
0
 10
8.498598510996931
 20
6.975166430891118
 30
0.0
  0
VERTEX
  5
328
  8
0
 10
8.498763369962948
 20
6.976710036946868
 30
0.0
  0
VERTEX
  5
329
  8
0
 10
8.498917849930908
 20
6.97825530885408
 30
0.0
  0
VERTEX
  5
32A
  8
0
 10
8.499061938352307
 20
6.979802139686265
 30
0.0
  0
VERTEX
  5
32B
  8
0
 10
8.499195622678613
 20
6.981350422516929
 30
0.0
  0
VERTEX
  5
32C
  8
0
 10
8.499318890361307
 20
6.982900050419581
 30
0.0
  0
VERTEX
  5
32D
  8
0
 10
8.499431728669359
 20
6.984450916425507
 30
0.0
  0
VERTEX
  5
32E
  8
0
 10
8.499534120782128
 20
6.98600291261986
 30
0.0
  0
VERTEX
  5
32F
  8
0
 10
8.499626045848547
 20
6.98755593015535
 30
0.0
  0
VERTEX
  5
330
  8
0
 10
8.499707482846887
 20
6.989109860145208
 30
0.0
  0
VERTEX
  5
331
  8
0
 10
8.499778410755408
 20
6.990664593702662
 30
0.0
  0
VERTEX
  5
332
  8
0
 10
8.499838808552374
 20
6.992220021940939
 30
0.0
  0
VERTEX
  5
333
  8
0
 10
8.499888655216047
 20
6.993776035973269
 30
0.0
  0
VERTEX
  5
334
  8
0
 10
8.499927929712147
 20
6.995332526908182
 30
0.0
  0
VERTEX
  5
335
  8
0
 10
8.499956606651944
 20
6.996889384224715
 30
0.0
  0
VERTEX
  5
336
  8
0
 10
8.499974649926905
 20
6.998446493390401
 30
0.0
  0
VERTEX
  5
337
  8
0
 10
8.499982021808382
 20
7.000003739266494
 30
0.0
  0
VERTEX
  5
338
  8
0
 10
8.499978684567736
 20
7.001561006714256
 30
0.0
  0
VERTEX
  5
339
  8
0
 10
8.499964600476329
 20
7.003118180594955
 30
0.0
  0
VERTEX
  5
33A
  8
0
 10
8.49993973180551
 20
7.004675145769844
 30
0.0
  0
VERTEX
  5
33B
  8
0
 10
8.499904040826642
 20
7.006231787100187
 30
0.0
  0
VERTEX
  5
33C
  8
0
 10
8.499857490630484
 20
7.00778798845854
 30
0.0
  0
VERTEX
  5
33D
  8
0
 10
8.499800049644215
 20
7.00934362727843
 30
0.0
  0
VERTEX
  5
33E
  8
0
 10
8.49973168843168
 20
7.010898578415218
 30
0.0
  0
VERTEX
  5
33F
  8
0
 10
8.499652377562423
 20
7.012452716717415
 30
0.0
  0
VERTEX
  5
340
  8
0
 10
8.499562087605966
 20
7.014005917033531
 30
0.0
  0
VERTEX
  5
341
  8
0
 10
8.49946078913185
 20
7.015558054212081
 30
0.0
  0
VERTEX
  5
342
  8
0
 10
8.499348452709604
 20
7.017109003101576
 30
0.0
  0
VERTEX
  5
343
  8
0
 10
8.499225051802613
 20
7.018658639020103
 30
0.0
  0
VERTEX
  5
344
  8
0
 10
8.499090614781467
 20
7.020206846195287
 30
0.0
  0
VERTEX
  5
345
  8
0
 10
8.49894521913871
 20
7.021753516825566
 30
0.0
  0
VERTEX
  5
346
  8
0
 10
8.498788944099198
 20
7.023298543390458
 30
0.0
  0
VERTEX
  5
347
  8
0
 10
8.498621868887785
 20
7.024841818369491
 30
0.0
  0
VERTEX
  5
348
  8
0
 10
8.498444072729324
 20
7.026383234242191
 30
0.0
  0
VERTEX
  5
349
  8
0
 10
8.49825563484867
 20
7.027922683488079
 30
0.0
  0
VERTEX
  5
34A
  8
0
 10
8.498056634470677
 20
7.029460058586684
 30
0.0
  0
VERTEX
  5
34B
  8
0
 10
8.497847149490108
 20
7.030995252667397
 30
0.0
  0
VERTEX
  5
34C
  8
0
 10
8.497627242058932
 20
7.032528166551434
 30
0.0
  0
VERTEX
  5
34D
  8
0
 10
8.49739696403765
 20
7.03405870608833
 30
0.0
  0
VERTEX
  5
34E
  8
0
 10
8.497156367109092
 20
7.035586777214434
 30
0.0
  0
VERTEX
  5
34F
  8
0
 10
8.496905502956084
 20
7.037112285866101
 30
0.0
  0
VERTEX
  5
350
  8
0
 10
8.496644423261447
 20
7.038635137979681
 30
0.0
  0
VERTEX
  5
351
  8
0
 10
8.496373179708012
 20
7.04015523949153
 30
0.0
  0
VERTEX
  5
352
  8
0
 10
8.496091823978599
 20
7.041672496337997
 30
0.0
  0
VERTEX
  5
353
  8
0
 10
8.49580040728062
 20
7.043186814877647
 30
0.0
  0
VERTEX
  5
354
  8
0
 10
8.495498976768245
 20
7.044698105068697
 30
0.0
  0
VERTEX
  5
355
  8
0
 10
8.495187577543998
 20
7.046206278691419
 30
0.0
  0
VERTEX
  5
356
  8
0
 10
8.494866254694472
 20
7.047711247540228
 30
0.0
  0
VERTEX
  5
357
  8
0
 10
8.494535053306269
 20
7.049212923409535
 30
0.0
  0
VERTEX
  5
358
  8
0
 10
8.49419401846598
 20
7.050711218093761
 30
0.0
  0
VERTEX
  5
359
  8
0
 10
8.493843195260203
 20
7.052206043387319
 30
0.0
  0
VERTEX
  5
35A
  8
0
 10
8.493482628775535
 20
7.053697311084624
 30
0.0
  0
VERTEX
  5
35B
  8
0
 10
8.493112362333186
 20
7.055184932856237
 30
0.0
  0
VERTEX
  5
35C
  8
0
 10
8.492732427772925
 20
7.056668819567216
 30
0.0
  0
VERTEX
  5
35D
  8
0
 10
8.492342852343118
 20
7.058148881760502
 30
0.0
  0
VERTEX
  5
35E
  8
0
 10
8.491943663280022
 20
7.05962502997818
 30
0.0
  0
VERTEX
  5
35F
  8
0
 10
8.491534887819904
 20
7.061097174762346
 30
0.0
  0
VERTEX
  5
360
  8
0
 10
8.491116553199012
 20
7.062565226655084
 30
0.0
  0
VERTEX
  5
361
  8
0
 10
8.490688686653607
 20
7.064029096198488
 30
0.0
  0
VERTEX
  5
362
  8
0
 10
8.490251315419952
 20
7.065488693934643
 30
0.0
  0
VERTEX
  5
363
  8
0
 10
8.489804467374007
 20
7.066943930897132
 30
0.0
  0
VERTEX
  5
364
  8
0
 10
8.489348173541252
 20
7.068394720539316
 30
0.0
  0
VERTEX
  5
365
  8
0
 10
8.48888246591477
 20
7.069840977057979
 30
0.0
  0
VERTEX
  5
366
  8
0
 10
8.48840737648792
 20
7.07128261465011
 30
0.0
  0
VERTEX
  5
367
  8
0
 10
8.487922937254055
 20
7.072719547512698
 30
0.0
  0
VERTEX
  5
368
  8
0
 10
8.487429180206528
 20
7.07415168984273
 30
0.0
  0
VERTEX
  5
369
  8
0
 10
8.486926137338694
 20
7.075578955837192
 30
0.0
  0
VERTEX
  5
36A
  8
0
 10
8.486413840644818
 20
7.077001259693831
 30
0.0
  0
VERTEX
  5
36B
  8
0
 10
8.48589233232741
 20
7.07841852406434
 30
0.0
  0
VERTEX
  5
36C
  8
0
 10
8.485361690086272
 20
7.079830700997497
 30
0.0
  0
VERTEX
  5
36D
  8
0
 10
8.484821999331976
 20
7.081237748927744
 30
0.0
  0
VERTEX
  5
36E
  8
0
 10
8.484273345475108
 20
7.082639626289532
 30
0.0
  0
VERTEX
  5
36F
  8
0
 10
8.483715813926244
 20
7.084036291517312
 30
0.0
  0
VERTEX
  5
370
  8
0
 10
8.483149490095963
 20
7.085427703045533
 30
0.0
  0
VERTEX
  5
371
  8
0
 10
8.482574459394845
 20
7.086813819308647
 30
0.0
  0
VERTEX
  5
372
  8
0
 10
8.48199080723347
 20
7.088194598741102
 30
0.0
  0
VERTEX
  5
373
  8
0
 10
8.481398616082096
 20
7.08956999989253
 30
0.0
  0
VERTEX
  5
374
  8
0
 10
8.48079795172936
 20
7.090939981966031
 30
0.0
  0
VERTEX
  5
375
  8
0
 10
8.480188874088258
 20
7.092304504394872
 30
0.0
  0
VERTEX
  5
376
  8
0
 10
8.479571443065218
 20
7.093663526612581
 30
0.0
  0
VERTEX
  5
377
  8
0
 10
8.47894571856666
 20
7.095017008052679
 30
0.0
  0
VERTEX
  5
378
  8
0
 10
8.47831176049901
 20
7.09636490814869
 30
0.0
  0
VERTEX
  5
379
  8
0
 10
8.477669628768695
 20
7.097707186334142
 30
0.0
  0
VERTEX
  5
37A
  8
0
 10
8.477019383282137
 20
7.099043802042559
 30
0.0
  0
VERTEX
  5
37B
  8
0
 10
8.476361083638334
 20
7.100374715084564
 30
0.0
  0
VERTEX
  5
37C
  8
0
 10
8.475694786286347
 20
7.101699889134558
 30
0.0
  0
VERTEX
  5
37D
  8
0
 10
8.475020545827759
 20
7.10301929013313
 30
0.0
  0
VERTEX
  5
37E
  8
0
 10
8.474338416840675
 20
7.104332884049636
 30
0.0
  0
VERTEX
  5
37F
  8
0
 10
8.473648453903209
 20
7.105640636853442
 30
0.0
  0
VERTEX
  5
380
  8
0
 10
8.472950711593468
 20
7.106942514513907
 30
0.0
  0
VERTEX
  5
381
  8
0
 10
8.472245244489566
 20
7.108238483000394
 30
0.0
  0
VERTEX
  5
382
  8
0
 10
8.471532107169619
 20
7.109528508282271
 30
0.0
  0
VERTEX
  5
383
  8
0
 10
8.470811353902343
 20
7.110812556275932
 30
0.0
  0
VERTEX
  5
384
  8
0
 10
8.470083032180009
 20
7.112090591737735
 30
0.0
  0
VERTEX
  5
385
  8
0
 10
8.46934718290182
 20
7.113362578295392
 30
0.0
  0
VERTEX
  5
386
  8
0
 10
8.468603846694283
 20
7.114628479529931
 30
0.0
  0
VERTEX
  5
387
  8
0
 10
8.467853064183894
 20
7.11588825902238
 30
0.0
  0
VERTEX
  5
388
  8
0
 10
8.467094875997159
 20
7.117141880353766
 30
0.0
  0
VERTEX
  5
389
  8
0
 10
8.466329322760581
 20
7.118389307105119
 30
0.0
  0
VERTEX
  5
38A
  8
0
 10
8.465556445100656
 20
7.119630502857462
 30
0.0
  0
VERTEX
  5
38B
  8
0
 10
8.464776283646914
 20
7.120865431229425
 30
0.0
  0
VERTEX
  5
38C
  8
0
 10
8.463988879223846
 20
7.122094058269285
 30
0.0
  0
VERTEX
  5
38D
  8
0
 10
8.463194272966495
 20
7.123316353894902
 30
0.0
  0
VERTEX
  5
38E
  8
0
 10
8.462392506037606
 20
7.124532288369405
 30
0.0
  0
VERTEX
  5
38F
  8
0
 10
8.46158361959993
 20
7.125741831955929
 30
0.0
  0
VERTEX
  5
390
  8
0
 10
8.460767654816207
 20
7.126944954917604
 30
0.0
  0
VERTEX
  5
391
  8
0
 10
8.459944652849185
 20
7.12814162751756
 30
0.0
  0
VERTEX
  5
392
  8
0
 10
8.459114654861612
 20
7.129331820018931
 30
0.0
  0
VERTEX
  5
393
  8
0
 10
8.458277702020702
 20
7.130515502699608
 30
0.0
  0
VERTEX
  5
394
  8
0
 10
8.457433837279048
 20
7.131692651733999
 30
0.0
  0
VERTEX
  5
395
  8
0
 10
8.456583108094359
 20
7.132863258175468
 30
0.0
  0
VERTEX
  5
396
  8
0
 10
8.455725562623956
 20
7.134027315387936
 30
0.0
  0
VERTEX
  5
397
  8
0
 10
8.454861249025155
 20
7.135184816735331
 30
0.0
  0
VERTEX
  5
398
  8
0
 10
8.453990215455269
 20
7.136335755581575
 30
0.0
  0
VERTEX
  5
399
  8
0
 10
8.453112510071618
 20
7.137480125290591
 30
0.0
  0
VERTEX
  5
39A
  8
0
 10
8.452228181031515
 20
7.138617919226305
 30
0.0
  0
VERTEX
  5
39B
  8
0
 10
8.45133727649228
 20
7.139749130752638
 30
0.0
  0
VERTEX
  5
39C
  8
0
 10
8.450439844611225
 20
7.140873753233516
 30
0.0
  0
VERTEX
  5
39D
  8
0
 10
8.449535932878296
 20
7.141991779932353
 30
0.0
  0
VERTEX
  5
39E
  8
0
 10
8.448625579486798
 20
7.143103202712456
 30
0.0
  0
VERTEX
  5
39F
  8
0
 10
8.447708815810346
 20
7.144208012410059
 30
0.0
  0
VERTEX
  5
3A0
  8
0
 10
8.446785673065527
 20
7.145306199837746
 30
0.0
  0
VERTEX
  5
3A1
  8
0
 10
8.445856182468944
 20
7.146397755808107
 30
0.0
  0
VERTEX
  5
3A2
  8
0
 10
8.444920375237183
 20
7.147482671133726
 30
0.0
  0
VERTEX
  5
3A3
  8
0
 10
8.443978282586842
 20
7.148560936627194
 30
0.0
  0
VERTEX
  5
3A4
  8
0
 10
8.44302993573451
 20
7.149632543101091
 30
0.0
  0
VERTEX
  5
3A5
  8
0
 10
8.442075365896784
 20
7.150697481368009
 30
0.0
  0
VERTEX
  5
3A6
  8
0
 10
8.441114604290123
 20
7.151755742240526
 30
0.0
  0
VERTEX
  5
3A7
  8
0
 10
8.4401476813149
 20
7.152807316495348
 30
0.0
  0
VERTEX
  5
3A8
  8
0
 10
8.439174624620271
 20
7.153852194788242
 30
0.0
  0
VERTEX
  5
3A9
  8
0
 10
8.43819546127626
 20
7.154890367749515
 30
0.0
  0
VERTEX
  5
3AA
  8
0
 10
8.43721021835288
 20
7.155921826009472
 30
0.0
  0
VERTEX
  5
3AB
  8
0
 10
8.436218922920151
 20
7.156946560198421
 30
0.0
  0
VERTEX
  5
3AC
  8
0
 10
8.435221602048088
 20
7.157964560946667
 30
0.0
  0
VERTEX
  5
3AD
  8
0
 10
8.43421828280671
 20
7.158975818884522
 30
0.0
  0
VERTEX
  5
3AE
  8
0
 10
8.433208992266028
 20
7.159980324642287
 30
0.0
  0
VERTEX
  5
3AF
  8
0
 10
8.432193757496066
 20
7.160978068850275
 30
0.0
  0
VERTEX
  5
3B0
  8
0
 10
8.43117260541526
 20
7.161969042074305
 30
0.0
  0
VERTEX
  5
3B1
  8
0
 10
8.430145559223401
 20
7.162953233298287
 30
0.0
  0
VERTEX
  5
3B2
  8
0
 10
8.429112638267835
 20
7.163930629867289
 30
0.0
  0
VERTEX
  5
3B3
  8
0
 10
8.428073861717554
 20
7.164901219050501
 30
0.0
  0
VERTEX
  5
3B4
  8
0
 10
8.427029248741544
 20
7.165864988117123
 30
0.0
  0
VERTEX
  5
3B5
  8
0
 10
8.425978818508792
 20
7.166821924336347
 30
0.0
  0
VERTEX
  5
3B6
  8
0
 10
8.42492259018829
 20
7.167772014977364
 30
0.0
  0
VERTEX
  5
3B7
  8
0
 10
8.423860582949022
 20
7.168715247309373
 30
0.0
  0
VERTEX
  5
3B8
  8
0
 10
8.422792815959982
 20
7.169651608601565
 30
0.0
  0
VERTEX
  5
3B9
  8
0
 10
8.421719308390152
 20
7.170581086123136
 30
0.0
  0
VERTEX
  5
3BA
  8
0
 10
8.420640079326907
 20
7.171503666448629
 30
0.0
  0
VERTEX
  5
3BB
  8
0
 10
8.419555147444443
 20
7.172419332636211
 30
0.0
  0
VERTEX
  5
3BC
  8
0
 10
8.418464531286537
 20
7.173328066634007
 30
0.0
  0
VERTEX
  5
3BD
  8
0
 10
8.417368249396908
 20
7.174229850389727
 30
0.0
  0
VERTEX
  5
3BE
  8
0
 10
8.416266320319282
 20
7.17512466585107
 30
0.0
  0
VERTEX
  5
3BF
  8
0
 10
8.415158762597384
 20
7.176012494965747
 30
0.0
  0
VERTEX
  5
3C0
  8
0
 10
8.414045594774933
 20
7.176893319681456
 30
0.0
  0
VERTEX
  5
3C1
  8
0
 10
8.412926835395655
 20
7.177767121945907
 30
0.0
  0
VERTEX
  5
3C2
  8
0
 10
8.411802503003273
 20
7.178633883706802
 30
0.0
  0
VERTEX
  5
3C3
  8
0
 10
8.410672616015637
 20
7.179493586999492
 30
0.0
  0
VERTEX
  5
3C4
  8
0
 10
8.409537187344771
 20
7.180346217693046
 30
0.0
  0
VERTEX
  5
3C5
  8
0
 10
8.408396222374398
 20
7.181191766898509
 30
0.0
  0
VERTEX
  5
3C6
  8
0
 10
8.407249725945436
 20
7.182030226104893
 30
0.0
  0
VERTEX
  5
3C7
  8
0
 10
8.406097702898787
 20
7.182861586801204
 30
0.0
  0
VERTEX
  5
3C8
  8
0
 10
8.404940158075362
 20
7.183685840476453
 30
0.0
  0
VERTEX
  5
3C9
  8
0
 10
8.403777096316071
 20
7.184502978619647
 30
0.0
  0
VERTEX
  5
3CA
  8
0
 10
8.40260852246182
 20
7.185312992719796
 30
0.0
  0
VERTEX
  5
3CB
  8
0
 10
8.401434441360214
 20
7.186115874258267
 30
0.0
  0
VERTEX
  5
3CC
  8
0
 10
8.400254858265223
 20
7.186911614252265
 30
0.0
  0
VERTEX
  5
3CD
  8
0
 10
8.39906977906351
 20
7.187700202996332
 30
0.0
  0
VERTEX
  5
3CE
  8
0
 10
8.397879209696503
 20
7.188481630722468
 30
0.0
  0
VERTEX
  5
3CF
  8
0
 10
8.396683156105627
 20
7.189255887662674
 30
0.0
  0
VERTEX
  5
3D0
  8
0
 10
8.3954816242323
 20
7.190022964048947
 30
0.0
  0
VERTEX
  5
3D1
  8
0
 10
8.394274620017946
 20
7.190782850113286
 30
0.0
  0
VERTEX
  5
3D2
  8
0
 10
8.393062149403992
 20
7.191535536087692
 30
0.0
  0
VERTEX
  5
3D3
  8
0
 10
8.391844218276269
 20
7.192281012084421
 30
0.0
  0
VERTEX
  5
3D4
  8
0
 10
8.390620826424394
 20
7.193019255083083
 30
0.0
  0
VERTEX
  5
3D5
  8
0
 10
8.389391962122495
 20
7.19375021725634
 30
0.0
  0
VERTEX
  5
3D6
  8
0
 10
8.388157612365823
 20
7.19447384802185
 30
0.0
  0
VERTEX
  5
3D7
  8
0
 10
8.386917764149622
 20
7.195190096797261
 30
0.0
  0
VERTEX
  5
3D8
  8
0
 10
8.385672404469126
 20
7.195898913000224
 30
0.0
  0
VERTEX
  5
3D9
  8
0
 10
8.384421520319595
 20
7.196600246048397
 30
0.0
  0
VERTEX
  5
3DA
  8
0
 10
8.383165098696265
 20
7.197294045359426
 30
0.0
  0
VERTEX
  5
3DB
  8
0
 10
8.381903126668938
 20
7.197980260460478
 30
0.0
  0
VERTEX
  5
3DC
  8
0
 10
8.380635611908534
 20
7.198658871138523
 30
0.0
  0
VERTEX
  5
3DD
  8
0
 10
8.379362610663033
 20
7.19932992853262
 30
0.0
  0
VERTEX
  5
3DE
  8
0
 10
8.378084186178292
 20
7.199993494060596
 30
0.0
  0
VERTEX
  5
3DF
  8
0
 10
8.376800401700146
 20
7.200649629140274
 30
0.0
  0
VERTEX
  5
3E0
  8
0
 10
8.375511320474454
 20
7.201298395189477
 30
0.0
  0
VERTEX
  5
3E1
  8
0
 10
8.374217005747056
 20
7.201939853626031
 30
0.0
  0
VERTEX
  5
3E2
  8
0
 10
8.37291752076381
 20
7.202574065867762
 30
0.0
  0
VERTEX
  5
3E3
  8
0
 10
8.37161292871936
 20
7.203201093244459
 30
0.0
  0
VERTEX
  5
3E4
  8
0
 10
8.370303232829933
 20
7.203820893952251
 30
0.0
  0
VERTEX
  5
3E5
  8
0
 10
8.3689882605111
 20
7.204433123895796
 30
0.0
  0
VERTEX
  5
3E6
  8
0
 10
8.367667807135932
 20
7.205037383882281
 30
0.0
  0
VERTEX
  5
3E7
  8
0
 10
8.366341668077501
 20
7.205633274718887
 30
0.0
  0
VERTEX
  5
3E8
  8
0
 10
8.365009638708884
 20
7.2062203972128
 30
0.0
  0
VERTEX
  5
3E9
  8
0
 10
8.363671514403146
 20
7.206798352171202
 30
0.0
  0
VERTEX
  5
3EA
  8
0
 10
8.362327090533368
 20
7.207366740401278
 30
0.0
  0
VERTEX
  5
3EB
  8
0
 10
8.36097616248598
 20
7.20792516273191
 30
0.0
  0
VERTEX
  5
3EC
  8
0
 10
8.359618721594268
 20
7.208473538327632
 30
0.0
  0
VERTEX
  5
3ED
  8
0
 10
8.358255449153376
 20
7.209012907266267
 30
0.0
  0
VERTEX
  5
3EE
  8
0
 10
8.356887178241752
 20
7.209544556213115
 30
0.0
  0
VERTEX
  5
3EF
  8
0
 10
8.355514741937856
 20
7.210069771833474
 30
0.0
  0
VERTEX
  5
3F0
  8
0
 10
8.354138973320138
 20
7.210589840792641
 30
0.0
  0
VERTEX
  5
3F1
  8
0
 10
8.352760705467055
 20
7.211106049755915
 30
0.0
  0
VERTEX
  5
3F2
  8
0
 10
8.351380771457062
 20
7.211619685388592
 30
0.0
  0
VERTEX
  5
3F3
  8
0
 10
8.35000000436861
 20
7.212132034355974
 30
0.0
  0
SEQEND
  5
995
  8
0
  0
LINE
  5
FC
  8
0
 10
8.350000000000016
 20
6.550000000000011
 30
0.0
 11
8.350000000000016
 21
6.78786796564404
 31
0.0
  0
POLYLINE
  5
FD
  8
0
 66
     1
 10
0.0
 20
0.0
 30
0.0
  0
VERTEX
  5
3F4
  8
0
 10
8.499999999143746
 20
9.799999999999997
 30
0.0
  0
VERTEX
  5
3F5
  8
0
 10
8.504038817856467
 20
9.796927970259933
 30
0.0
  0
VERTEX
  5
3F6
  8
0
 10
8.508039730420597
 20
9.79379837243663
 30
0.0
  0
VERTEX
  5
3F7
  8
0
 10
8.512001518316016
 20
9.790611906001867
 30
0.0
  0
VERTEX
  5
3F8
  8
0
 10
8.515922980210988
 20
9.787369304543256
 30
0.0
  0
VERTEX
  5
3F9
  8
0
 10
8.519802933148567
 20
9.784071335235767
 30
0.0
  0
VERTEX
  5
3FA
  8
0
 10
8.523640213713401
 20
9.780718798263951
 30
0.0
  0
VERTEX
  5
3FB
  8
0
 10
8.527433679176593
 20
9.777312526195765
 30
0.0
  0
VERTEX
  5
3FC
  8
0
 10
8.53118220861627
 20
9.773853383308982
 30
0.0
  0
VERTEX
  5
3FD
  8
0
 10
8.534884704011597
 20
9.770342264871308
 30
0.0
  0
VERTEX
  5
3FE
  8
0
 10
8.538540091308002
 20
9.766780096375378
 30
0.0
  0
VERTEX
  5
3FF
  8
0
 10
8.542147321451422
 20
9.763167832730064
 30
0.0
  0
VERTEX
  5
400
  8
0
 10
8.545705371389571
 20
9.75950645740954
 30
0.0
  0
VERTEX
  5
401
  8
0
 10
8.549213245038125
 20
9.75579698156168
 30
0.0
  0
VERTEX
  5
402
  8
0
 10
8.552669974210007
 20
9.752040443077501
 30
0.0
  0
VERTEX
  5
403
  8
0
 10
8.556074619505841
 20
9.748237905623421
 30
0.0
  0
VERTEX
  5
404
  8
0
 10
8.559426271164
 20
9.744390457638303
 30
0.0
  0
VERTEX
  5
405
  8
0
 10
8.562724049868478
 20
9.740499211297145
 30
0.0
  0
VERTEX
  5
406
  8
0
 10
8.565967107513226
 20
9.7365653014436
 30
0.0
  0
VERTEX
  5
407
  8
0
 10
8.569154627921439
 20
9.732589884493404
 30
0.0
  0
VERTEX
  5
408
  8
0
 10
8.57228582751865
 20
9.728574137310947
 30
0.0
  0
VERTEX
  5
409
  8
0
 10
8.575359955958392
 20
9.724519256061257
 30
0.0
  0
VERTEX
  5
40A
  8
0
 10
8.578376296699469
 20
9.720426455039718
 30
0.0
  0
VERTEX
  5
40B
  8
0
 10
8.581334167533942
 20
9.716296965481911
 30
0.0
  0
VERTEX
  5
40C
  8
0
 10
8.584232921065066
 20
9.71213203435596
 30
0.0
  0
SEQEND
  5
996
  8
0
  0
LINE
  5
FE
  8
0
 10
8.5
 20
9.950000000000003
 30
0.0
 11
8.499999999143746
 21
9.799999999999997
 31
0.0
  0
LINE
  5
FF
  8
0
 10
8.350000000000016
 20
9.950000000000003
 30
0.0
 11
8.5
 21
9.950000000000003
 31
0.0
  0
LINE
  5
100
  8
0
 10
8.35000000436861
 20
9.71213203435596
 30
0.0
 11
8.350000000000016
 21
9.950000000000003
 31
0.0
  0
POLYLINE
  5
101
  8
0
 66
     1
 10
0.0
 20
0.0
 30
0.0
  0
VERTEX
  5
40D
  8
0
 10
8.350000000000016
 20
9.287867965644054
 30
0.0
  0
VERTEX
  5
40E
  8
0
 10
8.351386364918303
 20
9.288370574286308
 30
0.0
  0
VERTEX
  5
40F
  8
0
 10
8.352771141083611
 20
9.28887573747718
 30
0.0
  0
VERTEX
  5
410
  8
0
 10
8.354152739742945
 20
9.28938600976529
 30
0.0
  0
VERTEX
  5
411
  8
0
 10
8.355529574558872
 20
9.289903941691215
 30
0.0
  0
VERTEX
  5
412
  8
0
 10
8.356900541521993
 20
9.290431283485686
 30
0.0
  0
VERTEX
  5
413
  8
0
 10
8.35826559849609
 20
9.290968023450803
 30
0.0
  0
VERTEX
  5
414
  8
0
 10
8.359624844838322
 20
9.291513915113745
 30
0.0
  0
VERTEX
  5
415
  8
0
 10
8.360978379905852
 20
9.292068712001665
 30
0.0
  0
VERTEX
  5
416
  8
0
 10
8.362326303055827
 20
9.29263216764173
 30
0.0
  0
VERTEX
  5
417
  8
0
 10
8.363668713645414
 20
9.293204035561109
 30
0.0
  0
VERTEX
  5
418
  8
0
 10
8.365005711031761
 20
9.29378406928696
 30
0.0
  0
VERTEX
  5
419
  8
0
 10
8.366337394572032
 20
9.294372022346453
 30
0.0
  0
VERTEX
  5
41A
  8
0
 10
8.367663862713115
 20
9.2949676499741
 30
0.0
  0
VERTEX
  5
41B
  8
0
 10
8.368985161420966
 20
9.295570805840812
 30
0.0
  0
VERTEX
  5
41C
  8
0
 10
8.37030125652053
 20
9.29618149393479
 30
0.0
  0
VERTEX
  5
41D
  8
0
 10
8.371612107081786
 20
9.296799730914268
 30
0.0
  0
VERTEX
  5
41E
  8
0
 10
8.37291767217471
 20
9.29742553343748
 30
0.0
  0
VERTEX
  5
41F
  8
0
 10
8.374217910869277
 20
9.29805891816265
 30
0.0
  0
VERTEX
  5
420
  8
0
 10
8.375512782235456
 20
9.298699901748014
 30
0.0
  0
VERTEX
  5
421
  8
0
 10
8.37680224534323
 20
9.299348500851806
 30
0.0
  0
VERTEX
  5
422
  8
0
 10
8.37808625926257
 20
9.300004732132264
 30
0.0
  0
VERTEX
  5
423
  8
0
 10
8.379364783734694
 20
9.300668611348064
 30
0.0
  0
VERTEX
  5
424
  8
0
 10
8.380637798466443
 20
9.301340127501378
 30
0.0
  0
VERTEX
  5
425
  8
0
 10
8.381905306025372
 20
9.302019238958092
 30
0.0
  0
VERTEX
  5
426
  8
0
 10
8.383167310232613
 20
9.302705902404131
 30
0.0
  0
VERTEX
  5
427
  8
0
 10
8.384423814909297
 20
9.303400074525406
 30
0.0
  0
VERTEX
  5
428
  8
0
 10
8.385674823876563
 20
9.304101712007844
 30
0.0
  0
VERTEX
  5
429
  8
0
 10
8.386920340955541
 20
9.304810771537367
 30
0.0
  0
VERTEX
  5
42A
  8
0
 10
8.388160369967366
 20
9.305527209799894
 30
0.0
  0
VERTEX
  5
42B
  8
0
 10
8.389394914733172
 20
9.306250983481345
 30
0.0
  0
VERTEX
  5
42C
  8
0
 10
8.390623978817775
 20
9.306982049980366
 30
0.0
  0
VERTEX
  5
42D
  8
0
 10
8.391847560877467
 20
9.307720380344602
 30
0.0
  0
VERTEX
  5
42E
  8
0
 10
8.393065655152654
 20
9.308465957900767
 30
0.0
  0
VERTEX
  5
42F
  8
0
 10
8.394278255726316
 20
9.309218766413363
 30
0.0
  0
VERTEX
  5
430
  8
0
 10
8.395485356681425
 20
9.309978789646884
 30
0.0
  0
VERTEX
  5
431
  8
0
 10
8.396686952100959
 20
9.310746011365838
 30
0.0
  0
VERTEX
  5
432
  8
0
 10
8.397883036067888
 20
9.31152041533472
 30
0.0
  0
VERTEX
  5
433
  8
0
 10
8.399073602665188
 20
9.31230198531803
 30
0.0
  0
VERTEX
  5
434
  8
0
 10
8.400258645975834
 20
9.313090705080262
 30
0.0
  0
VERTEX
  5
435
  8
0
 10
8.40143816023075
 20
9.313886558462604
 30
0.0
  0
VERTEX
  5
436
  8
0
 10
8.40261214164329
 20
9.314689530333721
 30
0.0
  0
VERTEX
  5
437
  8
0
 10
8.403780587842599
 20
9.315499606296074
 30
0.0
  0
VERTEX
  5
438
  8
0
 10
8.404943496488416
 20
9.316316771967987
 30
0.0
  0
VERTEX
  5
439
  8
0
 10
8.406100865240472
 20
9.317141012967774
 30
0.0
  0
VERTEX
  5
43A
  8
0
 10
8.407252691758503
 20
9.317972314913757
 30
0.0
  0
VERTEX
  5
43B
  8
0
 10
8.40839897370224
 20
9.318810663424252
 30
0.0
  0
VERTEX
  5
43C
  8
0
 10
8.40953970873142
 20
9.319656044117576
 30
0.0
  0
VERTEX
  5
43D
  8
0
 10
8.410674894505773
 20
9.320508442612049
 30
0.0
  0
VERTEX
  5
43E
  8
0
 10
8.41180452791391
 20
9.32136784542511
 30
0.0
  0
VERTEX
  5
43F
  8
0
 10
8.412928598598546
 20
9.322234247522761
 30
0.0
  0
VERTEX
  5
440
  8
0
 10
8.41404709223228
 20
9.323107648500095
 30
0.0
  0
VERTEX
  5
441
  8
0
 10
8.415159994447045
 20
9.323988047999613
 30
0.0
  0
VERTEX
  5
442
  8
0
 10
8.41626729087478
 20
9.324875445663821
 30
0.0
  0
VERTEX
  5
443
  8
0
 10
8.417368967147413
 20
9.325769841135218
 30
0.0
  0
VERTEX
  5
444
  8
0
 10
8.418465008896886
 20
9.326671234056311
 30
0.0
  0
VERTEX
  5
445
  8
0
 10
8.41955540175513
 20
9.327579624069603
 30
0.0
  0
VERTEX
  5
446
  8
0
 10
8.42064013135408
 20
9.328495010817596
 30
0.0
  0
VERTEX
  5
447
  8
0
 10
8.421719182374742
 20
9.329417392172669
 30
0.0
  0
VERTEX
  5
448
  8
0
 10
8.422792533581157
 20
9.330346754992968
 30
0.0
  0
VERTEX
  5
449
  8
0
 10
8.423860161465235
 20
9.331283081907124
 30
0.0
  0
VERTEX
  5
44A
  8
0
 10
8.424922042514185
 20
9.33222635553502
 30
0.0
  0
VERTEX
  5
44B
  8
0
 10
8.425978153215212
 20
9.33317655849655
 30
0.0
  0
VERTEX
  5
44C
  8
0
 10
8.42702847005553
 20
9.334133673411602
 30
0.0
  0
VERTEX
  5
44D
  8
0
 10
8.428072969522349
 20
9.335097682900063
 30
0.0
  0
VERTEX
  5
44E
  8
0
 10
8.429111628102879
 20
9.336068569581823
 30
0.0
  0
VERTEX
  5
44F
  8
0
 10
8.430144422284327
 20
9.337046316076774
 30
0.0
  0
VERTEX
  5
450
  8
0
 10
8.431171328648944
 20
9.338030905057261
 30
0.0
  0
VERTEX
  5
451
  8
0
 10
8.4321923245852
 20
9.339022319640689
 30
0.0
  0
VERTEX
  5
452
  8
0
 10
8.433207387887954
 20
9.340020543168775
 30
0.0
  0
VERTEX
  5
453
  8
0
 10
8.434216496355154
 20
9.341025558984958
 30
0.0
  0
VERTEX
  5
454
  8
0
 10
8.435219627784766
 20
9.342037350432674
 30
0.0
  0
VERTEX
  5
455
  8
0
 10
8.436216759974748
 20
9.343055900855363
 30
0.0
  0
VERTEX
  5
456
  8
0
 10
8.437207870723059
 20
9.344081193596464
 30
0.0
  0
VERTEX
  5
457
  8
0
 10
8.438192937827656
 20
9.345113211999413
 30
0.0
  0
VERTEX
  5
458
  8
0
 10
8.4391719390865
 20
9.346151939407648
 30
0.0
  0
VERTEX
  5
459
  8
0
 10
8.440144851921733
 20
9.347197359336613
 30
0.0
  0
VERTEX
  5
45A
  8
0
 10
8.441111648763881
 20
9.348249457586421
 30
0.0
  0
VERTEX
  5
45B
  8
0
 10
8.442072298500293
 20
9.349308221578863
 30
0.0
  0
VERTEX
  5
45C
  8
0
 10
8.443026769942932
 20
9.350373638770252
 30
0.0
  0
VERTEX
  5
45D
  8
0
 10
8.443975031903747
 20
9.351445696616903
 30
0.0
  0
VERTEX
  5
45E
  8
0
 10
8.444917053194702
 20
9.35252438257513
 30
0.0
  0
VERTEX
  5
45F
  8
0
 10
8.445852802627739
 20
9.353609684101242
 30
0.0
  0
VERTEX
  5
460
  8
0
 10
8.446782249014824
 20
9.354701588651551
 30
0.0
  0
VERTEX
  5
461
  8
0
 10
8.447705361167905
 20
9.355800083682368
 30
0.0
  0
VERTEX
  5
462
  8
0
 10
8.448622107735323
 20
9.356905156672035
 30
0.0
  0
VERTEX
  5
463
  8
0
 10
8.44953245344745
 20
9.358016795626257
 30
0.0
  0
VERTEX
  5
464
  8
0
 10
8.450436359028716
 20
9.359134989089968
 30
0.0
  0
VERTEX
  5
465
  8
0
 10
8.451333785022332
 20
9.360259725632478
 30
0.0
  0
VERTEX
  5
466
  8
0
 10
8.452224691971521
 20
9.361390993823118
 30
0.0
  0
VERTEX
  5
467
  8
0
 10
8.4531090404195
 20
9.362528782231204
 30
0.0
  0
VERTEX
  5
468
  8
0
 10
8.453986790909488
 20
9.363673079426054
 30
0.0
  0
VERTEX
  5
469
  8
0
 10
8.454857903984697
 20
9.364823873976993
 30
0.0
  0
VERTEX
  5
46A
  8
0
 10
8.455722340188347
 20
9.365981154453337
 30
0.0
  0
VERTEX
  5
46B
  8
0
 10
8.456580060028058
 20
9.367144909396139
 30
0.0
  0
VERTEX
  5
46C
  8
0
 10
8.457431022187553
 20
9.368315125897979
 30
0.0
  0
VERTEX
  5
46D
  8
0
 10
8.458275182689619
 20
9.369491788938236
 30
0.0
  0
VERTEX
  5
46E
  8
0
 10
8.459112497346526
 20
9.370674883329098
 30
0.0
  0
VERTEX
  5
46F
  8
0
 10
8.459942921970535
 20
9.37186439388275
 30
0.0
  0
VERTEX
  5
470
  8
0
 10
8.46076641237391
 20
9.373060305411379
 30
0.0
  0
VERTEX
  5
471
  8
0
 10
8.461582924368923
 20
9.374262602727173
 30
0.0
  0
VERTEX
  5
472
  8
0
 10
8.462392413767834
 20
9.375471270642318
 30
0.0
  0
VERTEX
  5
473
  8
0
 10
8.463194836382907
 20
9.376686293969003
 30
0.0
  0
VERTEX
  5
474
  8
0
 10
8.463990147977068
 20
9.37790765752595
 30
0.0
  0
VERTEX
  5
475
  8
0
 10
8.464778297562836
 20
9.379135347026239
 30
0.0
  0
VERTEX
  5
476
  8
0
 10
8.465559220600564
 20
9.380369349978457
 30
0.0
  0
VERTEX
  5
477
  8
0
 10
8.466332850930042
 20
9.381609654105906
 30
0.0
  0
VERTEX
  5
478
  8
0
 10
8.46709912239106
 20
9.382856247131885
 30
0.0
  0
VERTEX
  5
479
  8
0
 10
8.467857968823418
 20
9.384109116779685
 30
0.0
  0
VERTEX
  5
47A
  8
0
 10
8.468609324066902
 20
9.385368250772611
 30
0.0
  0
VERTEX
  5
47B
  8
0
 10
8.46935312196131
 20
9.386633636833956
 30
0.0
  0
VERTEX
  5
47C
  8
0
 10
8.470089296346432
 20
9.387905262687017
 30
0.0
  0
VERTEX
  5
47D
  8
0
 10
8.47081778107469
 20
9.389183116034484
 30
0.0
  0
VERTEX
  5
47E
  8
0
 10
8.471538515931323
 20
9.390467174892825
 30
0.0
  0
VERTEX
  5
47F
  8
0
 10
8.47225145607967
 20
9.391757392171543
 30
0.0
  0
VERTEX
  5
480
  8
0
 10
8.472956559142048
 20
9.393053716765474
 30
0.0
  0
VERTEX
  5
481
  8
0
 10
8.47365378274078
 20
9.394356097569448
 30
0.0
  0
VERTEX
  5
482
  8
0
 10
8.47434308449819
 20
9.395664483478303
 30
0.0
  0
VERTEX
  5
483
  8
0
 10
8.475024422036606
 20
9.396978823386872
 30
0.0
  0
VERTEX
  5
484
  8
0
 10
8.475697752978343
 20
9.398299066189987
 30
0.0
  0
VERTEX
  5
485
  8
0
 10
8.47636303494573
 20
9.399625160782483
 30
0.0
  0
VERTEX
  5
486
  8
0
 10
8.477020225599984
 20
9.400957055985245
 30
0.0
  0
VERTEX
  5
487
  8
0
 10
8.47766928388842
 20
9.402294698174174
 30
0.0
  0
VERTEX
  5
488
  8
0
 10
8.47831017030888
 20
9.403638030777431
 30
0.0
  0
VERTEX
  5
489
  8
0
 10
8.478942845451584
 20
9.404986997047596
 30
0.0
  0
VERTEX
  5
48A
  8
0
 10
8.479567269906745
 20
9.406341540237237
 30
0.0
  0
VERTEX
  5
48B
  8
0
 10
8.480183404264581
 20
9.407701603598923
 30
0.0
  0
VERTEX
  5
48C
  8
0
 10
8.480791209115303
 20
9.409067130385223
 30
0.0
  0
VERTEX
  5
48D
  8
0
 10
8.481390645049128
 20
9.410438063848712
 30
0.0
  0
VERTEX
  5
48E
  8
0
 10
8.481981672656273
 20
9.411814347241958
 30
0.0
  0
VERTEX
  5
48F
  8
0
 10
8.48256425160191
 20
9.413195923893761
 30
0.0
  0
VERTEX
  5
490
  8
0
 10
8.483138331322877
 20
9.414582737975847
 30
0.0
  0
VERTEX
  5
491
  8
0
 10
8.48370385489818
 20
9.415974734183878
 30
0.0
  0
VERTEX
  5
492
  8
0
 10
8.484260765311184
 20
9.417371857221397
 30
0.0
  0
VERTEX
  5
493
  8
0
 10
8.484809005545271
 20
9.418774051791962
 30
0.0
  0
VERTEX
  5
494
  8
0
 10
8.485348518583805
 20
9.420181262599112
 30
0.0
  0
VERTEX
  5
495
  8
0
 10
8.485879247410157
 20
9.421593434346395
 30
0.0
  0
VERTEX
  5
496
  8
0
 10
8.4864011350077
 20
9.423010511737361
 30
0.0
  0
VERTEX
  5
497
  8
0
 10
8.486914124359805
 20
9.424432439475556
 30
0.0
  0
VERTEX
  5
498
  8
0
 10
8.487418157632105
 20
9.425859161337241
 30
0.0
  0
VERTEX
  5
499
  8
0
 10
8.487913172910071
 20
9.4272906164719
 30
0.0
  0
VERTEX
  5
49A
  8
0
 10
8.488399107009162
 20
9.428726742588857
 30
0.0
  0
VERTEX
  5
49B
  8
0
 10
8.488875896744416
 20
9.43016747739697
 30
0.0
  0
VERTEX
  5
49C
  8
0
 10
8.48934347893088
 20
9.4316127586051
 30
0.0
  0
VERTEX
  5
49D
  8
0
 10
8.4898017903836
 20
9.433062523922107
 30
0.0
  0
VERTEX
  5
49E
  8
0
 10
8.490250767917617
 20
9.434516711056851
 30
0.0
  0
VERTEX
  5
49F
  8
0
 10
8.490690348347977
 20
9.435975257718187
 30
0.0
  0
VERTEX
  5
4A0
  8
0
 10
8.4911204684572
 20
9.437438101603504
 30
0.0
  0
VERTEX
  5
4A1
  8
0
 10
8.491541056699852
 20
9.438905177472098
 30
0.0
  0
VERTEX
  5
4A2
  8
0
 10
8.49195202219151
 20
9.440376413260497
 30
0.0
  0
VERTEX
  5
4A3
  8
0
 10
8.492353271309357
 20
9.441851735939126
 30
0.0
  0
VERTEX
  5
4A4
  8
0
 10
8.492744710430577
 20
9.44333107247842
 30
0.0
  0
VERTEX
  5
4A5
  8
0
 10
8.493126245932357
 20
9.444814349848805
 30
0.0
  0
VERTEX
  5
4A6
  8
0
 10
8.49349778419188
 20
9.44630149502071
 30
0.0
  0
VERTEX
  5
4A7
  8
0
 10
8.493859231586333
 20
9.447792434964565
 30
0.0
  0
VERTEX
  5
4A8
  8
0
 10
8.494210494492899
 20
9.4492870966508
 30
0.0
  0
VERTEX
  5
4A9
  8
0
 10
8.494551480797236
 20
9.45078540637987
 30
0.0
  0
VERTEX
  5
4AA
  8
0
 10
8.494882137903076
 20
9.452287272900929
 30
0.0
  0
VERTEX
  5
4AB
  8
0
 10
8.495202455613295
 20
9.453792586132193
 30
0.0
  0
VERTEX
  5
4AC
  8
0
 10
8.495512425816365
 20
9.455301235065622
 30
0.0
  0
VERTEX
  5
4AD
  8
0
 10
8.495812040400752
 20
9.456813108693147
 30
0.0
  0
VERTEX
  5
4AE
  8
0
 10
8.496101291254934
 20
9.458328096006724
 30
0.0
  0
VERTEX
  5
4AF
  8
0
 10
8.496380170267377
 20
9.459846085998294
 30
0.0
  0
VERTEX
  5
4B0
  8
0
 10
8.496648669338954
 20
9.461366967657838
 30
0.0
  0
VERTEX
  5
4B1
  8
0
 10
8.496906784108464
 20
9.462890629380906
 30
0.0
  0
VERTEX
  5
4B2
  8
0
 10
8.497154519179572
 20
9.464416958137427
 30
0.0
  0
VERTEX
  5
4B3
  8
0
 10
8.497391880472131
 20
9.465945840688029
 30
0.0
  0
VERTEX
  5
4B4
  8
0
 10
8.497618873905985
 20
9.467477163793337
 30
0.0
  0
VERTEX
  5
4B5
  8
0
 10
8.497835505400985
 20
9.469010814213975
 30
0.0
  0
VERTEX
  5
4B6
  8
0
 10
8.498041780876981
 20
9.470546678710573
 30
0.0
  0
VERTEX
  5
4B7
  8
0
 10
8.498237706253818
 20
9.472084644043749
 30
0.0
  0
VERTEX
  5
4B8
  8
0
 10
8.498423285581397
 20
9.473624597613323
 30
0.0
  0
VERTEX
  5
4B9
  8
0
 10
8.498598510996935
 20
9.475166430891115
 30
0.0
  0
VERTEX
  5
4BA
  8
0
 10
8.49876336996295
 20
9.476710036946866
 30
0.0
  0
VERTEX
  5
4BB
  8
0
 10
8.498917849930914
 20
9.478255308854076
 30
0.0
  0
VERTEX
  5
4BC
  8
0
 10
8.499061938352312
 20
9.479802139686258
 30
0.0
  0
VERTEX
  5
4BD
  8
0
 10
8.499195622678617
 20
9.481350422516924
 30
0.0
  0
VERTEX
  5
4BE
  8
0
 10
8.499318890361312
 20
9.482900050419575
 30
0.0
  0
VERTEX
  5
4BF
  8
0
 10
8.499431728669363
 20
9.4844509164255
 30
0.0
  0
VERTEX
  5
4C0
  8
0
 10
8.499534120782133
 20
9.486002912619853
 30
0.0
  0
VERTEX
  5
4C1
  8
0
 10
8.49962604584855
 20
9.487555930155343
 30
0.0
  0
VERTEX
  5
4C2
  8
0
 10
8.49970748284689
 20
9.489109860145204
 30
0.0
  0
VERTEX
  5
4C3
  8
0
 10
8.49977841075541
 20
9.49066459370266
 30
0.0
  0
VERTEX
  5
4C4
  8
0
 10
8.499838808552376
 20
9.492220021940938
 30
0.0
  0
VERTEX
  5
4C5
  8
0
 10
8.499888655216049
 20
9.493776035973267
 30
0.0
  0
VERTEX
  5
4C6
  8
0
 10
8.49992792971215
 20
9.495332526908184
 30
0.0
  0
VERTEX
  5
4C7
  8
0
 10
8.499956606651947
 20
9.496889384224719
 30
0.0
  0
VERTEX
  5
4C8
  8
0
 10
8.499974649926905
 20
9.498446493390404
 30
0.0
  0
VERTEX
  5
4C9
  8
0
 10
8.499982021808382
 20
9.500003739266495
 30
0.0
  0
VERTEX
  5
4CA
  8
0
 10
8.499978684567736
 20
9.50156100671426
 30
0.0
  0
VERTEX
  5
4CB
  8
0
 10
8.499964600476327
 20
9.503118180594956
 30
0.0
  0
VERTEX
  5
4CC
  8
0
 10
8.499939731805508
 20
9.504675145769847
 30
0.0
  0
VERTEX
  5
4CD
  8
0
 10
8.499904040826642
 20
9.50623178710019
 30
0.0
  0
VERTEX
  5
4CE
  8
0
 10
8.499857490630486
 20
9.507787988458546
 30
0.0
  0
VERTEX
  5
4CF
  8
0
 10
8.499800049644216
 20
9.509343627278437
 30
0.0
  0
VERTEX
  5
4D0
  8
0
 10
8.49973168843168
 20
9.51089857841522
 30
0.0
  0
VERTEX
  5
4D1
  8
0
 10
8.499652377562422
 20
9.512452716717416
 30
0.0
  0
VERTEX
  5
4D2
  8
0
 10
8.499562087605966
 20
9.514005917033534
 30
0.0
  0
VERTEX
  5
4D3
  8
0
 10
8.49946078913185
 20
9.515558054212084
 30
0.0
  0
VERTEX
  5
4D4
  8
0
 10
8.499348452709603
 20
9.51710900310158
 30
0.0
  0
VERTEX
  5
4D5
  8
0
 10
8.499225051802613
 20
9.518658639020105
 30
0.0
  0
VERTEX
  5
4D6
  8
0
 10
8.499090614781467
 20
9.520206846195292
 30
0.0
  0
VERTEX
  5
4D7
  8
0
 10
8.49894521913871
 20
9.52175351682557
 30
0.0
  0
VERTEX
  5
4D8
  8
0
 10
8.498788944099198
 20
9.523298543390458
 30
0.0
  0
VERTEX
  5
4D9
  8
0
 10
8.498621868887785
 20
9.524841818369495
 30
0.0
  0
VERTEX
  5
4DA
  8
0
 10
8.498444072729324
 20
9.526383234242193
 30
0.0
  0
VERTEX
  5
4DB
  8
0
 10
8.498255634848672
 20
9.527922683488084
 30
0.0
  0
VERTEX
  5
4DC
  8
0
 10
8.498056634470677
 20
9.529460058586686
 30
0.0
  0
VERTEX
  5
4DD
  8
0
 10
8.49784714949011
 20
9.530995252667399
 30
0.0
  0
VERTEX
  5
4DE
  8
0
 10
8.49762724205893
 20
9.532528166551439
 30
0.0
  0
VERTEX
  5
4DF
  8
0
 10
8.497396964037652
 20
9.53405870608833
 30
0.0
  0
VERTEX
  5
4E0
  8
0
 10
8.497156367109095
 20
9.535586777214435
 30
0.0
  0
VERTEX
  5
4E1
  8
0
 10
8.496905502956086
 20
9.537112285866103
 30
0.0
  0
VERTEX
  5
4E2
  8
0
 10
8.49664442326145
 20
9.538635137979684
 30
0.0
  0
VERTEX
  5
4E3
  8
0
 10
8.496373179708016
 20
9.540155239491533
 30
0.0
  0
VERTEX
  5
4E4
  8
0
 10
8.496091823978603
 20
9.541672496337998
 30
0.0
  0
VERTEX
  5
4E5
  8
0
 10
8.49580040728062
 20
9.543186814877648
 30
0.0
  0
VERTEX
  5
4E6
  8
0
 10
8.495498976768246
 20
9.544698105068699
 30
0.0
  0
VERTEX
  5
4E7
  8
0
 10
8.495187577543996
 20
9.546206278691423
 30
0.0
  0
VERTEX
  5
4E8
  8
0
 10
8.494866254694472
 20
9.54771124754023
 30
0.0
  0
VERTEX
  5
4E9
  8
0
 10
8.494535053306267
 20
9.54921292340954
 30
0.0
  0
VERTEX
  5
4EA
  8
0
 10
8.494194018465977
 20
9.550711218093763
 30
0.0
  0
VERTEX
  5
4EB
  8
0
 10
8.493843195260201
 20
9.552206043387322
 30
0.0
  0
VERTEX
  5
4EC
  8
0
 10
8.49348262877553
 20
9.553697311084626
 30
0.0
  0
VERTEX
  5
4ED
  8
0
 10
8.493112362333182
 20
9.555184932856237
 30
0.0
  0
VERTEX
  5
4EE
  8
0
 10
8.492732427772921
 20
9.556668819567218
 30
0.0
  0
VERTEX
  5
4EF
  8
0
 10
8.492342852343114
 20
9.558148881760504
 30
0.0
  0
VERTEX
  5
4F0
  8
0
 10
8.49194366328002
 20
9.559625029978184
 30
0.0
  0
VERTEX
  5
4F1
  8
0
 10
8.491534887819899
 20
9.561097174762347
 30
0.0
  0
VERTEX
  5
4F2
  8
0
 10
8.491116553199008
 20
9.562565226655089
 30
0.0
  0
VERTEX
  5
4F3
  8
0
 10
8.490688686653604
 20
9.564029096198489
 30
0.0
  0
VERTEX
  5
4F4
  8
0
 10
8.490251315419949
 20
9.565488693934645
 30
0.0
  0
VERTEX
  5
4F5
  8
0
 10
8.489804467374007
 20
9.566943930897137
 30
0.0
  0
VERTEX
  5
4F6
  8
0
 10
8.489348173541249
 20
9.568394720539317
 30
0.0
  0
VERTEX
  5
4F7
  8
0
 10
8.488882465914765
 20
9.56984097705798
 30
0.0
  0
VERTEX
  5
4F8
  8
0
 10
8.488407376487915
 20
9.571282614650112
 30
0.0
  0
VERTEX
  5
4F9
  8
0
 10
8.48792293725405
 20
9.572719547512698
 30
0.0
  0
VERTEX
  5
4FA
  8
0
 10
8.487429180206524
 20
9.574151689842731
 30
0.0
  0
VERTEX
  5
4FB
  8
0
 10
8.48692613733869
 20
9.575578955837193
 30
0.0
  0
VERTEX
  5
4FC
  8
0
 10
8.486413840644813
 20
9.577001259693832
 30
0.0
  0
VERTEX
  5
4FD
  8
0
 10
8.485892332327406
 20
9.578418524064345
 30
0.0
  0
VERTEX
  5
4FE
  8
0
 10
8.485361690086267
 20
9.5798307009975
 30
0.0
  0
VERTEX
  5
4FF
  8
0
 10
8.484821999331972
 20
9.581237748927746
 30
0.0
  0
VERTEX
  5
500
  8
0
 10
8.484273345475104
 20
9.582639626289534
 30
0.0
  0
VERTEX
  5
501
  8
0
 10
8.483715813926239
 20
9.584036291517313
 30
0.0
  0
VERTEX
  5
502
  8
0
 10
8.48314949009596
 20
9.585427703045534
 30
0.0
  0
VERTEX
  5
503
  8
0
 10
8.482574459394844
 20
9.586813819308649
 30
0.0
  0
VERTEX
  5
504
  8
0
 10
8.48199080723347
 20
9.588194598741106
 30
0.0
  0
VERTEX
  5
505
  8
0
 10
8.481398616082096
 20
9.589569999892534
 30
0.0
  0
VERTEX
  5
506
  8
0
 10
8.48079795172936
 20
9.590939981966036
 30
0.0
  0
VERTEX
  5
507
  8
0
 10
8.480188874088261
 20
9.592304504394882
 30
0.0
  0
VERTEX
  5
508
  8
0
 10
8.47957144306522
 20
9.593663526612591
 30
0.0
  0
VERTEX
  5
509
  8
0
 10
8.478945718566663
 20
9.595017008052688
 30
0.0
  0
VERTEX
  5
50A
  8
0
 10
8.478311760499015
 20
9.5963649081487
 30
0.0
  0
VERTEX
  5
50B
  8
0
 10
8.477669628768698
 20
9.597707186334151
 30
0.0
  0
VERTEX
  5
50C
  8
0
 10
8.47701938328214
 20
9.599043802042567
 30
0.0
  0
VERTEX
  5
50D
  8
0
 10
8.476361083638336
 20
9.60037471508457
 30
0.0
  0
VERTEX
  5
50E
  8
0
 10
8.47569478628635
 20
9.601699889134565
 30
0.0
  0
VERTEX
  5
50F
  8
0
 10
8.475020545827762
 20
9.603019290133135
 30
0.0
  0
VERTEX
  5
510
  8
0
 10
8.474338416840679
 20
9.604332884049638
 30
0.0
  0
VERTEX
  5
511
  8
0
 10
8.473648453903209
 20
9.60564063685344
 30
0.0
  0
VERTEX
  5
512
  8
0
 10
8.47295071159347
 20
9.606942514513907
 30
0.0
  0
VERTEX
  5
513
  8
0
 10
8.472245244489569
 20
9.608238483000394
 30
0.0
  0
VERTEX
  5
514
  8
0
 10
8.471532107169617
 20
9.609528508282265
 30
0.0
  0
VERTEX
  5
515
  8
0
 10
8.470811353902342
 20
9.610812556275928
 30
0.0
  0
VERTEX
  5
516
  8
0
 10
8.470083032180007
 20
9.612090591737728
 30
0.0
  0
VERTEX
  5
517
  8
0
 10
8.46934718290182
 20
9.613362578295385
 30
0.0
  0
VERTEX
  5
518
  8
0
 10
8.46860384669428
 20
9.614628479529927
 30
0.0
  0
VERTEX
  5
519
  8
0
 10
8.467853064183892
 20
9.615888259022373
 30
0.0
  0
VERTEX
  5
51A
  8
0
 10
8.467094875997157
 20
9.617141880353763
 30
0.0
  0
VERTEX
  5
51B
  8
0
 10
8.466329322760577
 20
9.618389307105113
 30
0.0
  0
VERTEX
  5
51C
  8
0
 10
8.465556445100656
 20
9.61963050285746
 30
0.0
  0
VERTEX
  5
51D
  8
0
 10
8.464776283646911
 20
9.620865431229424
 30
0.0
  0
VERTEX
  5
51E
  8
0
 10
8.463988879223846
 20
9.622094058269283
 30
0.0
  0
VERTEX
  5
51F
  8
0
 10
8.463194272966494
 20
9.6233163538949
 30
0.0
  0
VERTEX
  5
520
  8
0
 10
8.462392506037608
 20
9.624532288369402
 30
0.0
  0
VERTEX
  5
521
  8
0
 10
8.461583619599928
 20
9.625741831955922
 30
0.0
  0
VERTEX
  5
522
  8
0
 10
8.460767654816207
 20
9.6269449549176
 30
0.0
  0
VERTEX
  5
523
  8
0
 10
8.459944652849183
 20
9.628141627517554
 30
0.0
  0
VERTEX
  5
524
  8
0
 10
8.459114654861612
 20
9.629331820018924
 30
0.0
  0
VERTEX
  5
525
  8
0
 10
8.4582777020207
 20
9.630515502699598
 30
0.0
  0
VERTEX
  5
526
  8
0
 10
8.457433837279046
 20
9.63169265173399
 30
0.0
  0
VERTEX
  5
527
  8
0
 10
8.456583108094357
 20
9.632863258175455
 30
0.0
  0
VERTEX
  5
528
  8
0
 10
8.455725562623954
 20
9.634027315387927
 30
0.0
  0
VERTEX
  5
529
  8
0
 10
8.454861249025154
 20
9.635184816735322
 30
0.0
  0
VERTEX
  5
52A
  8
0
 10
8.453990215455267
 20
9.636335755581563
 30
0.0
  0
VERTEX
  5
52B
  8
0
 10
8.453112510071616
 20
9.63748012529058
 30
0.0
  0
VERTEX
  5
52C
  8
0
 10
8.452228181031515
 20
9.638617919226293
 30
0.0
  0
VERTEX
  5
52D
  8
0
 10
8.451337276492277
 20
9.639749130752627
 30
0.0
  0
VERTEX
  5
52E
  8
0
 10
8.450439844611221
 20
9.640873753233507
 30
0.0
  0
VERTEX
  5
52F
  8
0
 10
8.449535932878293
 20
9.641991779932342
 30
0.0
  0
VERTEX
  5
530
  8
0
 10
8.44862557948679
 20
9.643103202712446
 30
0.0
  0
VERTEX
  5
531
  8
0
 10
8.447708815810339
 20
9.644208012410049
 30
0.0
  0
VERTEX
  5
532
  8
0
 10
8.446785673065524
 20
9.645306199837739
 30
0.0
  0
VERTEX
  5
533
  8
0
 10
8.445856182468937
 20
9.646397755808103
 30
0.0
  0
VERTEX
  5
534
  8
0
 10
8.44492037523718
 20
9.647482671133725
 30
0.0
  0
VERTEX
  5
535
  8
0
 10
8.443978282586837
 20
9.64856093662719
 30
0.0
  0
VERTEX
  5
536
  8
0
 10
8.443029935734506
 20
9.649632543101093
 30
0.0
  0
VERTEX
  5
537
  8
0
 10
8.442075365896777
 20
9.65069748136801
 30
0.0
  0
VERTEX
  5
538
  8
0
 10
8.441114604290117
 20
9.65175574224053
 30
0.0
  0
VERTEX
  5
539
  8
0
 10
8.440147681314889
 20
9.65280731649535
 30
0.0
  0
VERTEX
  5
53A
  8
0
 10
8.439174624620264
 20
9.653852194788247
 30
0.0
  0
VERTEX
  5
53B
  8
0
 10
8.438195461276251
 20
9.65489036774952
 30
0.0
  0
VERTEX
  5
53C
  8
0
 10
8.437210218352872
 20
9.655921826009477
 30
0.0
  0
VERTEX
  5
53D
  8
0
 10
8.436218922920142
 20
9.656946560198428
 30
0.0
  0
VERTEX
  5
53E
  8
0
 10
8.43522160204808
 20
9.657964560946677
 30
0.0
  0
VERTEX
  5
53F
  8
0
 10
8.4342182828067
 20
9.65897581888453
 30
0.0
  0
VERTEX
  5
540
  8
0
 10
8.433208992266021
 20
9.6599803246423
 30
0.0
  0
VERTEX
  5
541
  8
0
 10
8.432193757496059
 20
9.660978068850286
 30
0.0
  0
VERTEX
  5
542
  8
0
 10
8.43117260541525
 20
9.661969042074317
 30
0.0
  0
VERTEX
  5
543
  8
0
 10
8.430145559223392
 20
9.662953233298298
 30
0.0
  0
VERTEX
  5
544
  8
0
 10
8.42911263826783
 20
9.663930629867298
 30
0.0
  0
VERTEX
  5
545
  8
0
 10
8.428073861717548
 20
9.664901219050511
 30
0.0
  0
VERTEX
  5
546
  8
0
 10
8.427029248741539
 20
9.66586498811713
 30
0.0
  0
VERTEX
  5
547
  8
0
 10
8.425978818508788
 20
9.666821924336352
 30
0.0
  0
VERTEX
  5
548
  8
0
 10
8.424922590188284
 20
9.66777201497737
 30
0.0
  0
VERTEX
  5
549
  8
0
 10
8.423860582949018
 20
9.668715247309377
 30
0.0
  0
VERTEX
  5
54A
  8
0
 10
8.422792815959976
 20
9.66965160860157
 30
0.0
  0
VERTEX
  5
54B
  8
0
 10
8.42171930839015
 20
9.670581086123141
 30
0.0
  0
VERTEX
  5
54C
  8
0
 10
8.420640079326907
 20
9.671503666448634
 30
0.0
  0
VERTEX
  5
54D
  8
0
 10
8.419555147444445
 20
9.672419332636213
 30
0.0
  0
VERTEX
  5
54E
  8
0
 10
8.418464531286537
 20
9.673328066634008
 30
0.0
  0
VERTEX
  5
54F
  8
0
 10
8.41736824939691
 20
9.67422985038973
 30
0.0
  0
VERTEX
  5
550
  8
0
 10
8.416266320319286
 20
9.675124665851072
 30
0.0
  0
VERTEX
  5
551
  8
0
 10
8.415158762597386
 20
9.676012494965747
 30
0.0
  0
VERTEX
  5
552
  8
0
 10
8.414045594774937
 20
9.676893319681458
 30
0.0
  0
VERTEX
  5
553
  8
0
 10
8.412926835395659
 20
9.677767121945909
 30
0.0
  0
VERTEX
  5
554
  8
0
 10
8.411802503003276
 20
9.678633883706805
 30
0.0
  0
VERTEX
  5
555
  8
0
 10
8.410672616015642
 20
9.679493586999492
 30
0.0
  0
VERTEX
  5
556
  8
0
 10
8.409537187344775
 20
9.68034621769305
 30
0.0
  0
VERTEX
  5
557
  8
0
 10
8.408396222374405
 20
9.681191766898513
 30
0.0
  0
VERTEX
  5
558
  8
0
 10
8.407249725945439
 20
9.682030226104894
 30
0.0
  0
VERTEX
  5
559
  8
0
 10
8.40609770289879
 20
9.682861586801206
 30
0.0
  0
VERTEX
  5
55A
  8
0
 10
8.404940158075366
 20
9.683685840476453
 30
0.0
  0
VERTEX
  5
55B
  8
0
 10
8.403777096316073
 20
9.684502978619646
 30
0.0
  0
VERTEX
  5
55C
  8
0
 10
8.402608522461824
 20
9.685312992719798
 30
0.0
  0
VERTEX
  5
55D
  8
0
 10
8.401434441360214
 20
9.686115874258268
 30
0.0
  0
VERTEX
  5
55E
  8
0
 10
8.400254858265221
 20
9.686911614252269
 30
0.0
  0
VERTEX
  5
55F
  8
0
 10
8.39906977906351
 20
9.687700202996334
 30
0.0
  0
VERTEX
  5
560
  8
0
 10
8.397879209696503
 20
9.688481630722471
 30
0.0
  0
VERTEX
  5
561
  8
0
 10
8.396683156105624
 20
9.689255887662675
 30
0.0
  0
VERTEX
  5
562
  8
0
 10
8.395481624232296
 20
9.690022964048948
 30
0.0
  0
VERTEX
  5
563
  8
0
 10
8.394274620017942
 20
9.690782850113289
 30
0.0
  0
VERTEX
  5
564
  8
0
 10
8.393062149403985
 20
9.691535536087695
 30
0.0
  0
VERTEX
  5
565
  8
0
 10
8.391844218276264
 20
9.692281012084425
 30
0.0
  0
VERTEX
  5
566
  8
0
 10
8.390620826424385
 20
9.693019255083087
 30
0.0
  0
VERTEX
  5
567
  8
0
 10
8.389391962122488
 20
9.693750217256348
 30
0.0
  0
VERTEX
  5
568
  8
0
 10
8.388157612365815
 20
9.694473848021858
 30
0.0
  0
VERTEX
  5
569
  8
0
 10
8.386917764149612
 20
9.69519009679727
 30
0.0
  0
VERTEX
  5
56A
  8
0
 10
8.38567240446912
 20
9.695898913000235
 30
0.0
  0
VERTEX
  5
56B
  8
0
 10
8.384421520319588
 20
9.696600246048407
 30
0.0
  0
VERTEX
  5
56C
  8
0
 10
8.383165098696256
 20
9.697294045359435
 30
0.0
  0
VERTEX
  5
56D
  8
0
 10
8.381903126668936
 20
9.697980260460488
 30
0.0
  0
VERTEX
  5
56E
  8
0
 10
8.38063561190853
 20
9.698658871138532
 30
0.0
  0
VERTEX
  5
56F
  8
0
 10
8.379362610663035
 20
9.69932992853263
 30
0.0
  0
VERTEX
  5
570
  8
0
 10
8.37808418617829
 20
9.699993494060603
 30
0.0
  0
VERTEX
  5
571
  8
0
 10
8.376800401700148
 20
9.70064962914028
 30
0.0
  0
VERTEX
  5
572
  8
0
 10
8.375511320474457
 20
9.701298395189482
 30
0.0
  0
VERTEX
  5
573
  8
0
 10
8.374217005747063
 20
9.701939853626035
 30
0.0
  0
VERTEX
  5
574
  8
0
 10
8.372917520763817
 20
9.702574065867767
 30
0.0
  0
VERTEX
  5
575
  8
0
 10
8.371612928719367
 20
9.703201093244463
 30
0.0
  0
VERTEX
  5
576
  8
0
 10
8.37030323282994
 20
9.703820893952253
 30
0.0
  0
VERTEX
  5
577
  8
0
 10
8.368988260511108
 20
9.704433123895798
 30
0.0
  0
VERTEX
  5
578
  8
0
 10
8.367667807135936
 20
9.70503738388228
 30
0.0
  0
VERTEX
  5
579
  8
0
 10
8.366341668077508
 20
9.705633274718888
 30
0.0
  0
VERTEX
  5
57A
  8
0
 10
8.365009638708885
 20
9.7062203972128
 30
0.0
  0
VERTEX
  5
57B
  8
0
 10
8.36367151440315
 20
9.706798352171202
 30
0.0
  0
VERTEX
  5
57C
  8
0
 10
8.362327090533372
 20
9.707366740401278
 30
0.0
  0
VERTEX
  5
57D
  8
0
 10
8.360976162485978
 20
9.70792516273191
 30
0.0
  0
VERTEX
  5
57E
  8
0
 10
8.359618721594268
 20
9.708473538327631
 30
0.0
  0
VERTEX
  5
57F
  8
0
 10
8.35825544915338
 20
9.70901290726627
 30
0.0
  0
VERTEX
  5
580
  8
0
 10
8.356887178241752
 20
9.709544556213116
 30
0.0
  0
VERTEX
  5
581
  8
0
 10
8.355514741937855
 20
9.710069771833473
 30
0.0
  0
VERTEX
  5
582
  8
0
 10
8.354138973320136
 20
9.710589840792638
 30
0.0
  0
VERTEX
  5
583
  8
0
 10
8.352760705467052
 20
9.711106049755907
 30
0.0
  0
VERTEX
  5
584
  8
0
 10
8.35138077145706
 20
9.711619685388582
 30
0.0
  0
VERTEX
  5
585
  8
0
 10
8.35000000436861
 20
9.71213203435596
 30
0.0
  0
SEQEND
  5
997
  8
0
  0
LINE
  5
102
  8
0
 10
8.350000000000016
 20
9.050000000000011
 30
0.0
 11
8.350000000000016
 21
9.287867965644054
 31
0.0
  0
LINE
  5
103
  8
0
 10
8.5
 20
9.050000000000011
 30
0.0
 11
8.350000000000016
 21
9.050000000000011
 31
0.0
  0
LINE
  5
104
  8
0
 10
8.499999999143746
 20
9.200000000000003
 30
0.0
 11
8.5
 21
9.050000000000011
 31
0.0
  0
POLYLINE
  5
105
  8
0
 66
     1
 10
0.0
 20
0.0
 30
0.0
  0
VERTEX
  5
586
  8
0
 10
8.584232921065066
 20
9.287867965644054
 30
0.0
  0
VERTEX
  5
587
  8
0
 10
8.581334167533942
 20
9.283703034518105
 30
0.0
  0
VERTEX
  5
588
  8
0
 10
8.578376296699467
 20
9.279573544960297
 30
0.0
  0
VERTEX
  5
589
  8
0
 10
8.575359955958392
 20
9.275480743938758
 30
0.0
  0
VERTEX
  5
58A
  8
0
 10
8.572285827518648
 20
9.271425862689068
 30
0.0
  0
VERTEX
  5
58B
  8
0
 10
8.569154627921437
 20
9.26741011550661
 30
0.0
  0
VERTEX
  5
58C
  8
0
 10
8.565967107513224
 20
9.263434698556415
 30
0.0
  0
VERTEX
  5
58D
  8
0
 10
8.562724049868478
 20
9.25950078870287
 30
0.0
  0
VERTEX
  5
58E
  8
0
 10
8.559426271163998
 20
9.255609542361709
 30
0.0
  0
VERTEX
  5
58F
  8
0
 10
8.556074619505841
 20
9.25176209437659
 30
0.0
  0
VERTEX
  5
590
  8
0
 10
8.552669974210005
 20
9.247959556922515
 30
0.0
  0
VERTEX
  5
591
  8
0
 10
8.549213245038127
 20
9.24420301843833
 30
0.0
  0
VERTEX
  5
592
  8
0
 10
8.545705371389568
 20
9.240493542590471
 30
0.0
  0
VERTEX
  5
593
  8
0
 10
8.54214732145142
 20
9.236832167269947
 30
0.0
  0
VERTEX
  5
594
  8
0
 10
8.538540091307999
 20
9.233219903624631
 30
0.0
  0
VERTEX
  5
595
  8
0
 10
8.534884704011597
 20
9.229657735128702
 30
0.0
  0
VERTEX
  5
596
  8
0
 10
8.531182208616269
 20
9.226146616691027
 30
0.0
  0
VERTEX
  5
597
  8
0
 10
8.527433679176589
 20
9.222687473804246
 30
0.0
  0
VERTEX
  5
598
  8
0
 10
8.523640213713398
 20
9.219281201736056
 30
0.0
  0
VERTEX
  5
599
  8
0
 10
8.519802933148563
 20
9.215928664764238
 30
0.0
  0
VERTEX
  5
59A
  8
0
 10
8.515922980210986
 20
9.212630695456753
 30
0.0
  0
VERTEX
  5
59B
  8
0
 10
8.512001518316012
 20
9.20938809399814
 30
0.0
  0
VERTEX
  5
59C
  8
0
 10
8.508039730420597
 20
9.206201627563376
 30
0.0
  0
VERTEX
  5
59D
  8
0
 10
8.504038817856463
 20
9.20307202974007
 30
0.0
  0
VERTEX
  5
59E
  8
0
 10
8.499999999143746
 20
9.200000000000003
 30
0.0
  0
SEQEND
  5
998
  8
0
  0
POLYLINE
  5
106
  8
0
 66
     1
 10
0.0
 20
0.0
 30
0.0
  0
VERTEX
  5
59F
  8
0
 10
8.584232921065066
 20
9.71213203435596
 30
0.0
  0
VERTEX
  5
5A0
  8
0
 10
8.584976543471601
 20
9.711022744156972
 30
0.0
  0
VERTEX
  5
5A1
  8
0
 10
8.585719933545807
 20
9.709912718212301
 30
0.0
  0
VERTEX
  5
5A2
  8
0
 10
8.58646285895536
 20
9.70880122077626
 30
0.0
  0
VERTEX
  5
5A3
  8
0
 10
8.587205087367929
 20
9.70768751610317
 30
0.0
  0
VERTEX
  5
5A4
  8
0
 10
8.587946386451195
 20
9.706570868447347
 30
0.0
  0
VERTEX
  5
5A5
  8
0
 10
8.588686523872822
 20
9.705450542063106
 30
0.0
  0
VERTEX
  5
5A6
  8
0
 10
8.589425267300484
 20
9.704325801204762
 30
0.0
  0
VERTEX
  5
5A7
  8
0
 10
8.590162384401859
 20
9.70319591012663
 30
0.0
  0
VERTEX
  5
5A8
  8
0
 10
8.590897642844615
 20
9.70206013308303
 30
0.0
  0
VERTEX
  5
5A9
  8
0
 10
8.591630810296428
 20
9.70091773432828
 30
0.0
  0
VERTEX
  5
5AA
  8
0
 10
8.592361659798366
 20
9.699768000392886
 30
0.0
  0
VERTEX
  5
5AB
  8
0
 10
8.593090076086613
 20
9.698610680855532
 30
0.0
  0
VERTEX
  5
5AC
  8
0
 10
8.593816049359408
 20
9.697445962503044
 30
0.0
  0
VERTEX
  5
5AD
  8
0
 10
8.59453957394049
 20
9.696274049225103
 30
0.0
  0
VERTEX
  5
5AE
  8
0
 10
8.595260644153598
 20
9.69509514491138
 30
0.0
  0
VERTEX
  5
5AF
  8
0
 10
8.59597925432247
 20
9.693909453451555
 30
0.0
  0
VERTEX
  5
5B0
  8
0
 10
8.59669539877085
 20
9.692717178735313
 30
0.0
  0
VERTEX
  5
5B1
  8
0
 10
8.59740907182247
 20
9.691518524652322
 30
0.0
  0
VERTEX
  5
5B2
  8
0
 10
8.598120267801074
 20
9.69031369509226
 30
0.0
  0
VERTEX
  5
5B3
  8
0
 10
8.598828981030396
 20
9.68910289394481
 30
0.0
  0
VERTEX
  5
5B4
  8
0
 10
8.59953520583359
 20
9.687886325097423
 30
0.0
  0
VERTEX
  5
5B5
  8
0
 10
8.600238924037921
 20
9.686664145367509
 30
0.0
  0
VERTEX
  5
5B6
  8
0
 10
8.600940072797934
 20
9.685436343297278
 30
0.0
  0
VERTEX
  5
5B7
  8
0
 10
8.601638579289299
 20
9.68420286984003
 30
0.0
  0
VERTEX
  5
5B8
  8
0
 10
8.602334370687668
 20
9.682963675949061
 30
0.0
  0
VERTEX
  5
5B9
  8
0
 10
8.603027374168711
 20
9.681718712577663
 30
0.0
  0
VERTEX
  5
5BA
  8
0
 10
8.603717516908084
 20
9.680467930679141
 30
0.0
  0
VERTEX
  5
5BB
  8
0
 10
8.604404726081453
 20
9.679211281206785
 30
0.0
  0
VERTEX
  5
5BC
  8
0
 10
8.605088928864479
 20
9.67794871511389
 30
0.0
  0
VERTEX
  5
5BD
  8
0
 10
8.60577005243282
 20
9.676680183353758
 30
0.0
  0
VERTEX
  5
5BE
  8
0
 10
8.606448023962145
 20
9.675405636879685
 30
0.0
  0
VERTEX
  5
5BF
  8
0
 10
8.607122771473994
 20
9.674125029114457
 30
0.0
  0
VERTEX
  5
5C0
  8
0
 10
8.607794237851602
 20
9.672838356868182
 30
0.0
  0
VERTEX
  5
5C1
  8
0
 10
8.608462378662809
 20
9.671545653982585
 30
0.0
  0
VERTEX
  5
5C2
  8
0
 10
8.609127149882525
 20
9.670246955487743
 30
0.0
  0
VERTEX
  5
5C3
  8
0
 10
8.60978850748565
 20
9.668942296413737
 30
0.0
  0
VERTEX
  5
5C4
  8
0
 10
8.610446407447084
 20
9.667631711790646
 30
0.0
  0
VERTEX
  5
5C5
  8
0
 10
8.611100805741732
 20
9.666315236648549
 30
0.0
  0
VERTEX
  5
5C6
  8
0
 10
8.6117516583445
 20
9.66499290601753
 30
0.0
  0
VERTEX
  5
5C7
  8
0
 10
8.612398921019196
 20
9.663664754488142
 30
0.0
  0
VERTEX
  5
5C8
  8
0
 10
8.613042544321894
 20
9.662330805807644
 30
0.0
  0
VERTEX
  5
5C9
  8
0
 10
8.613682473397159
 20
9.660991072455706
 30
0.0
  0
VERTEX
  5
5CA
  8
0
 10
8.614318653137678
 20
9.65964556638756
 30
0.0
  0
VERTEX
  5
5CB
  8
0
 10
8.614951028436138
 20
9.658294299558449
 30
0.0
  0
VERTEX
  5
5CC
  8
0
 10
8.615579544185238
 20
9.65693728392361
 30
0.0
  0
VERTEX
  5
5CD
  8
0
 10
8.616204145277665
 20
9.65557453143828
 30
0.0
  0
VERTEX
  5
5CE
  8
0
 10
8.61682477660611
 20
9.6542060540577
 30
0.0
  0
VERTEX
  5
5CF
  8
0
 10
8.617441383087288
 20
9.652831863860829
 30
0.0
  0
VERTEX
  5
5D0
  8
0
 10
8.618053910561681
 20
9.651451977684673
 30
0.0
  0
VERTEX
  5
5D1
  8
0
 10
8.618662306064026
 20
9.650066418517387
 30
0.0
  0
VERTEX
  5
5D2
  8
0
 10
8.61926651670829
 20
9.648675209755261
 30
0.0
  0
VERTEX
  5
5D3
  8
0
 10
8.619866489608446
 20
9.647278374794581
 30
0.0
  0
VERTEX
  5
5D4
  8
0
 10
8.620462171878463
 20
9.645875937031628
 30
0.0
  0
VERTEX
  5
5D5
  8
0
 10
8.621053510632311
 20
9.644467919862686
 30
0.0
  0
VERTEX
  5
5D6
  8
0
 10
8.621640452983963
 20
9.643054346684043
 30
0.0
  0
VERTEX
  5
5D7
  8
0
 10
8.622222945928904
 20
9.641635240814358
 30
0.0
  0
VERTEX
  5
5D8
  8
0
 10
8.622800928583672
 20
9.640210620410496
 30
0.0
  0
VERTEX
  5
5D9
  8
0
 10
8.62337432738776
 20
9.638780495324115
 30
0.0
  0
VERTEX
  5
5DA
  8
0
 10
8.623943067633972
 20
9.637344874655634
 30
0.0
  0
VERTEX
  5
5DB
  8
0
 10
8.624507074615128
 20
9.635903767505479
 30
0.0
  0
VERTEX
  5
5DC
  8
0
 10
8.625066273624036
 20
9.634457182974074
 30
0.0
  0
VERTEX
  5
5DD
  8
0
 10
8.625620589953511
 20
9.633005130161848
 30
0.0
  0
VERTEX
  5
5DE
  8
0
 10
8.626169948896363
 20
9.631547618169217
 30
0.0
  0
VERTEX
  5
5DF
  8
0
 10
8.626714275814692
 20
9.630084656180475
 30
0.0
  0
VERTEX
  5
5E0
  8
0
 10
8.627253504851101
 20
9.628616264008366
 30
0.0
  0
VERTEX
  5
5E1
  8
0
 10
8.62778758741895
 20
9.62714248237118
 30
0.0
  0
VERTEX
  5
5E2
  8
0
 10
8.628316476946624
 20
9.625663354426324
 30
0.0
  0
VERTEX
  5
5E3
  8
0
 10
8.628840126862514
 20
9.624178923331199
 30
0.0
  0
VERTEX
  5
5E4
  8
0
 10
8.629358490594997
 20
9.622689232243204
 30
0.0
  0
VERTEX
  5
5E5
  8
0
 10
8.629871521572467
 20
9.621194324319749
 30
0.0
  0
VERTEX
  5
5E6
  8
0
 10
8.630379173223307
 20
9.619694242718236
 30
0.0
  0
VERTEX
  5
5E7
  8
0
 10
8.630881398975905
 20
9.618189030596065
 30
0.0
  0
VERTEX
  5
5E8
  8
0
 10
8.631378153526198
 20
9.616678732295883
 30
0.0
  0
VERTEX
  5
5E9
  8
0
 10
8.631869398790375
 20
9.615163398911744
 30
0.0
  0
VERTEX
  5
5EA
  8
0
 10
8.632355099237474
 20
9.613643083924776
 30
0.0
  0
VERTEX
  5
5EB
  8
0
 10
8.632835219339457
 20
9.612117840818843
 30
0.0
  0
VERTEX
  5
5EC
  8
0
 10
8.633309723568296
 20
9.61058772307782
 30
0.0
  0
VERTEX
  5
5ED
  8
0
 10
8.633778576395963
 20
9.609052784185582
 30
0.0
  0
VERTEX
  5
5EE
  8
0
 10
8.63424174229443
 20
9.607513077625997
 30
0.0
  0
VERTEX
  5
5EF
  8
0
 10
8.634699185735657
 20
9.605968656882938
 30
0.0
  0
VERTEX
  5
5F0
  8
0
 10
8.635150870991936
 20
9.604419575369654
 30
0.0
  0
VERTEX
  5
5F1
  8
0
 10
8.635596757617902
 20
9.602865884830944
 30
0.0
  0
VERTEX
  5
5F2
  8
0
 10
8.636036800380161
 20
9.601307635318246
 30
0.0
  0
VERTEX
  5
5F3
  8
0
 10
8.636470953831536
 20
9.599744876807405
 30
0.0
  0
VERTEX
  5
5F4
  8
0
 10
8.636899172524858
 20
9.59817765927425
 30
0.0
  0
VERTEX
  5
5F5
  8
0
 10
8.637321411012964
 20
9.596606032694632
 30
0.0
  0
VERTEX
  5
5F6
  8
0
 10
8.637737623848679
 20
9.595030047044387
 30
0.0
  0
VERTEX
  5
5F7
  8
0
 10
8.638147765584835
 20
9.593449752299357
 30
0.0
  0
VERTEX
  5
5F8
  8
0
 10
8.638551790773422
 20
9.591865198435855
 30
0.0
  0
VERTEX
  5
5F9
  8
0
 10
8.63894965267526
 20
9.59027643616987
 30
0.0
  0
VERTEX
  5
5FA
  8
0
 10
8.639341300654376
 20
9.588683518449704
 30
0.0
  0
VERTEX
  5
5FB
  8
0
 10
8.639726683342555
 20
9.587086498643124
 30
0.0
  0
VERTEX
  5
5FC
  8
0
 10
8.640105749371589
 20
9.585485430117904
 30
0.0
  0
VERTEX
  5
5FD
  8
0
 10
8.64047844737327
 20
9.583880366241813
 30
0.0
  0
VERTEX
  5
5FE
  8
0
 10
8.640844725979386
 20
9.582271360382617
 30
0.0
  0
VERTEX
  5
5FF
  8
0
 10
8.641204533821728
 20
9.58065846590809
 30
0.0
  0
VERTEX
  5
600
  8
0
 10
8.641557819532085
 20
9.579041736186003
 30
0.0
  0
VERTEX
  5
601
  8
0
 10
8.641904531588242
 20
9.577421224936948
 30
0.0
  0
VERTEX
  5
602
  8
0
 10
8.642244616867641
 20
9.575796989547907
 30
0.0
  0
VERTEX
  5
603
  8
0
 10
8.642578021298844
 20
9.574169089579772
 30
0.0
  0
VERTEX
  5
604
  8
0
 10
8.642904690797948
 20
9.572537584621962
 30
0.0
  0
VERTEX
  5
605
  8
0
 10
8.643224571281058
 20
9.57090253426389
 30
0.0
  0
VERTEX
  5
606
  8
0
 10
8.643537608664275
 20
9.569263998094975
 30
0.0
  0
VERTEX
  5
607
  8
0
 10
8.643843748863702
 20
9.567622035704636
 30
0.0
  0
VERTEX
  5
608
  8
0
 10
8.644142937795444
 20
9.56597670668229
 30
0.0
  0
VERTEX
  5
609
  8
0
 10
8.644435121271988
 20
9.564328070647251
 30
0.0
  0
VERTEX
  5
60A
  8
0
 10
8.644720238063153
 20
9.562676189250853
 30
0.0
  0
VERTEX
  5
60B
  8
0
 10
8.644998215519394
 20
9.561021127439266
 30
0.0
  0
VERTEX
  5
60C
  8
0
 10
8.64526897994757
 20
9.559362950459766
 30
0.0
  0
VERTEX
  5
60D
  8
0
 10
8.645532457654554
 20
9.55770172355962
 30
0.0
  0
VERTEX
  5
60E
  8
0
 10
8.645788574947215
 20
9.556037511986112
 30
0.0
  0
VERTEX
  5
60F
  8
0
 10
8.646037258132417
 20
9.554370380986512
 30
0.0
  0
VERTEX
  5
610
  8
0
 10
8.646278433517033
 20
9.552700395808092
 30
0.0
  0
VERTEX
  5
611
  8
0
 10
8.646512027407923
 20
9.551027621698127
 30
0.0
  0
VERTEX
  5
612
  8
0
 10
8.646737976976619
 20
9.549352128344562
 30
0.0
  0
VERTEX
  5
613
  8
0
 10
8.646956268551778
 20
9.547674005527151
 30
0.0
  0
VERTEX
  5
614
  8
0
 10
8.647166902357956
 20
9.545993348705261
 30
0.0
  0
VERTEX
  5
615
  8
0
 10
8.64736987862056
 20
9.544310253338612
 30
0.0
  0
VERTEX
  5
616
  8
0
 10
8.647565197564997
 20
9.542624814886917
 30
0.0
  0
VERTEX
  5
617
  8
0
 10
8.647752859416679
 20
9.5409371288099
 30
0.0
  0
VERTEX
  5
618
  8
0
 10
8.647932864401005
 20
9.539247290567273
 30
0.0
  0
VERTEX
  5
619
  8
0
 10
8.648105212743385
 20
9.537555395618755
 30
0.0
  0
VERTEX
  5
61A
  8
0
 10
8.648269904896921
 20
9.535861539284829
 30
0.0
  0
VERTEX
  5
61B
  8
0
 10
8.64842694528002
 20
9.53416581446119
 30
0.0
  0
VERTEX
  5
61C
  8
0
 10
8.64857634167699
 20
9.532468311985285
 30
0.0
  0
VERTEX
  5
61D
  8
0
 10
8.648718101978929
 20
9.530769122629254
 30
0.0
  0
VERTEX
  5
61E
  8
0
 10
8.648852234076951
 20
9.529068337165235
 30
0.0
  0
VERTEX
  5
61F
  8
0
 10
8.648978745862161
 20
9.527366046365364
 30
0.0
  0
VERTEX
  5
620
  8
0
 10
8.649097645225664
 20
9.52566234100178
 30
0.0
  0
VERTEX
  5
621
  8
0
 10
8.64920894005857
 20
9.52395731184662
 30
0.0
  0
VERTEX
  5
622
  8
0
 10
8.649312638247537
 20
9.522251049670448
 30
0.0
  0
VERTEX
  5
623
  8
0
 10
8.649408745063297
 20
9.520543644316753
 30
0.0
  0
VERTEX
  5
624
  8
0
 10
8.649497258758426
 20
9.518835183141832
 30
0.0
  0
VERTEX
  5
625
  8
0
 10
8.649578176420786
 20
9.517125753089209
 30
0.0
  0
VERTEX
  5
626
  8
0
 10
8.64965149513824
 20
9.515415441102407
 30
0.0
  0
VERTEX
  5
627
  8
0
 10
8.649717211998649
 20
9.513704334124954
 30
0.0
  0
VERTEX
  5
628
  8
0
 10
8.649775324089878
 20
9.511992519100376
 30
0.0
  0
VERTEX
  5
629
  8
0
 10
8.64982582849979
 20
9.510280082972201
 30
0.0
  0
VERTEX
  5
62A
  8
0
 10
8.649868722316247
 20
9.508567112683952
 30
0.0
  0
VERTEX
  5
62B
  8
0
 10
8.649904002356001
 20
9.506853695213934
 30
0.0
  0
VERTEX
  5
62C
  8
0
 10
8.649931662555707
 20
9.505139917909885
 30
0.0
  0
VERTEX
  5
62D
  8
0
 10
8.64995169511519
 20
9.503425868342338
 30
0.0
  0
VERTEX
  5
62E
  8
0
 10
8.649964092210338
 20
9.501711634084893
 30
0.0
  0
VERTEX
  5
62F
  8
0
 10
8.649968846017028
 20
9.49999730271115
 30
0.0
  0
VERTEX
  5
630
  8
0
 10
8.64996594871114
 20
9.498282961794715
 30
0.0
  0
VERTEX
  5
631
  8
0
 10
8.649955392468552
 20
9.49656869890919
 30
0.0
  0
VERTEX
  5
632
  8
0
 10
8.64993716946515
 20
9.494854601628177
 30
0.0
  0
VERTEX
  5
633
  8
0
 10
8.64991127184907
 20
9.493140757534999
 30
0.0
  0
VERTEX
  5
634
  8
0
 10
8.649877688377016
 20
9.491427255402506
 30
0.0
  0
VERTEX
  5
635
  8
0
 10
8.649836401199838
 20
9.489714186320477
 30
0.0
  0
VERTEX
  5
636
  8
0
 10
8.649787391706734
 20
9.48800164164583
 30
0.0
  0
VERTEX
  5
637
  8
0
 10
8.6497306412869
 20
9.486289712735475
 30
0.0
  0
VERTEX
  5
638
  8
0
 10
8.649666131329546
 20
9.48457849094634
 30
0.0
  0
VERTEX
  5
639
  8
0
 10
8.649593843223862
 20
9.482868067635339
 30
0.0
  0
VERTEX
  5
63A
  8
0
 10
8.649513758359054
 20
9.48115853415939
 30
0.0
  0
VERTEX
  5
63B
  8
0
 10
8.649425858124317
 20
9.479449981875408
 30
0.0
  0
VERTEX
  5
63C
  8
0
 10
8.64933012461662
 20
9.477742502942544
 30
0.0
  0
VERTEX
  5
63D
  8
0
 10
8.64922654480555
 20
9.476036195042887
 30
0.0
  0
VERTEX
  5
63E
  8
0
 10
8.649115107711953
 20
9.474331158183558
 30
0.0
  0
VERTEX
  5
63F
  8
0
 10
8.648995802363821
 20
9.472627492379775
 30
0.0
  0
VERTEX
  5
640
  8
0
 10
8.648868617789145
 20
9.470925297646765
 30
0.0
  0
VERTEX
  5
641
  8
0
 10
8.648733543015911
 20
9.469224673999738
 30
0.0
  0
VERTEX
  5
642
  8
0
 10
8.648590567072118
 20
9.467525721453917
 30
0.0
  0
VERTEX
  5
643
  8
0
 10
8.648439678985751
 20
9.465828540024525
 30
0.0
  0
VERTEX
  5
644
  8
0
 10
8.648280868820214
 20
9.46413322939962
 30
0.0
  0
VERTEX
  5
645
  8
0
 10
8.648114161211367
 20
9.462439878343535
 30
0.0
  0
VERTEX
  5
646
  8
0
 10
8.647939622671549
 20
9.460748562389014
 30
0.0
  0
VERTEX
  5
647
  8
0
 10
8.647757322226182
 20
9.459059356274768
 30
0.0
  0
VERTEX
  5
648
  8
0
 10
8.64756732890068
 20
9.457372334739503
 30
0.0
  0
VERTEX
  5
649
  8
0
 10
8.647369711720465
 20
9.45568757252193
 30
0.0
  0
VERTEX
  5
64A
  8
0
 10
8.647164539710943
 20
9.45400514436075
 30
0.0
  0
VERTEX
  5
64B
  8
0
 10
8.646951881897534
 20
9.452325124994672
 30
0.0
  0
VERTEX
  5
64C
  8
0
 10
8.646731806034738
 20
9.45064758891116
 30
0.0
  0
VERTEX
  5
64D
  8
0
 10
8.646504367120258
 20
9.448972608075858
 30
0.0
  0
VERTEX
  5
64E
  8
0
 10
8.646269612788254
 20
9.447300252998726
 30
0.0
  0
VERTEX
  5
64F
  8
0
 10
8.646027590583833
 20
9.445630594172144
 30
0.0
  0
VERTEX
  5
650
  8
0
 10
8.645778348052092
 20
9.443963702088473
 30
0.0
  0
VERTEX
  5
651
  8
0
 10
8.645521932738129
 20
9.442299647240082
 30
0.0
  0
VERTEX
  5
652
  8
0
 10
8.645258392187042
 20
9.440638500119338
 30
0.0
  0
VERTEX
  5
653
  8
0
 10
8.644987773943932
 20
9.438980331218609
 30
0.0
  0
VERTEX
  5
654
  8
0
 10
8.644710125272548
 20
9.437325210112808
 30
0.0
  0
VERTEX
  5
655
  8
0
 10
8.644425492201222
 20
9.435673202348237
 30
0.0
  0
VERTEX
  5
656
  8
0
 10
8.644133920419277
 20
9.43402437236573
 30
0.0
  0
VERTEX
  5
657
  8
0
 10
8.643835455616026
 20
9.432378784606094
 30
0.0
  0
VERTEX
  5
658
  8
0
 10
8.643530143480788
 20
9.430736503510133
 30
0.0
  0
VERTEX
  5
659
  8
0
 10
8.64321802970288
 20
9.429097593518657
 30
0.0
  0
VERTEX
  5
65A
  8
0
 10
8.642899159971613
 20
9.427462119072468
 30
0.0
  0
VERTEX
  5
65B
  8
0
 10
8.642573579965568
 20
9.425830144607513
 30
0.0
  0
VERTEX
  5
65C
  8
0
 10
8.642241333523376
 20
9.424201733726475
 30
0.0
  0
VERTEX
  5
65D
  8
0
 10
8.641902460574881
 20
9.42257694826185
 30
0.0
  0
VERTEX
  5
65E
  8
0
 10
8.641557000550204
 20
9.420955849819833
 30
0.0
  0
VERTEX
  5
65F
  8
0
 10
8.641204992879457
 20
9.419338500006605
 30
0.0
  0
VERTEX
  5
660
  8
0
 10
8.640846476992756
 20
9.417724960428355
 30
0.0
  0
VERTEX
  5
661
  8
0
 10
8.64048149232022
 20
9.416115292691272
 30
0.0
  0
VERTEX
  5
662
  8
0
 10
8.640110078291963
 20
9.41450955840154
 30
0.0
  0
VERTEX
  5
663
  8
0
 10
8.639732274196188
 20
9.412907819206994
 30
0.0
  0
VERTEX
  5
664
  8
0
 10
8.63934811543378
 20
9.411310137896232
 30
0.0
  0
VERTEX
  5
665
  8
0
 10
8.638957633136732
 20
9.409716578510592
 30
0.0
  0
VERTEX
  5
666
  8
0
 10
8.63856085821861
 20
9.408127205155518
 30
0.0
  0
VERTEX
  5
667
  8
0
 10
8.638157821592982
 20
9.406542081936447
 30
0.0
  0
VERTEX
  5
668
  8
0
 10
8.637748554173418
 20
9.404961272958822
 30
0.0
  0
VERTEX
  5
669
  8
0
 10
8.63733308687348
 20
9.403384842328077
 30
0.0
  0
VERTEX
  5
66A
  8
0
 10
8.63691145060674
 20
9.401812854149659
 30
0.0
  0
VERTEX
  5
66B
  8
0
 10
8.636483676659875
 20
9.400245372134853
 30
0.0
  0
VERTEX
  5
66C
  8
0
 10
8.636049799910982
 20
9.398682456201037
 30
0.0
  0
VERTEX
  5
66D
  8
0
 10
8.635609857244052
 20
9.397124164146602
 30
0.0
  0
VERTEX
  5
66E
  8
0
 10
8.635163885564946
 20
9.395570553746829
 30
0.0
  0
VERTEX
  5
66F
  8
0
 10
8.634711921779529
 20
9.394021682777005
 30
0.0
  0
VERTEX
  5
670
  8
0
 10
8.634254002793659
 20
9.392477609012415
 30
0.0
  0
VERTEX
  5
671
  8
0
 10
8.633790165513192
 20
9.390938390228339
 30
0.0
  0
VERTEX
  5
672
  8
0
 10
8.633320446843996
 20
9.389404084200063
 30
0.0
  0
VERTEX
  5
673
  8
0
 10
8.632844889907568
 20
9.387874743276395
 30
0.0
  0
VERTEX
  5
674
  8
0
 10
8.632363562802295
 20
9.386350398000436
 30
0.0
  0
VERTEX
  5
675
  8
0
 10
8.631876539899478
 20
9.384831073438802
 30
0.0
  0
VERTEX
  5
676
  8
0
 10
8.631383895570426
 20
9.3833167946581
 30
0.0
  0
VERTEX
  5
677
  8
0
 10
8.630885704186449
 20
9.38180758672494
 30
0.0
  0
VERTEX
  5
678
  8
0
 10
8.63038204011885
 20
9.380303474705938
 30
0.0
  0
VERTEX
  5
679
  8
0
 10
8.629872977738941
 20
9.378804483667707
 30
0.0
  0
VERTEX
  5
67A
  8
0
 10
8.629358591418027
 20
9.377310638676851
 30
0.0
  0
VERTEX
  5
67B
  8
0
 10
8.628838954235588
 20
9.375821964921803
 30
0.0
  0
VERTEX
  5
67C
  8
0
 10
8.628314129689471
 20
9.374338488494502
 30
0.0
  0
VERTEX
  5
67D
  8
0
 10
8.627784176969577
 20
9.372860235893109
 30
0.0
  0
VERTEX
  5
67E
  8
0
 10
8.627249155245192
 20
9.371387233617734
 30
0.0
  0
VERTEX
  5
67F
  8
0
 10
8.626709123685613
 20
9.369919508168483
 30
0.0
  0
VERTEX
  5
680
  8
0
 10
8.626164141460128
 20
9.36845708604546
 30
0.0
  0
VERTEX
  5
681
  8
0
 10
8.625614267738024
 20
9.366999993748777
 30
0.0
  0
VERTEX
  5
682
  8
0
 10
8.625059561688598
 20
9.365548257778542
 30
0.0
  0
VERTEX
  5
683
  8
0
 10
8.624500082419372
 20
9.364101904453973
 30
0.0
  0
VERTEX
  5
684
  8
0
 10
8.623935888045526
 20
9.36266095718802
 30
0.0
  0
VERTEX
  5
685
  8
0
 10
8.623367035881865
 20
9.361225437049574
 30
0.0
  0
VERTEX
  5
686
  8
0
 10
8.622793583220377
 20
9.359795365040725
 30
0.0
  0
VERTEX
  5
687
  8
0
 10
8.622215587353056
 20
9.358370762163569
 30
0.0
  0
VERTEX
  5
688
  8
0
 10
8.621633105571888
 20
9.35695164942019
 30
0.0
  0
VERTEX
  5
689
  8
0
 10
8.621046195168875
 20
9.355538047812683
 30
0.0
  0
VERTEX
  5
68A
  8
0
 10
8.620454913436001
 20
9.35412997834314
 30
0.0
  0
VERTEX
  5
68B
  8
0
 10
8.619859317627855
 20
9.352727462013132
 30
0.0
  0
VERTEX
  5
68C
  8
0
 10
8.619259463064896
 20
9.351330519797344
 30
0.0
  0
VERTEX
  5
68D
  8
0
 10
8.618655402235705
 20
9.349939172631094
 30
0.0
  0
VERTEX
  5
68E
  8
0
 10
8.618047187403675
 20
9.348553441446578
 30
0.0
  0
VERTEX
  5
68F
  8
0
 10
8.617434870832206
 20
9.347173347175982
 30
0.0
  0
VERTEX
  5
690
  8
0
 10
8.616818504784693
 20
9.3457989107515
 30
0.0
  0
VERTEX
  5
691
  8
0
 10
8.616198141524537
 20
9.344430153105321
 30
0.0
  0
VERTEX
  5
692
  8
0
 10
8.61557383331513
 20
9.34306709516964
 30
0.0
  0
VERTEX
  5
693
  8
0
 10
8.614945632418548
 20
9.341709757875483
 30
0.0
  0
VERTEX
  5
694
  8
0
 10
8.614313590131188
 20
9.34035816130377
 30
0.0
  0
VERTEX
  5
695
  8
0
 10
8.613677755078161
 20
9.339012323183868
 30
0.0
  0
VERTEX
  5
696
  8
0
 10
8.613038175426542
 20
9.337672260841915
 30
0.0
  0
VERTEX
  5
697
  8
0
 10
8.6123948993434
 20
9.336337991604045
 30
0.0
  0
VERTEX
  5
698
  8
0
 10
8.611747974995808
 20
9.335009532796404
 30
0.0
  0
VERTEX
  5
699
  8
0
 10
8.611097450550831
 20
9.333686901745123
 30
0.0
  0
VERTEX
  5
69A
  8
0
 10
8.610443374175548
 20
9.332370115776344
 30
0.0
  0
VERTEX
  5
69B
  8
0
 10
8.609785794037025
 20
9.331059192216207
 30
0.0
  0
VERTEX
  5
69C
  8
0
 10
8.60912475807233
 20
9.329754150265806
 30
0.0
  0
VERTEX
  5
69D
  8
0
 10
8.608460312981624
 20
9.328455019209343
 30
0.0
  0
VERTEX
  5
69E
  8
0
 10
8.607792505051082
 20
9.327161831705771
 30
0.0
  0
VERTEX
  5
69F
  8
0
 10
8.607121380566582
 20
9.325874620416455
 30
0.0
  0
VERTEX
  5
6A0
  8
0
 10
8.606446985814003
 20
9.324593418002761
 30
0.0
  0
VERTEX
  5
6A1
  8
0
 10
8.605769367079223
 20
9.323318257126058
 30
0.0
  0
VERTEX
  5
6A2
  8
0
 10
8.605088570648121
 20
9.32204917044771
 30
0.0
  0
VERTEX
  5
6A3
  8
0
 10
8.604404642806575
 20
9.32078619062908
 30
0.0
  0
VERTEX
  5
6A4
  8
0
 10
8.603717631616117
 20
9.319529344967442
 30
0.0
  0
VERTEX
  5
6A5
  8
0
 10
8.603027603581742
 20
9.31827860504381
 30
0.0
  0
VERTEX
  5
6A6
  8
0
 10
8.602334636140434
 20
9.317033909414551
 30
0.0
  0
VERTEX
  5
6A7
  8
0
 10
8.60163880687247
 20
9.315795196203142
 30
0.0
  0
VERTEX
  5
6A8
  8
0
 10
8.60094019335813
 20
9.314562403533063
 30
0.0
  0
VERTEX
  5
6A9
  8
0
 10
8.600238873177693
 20
9.313335469527784
 30
0.0
  0
VERTEX
  5
6AA
  8
0
 10
8.599534923911438
 20
9.312114332310793
 30
0.0
  0
VERTEX
  5
6AB
  8
0
 10
8.598828423139643
 20
9.310898930005562
 30
0.0
  0
VERTEX
  5
6AC
  8
0
 10
8.598119448442587
 20
9.309689200735567
 30
0.0
  0
VERTEX
  5
6AD
  8
0
 10
8.597408076055023
 20
9.308485087618639
 30
0.0
  0
VERTEX
  5
6AE
  8
0
 10
8.59669434596264
 20
9.307286668322739
 30
0.0
  0
VERTEX
  5
6AF
  8
0
 10
8.595978258686225
 20
9.306094167002481
 30
0.0
  0
VERTEX
  5
6B0
  8
0
 10
8.59525981275643
 20
9.304907815199563
 30
0.0
  0
VERTEX
  5
6B1
  8
0
 10
8.594539006703918
 20
9.303727844455668
 30
0.0
  0
VERTEX
  5
6B2
  8
0
 10
8.593815839059328
 20
9.302554486312482
 30
0.0
  0
VERTEX
  5
6B3
  8
0
 10
8.593090308353316
 20
9.301387972311698
 30
0.0
  0
VERTEX
  5
6B4
  8
0
 10
8.592362413116534
 20
9.300228533994996
 30
0.0
  0
VERTEX
  5
6B5
  8
0
 10
8.591632151879638
 20
9.29907640290407
 30
0.0
  0
VERTEX
  5
6B6
  8
0
 10
8.590899523706788
 20
9.297931808373642
 30
0.0
  0
VERTEX
  5
6B7
  8
0
 10
8.59016460585134
 20
9.296794656296793
 30
0.0
  0
VERTEX
  5
6B8
  8
0
 10
8.589427635370692
 20
9.295664191512573
 30
0.0
  0
VERTEX
  5
6B9
  8
0
 10
8.58868886884299
 20
9.294539578109406
 30
0.0
  0
VERTEX
  5
6BA
  8
0
 10
8.587948562846382
 20
9.29341998017571
 30
0.0
  0
VERTEX
  5
6BB
  8
0
 10
8.587206973959022
 20
9.292304561799904
 30
0.0
  0
VERTEX
  5
6BC
  8
0
 10
8.58646435875906
 20
9.291192487070418
 30
0.0
  0
VERTEX
  5
6BD
  8
0
 10
8.585720973824646
 20
9.290082920075665
 30
0.0
  0
VERTEX
  5
6BE
  8
0
 10
8.584977075733933
 20
9.288975024904072
 30
0.0
  0
VERTEX
  5
6BF
  8
0
 10
8.584232921065066
 20
9.287867965644054
 30
0.0
  0
SEQEND
  5
999
  8
0
  0
LINE
  5
107
  8
0
 10
8.5
 20
4.050000000000011
 30
0.0
 11
8.350000000000016
 21
4.050000000000011
 31
0.0
  0
LINE
  5
108
  8
0
 10
8.499999999143746
 20
4.200000000000003
 30
0.0
 11
8.5
 21
4.050000000000011
 31
0.0
  0
POLYLINE
  5
109
  8
0
 66
     1
 10
0.0
 20
0.0
 30
0.0
  0
VERTEX
  5
6C0
  8
0
 10
8.584232921065066
 20
4.28786796564404
 30
0.0
  0
VERTEX
  5
6C1
  8
0
 10
8.581334167533942
 20
4.283703034518093
 30
0.0
  0
VERTEX
  5
6C2
  8
0
 10
8.578376296699467
 20
4.279573544960285
 30
0.0
  0
VERTEX
  5
6C3
  8
0
 10
8.575359955958392
 20
4.275480743938748
 30
0.0
  0
VERTEX
  5
6C4
  8
0
 10
8.572285827518652
 20
4.27142586268906
 30
0.0
  0
VERTEX
  5
6C5
  8
0
 10
8.569154627921439
 20
4.267410115506603
 30
0.0
  0
VERTEX
  5
6C6
  8
0
 10
8.565967107513224
 20
4.263434698556408
 30
0.0
  0
VERTEX
  5
6C7
  8
0
 10
8.56272404986848
 20
4.259500788702864
 30
0.0
  0
VERTEX
  5
6C8
  8
0
 10
8.559426271163998
 20
4.255609542361706
 30
0.0
  0
VERTEX
  5
6C9
  8
0
 10
8.556074619505843
 20
4.251762094376588
 30
0.0
  0
VERTEX
  5
6CA
  8
0
 10
8.552669974210007
 20
4.247959556922511
 30
0.0
  0
VERTEX
  5
6CB
  8
0
 10
8.549213245038127
 20
4.244203018438329
 30
0.0
  0
VERTEX
  5
6CC
  8
0
 10
8.54570537138957
 20
4.240493542590469
 30
0.0
  0
VERTEX
  5
6CD
  8
0
 10
8.542147321451422
 20
4.236832167269945
 30
0.0
  0
VERTEX
  5
6CE
  8
0
 10
8.538540091308002
 20
4.233219903624632
 30
0.0
  0
VERTEX
  5
6CF
  8
0
 10
8.534884704011601
 20
4.229657735128699
 30
0.0
  0
VERTEX
  5
6D0
  8
0
 10
8.531182208616269
 20
4.226146616691025
 30
0.0
  0
VERTEX
  5
6D1
  8
0
 10
8.527433679176594
 20
4.222687473804245
 30
0.0
  0
VERTEX
  5
6D2
  8
0
 10
8.523640213713401
 20
4.219281201736057
 30
0.0
  0
VERTEX
  5
6D3
  8
0
 10
8.519802933148565
 20
4.215928664764238
 30
0.0
  0
VERTEX
  5
6D4
  8
0
 10
8.515922980210988
 20
4.21263069545675
 30
0.0
  0
VERTEX
  5
6D5
  8
0
 10
8.512001518316016
 20
4.20938809399814
 30
0.0
  0
VERTEX
  5
6D6
  8
0
 10
8.508039730420597
 20
4.206201627563373
 30
0.0
  0
VERTEX
  5
6D7
  8
0
 10
8.504038817856465
 20
4.203072029740071
 30
0.0
  0
VERTEX
  5
6D8
  8
0
 10
8.499999999143746
 20
4.200000000000003
 30
0.0
  0
SEQEND
  5
99A
  8
0
  0
POLYLINE
  5
10A
  8
0
 66
     1
 10
0.0
 20
0.0
 30
0.0
  0
VERTEX
  5
6D9
  8
0
 10
8.584232921065066
 20
4.712132034355974
 30
0.0
  0
VERTEX
  5
6DA
  8
0
 10
8.584976543471601
 20
4.711022744156983
 30
0.0
  0
VERTEX
  5
6DB
  8
0
 10
8.585719933545805
 20
4.709912718212308
 30
0.0
  0
VERTEX
  5
6DC
  8
0
 10
8.586462858955358
 20
4.708801220776265
 30
0.0
  0
VERTEX
  5
6DD
  8
0
 10
8.587205087367929
 20
4.707687516103173
 30
0.0
  0
VERTEX
  5
6DE
  8
0
 10
8.587946386451195
 20
4.706570868447349
 30
0.0
  0
VERTEX
  5
6DF
  8
0
 10
8.588686523872818
 20
4.705450542063105
 30
0.0
  0
VERTEX
  5
6E0
  8
0
 10
8.589425267300484
 20
4.70432580120476
 30
0.0
  0
VERTEX
  5
6E1
  8
0
 10
8.590162384401856
 20
4.703195910126629
 30
0.0
  0
VERTEX
  5
6E2
  8
0
 10
8.590897642844617
 20
4.702060133083032
 30
0.0
  0
VERTEX
  5
6E3
  8
0
 10
8.591630810296426
 20
4.70091773432828
 30
0.0
  0
VERTEX
  5
6E4
  8
0
 10
8.592361659798364
 20
4.699768000392886
 30
0.0
  0
VERTEX
  5
6E5
  8
0
 10
8.593090076086613
 20
4.698610680855532
 30
0.0
  0
VERTEX
  5
6E6
  8
0
 10
8.593816049359406
 20
4.697445962503044
 30
0.0
  0
VERTEX
  5
6E7
  8
0
 10
8.594539573940487
 20
4.696274049225101
 30
0.0
  0
VERTEX
  5
6E8
  8
0
 10
8.5952606441536
 20
4.69509514491138
 30
0.0
  0
VERTEX
  5
6E9
  8
0
 10
8.595979254322472
 20
4.693909453451559
 30
0.0
  0
VERTEX
  5
6EA
  8
0
 10
8.59669539877085
 20
4.692717178735313
 30
0.0
  0
VERTEX
  5
6EB
  8
0
 10
8.597409071822469
 20
4.691518524652321
 30
0.0
  0
VERTEX
  5
6EC
  8
0
 10
8.598120267801075
 20
4.690313695092262
 30
0.0
  0
VERTEX
  5
6ED
  8
0
 10
8.598828981030398
 20
4.689102893944812
 30
0.0
  0
VERTEX
  5
6EE
  8
0
 10
8.59953520583359
 20
4.687886325097424
 30
0.0
  0
VERTEX
  5
6EF
  8
0
 10
8.60023892403792
 20
4.686664145367507
 30
0.0
  0
VERTEX
  5
6F0
  8
0
 10
8.600940072797934
 20
4.685436343297278
 30
0.0
  0
VERTEX
  5
6F1
  8
0
 10
8.601638579289299
 20
4.68420286984003
 30
0.0
  0
VERTEX
  5
6F2
  8
0
 10
8.602334370687668
 20
4.682963675949062
 30
0.0
  0
VERTEX
  5
6F3
  8
0
 10
8.60302737416871
 20
4.681718712577665
 30
0.0
  0
VERTEX
  5
6F4
  8
0
 10
8.603717516908086
 20
4.680467930679142
 30
0.0
  0
VERTEX
  5
6F5
  8
0
 10
8.604404726081453
 20
4.679211281206785
 30
0.0
  0
VERTEX
  5
6F6
  8
0
 10
8.605088928864479
 20
4.677948715113894
 30
0.0
  0
VERTEX
  5
6F7
  8
0
 10
8.60577005243282
 20
4.676680183353763
 30
0.0
  0
VERTEX
  5
6F8
  8
0
 10
8.606448023962143
 20
4.675405636879687
 30
0.0
  0
VERTEX
  5
6F9
  8
0
 10
8.607122771473996
 20
4.674125029114464
 30
0.0
  0
VERTEX
  5
6FA
  8
0
 10
8.607794237851603
 20
4.672838356868191
 30
0.0
  0
VERTEX
  5
6FB
  8
0
 10
8.608462378662812
 20
4.671545653982593
 30
0.0
  0
VERTEX
  5
6FC
  8
0
 10
8.609127149882529
 20
4.670246955487752
 30
0.0
  0
VERTEX
  5
6FD
  8
0
 10
8.609788507485653
 20
4.668942296413746
 30
0.0
  0
VERTEX
  5
6FE
  8
0
 10
8.610446407447085
 20
4.667631711790655
 30
0.0
  0
VERTEX
  5
6FF
  8
0
 10
8.611100805741735
 20
4.666315236648559
 30
0.0
  0
VERTEX
  5
700
  8
0
 10
8.611751658344504
 20
4.664992906017539
 30
0.0
  0
VERTEX
  5
701
  8
0
 10
8.612398921019198
 20
4.66366475448815
 30
0.0
  0
VERTEX
  5
702
  8
0
 10
8.613042544321898
 20
4.662330805807652
 30
0.0
  0
VERTEX
  5
703
  8
0
 10
8.613682473397162
 20
4.66099107245571
 30
0.0
  0
VERTEX
  5
704
  8
0
 10
8.614318653137676
 20
4.659645566387564
 30
0.0
  0
VERTEX
  5
705
  8
0
 10
8.614951028436142
 20
4.658294299558452
 30
0.0
  0
VERTEX
  5
706
  8
0
 10
8.61557954418524
 20
4.656937283923608
 30
0.0
  0
VERTEX
  5
707
  8
0
 10
8.616204145277665
 20
4.655574531438277
 30
0.0
  0
VERTEX
  5
708
  8
0
 10
8.616824776606114
 20
4.654206054057696
 30
0.0
  0
VERTEX
  5
709
  8
0
 10
8.617441383087291
 20
4.652831863860823
 30
0.0
  0
VERTEX
  5
70A
  8
0
 10
8.618053910561683
 20
4.651451977684662
 30
0.0
  0
VERTEX
  5
70B
  8
0
 10
8.61866230606403
 20
4.650066418517376
 30
0.0
  0
VERTEX
  5
70C
  8
0
 10
8.619266516708294
 20
4.64867520975525
 30
0.0
  0
VERTEX
  5
70D
  8
0
 10
8.619866489608452
 20
4.64727837479457
 30
0.0
  0
VERTEX
  5
70E
  8
0
 10
8.62046217187847
 20
4.645875937031618
 30
0.0
  0
VERTEX
  5
70F
  8
0
 10
8.621053510632319
 20
4.644467919862678
 30
0.0
  0
VERTEX
  5
710
  8
0
 10
8.62164045298397
 20
4.643054346684035
 30
0.0
  0
VERTEX
  5
711
  8
0
 10
8.622222945928913
 20
4.641635240814351
 30
0.0
  0
VERTEX
  5
712
  8
0
 10
8.622800928583683
 20
4.640210620410492
 30
0.0
  0
VERTEX
  5
713
  8
0
 10
8.623374327387767
 20
4.638780495324109
 30
0.0
  0
VERTEX
  5
714
  8
0
 10
8.62394306763398
 20
4.637344874655629
 30
0.0
  0
VERTEX
  5
715
  8
0
 10
8.624507074615133
 20
4.635903767505476
 30
0.0
  0
VERTEX
  5
716
  8
0
 10
8.625066273624041
 20
4.634457182974073
 30
0.0
  0
VERTEX
  5
717
  8
0
 10
8.625620589953513
 20
4.633005130161846
 30
0.0
  0
VERTEX
  5
718
  8
0
 10
8.626169948896365
 20
4.631547618169217
 30
0.0
  0
VERTEX
  5
719
  8
0
 10
8.626714275814692
 20
4.630084656180479
 30
0.0
  0
VERTEX
  5
71A
  8
0
 10
8.627253504851101
 20
4.62861626400837
 30
0.0
  0
VERTEX
  5
71B
  8
0
 10
8.62778758741895
 20
4.627142482371185
 30
0.0
  0
VERTEX
  5
71C
  8
0
 10
8.628316476946624
 20
4.625663354426328
 30
0.0
  0
VERTEX
  5
71D
  8
0
 10
8.628840126862508
 20
4.624178923331201
 30
0.0
  0
VERTEX
  5
71E
  8
0
 10
8.629358490594997
 20
4.622689232243209
 30
0.0
  0
VERTEX
  5
71F
  8
0
 10
8.629871521572467
 20
4.621194324319754
 30
0.0
  0
VERTEX
  5
720
  8
0
 10
8.630379173223307
 20
4.61969424271824
 30
0.0
  0
VERTEX
  5
721
  8
0
 10
8.630881398975902
 20
4.618189030596068
 30
0.0
  0
VERTEX
  5
722
  8
0
 10
8.631378153526192
 20
4.616678732295886
 30
0.0
  0
VERTEX
  5
723
  8
0
 10
8.631869398790373
 20
4.615163398911749
 30
0.0
  0
VERTEX
  5
724
  8
0
 10
8.632355099237468
 20
4.61364308392478
 30
0.0
  0
VERTEX
  5
725
  8
0
 10
8.632835219339453
 20
4.612117840818846
 30
0.0
  0
VERTEX
  5
726
  8
0
 10
8.633309723568292
 20
4.610587723077825
 30
0.0
  0
VERTEX
  5
727
  8
0
 10
8.633778576395956
 20
4.609052784185584
 30
0.0
  0
VERTEX
  5
728
  8
0
 10
8.63424174229442
 20
4.607513077626
 30
0.0
  0
VERTEX
  5
729
  8
0
 10
8.634699185735652
 20
4.60596865688294
 30
0.0
  0
VERTEX
  5
72A
  8
0
 10
8.635150870991932
 20
4.60441957536966
 30
0.0
  0
VERTEX
  5
72B
  8
0
 10
8.635596757617899
 20
4.602865884830947
 30
0.0
  0
VERTEX
  5
72C
  8
0
 10
8.636036800380156
 20
4.60130763531825
 30
0.0
  0
VERTEX
  5
72D
  8
0
 10
8.636470953831532
 20
4.599744876807405
 30
0.0
  0
VERTEX
  5
72E
  8
0
 10
8.636899172524856
 20
4.598177659274254
 30
0.0
  0
VERTEX
  5
72F
  8
0
 10
8.63732141101296
 20
4.596606032694634
 30
0.0
  0
VERTEX
  5
730
  8
0
 10
8.637737623848675
 20
4.595030047044389
 30
0.0
  0
VERTEX
  5
731
  8
0
 10
8.638147765584831
 20
4.593449752299357
 30
0.0
  0
VERTEX
  5
732
  8
0
 10
8.63855179077342
 20
4.591865198435856
 30
0.0
  0
VERTEX
  5
733
  8
0
 10
8.63894965267526
 20
4.590276436169873
 30
0.0
  0
VERTEX
  5
734
  8
0
 10
8.639341300654374
 20
4.588683518449707
 30
0.0
  0
VERTEX
  5
735
  8
0
 10
8.639726683342554
 20
4.587086498643127
 30
0.0
  0
VERTEX
  5
736
  8
0
 10
8.64010574937159
 20
4.585485430117907
 30
0.0
  0
VERTEX
  5
737
  8
0
 10
8.64047844737327
 20
4.583880366241812
 30
0.0
  0
VERTEX
  5
738
  8
0
 10
8.640844725979385
 20
4.582271360382618
 30
0.0
  0
VERTEX
  5
739
  8
0
 10
8.641204533821726
 20
4.580658465908091
 30
0.0
  0
VERTEX
  5
73A
  8
0
 10
8.641557819532082
 20
4.579041736186003
 30
0.0
  0
VERTEX
  5
73B
  8
0
 10
8.64190453158824
 20
4.577421224936951
 30
0.0
  0
VERTEX
  5
73C
  8
0
 10
8.642244616867641
 20
4.57579698954791
 30
0.0
  0
VERTEX
  5
73D
  8
0
 10
8.642578021298842
 20
4.574169089579775
 30
0.0
  0
VERTEX
  5
73E
  8
0
 10
8.642904690797945
 20
4.572537584621963
 30
0.0
  0
VERTEX
  5
73F
  8
0
 10
8.643224571281053
 20
4.57090253426389
 30
0.0
  0
VERTEX
  5
740
  8
0
 10
8.643537608664268
 20
4.569263998094976
 30
0.0
  0
VERTEX
  5
741
  8
0
 10
8.643843748863697
 20
4.567622035704637
 30
0.0
  0
VERTEX
  5
742
  8
0
 10
8.644142937795438
 20
4.56597670668229
 30
0.0
  0
VERTEX
  5
743
  8
0
 10
8.644435121271982
 20
4.564328070647251
 30
0.0
  0
VERTEX
  5
744
  8
0
 10
8.644720238063147
 20
4.562676189250854
 30
0.0
  0
VERTEX
  5
745
  8
0
 10
8.644998215519388
 20
4.561021127439267
 30
0.0
  0
VERTEX
  5
746
  8
0
 10
8.645268979947565
 20
4.559362950459764
 30
0.0
  0
VERTEX
  5
747
  8
0
 10
8.645532457654552
 20
4.557701723559623
 30
0.0
  0
VERTEX
  5
748
  8
0
 10
8.645788574947213
 20
4.556037511986114
 30
0.0
  0
VERTEX
  5
749
  8
0
 10
8.646037258132417
 20
4.554370380986513
 30
0.0
  0
VERTEX
  5
74A
  8
0
 10
8.64627843351703
 20
4.552700395808093
 30
0.0
  0
VERTEX
  5
74B
  8
0
 10
8.64651202740792
 20
4.551027621698128
 30
0.0
  0
VERTEX
  5
74C
  8
0
 10
8.646737976976617
 20
4.549352128344562
 30
0.0
  0
VERTEX
  5
74D
  8
0
 10
8.64695626855178
 20
4.547674005527153
 30
0.0
  0
VERTEX
  5
74E
  8
0
 10
8.647166902357958
 20
4.545993348705263
 30
0.0
  0
VERTEX
  5
74F
  8
0
 10
8.647369878620562
 20
4.544310253338613
 30
0.0
  0
VERTEX
  5
750
  8
0
 10
8.647565197564997
 20
4.54262481488692
 30
0.0
  0
VERTEX
  5
751
  8
0
 10
8.647752859416679
 20
4.540937128809901
 30
0.0
  0
VERTEX
  5
752
  8
0
 10
8.647932864401005
 20
4.539247290567276
 30
0.0
  0
VERTEX
  5
753
  8
0
 10
8.648105212743385
 20
4.537555395618758
 30
0.0
  0
VERTEX
  5
754
  8
0
 10
8.648269904896923
 20
4.535861539284831
 30
0.0
  0
VERTEX
  5
755
  8
0
 10
8.648426945280022
 20
4.534165814461192
 30
0.0
  0
VERTEX
  5
756
  8
0
 10
8.64857634167699
 20
4.532468311985288
 30
0.0
  0
VERTEX
  5
757
  8
0
 10
8.64871810197893
 20
4.530769122629257
 30
0.0
  0
VERTEX
  5
758
  8
0
 10
8.648852234076953
 20
4.529068337165238
 30
0.0
  0
VERTEX
  5
759
  8
0
 10
8.64897874586216
 20
4.527366046365366
 30
0.0
  0
VERTEX
  5
75A
  8
0
 10
8.649097645225664
 20
4.525662341001782
 30
0.0
  0
VERTEX
  5
75B
  8
0
 10
8.64920894005857
 20
4.523957311846623
 30
0.0
  0
VERTEX
  5
75C
  8
0
 10
8.64931263824754
 20
4.522251049670451
 30
0.0
  0
VERTEX
  5
75D
  8
0
 10
8.6494087450633
 20
4.520543644316756
 30
0.0
  0
VERTEX
  5
75E
  8
0
 10
8.649497258758428
 20
4.518835183141834
 30
0.0
  0
VERTEX
  5
75F
  8
0
 10
8.649578176420787
 20
4.51712575308921
 30
0.0
  0
VERTEX
  5
760
  8
0
 10
8.649651495138242
 20
4.515415441102409
 30
0.0
  0
VERTEX
  5
761
  8
0
 10
8.649717211998652
 20
4.513704334124957
 30
0.0
  0
VERTEX
  5
762
  8
0
 10
8.649775324089882
 20
4.51199251910038
 30
0.0
  0
VERTEX
  5
763
  8
0
 10
8.649825828499793
 20
4.510280082972204
 30
0.0
  0
VERTEX
  5
764
  8
0
 10
8.64986872231625
 20
4.508567112683956
 30
0.0
  0
VERTEX
  5
765
  8
0
 10
8.649904002356005
 20
4.506853695213936
 30
0.0
  0
VERTEX
  5
766
  8
0
 10
8.649931662555709
 20
4.505139917909889
 30
0.0
  0
VERTEX
  5
767
  8
0
 10
8.649951695115192
 20
4.503425868342339
 30
0.0
  0
VERTEX
  5
768
  8
0
 10
8.64996409221034
 20
4.501711634084895
 30
0.0
  0
VERTEX
  5
769
  8
0
 10
8.649968846017028
 20
4.499997302711155
 30
0.0
  0
VERTEX
  5
76A
  8
0
 10
8.649965948711138
 20
4.498282961794721
 30
0.0
  0
VERTEX
  5
76B
  8
0
 10
8.649955392468552
 20
4.496568698909194
 30
0.0
  0
VERTEX
  5
76C
  8
0
 10
8.649937169465147
 20
4.494854601628179
 30
0.0
  0
VERTEX
  5
76D
  8
0
 10
8.649911271849067
 20
4.493140757535003
 30
0.0
  0
VERTEX
  5
76E
  8
0
 10
8.649877688377018
 20
4.491427255402512
 30
0.0
  0
VERTEX
  5
76F
  8
0
 10
8.649836401199837
 20
4.489714186320482
 30
0.0
  0
VERTEX
  5
770
  8
0
 10
8.649787391706734
 20
4.488001641645832
 30
0.0
  0
VERTEX
  5
771
  8
0
 10
8.649730641286903
 20
4.48628971273548
 30
0.0
  0
VERTEX
  5
772
  8
0
 10
8.649666131329546
 20
4.484578490946345
 30
0.0
  0
VERTEX
  5
773
  8
0
 10
8.649593843223865
 20
4.482868067635343
 30
0.0
  0
VERTEX
  5
774
  8
0
 10
8.649513758359056
 20
4.481158534159392
 30
0.0
  0
VERTEX
  5
775
  8
0
 10
8.649425858124323
 20
4.479449981875412
 30
0.0
  0
VERTEX
  5
776
  8
0
 10
8.649330124616622
 20
4.477742502942544
 30
0.0
  0
VERTEX
  5
777
  8
0
 10
8.649226544805556
 20
4.476036195042887
 30
0.0
  0
VERTEX
  5
778
  8
0
 10
8.649115107711955
 20
4.474331158183556
 30
0.0
  0
VERTEX
  5
779
  8
0
 10
8.648995802363824
 20
4.472627492379775
 30
0.0
  0
VERTEX
  5
77A
  8
0
 10
8.648868617789146
 20
4.470925297646762
 30
0.0
  0
VERTEX
  5
77B
  8
0
 10
8.648733543015913
 20
4.469224673999733
 30
0.0
  0
VERTEX
  5
77C
  8
0
 10
8.648590567072118
 20
4.467525721453912
 30
0.0
  0
VERTEX
  5
77D
  8
0
 10
8.648439678985753
 20
4.465828540024518
 30
0.0
  0
VERTEX
  5
77E
  8
0
 10
8.648280868820217
 20
4.464133229399613
 30
0.0
  0
VERTEX
  5
77F
  8
0
 10
8.64811416121137
 20
4.462439878343527
 30
0.0
  0
VERTEX
  5
780
  8
0
 10
8.647939622671553
 20
4.460748562389005
 30
0.0
  0
VERTEX
  5
781
  8
0
 10
8.647757322226187
 20
4.459059356274761
 30
0.0
  0
VERTEX
  5
782
  8
0
 10
8.647567328900687
 20
4.457372334739496
 30
0.0
  0
VERTEX
  5
783
  8
0
 10
8.647369711720469
 20
4.455687572521922
 30
0.0
  0
VERTEX
  5
784
  8
0
 10
8.647164539710948
 20
4.454005144360743
 30
0.0
  0
VERTEX
  5
785
  8
0
 10
8.64695188189754
 20
4.452325124994666
 30
0.0
  0
VERTEX
  5
786
  8
0
 10
8.646731806034742
 20
4.450647588911156
 30
0.0
  0
VERTEX
  5
787
  8
0
 10
8.646504367120258
 20
4.44897260807585
 30
0.0
  0
VERTEX
  5
788
  8
0
 10
8.646269612788258
 20
4.447300252998724
 30
0.0
  0
VERTEX
  5
789
  8
0
 10
8.646027590583836
 20
4.445630594172143
 30
0.0
  0
VERTEX
  5
78A
  8
0
 10
8.645778348052092
 20
4.443963702088473
 30
0.0
  0
VERTEX
  5
78B
  8
0
 10
8.645521932738125
 20
4.442299647240083
 30
0.0
  0
VERTEX
  5
78C
  8
0
 10
8.64525839218704
 20
4.44063850011934
 30
0.0
  0
VERTEX
  5
78D
  8
0
 10
8.64498777394393
 20
4.438980331218612
 30
0.0
  0
VERTEX
  5
78E
  8
0
 10
8.644710125272546
 20
4.437325210112812
 30
0.0
  0
VERTEX
  5
78F
  8
0
 10
8.644425492201222
 20
4.435673202348242
 30
0.0
  0
VERTEX
  5
790
  8
0
 10
8.644133920419273
 20
4.434024372365734
 30
0.0
  0
VERTEX
  5
791
  8
0
 10
8.643835455616028
 20
4.432378784606098
 30
0.0
  0
VERTEX
  5
792
  8
0
 10
8.64353014348079
 20
4.430736503510137
 30
0.0
  0
VERTEX
  5
793
  8
0
 10
8.643218029702883
 20
4.429097593518661
 30
0.0
  0
VERTEX
  5
794
  8
0
 10
8.64289915997162
 20
4.427462119072475
 30
0.0
  0
VERTEX
  5
795
  8
0
 10
8.642573579965575
 20
4.42583014460752
 30
0.0
  0
VERTEX
  5
796
  8
0
 10
8.642241333523383
 20
4.424201733726481
 30
0.0
  0
VERTEX
  5
797
  8
0
 10
8.641902460574888
 20
4.422576948261856
 30
0.0
  0
VERTEX
  5
798
  8
0
 10
8.641557000550211
 20
4.420955849819839
 30
0.0
  0
VERTEX
  5
799
  8
0
 10
8.641204992879466
 20
4.419338500006611
 30
0.0
  0
VERTEX
  5
79A
  8
0
 10
8.640846476992765
 20
4.417724960428362
 30
0.0
  0
VERTEX
  5
79B
  8
0
 10
8.64048149232023
 20
4.416115292691278
 30
0.0
  0
VERTEX
  5
79C
  8
0
 10
8.640110078291968
 20
4.414509558401548
 30
0.0
  0
VERTEX
  5
79D
  8
0
 10
8.639732274196193
 20
4.412907819206999
 30
0.0
  0
VERTEX
  5
79E
  8
0
 10
8.639348115433785
 20
4.411310137896237
 30
0.0
  0
VERTEX
  5
79F
  8
0
 10
8.638957633136734
 20
4.409716578510599
 30
0.0
  0
VERTEX
  5
7A0
  8
0
 10
8.638560858218613
 20
4.408127205155525
 30
0.0
  0
VERTEX
  5
7A1
  8
0
 10
8.638157821592984
 20
4.406542081936453
 30
0.0
  0
VERTEX
  5
7A2
  8
0
 10
8.637748554173417
 20
4.404961272958826
 30
0.0
  0
VERTEX
  5
7A3
  8
0
 10
8.63733308687348
 20
4.403384842328083
 30
0.0
  0
VERTEX
  5
7A4
  8
0
 10
8.636911450606739
 20
4.401812854149664
 30
0.0
  0
VERTEX
  5
7A5
  8
0
 10
8.636483676659871
 20
4.400245372134857
 30
0.0
  0
VERTEX
  5
7A6
  8
0
 10
8.636049799910978
 20
4.398682456201041
 30
0.0
  0
VERTEX
  5
7A7
  8
0
 10
8.63560985724405
 20
4.397124164146606
 30
0.0
  0
VERTEX
  5
7A8
  8
0
 10
8.635163885564948
 20
4.395570553746834
 30
0.0
  0
VERTEX
  5
7A9
  8
0
 10
8.634711921779529
 20
4.394021682777012
 30
0.0
  0
VERTEX
  5
7AA
  8
0
 10
8.634254002793655
 20
4.392477609012419
 30
0.0
  0
VERTEX
  5
7AB
  8
0
 10
8.633790165513192
 20
4.390938390228344
 30
0.0
  0
VERTEX
  5
7AC
  8
0
 10
8.633320446843996
 20
4.389404084200069
 30
0.0
  0
VERTEX
  5
7AD
  8
0
 10
8.63284488990757
 20
4.387874743276401
 30
0.0
  0
VERTEX
  5
7AE
  8
0
 10
8.632363562802297
 20
4.386350398000444
 30
0.0
  0
VERTEX
  5
7AF
  8
0
 10
8.63187653989948
 20
4.384831073438808
 30
0.0
  0
VERTEX
  5
7B0
  8
0
 10
8.63138389557043
 20
4.383316794658105
 30
0.0
  0
VERTEX
  5
7B1
  8
0
 10
8.63088570418645
 20
4.381807586724947
 30
0.0
  0
VERTEX
  5
7B2
  8
0
 10
8.630382040118851
 20
4.380303474705944
 30
0.0
  0
VERTEX
  5
7B3
  8
0
 10
8.629872977738943
 20
4.378804483667711
 30
0.0
  0
VERTEX
  5
7B4
  8
0
 10
8.629358591418029
 20
4.377310638676857
 30
0.0
  0
VERTEX
  5
7B5
  8
0
 10
8.628838954235594
 20
4.375821964921808
 30
0.0
  0
VERTEX
  5
7B6
  8
0
 10
8.628314129689478
 20
4.374338488494507
 30
0.0
  0
VERTEX
  5
7B7
  8
0
 10
8.627784176969582
 20
4.372860235893113
 30
0.0
  0
VERTEX
  5
7B8
  8
0
 10
8.627249155245202
 20
4.371387233617739
 30
0.0
  0
VERTEX
  5
7B9
  8
0
 10
8.626709123685625
 20
4.369919508168487
 30
0.0
  0
VERTEX
  5
7BA
  8
0
 10
8.626164141460137
 20
4.368457086045465
 30
0.0
  0
VERTEX
  5
7BB
  8
0
 10
8.625614267738037
 20
4.366999993748782
 30
0.0
  0
VERTEX
  5
7BC
  8
0
 10
8.62505956168861
 20
4.365548257778545
 30
0.0
  0
VERTEX
  5
7BD
  8
0
 10
8.624500082419384
 20
4.364101904453977
 30
0.0
  0
VERTEX
  5
7BE
  8
0
 10
8.623935888045542
 20
4.362660957188025
 30
0.0
  0
VERTEX
  5
7BF
  8
0
 10
8.623367035881877
 20
4.361225437049579
 30
0.0
  0
VERTEX
  5
7C0
  8
0
 10
8.622793583220387
 20
4.35979536504073
 30
0.0
  0
VERTEX
  5
7C1
  8
0
 10
8.622215587353068
 20
4.358370762163574
 30
0.0
  0
VERTEX
  5
7C2
  8
0
 10
8.621633105571899
 20
4.356951649420195
 30
0.0
  0
VERTEX
  5
7C3
  8
0
 10
8.621046195168885
 20
4.355538047812689
 30
0.0
  0
VERTEX
  5
7C4
  8
0
 10
8.62045491343601
 20
4.354129978343146
 30
0.0
  0
VERTEX
  5
7C5
  8
0
 10
8.619859317627864
 20
4.352727462013136
 30
0.0
  0
VERTEX
  5
7C6
  8
0
 10
8.619259463064902
 20
4.351330519797346
 30
0.0
  0
VERTEX
  5
7C7
  8
0
 10
8.61865540223571
 20
4.349939172631098
 30
0.0
  0
VERTEX
  5
7C8
  8
0
 10
8.618047187403679
 20
4.348553441446581
 30
0.0
  0
VERTEX
  5
7C9
  8
0
 10
8.617434870832213
 20
4.347173347175985
 30
0.0
  0
VERTEX
  5
7CA
  8
0
 10
8.6168185047847
 20
4.345798910751505
 30
0.0
  0
VERTEX
  5
7CB
  8
0
 10
8.616198141524542
 20
4.344430153105327
 30
0.0
  0
VERTEX
  5
7CC
  8
0
 10
8.615573833315132
 20
4.343067095169643
 30
0.0
  0
VERTEX
  5
7CD
  8
0
 10
8.614945632418552
 20
4.341709757875485
 30
0.0
  0
VERTEX
  5
7CE
  8
0
 10
8.614313590131191
 20
4.340358161303775
 30
0.0
  0
VERTEX
  5
7CF
  8
0
 10
8.613677755078166
 20
4.339012323183873
 30
0.0
  0
VERTEX
  5
7D0
  8
0
 10
8.613038175426547
 20
4.337672260841918
 30
0.0
  0
VERTEX
  5
7D1
  8
0
 10
8.612394899343405
 20
4.33633799160405
 30
0.0
  0
VERTEX
  5
7D2
  8
0
 10
8.611747974995813
 20
4.335009532796406
 30
0.0
  0
VERTEX
  5
7D3
  8
0
 10
8.611097450550838
 20
4.333686901745126
 30
0.0
  0
VERTEX
  5
7D4
  8
0
 10
8.610443374175556
 20
4.332370115776347
 30
0.0
  0
VERTEX
  5
7D5
  8
0
 10
8.609785794037032
 20
4.331059192216207
 30
0.0
  0
VERTEX
  5
7D6
  8
0
 10
8.609124758072339
 20
4.329754150265806
 30
0.0
  0
VERTEX
  5
7D7
  8
0
 10
8.608460312981634
 20
4.328455019209343
 30
0.0
  0
VERTEX
  5
7D8
  8
0
 10
8.60779250505109
 20
4.327161831705769
 30
0.0
  0
VERTEX
  5
7D9
  8
0
 10
8.607121380566591
 20
4.325874620416452
 30
0.0
  0
VERTEX
  5
7DA
  8
0
 10
8.606446985814012
 20
4.324593418002757
 30
0.0
  0
VERTEX
  5
7DB
  8
0
 10
8.605769367079231
 20
4.323318257126052
 30
0.0
  0
VERTEX
  5
7DC
  8
0
 10
8.605088570648128
 20
4.322049170447701
 30
0.0
  0
VERTEX
  5
7DD
  8
0
 10
8.604404642806584
 20
4.320786190629073
 30
0.0
  0
VERTEX
  5
7DE
  8
0
 10
8.603717631616126
 20
4.319529344967433
 30
0.0
  0
VERTEX
  5
7DF
  8
0
 10
8.603027603581749
 20
4.3182786050438
 30
0.0
  0
VERTEX
  5
7E0
  8
0
 10
8.60233463614044
 20
4.31703390941454
 30
0.0
  0
VERTEX
  5
7E1
  8
0
 10
8.601638806872474
 20
4.315795196203131
 30
0.0
  0
VERTEX
  5
7E2
  8
0
 10
8.600940193358136
 20
4.314562403533048
 30
0.0
  0
VERTEX
  5
7E3
  8
0
 10
8.600238873177698
 20
4.313335469527773
 30
0.0
  0
VERTEX
  5
7E4
  8
0
 10
8.599534923911442
 20
4.312114332310783
 30
0.0
  0
VERTEX
  5
7E5
  8
0
 10
8.598828423139647
 20
4.310898930005551
 30
0.0
  0
VERTEX
  5
7E6
  8
0
 10
8.59811944844259
 20
4.309689200735559
 30
0.0
  0
VERTEX
  5
7E7
  8
0
 10
8.59740807605503
 20
4.308485087618632
 30
0.0
  0
VERTEX
  5
7E8
  8
0
 10
8.59669434596264
 20
4.307286668322728
 30
0.0
  0
VERTEX
  5
7E9
  8
0
 10
8.595978258686225
 20
4.306094167002474
 30
0.0
  0
VERTEX
  5
7EA
  8
0
 10
8.595259812756435
 20
4.304907815199556
 30
0.0
  0
VERTEX
  5
7EB
  8
0
 10
8.594539006703918
 20
4.303727844455661
 30
0.0
  0
VERTEX
  5
7EC
  8
0
 10
8.593815839059328
 20
4.302554486312478
 30
0.0
  0
VERTEX
  5
7ED
  8
0
 10
8.593090308353318
 20
4.301387972311693
 30
0.0
  0
VERTEX
  5
7EE
  8
0
 10
8.592362413116536
 20
4.300228533994994
 30
0.0
  0
VERTEX
  5
7EF
  8
0
 10
8.591632151879638
 20
4.299076402904068
 30
0.0
  0
VERTEX
  5
7F0
  8
0
 10
8.590899523706788
 20
4.297931808373639
 30
0.0
  0
VERTEX
  5
7F1
  8
0
 10
8.59016460585134
 20
4.296794656296791
 30
0.0
  0
VERTEX
  5
7F2
  8
0
 10
8.589427635370692
 20
4.295664191512573
 30
0.0
  0
VERTEX
  5
7F3
  8
0
 10
8.588688868842986
 20
4.294539578109404
 30
0.0
  0
VERTEX
  5
7F4
  8
0
 10
8.587948562846382
 20
4.293419980175708
 30
0.0
  0
VERTEX
  5
7F5
  8
0
 10
8.587206973959022
 20
4.292304561799903
 30
0.0
  0
VERTEX
  5
7F6
  8
0
 10
8.586464358759061
 20
4.291192487070413
 30
0.0
  0
VERTEX
  5
7F7
  8
0
 10
8.585720973824646
 20
4.290082920075658
 30
0.0
  0
VERTEX
  5
7F8
  8
0
 10
8.584977075733931
 20
4.28897502490406
 30
0.0
  0
VERTEX
  5
7F9
  8
0
 10
8.584232921065066
 20
4.28786796564404
 30
0.0
  0
SEQEND
  5
99B
  8
0
  0
POLYLINE
  5
10B
  8
0
 66
     1
 10
0.0
 20
0.0
 30
0.0
  0
VERTEX
  5
7FA
  8
0
 10
8.499999999143746
 20
4.800000000000011
 30
0.0
  0
VERTEX
  5
7FB
  8
0
 10
8.504038817856465
 20
4.796927970259941
 30
0.0
  0
VERTEX
  5
7FC
  8
0
 10
8.508039730420595
 20
4.793798372436638
 30
0.0
  0
VERTEX
  5
7FD
  8
0
 10
8.512001518316017
 20
4.790611906001869
 30
0.0
  0
VERTEX
  5
7FE
  8
0
 10
8.515922980210988
 20
4.787369304543258
 30
0.0
  0
VERTEX
  5
7FF
  8
0
 10
8.519802933148569
 20
4.784071335235769
 30
0.0
  0
VERTEX
  5
800
  8
0
 10
8.523640213713403
 20
4.78071879826395
 30
0.0
  0
VERTEX
  5
801
  8
0
 10
8.527433679176593
 20
4.77731252619576
 30
0.0
  0
VERTEX
  5
802
  8
0
 10
8.53118220861627
 20
4.773853383308978
 30
0.0
  0
VERTEX
  5
803
  8
0
 10
8.534884704011603
 20
4.770342264871304
 30
0.0
  0
VERTEX
  5
804
  8
0
 10
8.538540091308004
 20
4.766780096375372
 30
0.0
  0
VERTEX
  5
805
  8
0
 10
8.542147321451425
 20
4.763167832730058
 30
0.0
  0
VERTEX
  5
806
  8
0
 10
8.545705371389573
 20
4.759506457409534
 30
0.0
  0
VERTEX
  5
807
  8
0
 10
8.54921324503813
 20
4.755796981561675
 30
0.0
  0
VERTEX
  5
808
  8
0
 10
8.55266997421001
 20
4.752040443077493
 30
0.0
  0
VERTEX
  5
809
  8
0
 10
8.556074619505845
 20
4.748237905623415
 30
0.0
  0
VERTEX
  5
80A
  8
0
 10
8.559426271164002
 20
4.744390457638298
 30
0.0
  0
VERTEX
  5
80B
  8
0
 10
8.562724049868482
 20
4.740499211297141
 30
0.0
  0
VERTEX
  5
80C
  8
0
 10
8.565967107513229
 20
4.736565301443599
 30
0.0
  0
VERTEX
  5
80D
  8
0
 10
8.569154627921442
 20
4.732589884493404
 30
0.0
  0
VERTEX
  5
80E
  8
0
 10
8.572285827518652
 20
4.728574137310949
 30
0.0
  0
VERTEX
  5
80F
  8
0
 10
8.575359955958394
 20
4.724519256061262
 30
0.0
  0
VERTEX
  5
810
  8
0
 10
8.57837629669947
 20
4.720426455039726
 30
0.0
  0
VERTEX
  5
811
  8
0
 10
8.581334167533944
 20
4.71629696548192
 30
0.0
  0
VERTEX
  5
812
  8
0
 10
8.584232921065066
 20
4.712132034355974
 30
0.0
  0
SEQEND
  5
99C
  8
0
  0
LINE
  5
10C
  8
0
 10
8.5
 20
4.950000000000003
 30
0.0
 11
8.499999999143746
 21
4.800000000000011
 31
0.0
  0
LINE
  5
10D
  8
0
 10
8.350000000000016
 20
4.950000000000003
 30
0.0
 11
8.5
 21
4.950000000000003
 31
0.0
  0
LINE
  5
10E
  8
0
 10
8.35000000436861
 20
4.712132034355974
 30
0.0
 11
8.350000000000016
 21
4.950000000000003
 31
0.0
  0
POLYLINE
  5
10F
  8
0
 66
     1
 10
0.0
 20
0.0
 30
0.0
  0
VERTEX
  5
813
  8
0
 10
8.350000000000016
 20
4.28786796564404
 30
0.0
  0
VERTEX
  5
814
  8
0
 10
8.351386364918303
 20
4.288370574286301
 30
0.0
  0
VERTEX
  5
815
  8
0
 10
8.35277114108361
 20
4.288875737477178
 30
0.0
  0
VERTEX
  5
816
  8
0
 10
8.354152739742943
 20
4.289386009765289
 30
0.0
  0
VERTEX
  5
817
  8
0
 10
8.355529574558874
 20
4.289903941691215
 30
0.0
  0
VERTEX
  5
818
  8
0
 10
8.356900541521993
 20
4.290431283485684
 30
0.0
  0
VERTEX
  5
819
  8
0
 10
8.358265598496093
 20
4.290968023450806
 30
0.0
  0
VERTEX
  5
81A
  8
0
 10
8.359624844838327
 20
4.291513915113745
 30
0.0
  0
VERTEX
  5
81B
  8
0
 10
8.360978379905854
 20
4.292068712001664
 30
0.0
  0
VERTEX
  5
81C
  8
0
 10
8.36232630305583
 20
4.292632167641731
 30
0.0
  0
VERTEX
  5
81D
  8
0
 10
8.363668713645415
 20
4.293204035561108
 30
0.0
  0
VERTEX
  5
81E
  8
0
 10
8.365005711031767
 20
4.293784069286962
 30
0.0
  0
VERTEX
  5
81F
  8
0
 10
8.366337394572035
 20
4.294372022346455
 30
0.0
  0
VERTEX
  5
820
  8
0
 10
8.367663862713123
 20
4.294967649974102
 30
0.0
  0
VERTEX
  5
821
  8
0
 10
8.368985161420971
 20
4.295570805840817
 30
0.0
  0
VERTEX
  5
822
  8
0
 10
8.370301256520536
 20
4.296181493934798
 30
0.0
  0
VERTEX
  5
823
  8
0
 10
8.371612107081795
 20
4.296799730914276
 30
0.0
  0
VERTEX
  5
824
  8
0
 10
8.372917672174715
 20
4.297425533437484
 30
0.0
  0
VERTEX
  5
825
  8
0
 10
8.374217910869278
 20
4.298058918162655
 30
0.0
  0
VERTEX
  5
826
  8
0
 10
8.375512782235461
 20
4.298699901748023
 30
0.0
  0
VERTEX
  5
827
  8
0
 10
8.376802245343233
 20
4.299348500851818
 30
0.0
  0
VERTEX
  5
828
  8
0
 10
8.378086259262572
 20
4.300004732132272
 30
0.0
  0
VERTEX
  5
829
  8
0
 10
8.379364783734694
 20
4.300668611348073
 30
0.0
  0
VERTEX
  5
82A
  8
0
 10
8.380637798466443
 20
4.301340127501388
 30
0.0
  0
VERTEX
  5
82B
  8
0
 10
8.381905306025374
 20
4.302019238958104
 30
0.0
  0
VERTEX
  5
82C
  8
0
 10
8.383167310232613
 20
4.302705902404138
 30
0.0
  0
VERTEX
  5
82D
  8
0
 10
8.384423814909296
 20
4.303400074525414
 30
0.0
  0
VERTEX
  5
82E
  8
0
 10
8.38567482387656
 20
4.304101712007851
 30
0.0
  0
VERTEX
  5
82F
  8
0
 10
8.386920340955538
 20
4.304810771537372
 30
0.0
  0
VERTEX
  5
830
  8
0
 10
8.38816036996736
 20
4.305527209799897
 30
0.0
  0
VERTEX
  5
831
  8
0
 10
8.389394914733169
 20
4.306250983481346
 30
0.0
  0
VERTEX
  5
832
  8
0
 10
8.390623978817773
 20
4.306982049980369
 30
0.0
  0
VERTEX
  5
833
  8
0
 10
8.391847560877464
 20
4.307720380344604
 30
0.0
  0
VERTEX
  5
834
  8
0
 10
8.39306565515265
 20
4.308465957900768
 30
0.0
  0
VERTEX
  5
835
  8
0
 10
8.394278255726315
 20
4.309218766413364
 30
0.0
  0
VERTEX
  5
836
  8
0
 10
8.395485356681423
 20
4.309978789646888
 30
0.0
  0
VERTEX
  5
837
  8
0
 10
8.396686952100957
 20
4.31074601136584
 30
0.0
  0
VERTEX
  5
838
  8
0
 10
8.397883036067887
 20
4.311520415334721
 30
0.0
  0
VERTEX
  5
839
  8
0
 10
8.399073602665187
 20
4.312301985318029
 30
0.0
  0
VERTEX
  5
83A
  8
0
 10
8.400258645975835
 20
4.313090705080263
 30
0.0
  0
VERTEX
  5
83B
  8
0
 10
8.401438160230752
 20
4.313886558462607
 30
0.0
  0
VERTEX
  5
83C
  8
0
 10
8.40261214164329
 20
4.314689530333721
 30
0.0
  0
VERTEX
  5
83D
  8
0
 10
8.403780587842602
 20
4.315499606296075
 30
0.0
  0
VERTEX
  5
83E
  8
0
 10
8.404943496488418
 20
4.316316771967986
 30
0.0
  0
VERTEX
  5
83F
  8
0
 10
8.406100865240477
 20
4.317141012967775
 30
0.0
  0
VERTEX
  5
840
  8
0
 10
8.407252691758506
 20
4.317972314913757
 30
0.0
  0
VERTEX
  5
841
  8
0
 10
8.408398973702242
 20
4.318810663424252
 30
0.0
  0
VERTEX
  5
842
  8
0
 10
8.40953970873142
 20
4.319656044117576
 30
0.0
  0
VERTEX
  5
843
  8
0
 10
8.410674894505776
 20
4.320508442612052
 30
0.0
  0
VERTEX
  5
844
  8
0
 10
8.411804527913914
 20
4.32136784542511
 30
0.0
  0
VERTEX
  5
845
  8
0
 10
8.412928598598551
 20
4.322234247522762
 30
0.0
  0
VERTEX
  5
846
  8
0
 10
8.414047092232284
 20
4.323107648500096
 30
0.0
  0
VERTEX
  5
847
  8
0
 10
8.415159994447048
 20
4.323988047999614
 30
0.0
  0
VERTEX
  5
848
  8
0
 10
8.416267290874783
 20
4.324875445663822
 30
0.0
  0
VERTEX
  5
849
  8
0
 10
8.417368967147418
 20
4.32576984113522
 30
0.0
  0
VERTEX
  5
84A
  8
0
 10
8.418465008896892
 20
4.326671234056314
 30
0.0
  0
VERTEX
  5
84B
  8
0
 10
8.419555401755138
 20
4.327579624069606
 30
0.0
  0
VERTEX
  5
84C
  8
0
 10
8.420640131354086
 20
4.328495010817598
 30
0.0
  0
VERTEX
  5
84D
  8
0
 10
8.421719182374746
 20
4.329417392172671
 30
0.0
  0
VERTEX
  5
84E
  8
0
 10
8.422792533581163
 20
4.33034675499297
 30
0.0
  0
VERTEX
  5
84F
  8
0
 10
8.423860161465239
 20
4.331283081907123
 30
0.0
  0
VERTEX
  5
850
  8
0
 10
8.424922042514188
 20
4.33222635553502
 30
0.0
  0
VERTEX
  5
851
  8
0
 10
8.425978153215219
 20
4.333176558496551
 30
0.0
  0
VERTEX
  5
852
  8
0
 10
8.427028470055536
 20
4.334133673411602
 30
0.0
  0
VERTEX
  5
853
  8
0
 10
8.428072969522354
 20
4.335097682900064
 30
0.0
  0
VERTEX
  5
854
  8
0
 10
8.429111628102882
 20
4.336068569581825
 30
0.0
  0
VERTEX
  5
855
  8
0
 10
8.43014442228433
 20
4.337046316076774
 30
0.0
  0
VERTEX
  5
856
  8
0
 10
8.431171328648949
 20
4.338030905057265
 30
0.0
  0
VERTEX
  5
857
  8
0
 10
8.432192324585206
 20
4.339022319640691
 30
0.0
  0
VERTEX
  5
858
  8
0
 10
8.433207387887956
 20
4.340020543168776
 30
0.0
  0
VERTEX
  5
859
  8
0
 10
8.434216496355157
 20
4.341025558984958
 30
0.0
  0
VERTEX
  5
85A
  8
0
 10
8.435219627784772
 20
4.342037350432674
 30
0.0
  0
VERTEX
  5
85B
  8
0
 10
8.436216759974755
 20
4.343055900855364
 30
0.0
  0
VERTEX
  5
85C
  8
0
 10
8.437207870723064
 20
4.344081193596464
 30
0.0
  0
VERTEX
  5
85D
  8
0
 10
8.438192937827662
 20
4.345113211999414
 30
0.0
  0
VERTEX
  5
85E
  8
0
 10
8.439171939086505
 20
4.346151939407648
 30
0.0
  0
VERTEX
  5
85F
  8
0
 10
8.44014485192174
 20
4.347197359336616
 30
0.0
  0
VERTEX
  5
860
  8
0
 10
8.441111648763888
 20
4.348249457586421
 30
0.0
  0
VERTEX
  5
861
  8
0
 10
8.442072298500301
 20
4.349308221578864
 30
0.0
  0
VERTEX
  5
862
  8
0
 10
8.443026769942936
 20
4.350373638770254
 30
0.0
  0
VERTEX
  5
863
  8
0
 10
8.443975031903753
 20
4.351445696616906
 30
0.0
  0
VERTEX
  5
864
  8
0
 10
8.444917053194706
 20
4.352524382575131
 30
0.0
  0
VERTEX
  5
865
  8
0
 10
8.445852802627742
 20
4.353609684101244
 30
0.0
  0
VERTEX
  5
866
  8
0
 10
8.446782249014827
 20
4.354701588651553
 30
0.0
  0
VERTEX
  5
867
  8
0
 10
8.447705361167907
 20
4.355800083682371
 30
0.0
  0
VERTEX
  5
868
  8
0
 10
8.448622107735329
 20
4.356905156672037
 30
0.0
  0
VERTEX
  5
869
  8
0
 10
8.449532453447453
 20
4.35801679562626
 30
0.0
  0
VERTEX
  5
86A
  8
0
 10
8.450436359028718
 20
4.359134989089967
 30
0.0
  0
VERTEX
  5
86B
  8
0
 10
8.451333785022333
 20
4.360259725632481
 30
0.0
  0
VERTEX
  5
86C
  8
0
 10
8.452224691971525
 20
4.361390993823121
 30
0.0
  0
VERTEX
  5
86D
  8
0
 10
8.453109040419502
 20
4.362528782231205
 30
0.0
  0
VERTEX
  5
86E
  8
0
 10
8.45398679090949
 20
4.363673079426057
 30
0.0
  0
VERTEX
  5
86F
  8
0
 10
8.4548579039847
 20
4.364823873976995
 30
0.0
  0
VERTEX
  5
870
  8
0
 10
8.455722340188347
 20
4.365981154453339
 30
0.0
  0
VERTEX
  5
871
  8
0
 10
8.45658006002806
 20
4.36714490939614
 30
0.0
  0
VERTEX
  5
872
  8
0
 10
8.457431022187555
 20
4.368315125897981
 30
0.0
  0
VERTEX
  5
873
  8
0
 10
8.458275182689619
 20
4.369491788938237
 30
0.0
  0
VERTEX
  5
874
  8
0
 10
8.459112497346524
 20
4.370674883329099
 30
0.0
  0
VERTEX
  5
875
  8
0
 10
8.459942921970534
 20
4.371864393882751
 30
0.0
  0
VERTEX
  5
876
  8
0
 10
8.460766412373909
 20
4.373060305411381
 30
0.0
  0
VERTEX
  5
877
  8
0
 10
8.461582924368921
 20
4.374262602727176
 30
0.0
  0
VERTEX
  5
878
  8
0
 10
8.46239241376783
 20
4.37547127064232
 30
0.0
  0
VERTEX
  5
879
  8
0
 10
8.463194836382904
 20
4.376686293969004
 30
0.0
  0
VERTEX
  5
87A
  8
0
 10
8.463990147977066
 20
4.377907657525951
 30
0.0
  0
VERTEX
  5
87B
  8
0
 10
8.464778297562834
 20
4.379135347026237
 30
0.0
  0
VERTEX
  5
87C
  8
0
 10
8.46555922060056
 20
4.380369349978456
 30
0.0
  0
VERTEX
  5
87D
  8
0
 10
8.466332850930039
 20
4.381609654105905
 30
0.0
  0
VERTEX
  5
87E
  8
0
 10
8.467099122391058
 20
4.38285624713188
 30
0.0
  0
VERTEX
  5
87F
  8
0
 10
8.467857968823418
 20
4.384109116779682
 30
0.0
  0
VERTEX
  5
880
  8
0
 10
8.4686093240669
 20
4.385368250772603
 30
0.0
  0
VERTEX
  5
881
  8
0
 10
8.469353121961309
 20
4.386633636833946
 30
0.0
  0
VERTEX
  5
882
  8
0
 10
8.470089296346432
 20
4.387905262687008
 30
0.0
  0
VERTEX
  5
883
  8
0
 10
8.470817781074686
 20
4.389183116034474
 30
0.0
  0
VERTEX
  5
884
  8
0
 10
8.471538515931323
 20
4.390467174892813
 30
0.0
  0
VERTEX
  5
885
  8
0
 10
8.472251456079668
 20
4.391757392171531
 30
0.0
  0
VERTEX
  5
886
  8
0
 10
8.472956559142048
 20
4.393053716765461
 30
0.0
  0
VERTEX
  5
887
  8
0
 10
8.473653782740783
 20
4.394356097569438
 30
0.0
  0
VERTEX
  5
888
  8
0
 10
8.474343084498196
 20
4.395664483478292
 30
0.0
  0
VERTEX
  5
889
  8
0
 10
8.475024422036608
 20
4.39697882338686
 30
0.0
  0
VERTEX
  5
88A
  8
0
 10
8.475697752978345
 20
4.398299066189976
 30
0.0
  0
VERTEX
  5
88B
  8
0
 10
8.47636303494573
 20
4.399625160782472
 30
0.0
  0
VERTEX
  5
88C
  8
0
 10
8.477020225599986
 20
4.400957055985235
 30
0.0
  0
VERTEX
  5
88D
  8
0
 10
8.47766928388842
 20
4.402294698174163
 30
0.0
  0
VERTEX
  5
88E
  8
0
 10
8.478310170308884
 20
4.403638030777425
 30
0.0
  0
VERTEX
  5
88F
  8
0
 10
8.478942845451588
 20
4.40498699704759
 30
0.0
  0
VERTEX
  5
890
  8
0
 10
8.47956726990675
 20
4.406341540237231
 30
0.0
  0
VERTEX
  5
891
  8
0
 10
8.480183404264585
 20
4.407701603598919
 30
0.0
  0
VERTEX
  5
892
  8
0
 10
8.480791209115308
 20
4.40906713038522
 30
0.0
  0
VERTEX
  5
893
  8
0
 10
8.481390645049133
 20
4.41043806384871
 30
0.0
  0
VERTEX
  5
894
  8
0
 10
8.481981672656277
 20
4.411814347241956
 30
0.0
  0
VERTEX
  5
895
  8
0
 10
8.482564251601916
 20
4.413195923893762
 30
0.0
  0
VERTEX
  5
896
  8
0
 10
8.48313833132288
 20
4.414582737975847
 30
0.0
  0
VERTEX
  5
897
  8
0
 10
8.483703854898183
 20
4.415974734183878
 30
0.0
  0
VERTEX
  5
898
  8
0
 10
8.48426076531119
 20
4.4173718572214
 30
0.0
  0
VERTEX
  5
899
  8
0
 10
8.484809005545275
 20
4.418774051791962
 30
0.0
  0
VERTEX
  5
89A
  8
0
 10
8.485348518583807
 20
4.420181262599111
 30
0.0
  0
VERTEX
  5
89B
  8
0
 10
8.485879247410159
 20
4.421593434346394
 30
0.0
  0
VERTEX
  5
89C
  8
0
 10
8.486401135007704
 20
4.423010511737361
 30
0.0
  0
VERTEX
  5
89D
  8
0
 10
8.486914124359807
 20
4.424432439475558
 30
0.0
  0
VERTEX
  5
89E
  8
0
 10
8.487418157632106
 20
4.42585916133724
 30
0.0
  0
VERTEX
  5
89F
  8
0
 10
8.487913172910076
 20
4.427290616471901
 30
0.0
  0
VERTEX
  5
8A0
  8
0
 10
8.488399107009164
 20
4.428726742588858
 30
0.0
  0
VERTEX
  5
8A1
  8
0
 10
8.48887589674442
 20
4.430167477396971
 30
0.0
  0
VERTEX
  5
8A2
  8
0
 10
8.489343478930882
 20
4.431612758605101
 30
0.0
  0
VERTEX
  5
8A3
  8
0
 10
8.489801790383602
 20
4.433062523922108
 30
0.0
  0
VERTEX
  5
8A4
  8
0
 10
8.490250767917622
 20
4.43451671105685
 30
0.0
  0
VERTEX
  5
8A5
  8
0
 10
8.49069034834798
 20
4.435975257718187
 30
0.0
  0
VERTEX
  5
8A6
  8
0
 10
8.491120468457206
 20
4.437438101603504
 30
0.0
  0
VERTEX
  5
8A7
  8
0
 10
8.491541056699853
 20
4.438905177472097
 30
0.0
  0
VERTEX
  5
8A8
  8
0
 10
8.491952022191512
 20
4.440376413260494
 30
0.0
  0
VERTEX
  5
8A9
  8
0
 10
8.49235327130936
 20
4.441851735939126
 30
0.0
  0
VERTEX
  5
8AA
  8
0
 10
8.49274471043058
 20
4.443331072478419
 30
0.0
  0
VERTEX
  5
8AB
  8
0
 10
8.493126245932359
 20
4.444814349848805
 30
0.0
  0
VERTEX
  5
8AC
  8
0
 10
8.493497784191884
 20
4.446301495020711
 30
0.0
  0
VERTEX
  5
8AD
  8
0
 10
8.493859231586335
 20
4.447792434964565
 30
0.0
  0
VERTEX
  5
8AE
  8
0
 10
8.494210494492897
 20
4.449287096650798
 30
0.0
  0
VERTEX
  5
8AF
  8
0
 10
8.494551480797238
 20
4.450785406379873
 30
0.0
  0
VERTEX
  5
8B0
  8
0
 10
8.494882137903078
 20
4.452287272900929
 30
0.0
  0
VERTEX
  5
8B1
  8
0
 10
8.495202455613295
 20
4.453792586132194
 30
0.0
  0
VERTEX
  5
8B2
  8
0
 10
8.495512425816365
 20
4.455301235065619
 30
0.0
  0
VERTEX
  5
8B3
  8
0
 10
8.495812040400754
 20
4.456813108693146
 30
0.0
  0
VERTEX
  5
8B4
  8
0
 10
8.496101291254936
 20
4.458328096006722
 30
0.0
  0
VERTEX
  5
8B5
  8
0
 10
8.496380170267377
 20
4.459846085998294
 30
0.0
  0
VERTEX
  5
8B6
  8
0
 10
8.496648669338953
 20
4.461366967657836
 30
0.0
  0
VERTEX
  5
8B7
  8
0
 10
8.496906784108463
 20
4.462890629380903
 30
0.0
  0
VERTEX
  5
8B8
  8
0
 10
8.49715451917957
 20
4.464416958137424
 30
0.0
  0
VERTEX
  5
8B9
  8
0
 10
8.49739188047213
 20
4.465945840688028
 30
0.0
  0
VERTEX
  5
8BA
  8
0
 10
8.497618873905985
 20
4.467477163793336
 30
0.0
  0
VERTEX
  5
8BB
  8
0
 10
8.497835505400985
 20
4.469010814213974
 30
0.0
  0
VERTEX
  5
8BC
  8
0
 10
8.49804178087698
 20
4.47054667871057
 30
0.0
  0
VERTEX
  5
8BD
  8
0
 10
8.498237706253818
 20
4.47208464404375
 30
0.0
  0
VERTEX
  5
8BE
  8
0
 10
8.498423285581397
 20
4.473624597613323
 30
0.0
  0
VERTEX
  5
8BF
  8
0
 10
8.498598510996933
 20
4.475166430891119
 30
0.0
  0
VERTEX
  5
8C0
  8
0
 10
8.498763369962948
 20
4.476710036946868
 30
0.0
  0
VERTEX
  5
8C1
  8
0
 10
8.498917849930912
 20
4.47825530885408
 30
0.0
  0
VERTEX
  5
8C2
  8
0
 10
8.49906193835231
 20
4.479802139686265
 30
0.0
  0
VERTEX
  5
8C3
  8
0
 10
8.499195622678618
 20
4.481350422516929
 30
0.0
  0
VERTEX
  5
8C4
  8
0
 10
8.49931889036131
 20
4.482900050419581
 30
0.0
  0
VERTEX
  5
8C5
  8
0
 10
8.499431728669363
 20
4.484450916425507
 30
0.0
  0
VERTEX
  5
8C6
  8
0
 10
8.499534120782128
 20
4.48600291261986
 30
0.0
  0
VERTEX
  5
8C7
  8
0
 10
8.49962604584855
 20
4.487555930155351
 30
0.0
  0
VERTEX
  5
8C8
  8
0
 10
8.499707482846889
 20
4.489109860145209
 30
0.0
  0
VERTEX
  5
8C9
  8
0
 10
8.499778410755408
 20
4.490664593702664
 30
0.0
  0
VERTEX
  5
8CA
  8
0
 10
8.499838808552372
 20
4.492220021940941
 30
0.0
  0
VERTEX
  5
8CB
  8
0
 10
8.499888655216045
 20
4.493776035973271
 30
0.0
  0
VERTEX
  5
8CC
  8
0
 10
8.499927929712145
 20
4.495332526908185
 30
0.0
  0
VERTEX
  5
8CD
  8
0
 10
8.499956606651944
 20
4.496889384224721
 30
0.0
  0
VERTEX
  5
8CE
  8
0
 10
8.499974649926903
 20
4.498446493390405
 30
0.0
  0
VERTEX
  5
8CF
  8
0
 10
8.49998202180838
 20
4.5000037392665
 30
0.0
  0
VERTEX
  5
8D0
  8
0
 10
8.499978684567738
 20
4.501561006714265
 30
0.0
  0
VERTEX
  5
8D1
  8
0
 10
8.49996460047633
 20
4.503118180594964
 30
0.0
  0
VERTEX
  5
8D2
  8
0
 10
8.499939731805512
 20
4.504675145769854
 30
0.0
  0
VERTEX
  5
8D3
  8
0
 10
8.499904040826646
 20
4.506231787100198
 30
0.0
  0
VERTEX
  5
8D4
  8
0
 10
8.49985749063049
 20
4.507787988458555
 30
0.0
  0
VERTEX
  5
8D5
  8
0
 10
8.499800049644218
 20
4.509343627278445
 30
0.0
  0
VERTEX
  5
8D6
  8
0
 10
8.499731688431687
 20
4.510898578415232
 30
0.0
  0
VERTEX
  5
8D7
  8
0
 10
8.499652377562425
 20
4.512452716717429
 30
0.0
  0
VERTEX
  5
8D8
  8
0
 10
8.49956208760597
 20
4.514005917033545
 30
0.0
  0
VERTEX
  5
8D9
  8
0
 10
8.499460789131852
 20
4.515558054212096
 30
0.0
  0
VERTEX
  5
8DA
  8
0
 10
8.499348452709606
 20
4.517109003101591
 30
0.0
  0
VERTEX
  5
8DB
  8
0
 10
8.499225051802615
 20
4.518658639020116
 30
0.0
  0
VERTEX
  5
8DC
  8
0
 10
8.499090614781469
 20
4.520206846195302
 30
0.0
  0
VERTEX
  5
8DD
  8
0
 10
8.498945219138712
 20
4.521753516825577
 30
0.0
  0
VERTEX
  5
8DE
  8
0
 10
8.498788944099198
 20
4.523298543390471
 30
0.0
  0
VERTEX
  5
8DF
  8
0
 10
8.498621868887788
 20
4.524841818369504
 30
0.0
  0
VERTEX
  5
8E0
  8
0
 10
8.498444072729326
 20
4.526383234242204
 30
0.0
  0
VERTEX
  5
8E1
  8
0
 10
8.498255634848672
 20
4.527922683488092
 30
0.0
  0
VERTEX
  5
8E2
  8
0
 10
8.498056634470675
 20
4.529460058586695
 30
0.0
  0
VERTEX
  5
8E3
  8
0
 10
8.49784714949011
 20
4.53099525266741
 30
0.0
  0
VERTEX
  5
8E4
  8
0
 10
8.497627242058932
 20
4.532528166551445
 30
0.0
  0
VERTEX
  5
8E5
  8
0
 10
8.497396964037652
 20
4.534058706088338
 30
0.0
  0
VERTEX
  5
8E6
  8
0
 10
8.497156367109095
 20
4.535586777214441
 30
0.0
  0
VERTEX
  5
8E7
  8
0
 10
8.496905502956087
 20
4.537112285866107
 30
0.0
  0
VERTEX
  5
8E8
  8
0
 10
8.496644423261452
 20
4.538635137979687
 30
0.0
  0
VERTEX
  5
8E9
  8
0
 10
8.496373179708018
 20
4.540155239491535
 30
0.0
  0
VERTEX
  5
8EA
  8
0
 10
8.496091823978603
 20
4.541672496337999
 30
0.0
  0
VERTEX
  5
8EB
  8
0
 10
8.495800407280624
 20
4.543186814877648
 30
0.0
  0
VERTEX
  5
8EC
  8
0
 10
8.49549897676825
 20
4.5446981050687
 30
0.0
  0
VERTEX
  5
8ED
  8
0
 10
8.495187577544
 20
4.546206278691421
 30
0.0
  0
VERTEX
  5
8EE
  8
0
 10
8.494866254694477
 20
4.547711247540231
 30
0.0
  0
VERTEX
  5
8EF
  8
0
 10
8.494535053306272
 20
4.549212923409539
 30
0.0
  0
VERTEX
  5
8F0
  8
0
 10
8.494194018465981
 20
4.550711218093763
 30
0.0
  0
VERTEX
  5
8F1
  8
0
 10
8.493843195260204
 20
4.552206043387321
 30
0.0
  0
VERTEX
  5
8F2
  8
0
 10
8.493482628775535
 20
4.553697311084626
 30
0.0
  0
VERTEX
  5
8F3
  8
0
 10
8.49311236233319
 20
4.55518493285624
 30
0.0
  0
VERTEX
  5
8F4
  8
0
 10
8.492732427772923
 20
4.55666881956722
 30
0.0
  0
VERTEX
  5
8F5
  8
0
 10
8.492342852343118
 20
4.558148881760505
 30
0.0
  0
VERTEX
  5
8F6
  8
0
 10
8.491943663280024
 20
4.559625029978184
 30
0.0
  0
VERTEX
  5
8F7
  8
0
 10
8.4915348878199
 20
4.56109717476235
 30
0.0
  0
VERTEX
  5
8F8
  8
0
 10
8.491116553199012
 20
4.562565226655089
 30
0.0
  0
VERTEX
  5
8F9
  8
0
 10
8.490688686653607
 20
4.564029096198492
 30
0.0
  0
VERTEX
  5
8FA
  8
0
 10
8.49025131541995
 20
4.565488693934647
 30
0.0
  0
VERTEX
  5
8FB
  8
0
 10
8.489804467374007
 20
4.566943930897136
 30
0.0
  0
VERTEX
  5
8FC
  8
0
 10
8.48934817354125
 20
4.568394720539318
 30
0.0
  0
VERTEX
  5
8FD
  8
0
 10
8.488882465914768
 20
4.569840977057982
 30
0.0
  0
VERTEX
  5
8FE
  8
0
 10
8.488407376487919
 20
4.571282614650114
 30
0.0
  0
VERTEX
  5
8FF
  8
0
 10
8.487922937254055
 20
4.572719547512701
 30
0.0
  0
VERTEX
  5
900
  8
0
 10
8.487429180206526
 20
4.574151689842732
 30
0.0
  0
VERTEX
  5
901
  8
0
 10
8.486926137338694
 20
4.575578955837196
 30
0.0
  0
VERTEX
  5
902
  8
0
 10
8.486413840644817
 20
4.577001259693834
 30
0.0
  0
VERTEX
  5
903
  8
0
 10
8.485892332327412
 20
4.578418524064346
 30
0.0
  0
VERTEX
  5
904
  8
0
 10
8.48536169008627
 20
4.579830700997499
 30
0.0
  0
VERTEX
  5
905
  8
0
 10
8.48482199933198
 20
4.581237748927747
 30
0.0
  0
VERTEX
  5
906
  8
0
 10
8.48427334547511
 20
4.582639626289535
 30
0.0
  0
VERTEX
  5
907
  8
0
 10
8.483715813926247
 20
4.584036291517315
 30
0.0
  0
VERTEX
  5
908
  8
0
 10
8.483149490095965
 20
4.585427703045537
 30
0.0
  0
VERTEX
  5
909
  8
0
 10
8.48257445939485
 20
4.586813819308651
 30
0.0
  0
VERTEX
  5
90A
  8
0
 10
8.481990807233476
 20
4.588194598741107
 30
0.0
  0
VERTEX
  5
90B
  8
0
 10
8.481398616082098
 20
4.589569999892536
 30
0.0
  0
VERTEX
  5
90C
  8
0
 10
8.480797951729365
 20
4.590939981966038
 30
0.0
  0
VERTEX
  5
90D
  8
0
 10
8.480188874088263
 20
4.592304504394881
 30
0.0
  0
VERTEX
  5
90E
  8
0
 10
8.479571443065224
 20
4.593663526612591
 30
0.0
  0
VERTEX
  5
90F
  8
0
 10
8.478945718566665
 20
4.595017008052689
 30
0.0
  0
VERTEX
  5
910
  8
0
 10
8.478311760499016
 20
4.596364908148701
 30
0.0
  0
VERTEX
  5
911
  8
0
 10
8.4776696287687
 20
4.597707186334153
 30
0.0
  0
VERTEX
  5
912
  8
0
 10
8.47701938328214
 20
4.599043802042568
 30
0.0
  0
VERTEX
  5
913
  8
0
 10
8.476361083638338
 20
4.600374715084572
 30
0.0
  0
VERTEX
  5
914
  8
0
 10
8.475694786286352
 20
4.601699889134567
 30
0.0
  0
VERTEX
  5
915
  8
0
 10
8.475020545827762
 20
4.603019290133134
 30
0.0
  0
VERTEX
  5
916
  8
0
 10
8.474338416840677
 20
4.604332884049638
 30
0.0
  0
VERTEX
  5
917
  8
0
 10
8.473648453903209
 20
4.605640636853441
 30
0.0
  0
VERTEX
  5
918
  8
0
 10
8.472950711593471
 20
4.606942514513906
 30
0.0
  0
VERTEX
  5
919
  8
0
 10
8.472245244489569
 20
4.608238483000394
 30
0.0
  0
VERTEX
  5
91A
  8
0
 10
8.471532107169617
 20
4.609528508282267
 30
0.0
  0
VERTEX
  5
91B
  8
0
 10
8.47081135390234
 20
4.610812556275926
 30
0.0
  0
VERTEX
  5
91C
  8
0
 10
8.470083032180005
 20
4.612090591737728
 30
0.0
  0
VERTEX
  5
91D
  8
0
 10
8.46934718290182
 20
4.613362578295386
 30
0.0
  0
VERTEX
  5
91E
  8
0
 10
8.46860384669428
 20
4.614628479529925
 30
0.0
  0
VERTEX
  5
91F
  8
0
 10
8.467853064183894
 20
4.615888259022375
 30
0.0
  0
VERTEX
  5
920
  8
0
 10
8.46709487599716
 20
4.617141880353763
 30
0.0
  0
VERTEX
  5
921
  8
0
 10
8.46632932276058
 20
4.618389307105114
 30
0.0
  0
VERTEX
  5
922
  8
0
 10
8.465556445100658
 20
4.61963050285746
 30
0.0
  0
VERTEX
  5
923
  8
0
 10
8.46477628364691
 20
4.620865431229421
 30
0.0
  0
VERTEX
  5
924
  8
0
 10
8.463988879223846
 20
4.622094058269282
 30
0.0
  0
VERTEX
  5
925
  8
0
 10
8.463194272966495
 20
4.623316353894899
 30
0.0
  0
VERTEX
  5
926
  8
0
 10
8.462392506037608
 20
4.624532288369402
 30
0.0
  0
VERTEX
  5
927
  8
0
 10
8.461583619599931
 20
4.625741831955925
 30
0.0
  0
VERTEX
  5
928
  8
0
 10
8.460767654816205
 20
4.626944954917598
 30
0.0
  0
VERTEX
  5
929
  8
0
 10
8.459944652849183
 20
4.628141627517554
 30
0.0
  0
VERTEX
  5
92A
  8
0
 10
8.45911465486161
 20
4.629331820018924
 30
0.0
  0
VERTEX
  5
92B
  8
0
 10
8.458277702020702
 20
4.630515502699601
 30
0.0
  0
VERTEX
  5
92C
  8
0
 10
8.457433837279043
 20
4.63169265173399
 30
0.0
  0
VERTEX
  5
92D
  8
0
 10
8.456583108094357
 20
4.63286325817546
 30
0.0
  0
VERTEX
  5
92E
  8
0
 10
8.455725562623956
 20
4.63402731538793
 30
0.0
  0
VERTEX
  5
92F
  8
0
 10
8.454861249025154
 20
4.635184816735326
 30
0.0
  0
VERTEX
  5
930
  8
0
 10
8.453990215455269
 20
4.63633575558157
 30
0.0
  0
VERTEX
  5
931
  8
0
 10
8.453112510071618
 20
4.637480125290588
 30
0.0
  0
VERTEX
  5
932
  8
0
 10
8.452228181031515
 20
4.638617919226302
 30
0.0
  0
VERTEX
  5
933
  8
0
 10
8.451337276492277
 20
4.639749130752636
 30
0.0
  0
VERTEX
  5
934
  8
0
 10
8.450439844611221
 20
4.640873753233515
 30
0.0
  0
VERTEX
  5
935
  8
0
 10
8.449535932878291
 20
4.641991779932352
 30
0.0
  0
VERTEX
  5
936
  8
0
 10
8.44862557948679
 20
4.643103202712455
 30
0.0
  0
VERTEX
  5
937
  8
0
 10
8.447708815810339
 20
4.644208012410058
 30
0.0
  0
VERTEX
  5
938
  8
0
 10
8.446785673065524
 20
4.645306199837748
 30
0.0
  0
VERTEX
  5
939
  8
0
 10
8.445856182468939
 20
4.646397755808108
 30
0.0
  0
VERTEX
  5
93A
  8
0
 10
8.44492037523718
 20
4.64748267113373
 30
0.0
  0
VERTEX
  5
93B
  8
0
 10
8.443978282586835
 20
4.648560936627196
 30
0.0
  0
VERTEX
  5
93C
  8
0
 10
8.443029935734504
 20
4.649632543101094
 30
0.0
  0
VERTEX
  5
93D
  8
0
 10
8.442075365896777
 20
4.650697481368013
 30
0.0
  0
VERTEX
  5
93E
  8
0
 10
8.441114604290116
 20
4.65175574224053
 30
0.0
  0
VERTEX
  5
93F
  8
0
 10
8.44014768131489
 20
4.652807316495354
 30
0.0
  0
VERTEX
  5
940
  8
0
 10
8.439174624620263
 20
4.653852194788248
 30
0.0
  0
VERTEX
  5
941
  8
0
 10
8.438195461276251
 20
4.654890367749521
 30
0.0
  0
VERTEX
  5
942
  8
0
 10
8.437210218352872
 20
4.655921826009478
 30
0.0
  0
VERTEX
  5
943
  8
0
 10
8.436218922920142
 20
4.656946560198429
 30
0.0
  0
VERTEX
  5
944
  8
0
 10
8.435221602048077
 20
4.657964560946677
 30
0.0
  0
VERTEX
  5
945
  8
0
 10
8.4342182828067
 20
4.658975818884532
 30
0.0
  0
VERTEX
  5
946
  8
0
 10
8.433208992266021
 20
4.659980324642297
 30
0.0
  0
VERTEX
  5
947
  8
0
 10
8.43219375749606
 20
4.660978068850284
 30
0.0
  0
VERTEX
  5
948
  8
0
 10
8.431172605415252
 20
4.661969042074314
 30
0.0
  0
VERTEX
  5
949
  8
0
 10
8.430145559223394
 20
4.662953233298295
 30
0.0
  0
VERTEX
  5
94A
  8
0
 10
8.429112638267831
 20
4.663930629867295
 30
0.0
  0
VERTEX
  5
94B
  8
0
 10
8.42807386171755
 20
4.664901219050506
 30
0.0
  0
VERTEX
  5
94C
  8
0
 10
8.42702924874154
 20
4.665864988117126
 30
0.0
  0
VERTEX
  5
94D
  8
0
 10
8.425978818508792
 20
4.666821924336347
 30
0.0
  0
VERTEX
  5
94E
  8
0
 10
8.424922590188288
 20
4.667772014977363
 30
0.0
  0
VERTEX
  5
94F
  8
0
 10
8.423860582949022
 20
4.66871524730937
 30
0.0
  0
VERTEX
  5
950
  8
0
 10
8.42279281595998
 20
4.669651608601561
 30
0.0
  0
VERTEX
  5
951
  8
0
 10
8.421719308390154
 20
4.670581086123133
 30
0.0
  0
VERTEX
  5
952
  8
0
 10
8.420640079326912
 20
4.671503666448626
 30
0.0
  0
VERTEX
  5
953
  8
0
 10
8.419555147444447
 20
4.672419332636206
 30
0.0
  0
VERTEX
  5
954
  8
0
 10
8.418464531286538
 20
4.673328066634002
 30
0.0
  0
VERTEX
  5
955
  8
0
 10
8.417368249396914
 20
4.674229850389723
 30
0.0
  0
VERTEX
  5
956
  8
0
 10
8.416266320319288
 20
4.675124665851068
 30
0.0
  0
VERTEX
  5
957
  8
0
 10
8.415158762597388
 20
4.676012494965744
 30
0.0
  0
VERTEX
  5
958
  8
0
 10
8.414045594774937
 20
4.676893319681455
 30
0.0
  0
VERTEX
  5
959
  8
0
 10
8.412926835395657
 20
4.677767121945906
 30
0.0
  0
VERTEX
  5
95A
  8
0
 10
8.411802503003274
 20
4.678633883706802
 30
0.0
  0
VERTEX
  5
95B
  8
0
 10
8.410672616015637
 20
4.679493586999491
 30
0.0
  0
VERTEX
  5
95C
  8
0
 10
8.40953718734477
 20
4.680346217693047
 30
0.0
  0
VERTEX
  5
95D
  8
0
 10
8.4083962223744
 20
4.681191766898512
 30
0.0
  0
VERTEX
  5
95E
  8
0
 10
8.407249725945434
 20
4.682030226104895
 30
0.0
  0
VERTEX
  5
95F
  8
0
 10
8.406097702898785
 20
4.682861586801207
 30
0.0
  0
VERTEX
  5
960
  8
0
 10
8.40494015807536
 20
4.683685840476454
 30
0.0
  0
VERTEX
  5
961
  8
0
 10
8.40377709631607
 20
4.684502978619649
 30
0.0
  0
VERTEX
  5
962
  8
0
 10
8.402608522461819
 20
4.685312992719799
 30
0.0
  0
VERTEX
  5
963
  8
0
 10
8.401434441360209
 20
4.686115874258268
 30
0.0
  0
VERTEX
  5
964
  8
0
 10
8.400254858265217
 20
4.686911614252267
 30
0.0
  0
VERTEX
  5
965
  8
0
 10
8.399069779063508
 20
4.687700202996335
 30
0.0
  0
VERTEX
  5
966
  8
0
 10
8.397879209696502
 20
4.688481630722472
 30
0.0
  0
VERTEX
  5
967
  8
0
 10
8.396683156105624
 20
4.689255887662677
 30
0.0
  0
VERTEX
  5
968
  8
0
 10
8.395481624232296
 20
4.69002296404895
 30
0.0
  0
VERTEX
  5
969
  8
0
 10
8.394274620017946
 20
4.69078285011329
 30
0.0
  0
VERTEX
  5
96A
  8
0
 10
8.393062149403987
 20
4.691535536087696
 30
0.0
  0
VERTEX
  5
96B
  8
0
 10
8.391844218276265
 20
4.692281012084426
 30
0.0
  0
VERTEX
  5
96C
  8
0
 10
8.390620826424387
 20
4.693019255083088
 30
0.0
  0
VERTEX
  5
96D
  8
0
 10
8.389391962122493
 20
4.693750217256348
 30
0.0
  0
VERTEX
  5
96E
  8
0
 10
8.388157612365818
 20
4.694473848021858
 30
0.0
  0
VERTEX
  5
96F
  8
0
 10
8.386917764149615
 20
4.69519009679727
 30
0.0
  0
VERTEX
  5
970
  8
0
 10
8.385672404469124
 20
4.695898913000236
 30
0.0
  0
VERTEX
  5
971
  8
0
 10
8.384421520319592
 20
4.696600246048408
 30
0.0
  0
VERTEX
  5
972
  8
0
 10
8.38316509869626
 20
4.697294045359437
 30
0.0
  0
VERTEX
  5
973
  8
0
 10
8.381903126668934
 20
4.697980260460489
 30
0.0
  0
VERTEX
  5
974
  8
0
 10
8.38063561190853
 20
4.698658871138534
 30
0.0
  0
VERTEX
  5
975
  8
0
 10
8.379362610663032
 20
4.699329928532631
 30
0.0
  0
VERTEX
  5
976
  8
0
 10
8.378084186178286
 20
4.699993494060605
 30
0.0
  0
VERTEX
  5
977
  8
0
 10
8.376800401700143
 20
4.700649629140282
 30
0.0
  0
VERTEX
  5
978
  8
0
 10
8.375511320474448
 20
4.701298395189484
 30
0.0
  0
VERTEX
  5
979
  8
0
 10
8.374217005747056
 20
4.70193985362604
 30
0.0
  0
VERTEX
  5
97A
  8
0
 10
8.372917520763806
 20
4.702574065867767
 30
0.0
  0
VERTEX
  5
97B
  8
0
 10
8.371612928719355
 20
4.703201093244462
 30
0.0
  0
VERTEX
  5
97C
  8
0
 10
8.370303232829931
 20
4.703820893952254
 30
0.0
  0
VERTEX
  5
97D
  8
0
 10
8.368988260511095
 20
4.704433123895798
 30
0.0
  0
VERTEX
  5
97E
  8
0
 10
8.367667807135929
 20
4.705037383882283
 30
0.0
  0
VERTEX
  5
97F
  8
0
 10
8.366341668077498
 20
4.705633274718888
 30
0.0
  0
VERTEX
  5
980
  8
0
 10
8.365009638708878
 20
4.706220397212801
 30
0.0
  0
VERTEX
  5
981
  8
0
 10
8.363671514403144
 20
4.706798352171204
 30
0.0
  0
VERTEX
  5
982
  8
0
 10
8.362327090533364
 20
4.70736674040128
 30
0.0
  0
VERTEX
  5
983
  8
0
 10
8.360976162485972
 20
4.707925162731915
 30
0.0
  0
VERTEX
  5
984
  8
0
 10
8.359618721594266
 20
4.708473538327639
 30
0.0
  0
VERTEX
  5
985
  8
0
 10
8.358255449153372
 20
4.709012907266276
 30
0.0
  0
VERTEX
  5
986
  8
0
 10
8.356887178241749
 20
4.709544556213125
 30
0.0
  0
VERTEX
  5
987
  8
0
 10
8.355514741937851
 20
4.710069771833483
 30
0.0
  0
VERTEX
  5
988
  8
0
 10
8.354138973320135
 20
4.71058984079265
 30
0.0
  0
VERTEX
  5
989
  8
0
 10
8.35276070546705
 20
4.711106049755923
 30
0.0
  0
VERTEX
  5
98A
  8
0
 10
8.351380771457057
 20
4.711619685388598
 30
0.0
  0
VERTEX
  5
98B
  8
0
 10
8.35000000436861
 20
4.712132034355974
 30
0.0
  0
SEQEND
  5
99D
  8
0
  0
LINE
  5
110
  8
0
 10
8.350000000000016
 20
4.050000000000011
 30
0.0
 11
8.350000000000016
 21
4.28786796564404
 31
0.0
  0
LINE
  5
111
  8
0
 10
0.0
 20
0.4714424780626985
 30
0.0
 11
2.000000000000007
 21
0.4714424780626985
 31
0.0
  0
LINE
  5
112
  8
0
 10
0.0
 20
0.0
 30
0.0
 11
0.0
 21
0.4714424780626985
 31
0.0
  0
LINE
  5
113
  8
0
 10
2.000000000000007
 20
0.0
 30
0.0
 11
0.0
 21
0.0
 31
0.0
  0
LINE
  5
114
  8
0
 10
2.000000000000007
 20
0.4714424780626985
 30
0.0
 11
2.000000000000007
 21
0.0
 31
0.0
  0
ENDSEC
  0
EOF
