  0
SECTION
  2
HEADER
  9
$ACADVER
  1
AC1009
  9
$DWGCODEPAGE
  3
ansi_1252
  9
$INSBASE
 10
0.0
 20
0.0
 30
0.0
  9
$EXTMIN
 10
-177.3834455683916
 20
-163.2940579215654
 30
0.0
  9
$EXTMAX
 10
327.155015970057
 20
51.28286515535211
 30
0.0
  9
$LIMMIN
 10
-105.0
 20
-148.5
  9
$LIMMAX
 10
105.0
 20
148.5
  9
$ORTHOMODE
 70
     0
  9
$REGENMODE
 70
     1
  9
$FILLMODE
 70
     1
  9
$QTEXTMODE
 70
     0
  9
$MIRRTEXT
 70
     1
  9
$DRAGMODE
 70
     2
  9
$LTSCALE
 40
1.0
  9
$OSMODE
 70
    37
  9
$ATTMODE
 70
     1
  9
$TEXTSIZE
 40
2.5
  9
$TRACEWID
 40
1.0
  9
$TEXTSTYLE
  7
STANDARD
  9
$CLAYER
  8
THICK_SOLID_LAYER
  9
$CELTYPE
  6
BYLAYER
  9
$CECOLOR
 62
   256
  9
$DIMSCALE
 40
1.0
  9
$DIMASZ
 40
4.0
  9
$DIMEXO
 40
0.0
  9
$DIMDLI
 40
0.38
  9
$DIMRND
 40
0.0
  9
$DIMDLE
 40
6.0
  9
$DIMEXE
 40
2.0
  9
$DIMTP
 40
0.0
  9
$DIMTM
 40
0.0
  9
$DIMTXT
 40
3.5
  9
$DIMCEN
 40
0.0
  9
$DIMTSZ
 40
0.0
  9
$DIMTOL
 70
     0
  9
$DIMLIM
 70
     0
  9
$DIMTIH
 70
     0
  9
$DIMTOH
 70
     0
  9
$DIMSE1
 70
     0
  9
$DIMSE2
 70
     0
  9
$DIMTAD
 70
     1
  9
$DIMZIN
 70
     8
  9
$DIMBLK
  1
CAXARROW
  9
$DIMASO
 70
     1
  9
$DIMSHO
 70
     1
  9
$DIMPOST
  1

  9
$DIMAPOST
  1

  9
$DIMALT
 70
     0
  9
$DIMALTD
 70
     2
  9
$DIMALTF
 40
1.0
  9
$DIMLFAC
 40
1.0
  9
$DIMTOFL
 70
     1
  9
$DIMTVP
 40
0.0
  9
$DIMTIX
 70
     0
  9
$DIMSOXD
 70
     0
  9
$DIMSAH
 70
     0
  9
$DIMBLK1
  1

  9
$DIMBLK2
  1

  9
$DIMSTYLE
  2
STANDARD
  9
$DIMCLRD
 70
     0
  9
$DIMCLRE
 70
     0
  9
$DIMCLRT
 70
     0
  9
$DIMTFAC
 40
0.7071067811865475
  9
$DIMGAP
 40
0.625
  9
$LUNITS
 70
     2
  9
$LUPREC
 70
     4
  9
$SKETCHINC
 40
1.0
  9
$FILLETRAD
 40
10.0
  9
$AUNITS
 70
     0
  9
$AUPREC
 70
     0
  9
$MENU
  1
.
  9
$ELEVATION
 40
0.0
  9
$PELEVATION
 40
0.0
  9
$THICKNESS
 40
0.0
  9
$LIMCHECK
 70
     0
  9
$CHAMFERA
 40
0.0
  9
$CHAMFERB
 40
0.0
  9
$SKPOLY
 70
     0
  9
$TDCREATE
 40
2458564.70890912
  9
$TDUPDATE
 40
2458564.708911377
  9
$TDINDWG
 40
0.0000000116
  9
$TDUSRTIMER
 40
0.0000000116
  9
$USRTIMER
 70
     1
  9
$ANGBASE
 50
0.0
  9
$ANGDIR
 70
     0
  9
$PDMODE
 70
     0
  9
$PDSIZE
 40
-5.0
  9
$PLINEWID
 40
0.0
  9
$COORDS
 70
     1
  9
$SPLFRAME
 70
     0
  9
$SPLINETYPE
 70
     6
  9
$SPLINESEGS
 70
     8
  9
$ATTDIA
 70
     0
  9
$ATTREQ
 70
     1
  9
$HANDLING
 70
     1
  9
$HANDSEED
  5
1C9
  9
$SURFTAB1
 70
     6
  9
$SURFTAB2
 70
     6
  9
$SURFTYPE
 70
     6
  9
$SURFU
 70
     6
  9
$SURFV
 70
     6
  9
$UCSNAME
  2

  9
$UCSORG
 10
0.0
 20
0.0
 30
0.0
  9
$UCSXDIR
 10
1.0
 20
0.0
 30
0.0
  9
$UCSYDIR
 10
0.0
 20
1.0
 30
0.0
  9
$PUCSNAME
  2

  9
$PUCSORG
 10
0.0
 20
0.0
 30
0.0
  9
$PUCSXDIR
 10
1.0
 20
0.0
 30
0.0
  9
$PUCSYDIR
 10
0.0
 20
1.0
 30
0.0
  9
$USERI1
 70
     0
  9
$USERI2
 70
     0
  9
$USERI3
 70
     0
  9
$USERI4
 70
     0
  9
$USERI5
 70
     0
  9
$USERR1
 40
0.0
  9
$USERR2
 40
0.0
  9
$USERR3
 40
0.0
  9
$USERR4
 40
0.0
  9
$USERR5
 40
0.0
  9
$WORLDVIEW
 70
     1
  9
$SHADEDGE
 70
     3
  9
$SHADEDIF
 70
    70
  9
$TILEMODE
 70
     1
  9
$MAXACTVP
 70
    64
  9
$PLIMCHECK
 70
     0
  9
$PEXTMIN
 10
1.000000000000000E+20
 20
1.000000000000000E+20
 30
1.000000000000000E+20
  9
$PEXTMAX
 10
-1.000000000000000E+20
 20
-1.000000000000000E+20
 30
-1.000000000000000E+20
  9
$PLIMMIN
 10
0.0
 20
0.0
  9
$PLIMMAX
 10
420.0
 20
297.0
  9
$UNITMODE
 70
     0
  9
$VISRETAIN
 70
     1
  9
$PLINEGEN
 70
     0
  9
$PSLTSCALE
 70
     1
  0
ENDSEC
  0
SECTION
  2
TABLES
  0
TABLE
  2
VPORT
 70
     1
  0
VPORT
  2
*ACTIVE
 70
     0
 10
0.0
 20
0.0
 11
1.0
 21
1.0
 12
74.88578520083271
 22
-56.00559638310665
 13
0.0
 23
0.0
 14
10.0
 24
10.0
 15
10.0
 25
10.0
 16
0.0
 26
0.0
 36
1.0
 17
0.0
 27
0.0
 37
0.0
 40
214.5769230769175
 41
2.351317440401506
 42
50.0
 43
0.0
 44
0.0
 50
0.0
 51
0.0
 71
     0
 72
   100
 73
     1
 74
     3
 75
     0
 76
     0
 77
     0
 78
     0
  0
ENDTAB
  0
TABLE
  2
LTYPE
 70
     4
  0
LTYPE
  2
CONTINUOUS
 70
     0
  3
Solid line
 72
    65
 73
     0
 40
0.0
  0
LTYPE
  2
DASH
 70
     0
  3
Dash: __ __ __ __ __ __ __ __ __ __ __ __ __
 72
    65
 73
     2
 40
2.0
 49
1.0
 49
-1.0
  0
LTYPE
  2
DASH_DOT
 70
     0
  3
Dash Dot: ____ . ____ . ____ . ____ . ____ . ____
 72
    65
 73
     4
 40
18.0
 49
12.0
 49
-2.0
 49
2.0
 49
-2.0
  0
LTYPE
  2
DASH_DOUBLE-DOT
 70
     0
  3
Dash Double-dot: ____ . . ____ . . ____ . . ____ . . ____ 
 72
    65
 73
     6
 40
22.0
 49
12.0
 49
-2.0
 49
2.0
 49
-2.0
 49
2.0
 49
-2.0
  0
ENDTAB
  0
TABLE
  2
LAYER
 70
     8
  0
LAYER
  2
0
 70
     0
 62
     7
  6
CONTINUOUS
  0
LAYER
  2
CENTERLINE_LAYER
 70
     0
 62
     1
  6
DASH_DOT
  0
LAYER
  2
DASH_LAYER
 70
     0
 62
     6
  6
DASH
  0
LAYER
  2
SOLID_LAYER
 70
     0
 62
     7
  6
CONTINUOUS
  0
LAYER
  2
THICK_SOLID_LAYER
 70
     0
 62
     7
  6
CONTINUOUS
  0
LAYER
  2
DIMENSION_LAYER
 70
     0
 62
     3
  6
CONTINUOUS
  0
LAYER
  2
HATCH_LAYER
 70
     0
 62
     4
  6
CONTINUOUS
  0
LAYER
  2
HIDDEN_LAYER
 70
     0
 62
    -7
  6
CONTINUOUS
  0
ENDTAB
  0
TABLE
  2
STYLE
 70
     1
  0
STYLE
  2
STANDARD
 70
     0
 40
0.0
 41
0.667
 50
0.0
 71
     0
 42
0.0
  3
txt
  4

  0
ENDTAB
  0
TABLE
  2
VIEW
 70
     0
  0
ENDTAB
  0
TABLE
  2
UCS
 70
     0
  0
ENDTAB
  0
TABLE
  2
APPID
 70
    79
  0
APPID
  2
ACAD
 70
     0
  0
APPID
  2
CAXA_DRAFT_PAPERORDER
 70
     0
  0
APPID
  2
CAXA_DRAFT_ROUGH
 70
     0
  0
APPID
  2
CAXA_DRAFT_ROUGH_STD
 70
     0
  0
APPID
  2
CAXA_DRAFT_DATUM
 70
     0
  0
APPID
  2
CAXA_DRAFT_WELD
 70
     0
  0
APPID
  2
CAXA_DRAFT_GEOTOL
 70
     0
  0
APPID
  2
CAXA_DRAFT_CUTS
 70
     0
  0
APPID
  2
CAXA_DRAFT_DIMHALF
 70
     0
  0
APPID
  2
CAXA_DRAFT_DIMRAY
 70
     0
  0
APPID
  2
CAXA_DRAFT_DIMARCLEN
 70
     0
  0
APPID
  2
CAXA_DRAFT_DIMTAPER
 70
     0
  0
APPID
  2
CAXA_DRAFT_DIMPITCH
 70
     0
  0
APPID
  2
CAXA_DRAFT_DIMCOORD
 70
     0
  0
APPID
  2
CAXA_DRAFT_DIMORIALIGN
 70
     0
  0
APPID
  2
CAXA_DRAFT_DIMHOLEPOS
 70
     0
  0
APPID
  2
CAXA_DRAFT_DIMCRDLEADER
 70
     0
  0
APPID
  2
CAXA_DRAFT_DIMCHAMFER
 70
     0
  0
APPID
  2
CAXA_DRAFT_DIMCENTERHOLE
 70
     0
  0
APPID
  2
CAXA_DRAFT_DIMLEADER
 70
     0
  0
APPID
  2
CAXA_DRAFT_DIMCRDLIST
 70
     0
  0
APPID
  2
CAXA_DRAFT_PAPERSCALE
 70
     0
  0
APPID
  2
CAXA_DRAFT_FILEVERSION
 70
     0
  0
APPID
  2
CAXA_DRAFT_PRODUCTVERSION
 70
     0
  0
APPID
  2
CAXA_DRAFT_DATATABLE
 70
     0
  0
APPID
  2
CAXA_DRAFT_PAPERINFO
 70
     0
  0
APPID
  2
CAXA_DRAFT_PAPERFRAME
 70
     0
  0
APPID
  2
CAXA_DRAFT_PAPERTITLE
 70
     0
  0
APPID
  2
CAXA_DRAFT_PAPERPAREATABLE
 70
     0
  0
APPID
  2
CAXA_DRAFT_PARTNO
 70
     0
  0
APPID
  2
CAXA_DRAFT_BOMTABLE
 70
     0
  0
APPID
  2
CAXA_DRAFT_BLKREF_EXTATT
 70
     0
  0
APPID
  2
CAXA_DRAFT_DBVIEWDATA
 70
     0
  0
APPID
  2
CAXA_DRAFT_DIMSYMTOL
 70
     0
  0
APPID
  2
CAXA_DRAFT_DIMASSEMTOL
 70
     0
  0
APPID
  2
CAXA_DRAFT_DIMANGLETOL
 70
     0
  0
APPID
  2
CAXA_DRAFT_DRAFTDATA
 70
     0
  0
APPID
  2
CAXA_DRAFT_DIMORIGIN
 70
     0
  0
APPID
  2
CAXA_DRAFT_ENLARGE_EDGE
 70
     0
  0
APPID
  2
CAXA_DRAFT_DIMSTY_T_VPOS
 70
     0
  0
APPID
  2
CAXA_DRAFT_DIMSTY_AT_VPOS
 70
     0
  0
APPID
  2
CAXA_DRAFT_BLKHIDE
 70
     0
  0
APPID
  2
CAXA_DRAFT_DIMARROWREVERSE
 70
     0
  0
APPID
  2
CAXA_DRAFT_TXTSTYLE
 70
     0
  0
APPID
  2
CAXA_DRAFT_ATTRIBUTE_2PT
 70
     0
  0
APPID
  2
CAXA_DRAFT_ATTDEF_2PT
 70
     0
  0
APPID
  2
CAXA_DRAFT_DIMBIGARC
 70
     0
  0
APPID
  2
CAXA_DRAFT_ISNEB09R3
 70
     0
  0
APPID
  2
CAXA_DRAFT_WIPEOUT_B_HIDE
 70
     0
  0
APPID
  2
CAXA_DRAFT_BLKREF_SYMBOL
 70
     0
  0
APPID
  2
CAXA_DRAFT_ENL_COMMENTS
 70
     0
  0
APPID
  2
CAXA_DRAFT_ENL_TSCALE
 70
     0
  0
APPID
  2
CAXA_DRAFT_TXTSCALE
 70
     0
  0
APPID
  2
CAXA_DRAFT_KEEPLTSEG_ZOOM
 70
     0
  0
APPID
  2
CAXA_DRAFT_SPECLIB
 70
     0
  0
APPID
  2
CAXA_DRAFT_DATUM_2011R2
 70
     0
  0
APPID
  2
CAXA_DRAFT_ROUGH_2011R2
 70
     0
  0
APPID
  2
CAXA_DRAFT_GEOTOL_2011R2
 70
     0
  0
APPID
  2
CAXA_DRAFT_DMOVMAP_2011R3
 70
     0
  0
APPID
  2
CAXA_DRAFT_DDTSTY_2011R3
 70
     0
  0
APPID
  2
CAXA_DRAFT_SDTSTY_2011R3
 70
     0
  0
APPID
  2
CDRAFT_TXTROT_2011R3
 70
     0
  0
APPID
  2
CDRAFT_TOLOUT_2011R3
 70
     0
  0
APPID
  2
CAXA_DRAFT_DIMARCLENSTYLE
 70
     0
  0
APPID
  2
CAXA_DRAFT_DMOVMAP_2013
 70
     0
  0
APPID
  2
CAXA_DRAFT_DS_DLLNTYPE
 70
     0
  0
APPID
  2
CAXA_DRAFT_DS_LBLLNTYPE
 70
     0
  0
APPID
  2
CAXA_DRAFT_DS_RBLLNTYPE
 70
     0
  0
APPID
  2
CAXA_DRAFT_DS_ISFILLDFM
 70
     0
  0
APPID
  2
CAXA_DRAFT_DS_DISPZTOOL
 70
     0
  0
APPID
  2
CAXA_DRAFT_DS_SYMCOLOR
 70
     0
  0
APPID
  2
CAXA_DRAFT_HATCH_SCALE_ANG
 70
     0
  0
APPID
  2
CAXA_DRAFT_GEOTOL_ISFROMDW
 70
     0
  0
APPID
  2
CXDRAGDIADIMLNSTYLE
 70
     0
  0
APPID
  2
CXDRAGRADDIMLNSTYLE
 70
     0
  0
APPID
  2
CX_DBANNOTATE_SIMDIMORITXT
 70
     0
  0
APPID
  2
CX_DBANNOTATE_TXTLOCPARA
 70
     0
  0
APPID
  2
CX_DBANNOTATE_DRAGTXTLOC
 70
     0
  0
APPID
  2
ACAECLAYERSTANDARD
 70
     0
  0
ENDTAB
  0
TABLE
  2
DIMSTYLE
 70
     2
  0
DIMSTYLE
  2
STANDARD
 70
     0
  3

  4

  5
CAXARROW
  6

  7

 40
1.0
 41
4.0
 42
0.0
 43
0.38
 44
2.0
 45
0.0
 46
6.0
 47
0.0
 48
0.0
140
3.5
141
0.0
142
0.0
143
1.0
144
1.0
145
0.0
146
0.7071067811865475
147
0.625
 71
     0
 72
     0
 73
     0
 74
     0
 75
     0
 76
     0
 77
     1
 78
     8
170
     0
171
     2
172
     1
173
     0
174
     0
175
     0
176
     0
177
     0
178
     0
  0
ENDTAB
  0
ENDSEC
  0
SECTION
  2
BLOCKS
  0
BLOCK
  8
0
  2
$MODEL_SPACE
 70
     0
 10
0.0
 20
0.0
 30
0.0
  3
$MODEL_SPACE
  1

  0
ENDBLK
  5
21
  8
0
  0
BLOCK
 67
     1
  8
0
  2
$PAPER_SPACE
 70
     0
 10
0.0
 20
0.0
 30
0.0
  3
$PAPER_SPACE
  1

  0
ENDBLK
  5
1D
 67
     1
  8
0
  0
BLOCK
  8
0
  2
_CAXARROW
 70
     0
 10
0.0
 20
0.0
 30
0.0
  3
_CAXARROW
  1

  0
INSERT
  5
C6
  8
0
 62
     0
  2
*U2
 10
0.0
 20
0.0
 30
0.0
1001
ACAD
1002
{
1000
R14_HATCH_DATA
1000
C6
1011
1.0
1021
0.0
1031
0.0
1021
0.0
1031
0.0
1011
0.0
1021
1.0
1031
0.0
1021
1.0
1031
0.0
1011
0.0
1021
0.0
1031
1.0
1021
0.0
1031
1.0
1040
0.0
1010
0.0
1020
0.0
1030
1.0
1020
0.0
1030
1.0
1000
SOLID
1070
     1
1070
     1
1071
        1
1071
        0
1071
        3
1070
     1
1040
0.0
1040
0.0
1040
-1.0
1040
0.125
1070
     1
1040
-1.0
1040
0.125
1040
-1.0
1040
-0.125
1070
     1
1040
-1.0
1040
-0.125
1040
0.0
1040
0.0
1071
        0
1070
     0
1070
     1
1071
        1
1040
0.0
1040
0.0
1040
0.0
1002
}
  0
ENDBLK
  5
C8
  8
0
  0
BLOCK
  8
0
  2
*U2
 70
     1
 10
0.0
 20
0.0
 30
0.0
  3
*U2
  1

  0
SOLID
  5
1C4
  8
0
 62
     0
 10
-1.0
 20
-0.125
 30
0.0
 11
-1.0
 21
0.125
 31
0.0
 12
0.0
 22
0.0
 32
0.0
 13
0.0
 23
0.0
 33
0.0
  0
ENDBLK
  5
1C6
  8
0
  0
ENDSEC
  0
SECTION
  2
ENTITIES
  0
LINE
  5
EF
  8
THICK_SOLID_LAYER
 10
15.0
 20
-16.99999999999995
 30
0.0
 11
86.49999999999987
 21
-17.00000000000001
 31
0.0
  0
ARC
  5
F0
  8
THICK_SOLID_LAYER
 10
86.50000000000004
 20
-16.50000000000014
 30
0.0
 40
0.5000000000000709
 50
270.0
 51
90.0
  0
LINE
  5
F1
  8
THICK_SOLID_LAYER
 10
14.00000000000001
 20
-16.0
 30
0.0
 11
86.49999999999987
 21
-16.0
 31
0.0
  0
LINE
  5
F2
  8
THICK_SOLID_LAYER
 10
90.49999999999987
 20
-17.00000000000001
 30
0.0
 11
100.0000000000004
 21
-17.00000000000003
 31
0.0
  0
ARC
  5
F3
  8
THICK_SOLID_LAYER
 10
90.49999999999987
 20
-16.50000000000014
 30
0.0
 40
0.4999999999998081
 50
90.0
 51
270.0
  0
LINE
  5
F4
  8
THICK_SOLID_LAYER
 10
90.49999999999987
 20
-16.00000000000001
 30
0.0
 11
100.0000000000004
 21
-16.00000000000001
 31
0.0
  0
LINE
  5
F5
  8
THICK_SOLID_LAYER
 10
14.00000000000003
 20
-16.0
 30
0.0
 11
13.99999999999983
 21
-88.50000000000011
 31
0.0
  0
ARC
  5
F6
  8
THICK_SOLID_LAYER
 10
14.49999999999971
 20
-88.50000000000028
 30
0.0
 40
0.5000000000000708
 50
180.0
 51
0.0
  0
LINE
  5
F7
  8
THICK_SOLID_LAYER
 10
15.0
 20
-16.99999999999994
 30
0.0
 11
14.99999999999983
 21
-88.50000000000011
 31
0.0
  0
LINE
  5
F8
  8
THICK_SOLID_LAYER
 10
13.99999999999981
 20
-92.50000000000009
 30
0.0
 11
13.99999999999979
 21
-99.00000000000006
 31
0.0
  0
ARC
  5
F9
  8
THICK_SOLID_LAYER
 10
14.49999999999969
 20
-92.50000000000009
 30
0.0
 40
0.499999999999808
 50
359.9999999999984
 51
180.0000000000016
  0
LINE
  5
FA
  8
THICK_SOLID_LAYER
 10
14.99999999999981
 20
-92.50000000000009
 30
0.0
 11
14.9999999999998
 21
-99.00000000000004
 31
0.0
  0
LINE
  5
FB
  8
0
 10
9.549999999999796
 20
-12.59999999999997
 30
0.0
 11
9.54999999999981
 21
-14.59999999999999
 31
0.0
  0
LINE
  5
FC
  8
0
 10
7.449999999999802
 20
-12.59999999999997
 30
0.0
 11
9.549999999999796
 21
-12.59999999999997
 31
0.0
  0
LINE
  5
FD
  8
0
 10
7.449999999999802
 20
-14.59999999999999
 30
0.0
 11
7.449999999999802
 21
-12.59999999999997
 31
0.0
  0
LINE
  5
FE
  8
0
 10
9.54999999999981
 20
-14.59999999999999
 30
0.0
 11
7.449999999999802
 21
-14.59999999999999
 31
0.0
  0
CIRCLE
  5
FF
  8
0
 10
84.89097525182875
 20
-7.990975041774931
 30
0.0
 40
1.000000000000007
  0
CIRCLE
  5
100
  8
0
 10
37.39097525182876
 20
-7.990975041774902
 30
0.0
 40
1.000000000000001
  0
CIRCLE
  5
101
  8
0
 10
24.89097525182877
 20
-11.74999999999994
 30
0.0
 40
0.5000000000000149
  0
CIRCLE
  5
102
  8
0
 10
1.499999999999799
 20
-5.499999999999972
 30
0.0
 40
0.5000000000000007
  0
CIRCLE
  5
103
  8
0
 10
9.750000000000098
 20
-93.89999999999998
 30
0.0
 40
0.5000000000000007
  0
CIRCLE
  5
104
  8
0
 10
1.499999999999799
 20
-10.49999999999997
 30
0.0
 40
0.5000000000000007
  0
CIRCLE
  5
105
  8
0
 10
15.9999999999998
 20
-8.0
 30
0.0
 40
0.5000000000000007
  0
CIRCLE
  5
106
  8
0
 10
7.250000000000083
 20
-93.89999999999998
 30
0.0
 40
0.5
  0
CIRCLE
  5
107
  8
0
 10
94.89097525182873
 20
-9.249999999999915
 30
0.0
 40
0.4999999999999994
  0
CIRCLE
  5
108
  8
0
 10
24.89097525182875
 20
-6.749999999999915
 30
0.0
 40
0.4999999999999865
  0
CIRCLE
  5
109
  8
0
 10
94.89097525182873
 20
-6.749999999999886
 30
0.0
 40
0.4999999999999726
  0
ARC
  5
10A
  8
0
 10
95.00000000000011
 20
-5.0
 30
0.0
 40
5.0
 50
0.0
 51
90.0
  0
LINE
  5
10B
  8
0
 10
100.0000000000001
 20
-16.0
 30
0.0
 11
100.0000000000001
 21
-5.0
 31
0.0
  0
LINE
  5
10C
  8
0
 10
4.999999999999984
 20
-98.99999999999999
 30
0.0
 11
14.0
 21
-99.0
 31
0.0
  0
ARC
  5
10D
  8
0
 10
4.999999999999998
 20
-93.99999999999999
 30
0.0
 40
5.0
 50
179.9999999999998
 51
270.0
  0
LINE
  5
10E
  8
0
 10
-0.0000000000000018
 20
-5.000000000000001
 30
0.0
 11
-0.0000000000000018
 21
-93.99999999999997
 31
0.0
  0
ARC
  5
10F
  8
0
 10
4.999999999999984
 20
-5.0
 30
0.0
 40
5.0
 50
90.0
 51
180.0
  0
LINE
  5
110
  8
0
 10
95.00000000000011
 20
0.0
 30
0.0
 11
5.0
 21
0.0
 31
0.0
  0
CIRCLE
  5
111
  8
0
 10
94.89097525182873
 20
-11.74999999999994
 30
0.0
 40
0.4999999999999812
  0
CIRCLE
  5
112
  8
0
 10
94.89097525182873
 20
-4.249999999999886
 30
0.0
 40
0.4999999999999934
  0
CIRCLE
  5
113
  8
0
 10
4.750000000000055
 20
-23.89999999999999
 30
0.0
 40
0.5
  0
CIRCLE
  5
114
  8
0
 10
4.750000000000055
 20
-93.89999999999998
 30
0.0
 40
0.5
  0
CIRCLE
  5
115
  8
0
 10
15.9999999999998
 20
-10.5
 30
0.0
 40
0.5000000000000007
  0
CIRCLE
  5
116
  8
0
 10
9.750000000000083
 20
-23.89999999999998
 30
0.0
 40
0.5000000000000007
  0
CIRCLE
  5
117
  8
0
 10
15.9999999999998
 20
-5.499999999999972
 30
0.0
 40
0.5000000000000007
  0
CIRCLE
  5
118
  8
0
 10
12.25000000000013
 20
-93.89999999999998
 30
0.0
 40
0.500000000000003
  0
CIRCLE
  5
119
  8
0
 10
8.509024958225082
 20
-36.39999999999996
 30
0.0
 40
1.0
  0
CIRCLE
  5
11A
  8
0
 10
8.509024958225082
 20
-83.89999999999998
 30
0.0
 40
1.000000000000001
  0
LINE
  5
11B
  8
0
 10
9.54999999999981
 20
-3.399999999999977
 30
0.0
 11
7.449999999999816
 21
-3.399999999999977
 31
0.0
  0
LINE
  5
11C
  8
0
 10
9.54999999999981
 20
-1.399999999999977
 30
0.0
 11
9.54999999999981
 21
-3.399999999999977
 31
0.0
  0
LINE
  5
11D
  8
0
 10
7.449999999999816
 20
-1.399999999999977
 30
0.0
 11
9.54999999999981
 21
-1.399999999999977
 31
0.0
  0
LINE
  5
11E
  8
0
 10
7.449999999999816
 20
-3.399999999999977
 30
0.0
 11
7.449999999999816
 21
-1.399999999999977
 31
0.0
  0
POINT
  5
11F
  8
THICK_SOLID_LAYER
 10
0.0000000000000107
 20
0.0
 30
0.0
  0
CIRCLE
  5
120
  8
0
 10
67.5
 20
-87.5
 30
0.0
 40
1.700000000000014
  0
CIRCLE
  5
121
  8
0
 10
88.49999999999999
 20
-27.49999999999999
 30
0.0
 40
1.700000000000007
  0
CIRCLE
  5
122
  8
0
 10
88.49999999999999
 20
-47.49999999999999
 30
0.0
 40
1.700000000000007
  0
CIRCLE
  5
123
  8
0
 10
88.49999999999999
 20
-67.50000000000001
 30
0.0
 40
1.700000000000007
  0
CIRCLE
  5
124
  8
0
 10
25.50000000000001
 20
-47.49999999999999
 30
0.0
 40
1.700000000000002
  0
CIRCLE
  5
125
  8
0
 10
46.50000000000001
 20
-47.49999999999999
 30
0.0
 40
1.7
  0
CIRCLE
  5
126
  8
0
 10
46.50000000000001
 20
-87.5
 30
0.0
 40
1.7
  0
CIRCLE
  5
127
  8
0
 10
46.50000000000001
 20
-27.49999999999999
 30
0.0
 40
1.7
  0
CIRCLE
  5
128
  8
0
 10
83.0
 20
-27.49999999999999
 30
0.0
 40
0.9500000000000204
  0
CIRCLE
  5
129
  8
0
 10
83.0
 20
-67.50000000000001
 30
0.0
 40
0.9500000000000204
  0
CIRCLE
  5
12A
  8
0
 10
72.99999999999999
 20
-87.5
 30
0.0
 40
0.9500000000000134
  0
CIRCLE
  5
12B
  8
0
 10
72.99999999999999
 20
-47.49999999999999
 30
0.0
 40
0.9500000000000065
  0
CIRCLE
  5
12C
  8
0
 10
20.00000000000001
 20
-27.49999999999999
 30
0.0
 40
0.9500000000000004
  0
CIRCLE
  5
12D
  8
0
 10
31.0
 20
-47.49999999999999
 30
0.0
 40
0.9499999999999994
  0
CIRCLE
  5
12E
  8
0
 10
52.0
 20
-47.49999999999999
 30
0.0
 40
0.9499999999999994
  0
CIRCLE
  5
12F
  8
0
 10
41.00000000000001
 20
-67.5
 30
0.0
 40
0.9499999999999994
  0
CIRCLE
  5
130
  8
0
 10
62.00000000000001
 20
-67.5
 30
0.0
 40
0.9499999999999994
  0
CIRCLE
  5
131
  8
0
 10
52.0
 20
-87.5
 30
0.0
 40
0.9499999999999994
  0
CIRCLE
  5
132
  8
0
 10
20.00000000000001
 20
-87.5
 30
0.0
 40
0.9499999999999984
  0
CIRCLE
  5
133
  8
0
 10
31.0
 20
-27.49999999999999
 30
0.0
 40
0.9499999999999994
  0
CIRCLE
  5
134
  8
0
 10
52.0
 20
-27.49999999999999
 30
0.0
 40
0.9499999999999994
  0
CIRCLE
  5
135
  8
0
 10
62.00000000000001
 20
-27.49999999999999
 30
0.0
 40
0.9499999999999994
  0
CIRCLE
  5
136
  8
0
 10
94.00000000000001
 20
-47.49999999999999
 30
0.0
 40
0.9499999999999784
  0
CIRCLE
  5
137
  8
0
 10
94.00000000000001
 20
-27.49999999999999
 30
0.0
 40
0.9499999999999784
  0
CIRCLE
  5
138
  8
0
 10
83.49999999999999
 20
-91.29999999999998
 30
0.0
 40
0.6000000000000175
  0
CIRCLE
  5
139
  8
0
 10
83.5
 20
-51.29999999999998
 30
0.0
 40
0.6000000000000175
  0
CIRCLE
  5
13A
  8
0
 10
88.49999999999999
 20
-33.39999999999998
 30
0.0
 40
0.6000000000000175
  0
CIRCLE
  5
13B
  8
0
 10
67.5
 20
-73.39999999999999
 30
0.0
 40
0.6000000000000175
  0
CIRCLE
  5
13C
  8
0
 10
88.49999999999999
 20
-73.4
 30
0.0
 40
0.6000000000000175
  0
CIRCLE
  5
13D
  8
0
 10
88.49999999999999
 20
-93.39999999999999
 30
0.0
 40
0.6000000000000175
  0
CIRCLE
  5
13E
  8
0
 10
62.50000000000001
 20
-31.29999999999998
 30
0.0
 40
0.6000000000000034
  0
CIRCLE
  5
13F
  8
0
 10
46.50000000000001
 20
-73.39999999999999
 30
0.0
 40
0.6000000000000034
  0
CIRCLE
  5
140
  8
0
 10
46.50000000000001
 20
-33.39999999999998
 30
0.0
 40
0.6000000000000034
  0
CIRCLE
  5
141
  8
0
 10
46.50000000000001
 20
-93.39999999999999
 30
0.0
 40
0.6000000000000034
  0
CIRCLE
  5
142
  8
0
 10
25.50000000000001
 20
-53.39999999999999
 30
0.0
 40
0.6000000000000014
  0
CIRCLE
  5
143
  8
0
 10
25.50000000000001
 20
-33.39999999999998
 30
0.0
 40
0.6
  0
CIRCLE
  5
144
  8
0
 10
25.50000000000001
 20
-73.39999999999999
 30
0.0
 40
0.6000000000000014
  0
CIRCLE
  5
145
  8
0
 10
41.50000000000001
 20
-31.29999999999998
 30
0.0
 40
0.5999999999999964
  0
CIRCLE
  5
146
  8
0
 10
25.50000000000001
 20
-93.39999999999999
 30
0.0
 40
0.599999999999998
  0
CIRCLE
  5
147
  8
0
 10
41.50000000000001
 20
-51.29999999999998
 30
0.0
 40
0.5999999999999964
  0
CIRCLE
  5
148
  8
0
 10
86.99976144911771
 20
-35.12
 30
0.0
 40
0.5000000000000003
  0
CIRCLE
  5
149
  8
0
 10
94.61976144911775
 20
-35.12
 30
0.0
 40
0.5000000000000003
  0
CIRCLE
  5
14A
  8
0
 10
92.07976144911773
 20
-35.12
 30
0.0
 40
0.5000000000000003
  0
CIRCLE
  5
14B
  8
0
 10
76.83976144911772
 20
-35.11999999999999
 30
0.0
 40
0.5000000000000003
  0
CIRCLE
  5
14C
  8
0
 10
94.61976144911775
 20
-19.87999999999999
 30
0.0
 40
0.4999999999999937
  0
CIRCLE
  5
14D
  8
0
 10
66.67976144911772
 20
-35.11999999999999
 30
0.0
 40
0.5000000000000003
  0
CIRCLE
  5
14E
  8
0
 10
71.75976144911773
 20
-35.11999999999999
 30
0.0
 40
0.4999999999999934
  0
CIRCLE
  5
14F
  8
0
 10
74.29976144911772
 20
-19.87999999999999
 30
0.0
 40
0.4999999999999836
  0
CIRCLE
  5
150
  8
0
 10
89.5397614491177
 20
-19.87999999999999
 30
0.0
 40
0.4999999999999923
  0
CIRCLE
  5
151
  8
0
 10
84.45976144911772
 20
-19.87999999999999
 30
0.0
 40
0.4999999999999882
  0
CIRCLE
  5
152
  8
0
 10
76.83976144911772
 20
-19.87999999999999
 30
0.0
 40
0.4999999999999855
  0
CIRCLE
  5
153
  8
0
 10
69.21976144911773
 20
-19.87999999999999
 30
0.0
 40
0.4999999999999802
  0
LINE
  5
154
  8
0
 10
100.0
 20
-94.0
 30
0.0
 11
100.0
 21
-17.00000000000003
 31
0.0
  0
ARC
  5
155
  8
0
 10
95.00000000000004
 20
-94.0
 30
0.0
 40
5.0
 50
270.0
 51
0.0000000000001628
  0
LINE
  5
156
  8
0
 10
14.99999999999979
 20
-99.0
 30
0.0
 11
95.00000000000004
 21
-99.0
 31
0.0
  0
CIRCLE
  5
157
  8
0
 10
66.67976144911772
 20
-19.87999999999999
 30
0.0
 40
0.4999999999999796
  0
CIRCLE
  5
158
  8
0
 10
71.75976144911773
 20
-19.87999999999999
 30
0.0
 40
0.4999999999999816
  0
CIRCLE
  5
159
  8
0
 10
79.37976144911771
 20
-19.87999999999999
 30
0.0
 40
0.499999999999987
  0
CIRCLE
  5
15A
  8
0
 10
86.99976144911771
 20
-19.87999999999999
 30
0.0
 40
0.499999999999991
  0
CIRCLE
  5
15B
  8
0
 10
81.91976144911773
 20
-19.87999999999999
 30
0.0
 40
0.499999999999987
  0
CIRCLE
  5
15C
  8
0
 10
69.21976144911773
 20
-35.11999999999999
 30
0.0
 40
0.4999999999999934
  0
CIRCLE
  5
15D
  8
0
 10
89.5397614491177
 20
-35.12
 30
0.0
 40
0.5000000000000003
  0
CIRCLE
  5
15E
  8
0
 10
84.45976144911772
 20
-35.11999999999999
 30
0.0
 40
0.5000000000000003
  0
CIRCLE
  5
15F
  8
0
 10
92.07976144911773
 20
-19.87999999999999
 30
0.0
 40
0.4999999999999937
  0
CIRCLE
  5
160
  8
0
 10
79.37976144911771
 20
-35.11999999999999
 30
0.0
 40
0.5000000000000003
  0
CIRCLE
  5
161
  8
0
 10
74.29976144911772
 20
-35.11999999999999
 30
0.0
 40
0.5000000000000003
  0
CIRCLE
  5
162
  8
0
 10
81.91976144911773
 20
-35.11999999999999
 30
0.0
 40
0.5000000000000003
  0
CIRCLE
  5
163
  8
0
 10
67.50000000000004
 20
-93.39999999999999
 30
0.0
 40
0.5999999999999825
  0
CIRCLE
  5
164
  8
0
 10
20.50000000000001
 20
-91.29999999999998
 30
0.0
 40
0.599999999999998
  0
CIRCLE
  5
165
  8
0
 10
41.50000000000001
 20
-71.29999999999998
 30
0.0
 40
0.6
  0
CIRCLE
  5
166
  8
0
 10
41.50000000000001
 20
-91.29999999999998
 30
0.0
 40
0.6
  0
CIRCLE
  5
167
  8
0
 10
20.50000000000001
 20
-31.29999999999997
 30
0.0
 40
0.6
  0
CIRCLE
  5
168
  8
0
 10
20.50000000000001
 20
-51.29999999999998
 30
0.0
 40
0.600000000000001
  0
CIRCLE
  5
169
  8
0
 10
20.50000000000001
 20
-71.29999999999998
 30
0.0
 40
0.6000000000000024
  0
CIRCLE
  5
16A
  8
0
 10
62.50000000000001
 20
-51.29999999999998
 30
0.0
 40
0.6000000000000034
  0
CIRCLE
  5
16B
  8
0
 10
62.50000000000001
 20
-71.29999999999998
 30
0.0
 40
0.6000000000000034
  0
CIRCLE
  5
16C
  8
0
 10
46.50000000000001
 20
-53.39999999999999
 30
0.0
 40
0.6000000000000034
  0
CIRCLE
  5
16D
  8
0
 10
62.50000000000001
 20
-91.29999999999998
 30
0.0
 40
0.6000000000000034
  0
CIRCLE
  5
16E
  8
0
 10
83.5
 20
-31.29999999999998
 30
0.0
 40
0.6000000000000175
  0
CIRCLE
  5
16F
  8
0
 10
83.5
 20
-71.29999999999998
 30
0.0
 40
0.6000000000000175
  0
CIRCLE
  5
170
  8
0
 10
67.5
 20
-33.39999999999998
 30
0.0
 40
0.6000000000000175
  0
CIRCLE
  5
171
  8
0
 10
88.49999999999999
 20
-53.39999999999999
 30
0.0
 40
0.6000000000000175
  0
CIRCLE
  5
172
  8
0
 10
67.5
 20
-53.39999999999999
 30
0.0
 40
0.6000000000000175
  0
CIRCLE
  5
173
  8
0
 10
94.00000000000001
 20
-87.5
 30
0.0
 40
0.9499999999999784
  0
CIRCLE
  5
174
  8
0
 10
94.00000000000001
 20
-67.50000000000001
 30
0.0
 40
0.9499999999999784
  0
CIRCLE
  5
175
  8
0
 10
31.00000000000001
 20
-67.5
 30
0.0
 40
0.9499999999999958
  0
CIRCLE
  5
176
  8
0
 10
31.0
 20
-87.5
 30
0.0
 40
0.9499999999999958
  0
CIRCLE
  5
177
  8
0
 10
41.00000000000001
 20
-27.49999999999999
 30
0.0
 40
0.9499999999999994
  0
CIRCLE
  5
178
  8
0
 10
20.00000000000001
 20
-67.5
 30
0.0
 40
0.9499999999999975
  0
CIRCLE
  5
179
  8
0
 10
62.00000000000001
 20
-87.5
 30
0.0
 40
0.9499999999999994
  0
CIRCLE
  5
17A
  8
0
 10
41.00000000000001
 20
-87.5
 30
0.0
 40
0.9499999999999994
  0
CIRCLE
  5
17B
  8
0
 10
52.0
 20
-67.5
 30
0.0
 40
0.9499999999999994
  0
CIRCLE
  5
17C
  8
0
 10
62.00000000000001
 20
-47.49999999999999
 30
0.0
 40
0.9499999999999994
  0
CIRCLE
  5
17D
  8
0
 10
41.00000000000001
 20
-47.49999999999999
 30
0.0
 40
0.9499999999999994
  0
CIRCLE
  5
17E
  8
0
 10
20.00000000000001
 20
-47.49999999999999
 30
0.0
 40
0.950000000000001
  0
CIRCLE
  5
17F
  8
0
 10
72.99999999999999
 20
-67.50000000000001
 30
0.0
 40
0.9500000000000065
  0
CIRCLE
  5
180
  8
0
 10
73.0
 20
-27.49999999999999
 30
0.0
 40
0.9500000000000065
  0
CIRCLE
  5
181
  8
0
 10
82.99999999999999
 20
-87.5
 30
0.0
 40
0.9500000000000204
  0
CIRCLE
  5
182
  8
0
 10
83.0
 20
-47.49999999999999
 30
0.0
 40
0.9500000000000204
  0
CIRCLE
  5
183
  8
0
 10
25.50000000000001
 20
-27.49999999999999
 30
0.0
 40
1.7
  0
CIRCLE
  5
184
  8
0
 10
25.50000000000001
 20
-87.5
 30
0.0
 40
1.699999999999998
  0
CIRCLE
  5
185
  8
0
 10
46.50000000000001
 20
-67.5
 30
0.0
 40
1.7
  0
CIRCLE
  5
186
  8
0
 10
25.50000000000001
 20
-67.5
 30
0.0
 40
1.700000000000002
  0
CIRCLE
  5
187
  8
0
 10
88.49999999999999
 20
-87.5
 30
0.0
 40
1.700000000000007
  0
CIRCLE
  5
188
  8
0
 10
67.5
 20
-67.5
 30
0.0
 40
1.700000000000007
  0
CIRCLE
  5
189
  8
0
 10
67.5
 20
-47.49999999999999
 30
0.0
 40
1.700000000000007
  0
CIRCLE
  5
18A
  8
0
 10
67.5
 20
-27.49999999999999
 30
0.0
 40
1.700000000000007
  0
CIRCLE
  5
18B
  8
0
 10
67.5
 20
-107.5
 30
0.0
 40
1.700000000000014
  0
CIRCLE
  5
18C
  8
0
 10
46.5
 20
-107.5
 30
0.0
 40
1.7
  0
CIRCLE
  5
18D
  8
0
 10
73.0
 20
-107.5
 30
0.0
 40
0.9500000000000134
  0
CIRCLE
  5
18E
  8
0
 10
52.0
 20
-107.5
 30
0.0
 40
0.9499999999999994
  0
CIRCLE
  5
18F
  8
0
 10
20.00000000000001
 20
-107.5
 30
0.0
 40
0.9499999999999984
  0
CIRCLE
  5
190
  8
0
 10
83.5
 20
-111.3
 30
0.0
 40
0.6000000000000175
  0
CIRCLE
  5
191
  8
0
 10
88.5
 20
-113.4
 30
0.0
 40
0.6000000000000175
  0
CIRCLE
  5
192
  8
0
 10
46.5
 20
-113.4
 30
0.0
 40
0.6000000000000034
  0
CIRCLE
  5
193
  8
0
 10
25.50000000000001
 20
-113.4
 30
0.0
 40
0.599999999999998
  0
LINE
  5
194
  8
0
 10
100.0
 20
-114.0
 30
0.0
 11
100.0
 21
-94.0
 31
0.0
  0
ARC
  5
195
  8
0
 10
95.00000000000006
 20
-114.0
 30
0.0
 40
5.0
 50
270.0
 51
0.0000000000001628
  0
LINE
  5
196
  8
0
 10
14.9999999999998
 20
-119.0
 30
0.0
 11
95.00000000000006
 21
-119.0
 31
0.0
  0
CIRCLE
  5
197
  8
0
 10
67.50000000000006
 20
-113.4
 30
0.0
 40
0.5999999999999825
  0
CIRCLE
  5
198
  8
0
 10
20.50000000000001
 20
-111.3
 30
0.0
 40
0.599999999999998
  0
CIRCLE
  5
199
  8
0
 10
41.5
 20
-111.3
 30
0.0
 40
0.6
  0
CIRCLE
  5
19A
  8
0
 10
62.5
 20
-111.3
 30
0.0
 40
0.6000000000000034
  0
CIRCLE
  5
19B
  8
0
 10
94.0
 20
-107.5
 30
0.0
 40
0.9499999999999784
  0
CIRCLE
  5
19C
  8
0
 10
31.0
 20
-107.5
 30
0.0
 40
0.9499999999999958
  0
CIRCLE
  5
19D
  8
0
 10
62.0
 20
-107.5
 30
0.0
 40
0.9499999999999994
  0
CIRCLE
  5
19E
  8
0
 10
41.0
 20
-107.5
 30
0.0
 40
0.9499999999999994
  0
CIRCLE
  5
19F
  8
0
 10
83.0
 20
-107.5
 30
0.0
 40
0.9500000000000204
  0
CIRCLE
  5
1A0
  8
0
 10
25.50000000000001
 20
-107.5
 30
0.0
 40
1.699999999999998
  0
CIRCLE
  5
1A1
  8
0
 10
88.5
 20
-107.5
 30
0.0
 40
1.700000000000007
  0
CIRCLE
  5
1A2
  8
0
 10
25.50000000000001
 20
-93.39999999999999
 30
0.0
 40
0.6000000000000014
  0
CIRCLE
  5
1A3
  8
0
 10
20.50000000000001
 20
-91.29999999999998
 30
0.0
 40
0.6000000000000024
  0
CIRCLE
  5
1A4
  8
0
 10
31.00000000000001
 20
-87.5
 30
0.0
 40
0.9499999999999958
  0
CIRCLE
  5
1A5
  8
0
 10
20.00000000000001
 20
-87.5
 30
0.0
 40
0.9499999999999975
  0
CIRCLE
  5
1A6
  8
0
 10
25.50000000000001
 20
-87.5
 30
0.0
 40
1.700000000000002
  0
LINE
  5
1A7
  8
THICK_SOLID_LAYER
 10
14.9999999999998
 20
-119.0
 30
0.0
 11
14.99999999999979
 21
-99.0
 31
0.0
  0
CIRCLE
  5
1A8
  8
THICK_SOLID_LAYER
 10
13.99999999999986
 20
-89.30000000000004
 30
0.0
 40
0.25
  0
CIRCLE
  5
1A9
  8
THICK_SOLID_LAYER
 10
13.99999999999987
 20
-90.10000000000004
 30
0.0
 40
0.25
  0
CIRCLE
  5
1AA
  8
THICK_SOLID_LAYER
 10
13.99999999999987
 20
-90.90000000000003
 30
0.0
 40
0.25
  0
CIRCLE
  5
1AB
  8
THICK_SOLID_LAYER
 10
13.99999999999989
 20
-91.70000000000003
 30
0.0
 40
0.25
  0
CIRCLE
  5
1AC
  8
THICK_SOLID_LAYER
 10
89.69999999999993
 20
-15.99999999999997
 30
0.0
 40
0.25
  0
CIRCLE
  5
1AD
  8
THICK_SOLID_LAYER
 10
88.89999999999993
 20
-15.99999999999999
 30
0.0
 40
0.25
  0
CIRCLE
  5
1AE
  8
THICK_SOLID_LAYER
 10
88.09999999999994
 20
-15.99999999999998
 30
0.0
 40
0.25
  0
CIRCLE
  5
1AF
  8
THICK_SOLID_LAYER
 10
87.29999999999994
 20
-16.0
 30
0.0
 40
0.25
  0
ENDSEC
  0
EOF
