G04 #@! TF.GenerationSoftware,KiCad,Pcbnew,(5.1.0)-1*
G04 #@! TF.CreationDate,2019-03-23T00:22:17+01:00*
G04 #@! TF.ProjectId,Schematic2,53636865-6d61-4746-9963-322e6b696361,rev?*
G04 #@! TF.SameCoordinates,Original*
G04 #@! TF.FileFunction,Legend,Bot*
G04 #@! TF.FilePolarity,Positive*
%FSLAX46Y46*%
G04 Gerber Fmt 4.6, Leading zero omitted, Abs format (unit mm)*
G04 Created by KiCad (PCBNEW (5.1.0)-1) date 2019-03-23 00:22:17*
%MOMM*%
%LPD*%
G04 APERTURE LIST*
%ADD10C,0.010000*%
%ADD11C,0.381000*%
%ADD12C,0.203200*%
G04 APERTURE END LIST*
D10*
G36*
X84852049Y-138530715D02*
G01*
X84878333Y-138895666D01*
X85608237Y-138948236D01*
X85581952Y-138583284D01*
X85555667Y-138218333D01*
X85190715Y-138192048D01*
X84825764Y-138165763D01*
X84852049Y-138530715D01*
X84852049Y-138530715D01*
G37*
X84852049Y-138530715D02*
X84878333Y-138895666D01*
X85608237Y-138948236D01*
X85581952Y-138583284D01*
X85555667Y-138218333D01*
X85190715Y-138192048D01*
X84825764Y-138165763D01*
X84852049Y-138530715D01*
G36*
X118448667Y-64558333D02*
G01*
X118491000Y-64600666D01*
X118533333Y-64558333D01*
X118491000Y-64516000D01*
X118448667Y-64558333D01*
X118448667Y-64558333D01*
G37*
X118448667Y-64558333D02*
X118491000Y-64600666D01*
X118533333Y-64558333D01*
X118491000Y-64516000D01*
X118448667Y-64558333D01*
G36*
X74713329Y-68249108D02*
G01*
X74310057Y-68483405D01*
X73958651Y-68690252D01*
X73685288Y-68854029D01*
X73516143Y-68959116D01*
X73474839Y-68988189D01*
X73526882Y-69043523D01*
X73698119Y-69164340D01*
X73959891Y-69333579D01*
X74283540Y-69534177D01*
X74640407Y-69749072D01*
X75001836Y-69961202D01*
X75339167Y-70153505D01*
X75623743Y-70308918D01*
X75826906Y-70410378D01*
X75915805Y-70441483D01*
X76011212Y-70400431D01*
X76224326Y-70288372D01*
X76527173Y-70120616D01*
X76891780Y-69912477D01*
X77046667Y-69822500D01*
X77437964Y-69594344D01*
X77787437Y-69391063D01*
X78063894Y-69230764D01*
X78236145Y-69131553D01*
X78265794Y-69114751D01*
X78324037Y-69064064D01*
X78307219Y-68999771D01*
X78195754Y-68903757D01*
X77970053Y-68757904D01*
X77715461Y-68605755D01*
X77323341Y-68376703D01*
X76906700Y-68136539D01*
X76539351Y-67927730D01*
X76448996Y-67877106D01*
X75893659Y-67567503D01*
X74713329Y-68249108D01*
X74713329Y-68249108D01*
G37*
X74713329Y-68249108D02*
X74310057Y-68483405D01*
X73958651Y-68690252D01*
X73685288Y-68854029D01*
X73516143Y-68959116D01*
X73474839Y-68988189D01*
X73526882Y-69043523D01*
X73698119Y-69164340D01*
X73959891Y-69333579D01*
X74283540Y-69534177D01*
X74640407Y-69749072D01*
X75001836Y-69961202D01*
X75339167Y-70153505D01*
X75623743Y-70308918D01*
X75826906Y-70410378D01*
X75915805Y-70441483D01*
X76011212Y-70400431D01*
X76224326Y-70288372D01*
X76527173Y-70120616D01*
X76891780Y-69912477D01*
X77046667Y-69822500D01*
X77437964Y-69594344D01*
X77787437Y-69391063D01*
X78063894Y-69230764D01*
X78236145Y-69131553D01*
X78265794Y-69114751D01*
X78324037Y-69064064D01*
X78307219Y-68999771D01*
X78195754Y-68903757D01*
X77970053Y-68757904D01*
X77715461Y-68605755D01*
X77323341Y-68376703D01*
X76906700Y-68136539D01*
X76539351Y-67927730D01*
X76448996Y-67877106D01*
X75893659Y-67567503D01*
X74713329Y-68249108D01*
G36*
X109382230Y-68279946D02*
G01*
X109151994Y-68385858D01*
X108830408Y-68544178D01*
X108445818Y-68740016D01*
X108026575Y-68958482D01*
X107601027Y-69184683D01*
X107197523Y-69403731D01*
X106844412Y-69600733D01*
X106570044Y-69760800D01*
X106427623Y-69851336D01*
X106326304Y-69929484D01*
X106311497Y-69996716D01*
X106400208Y-70089416D01*
X106609440Y-70243970D01*
X106611974Y-70245790D01*
X106982535Y-70511906D01*
X108370808Y-69719326D01*
X108812115Y-69462658D01*
X109203748Y-69225940D01*
X109521139Y-69024748D01*
X109739717Y-68874656D01*
X109834913Y-68791240D01*
X109834962Y-68791154D01*
X109848213Y-68618207D01*
X109759520Y-68424727D01*
X109611246Y-68278778D01*
X109492765Y-68241333D01*
X109382230Y-68279946D01*
X109382230Y-68279946D01*
G37*
X109382230Y-68279946D02*
X109151994Y-68385858D01*
X108830408Y-68544178D01*
X108445818Y-68740016D01*
X108026575Y-68958482D01*
X107601027Y-69184683D01*
X107197523Y-69403731D01*
X106844412Y-69600733D01*
X106570044Y-69760800D01*
X106427623Y-69851336D01*
X106326304Y-69929484D01*
X106311497Y-69996716D01*
X106400208Y-70089416D01*
X106609440Y-70243970D01*
X106611974Y-70245790D01*
X106982535Y-70511906D01*
X108370808Y-69719326D01*
X108812115Y-69462658D01*
X109203748Y-69225940D01*
X109521139Y-69024748D01*
X109739717Y-68874656D01*
X109834913Y-68791240D01*
X109834962Y-68791154D01*
X109848213Y-68618207D01*
X109759520Y-68424727D01*
X109611246Y-68278778D01*
X109492765Y-68241333D01*
X109382230Y-68279946D01*
G36*
X106912126Y-67278074D02*
G01*
X106375012Y-67556944D01*
X105733101Y-67904727D01*
X105024688Y-68299789D01*
X104288066Y-68720497D01*
X103561531Y-69145216D01*
X102883375Y-69552312D01*
X102844824Y-69575850D01*
X101676648Y-70289845D01*
X101998157Y-70533234D01*
X102204764Y-70675903D01*
X102361967Y-70760083D01*
X102404333Y-70770224D01*
X102494701Y-70727751D01*
X102714536Y-70609701D01*
X103046909Y-70425591D01*
X103474892Y-70184941D01*
X103981553Y-69897269D01*
X104549964Y-69572094D01*
X105156000Y-69223091D01*
X105886994Y-68799777D01*
X106482465Y-68450877D01*
X106953994Y-68166936D01*
X107313160Y-67938496D01*
X107571545Y-67756100D01*
X107740727Y-67610292D01*
X107832288Y-67491615D01*
X107857807Y-67390611D01*
X107828866Y-67297824D01*
X107757043Y-67203797D01*
X107700499Y-67145165D01*
X107525251Y-66969917D01*
X106912126Y-67278074D01*
X106912126Y-67278074D01*
G37*
X106912126Y-67278074D02*
X106375012Y-67556944D01*
X105733101Y-67904727D01*
X105024688Y-68299789D01*
X104288066Y-68720497D01*
X103561531Y-69145216D01*
X102883375Y-69552312D01*
X102844824Y-69575850D01*
X101676648Y-70289845D01*
X101998157Y-70533234D01*
X102204764Y-70675903D01*
X102361967Y-70760083D01*
X102404333Y-70770224D01*
X102494701Y-70727751D01*
X102714536Y-70609701D01*
X103046909Y-70425591D01*
X103474892Y-70184941D01*
X103981553Y-69897269D01*
X104549964Y-69572094D01*
X105156000Y-69223091D01*
X105886994Y-68799777D01*
X106482465Y-68450877D01*
X106953994Y-68166936D01*
X107313160Y-67938496D01*
X107571545Y-67756100D01*
X107740727Y-67610292D01*
X107832288Y-67491615D01*
X107857807Y-67390611D01*
X107828866Y-67297824D01*
X107757043Y-67203797D01*
X107700499Y-67145165D01*
X107525251Y-66969917D01*
X106912126Y-67278074D01*
G36*
X113740738Y-70972454D02*
G01*
X113464147Y-71094069D01*
X113226878Y-71215003D01*
X112816287Y-71433699D01*
X112364898Y-71679067D01*
X111897095Y-71937297D01*
X111437261Y-72194579D01*
X111009779Y-72437101D01*
X110639032Y-72651053D01*
X110349403Y-72822625D01*
X110165275Y-72938007D01*
X110110614Y-72980055D01*
X110149097Y-73059499D01*
X110289004Y-73182902D01*
X110481181Y-73316755D01*
X110676479Y-73427552D01*
X110825744Y-73481784D01*
X110848018Y-73482762D01*
X110950932Y-73439670D01*
X111176524Y-73323863D01*
X111501303Y-73148110D01*
X111901778Y-72925183D01*
X112354455Y-72667852D01*
X112479667Y-72595810D01*
X112946875Y-72322090D01*
X113370007Y-72066212D01*
X113724586Y-71843617D01*
X113986138Y-71669750D01*
X114130188Y-71560053D01*
X114143988Y-71545691D01*
X114239737Y-71319595D01*
X114193938Y-71096210D01*
X114041803Y-70948420D01*
X113923447Y-70927124D01*
X113740738Y-70972454D01*
X113740738Y-70972454D01*
G37*
X113740738Y-70972454D02*
X113464147Y-71094069D01*
X113226878Y-71215003D01*
X112816287Y-71433699D01*
X112364898Y-71679067D01*
X111897095Y-71937297D01*
X111437261Y-72194579D01*
X111009779Y-72437101D01*
X110639032Y-72651053D01*
X110349403Y-72822625D01*
X110165275Y-72938007D01*
X110110614Y-72980055D01*
X110149097Y-73059499D01*
X110289004Y-73182902D01*
X110481181Y-73316755D01*
X110676479Y-73427552D01*
X110825744Y-73481784D01*
X110848018Y-73482762D01*
X110950932Y-73439670D01*
X111176524Y-73323863D01*
X111501303Y-73148110D01*
X111901778Y-72925183D01*
X112354455Y-72667852D01*
X112479667Y-72595810D01*
X112946875Y-72322090D01*
X113370007Y-72066212D01*
X113724586Y-71843617D01*
X113986138Y-71669750D01*
X114130188Y-71560053D01*
X114143988Y-71545691D01*
X114239737Y-71319595D01*
X114193938Y-71096210D01*
X114041803Y-70948420D01*
X113923447Y-70927124D01*
X113740738Y-70972454D01*
G36*
X72812871Y-69565133D02*
G01*
X72754721Y-69653920D01*
X72622839Y-69871492D01*
X72427850Y-70199808D01*
X72180377Y-70620827D01*
X71891044Y-71116508D01*
X71570475Y-71668810D01*
X71377477Y-72002681D01*
X70989305Y-72678421D01*
X70681492Y-73222486D01*
X70447175Y-73648343D01*
X70279493Y-73969459D01*
X70171583Y-74199301D01*
X70116582Y-74351335D01*
X70107628Y-74439029D01*
X70121872Y-74466706D01*
X70236846Y-74547553D01*
X70462172Y-74687867D01*
X70767082Y-74870053D01*
X71120805Y-75076517D01*
X71492572Y-75289664D01*
X71851613Y-75491900D01*
X72167159Y-75665630D01*
X72408439Y-75793261D01*
X72544684Y-75857197D01*
X72560844Y-75861333D01*
X72636184Y-75793146D01*
X72767777Y-75612423D01*
X72930124Y-75354919D01*
X72968412Y-75289833D01*
X73361150Y-74612807D01*
X73745568Y-73948755D01*
X74112490Y-73313645D01*
X74452738Y-72723445D01*
X74757132Y-72194123D01*
X75016495Y-71741647D01*
X75221649Y-71381986D01*
X75363417Y-71131107D01*
X75432619Y-71004978D01*
X75438000Y-70993199D01*
X75367962Y-70931036D01*
X75177326Y-70808533D01*
X74895309Y-70641583D01*
X74551127Y-70446080D01*
X74173997Y-70237917D01*
X73793136Y-70032990D01*
X73437760Y-69847190D01*
X73137085Y-69696413D01*
X72920330Y-69596552D01*
X72816710Y-69563500D01*
X72812871Y-69565133D01*
X72812871Y-69565133D01*
G37*
X72812871Y-69565133D02*
X72754721Y-69653920D01*
X72622839Y-69871492D01*
X72427850Y-70199808D01*
X72180377Y-70620827D01*
X71891044Y-71116508D01*
X71570475Y-71668810D01*
X71377477Y-72002681D01*
X70989305Y-72678421D01*
X70681492Y-73222486D01*
X70447175Y-73648343D01*
X70279493Y-73969459D01*
X70171583Y-74199301D01*
X70116582Y-74351335D01*
X70107628Y-74439029D01*
X70121872Y-74466706D01*
X70236846Y-74547553D01*
X70462172Y-74687867D01*
X70767082Y-74870053D01*
X71120805Y-75076517D01*
X71492572Y-75289664D01*
X71851613Y-75491900D01*
X72167159Y-75665630D01*
X72408439Y-75793261D01*
X72544684Y-75857197D01*
X72560844Y-75861333D01*
X72636184Y-75793146D01*
X72767777Y-75612423D01*
X72930124Y-75354919D01*
X72968412Y-75289833D01*
X73361150Y-74612807D01*
X73745568Y-73948755D01*
X74112490Y-73313645D01*
X74452738Y-72723445D01*
X74757132Y-72194123D01*
X75016495Y-71741647D01*
X75221649Y-71381986D01*
X75363417Y-71131107D01*
X75432619Y-71004978D01*
X75438000Y-70993199D01*
X75367962Y-70931036D01*
X75177326Y-70808533D01*
X74895309Y-70641583D01*
X74551127Y-70446080D01*
X74173997Y-70237917D01*
X73793136Y-70032990D01*
X73437760Y-69847190D01*
X73137085Y-69696413D01*
X72920330Y-69596552D01*
X72816710Y-69563500D01*
X72812871Y-69565133D01*
G36*
X55580041Y-68260254D02*
G01*
X55174218Y-68496181D01*
X54825296Y-68704805D01*
X54557573Y-68871124D01*
X54395349Y-68980139D01*
X54357509Y-69014869D01*
X54428585Y-69066981D01*
X54633600Y-69195088D01*
X54959259Y-69391541D01*
X55392266Y-69648690D01*
X55919328Y-69958887D01*
X56527151Y-70314483D01*
X57202438Y-70707828D01*
X57931897Y-71131274D01*
X58702232Y-71577171D01*
X59500149Y-72037871D01*
X60312353Y-72505724D01*
X61125550Y-72973081D01*
X61926445Y-73432293D01*
X62701745Y-73875711D01*
X63438153Y-74295685D01*
X64122376Y-74684568D01*
X64741120Y-75034710D01*
X65281089Y-75338461D01*
X65728989Y-75588173D01*
X66071526Y-75776196D01*
X66295405Y-75894882D01*
X66387332Y-75936581D01*
X66387818Y-75936572D01*
X66498216Y-75892381D01*
X66726442Y-75776489D01*
X67044797Y-75603777D01*
X67425584Y-75389127D01*
X67673400Y-75245872D01*
X68063332Y-75012213D01*
X68389582Y-74804830D01*
X68629201Y-74639293D01*
X68759239Y-74531177D01*
X68774067Y-74499008D01*
X68691970Y-74447450D01*
X68474229Y-74317775D01*
X68131910Y-74116420D01*
X67676078Y-73849825D01*
X67117800Y-73524427D01*
X66468143Y-73146666D01*
X65738171Y-72722979D01*
X64938953Y-72259806D01*
X64081553Y-71763584D01*
X63177038Y-71240753D01*
X62754032Y-70996462D01*
X56801064Y-67559508D01*
X55580041Y-68260254D01*
X55580041Y-68260254D01*
G37*
X55580041Y-68260254D02*
X55174218Y-68496181D01*
X54825296Y-68704805D01*
X54557573Y-68871124D01*
X54395349Y-68980139D01*
X54357509Y-69014869D01*
X54428585Y-69066981D01*
X54633600Y-69195088D01*
X54959259Y-69391541D01*
X55392266Y-69648690D01*
X55919328Y-69958887D01*
X56527151Y-70314483D01*
X57202438Y-70707828D01*
X57931897Y-71131274D01*
X58702232Y-71577171D01*
X59500149Y-72037871D01*
X60312353Y-72505724D01*
X61125550Y-72973081D01*
X61926445Y-73432293D01*
X62701745Y-73875711D01*
X63438153Y-74295685D01*
X64122376Y-74684568D01*
X64741120Y-75034710D01*
X65281089Y-75338461D01*
X65728989Y-75588173D01*
X66071526Y-75776196D01*
X66295405Y-75894882D01*
X66387332Y-75936581D01*
X66387818Y-75936572D01*
X66498216Y-75892381D01*
X66726442Y-75776489D01*
X67044797Y-75603777D01*
X67425584Y-75389127D01*
X67673400Y-75245872D01*
X68063332Y-75012213D01*
X68389582Y-74804830D01*
X68629201Y-74639293D01*
X68759239Y-74531177D01*
X68774067Y-74499008D01*
X68691970Y-74447450D01*
X68474229Y-74317775D01*
X68131910Y-74116420D01*
X67676078Y-73849825D01*
X67117800Y-73524427D01*
X66468143Y-73146666D01*
X65738171Y-72722979D01*
X64938953Y-72259806D01*
X64081553Y-71763584D01*
X63177038Y-71240753D01*
X62754032Y-70996462D01*
X56801064Y-67559508D01*
X55580041Y-68260254D01*
G36*
X100561197Y-70989777D02*
G01*
X100340693Y-71093201D01*
X100061632Y-71240076D01*
X100009903Y-71268772D01*
X99681005Y-71451077D01*
X99362026Y-71625235D01*
X99121158Y-71754020D01*
X99118125Y-71755605D01*
X98632571Y-72064813D01*
X98255647Y-72444254D01*
X97953347Y-72912818D01*
X97663000Y-73448333D01*
X97635180Y-74988384D01*
X97607360Y-76528436D01*
X97949307Y-76702884D01*
X98174819Y-76808670D01*
X98341994Y-76870621D01*
X98379294Y-76877333D01*
X98415156Y-76793477D01*
X98441880Y-76544689D01*
X98459221Y-76135134D01*
X98466933Y-75568980D01*
X98467333Y-75380064D01*
X98469323Y-74825754D01*
X98477057Y-74411539D01*
X98493186Y-74108213D01*
X98520359Y-73886566D01*
X98561225Y-73717389D01*
X98618433Y-73571474D01*
X98634463Y-73537552D01*
X98927516Y-73097967D01*
X99384052Y-72648153D01*
X99998875Y-72192730D01*
X100483491Y-71894406D01*
X101356649Y-71390739D01*
X101068166Y-71170703D01*
X100866946Y-71033931D01*
X100711120Y-70956898D01*
X100679245Y-70950666D01*
X100561197Y-70989777D01*
X100561197Y-70989777D01*
G37*
X100561197Y-70989777D02*
X100340693Y-71093201D01*
X100061632Y-71240076D01*
X100009903Y-71268772D01*
X99681005Y-71451077D01*
X99362026Y-71625235D01*
X99121158Y-71754020D01*
X99118125Y-71755605D01*
X98632571Y-72064813D01*
X98255647Y-72444254D01*
X97953347Y-72912818D01*
X97663000Y-73448333D01*
X97635180Y-74988384D01*
X97607360Y-76528436D01*
X97949307Y-76702884D01*
X98174819Y-76808670D01*
X98341994Y-76870621D01*
X98379294Y-76877333D01*
X98415156Y-76793477D01*
X98441880Y-76544689D01*
X98459221Y-76135134D01*
X98466933Y-75568980D01*
X98467333Y-75380064D01*
X98469323Y-74825754D01*
X98477057Y-74411539D01*
X98493186Y-74108213D01*
X98520359Y-73886566D01*
X98561225Y-73717389D01*
X98618433Y-73571474D01*
X98634463Y-73537552D01*
X98927516Y-73097967D01*
X99384052Y-72648153D01*
X99998875Y-72192730D01*
X100483491Y-71894406D01*
X101356649Y-71390739D01*
X101068166Y-71170703D01*
X100866946Y-71033931D01*
X100711120Y-70956898D01*
X100679245Y-70950666D01*
X100561197Y-70989777D01*
G36*
X111511679Y-69635913D02*
G01*
X111257543Y-69748120D01*
X110906123Y-69921320D01*
X110477287Y-70144213D01*
X109990901Y-70405499D01*
X109466834Y-70693879D01*
X108924953Y-70998051D01*
X108385126Y-71306717D01*
X107867220Y-71608575D01*
X107391104Y-71892326D01*
X106976644Y-72146669D01*
X106643709Y-72360306D01*
X106412166Y-72521934D01*
X106301882Y-72620255D01*
X106296585Y-72640091D01*
X106379639Y-72715204D01*
X106572425Y-72865789D01*
X106846139Y-73069939D01*
X107169378Y-73303891D01*
X107596098Y-73623550D01*
X107873011Y-73866346D01*
X108000849Y-74032944D01*
X108010305Y-74068969D01*
X107989419Y-74146113D01*
X107904320Y-74242309D01*
X107737543Y-74369679D01*
X107471623Y-74540343D01*
X107089093Y-74766423D01*
X106624080Y-75031010D01*
X106003619Y-75386130D01*
X105514929Y-75681279D01*
X105138129Y-75931821D01*
X104853336Y-76153119D01*
X104640667Y-76360533D01*
X104480242Y-76569428D01*
X104359247Y-76780995D01*
X104193606Y-77121367D01*
X104108582Y-77347869D01*
X104105193Y-77496091D01*
X104184462Y-77601623D01*
X104347409Y-77700057D01*
X104386187Y-77720013D01*
X104647884Y-77844207D01*
X104801879Y-77879090D01*
X104886709Y-77820721D01*
X104940911Y-77665158D01*
X104941399Y-77663216D01*
X105067683Y-77373814D01*
X105297830Y-77035730D01*
X105596413Y-76696574D01*
X105804952Y-76502730D01*
X105968753Y-76383566D01*
X106255350Y-76196427D01*
X106640055Y-75956535D01*
X107098180Y-75679116D01*
X107605037Y-75379392D01*
X107969906Y-75167748D01*
X109810145Y-74108963D01*
X108921375Y-73482314D01*
X108544843Y-73211508D01*
X108290388Y-73012808D01*
X108137595Y-72866839D01*
X108066048Y-72754223D01*
X108054803Y-72659881D01*
X108086355Y-72584822D01*
X108175638Y-72489277D01*
X108337782Y-72363166D01*
X108587918Y-72196406D01*
X108941175Y-71978917D01*
X109412685Y-71700616D01*
X110017576Y-71351423D01*
X110024333Y-71347548D01*
X110634345Y-70995303D01*
X111110383Y-70714016D01*
X111467284Y-70493832D01*
X111719881Y-70324901D01*
X111883010Y-70197369D01*
X111971505Y-70101385D01*
X111999333Y-70035839D01*
X111966106Y-69793520D01*
X111813309Y-69634437D01*
X111648663Y-69596000D01*
X111511679Y-69635913D01*
X111511679Y-69635913D01*
G37*
X111511679Y-69635913D02*
X111257543Y-69748120D01*
X110906123Y-69921320D01*
X110477287Y-70144213D01*
X109990901Y-70405499D01*
X109466834Y-70693879D01*
X108924953Y-70998051D01*
X108385126Y-71306717D01*
X107867220Y-71608575D01*
X107391104Y-71892326D01*
X106976644Y-72146669D01*
X106643709Y-72360306D01*
X106412166Y-72521934D01*
X106301882Y-72620255D01*
X106296585Y-72640091D01*
X106379639Y-72715204D01*
X106572425Y-72865789D01*
X106846139Y-73069939D01*
X107169378Y-73303891D01*
X107596098Y-73623550D01*
X107873011Y-73866346D01*
X108000849Y-74032944D01*
X108010305Y-74068969D01*
X107989419Y-74146113D01*
X107904320Y-74242309D01*
X107737543Y-74369679D01*
X107471623Y-74540343D01*
X107089093Y-74766423D01*
X106624080Y-75031010D01*
X106003619Y-75386130D01*
X105514929Y-75681279D01*
X105138129Y-75931821D01*
X104853336Y-76153119D01*
X104640667Y-76360533D01*
X104480242Y-76569428D01*
X104359247Y-76780995D01*
X104193606Y-77121367D01*
X104108582Y-77347869D01*
X104105193Y-77496091D01*
X104184462Y-77601623D01*
X104347409Y-77700057D01*
X104386187Y-77720013D01*
X104647884Y-77844207D01*
X104801879Y-77879090D01*
X104886709Y-77820721D01*
X104940911Y-77665158D01*
X104941399Y-77663216D01*
X105067683Y-77373814D01*
X105297830Y-77035730D01*
X105596413Y-76696574D01*
X105804952Y-76502730D01*
X105968753Y-76383566D01*
X106255350Y-76196427D01*
X106640055Y-75956535D01*
X107098180Y-75679116D01*
X107605037Y-75379392D01*
X107969906Y-75167748D01*
X109810145Y-74108963D01*
X108921375Y-73482314D01*
X108544843Y-73211508D01*
X108290388Y-73012808D01*
X108137595Y-72866839D01*
X108066048Y-72754223D01*
X108054803Y-72659881D01*
X108086355Y-72584822D01*
X108175638Y-72489277D01*
X108337782Y-72363166D01*
X108587918Y-72196406D01*
X108941175Y-71978917D01*
X109412685Y-71700616D01*
X110017576Y-71351423D01*
X110024333Y-71347548D01*
X110634345Y-70995303D01*
X111110383Y-70714016D01*
X111467284Y-70493832D01*
X111719881Y-70324901D01*
X111883010Y-70197369D01*
X111971505Y-70101385D01*
X111999333Y-70035839D01*
X111966106Y-69793520D01*
X111813309Y-69634437D01*
X111648663Y-69596000D01*
X111511679Y-69635913D01*
G36*
X59885704Y-76833576D02*
G01*
X59670913Y-76941871D01*
X59378343Y-77102181D01*
X59036639Y-77297449D01*
X58674448Y-77510617D01*
X58320416Y-77724628D01*
X58003187Y-77922423D01*
X57751407Y-78086946D01*
X57593722Y-78201138D01*
X57555535Y-78246440D01*
X57639498Y-78300198D01*
X57849494Y-78426176D01*
X58164690Y-78612303D01*
X58564258Y-78846508D01*
X59027364Y-79116719D01*
X59533179Y-79410867D01*
X60060871Y-79716880D01*
X60589609Y-80022687D01*
X61098563Y-80316217D01*
X61566901Y-80585399D01*
X61973792Y-80818162D01*
X62298405Y-81002436D01*
X62519910Y-81126149D01*
X62591847Y-81164836D01*
X62826693Y-81286430D01*
X62780333Y-78369654D01*
X61425667Y-77582849D01*
X60992590Y-77333537D01*
X60608401Y-77116578D01*
X60297529Y-76945426D01*
X60084404Y-76833538D01*
X59994072Y-76794355D01*
X59885704Y-76833576D01*
X59885704Y-76833576D01*
G37*
X59885704Y-76833576D02*
X59670913Y-76941871D01*
X59378343Y-77102181D01*
X59036639Y-77297449D01*
X58674448Y-77510617D01*
X58320416Y-77724628D01*
X58003187Y-77922423D01*
X57751407Y-78086946D01*
X57593722Y-78201138D01*
X57555535Y-78246440D01*
X57639498Y-78300198D01*
X57849494Y-78426176D01*
X58164690Y-78612303D01*
X58564258Y-78846508D01*
X59027364Y-79116719D01*
X59533179Y-79410867D01*
X60060871Y-79716880D01*
X60589609Y-80022687D01*
X61098563Y-80316217D01*
X61566901Y-80585399D01*
X61973792Y-80818162D01*
X62298405Y-81002436D01*
X62519910Y-81126149D01*
X62591847Y-81164836D01*
X62826693Y-81286430D01*
X62780333Y-78369654D01*
X61425667Y-77582849D01*
X60992590Y-77333537D01*
X60608401Y-77116578D01*
X60297529Y-76945426D01*
X60084404Y-76833538D01*
X59994072Y-76794355D01*
X59885704Y-76833576D01*
G36*
X87460667Y-77179714D02*
G01*
X87457552Y-77729280D01*
X87447007Y-78132276D01*
X87427234Y-78411371D01*
X87396432Y-78589236D01*
X87352804Y-78688539D01*
X87339714Y-78703714D01*
X87256472Y-78750822D01*
X87100321Y-78784654D01*
X86848594Y-78807009D01*
X86478620Y-78819687D01*
X85967729Y-78824486D01*
X85815714Y-78824666D01*
X84412667Y-78824666D01*
X84412667Y-79671333D01*
X85815714Y-79671333D01*
X86365280Y-79674448D01*
X86768276Y-79684993D01*
X87047372Y-79704766D01*
X87225237Y-79735567D01*
X87324540Y-79779196D01*
X87339714Y-79792285D01*
X87386822Y-79875528D01*
X87420654Y-80031678D01*
X87443010Y-80283406D01*
X87455688Y-80653380D01*
X87460487Y-81164271D01*
X87460667Y-81316285D01*
X87460667Y-82719333D01*
X88392000Y-82719333D01*
X88392000Y-81316285D01*
X88395115Y-80766719D01*
X88405660Y-80363723D01*
X88425433Y-80084628D01*
X88456235Y-79906763D01*
X88499863Y-79807460D01*
X88512953Y-79792285D01*
X88596195Y-79745177D01*
X88752346Y-79711345D01*
X89004073Y-79688990D01*
X89374047Y-79676312D01*
X89884938Y-79671513D01*
X90036953Y-79671333D01*
X91440000Y-79671333D01*
X91440000Y-78824666D01*
X90036953Y-78824666D01*
X89487387Y-78821551D01*
X89084391Y-78811006D01*
X88805295Y-78791233D01*
X88627430Y-78760432D01*
X88528127Y-78716803D01*
X88512953Y-78703714D01*
X88465845Y-78620471D01*
X88432013Y-78464321D01*
X88409657Y-78212593D01*
X88396979Y-77842619D01*
X88392180Y-77331728D01*
X88392000Y-77179714D01*
X88392000Y-75776666D01*
X87460667Y-75776666D01*
X87460667Y-77179714D01*
X87460667Y-77179714D01*
G37*
X87460667Y-77179714D02*
X87457552Y-77729280D01*
X87447007Y-78132276D01*
X87427234Y-78411371D01*
X87396432Y-78589236D01*
X87352804Y-78688539D01*
X87339714Y-78703714D01*
X87256472Y-78750822D01*
X87100321Y-78784654D01*
X86848594Y-78807009D01*
X86478620Y-78819687D01*
X85967729Y-78824486D01*
X85815714Y-78824666D01*
X84412667Y-78824666D01*
X84412667Y-79671333D01*
X85815714Y-79671333D01*
X86365280Y-79674448D01*
X86768276Y-79684993D01*
X87047372Y-79704766D01*
X87225237Y-79735567D01*
X87324540Y-79779196D01*
X87339714Y-79792285D01*
X87386822Y-79875528D01*
X87420654Y-80031678D01*
X87443010Y-80283406D01*
X87455688Y-80653380D01*
X87460487Y-81164271D01*
X87460667Y-81316285D01*
X87460667Y-82719333D01*
X88392000Y-82719333D01*
X88392000Y-81316285D01*
X88395115Y-80766719D01*
X88405660Y-80363723D01*
X88425433Y-80084628D01*
X88456235Y-79906763D01*
X88499863Y-79807460D01*
X88512953Y-79792285D01*
X88596195Y-79745177D01*
X88752346Y-79711345D01*
X89004073Y-79688990D01*
X89374047Y-79676312D01*
X89884938Y-79671513D01*
X90036953Y-79671333D01*
X91440000Y-79671333D01*
X91440000Y-78824666D01*
X90036953Y-78824666D01*
X89487387Y-78821551D01*
X89084391Y-78811006D01*
X88805295Y-78791233D01*
X88627430Y-78760432D01*
X88528127Y-78716803D01*
X88512953Y-78703714D01*
X88465845Y-78620471D01*
X88432013Y-78464321D01*
X88409657Y-78212593D01*
X88396979Y-77842619D01*
X88392180Y-77331728D01*
X88392000Y-77179714D01*
X88392000Y-75776666D01*
X87460667Y-75776666D01*
X87460667Y-77179714D01*
G36*
X104969908Y-70746931D02*
G01*
X104760399Y-70857386D01*
X104448335Y-71032132D01*
X104054746Y-71259270D01*
X103600663Y-71526901D01*
X103320162Y-71694612D01*
X102814337Y-71996630D01*
X102332520Y-72280703D01*
X101901893Y-72531083D01*
X101549639Y-72732020D01*
X101302940Y-72867766D01*
X101234662Y-72902871D01*
X100666505Y-73251869D01*
X100226451Y-73689000D01*
X99889697Y-74231972D01*
X99611615Y-74796836D01*
X99580077Y-76614862D01*
X99564290Y-77303549D01*
X99543309Y-77831574D01*
X99516537Y-78207547D01*
X99483376Y-78440077D01*
X99446697Y-78534731D01*
X99366656Y-78563530D01*
X99220284Y-78534671D01*
X98983757Y-78439724D01*
X98633248Y-78270255D01*
X98482761Y-78193588D01*
X97620667Y-77750602D01*
X97620667Y-80398253D01*
X97621591Y-81150343D01*
X97624931Y-81750889D01*
X97631537Y-82217672D01*
X97642260Y-82568476D01*
X97657952Y-82821081D01*
X97679462Y-82993270D01*
X97707642Y-83102825D01*
X97743342Y-83167528D01*
X97753714Y-83178952D01*
X97970813Y-83300641D01*
X98189743Y-83261585D01*
X98335533Y-83123827D01*
X98381337Y-83031924D01*
X98415546Y-82889946D01*
X98439697Y-82675283D01*
X98455331Y-82365320D01*
X98463986Y-81937446D01*
X98467199Y-81369048D01*
X98467333Y-81186861D01*
X98470267Y-80549486D01*
X98479683Y-80065375D01*
X98496508Y-79718550D01*
X98521667Y-79493034D01*
X98556086Y-79372848D01*
X98573740Y-79349758D01*
X98673182Y-79333295D01*
X98864493Y-79387014D01*
X99165584Y-79517488D01*
X99547406Y-79707089D01*
X100414667Y-80152730D01*
X100415494Y-77689532D01*
X100416142Y-76977812D01*
X100418536Y-76414072D01*
X100424153Y-75976957D01*
X100434470Y-75645113D01*
X100450961Y-75397186D01*
X100475104Y-75211822D01*
X100508375Y-75067668D01*
X100552249Y-74943368D01*
X100608202Y-74817570D01*
X100615029Y-74803000D01*
X100757344Y-74542176D01*
X100940767Y-74293025D01*
X101181343Y-74043110D01*
X101495122Y-73779998D01*
X101898151Y-73491254D01*
X102406478Y-73164445D01*
X103036152Y-72787134D01*
X103735191Y-72385414D01*
X104262432Y-72085071D01*
X104738024Y-71811352D01*
X105143006Y-71575398D01*
X105458416Y-71388347D01*
X105665295Y-71261339D01*
X105744681Y-71205514D01*
X105744976Y-71204666D01*
X105683198Y-71141431D01*
X105530296Y-71023257D01*
X105337584Y-70886776D01*
X105156375Y-70768624D01*
X105055828Y-70712664D01*
X104969908Y-70746931D01*
X104969908Y-70746931D01*
G37*
X104969908Y-70746931D02*
X104760399Y-70857386D01*
X104448335Y-71032132D01*
X104054746Y-71259270D01*
X103600663Y-71526901D01*
X103320162Y-71694612D01*
X102814337Y-71996630D01*
X102332520Y-72280703D01*
X101901893Y-72531083D01*
X101549639Y-72732020D01*
X101302940Y-72867766D01*
X101234662Y-72902871D01*
X100666505Y-73251869D01*
X100226451Y-73689000D01*
X99889697Y-74231972D01*
X99611615Y-74796836D01*
X99580077Y-76614862D01*
X99564290Y-77303549D01*
X99543309Y-77831574D01*
X99516537Y-78207547D01*
X99483376Y-78440077D01*
X99446697Y-78534731D01*
X99366656Y-78563530D01*
X99220284Y-78534671D01*
X98983757Y-78439724D01*
X98633248Y-78270255D01*
X98482761Y-78193588D01*
X97620667Y-77750602D01*
X97620667Y-80398253D01*
X97621591Y-81150343D01*
X97624931Y-81750889D01*
X97631537Y-82217672D01*
X97642260Y-82568476D01*
X97657952Y-82821081D01*
X97679462Y-82993270D01*
X97707642Y-83102825D01*
X97743342Y-83167528D01*
X97753714Y-83178952D01*
X97970813Y-83300641D01*
X98189743Y-83261585D01*
X98335533Y-83123827D01*
X98381337Y-83031924D01*
X98415546Y-82889946D01*
X98439697Y-82675283D01*
X98455331Y-82365320D01*
X98463986Y-81937446D01*
X98467199Y-81369048D01*
X98467333Y-81186861D01*
X98470267Y-80549486D01*
X98479683Y-80065375D01*
X98496508Y-79718550D01*
X98521667Y-79493034D01*
X98556086Y-79372848D01*
X98573740Y-79349758D01*
X98673182Y-79333295D01*
X98864493Y-79387014D01*
X99165584Y-79517488D01*
X99547406Y-79707089D01*
X100414667Y-80152730D01*
X100415494Y-77689532D01*
X100416142Y-76977812D01*
X100418536Y-76414072D01*
X100424153Y-75976957D01*
X100434470Y-75645113D01*
X100450961Y-75397186D01*
X100475104Y-75211822D01*
X100508375Y-75067668D01*
X100552249Y-74943368D01*
X100608202Y-74817570D01*
X100615029Y-74803000D01*
X100757344Y-74542176D01*
X100940767Y-74293025D01*
X101181343Y-74043110D01*
X101495122Y-73779998D01*
X101898151Y-73491254D01*
X102406478Y-73164445D01*
X103036152Y-72787134D01*
X103735191Y-72385414D01*
X104262432Y-72085071D01*
X104738024Y-71811352D01*
X105143006Y-71575398D01*
X105458416Y-71388347D01*
X105665295Y-71261339D01*
X105744681Y-71205514D01*
X105744976Y-71204666D01*
X105683198Y-71141431D01*
X105530296Y-71023257D01*
X105337584Y-70886776D01*
X105156375Y-70768624D01*
X105055828Y-70712664D01*
X104969908Y-70746931D01*
G36*
X99568000Y-82529734D02*
G01*
X99570353Y-83112058D01*
X99578584Y-83548890D01*
X99594458Y-83864020D01*
X99619735Y-84081238D01*
X99656178Y-84224337D01*
X99699801Y-84309161D01*
X99887406Y-84458852D01*
X100115743Y-84490404D01*
X100313067Y-84395733D01*
X100355039Y-84285544D01*
X100385337Y-84043805D01*
X100404669Y-83659620D01*
X100413742Y-83122096D01*
X100414667Y-82830826D01*
X100414667Y-81367519D01*
X99991333Y-81153000D01*
X99568000Y-80938480D01*
X99568000Y-82529734D01*
X99568000Y-82529734D01*
G37*
X99568000Y-82529734D02*
X99570353Y-83112058D01*
X99578584Y-83548890D01*
X99594458Y-83864020D01*
X99619735Y-84081238D01*
X99656178Y-84224337D01*
X99699801Y-84309161D01*
X99887406Y-84458852D01*
X100115743Y-84490404D01*
X100313067Y-84395733D01*
X100355039Y-84285544D01*
X100385337Y-84043805D01*
X100404669Y-83659620D01*
X100413742Y-83122096D01*
X100414667Y-82830826D01*
X100414667Y-81367519D01*
X99991333Y-81153000D01*
X99568000Y-80938480D01*
X99568000Y-82529734D01*
G36*
X113332216Y-77785926D02*
G01*
X112717438Y-77991188D01*
X112095383Y-78310100D01*
X111487644Y-78735804D01*
X111014239Y-79160640D01*
X110570897Y-79682750D01*
X110204251Y-80271856D01*
X109922782Y-80898716D01*
X109734973Y-81534084D01*
X109649304Y-82148718D01*
X109674257Y-82713372D01*
X109818315Y-83198803D01*
X109833833Y-83230560D01*
X109968547Y-83461082D01*
X110121093Y-83606003D01*
X110352650Y-83715050D01*
X110487432Y-83761868D01*
X110795695Y-83849454D01*
X111034914Y-83870209D01*
X111289025Y-83829897D01*
X111330412Y-83819747D01*
X111836005Y-83612450D01*
X112324000Y-83262419D01*
X112766347Y-82795931D01*
X113134999Y-82239262D01*
X113240197Y-82030627D01*
X113411399Y-81541557D01*
X113433074Y-81121044D01*
X113304181Y-80756252D01*
X113118048Y-80521381D01*
X112880347Y-80390087D01*
X112567493Y-80353532D01*
X112246285Y-80414134D01*
X112098667Y-80484514D01*
X111983112Y-80564209D01*
X112017420Y-80570753D01*
X112056333Y-80558978D01*
X112265555Y-80503980D01*
X112486027Y-80459788D01*
X112777949Y-80483385D01*
X113013917Y-80640286D01*
X113181789Y-80900225D01*
X113269425Y-81232940D01*
X113264685Y-81608167D01*
X113155427Y-81995641D01*
X113127015Y-82057617D01*
X112935928Y-82379167D01*
X112674286Y-82726731D01*
X112382061Y-83054779D01*
X112099225Y-83317776D01*
X111901848Y-83453213D01*
X111657699Y-83535627D01*
X111341982Y-83587834D01*
X111193371Y-83596386D01*
X110902893Y-83585002D01*
X110704696Y-83523399D01*
X110523545Y-83386089D01*
X110496062Y-83360141D01*
X110258340Y-83020836D01*
X110124308Y-82577833D01*
X110094374Y-82061625D01*
X110168949Y-81502703D01*
X110348441Y-80931560D01*
X110460150Y-80685462D01*
X110810713Y-80129982D01*
X111273791Y-79611500D01*
X111814855Y-79156123D01*
X112399377Y-78789956D01*
X112992828Y-78539107D01*
X113427643Y-78441766D01*
X113995382Y-78441176D01*
X114501867Y-78579064D01*
X114925683Y-78842880D01*
X115245417Y-79220073D01*
X115415370Y-79606721D01*
X115491572Y-80011384D01*
X115523886Y-80513582D01*
X115513609Y-81047978D01*
X115462038Y-81549237D01*
X115370471Y-81952024D01*
X115368680Y-81957333D01*
X115161379Y-82495971D01*
X114895201Y-83082506D01*
X114598512Y-83660827D01*
X114299679Y-84174822D01*
X114091155Y-84484424D01*
X113879224Y-84784215D01*
X113763156Y-84973174D01*
X113742881Y-85044770D01*
X113818331Y-84992468D01*
X113989436Y-84809736D01*
X114093309Y-84688354D01*
X114476070Y-84214365D01*
X114775477Y-83795365D01*
X115032005Y-83370842D01*
X115239356Y-82974953D01*
X115514977Y-82360062D01*
X115700329Y-81780646D01*
X115809214Y-81176285D01*
X115855436Y-80486558D01*
X115859088Y-80262293D01*
X115859820Y-79835219D01*
X115848981Y-79530338D01*
X115818247Y-79300539D01*
X115759294Y-79098712D01*
X115663798Y-78877748D01*
X115586180Y-78717773D01*
X115403516Y-78381257D01*
X115228150Y-78153459D01*
X115015921Y-77981773D01*
X114917001Y-77920642D01*
X114453588Y-77743793D01*
X113918130Y-77701175D01*
X113332216Y-77785926D01*
X113332216Y-77785926D01*
G37*
X113332216Y-77785926D02*
X112717438Y-77991188D01*
X112095383Y-78310100D01*
X111487644Y-78735804D01*
X111014239Y-79160640D01*
X110570897Y-79682750D01*
X110204251Y-80271856D01*
X109922782Y-80898716D01*
X109734973Y-81534084D01*
X109649304Y-82148718D01*
X109674257Y-82713372D01*
X109818315Y-83198803D01*
X109833833Y-83230560D01*
X109968547Y-83461082D01*
X110121093Y-83606003D01*
X110352650Y-83715050D01*
X110487432Y-83761868D01*
X110795695Y-83849454D01*
X111034914Y-83870209D01*
X111289025Y-83829897D01*
X111330412Y-83819747D01*
X111836005Y-83612450D01*
X112324000Y-83262419D01*
X112766347Y-82795931D01*
X113134999Y-82239262D01*
X113240197Y-82030627D01*
X113411399Y-81541557D01*
X113433074Y-81121044D01*
X113304181Y-80756252D01*
X113118048Y-80521381D01*
X112880347Y-80390087D01*
X112567493Y-80353532D01*
X112246285Y-80414134D01*
X112098667Y-80484514D01*
X111983112Y-80564209D01*
X112017420Y-80570753D01*
X112056333Y-80558978D01*
X112265555Y-80503980D01*
X112486027Y-80459788D01*
X112777949Y-80483385D01*
X113013917Y-80640286D01*
X113181789Y-80900225D01*
X113269425Y-81232940D01*
X113264685Y-81608167D01*
X113155427Y-81995641D01*
X113127015Y-82057617D01*
X112935928Y-82379167D01*
X112674286Y-82726731D01*
X112382061Y-83054779D01*
X112099225Y-83317776D01*
X111901848Y-83453213D01*
X111657699Y-83535627D01*
X111341982Y-83587834D01*
X111193371Y-83596386D01*
X110902893Y-83585002D01*
X110704696Y-83523399D01*
X110523545Y-83386089D01*
X110496062Y-83360141D01*
X110258340Y-83020836D01*
X110124308Y-82577833D01*
X110094374Y-82061625D01*
X110168949Y-81502703D01*
X110348441Y-80931560D01*
X110460150Y-80685462D01*
X110810713Y-80129982D01*
X111273791Y-79611500D01*
X111814855Y-79156123D01*
X112399377Y-78789956D01*
X112992828Y-78539107D01*
X113427643Y-78441766D01*
X113995382Y-78441176D01*
X114501867Y-78579064D01*
X114925683Y-78842880D01*
X115245417Y-79220073D01*
X115415370Y-79606721D01*
X115491572Y-80011384D01*
X115523886Y-80513582D01*
X115513609Y-81047978D01*
X115462038Y-81549237D01*
X115370471Y-81952024D01*
X115368680Y-81957333D01*
X115161379Y-82495971D01*
X114895201Y-83082506D01*
X114598512Y-83660827D01*
X114299679Y-84174822D01*
X114091155Y-84484424D01*
X113879224Y-84784215D01*
X113763156Y-84973174D01*
X113742881Y-85044770D01*
X113818331Y-84992468D01*
X113989436Y-84809736D01*
X114093309Y-84688354D01*
X114476070Y-84214365D01*
X114775477Y-83795365D01*
X115032005Y-83370842D01*
X115239356Y-82974953D01*
X115514977Y-82360062D01*
X115700329Y-81780646D01*
X115809214Y-81176285D01*
X115855436Y-80486558D01*
X115859088Y-80262293D01*
X115859820Y-79835219D01*
X115848981Y-79530338D01*
X115818247Y-79300539D01*
X115759294Y-79098712D01*
X115663798Y-78877748D01*
X115586180Y-78717773D01*
X115403516Y-78381257D01*
X115228150Y-78153459D01*
X115015921Y-77981773D01*
X114917001Y-77920642D01*
X114453588Y-77743793D01*
X113918130Y-77701175D01*
X113332216Y-77785926D01*
G36*
X105134175Y-73278153D02*
G01*
X104924927Y-73387511D01*
X104658632Y-73542083D01*
X104628325Y-73560494D01*
X104272350Y-73770344D01*
X103857320Y-74004306D01*
X103488604Y-74203475D01*
X102919779Y-74547153D01*
X102489734Y-74918214D01*
X102167930Y-75345988D01*
X102032706Y-75601696D01*
X101811667Y-76073000D01*
X101787197Y-80826149D01*
X101782288Y-81851274D01*
X101779165Y-82720273D01*
X101778130Y-83446346D01*
X101779486Y-84042696D01*
X101783535Y-84522523D01*
X101790578Y-84899027D01*
X101800918Y-85185411D01*
X101814857Y-85394873D01*
X101832697Y-85540617D01*
X101854739Y-85635842D01*
X101881287Y-85693749D01*
X101899078Y-85715649D01*
X102123882Y-85839660D01*
X102361434Y-85806849D01*
X102482953Y-85718952D01*
X102512309Y-85674622D01*
X102537072Y-85596269D01*
X102557622Y-85470502D01*
X102574339Y-85283933D01*
X102587603Y-85023174D01*
X102597796Y-84674835D01*
X102605297Y-84225528D01*
X102610487Y-83661865D01*
X102613747Y-82970455D01*
X102615456Y-82137911D01*
X102615996Y-81150844D01*
X102616000Y-81036576D01*
X102616000Y-76487247D01*
X102834304Y-76049169D01*
X103040104Y-75711997D01*
X103322219Y-75388999D01*
X103701034Y-75062795D01*
X104196936Y-74716005D01*
X104830310Y-74331249D01*
X104889067Y-74297426D01*
X105259358Y-74081955D01*
X105570330Y-73895176D01*
X105795582Y-73753397D01*
X105908717Y-73672928D01*
X105916952Y-73662426D01*
X105850491Y-73588899D01*
X105691322Y-73473484D01*
X105496921Y-73352508D01*
X105324766Y-73262300D01*
X105243345Y-73236666D01*
X105134175Y-73278153D01*
X105134175Y-73278153D01*
G37*
X105134175Y-73278153D02*
X104924927Y-73387511D01*
X104658632Y-73542083D01*
X104628325Y-73560494D01*
X104272350Y-73770344D01*
X103857320Y-74004306D01*
X103488604Y-74203475D01*
X102919779Y-74547153D01*
X102489734Y-74918214D01*
X102167930Y-75345988D01*
X102032706Y-75601696D01*
X101811667Y-76073000D01*
X101787197Y-80826149D01*
X101782288Y-81851274D01*
X101779165Y-82720273D01*
X101778130Y-83446346D01*
X101779486Y-84042696D01*
X101783535Y-84522523D01*
X101790578Y-84899027D01*
X101800918Y-85185411D01*
X101814857Y-85394873D01*
X101832697Y-85540617D01*
X101854739Y-85635842D01*
X101881287Y-85693749D01*
X101899078Y-85715649D01*
X102123882Y-85839660D01*
X102361434Y-85806849D01*
X102482953Y-85718952D01*
X102512309Y-85674622D01*
X102537072Y-85596269D01*
X102557622Y-85470502D01*
X102574339Y-85283933D01*
X102587603Y-85023174D01*
X102597796Y-84674835D01*
X102605297Y-84225528D01*
X102610487Y-83661865D01*
X102613747Y-82970455D01*
X102615456Y-82137911D01*
X102615996Y-81150844D01*
X102616000Y-81036576D01*
X102616000Y-76487247D01*
X102834304Y-76049169D01*
X103040104Y-75711997D01*
X103322219Y-75388999D01*
X103701034Y-75062795D01*
X104196936Y-74716005D01*
X104830310Y-74331249D01*
X104889067Y-74297426D01*
X105259358Y-74081955D01*
X105570330Y-73895176D01*
X105795582Y-73753397D01*
X105908717Y-73672928D01*
X105916952Y-73662426D01*
X105850491Y-73588899D01*
X105691322Y-73473484D01*
X105496921Y-73352508D01*
X105324766Y-73262300D01*
X105243345Y-73236666D01*
X105134175Y-73278153D01*
G36*
X104034748Y-79325388D02*
G01*
X104014670Y-79559025D01*
X103998420Y-79951123D01*
X103985948Y-80503890D01*
X103977202Y-81219536D01*
X103972131Y-82100273D01*
X103970667Y-83039161D01*
X103971276Y-83954030D01*
X103973434Y-84714448D01*
X103977632Y-85335289D01*
X103984363Y-85831433D01*
X103994120Y-86217756D01*
X104007396Y-86509135D01*
X104024683Y-86720449D01*
X104046475Y-86866574D01*
X104073263Y-86962387D01*
X104102468Y-87018494D01*
X104290073Y-87168186D01*
X104518410Y-87199738D01*
X104715733Y-87105066D01*
X104741887Y-87033304D01*
X104763621Y-86867746D01*
X104781224Y-86597610D01*
X104794983Y-86212114D01*
X104805186Y-85700474D01*
X104812120Y-85051909D01*
X104816073Y-84255635D01*
X104817333Y-83300869D01*
X104817333Y-79590108D01*
X104482040Y-79419054D01*
X104258459Y-79314434D01*
X104093387Y-79253958D01*
X104058706Y-79248000D01*
X104034748Y-79325388D01*
X104034748Y-79325388D01*
G37*
X104034748Y-79325388D02*
X104014670Y-79559025D01*
X103998420Y-79951123D01*
X103985948Y-80503890D01*
X103977202Y-81219536D01*
X103972131Y-82100273D01*
X103970667Y-83039161D01*
X103971276Y-83954030D01*
X103973434Y-84714448D01*
X103977632Y-85335289D01*
X103984363Y-85831433D01*
X103994120Y-86217756D01*
X104007396Y-86509135D01*
X104024683Y-86720449D01*
X104046475Y-86866574D01*
X104073263Y-86962387D01*
X104102468Y-87018494D01*
X104290073Y-87168186D01*
X104518410Y-87199738D01*
X104715733Y-87105066D01*
X104741887Y-87033304D01*
X104763621Y-86867746D01*
X104781224Y-86597610D01*
X104794983Y-86212114D01*
X104805186Y-85700474D01*
X104812120Y-85051909D01*
X104816073Y-84255635D01*
X104817333Y-83300869D01*
X104817333Y-79590108D01*
X104482040Y-79419054D01*
X104258459Y-79314434D01*
X104093387Y-79253958D01*
X104058706Y-79248000D01*
X104034748Y-79325388D01*
G36*
X115791328Y-72220739D02*
G01*
X115549893Y-72326179D01*
X115249785Y-72483906D01*
X114663686Y-72807362D01*
X114070005Y-73142528D01*
X113444511Y-73503616D01*
X112762972Y-73904835D01*
X112001158Y-74360395D01*
X111134838Y-74884509D01*
X110574667Y-75225671D01*
X109985105Y-75584854D01*
X109412061Y-75932885D01*
X108879773Y-76255127D01*
X108412478Y-76536941D01*
X108034411Y-76763689D01*
X107769809Y-76920732D01*
X107719772Y-76949977D01*
X107296809Y-77223308D01*
X106979166Y-77506791D01*
X106715021Y-77854853D01*
X106499171Y-78232000D01*
X106299000Y-78613000D01*
X106274581Y-83450866D01*
X106269718Y-84485730D01*
X106266603Y-85364345D01*
X106265532Y-86099790D01*
X106266799Y-86705141D01*
X106270697Y-87193479D01*
X106277521Y-87577880D01*
X106287564Y-87871423D01*
X106301122Y-88087186D01*
X106318488Y-88238247D01*
X106339957Y-88337685D01*
X106365821Y-88398577D01*
X106386462Y-88425033D01*
X106583439Y-88549556D01*
X106786813Y-88511944D01*
X106873811Y-88455500D01*
X106904609Y-88420994D01*
X106930799Y-88358352D01*
X106952840Y-88254271D01*
X106971191Y-88095446D01*
X106986312Y-87868576D01*
X106998661Y-87560357D01*
X107008697Y-87157487D01*
X107016880Y-86646662D01*
X107023668Y-86014580D01*
X107029521Y-85247937D01*
X107034897Y-84333432D01*
X107038160Y-83693000D01*
X107043224Y-82687132D01*
X107048130Y-81836437D01*
X107053465Y-81126759D01*
X107059813Y-80543939D01*
X107067761Y-80073820D01*
X107077895Y-79702242D01*
X107090799Y-79415049D01*
X107107060Y-79198083D01*
X107127262Y-79037186D01*
X107151993Y-78918200D01*
X107181836Y-78826967D01*
X107217378Y-78749329D01*
X107244781Y-78697666D01*
X107351776Y-78515854D01*
X107476427Y-78341282D01*
X107630651Y-78165584D01*
X107826366Y-77980395D01*
X108075491Y-77777347D01*
X108389944Y-77548077D01*
X108781641Y-77284217D01*
X109262503Y-76977401D01*
X109844445Y-76619265D01*
X110539387Y-76201442D01*
X111359246Y-75715565D01*
X112183333Y-75231032D01*
X112924344Y-74794876D01*
X113623772Y-74380293D01*
X114267450Y-73995881D01*
X114841212Y-73650237D01*
X115330890Y-73351959D01*
X115722316Y-73109645D01*
X116001325Y-72931892D01*
X116153748Y-72827298D01*
X116175988Y-72808002D01*
X116272572Y-72585418D01*
X116222437Y-72362544D01*
X116064709Y-72213553D01*
X115951966Y-72186835D01*
X115791328Y-72220739D01*
X115791328Y-72220739D01*
G37*
X115791328Y-72220739D02*
X115549893Y-72326179D01*
X115249785Y-72483906D01*
X114663686Y-72807362D01*
X114070005Y-73142528D01*
X113444511Y-73503616D01*
X112762972Y-73904835D01*
X112001158Y-74360395D01*
X111134838Y-74884509D01*
X110574667Y-75225671D01*
X109985105Y-75584854D01*
X109412061Y-75932885D01*
X108879773Y-76255127D01*
X108412478Y-76536941D01*
X108034411Y-76763689D01*
X107769809Y-76920732D01*
X107719772Y-76949977D01*
X107296809Y-77223308D01*
X106979166Y-77506791D01*
X106715021Y-77854853D01*
X106499171Y-78232000D01*
X106299000Y-78613000D01*
X106274581Y-83450866D01*
X106269718Y-84485730D01*
X106266603Y-85364345D01*
X106265532Y-86099790D01*
X106266799Y-86705141D01*
X106270697Y-87193479D01*
X106277521Y-87577880D01*
X106287564Y-87871423D01*
X106301122Y-88087186D01*
X106318488Y-88238247D01*
X106339957Y-88337685D01*
X106365821Y-88398577D01*
X106386462Y-88425033D01*
X106583439Y-88549556D01*
X106786813Y-88511944D01*
X106873811Y-88455500D01*
X106904609Y-88420994D01*
X106930799Y-88358352D01*
X106952840Y-88254271D01*
X106971191Y-88095446D01*
X106986312Y-87868576D01*
X106998661Y-87560357D01*
X107008697Y-87157487D01*
X107016880Y-86646662D01*
X107023668Y-86014580D01*
X107029521Y-85247937D01*
X107034897Y-84333432D01*
X107038160Y-83693000D01*
X107043224Y-82687132D01*
X107048130Y-81836437D01*
X107053465Y-81126759D01*
X107059813Y-80543939D01*
X107067761Y-80073820D01*
X107077895Y-79702242D01*
X107090799Y-79415049D01*
X107107060Y-79198083D01*
X107127262Y-79037186D01*
X107151993Y-78918200D01*
X107181836Y-78826967D01*
X107217378Y-78749329D01*
X107244781Y-78697666D01*
X107351776Y-78515854D01*
X107476427Y-78341282D01*
X107630651Y-78165584D01*
X107826366Y-77980395D01*
X108075491Y-77777347D01*
X108389944Y-77548077D01*
X108781641Y-77284217D01*
X109262503Y-76977401D01*
X109844445Y-76619265D01*
X110539387Y-76201442D01*
X111359246Y-75715565D01*
X112183333Y-75231032D01*
X112924344Y-74794876D01*
X113623772Y-74380293D01*
X114267450Y-73995881D01*
X114841212Y-73650237D01*
X115330890Y-73351959D01*
X115722316Y-73109645D01*
X116001325Y-72931892D01*
X116153748Y-72827298D01*
X116175988Y-72808002D01*
X116272572Y-72585418D01*
X116222437Y-72362544D01*
X116064709Y-72213553D01*
X115951966Y-72186835D01*
X115791328Y-72220739D01*
G36*
X75492650Y-77768661D02*
G01*
X75421104Y-77884383D01*
X75277507Y-78126022D01*
X75074101Y-78472637D01*
X74823127Y-78903282D01*
X74536830Y-79397016D01*
X74227450Y-79932893D01*
X74221439Y-79943328D01*
X73064912Y-81950990D01*
X73087290Y-84597325D01*
X73109667Y-87243661D01*
X74295000Y-87940119D01*
X74697925Y-88174949D01*
X75050088Y-88376577D01*
X75325578Y-88530455D01*
X75498486Y-88622036D01*
X75543833Y-88641288D01*
X75554755Y-88559787D01*
X75565083Y-88322972D01*
X75574655Y-87944864D01*
X75583311Y-87439482D01*
X75590888Y-86820846D01*
X75597226Y-86102974D01*
X75602164Y-85299888D01*
X75605539Y-84425606D01*
X75607191Y-83494149D01*
X75607333Y-83123827D01*
X75606905Y-82006222D01*
X75605466Y-81047089D01*
X75602783Y-80235569D01*
X75598624Y-79560804D01*
X75592755Y-79011935D01*
X75584946Y-78578103D01*
X75574962Y-78248448D01*
X75562572Y-78012111D01*
X75547542Y-77858235D01*
X75529642Y-77775959D01*
X75508637Y-77754425D01*
X75492650Y-77768661D01*
X75492650Y-77768661D01*
G37*
X75492650Y-77768661D02*
X75421104Y-77884383D01*
X75277507Y-78126022D01*
X75074101Y-78472637D01*
X74823127Y-78903282D01*
X74536830Y-79397016D01*
X74227450Y-79932893D01*
X74221439Y-79943328D01*
X73064912Y-81950990D01*
X73087290Y-84597325D01*
X73109667Y-87243661D01*
X74295000Y-87940119D01*
X74697925Y-88174949D01*
X75050088Y-88376577D01*
X75325578Y-88530455D01*
X75498486Y-88622036D01*
X75543833Y-88641288D01*
X75554755Y-88559787D01*
X75565083Y-88322972D01*
X75574655Y-87944864D01*
X75583311Y-87439482D01*
X75590888Y-86820846D01*
X75597226Y-86102974D01*
X75602164Y-85299888D01*
X75605539Y-84425606D01*
X75607191Y-83494149D01*
X75607333Y-83123827D01*
X75606905Y-82006222D01*
X75605466Y-81047089D01*
X75602783Y-80235569D01*
X75598624Y-79560804D01*
X75592755Y-79011935D01*
X75584946Y-78578103D01*
X75574962Y-78248448D01*
X75562572Y-78012111D01*
X75547542Y-77858235D01*
X75529642Y-77775959D01*
X75508637Y-77754425D01*
X75492650Y-77768661D01*
G36*
X98044000Y-88688333D02*
G01*
X98066140Y-88831474D01*
X98165772Y-88890074D01*
X98340333Y-88900000D01*
X98636667Y-88900000D01*
X98636667Y-93472000D01*
X98340333Y-93472000D01*
X98139935Y-93487814D01*
X98057896Y-93558979D01*
X98044000Y-93683666D01*
X98044000Y-93895333D01*
X99003556Y-93895333D01*
X99390904Y-93890624D01*
X99713862Y-93877842D01*
X99936072Y-93859009D01*
X100019556Y-93838888D01*
X100068045Y-93714384D01*
X100076000Y-93627222D01*
X100041835Y-93524515D01*
X99911546Y-93479465D01*
X99737333Y-93472000D01*
X99398667Y-93472000D01*
X99398667Y-88900000D01*
X99737333Y-88900000D01*
X99955531Y-88888446D01*
X100052512Y-88833953D01*
X100075879Y-88706766D01*
X100076000Y-88688333D01*
X100076000Y-88476666D01*
X98044000Y-88476666D01*
X98044000Y-88688333D01*
X98044000Y-88688333D01*
G37*
X98044000Y-88688333D02*
X98066140Y-88831474D01*
X98165772Y-88890074D01*
X98340333Y-88900000D01*
X98636667Y-88900000D01*
X98636667Y-93472000D01*
X98340333Y-93472000D01*
X98139935Y-93487814D01*
X98057896Y-93558979D01*
X98044000Y-93683666D01*
X98044000Y-93895333D01*
X99003556Y-93895333D01*
X99390904Y-93890624D01*
X99713862Y-93877842D01*
X99936072Y-93859009D01*
X100019556Y-93838888D01*
X100068045Y-93714384D01*
X100076000Y-93627222D01*
X100041835Y-93524515D01*
X99911546Y-93479465D01*
X99737333Y-93472000D01*
X99398667Y-93472000D01*
X99398667Y-88900000D01*
X99737333Y-88900000D01*
X99955531Y-88888446D01*
X100052512Y-88833953D01*
X100075879Y-88706766D01*
X100076000Y-88688333D01*
X100076000Y-88476666D01*
X98044000Y-88476666D01*
X98044000Y-88688333D01*
G36*
X102239989Y-89975330D02*
G01*
X101893303Y-90122213D01*
X101610910Y-90327060D01*
X101478615Y-90497808D01*
X101429316Y-90625938D01*
X101393316Y-90808155D01*
X101368814Y-91069258D01*
X101354011Y-91434046D01*
X101347106Y-91927317D01*
X101346000Y-92324795D01*
X101346000Y-93895333D01*
X101924679Y-93895333D01*
X101952840Y-92419635D01*
X101964707Y-91879227D01*
X101978840Y-91480671D01*
X101998559Y-91196485D01*
X102027184Y-90999191D01*
X102068034Y-90861309D01*
X102124430Y-90755360D01*
X102159972Y-90705135D01*
X102264572Y-90581746D01*
X102379056Y-90510253D01*
X102550749Y-90476608D01*
X102826978Y-90466759D01*
X102964305Y-90466333D01*
X103333284Y-90454806D01*
X103562499Y-90413462D01*
X103680374Y-90332152D01*
X103715330Y-90200728D01*
X103715370Y-90198182D01*
X103639746Y-90126862D01*
X103442428Y-90051480D01*
X103170319Y-89983727D01*
X102870325Y-89935293D01*
X102590666Y-89917859D01*
X102239989Y-89975330D01*
X102239989Y-89975330D01*
G37*
X102239989Y-89975330D02*
X101893303Y-90122213D01*
X101610910Y-90327060D01*
X101478615Y-90497808D01*
X101429316Y-90625938D01*
X101393316Y-90808155D01*
X101368814Y-91069258D01*
X101354011Y-91434046D01*
X101347106Y-91927317D01*
X101346000Y-92324795D01*
X101346000Y-93895333D01*
X101924679Y-93895333D01*
X101952840Y-92419635D01*
X101964707Y-91879227D01*
X101978840Y-91480671D01*
X101998559Y-91196485D01*
X102027184Y-90999191D01*
X102068034Y-90861309D01*
X102124430Y-90755360D01*
X102159972Y-90705135D01*
X102264572Y-90581746D01*
X102379056Y-90510253D01*
X102550749Y-90476608D01*
X102826978Y-90466759D01*
X102964305Y-90466333D01*
X103333284Y-90454806D01*
X103562499Y-90413462D01*
X103680374Y-90332152D01*
X103715330Y-90200728D01*
X103715370Y-90198182D01*
X103639746Y-90126862D01*
X103442428Y-90051480D01*
X103170319Y-89983727D01*
X102870325Y-89935293D01*
X102590666Y-89917859D01*
X102239989Y-89975330D01*
G36*
X106321730Y-90060076D02*
G01*
X105983348Y-90239160D01*
X105930927Y-90283403D01*
X105661236Y-90592027D01*
X105486490Y-90951104D01*
X105393682Y-91398215D01*
X105369462Y-91905666D01*
X105377686Y-92310167D01*
X105408477Y-92603446D01*
X105472109Y-92843167D01*
X105578854Y-93086993D01*
X105580521Y-93090345D01*
X105861016Y-93509791D01*
X106209186Y-93774793D01*
X106628056Y-93887413D01*
X106756021Y-93891943D01*
X107051826Y-93861775D01*
X107316615Y-93790544D01*
X107378500Y-93762239D01*
X107576749Y-93622376D01*
X107613788Y-93515669D01*
X107496387Y-93453919D01*
X107231318Y-93448932D01*
X107200345Y-93451680D01*
X106836053Y-93453587D01*
X106577198Y-93358290D01*
X106376400Y-93139020D01*
X106254597Y-92917390D01*
X106157707Y-92688236D01*
X106106210Y-92466410D01*
X106091800Y-92192115D01*
X106104460Y-91836455D01*
X106143297Y-91431807D01*
X106207486Y-91090643D01*
X106280118Y-90880425D01*
X106511250Y-90605291D01*
X106831052Y-90462903D01*
X107209601Y-90465138D01*
X107283266Y-90482241D01*
X107492805Y-90530846D01*
X107586508Y-90515536D01*
X107610703Y-90421154D01*
X107611333Y-90374900D01*
X107586056Y-90216368D01*
X107485344Y-90111503D01*
X107271877Y-90031600D01*
X107114514Y-89992796D01*
X106724109Y-89971737D01*
X106321730Y-90060076D01*
X106321730Y-90060076D01*
G37*
X106321730Y-90060076D02*
X105983348Y-90239160D01*
X105930927Y-90283403D01*
X105661236Y-90592027D01*
X105486490Y-90951104D01*
X105393682Y-91398215D01*
X105369462Y-91905666D01*
X105377686Y-92310167D01*
X105408477Y-92603446D01*
X105472109Y-92843167D01*
X105578854Y-93086993D01*
X105580521Y-93090345D01*
X105861016Y-93509791D01*
X106209186Y-93774793D01*
X106628056Y-93887413D01*
X106756021Y-93891943D01*
X107051826Y-93861775D01*
X107316615Y-93790544D01*
X107378500Y-93762239D01*
X107576749Y-93622376D01*
X107613788Y-93515669D01*
X107496387Y-93453919D01*
X107231318Y-93448932D01*
X107200345Y-93451680D01*
X106836053Y-93453587D01*
X106577198Y-93358290D01*
X106376400Y-93139020D01*
X106254597Y-92917390D01*
X106157707Y-92688236D01*
X106106210Y-92466410D01*
X106091800Y-92192115D01*
X106104460Y-91836455D01*
X106143297Y-91431807D01*
X106207486Y-91090643D01*
X106280118Y-90880425D01*
X106511250Y-90605291D01*
X106831052Y-90462903D01*
X107209601Y-90465138D01*
X107283266Y-90482241D01*
X107492805Y-90530846D01*
X107586508Y-90515536D01*
X107610703Y-90421154D01*
X107611333Y-90374900D01*
X107586056Y-90216368D01*
X107485344Y-90111503D01*
X107271877Y-90031600D01*
X107114514Y-89992796D01*
X106724109Y-89971737D01*
X106321730Y-90060076D01*
G36*
X110622923Y-91080166D02*
G01*
X110398709Y-91712767D01*
X110191762Y-92296629D01*
X110009096Y-92811973D01*
X109857720Y-93239018D01*
X109744647Y-93557986D01*
X109676888Y-93749095D01*
X109660850Y-93794302D01*
X109679153Y-93858936D01*
X109812867Y-93884842D01*
X110065805Y-93878969D01*
X110510079Y-93853000D01*
X111049369Y-92329000D01*
X112065464Y-92305360D01*
X113081558Y-92281720D01*
X113330946Y-93067360D01*
X113580333Y-93853000D01*
X113951302Y-93879578D01*
X114186796Y-93883450D01*
X114282909Y-93845603D01*
X114282905Y-93794912D01*
X114246154Y-93690533D01*
X114160223Y-93446214D01*
X114032078Y-93081767D01*
X113868684Y-92617007D01*
X113677008Y-92071746D01*
X113551670Y-91715166D01*
X112861571Y-91715166D01*
X112782618Y-91742367D01*
X112571049Y-91763745D01*
X112263559Y-91776427D01*
X112050628Y-91778666D01*
X111675938Y-91775924D01*
X111441655Y-91763958D01*
X111318890Y-91737157D01*
X111278755Y-91689911D01*
X111287706Y-91630500D01*
X111331103Y-91498074D01*
X111416777Y-91239731D01*
X111533206Y-90890113D01*
X111668869Y-90483863D01*
X111700287Y-90389924D01*
X112065751Y-89297514D01*
X112464113Y-90474590D01*
X112604812Y-90894615D01*
X112723575Y-91257339D01*
X112810785Y-91532743D01*
X112856826Y-91690809D01*
X112861571Y-91715166D01*
X113551670Y-91715166D01*
X113464016Y-91465798D01*
X113328473Y-91080166D01*
X112413406Y-88476666D01*
X111545678Y-88476666D01*
X110622923Y-91080166D01*
X110622923Y-91080166D01*
G37*
X110622923Y-91080166D02*
X110398709Y-91712767D01*
X110191762Y-92296629D01*
X110009096Y-92811973D01*
X109857720Y-93239018D01*
X109744647Y-93557986D01*
X109676888Y-93749095D01*
X109660850Y-93794302D01*
X109679153Y-93858936D01*
X109812867Y-93884842D01*
X110065805Y-93878969D01*
X110510079Y-93853000D01*
X111049369Y-92329000D01*
X112065464Y-92305360D01*
X113081558Y-92281720D01*
X113330946Y-93067360D01*
X113580333Y-93853000D01*
X113951302Y-93879578D01*
X114186796Y-93883450D01*
X114282909Y-93845603D01*
X114282905Y-93794912D01*
X114246154Y-93690533D01*
X114160223Y-93446214D01*
X114032078Y-93081767D01*
X113868684Y-92617007D01*
X113677008Y-92071746D01*
X113551670Y-91715166D01*
X112861571Y-91715166D01*
X112782618Y-91742367D01*
X112571049Y-91763745D01*
X112263559Y-91776427D01*
X112050628Y-91778666D01*
X111675938Y-91775924D01*
X111441655Y-91763958D01*
X111318890Y-91737157D01*
X111278755Y-91689911D01*
X111287706Y-91630500D01*
X111331103Y-91498074D01*
X111416777Y-91239731D01*
X111533206Y-90890113D01*
X111668869Y-90483863D01*
X111700287Y-90389924D01*
X112065751Y-89297514D01*
X112464113Y-90474590D01*
X112604812Y-90894615D01*
X112723575Y-91257339D01*
X112810785Y-91532743D01*
X112856826Y-91690809D01*
X112861571Y-91715166D01*
X113551670Y-91715166D01*
X113464016Y-91465798D01*
X113328473Y-91080166D01*
X112413406Y-88476666D01*
X111545678Y-88476666D01*
X110622923Y-91080166D01*
G36*
X102277333Y-91724641D02*
G01*
X102288217Y-91853123D01*
X102348759Y-91919606D01*
X102500792Y-91944438D01*
X102736504Y-91948000D01*
X103050717Y-91967068D01*
X103273786Y-92039587D01*
X103456171Y-92167192D01*
X103632959Y-92351043D01*
X103706085Y-92553953D01*
X103716667Y-92745101D01*
X103647576Y-93093562D01*
X103453143Y-93342689D01*
X103152627Y-93481259D01*
X102765287Y-93498051D01*
X102510167Y-93448046D01*
X102331165Y-93439333D01*
X102271449Y-93519159D01*
X102335914Y-93651208D01*
X102467833Y-93762102D01*
X102856312Y-93920200D01*
X103286070Y-93933128D01*
X103699236Y-93803979D01*
X104046983Y-93550401D01*
X104272755Y-93225344D01*
X104375343Y-92862232D01*
X104353536Y-92494489D01*
X104206124Y-92155539D01*
X103931898Y-91878808D01*
X103772296Y-91786110D01*
X103495348Y-91686657D01*
X103137012Y-91601906D01*
X102848833Y-91559009D01*
X102277333Y-91501282D01*
X102277333Y-91724641D01*
X102277333Y-91724641D01*
G37*
X102277333Y-91724641D02*
X102288217Y-91853123D01*
X102348759Y-91919606D01*
X102500792Y-91944438D01*
X102736504Y-91948000D01*
X103050717Y-91967068D01*
X103273786Y-92039587D01*
X103456171Y-92167192D01*
X103632959Y-92351043D01*
X103706085Y-92553953D01*
X103716667Y-92745101D01*
X103647576Y-93093562D01*
X103453143Y-93342689D01*
X103152627Y-93481259D01*
X102765287Y-93498051D01*
X102510167Y-93448046D01*
X102331165Y-93439333D01*
X102271449Y-93519159D01*
X102335914Y-93651208D01*
X102467833Y-93762102D01*
X102856312Y-93920200D01*
X103286070Y-93933128D01*
X103699236Y-93803979D01*
X104046983Y-93550401D01*
X104272755Y-93225344D01*
X104375343Y-92862232D01*
X104353536Y-92494489D01*
X104206124Y-92155539D01*
X103931898Y-91878808D01*
X103772296Y-91786110D01*
X103495348Y-91686657D01*
X103137012Y-91601906D01*
X102848833Y-91559009D01*
X102277333Y-91501282D01*
X102277333Y-91724641D01*
G36*
X53951088Y-71018939D02*
G01*
X53943640Y-71542826D01*
X53943256Y-71923496D01*
X53952217Y-72187000D01*
X53972802Y-72359385D01*
X54007292Y-72466703D01*
X54057964Y-72535000D01*
X54085888Y-72559333D01*
X54185883Y-72623281D01*
X54419595Y-72763979D01*
X54773938Y-72973782D01*
X55235826Y-73245044D01*
X55792171Y-73570121D01*
X56429888Y-73941369D01*
X57135890Y-74351141D01*
X57897090Y-74791794D01*
X58700402Y-75255681D01*
X58783302Y-75303490D01*
X59718285Y-75843162D01*
X60516479Y-76305334D01*
X61188179Y-76696413D01*
X61743679Y-77022806D01*
X62193274Y-77290920D01*
X62547258Y-77507163D01*
X62815927Y-77677939D01*
X63009573Y-77809658D01*
X63138493Y-77908724D01*
X63212980Y-77981546D01*
X63243329Y-78034530D01*
X63239835Y-78074083D01*
X63238691Y-78076323D01*
X63202385Y-78196970D01*
X63300341Y-78231575D01*
X63327688Y-78232000D01*
X63384393Y-78237761D01*
X63427064Y-78269087D01*
X63457692Y-78347040D01*
X63478273Y-78492682D01*
X63490800Y-78727076D01*
X63497267Y-79071284D01*
X63499668Y-79546369D01*
X63500000Y-80052333D01*
X63499450Y-80651389D01*
X63496474Y-81102174D01*
X63489082Y-81425749D01*
X63475284Y-81643174D01*
X63453090Y-81775512D01*
X63420510Y-81843824D01*
X63375554Y-81869170D01*
X63328010Y-81872666D01*
X63165204Y-81927837D01*
X63107285Y-81999666D01*
X63027885Y-82111613D01*
X62989687Y-82126666D01*
X62903491Y-82085638D01*
X62687101Y-81968649D01*
X62356717Y-81784847D01*
X61928536Y-81543378D01*
X61418757Y-81253388D01*
X60843581Y-80924022D01*
X60219204Y-80564428D01*
X60065601Y-80475666D01*
X59433495Y-80110620D01*
X58848314Y-79773562D01*
X58326004Y-79473610D01*
X57882507Y-79219880D01*
X57533769Y-79021490D01*
X57295733Y-78887555D01*
X57184345Y-78827193D01*
X57178189Y-78824666D01*
X57168959Y-78904760D01*
X57163423Y-79126824D01*
X57161751Y-79463533D01*
X57164113Y-79887558D01*
X57169168Y-80280561D01*
X57192333Y-81736456D01*
X60259361Y-83507458D01*
X61014281Y-83944136D01*
X61634488Y-84305134D01*
X62132442Y-84598520D01*
X62520601Y-84832362D01*
X62811425Y-85014730D01*
X63017374Y-85153691D01*
X63150908Y-85257314D01*
X63224485Y-85333669D01*
X63250567Y-85390823D01*
X63241611Y-85436844D01*
X63240882Y-85438230D01*
X63201542Y-85561239D01*
X63293424Y-85597328D01*
X63327688Y-85598000D01*
X63369651Y-85601394D01*
X63404196Y-85621603D01*
X63432057Y-85673665D01*
X63453972Y-85772619D01*
X63470676Y-85933501D01*
X63482907Y-86171352D01*
X63491399Y-86501208D01*
X63496890Y-86938108D01*
X63500116Y-87497091D01*
X63501813Y-88193195D01*
X63502717Y-89041457D01*
X63502823Y-89175166D01*
X63505646Y-92752333D01*
X64693075Y-93429666D01*
X65099589Y-93660527D01*
X65456295Y-93861171D01*
X65736501Y-94016737D01*
X65913521Y-94112366D01*
X65960252Y-94135222D01*
X65973424Y-94056321D01*
X65985563Y-93813645D01*
X65996618Y-93412749D01*
X66006540Y-92859190D01*
X66015276Y-92158522D01*
X66022778Y-91316301D01*
X66028993Y-90338083D01*
X66033873Y-89229422D01*
X66037365Y-87995875D01*
X66039421Y-86642997D01*
X66040000Y-85367198D01*
X66040000Y-76570953D01*
X53975000Y-69605545D01*
X53951088Y-71018939D01*
X53951088Y-71018939D01*
G37*
X53951088Y-71018939D02*
X53943640Y-71542826D01*
X53943256Y-71923496D01*
X53952217Y-72187000D01*
X53972802Y-72359385D01*
X54007292Y-72466703D01*
X54057964Y-72535000D01*
X54085888Y-72559333D01*
X54185883Y-72623281D01*
X54419595Y-72763979D01*
X54773938Y-72973782D01*
X55235826Y-73245044D01*
X55792171Y-73570121D01*
X56429888Y-73941369D01*
X57135890Y-74351141D01*
X57897090Y-74791794D01*
X58700402Y-75255681D01*
X58783302Y-75303490D01*
X59718285Y-75843162D01*
X60516479Y-76305334D01*
X61188179Y-76696413D01*
X61743679Y-77022806D01*
X62193274Y-77290920D01*
X62547258Y-77507163D01*
X62815927Y-77677939D01*
X63009573Y-77809658D01*
X63138493Y-77908724D01*
X63212980Y-77981546D01*
X63243329Y-78034530D01*
X63239835Y-78074083D01*
X63238691Y-78076323D01*
X63202385Y-78196970D01*
X63300341Y-78231575D01*
X63327688Y-78232000D01*
X63384393Y-78237761D01*
X63427064Y-78269087D01*
X63457692Y-78347040D01*
X63478273Y-78492682D01*
X63490800Y-78727076D01*
X63497267Y-79071284D01*
X63499668Y-79546369D01*
X63500000Y-80052333D01*
X63499450Y-80651389D01*
X63496474Y-81102174D01*
X63489082Y-81425749D01*
X63475284Y-81643174D01*
X63453090Y-81775512D01*
X63420510Y-81843824D01*
X63375554Y-81869170D01*
X63328010Y-81872666D01*
X63165204Y-81927837D01*
X63107285Y-81999666D01*
X63027885Y-82111613D01*
X62989687Y-82126666D01*
X62903491Y-82085638D01*
X62687101Y-81968649D01*
X62356717Y-81784847D01*
X61928536Y-81543378D01*
X61418757Y-81253388D01*
X60843581Y-80924022D01*
X60219204Y-80564428D01*
X60065601Y-80475666D01*
X59433495Y-80110620D01*
X58848314Y-79773562D01*
X58326004Y-79473610D01*
X57882507Y-79219880D01*
X57533769Y-79021490D01*
X57295733Y-78887555D01*
X57184345Y-78827193D01*
X57178189Y-78824666D01*
X57168959Y-78904760D01*
X57163423Y-79126824D01*
X57161751Y-79463533D01*
X57164113Y-79887558D01*
X57169168Y-80280561D01*
X57192333Y-81736456D01*
X60259361Y-83507458D01*
X61014281Y-83944136D01*
X61634488Y-84305134D01*
X62132442Y-84598520D01*
X62520601Y-84832362D01*
X62811425Y-85014730D01*
X63017374Y-85153691D01*
X63150908Y-85257314D01*
X63224485Y-85333669D01*
X63250567Y-85390823D01*
X63241611Y-85436844D01*
X63240882Y-85438230D01*
X63201542Y-85561239D01*
X63293424Y-85597328D01*
X63327688Y-85598000D01*
X63369651Y-85601394D01*
X63404196Y-85621603D01*
X63432057Y-85673665D01*
X63453972Y-85772619D01*
X63470676Y-85933501D01*
X63482907Y-86171352D01*
X63491399Y-86501208D01*
X63496890Y-86938108D01*
X63500116Y-87497091D01*
X63501813Y-88193195D01*
X63502717Y-89041457D01*
X63502823Y-89175166D01*
X63505646Y-92752333D01*
X64693075Y-93429666D01*
X65099589Y-93660527D01*
X65456295Y-93861171D01*
X65736501Y-94016737D01*
X65913521Y-94112366D01*
X65960252Y-94135222D01*
X65973424Y-94056321D01*
X65985563Y-93813645D01*
X65996618Y-93412749D01*
X66006540Y-92859190D01*
X66015276Y-92158522D01*
X66022778Y-91316301D01*
X66028993Y-90338083D01*
X66033873Y-89229422D01*
X66037365Y-87995875D01*
X66039421Y-86642997D01*
X66040000Y-85367198D01*
X66040000Y-76570953D01*
X53975000Y-69605545D01*
X53951088Y-71018939D01*
G36*
X77448833Y-70346285D02*
G01*
X76157667Y-71090553D01*
X74591333Y-73810221D01*
X74174007Y-74532273D01*
X73831213Y-75118828D01*
X73554994Y-75582273D01*
X73337393Y-75934994D01*
X73170450Y-76189375D01*
X73046208Y-76357803D01*
X72956708Y-76452663D01*
X72893994Y-76486341D01*
X72872771Y-76484949D01*
X72687928Y-76491268D01*
X72609921Y-76531816D01*
X72532249Y-76543418D01*
X72380210Y-76497695D01*
X72138538Y-76387328D01*
X71791970Y-76204996D01*
X71325243Y-75943379D01*
X71035584Y-75776811D01*
X70587798Y-75518760D01*
X70191691Y-75292412D01*
X69869906Y-75110548D01*
X69645085Y-74985948D01*
X69539872Y-74931394D01*
X69535362Y-74930000D01*
X69452203Y-74970271D01*
X69251942Y-75080028D01*
X68963304Y-75242689D01*
X68615014Y-75441669D01*
X68235798Y-75660385D01*
X67854382Y-75882252D01*
X67499490Y-76090688D01*
X67199848Y-76269110D01*
X66984181Y-76400932D01*
X66950167Y-76422474D01*
X66632667Y-76625735D01*
X66632667Y-85387534D01*
X66633267Y-86589936D01*
X66635013Y-87743532D01*
X66637826Y-88837184D01*
X66641623Y-89859751D01*
X66646324Y-90800096D01*
X66651849Y-91647078D01*
X66658116Y-92389558D01*
X66665045Y-93016397D01*
X66672556Y-93516455D01*
X66680567Y-93878594D01*
X66688997Y-94091673D01*
X66696167Y-94147356D01*
X66787205Y-94106397D01*
X66998977Y-93994266D01*
X67305896Y-93825020D01*
X67682374Y-93612715D01*
X67987333Y-93438095D01*
X69215000Y-92730809D01*
X69236706Y-86412738D01*
X69241023Y-85223220D01*
X69245422Y-84191886D01*
X69250184Y-83307586D01*
X69255591Y-82559171D01*
X69261927Y-81935491D01*
X69269473Y-81425396D01*
X69278511Y-81017737D01*
X69289325Y-80701365D01*
X69302197Y-80465129D01*
X69317408Y-80297880D01*
X69335241Y-80188470D01*
X69355979Y-80125747D01*
X69379904Y-80098563D01*
X69396705Y-80094666D01*
X69560011Y-80031687D01*
X69632686Y-79961072D01*
X69682445Y-79923566D01*
X69767093Y-79923452D01*
X69906413Y-79969700D01*
X70120190Y-80071282D01*
X70428209Y-80237168D01*
X70850251Y-80476328D01*
X71148834Y-80648535D01*
X71588358Y-80900585D01*
X71975484Y-81118084D01*
X72287412Y-81288594D01*
X72501347Y-81399676D01*
X72594488Y-81438892D01*
X72596369Y-81438296D01*
X72643896Y-81360229D01*
X72766128Y-81152120D01*
X72953348Y-80830717D01*
X73195839Y-80412765D01*
X73483884Y-79915011D01*
X73807764Y-79354202D01*
X74128211Y-78798389D01*
X74567523Y-78040839D01*
X74930347Y-77426527D01*
X75220409Y-76949561D01*
X75441433Y-76604047D01*
X75597145Y-76384095D01*
X75691270Y-76283811D01*
X75720756Y-76279555D01*
X75872127Y-76351712D01*
X76005267Y-76369333D01*
X76200000Y-76369333D01*
X76200000Y-82514722D01*
X76201019Y-83602262D01*
X76203986Y-84612249D01*
X76208769Y-85533951D01*
X76215236Y-86356637D01*
X76223253Y-87069575D01*
X76232688Y-87662033D01*
X76243407Y-88123281D01*
X76255279Y-88442586D01*
X76268170Y-88609217D01*
X76275678Y-88631888D01*
X76371653Y-88582332D01*
X76588103Y-88463573D01*
X76898466Y-88290399D01*
X77276182Y-88077599D01*
X77542947Y-87926333D01*
X78734539Y-87249000D01*
X78737270Y-78425508D01*
X78740000Y-69602016D01*
X77448833Y-70346285D01*
X77448833Y-70346285D01*
G37*
X77448833Y-70346285D02*
X76157667Y-71090553D01*
X74591333Y-73810221D01*
X74174007Y-74532273D01*
X73831213Y-75118828D01*
X73554994Y-75582273D01*
X73337393Y-75934994D01*
X73170450Y-76189375D01*
X73046208Y-76357803D01*
X72956708Y-76452663D01*
X72893994Y-76486341D01*
X72872771Y-76484949D01*
X72687928Y-76491268D01*
X72609921Y-76531816D01*
X72532249Y-76543418D01*
X72380210Y-76497695D01*
X72138538Y-76387328D01*
X71791970Y-76204996D01*
X71325243Y-75943379D01*
X71035584Y-75776811D01*
X70587798Y-75518760D01*
X70191691Y-75292412D01*
X69869906Y-75110548D01*
X69645085Y-74985948D01*
X69539872Y-74931394D01*
X69535362Y-74930000D01*
X69452203Y-74970271D01*
X69251942Y-75080028D01*
X68963304Y-75242689D01*
X68615014Y-75441669D01*
X68235798Y-75660385D01*
X67854382Y-75882252D01*
X67499490Y-76090688D01*
X67199848Y-76269110D01*
X66984181Y-76400932D01*
X66950167Y-76422474D01*
X66632667Y-76625735D01*
X66632667Y-85387534D01*
X66633267Y-86589936D01*
X66635013Y-87743532D01*
X66637826Y-88837184D01*
X66641623Y-89859751D01*
X66646324Y-90800096D01*
X66651849Y-91647078D01*
X66658116Y-92389558D01*
X66665045Y-93016397D01*
X66672556Y-93516455D01*
X66680567Y-93878594D01*
X66688997Y-94091673D01*
X66696167Y-94147356D01*
X66787205Y-94106397D01*
X66998977Y-93994266D01*
X67305896Y-93825020D01*
X67682374Y-93612715D01*
X67987333Y-93438095D01*
X69215000Y-92730809D01*
X69236706Y-86412738D01*
X69241023Y-85223220D01*
X69245422Y-84191886D01*
X69250184Y-83307586D01*
X69255591Y-82559171D01*
X69261927Y-81935491D01*
X69269473Y-81425396D01*
X69278511Y-81017737D01*
X69289325Y-80701365D01*
X69302197Y-80465129D01*
X69317408Y-80297880D01*
X69335241Y-80188470D01*
X69355979Y-80125747D01*
X69379904Y-80098563D01*
X69396705Y-80094666D01*
X69560011Y-80031687D01*
X69632686Y-79961072D01*
X69682445Y-79923566D01*
X69767093Y-79923452D01*
X69906413Y-79969700D01*
X70120190Y-80071282D01*
X70428209Y-80237168D01*
X70850251Y-80476328D01*
X71148834Y-80648535D01*
X71588358Y-80900585D01*
X71975484Y-81118084D01*
X72287412Y-81288594D01*
X72501347Y-81399676D01*
X72594488Y-81438892D01*
X72596369Y-81438296D01*
X72643896Y-81360229D01*
X72766128Y-81152120D01*
X72953348Y-80830717D01*
X73195839Y-80412765D01*
X73483884Y-79915011D01*
X73807764Y-79354202D01*
X74128211Y-78798389D01*
X74567523Y-78040839D01*
X74930347Y-77426527D01*
X75220409Y-76949561D01*
X75441433Y-76604047D01*
X75597145Y-76384095D01*
X75691270Y-76283811D01*
X75720756Y-76279555D01*
X75872127Y-76351712D01*
X76005267Y-76369333D01*
X76200000Y-76369333D01*
X76200000Y-82514722D01*
X76201019Y-83602262D01*
X76203986Y-84612249D01*
X76208769Y-85533951D01*
X76215236Y-86356637D01*
X76223253Y-87069575D01*
X76232688Y-87662033D01*
X76243407Y-88123281D01*
X76255279Y-88442586D01*
X76268170Y-88609217D01*
X76275678Y-88631888D01*
X76371653Y-88582332D01*
X76588103Y-88463573D01*
X76898466Y-88290399D01*
X77276182Y-88077599D01*
X77542947Y-87926333D01*
X78734539Y-87249000D01*
X78737270Y-78425508D01*
X78740000Y-69602016D01*
X77448833Y-70346285D01*
G36*
X107950000Y-95419333D02*
G01*
X108629712Y-95419333D01*
X108607356Y-92731166D01*
X108585000Y-90043000D01*
X107950000Y-89990444D01*
X107950000Y-95419333D01*
X107950000Y-95419333D01*
G37*
X107950000Y-95419333D02*
X108629712Y-95419333D01*
X108607356Y-92731166D01*
X108585000Y-90043000D01*
X107950000Y-89990444D01*
X107950000Y-95419333D01*
G36*
X85288535Y-98308168D02*
G01*
X85070505Y-98352347D01*
X84835474Y-98443909D01*
X84540549Y-98585646D01*
X84042668Y-98878144D01*
X83629231Y-99233830D01*
X83269092Y-99686191D01*
X82931102Y-100268710D01*
X82879324Y-100371532D01*
X82593631Y-101122537D01*
X82474367Y-101888299D01*
X82521785Y-102670887D01*
X82736139Y-103472368D01*
X83117680Y-104294811D01*
X83419096Y-104787393D01*
X83722159Y-105223013D01*
X84018881Y-105598392D01*
X84341173Y-105946228D01*
X84720947Y-106299221D01*
X85190116Y-106690071D01*
X85560823Y-106982004D01*
X85983894Y-107323499D01*
X86480397Y-107745360D01*
X87004692Y-108207553D01*
X87511142Y-108670046D01*
X87836218Y-108977954D01*
X88210395Y-109335103D01*
X88545157Y-109646788D01*
X88821007Y-109895493D01*
X89018444Y-110063700D01*
X89117971Y-110133890D01*
X89123893Y-110134785D01*
X89204297Y-110072381D01*
X89383716Y-109909020D01*
X89641882Y-109663929D01*
X89958525Y-109356337D01*
X90295573Y-109023217D01*
X90709450Y-108619894D01*
X91144207Y-108211578D01*
X91561756Y-107833031D01*
X91924005Y-107519015D01*
X92109698Y-107367599D01*
X92847546Y-106774726D01*
X93458839Y-106247856D01*
X93961994Y-105765491D01*
X94375430Y-105306131D01*
X94717562Y-104848276D01*
X95006809Y-104370426D01*
X95261588Y-103851082D01*
X95398304Y-103528604D01*
X95583358Y-102897793D01*
X95664529Y-102212346D01*
X95639307Y-101533054D01*
X95505847Y-100922666D01*
X95171885Y-100149610D01*
X94734694Y-99486507D01*
X94206531Y-98948472D01*
X93599654Y-98550619D01*
X93570412Y-98536118D01*
X93138331Y-98390966D01*
X92613671Y-98314666D01*
X92060123Y-98310848D01*
X91541378Y-98383139D01*
X91423671Y-98413797D01*
X90881082Y-98634981D01*
X90333661Y-98968140D01*
X89844913Y-99370318D01*
X89577539Y-99662499D01*
X89320734Y-99951890D01*
X89115433Y-100091744D01*
X88942364Y-100086355D01*
X88782250Y-99940017D01*
X88723516Y-99852763D01*
X88438334Y-99496066D01*
X88034913Y-99133459D01*
X87558706Y-98802383D01*
X87225201Y-98618632D01*
X86908687Y-98476486D01*
X86622571Y-98388536D01*
X86297722Y-98338573D01*
X85921591Y-98312998D01*
X85551564Y-98299132D01*
X85288535Y-98308168D01*
X85288535Y-98308168D01*
G37*
X85288535Y-98308168D02*
X85070505Y-98352347D01*
X84835474Y-98443909D01*
X84540549Y-98585646D01*
X84042668Y-98878144D01*
X83629231Y-99233830D01*
X83269092Y-99686191D01*
X82931102Y-100268710D01*
X82879324Y-100371532D01*
X82593631Y-101122537D01*
X82474367Y-101888299D01*
X82521785Y-102670887D01*
X82736139Y-103472368D01*
X83117680Y-104294811D01*
X83419096Y-104787393D01*
X83722159Y-105223013D01*
X84018881Y-105598392D01*
X84341173Y-105946228D01*
X84720947Y-106299221D01*
X85190116Y-106690071D01*
X85560823Y-106982004D01*
X85983894Y-107323499D01*
X86480397Y-107745360D01*
X87004692Y-108207553D01*
X87511142Y-108670046D01*
X87836218Y-108977954D01*
X88210395Y-109335103D01*
X88545157Y-109646788D01*
X88821007Y-109895493D01*
X89018444Y-110063700D01*
X89117971Y-110133890D01*
X89123893Y-110134785D01*
X89204297Y-110072381D01*
X89383716Y-109909020D01*
X89641882Y-109663929D01*
X89958525Y-109356337D01*
X90295573Y-109023217D01*
X90709450Y-108619894D01*
X91144207Y-108211578D01*
X91561756Y-107833031D01*
X91924005Y-107519015D01*
X92109698Y-107367599D01*
X92847546Y-106774726D01*
X93458839Y-106247856D01*
X93961994Y-105765491D01*
X94375430Y-105306131D01*
X94717562Y-104848276D01*
X95006809Y-104370426D01*
X95261588Y-103851082D01*
X95398304Y-103528604D01*
X95583358Y-102897793D01*
X95664529Y-102212346D01*
X95639307Y-101533054D01*
X95505847Y-100922666D01*
X95171885Y-100149610D01*
X94734694Y-99486507D01*
X94206531Y-98948472D01*
X93599654Y-98550619D01*
X93570412Y-98536118D01*
X93138331Y-98390966D01*
X92613671Y-98314666D01*
X92060123Y-98310848D01*
X91541378Y-98383139D01*
X91423671Y-98413797D01*
X90881082Y-98634981D01*
X90333661Y-98968140D01*
X89844913Y-99370318D01*
X89577539Y-99662499D01*
X89320734Y-99951890D01*
X89115433Y-100091744D01*
X88942364Y-100086355D01*
X88782250Y-99940017D01*
X88723516Y-99852763D01*
X88438334Y-99496066D01*
X88034913Y-99133459D01*
X87558706Y-98802383D01*
X87225201Y-98618632D01*
X86908687Y-98476486D01*
X86622571Y-98388536D01*
X86297722Y-98338573D01*
X85921591Y-98312998D01*
X85551564Y-98299132D01*
X85288535Y-98308168D01*
G36*
X91216525Y-123323824D02*
G01*
X91226109Y-123533255D01*
X91238090Y-123588272D01*
X91350221Y-123871212D01*
X91535828Y-124165372D01*
X91760274Y-124430523D01*
X91988925Y-124626439D01*
X92187148Y-124712891D01*
X92207308Y-124714000D01*
X92353033Y-124765464D01*
X92392425Y-124819607D01*
X92449649Y-124837484D01*
X92542416Y-124713836D01*
X92542450Y-124713774D01*
X92662874Y-124404126D01*
X92681224Y-124066279D01*
X92660130Y-123888500D01*
X92607467Y-123695843D01*
X92499038Y-123621834D01*
X92387410Y-123613333D01*
X92163484Y-123573002D01*
X91899027Y-123473125D01*
X91840913Y-123443835D01*
X91648691Y-123351769D01*
X91536515Y-123319241D01*
X91524667Y-123327202D01*
X91472593Y-123327573D01*
X91405205Y-123280922D01*
X91280211Y-123232380D01*
X91216525Y-123323824D01*
X91216525Y-123323824D01*
G37*
X91216525Y-123323824D02*
X91226109Y-123533255D01*
X91238090Y-123588272D01*
X91350221Y-123871212D01*
X91535828Y-124165372D01*
X91760274Y-124430523D01*
X91988925Y-124626439D01*
X92187148Y-124712891D01*
X92207308Y-124714000D01*
X92353033Y-124765464D01*
X92392425Y-124819607D01*
X92449649Y-124837484D01*
X92542416Y-124713836D01*
X92542450Y-124713774D01*
X92662874Y-124404126D01*
X92681224Y-124066279D01*
X92660130Y-123888500D01*
X92607467Y-123695843D01*
X92499038Y-123621834D01*
X92387410Y-123613333D01*
X92163484Y-123573002D01*
X91899027Y-123473125D01*
X91840913Y-123443835D01*
X91648691Y-123351769D01*
X91536515Y-123319241D01*
X91524667Y-123327202D01*
X91472593Y-123327573D01*
X91405205Y-123280922D01*
X91280211Y-123232380D01*
X91216525Y-123323824D01*
G36*
X88925542Y-125239881D02*
G01*
X88900000Y-125311663D01*
X88953273Y-125386202D01*
X89060389Y-125359706D01*
X89115148Y-125301033D01*
X89138013Y-125187012D01*
X89125778Y-125165555D01*
X89026751Y-125159171D01*
X88925542Y-125239881D01*
X88925542Y-125239881D01*
G37*
X88925542Y-125239881D02*
X88900000Y-125311663D01*
X88953273Y-125386202D01*
X89060389Y-125359706D01*
X89115148Y-125301033D01*
X89138013Y-125187012D01*
X89125778Y-125165555D01*
X89026751Y-125159171D01*
X88925542Y-125239881D01*
G36*
X89408000Y-125518333D02*
G01*
X89450333Y-125560666D01*
X89492667Y-125518333D01*
X89450333Y-125476000D01*
X89408000Y-125518333D01*
X89408000Y-125518333D01*
G37*
X89408000Y-125518333D02*
X89450333Y-125560666D01*
X89492667Y-125518333D01*
X89450333Y-125476000D01*
X89408000Y-125518333D01*
G36*
X87631295Y-125579918D02*
G01*
X87630000Y-125604044D01*
X87692845Y-125740890D01*
X87829115Y-125795700D01*
X87960414Y-125741929D01*
X87975915Y-125721170D01*
X88028797Y-125686620D01*
X88050824Y-125808891D01*
X88052037Y-125868291D01*
X88086184Y-126074417D01*
X88207325Y-126173322D01*
X88243833Y-126184635D01*
X88496645Y-126233232D01*
X88642328Y-126206606D01*
X88674222Y-126181555D01*
X88733330Y-126023203D01*
X88674008Y-125855877D01*
X88554953Y-125770308D01*
X88394609Y-125745285D01*
X88330491Y-125763286D01*
X88245757Y-125750468D01*
X88188705Y-125696505D01*
X88039782Y-125591495D01*
X87862833Y-125526875D01*
X87689858Y-125509860D01*
X87631295Y-125579918D01*
X87631295Y-125579918D01*
G37*
X87631295Y-125579918D02*
X87630000Y-125604044D01*
X87692845Y-125740890D01*
X87829115Y-125795700D01*
X87960414Y-125741929D01*
X87975915Y-125721170D01*
X88028797Y-125686620D01*
X88050824Y-125808891D01*
X88052037Y-125868291D01*
X88086184Y-126074417D01*
X88207325Y-126173322D01*
X88243833Y-126184635D01*
X88496645Y-126233232D01*
X88642328Y-126206606D01*
X88674222Y-126181555D01*
X88733330Y-126023203D01*
X88674008Y-125855877D01*
X88554953Y-125770308D01*
X88394609Y-125745285D01*
X88330491Y-125763286D01*
X88245757Y-125750468D01*
X88188705Y-125696505D01*
X88039782Y-125591495D01*
X87862833Y-125526875D01*
X87689858Y-125509860D01*
X87631295Y-125579918D01*
G36*
X89084570Y-126048200D02*
G01*
X88997301Y-126076949D01*
X88789837Y-126171212D01*
X88746670Y-126247261D01*
X88863229Y-126299453D01*
X89134944Y-126322148D01*
X89196333Y-126322666D01*
X89465441Y-126315316D01*
X89605632Y-126283538D01*
X89657034Y-126212740D01*
X89662000Y-126153333D01*
X89594364Y-126019620D01*
X89398410Y-125984176D01*
X89084570Y-126048200D01*
X89084570Y-126048200D01*
G37*
X89084570Y-126048200D02*
X88997301Y-126076949D01*
X88789837Y-126171212D01*
X88746670Y-126247261D01*
X88863229Y-126299453D01*
X89134944Y-126322148D01*
X89196333Y-126322666D01*
X89465441Y-126315316D01*
X89605632Y-126283538D01*
X89657034Y-126212740D01*
X89662000Y-126153333D01*
X89594364Y-126019620D01*
X89398410Y-125984176D01*
X89084570Y-126048200D01*
G36*
X90424000Y-132376333D02*
G01*
X90466333Y-132418666D01*
X90508667Y-132376333D01*
X90466333Y-132334000D01*
X90424000Y-132376333D01*
X90424000Y-132376333D01*
G37*
X90424000Y-132376333D02*
X90466333Y-132418666D01*
X90508667Y-132376333D01*
X90466333Y-132334000D01*
X90424000Y-132376333D01*
G36*
X97451333Y-133985000D02*
G01*
X97493667Y-134027333D01*
X97536000Y-133985000D01*
X97493667Y-133942666D01*
X97451333Y-133985000D01*
X97451333Y-133985000D01*
G37*
X97451333Y-133985000D02*
X97493667Y-134027333D01*
X97536000Y-133985000D01*
X97493667Y-133942666D01*
X97451333Y-133985000D01*
G36*
X87986458Y-134175884D02*
G01*
X87903649Y-134281333D01*
X87833528Y-134410704D01*
X87827827Y-134450666D01*
X87899875Y-134395436D01*
X88011000Y-134281333D01*
X88097363Y-134159749D01*
X88086822Y-134112000D01*
X87986458Y-134175884D01*
X87986458Y-134175884D01*
G37*
X87986458Y-134175884D02*
X87903649Y-134281333D01*
X87833528Y-134410704D01*
X87827827Y-134450666D01*
X87899875Y-134395436D01*
X88011000Y-134281333D01*
X88097363Y-134159749D01*
X88086822Y-134112000D01*
X87986458Y-134175884D01*
G36*
X85623963Y-128656952D02*
G01*
X85583335Y-128702846D01*
X85422790Y-128996434D01*
X85304548Y-129325392D01*
X85259400Y-129600780D01*
X85307259Y-129853617D01*
X85435543Y-130194367D01*
X85621475Y-130576691D01*
X85842280Y-130954250D01*
X86075183Y-131280704D01*
X86099743Y-131310526D01*
X86280024Y-131538169D01*
X86359795Y-131684395D01*
X86355687Y-131790061D01*
X86319787Y-131851115D01*
X86254621Y-131915324D01*
X86176232Y-131909563D01*
X86055499Y-131816305D01*
X85863299Y-131618026D01*
X85777683Y-131524872D01*
X85568960Y-131283194D01*
X85415243Y-131079858D01*
X85345448Y-130953638D01*
X85344000Y-130943299D01*
X85286247Y-130809230D01*
X85182106Y-130689731D01*
X85060587Y-130592390D01*
X85006090Y-130615236D01*
X84980260Y-130697776D01*
X84958204Y-130702932D01*
X84936701Y-130576753D01*
X84918006Y-130357227D01*
X84904376Y-130082344D01*
X84898067Y-129790091D01*
X84901333Y-129518459D01*
X84905222Y-129434166D01*
X84899602Y-129207392D01*
X84833431Y-129129806D01*
X84686003Y-129192242D01*
X84563103Y-129282691D01*
X84366864Y-129403862D01*
X84082681Y-129541809D01*
X83864185Y-129631245D01*
X83593710Y-129753547D01*
X83481351Y-129854679D01*
X83528910Y-129927640D01*
X83738189Y-129965427D01*
X83777667Y-129967403D01*
X83878182Y-129980347D01*
X83831310Y-130018350D01*
X83738434Y-130057321D01*
X83571972Y-130130086D01*
X83498741Y-130171703D01*
X83504233Y-130271864D01*
X83594880Y-130441886D01*
X83734436Y-130633584D01*
X83886649Y-130798774D01*
X84015273Y-130889272D01*
X84042627Y-130894666D01*
X84145363Y-130843745D01*
X84257833Y-130754544D01*
X84372668Y-130661572D01*
X84409737Y-130686999D01*
X84412667Y-130754544D01*
X84483462Y-130869507D01*
X84624333Y-130894666D01*
X84790315Y-130934353D01*
X84836000Y-131064000D01*
X84888940Y-131201904D01*
X84963000Y-131233333D01*
X85066428Y-131303919D01*
X85090000Y-131402666D01*
X85125456Y-131540247D01*
X85174667Y-131572000D01*
X85247867Y-131634469D01*
X85251942Y-131769542D01*
X85194196Y-131898718D01*
X85140611Y-131938107D01*
X84990121Y-131941048D01*
X84924352Y-131799022D01*
X84920667Y-131727222D01*
X84879348Y-131597545D01*
X84829273Y-131572000D01*
X84781987Y-131643143D01*
X84794494Y-131829794D01*
X84859964Y-132091787D01*
X84966058Y-132376333D01*
X85076187Y-132630333D01*
X85083094Y-132330842D01*
X85103645Y-132128143D01*
X85182608Y-132039571D01*
X85346757Y-132011787D01*
X85520077Y-132012706D01*
X85584654Y-132084772D01*
X85584474Y-132274938D01*
X85626187Y-132580624D01*
X85744277Y-132847993D01*
X85838307Y-133046266D01*
X85957472Y-133360957D01*
X86086616Y-133744017D01*
X86210579Y-134147394D01*
X86314204Y-134523038D01*
X86382333Y-134822899D01*
X86397006Y-134917134D01*
X86453426Y-135129244D01*
X86516740Y-135273802D01*
X86633258Y-135602502D01*
X86697183Y-136022717D01*
X86704394Y-136303632D01*
X86726243Y-136535071D01*
X86789313Y-136701337D01*
X86792850Y-136705799D01*
X86918207Y-136787931D01*
X87073970Y-136821282D01*
X87187263Y-136796655D01*
X87205197Y-136757833D01*
X87187432Y-136651950D01*
X87141541Y-136423424D01*
X87076514Y-136114826D01*
X87001345Y-135768728D01*
X86925025Y-135427703D01*
X86914580Y-135382000D01*
X86870088Y-135211418D01*
X86795576Y-134946252D01*
X86708068Y-134644802D01*
X86624584Y-134365368D01*
X86562146Y-134166249D01*
X86546256Y-134120494D01*
X86550485Y-134043009D01*
X86673748Y-134046208D01*
X86727079Y-134058607D01*
X86899259Y-134075896D01*
X86952604Y-134001624D01*
X86952667Y-133996980D01*
X87012460Y-133846919D01*
X87078848Y-133774012D01*
X87152016Y-133619799D01*
X87145242Y-133406826D01*
X87067557Y-133220411D01*
X87014907Y-133169866D01*
X86968297Y-133062284D01*
X86932757Y-132840190D01*
X86919389Y-132635758D01*
X86932413Y-132281410D01*
X87001831Y-132078196D01*
X87134253Y-132025000D01*
X87336286Y-132120704D01*
X87614541Y-132364194D01*
X87742974Y-132496657D01*
X87942880Y-132687584D01*
X88113360Y-132813001D01*
X88189289Y-132842000D01*
X88310791Y-132911384D01*
X88407406Y-133053666D01*
X88504511Y-133209262D01*
X88584794Y-133265333D01*
X88626907Y-133293988D01*
X88627245Y-133400398D01*
X88582418Y-133615228D01*
X88519262Y-133858000D01*
X88461910Y-134089997D01*
X88400958Y-134362825D01*
X88398003Y-134376910D01*
X88314951Y-134638351D01*
X88184560Y-134914435D01*
X88036793Y-135152172D01*
X87901616Y-135298571D01*
X87866210Y-135317374D01*
X87810304Y-135412172D01*
X87760843Y-135626921D01*
X87732239Y-135873694D01*
X87701572Y-136146391D01*
X87659341Y-136335996D01*
X87619824Y-136398000D01*
X87563810Y-136470515D01*
X87545333Y-136609666D01*
X87567057Y-136785006D01*
X87631291Y-136798289D01*
X87736631Y-136650999D01*
X87881675Y-136344618D01*
X87947844Y-136184462D01*
X88119826Y-135796336D01*
X88348536Y-135336816D01*
X88611993Y-134844789D01*
X88888213Y-134359143D01*
X89155214Y-133918764D01*
X89391013Y-133562540D01*
X89541360Y-133365517D01*
X89765469Y-133012930D01*
X89871586Y-132684982D01*
X89923961Y-132459714D01*
X89983453Y-132387369D01*
X90026414Y-132410547D01*
X90161174Y-132488799D01*
X90290195Y-132494551D01*
X90339333Y-132434469D01*
X90268491Y-132362115D01*
X90093162Y-132270009D01*
X90043000Y-132249333D01*
X89820543Y-132121713D01*
X89763760Y-131974672D01*
X89872686Y-131802583D01*
X90046361Y-131665013D01*
X90222298Y-131520588D01*
X90309549Y-131399368D01*
X90310830Y-131368679D01*
X90332808Y-131236704D01*
X90397132Y-131137119D01*
X90462960Y-131028385D01*
X90417728Y-130929517D01*
X90298110Y-130825999D01*
X90124614Y-130723995D01*
X89901269Y-130673069D01*
X89572102Y-130661226D01*
X89531607Y-130661724D01*
X89209681Y-130656354D01*
X89000364Y-130619129D01*
X88847920Y-130536425D01*
X88780166Y-130478065D01*
X88650295Y-130377502D01*
X88495939Y-130320224D01*
X88268389Y-130295568D01*
X87933586Y-130292711D01*
X87582147Y-130284979D01*
X87361740Y-130255020D01*
X87291333Y-130209352D01*
X87235081Y-130103307D01*
X87091033Y-129929665D01*
X86973833Y-129808528D01*
X86763802Y-129581130D01*
X86592362Y-129358082D01*
X86539648Y-129271288D01*
X86396519Y-129091343D01*
X86241630Y-128999397D01*
X86048526Y-128908892D01*
X85862514Y-128769623D01*
X85714313Y-128653322D01*
X85623963Y-128656952D01*
X85623963Y-128656952D01*
G37*
X85623963Y-128656952D02*
X85583335Y-128702846D01*
X85422790Y-128996434D01*
X85304548Y-129325392D01*
X85259400Y-129600780D01*
X85307259Y-129853617D01*
X85435543Y-130194367D01*
X85621475Y-130576691D01*
X85842280Y-130954250D01*
X86075183Y-131280704D01*
X86099743Y-131310526D01*
X86280024Y-131538169D01*
X86359795Y-131684395D01*
X86355687Y-131790061D01*
X86319787Y-131851115D01*
X86254621Y-131915324D01*
X86176232Y-131909563D01*
X86055499Y-131816305D01*
X85863299Y-131618026D01*
X85777683Y-131524872D01*
X85568960Y-131283194D01*
X85415243Y-131079858D01*
X85345448Y-130953638D01*
X85344000Y-130943299D01*
X85286247Y-130809230D01*
X85182106Y-130689731D01*
X85060587Y-130592390D01*
X85006090Y-130615236D01*
X84980260Y-130697776D01*
X84958204Y-130702932D01*
X84936701Y-130576753D01*
X84918006Y-130357227D01*
X84904376Y-130082344D01*
X84898067Y-129790091D01*
X84901333Y-129518459D01*
X84905222Y-129434166D01*
X84899602Y-129207392D01*
X84833431Y-129129806D01*
X84686003Y-129192242D01*
X84563103Y-129282691D01*
X84366864Y-129403862D01*
X84082681Y-129541809D01*
X83864185Y-129631245D01*
X83593710Y-129753547D01*
X83481351Y-129854679D01*
X83528910Y-129927640D01*
X83738189Y-129965427D01*
X83777667Y-129967403D01*
X83878182Y-129980347D01*
X83831310Y-130018350D01*
X83738434Y-130057321D01*
X83571972Y-130130086D01*
X83498741Y-130171703D01*
X83504233Y-130271864D01*
X83594880Y-130441886D01*
X83734436Y-130633584D01*
X83886649Y-130798774D01*
X84015273Y-130889272D01*
X84042627Y-130894666D01*
X84145363Y-130843745D01*
X84257833Y-130754544D01*
X84372668Y-130661572D01*
X84409737Y-130686999D01*
X84412667Y-130754544D01*
X84483462Y-130869507D01*
X84624333Y-130894666D01*
X84790315Y-130934353D01*
X84836000Y-131064000D01*
X84888940Y-131201904D01*
X84963000Y-131233333D01*
X85066428Y-131303919D01*
X85090000Y-131402666D01*
X85125456Y-131540247D01*
X85174667Y-131572000D01*
X85247867Y-131634469D01*
X85251942Y-131769542D01*
X85194196Y-131898718D01*
X85140611Y-131938107D01*
X84990121Y-131941048D01*
X84924352Y-131799022D01*
X84920667Y-131727222D01*
X84879348Y-131597545D01*
X84829273Y-131572000D01*
X84781987Y-131643143D01*
X84794494Y-131829794D01*
X84859964Y-132091787D01*
X84966058Y-132376333D01*
X85076187Y-132630333D01*
X85083094Y-132330842D01*
X85103645Y-132128143D01*
X85182608Y-132039571D01*
X85346757Y-132011787D01*
X85520077Y-132012706D01*
X85584654Y-132084772D01*
X85584474Y-132274938D01*
X85626187Y-132580624D01*
X85744277Y-132847993D01*
X85838307Y-133046266D01*
X85957472Y-133360957D01*
X86086616Y-133744017D01*
X86210579Y-134147394D01*
X86314204Y-134523038D01*
X86382333Y-134822899D01*
X86397006Y-134917134D01*
X86453426Y-135129244D01*
X86516740Y-135273802D01*
X86633258Y-135602502D01*
X86697183Y-136022717D01*
X86704394Y-136303632D01*
X86726243Y-136535071D01*
X86789313Y-136701337D01*
X86792850Y-136705799D01*
X86918207Y-136787931D01*
X87073970Y-136821282D01*
X87187263Y-136796655D01*
X87205197Y-136757833D01*
X87187432Y-136651950D01*
X87141541Y-136423424D01*
X87076514Y-136114826D01*
X87001345Y-135768728D01*
X86925025Y-135427703D01*
X86914580Y-135382000D01*
X86870088Y-135211418D01*
X86795576Y-134946252D01*
X86708068Y-134644802D01*
X86624584Y-134365368D01*
X86562146Y-134166249D01*
X86546256Y-134120494D01*
X86550485Y-134043009D01*
X86673748Y-134046208D01*
X86727079Y-134058607D01*
X86899259Y-134075896D01*
X86952604Y-134001624D01*
X86952667Y-133996980D01*
X87012460Y-133846919D01*
X87078848Y-133774012D01*
X87152016Y-133619799D01*
X87145242Y-133406826D01*
X87067557Y-133220411D01*
X87014907Y-133169866D01*
X86968297Y-133062284D01*
X86932757Y-132840190D01*
X86919389Y-132635758D01*
X86932413Y-132281410D01*
X87001831Y-132078196D01*
X87134253Y-132025000D01*
X87336286Y-132120704D01*
X87614541Y-132364194D01*
X87742974Y-132496657D01*
X87942880Y-132687584D01*
X88113360Y-132813001D01*
X88189289Y-132842000D01*
X88310791Y-132911384D01*
X88407406Y-133053666D01*
X88504511Y-133209262D01*
X88584794Y-133265333D01*
X88626907Y-133293988D01*
X88627245Y-133400398D01*
X88582418Y-133615228D01*
X88519262Y-133858000D01*
X88461910Y-134089997D01*
X88400958Y-134362825D01*
X88398003Y-134376910D01*
X88314951Y-134638351D01*
X88184560Y-134914435D01*
X88036793Y-135152172D01*
X87901616Y-135298571D01*
X87866210Y-135317374D01*
X87810304Y-135412172D01*
X87760843Y-135626921D01*
X87732239Y-135873694D01*
X87701572Y-136146391D01*
X87659341Y-136335996D01*
X87619824Y-136398000D01*
X87563810Y-136470515D01*
X87545333Y-136609666D01*
X87567057Y-136785006D01*
X87631291Y-136798289D01*
X87736631Y-136650999D01*
X87881675Y-136344618D01*
X87947844Y-136184462D01*
X88119826Y-135796336D01*
X88348536Y-135336816D01*
X88611993Y-134844789D01*
X88888213Y-134359143D01*
X89155214Y-133918764D01*
X89391013Y-133562540D01*
X89541360Y-133365517D01*
X89765469Y-133012930D01*
X89871586Y-132684982D01*
X89923961Y-132459714D01*
X89983453Y-132387369D01*
X90026414Y-132410547D01*
X90161174Y-132488799D01*
X90290195Y-132494551D01*
X90339333Y-132434469D01*
X90268491Y-132362115D01*
X90093162Y-132270009D01*
X90043000Y-132249333D01*
X89820543Y-132121713D01*
X89763760Y-131974672D01*
X89872686Y-131802583D01*
X90046361Y-131665013D01*
X90222298Y-131520588D01*
X90309549Y-131399368D01*
X90310830Y-131368679D01*
X90332808Y-131236704D01*
X90397132Y-131137119D01*
X90462960Y-131028385D01*
X90417728Y-130929517D01*
X90298110Y-130825999D01*
X90124614Y-130723995D01*
X89901269Y-130673069D01*
X89572102Y-130661226D01*
X89531607Y-130661724D01*
X89209681Y-130656354D01*
X89000364Y-130619129D01*
X88847920Y-130536425D01*
X88780166Y-130478065D01*
X88650295Y-130377502D01*
X88495939Y-130320224D01*
X88268389Y-130295568D01*
X87933586Y-130292711D01*
X87582147Y-130284979D01*
X87361740Y-130255020D01*
X87291333Y-130209352D01*
X87235081Y-130103307D01*
X87091033Y-129929665D01*
X86973833Y-129808528D01*
X86763802Y-129581130D01*
X86592362Y-129358082D01*
X86539648Y-129271288D01*
X86396519Y-129091343D01*
X86241630Y-128999397D01*
X86048526Y-128908892D01*
X85862514Y-128769623D01*
X85714313Y-128653322D01*
X85623963Y-128656952D01*
G36*
X89005833Y-114490130D02*
G01*
X79629000Y-114511666D01*
X79607411Y-122715269D01*
X79585821Y-130918872D01*
X79787002Y-131351269D01*
X79914090Y-131677091D01*
X80005682Y-132013821D01*
X80055647Y-132321065D01*
X80057855Y-132558428D01*
X80006174Y-132685515D01*
X79990730Y-132693543D01*
X79928283Y-132749391D01*
X79993815Y-132864001D01*
X79999083Y-132870422D01*
X80058287Y-132983483D01*
X80075199Y-133155435D01*
X80051529Y-133429524D01*
X80027881Y-133599136D01*
X79994078Y-133933860D01*
X79985415Y-134336176D01*
X80002295Y-134837879D01*
X80045122Y-135470766D01*
X80052896Y-135567778D01*
X80093412Y-136041158D01*
X80133082Y-136460607D01*
X80168636Y-136794642D01*
X80196801Y-137011781D01*
X80209599Y-137075333D01*
X80249613Y-137224795D01*
X80306272Y-137477176D01*
X80349670Y-137689166D01*
X80411120Y-137949242D01*
X80472645Y-138125882D01*
X80511760Y-138176000D01*
X80552292Y-138098777D01*
X80595257Y-137896095D01*
X80631496Y-137611429D01*
X80632155Y-137604500D01*
X80661837Y-137210144D01*
X80681697Y-136793326D01*
X80686732Y-136540400D01*
X80696534Y-136261425D01*
X80726620Y-135891459D01*
X80778889Y-135414143D01*
X80855236Y-134813120D01*
X80957560Y-134072033D01*
X81036960Y-133520764D01*
X81113298Y-133124289D01*
X81204124Y-132869684D01*
X81268171Y-132788331D01*
X81393652Y-132652600D01*
X81491716Y-132503333D01*
X81026000Y-132503333D01*
X80966132Y-132644837D01*
X80856667Y-132672666D01*
X80715163Y-132612798D01*
X80687333Y-132503333D01*
X80747202Y-132361829D01*
X80856667Y-132334000D01*
X80998171Y-132393868D01*
X81026000Y-132503333D01*
X81491716Y-132503333D01*
X81536404Y-132435313D01*
X81575523Y-132363566D01*
X81697338Y-132149174D01*
X81799896Y-132003901D01*
X81824079Y-131980619D01*
X81845282Y-131877745D01*
X81793356Y-131790119D01*
X81737216Y-131682342D01*
X81771586Y-131656666D01*
X81949995Y-131578843D01*
X82071417Y-131359914D01*
X82125033Y-131021695D01*
X82126667Y-130940827D01*
X82114319Y-130662822D01*
X82069130Y-130512280D01*
X81978877Y-130448589D01*
X81978500Y-130448480D01*
X81770038Y-130378738D01*
X81668741Y-130339728D01*
X81560517Y-130313561D01*
X81535535Y-130387640D01*
X81557867Y-130527165D01*
X81567460Y-130765089D01*
X81531836Y-131065038D01*
X81506319Y-131181628D01*
X81404054Y-131582506D01*
X81210833Y-131376832D01*
X81076922Y-131137772D01*
X81012406Y-130814205D01*
X81012349Y-130740515D01*
X80537156Y-130740515D01*
X80536307Y-130986468D01*
X80505239Y-131176046D01*
X80489233Y-131211382D01*
X80369131Y-131270546D01*
X80195161Y-131240597D01*
X80040188Y-131144732D01*
X79981761Y-131049824D01*
X79972334Y-130820352D01*
X80041225Y-130598755D01*
X80161120Y-130423453D01*
X80304707Y-130332861D01*
X80444673Y-130365397D01*
X80459037Y-130378503D01*
X80510496Y-130512943D01*
X80537156Y-130740515D01*
X81012349Y-130740515D01*
X81012125Y-130452631D01*
X81070920Y-130099548D01*
X81183632Y-129801457D01*
X81345102Y-129604858D01*
X81411427Y-129568918D01*
X81502124Y-129446211D01*
X81533998Y-129180990D01*
X81534000Y-129178163D01*
X81545360Y-128978500D01*
X81573890Y-128885768D01*
X81587573Y-128888017D01*
X81669420Y-128866557D01*
X81797343Y-128742619D01*
X81811331Y-128725236D01*
X81998364Y-128564443D01*
X82159924Y-128551271D01*
X82397022Y-128607509D01*
X82527053Y-128638292D01*
X82693948Y-128642956D01*
X82764883Y-128603462D01*
X82894683Y-128533372D01*
X83102249Y-128534608D01*
X83315130Y-128600338D01*
X83411511Y-128664433D01*
X83554062Y-128755236D01*
X83711970Y-128735673D01*
X83793951Y-128701319D01*
X84016728Y-128634309D01*
X84344427Y-128574853D01*
X84712643Y-128531848D01*
X85056969Y-128514193D01*
X85142091Y-128515054D01*
X85333434Y-128459029D01*
X85472713Y-128352773D01*
X85561809Y-128231708D01*
X85558422Y-128185333D01*
X85547097Y-128133829D01*
X85591669Y-128065961D01*
X85637147Y-127953327D01*
X85542957Y-127843598D01*
X85517908Y-127825533D01*
X85406516Y-127716780D01*
X85398341Y-127651214D01*
X85395974Y-127550729D01*
X85319294Y-127396020D01*
X85211849Y-127170622D01*
X85131856Y-126899643D01*
X85128894Y-126884442D01*
X85072219Y-126669749D01*
X85007152Y-126538308D01*
X84995735Y-126528401D01*
X84945394Y-126420342D01*
X84921075Y-126216974D01*
X84920667Y-126185828D01*
X84902065Y-125942481D01*
X84854591Y-125646009D01*
X84790742Y-125355226D01*
X84723016Y-125128945D01*
X84676322Y-125035935D01*
X84652595Y-124925022D01*
X84646183Y-124701319D01*
X84653550Y-124503082D01*
X84676694Y-124237950D01*
X84710919Y-124114215D01*
X84767260Y-124103940D01*
X84801716Y-124128013D01*
X84864583Y-124163778D01*
X84906305Y-124129211D01*
X84932332Y-123998893D01*
X84948111Y-123747403D01*
X84958000Y-123398950D01*
X85035568Y-123127000D01*
X85251003Y-122792784D01*
X85291079Y-122742784D01*
X85493069Y-122513961D01*
X85651893Y-122393550D01*
X85818889Y-122349454D01*
X85925699Y-122346026D01*
X86115924Y-122356112D01*
X86160410Y-122391053D01*
X86099719Y-122451859D01*
X85990523Y-122602871D01*
X85904678Y-122841341D01*
X85847405Y-123121988D01*
X85823925Y-123399532D01*
X85839459Y-123628691D01*
X85899227Y-123764186D01*
X85946276Y-123782666D01*
X86012909Y-123851383D01*
X86021333Y-123909666D01*
X86080160Y-124014556D01*
X86203787Y-124027668D01*
X86312939Y-123946189D01*
X86325247Y-123920443D01*
X86420039Y-123819850D01*
X86618807Y-123680421D01*
X86809423Y-123570138D01*
X87114838Y-123387075D01*
X87407517Y-123179099D01*
X87534787Y-123072529D01*
X87698403Y-122929519D01*
X87758613Y-122902428D01*
X87729654Y-122985382D01*
X87725287Y-122993933D01*
X87645576Y-123170363D01*
X87672191Y-123232069D01*
X87828812Y-123205374D01*
X87898034Y-123185975D01*
X88166069Y-123109103D01*
X87940368Y-123344684D01*
X87764743Y-123549984D01*
X87721744Y-123664535D01*
X87799333Y-123698000D01*
X87873306Y-123627910D01*
X87888441Y-123549833D01*
X87906162Y-123464994D01*
X87968479Y-123513745D01*
X88025768Y-123592166D01*
X88159520Y-123725084D01*
X88296444Y-123784241D01*
X88383243Y-123752238D01*
X88392000Y-123711718D01*
X88466419Y-123661474D01*
X88648734Y-123631544D01*
X88680315Y-123629931D01*
X88972689Y-123679877D01*
X89279020Y-123865774D01*
X89284624Y-123870212D01*
X89580478Y-124071458D01*
X89795343Y-124131953D01*
X89938420Y-124046036D01*
X90018908Y-123808047D01*
X90046008Y-123412323D01*
X90046074Y-123401666D01*
X90066738Y-123029743D01*
X90118970Y-122731486D01*
X90169255Y-122597333D01*
X90251373Y-122393322D01*
X90267963Y-122245000D01*
X90295086Y-122093641D01*
X90335282Y-122049503D01*
X90414658Y-121925468D01*
X90424000Y-121859494D01*
X90446610Y-121782499D01*
X89635912Y-121782499D01*
X89604426Y-121896868D01*
X89481694Y-121988024D01*
X89262690Y-122090872D01*
X88902050Y-122208150D01*
X88528134Y-122226796D01*
X88083705Y-122148090D01*
X87977358Y-122119676D01*
X87838769Y-122095454D01*
X87803845Y-122161393D01*
X87830449Y-122309029D01*
X87859133Y-122450123D01*
X87842416Y-122482476D01*
X87758066Y-122398418D01*
X87623046Y-122237500D01*
X87440673Y-122049064D01*
X87277320Y-121931725D01*
X87219621Y-121913315D01*
X87141128Y-121893081D01*
X87189034Y-121862748D01*
X87254265Y-121795909D01*
X87199834Y-121700099D01*
X87153489Y-121600918D01*
X87235662Y-121584763D01*
X87427525Y-121651221D01*
X87544011Y-121707649D01*
X87836135Y-121788493D01*
X87980935Y-121762697D01*
X88073796Y-121716764D01*
X88058305Y-121670903D01*
X87914225Y-121607332D01*
X87733458Y-121545241D01*
X87399135Y-121418015D01*
X87231195Y-121310128D01*
X87228552Y-121215874D01*
X87390119Y-121129549D01*
X87520317Y-121094206D01*
X86542676Y-121094206D01*
X86449007Y-121303506D01*
X86286389Y-121460576D01*
X86135837Y-121489366D01*
X86037978Y-121391742D01*
X86021333Y-121283851D01*
X86066653Y-121024771D01*
X86090386Y-120988666D01*
X85598000Y-120988666D01*
X85538132Y-121130170D01*
X85428667Y-121158000D01*
X85287163Y-121098131D01*
X85259333Y-120988666D01*
X85319202Y-120847162D01*
X85428667Y-120819333D01*
X85570171Y-120879201D01*
X85598000Y-120988666D01*
X86090386Y-120988666D01*
X86183296Y-120847328D01*
X86342285Y-120792121D01*
X86368717Y-120797080D01*
X86518437Y-120905565D01*
X86542676Y-121094206D01*
X87520317Y-121094206D01*
X87641241Y-121061381D01*
X87944816Y-120975890D01*
X88112258Y-120869289D01*
X88176343Y-120708516D01*
X88175526Y-120522455D01*
X88172439Y-120327175D01*
X88195196Y-120229305D01*
X88201593Y-120226666D01*
X88471118Y-120252051D01*
X88790096Y-120317571D01*
X89101683Y-120407278D01*
X89349033Y-120505223D01*
X89464525Y-120581014D01*
X89564193Y-120709300D01*
X89545574Y-120799762D01*
X89426581Y-120905979D01*
X89298803Y-121021706D01*
X89297971Y-121095804D01*
X89393268Y-121173069D01*
X89514130Y-121328542D01*
X89602339Y-121562435D01*
X89609641Y-121597274D01*
X89635912Y-121782499D01*
X90446610Y-121782499D01*
X90479240Y-121671389D01*
X90615186Y-121467980D01*
X90787178Y-121298954D01*
X90950556Y-121214000D01*
X91003543Y-121214702D01*
X91159957Y-121194284D01*
X91211032Y-121130223D01*
X91276207Y-121055057D01*
X91418227Y-121046978D01*
X91604688Y-121081715D01*
X91890213Y-121128105D01*
X92177320Y-121146528D01*
X92425470Y-121138687D01*
X92594121Y-121106282D01*
X92642733Y-121051012D01*
X92635379Y-121038476D01*
X92573850Y-120899487D01*
X92514204Y-120673284D01*
X92503942Y-120620334D01*
X92484992Y-120355632D01*
X92554014Y-120177138D01*
X92582755Y-120142270D01*
X92674791Y-119958256D01*
X92721229Y-119704651D01*
X92722499Y-119663936D01*
X92693832Y-119387002D01*
X92617399Y-119105339D01*
X92512603Y-118868045D01*
X92398847Y-118724218D01*
X92342623Y-118702666D01*
X92213011Y-118645394D01*
X92047046Y-118506009D01*
X92032667Y-118491000D01*
X91839173Y-118344091D01*
X91644236Y-118279473D01*
X91636908Y-118279333D01*
X91484998Y-118248383D01*
X91440000Y-118194666D01*
X91371424Y-118119552D01*
X91313000Y-118110000D01*
X91200599Y-118049200D01*
X91186000Y-117996551D01*
X91112265Y-117906015D01*
X90926356Y-117810372D01*
X90826167Y-117776067D01*
X90561818Y-117694490D01*
X90342219Y-117621823D01*
X90297000Y-117605528D01*
X90085862Y-117562450D01*
X89979500Y-117564520D01*
X89854905Y-117547899D01*
X89831333Y-117509841D01*
X89756202Y-117454026D01*
X89557999Y-117439471D01*
X89277516Y-117464735D01*
X88955540Y-117528374D01*
X88900000Y-117542801D01*
X88576059Y-117642728D01*
X88393377Y-117737806D01*
X88325568Y-117847040D01*
X88334364Y-117950222D01*
X88324063Y-118079648D01*
X88212645Y-118110000D01*
X88054308Y-118186285D01*
X87966730Y-118326761D01*
X87882735Y-118468162D01*
X87805344Y-118494714D01*
X87698241Y-118514573D01*
X87534049Y-118625695D01*
X87496488Y-118658953D01*
X87319777Y-118799642D01*
X87182482Y-118870112D01*
X87167239Y-118872000D01*
X87060319Y-118929544D01*
X86904005Y-119065719D01*
X86753305Y-119225839D01*
X86663229Y-119355216D01*
X86656243Y-119380000D01*
X86614632Y-119480447D01*
X86586540Y-119528166D01*
X86572670Y-119620804D01*
X86609003Y-119634000D01*
X86681835Y-119704864D01*
X86698667Y-119803333D01*
X86663211Y-119940913D01*
X86614000Y-119972666D01*
X86537511Y-120040629D01*
X86529333Y-120091384D01*
X86457652Y-120199933D01*
X86285098Y-120295239D01*
X86283321Y-120295862D01*
X86088818Y-120412053D01*
X85981282Y-120558144D01*
X85870673Y-120707875D01*
X85701295Y-120712326D01*
X85533243Y-120597338D01*
X85443470Y-120479502D01*
X85484647Y-120392353D01*
X85518124Y-120364505D01*
X85593754Y-120230077D01*
X85632829Y-119962325D01*
X85640333Y-119688769D01*
X85662016Y-119276275D01*
X85731440Y-118992253D01*
X85787942Y-118884436D01*
X85893977Y-118677729D01*
X85936109Y-118509509D01*
X85998742Y-118355951D01*
X86063181Y-118310137D01*
X86149942Y-118231611D01*
X86144387Y-118188281D01*
X86148963Y-118070459D01*
X86220524Y-117880715D01*
X86231714Y-117858486D01*
X86313558Y-117685749D01*
X86304444Y-117615692D01*
X86193958Y-117602044D01*
X86173989Y-117602000D01*
X86100536Y-117585551D01*
X86106257Y-117522819D01*
X86204232Y-117393722D01*
X86407541Y-117178179D01*
X86531648Y-117052872D01*
X87049358Y-116594041D01*
X87525576Y-116297380D01*
X87962762Y-116161527D01*
X88160478Y-116153089D01*
X88416565Y-116133417D01*
X88527777Y-116043325D01*
X88634270Y-115936665D01*
X88838748Y-115824137D01*
X89078492Y-115730833D01*
X89290783Y-115681844D01*
X89402284Y-115693467D01*
X89500496Y-115666612D01*
X89622304Y-115523634D01*
X89641623Y-115491353D01*
X89770628Y-115304000D01*
X89869900Y-115230221D01*
X89915311Y-115286461D01*
X89916000Y-115304352D01*
X89990291Y-115340179D01*
X90174833Y-115354717D01*
X90412135Y-115349817D01*
X90644705Y-115327329D01*
X90815049Y-115289103D01*
X90846124Y-115274414D01*
X90978337Y-115251967D01*
X91214059Y-115257886D01*
X91380402Y-115275226D01*
X91729211Y-115369857D01*
X92152003Y-115556767D01*
X92602551Y-115808975D01*
X93034626Y-116099501D01*
X93402001Y-116401363D01*
X93530772Y-116530315D01*
X93777075Y-116783686D01*
X94076084Y-117072440D01*
X94289939Y-117268407D01*
X94671922Y-117683466D01*
X95010406Y-118220643D01*
X95065610Y-118326740D01*
X95406703Y-118999000D01*
X95448502Y-120239254D01*
X95461814Y-121026369D01*
X95441211Y-121676972D01*
X95383375Y-122221099D01*
X95284989Y-122688783D01*
X95142735Y-123110059D01*
X95127275Y-123147666D01*
X95013780Y-123462218D01*
X94936078Y-123758653D01*
X94913343Y-123933552D01*
X94846158Y-124327822D01*
X94666465Y-124757914D01*
X94448556Y-125098737D01*
X94120978Y-125590588D01*
X93892016Y-126067743D01*
X93780012Y-126490929D01*
X93774893Y-126541252D01*
X93724937Y-126818447D01*
X93603447Y-127075251D01*
X93396478Y-127357227D01*
X93218396Y-127583813D01*
X93093489Y-127757403D01*
X93050112Y-127836898D01*
X93122069Y-127895626D01*
X93307024Y-127994340D01*
X93505399Y-128085381D01*
X93929883Y-128334815D01*
X94160121Y-128584304D01*
X94323050Y-128780613D01*
X94535205Y-128919418D01*
X94855050Y-129038539D01*
X94869000Y-129042843D01*
X95182121Y-129127362D01*
X95466249Y-129184522D01*
X95618205Y-129200086D01*
X95890574Y-129243374D01*
X96165021Y-129351103D01*
X96381934Y-129493972D01*
X96476872Y-129622162D01*
X96559302Y-129721346D01*
X96752401Y-129788431D01*
X97009151Y-129827479D01*
X97382629Y-129900122D01*
X97776390Y-130021696D01*
X97938167Y-130088257D01*
X98382667Y-130294209D01*
X98382667Y-114468594D01*
X89005833Y-114490130D01*
X89005833Y-114490130D01*
G37*
X89005833Y-114490130D02*
X79629000Y-114511666D01*
X79607411Y-122715269D01*
X79585821Y-130918872D01*
X79787002Y-131351269D01*
X79914090Y-131677091D01*
X80005682Y-132013821D01*
X80055647Y-132321065D01*
X80057855Y-132558428D01*
X80006174Y-132685515D01*
X79990730Y-132693543D01*
X79928283Y-132749391D01*
X79993815Y-132864001D01*
X79999083Y-132870422D01*
X80058287Y-132983483D01*
X80075199Y-133155435D01*
X80051529Y-133429524D01*
X80027881Y-133599136D01*
X79994078Y-133933860D01*
X79985415Y-134336176D01*
X80002295Y-134837879D01*
X80045122Y-135470766D01*
X80052896Y-135567778D01*
X80093412Y-136041158D01*
X80133082Y-136460607D01*
X80168636Y-136794642D01*
X80196801Y-137011781D01*
X80209599Y-137075333D01*
X80249613Y-137224795D01*
X80306272Y-137477176D01*
X80349670Y-137689166D01*
X80411120Y-137949242D01*
X80472645Y-138125882D01*
X80511760Y-138176000D01*
X80552292Y-138098777D01*
X80595257Y-137896095D01*
X80631496Y-137611429D01*
X80632155Y-137604500D01*
X80661837Y-137210144D01*
X80681697Y-136793326D01*
X80686732Y-136540400D01*
X80696534Y-136261425D01*
X80726620Y-135891459D01*
X80778889Y-135414143D01*
X80855236Y-134813120D01*
X80957560Y-134072033D01*
X81036960Y-133520764D01*
X81113298Y-133124289D01*
X81204124Y-132869684D01*
X81268171Y-132788331D01*
X81393652Y-132652600D01*
X81491716Y-132503333D01*
X81026000Y-132503333D01*
X80966132Y-132644837D01*
X80856667Y-132672666D01*
X80715163Y-132612798D01*
X80687333Y-132503333D01*
X80747202Y-132361829D01*
X80856667Y-132334000D01*
X80998171Y-132393868D01*
X81026000Y-132503333D01*
X81491716Y-132503333D01*
X81536404Y-132435313D01*
X81575523Y-132363566D01*
X81697338Y-132149174D01*
X81799896Y-132003901D01*
X81824079Y-131980619D01*
X81845282Y-131877745D01*
X81793356Y-131790119D01*
X81737216Y-131682342D01*
X81771586Y-131656666D01*
X81949995Y-131578843D01*
X82071417Y-131359914D01*
X82125033Y-131021695D01*
X82126667Y-130940827D01*
X82114319Y-130662822D01*
X82069130Y-130512280D01*
X81978877Y-130448589D01*
X81978500Y-130448480D01*
X81770038Y-130378738D01*
X81668741Y-130339728D01*
X81560517Y-130313561D01*
X81535535Y-130387640D01*
X81557867Y-130527165D01*
X81567460Y-130765089D01*
X81531836Y-131065038D01*
X81506319Y-131181628D01*
X81404054Y-131582506D01*
X81210833Y-131376832D01*
X81076922Y-131137772D01*
X81012406Y-130814205D01*
X81012349Y-130740515D01*
X80537156Y-130740515D01*
X80536307Y-130986468D01*
X80505239Y-131176046D01*
X80489233Y-131211382D01*
X80369131Y-131270546D01*
X80195161Y-131240597D01*
X80040188Y-131144732D01*
X79981761Y-131049824D01*
X79972334Y-130820352D01*
X80041225Y-130598755D01*
X80161120Y-130423453D01*
X80304707Y-130332861D01*
X80444673Y-130365397D01*
X80459037Y-130378503D01*
X80510496Y-130512943D01*
X80537156Y-130740515D01*
X81012349Y-130740515D01*
X81012125Y-130452631D01*
X81070920Y-130099548D01*
X81183632Y-129801457D01*
X81345102Y-129604858D01*
X81411427Y-129568918D01*
X81502124Y-129446211D01*
X81533998Y-129180990D01*
X81534000Y-129178163D01*
X81545360Y-128978500D01*
X81573890Y-128885768D01*
X81587573Y-128888017D01*
X81669420Y-128866557D01*
X81797343Y-128742619D01*
X81811331Y-128725236D01*
X81998364Y-128564443D01*
X82159924Y-128551271D01*
X82397022Y-128607509D01*
X82527053Y-128638292D01*
X82693948Y-128642956D01*
X82764883Y-128603462D01*
X82894683Y-128533372D01*
X83102249Y-128534608D01*
X83315130Y-128600338D01*
X83411511Y-128664433D01*
X83554062Y-128755236D01*
X83711970Y-128735673D01*
X83793951Y-128701319D01*
X84016728Y-128634309D01*
X84344427Y-128574853D01*
X84712643Y-128531848D01*
X85056969Y-128514193D01*
X85142091Y-128515054D01*
X85333434Y-128459029D01*
X85472713Y-128352773D01*
X85561809Y-128231708D01*
X85558422Y-128185333D01*
X85547097Y-128133829D01*
X85591669Y-128065961D01*
X85637147Y-127953327D01*
X85542957Y-127843598D01*
X85517908Y-127825533D01*
X85406516Y-127716780D01*
X85398341Y-127651214D01*
X85395974Y-127550729D01*
X85319294Y-127396020D01*
X85211849Y-127170622D01*
X85131856Y-126899643D01*
X85128894Y-126884442D01*
X85072219Y-126669749D01*
X85007152Y-126538308D01*
X84995735Y-126528401D01*
X84945394Y-126420342D01*
X84921075Y-126216974D01*
X84920667Y-126185828D01*
X84902065Y-125942481D01*
X84854591Y-125646009D01*
X84790742Y-125355226D01*
X84723016Y-125128945D01*
X84676322Y-125035935D01*
X84652595Y-124925022D01*
X84646183Y-124701319D01*
X84653550Y-124503082D01*
X84676694Y-124237950D01*
X84710919Y-124114215D01*
X84767260Y-124103940D01*
X84801716Y-124128013D01*
X84864583Y-124163778D01*
X84906305Y-124129211D01*
X84932332Y-123998893D01*
X84948111Y-123747403D01*
X84958000Y-123398950D01*
X85035568Y-123127000D01*
X85251003Y-122792784D01*
X85291079Y-122742784D01*
X85493069Y-122513961D01*
X85651893Y-122393550D01*
X85818889Y-122349454D01*
X85925699Y-122346026D01*
X86115924Y-122356112D01*
X86160410Y-122391053D01*
X86099719Y-122451859D01*
X85990523Y-122602871D01*
X85904678Y-122841341D01*
X85847405Y-123121988D01*
X85823925Y-123399532D01*
X85839459Y-123628691D01*
X85899227Y-123764186D01*
X85946276Y-123782666D01*
X86012909Y-123851383D01*
X86021333Y-123909666D01*
X86080160Y-124014556D01*
X86203787Y-124027668D01*
X86312939Y-123946189D01*
X86325247Y-123920443D01*
X86420039Y-123819850D01*
X86618807Y-123680421D01*
X86809423Y-123570138D01*
X87114838Y-123387075D01*
X87407517Y-123179099D01*
X87534787Y-123072529D01*
X87698403Y-122929519D01*
X87758613Y-122902428D01*
X87729654Y-122985382D01*
X87725287Y-122993933D01*
X87645576Y-123170363D01*
X87672191Y-123232069D01*
X87828812Y-123205374D01*
X87898034Y-123185975D01*
X88166069Y-123109103D01*
X87940368Y-123344684D01*
X87764743Y-123549984D01*
X87721744Y-123664535D01*
X87799333Y-123698000D01*
X87873306Y-123627910D01*
X87888441Y-123549833D01*
X87906162Y-123464994D01*
X87968479Y-123513745D01*
X88025768Y-123592166D01*
X88159520Y-123725084D01*
X88296444Y-123784241D01*
X88383243Y-123752238D01*
X88392000Y-123711718D01*
X88466419Y-123661474D01*
X88648734Y-123631544D01*
X88680315Y-123629931D01*
X88972689Y-123679877D01*
X89279020Y-123865774D01*
X89284624Y-123870212D01*
X89580478Y-124071458D01*
X89795343Y-124131953D01*
X89938420Y-124046036D01*
X90018908Y-123808047D01*
X90046008Y-123412323D01*
X90046074Y-123401666D01*
X90066738Y-123029743D01*
X90118970Y-122731486D01*
X90169255Y-122597333D01*
X90251373Y-122393322D01*
X90267963Y-122245000D01*
X90295086Y-122093641D01*
X90335282Y-122049503D01*
X90414658Y-121925468D01*
X90424000Y-121859494D01*
X90446610Y-121782499D01*
X89635912Y-121782499D01*
X89604426Y-121896868D01*
X89481694Y-121988024D01*
X89262690Y-122090872D01*
X88902050Y-122208150D01*
X88528134Y-122226796D01*
X88083705Y-122148090D01*
X87977358Y-122119676D01*
X87838769Y-122095454D01*
X87803845Y-122161393D01*
X87830449Y-122309029D01*
X87859133Y-122450123D01*
X87842416Y-122482476D01*
X87758066Y-122398418D01*
X87623046Y-122237500D01*
X87440673Y-122049064D01*
X87277320Y-121931725D01*
X87219621Y-121913315D01*
X87141128Y-121893081D01*
X87189034Y-121862748D01*
X87254265Y-121795909D01*
X87199834Y-121700099D01*
X87153489Y-121600918D01*
X87235662Y-121584763D01*
X87427525Y-121651221D01*
X87544011Y-121707649D01*
X87836135Y-121788493D01*
X87980935Y-121762697D01*
X88073796Y-121716764D01*
X88058305Y-121670903D01*
X87914225Y-121607332D01*
X87733458Y-121545241D01*
X87399135Y-121418015D01*
X87231195Y-121310128D01*
X87228552Y-121215874D01*
X87390119Y-121129549D01*
X87520317Y-121094206D01*
X86542676Y-121094206D01*
X86449007Y-121303506D01*
X86286389Y-121460576D01*
X86135837Y-121489366D01*
X86037978Y-121391742D01*
X86021333Y-121283851D01*
X86066653Y-121024771D01*
X86090386Y-120988666D01*
X85598000Y-120988666D01*
X85538132Y-121130170D01*
X85428667Y-121158000D01*
X85287163Y-121098131D01*
X85259333Y-120988666D01*
X85319202Y-120847162D01*
X85428667Y-120819333D01*
X85570171Y-120879201D01*
X85598000Y-120988666D01*
X86090386Y-120988666D01*
X86183296Y-120847328D01*
X86342285Y-120792121D01*
X86368717Y-120797080D01*
X86518437Y-120905565D01*
X86542676Y-121094206D01*
X87520317Y-121094206D01*
X87641241Y-121061381D01*
X87944816Y-120975890D01*
X88112258Y-120869289D01*
X88176343Y-120708516D01*
X88175526Y-120522455D01*
X88172439Y-120327175D01*
X88195196Y-120229305D01*
X88201593Y-120226666D01*
X88471118Y-120252051D01*
X88790096Y-120317571D01*
X89101683Y-120407278D01*
X89349033Y-120505223D01*
X89464525Y-120581014D01*
X89564193Y-120709300D01*
X89545574Y-120799762D01*
X89426581Y-120905979D01*
X89298803Y-121021706D01*
X89297971Y-121095804D01*
X89393268Y-121173069D01*
X89514130Y-121328542D01*
X89602339Y-121562435D01*
X89609641Y-121597274D01*
X89635912Y-121782499D01*
X90446610Y-121782499D01*
X90479240Y-121671389D01*
X90615186Y-121467980D01*
X90787178Y-121298954D01*
X90950556Y-121214000D01*
X91003543Y-121214702D01*
X91159957Y-121194284D01*
X91211032Y-121130223D01*
X91276207Y-121055057D01*
X91418227Y-121046978D01*
X91604688Y-121081715D01*
X91890213Y-121128105D01*
X92177320Y-121146528D01*
X92425470Y-121138687D01*
X92594121Y-121106282D01*
X92642733Y-121051012D01*
X92635379Y-121038476D01*
X92573850Y-120899487D01*
X92514204Y-120673284D01*
X92503942Y-120620334D01*
X92484992Y-120355632D01*
X92554014Y-120177138D01*
X92582755Y-120142270D01*
X92674791Y-119958256D01*
X92721229Y-119704651D01*
X92722499Y-119663936D01*
X92693832Y-119387002D01*
X92617399Y-119105339D01*
X92512603Y-118868045D01*
X92398847Y-118724218D01*
X92342623Y-118702666D01*
X92213011Y-118645394D01*
X92047046Y-118506009D01*
X92032667Y-118491000D01*
X91839173Y-118344091D01*
X91644236Y-118279473D01*
X91636908Y-118279333D01*
X91484998Y-118248383D01*
X91440000Y-118194666D01*
X91371424Y-118119552D01*
X91313000Y-118110000D01*
X91200599Y-118049200D01*
X91186000Y-117996551D01*
X91112265Y-117906015D01*
X90926356Y-117810372D01*
X90826167Y-117776067D01*
X90561818Y-117694490D01*
X90342219Y-117621823D01*
X90297000Y-117605528D01*
X90085862Y-117562450D01*
X89979500Y-117564520D01*
X89854905Y-117547899D01*
X89831333Y-117509841D01*
X89756202Y-117454026D01*
X89557999Y-117439471D01*
X89277516Y-117464735D01*
X88955540Y-117528374D01*
X88900000Y-117542801D01*
X88576059Y-117642728D01*
X88393377Y-117737806D01*
X88325568Y-117847040D01*
X88334364Y-117950222D01*
X88324063Y-118079648D01*
X88212645Y-118110000D01*
X88054308Y-118186285D01*
X87966730Y-118326761D01*
X87882735Y-118468162D01*
X87805344Y-118494714D01*
X87698241Y-118514573D01*
X87534049Y-118625695D01*
X87496488Y-118658953D01*
X87319777Y-118799642D01*
X87182482Y-118870112D01*
X87167239Y-118872000D01*
X87060319Y-118929544D01*
X86904005Y-119065719D01*
X86753305Y-119225839D01*
X86663229Y-119355216D01*
X86656243Y-119380000D01*
X86614632Y-119480447D01*
X86586540Y-119528166D01*
X86572670Y-119620804D01*
X86609003Y-119634000D01*
X86681835Y-119704864D01*
X86698667Y-119803333D01*
X86663211Y-119940913D01*
X86614000Y-119972666D01*
X86537511Y-120040629D01*
X86529333Y-120091384D01*
X86457652Y-120199933D01*
X86285098Y-120295239D01*
X86283321Y-120295862D01*
X86088818Y-120412053D01*
X85981282Y-120558144D01*
X85870673Y-120707875D01*
X85701295Y-120712326D01*
X85533243Y-120597338D01*
X85443470Y-120479502D01*
X85484647Y-120392353D01*
X85518124Y-120364505D01*
X85593754Y-120230077D01*
X85632829Y-119962325D01*
X85640333Y-119688769D01*
X85662016Y-119276275D01*
X85731440Y-118992253D01*
X85787942Y-118884436D01*
X85893977Y-118677729D01*
X85936109Y-118509509D01*
X85998742Y-118355951D01*
X86063181Y-118310137D01*
X86149942Y-118231611D01*
X86144387Y-118188281D01*
X86148963Y-118070459D01*
X86220524Y-117880715D01*
X86231714Y-117858486D01*
X86313558Y-117685749D01*
X86304444Y-117615692D01*
X86193958Y-117602044D01*
X86173989Y-117602000D01*
X86100536Y-117585551D01*
X86106257Y-117522819D01*
X86204232Y-117393722D01*
X86407541Y-117178179D01*
X86531648Y-117052872D01*
X87049358Y-116594041D01*
X87525576Y-116297380D01*
X87962762Y-116161527D01*
X88160478Y-116153089D01*
X88416565Y-116133417D01*
X88527777Y-116043325D01*
X88634270Y-115936665D01*
X88838748Y-115824137D01*
X89078492Y-115730833D01*
X89290783Y-115681844D01*
X89402284Y-115693467D01*
X89500496Y-115666612D01*
X89622304Y-115523634D01*
X89641623Y-115491353D01*
X89770628Y-115304000D01*
X89869900Y-115230221D01*
X89915311Y-115286461D01*
X89916000Y-115304352D01*
X89990291Y-115340179D01*
X90174833Y-115354717D01*
X90412135Y-115349817D01*
X90644705Y-115327329D01*
X90815049Y-115289103D01*
X90846124Y-115274414D01*
X90978337Y-115251967D01*
X91214059Y-115257886D01*
X91380402Y-115275226D01*
X91729211Y-115369857D01*
X92152003Y-115556767D01*
X92602551Y-115808975D01*
X93034626Y-116099501D01*
X93402001Y-116401363D01*
X93530772Y-116530315D01*
X93777075Y-116783686D01*
X94076084Y-117072440D01*
X94289939Y-117268407D01*
X94671922Y-117683466D01*
X95010406Y-118220643D01*
X95065610Y-118326740D01*
X95406703Y-118999000D01*
X95448502Y-120239254D01*
X95461814Y-121026369D01*
X95441211Y-121676972D01*
X95383375Y-122221099D01*
X95284989Y-122688783D01*
X95142735Y-123110059D01*
X95127275Y-123147666D01*
X95013780Y-123462218D01*
X94936078Y-123758653D01*
X94913343Y-123933552D01*
X94846158Y-124327822D01*
X94666465Y-124757914D01*
X94448556Y-125098737D01*
X94120978Y-125590588D01*
X93892016Y-126067743D01*
X93780012Y-126490929D01*
X93774893Y-126541252D01*
X93724937Y-126818447D01*
X93603447Y-127075251D01*
X93396478Y-127357227D01*
X93218396Y-127583813D01*
X93093489Y-127757403D01*
X93050112Y-127836898D01*
X93122069Y-127895626D01*
X93307024Y-127994340D01*
X93505399Y-128085381D01*
X93929883Y-128334815D01*
X94160121Y-128584304D01*
X94323050Y-128780613D01*
X94535205Y-128919418D01*
X94855050Y-129038539D01*
X94869000Y-129042843D01*
X95182121Y-129127362D01*
X95466249Y-129184522D01*
X95618205Y-129200086D01*
X95890574Y-129243374D01*
X96165021Y-129351103D01*
X96381934Y-129493972D01*
X96476872Y-129622162D01*
X96559302Y-129721346D01*
X96752401Y-129788431D01*
X97009151Y-129827479D01*
X97382629Y-129900122D01*
X97776390Y-130021696D01*
X97938167Y-130088257D01*
X98382667Y-130294209D01*
X98382667Y-114468594D01*
X89005833Y-114490130D01*
G36*
X90618637Y-137731977D02*
G01*
X90575426Y-137920963D01*
X90575782Y-138117971D01*
X90650330Y-138176000D01*
X90733798Y-138097547D01*
X90762667Y-137874669D01*
X90738990Y-137674552D01*
X90683306Y-137628885D01*
X90618637Y-137731977D01*
X90618637Y-137731977D01*
G37*
X90618637Y-137731977D02*
X90575426Y-137920963D01*
X90575782Y-138117971D01*
X90650330Y-138176000D01*
X90733798Y-138097547D01*
X90762667Y-137874669D01*
X90738990Y-137674552D01*
X90683306Y-137628885D01*
X90618637Y-137731977D01*
G36*
X91299260Y-139848166D02*
G01*
X91288078Y-140021508D01*
X91299260Y-140059833D01*
X91330163Y-140070469D01*
X91341965Y-139954000D01*
X91328660Y-139833804D01*
X91299260Y-139848166D01*
X91299260Y-139848166D01*
G37*
X91299260Y-139848166D02*
X91288078Y-140021508D01*
X91299260Y-140059833D01*
X91330163Y-140070469D01*
X91341965Y-139954000D01*
X91328660Y-139833804D01*
X91299260Y-139848166D01*
G36*
X83650667Y-140250333D02*
G01*
X83693000Y-140292666D01*
X83735333Y-140250333D01*
X83693000Y-140208000D01*
X83650667Y-140250333D01*
X83650667Y-140250333D01*
G37*
X83650667Y-140250333D02*
X83693000Y-140292666D01*
X83735333Y-140250333D01*
X83693000Y-140208000D01*
X83650667Y-140250333D01*
G36*
X79593420Y-140270300D02*
G01*
X79601625Y-140313833D01*
X79677378Y-140430912D01*
X79842063Y-140611083D01*
X80059841Y-140822069D01*
X80294874Y-141031593D01*
X80511326Y-141207379D01*
X80673358Y-141317150D01*
X80737462Y-141336794D01*
X80724145Y-141266480D01*
X80611346Y-141105785D01*
X80420352Y-140883029D01*
X80300740Y-140755734D01*
X79991973Y-140452928D01*
X79766641Y-140268228D01*
X79631529Y-140205923D01*
X79593420Y-140270300D01*
X79593420Y-140270300D01*
G37*
X79593420Y-140270300D02*
X79601625Y-140313833D01*
X79677378Y-140430912D01*
X79842063Y-140611083D01*
X80059841Y-140822069D01*
X80294874Y-141031593D01*
X80511326Y-141207379D01*
X80673358Y-141317150D01*
X80737462Y-141336794D01*
X80724145Y-141266480D01*
X80611346Y-141105785D01*
X80420352Y-140883029D01*
X80300740Y-140755734D01*
X79991973Y-140452928D01*
X79766641Y-140268228D01*
X79631529Y-140205923D01*
X79593420Y-140270300D01*
G36*
X81110667Y-141351000D02*
G01*
X81153000Y-141393333D01*
X81195333Y-141351000D01*
X81153000Y-141308666D01*
X81110667Y-141351000D01*
X81110667Y-141351000D01*
G37*
X81110667Y-141351000D02*
X81153000Y-141393333D01*
X81195333Y-141351000D01*
X81153000Y-141308666D01*
X81110667Y-141351000D01*
G36*
X97045840Y-134340859D02*
G01*
X96881137Y-134480920D01*
X96822643Y-134538431D01*
X96702354Y-134672497D01*
X96627789Y-134805184D01*
X96586864Y-134982145D01*
X96567494Y-135249037D01*
X96559940Y-135530912D01*
X96536472Y-136088144D01*
X96487804Y-136505142D01*
X96407796Y-136809929D01*
X96290307Y-137030528D01*
X96211188Y-137122448D01*
X96051245Y-137350071D01*
X96024048Y-137557432D01*
X96130525Y-137709286D01*
X96194878Y-137741107D01*
X96377755Y-137808758D01*
X96187314Y-137942148D01*
X96113761Y-138001504D01*
X96062089Y-138078181D01*
X96028461Y-138200321D01*
X96009045Y-138396066D01*
X96000006Y-138693557D01*
X95997510Y-139120936D01*
X95997485Y-139335423D01*
X95998097Y-140595307D01*
X96364882Y-141356956D01*
X96731667Y-142118604D01*
X97218500Y-141613982D01*
X97444423Y-141363280D01*
X97614621Y-141142945D01*
X97700366Y-140991240D01*
X97705333Y-140965597D01*
X97783180Y-140836478D01*
X97943320Y-140774236D01*
X98089677Y-140726169D01*
X98200077Y-140634170D01*
X98279374Y-140476970D01*
X98332422Y-140233300D01*
X98364076Y-139881889D01*
X98379191Y-139401468D01*
X98382667Y-138849349D01*
X98382667Y-137414000D01*
X98079606Y-137414000D01*
X97880594Y-137404492D01*
X97809395Y-137346581D01*
X97824541Y-137196181D01*
X97833916Y-137152795D01*
X97934667Y-136919261D01*
X98107099Y-136686835D01*
X98136976Y-136656795D01*
X98294800Y-136478567D01*
X98378799Y-136330011D01*
X98372996Y-136247292D01*
X98319167Y-136244454D01*
X98205721Y-136241741D01*
X97982814Y-136217792D01*
X97805458Y-136193391D01*
X97539041Y-136142204D01*
X97414179Y-136082706D01*
X97403169Y-136001667D01*
X97403292Y-136001345D01*
X97446894Y-135842526D01*
X97451333Y-135798408D01*
X97516613Y-135723614D01*
X97541041Y-135720666D01*
X97650486Y-135669915D01*
X97839947Y-135538779D01*
X98006708Y-135406404D01*
X98224034Y-135210818D01*
X98336741Y-135053374D01*
X98378163Y-134874017D01*
X98382667Y-134729070D01*
X98367111Y-134477409D01*
X98307849Y-134381785D01*
X98185986Y-134430728D01*
X98063505Y-134535333D01*
X97863555Y-134654465D01*
X97571522Y-134702115D01*
X97454874Y-134704666D01*
X97161909Y-134678887D01*
X97029315Y-134600869D01*
X97056063Y-134469593D01*
X97129600Y-134382933D01*
X97178138Y-134299222D01*
X97150767Y-134283685D01*
X97045840Y-134340859D01*
X97045840Y-134340859D01*
G37*
X97045840Y-134340859D02*
X96881137Y-134480920D01*
X96822643Y-134538431D01*
X96702354Y-134672497D01*
X96627789Y-134805184D01*
X96586864Y-134982145D01*
X96567494Y-135249037D01*
X96559940Y-135530912D01*
X96536472Y-136088144D01*
X96487804Y-136505142D01*
X96407796Y-136809929D01*
X96290307Y-137030528D01*
X96211188Y-137122448D01*
X96051245Y-137350071D01*
X96024048Y-137557432D01*
X96130525Y-137709286D01*
X96194878Y-137741107D01*
X96377755Y-137808758D01*
X96187314Y-137942148D01*
X96113761Y-138001504D01*
X96062089Y-138078181D01*
X96028461Y-138200321D01*
X96009045Y-138396066D01*
X96000006Y-138693557D01*
X95997510Y-139120936D01*
X95997485Y-139335423D01*
X95998097Y-140595307D01*
X96364882Y-141356956D01*
X96731667Y-142118604D01*
X97218500Y-141613982D01*
X97444423Y-141363280D01*
X97614621Y-141142945D01*
X97700366Y-140991240D01*
X97705333Y-140965597D01*
X97783180Y-140836478D01*
X97943320Y-140774236D01*
X98089677Y-140726169D01*
X98200077Y-140634170D01*
X98279374Y-140476970D01*
X98332422Y-140233300D01*
X98364076Y-139881889D01*
X98379191Y-139401468D01*
X98382667Y-138849349D01*
X98382667Y-137414000D01*
X98079606Y-137414000D01*
X97880594Y-137404492D01*
X97809395Y-137346581D01*
X97824541Y-137196181D01*
X97833916Y-137152795D01*
X97934667Y-136919261D01*
X98107099Y-136686835D01*
X98136976Y-136656795D01*
X98294800Y-136478567D01*
X98378799Y-136330011D01*
X98372996Y-136247292D01*
X98319167Y-136244454D01*
X98205721Y-136241741D01*
X97982814Y-136217792D01*
X97805458Y-136193391D01*
X97539041Y-136142204D01*
X97414179Y-136082706D01*
X97403169Y-136001667D01*
X97403292Y-136001345D01*
X97446894Y-135842526D01*
X97451333Y-135798408D01*
X97516613Y-135723614D01*
X97541041Y-135720666D01*
X97650486Y-135669915D01*
X97839947Y-135538779D01*
X98006708Y-135406404D01*
X98224034Y-135210818D01*
X98336741Y-135053374D01*
X98378163Y-134874017D01*
X98382667Y-134729070D01*
X98367111Y-134477409D01*
X98307849Y-134381785D01*
X98185986Y-134430728D01*
X98063505Y-134535333D01*
X97863555Y-134654465D01*
X97571522Y-134702115D01*
X97454874Y-134704666D01*
X97161909Y-134678887D01*
X97029315Y-134600869D01*
X97056063Y-134469593D01*
X97129600Y-134382933D01*
X97178138Y-134299222D01*
X97150767Y-134283685D01*
X97045840Y-134340859D01*
G36*
X91949169Y-142730712D02*
G01*
X91917382Y-142790333D01*
X91918912Y-142902860D01*
X92010508Y-142900683D01*
X92060889Y-142860888D01*
X92115439Y-142744089D01*
X92066469Y-142666816D01*
X92041725Y-142663333D01*
X91949169Y-142730712D01*
X91949169Y-142730712D01*
G37*
X91949169Y-142730712D02*
X91917382Y-142790333D01*
X91918912Y-142902860D01*
X92010508Y-142900683D01*
X92060889Y-142860888D01*
X92115439Y-142744089D01*
X92066469Y-142666816D01*
X92041725Y-142663333D01*
X91949169Y-142730712D01*
G36*
X83589880Y-137830025D02*
G01*
X83531150Y-138553835D01*
X83472421Y-139277646D01*
X83874025Y-139742823D01*
X84275630Y-140208000D01*
X85024139Y-140208000D01*
X85396038Y-140213392D01*
X85631405Y-140233312D01*
X85762808Y-140273377D01*
X85822815Y-140339201D01*
X85825686Y-140346215D01*
X85827741Y-140527080D01*
X85783265Y-140637285D01*
X85730302Y-140823375D01*
X85779692Y-141053725D01*
X85833922Y-141241712D01*
X85842542Y-141345388D01*
X85840505Y-141348383D01*
X85754016Y-141331868D01*
X85561868Y-141257182D01*
X85365049Y-141168250D01*
X85070259Y-141001671D01*
X84933325Y-140854976D01*
X84920667Y-140797944D01*
X84908297Y-140703686D01*
X84842403Y-140680680D01*
X84679810Y-140724494D01*
X84571355Y-140762089D01*
X84303567Y-140840289D01*
X84068300Y-140882776D01*
X84020168Y-140885333D01*
X83839218Y-140946333D01*
X83607474Y-141101743D01*
X83370227Y-141310177D01*
X83172770Y-141530247D01*
X83060396Y-141720568D01*
X83049561Y-141772230D01*
X83036513Y-141869354D01*
X83005916Y-141811989D01*
X82982589Y-141732000D01*
X82931329Y-141610247D01*
X82832956Y-141542413D01*
X82641687Y-141508530D01*
X82438925Y-141494888D01*
X82111864Y-141495096D01*
X81907343Y-141542897D01*
X81817944Y-141605294D01*
X81615854Y-141704451D01*
X81417547Y-141715405D01*
X81200850Y-141730406D01*
X81058751Y-141855865D01*
X81026000Y-141908425D01*
X80903237Y-142101119D01*
X80726117Y-142358106D01*
X80607535Y-142522259D01*
X80419524Y-142755075D01*
X80266372Y-142874827D01*
X80098944Y-142915480D01*
X80036035Y-142917333D01*
X79842621Y-142899115D01*
X79766485Y-142819394D01*
X79756000Y-142708241D01*
X79801703Y-142489712D01*
X79915583Y-142221715D01*
X80062799Y-141971503D01*
X80208511Y-141806324D01*
X80231052Y-141791292D01*
X80341897Y-141678913D01*
X80297071Y-141590190D01*
X80155839Y-141562666D01*
X79937336Y-141514124D01*
X79774839Y-141430865D01*
X79586667Y-141299064D01*
X79586667Y-143340666D01*
X84484341Y-143340666D01*
X84730827Y-143133262D01*
X84946438Y-143001487D01*
X85136942Y-142965753D01*
X85262741Y-143022799D01*
X85284238Y-143169366D01*
X85281956Y-143178635D01*
X85274063Y-143256375D01*
X85320511Y-143304315D01*
X85451952Y-143329581D01*
X85699037Y-143339297D01*
X85979000Y-143340666D01*
X86332515Y-143338933D01*
X86546898Y-143328066D01*
X86652345Y-143299558D01*
X86679057Y-143244906D01*
X86657233Y-143155604D01*
X86655439Y-143150166D01*
X86622132Y-142980166D01*
X86588341Y-142693513D01*
X86559875Y-142342774D01*
X86552473Y-142218833D01*
X86526210Y-141888443D01*
X86489934Y-141633960D01*
X86449838Y-141493678D01*
X86432669Y-141478000D01*
X86307048Y-141426055D01*
X86246188Y-141378359D01*
X86190960Y-141279041D01*
X86222882Y-141127067D01*
X86292777Y-140976192D01*
X86420328Y-140758893D01*
X86541428Y-140605109D01*
X86562551Y-140586831D01*
X86616208Y-140489100D01*
X86662406Y-140272369D01*
X86703274Y-139921439D01*
X86740942Y-139421114D01*
X86741997Y-139403666D01*
X86021382Y-139403666D01*
X85294010Y-139386492D01*
X84951467Y-139369676D01*
X84670103Y-139339775D01*
X84495861Y-139302259D01*
X84468486Y-139288178D01*
X84415672Y-139149134D01*
X84392726Y-138845028D01*
X84397503Y-138437753D01*
X84412652Y-138076429D01*
X84432025Y-137856099D01*
X84463267Y-137748460D01*
X84514019Y-137725208D01*
X84582437Y-137752900D01*
X84741512Y-137794118D01*
X85013995Y-137824186D01*
X85344042Y-137837197D01*
X85380767Y-137837333D01*
X86021333Y-137837333D01*
X86021358Y-138620500D01*
X86021382Y-139403666D01*
X86741997Y-139403666D01*
X86752368Y-139232164D01*
X86781632Y-138744768D01*
X86807279Y-138400742D01*
X86834553Y-138174358D01*
X86868694Y-138039883D01*
X86914945Y-137971589D01*
X86978548Y-137943744D01*
X87016167Y-137937278D01*
X87170512Y-137860288D01*
X87207188Y-137767944D01*
X87245397Y-137594635D01*
X87335703Y-137380236D01*
X87412069Y-137201492D01*
X87425382Y-137097363D01*
X87422888Y-137093999D01*
X87323315Y-137087722D01*
X87122296Y-137120743D01*
X87034654Y-137141378D01*
X86717169Y-137185043D01*
X86443870Y-137159768D01*
X86442264Y-137159310D01*
X86251926Y-137126156D01*
X85943695Y-137095279D01*
X85568996Y-137071258D01*
X85358009Y-137062776D01*
X84518716Y-137036495D01*
X83589880Y-137830025D01*
X83589880Y-137830025D01*
G37*
X83589880Y-137830025D02*
X83531150Y-138553835D01*
X83472421Y-139277646D01*
X83874025Y-139742823D01*
X84275630Y-140208000D01*
X85024139Y-140208000D01*
X85396038Y-140213392D01*
X85631405Y-140233312D01*
X85762808Y-140273377D01*
X85822815Y-140339201D01*
X85825686Y-140346215D01*
X85827741Y-140527080D01*
X85783265Y-140637285D01*
X85730302Y-140823375D01*
X85779692Y-141053725D01*
X85833922Y-141241712D01*
X85842542Y-141345388D01*
X85840505Y-141348383D01*
X85754016Y-141331868D01*
X85561868Y-141257182D01*
X85365049Y-141168250D01*
X85070259Y-141001671D01*
X84933325Y-140854976D01*
X84920667Y-140797944D01*
X84908297Y-140703686D01*
X84842403Y-140680680D01*
X84679810Y-140724494D01*
X84571355Y-140762089D01*
X84303567Y-140840289D01*
X84068300Y-140882776D01*
X84020168Y-140885333D01*
X83839218Y-140946333D01*
X83607474Y-141101743D01*
X83370227Y-141310177D01*
X83172770Y-141530247D01*
X83060396Y-141720568D01*
X83049561Y-141772230D01*
X83036513Y-141869354D01*
X83005916Y-141811989D01*
X82982589Y-141732000D01*
X82931329Y-141610247D01*
X82832956Y-141542413D01*
X82641687Y-141508530D01*
X82438925Y-141494888D01*
X82111864Y-141495096D01*
X81907343Y-141542897D01*
X81817944Y-141605294D01*
X81615854Y-141704451D01*
X81417547Y-141715405D01*
X81200850Y-141730406D01*
X81058751Y-141855865D01*
X81026000Y-141908425D01*
X80903237Y-142101119D01*
X80726117Y-142358106D01*
X80607535Y-142522259D01*
X80419524Y-142755075D01*
X80266372Y-142874827D01*
X80098944Y-142915480D01*
X80036035Y-142917333D01*
X79842621Y-142899115D01*
X79766485Y-142819394D01*
X79756000Y-142708241D01*
X79801703Y-142489712D01*
X79915583Y-142221715D01*
X80062799Y-141971503D01*
X80208511Y-141806324D01*
X80231052Y-141791292D01*
X80341897Y-141678913D01*
X80297071Y-141590190D01*
X80155839Y-141562666D01*
X79937336Y-141514124D01*
X79774839Y-141430865D01*
X79586667Y-141299064D01*
X79586667Y-143340666D01*
X84484341Y-143340666D01*
X84730827Y-143133262D01*
X84946438Y-143001487D01*
X85136942Y-142965753D01*
X85262741Y-143022799D01*
X85284238Y-143169366D01*
X85281956Y-143178635D01*
X85274063Y-143256375D01*
X85320511Y-143304315D01*
X85451952Y-143329581D01*
X85699037Y-143339297D01*
X85979000Y-143340666D01*
X86332515Y-143338933D01*
X86546898Y-143328066D01*
X86652345Y-143299558D01*
X86679057Y-143244906D01*
X86657233Y-143155604D01*
X86655439Y-143150166D01*
X86622132Y-142980166D01*
X86588341Y-142693513D01*
X86559875Y-142342774D01*
X86552473Y-142218833D01*
X86526210Y-141888443D01*
X86489934Y-141633960D01*
X86449838Y-141493678D01*
X86432669Y-141478000D01*
X86307048Y-141426055D01*
X86246188Y-141378359D01*
X86190960Y-141279041D01*
X86222882Y-141127067D01*
X86292777Y-140976192D01*
X86420328Y-140758893D01*
X86541428Y-140605109D01*
X86562551Y-140586831D01*
X86616208Y-140489100D01*
X86662406Y-140272369D01*
X86703274Y-139921439D01*
X86740942Y-139421114D01*
X86741997Y-139403666D01*
X86021382Y-139403666D01*
X85294010Y-139386492D01*
X84951467Y-139369676D01*
X84670103Y-139339775D01*
X84495861Y-139302259D01*
X84468486Y-139288178D01*
X84415672Y-139149134D01*
X84392726Y-138845028D01*
X84397503Y-138437753D01*
X84412652Y-138076429D01*
X84432025Y-137856099D01*
X84463267Y-137748460D01*
X84514019Y-137725208D01*
X84582437Y-137752900D01*
X84741512Y-137794118D01*
X85013995Y-137824186D01*
X85344042Y-137837197D01*
X85380767Y-137837333D01*
X86021333Y-137837333D01*
X86021358Y-138620500D01*
X86021382Y-139403666D01*
X86741997Y-139403666D01*
X86752368Y-139232164D01*
X86781632Y-138744768D01*
X86807279Y-138400742D01*
X86834553Y-138174358D01*
X86868694Y-138039883D01*
X86914945Y-137971589D01*
X86978548Y-137943744D01*
X87016167Y-137937278D01*
X87170512Y-137860288D01*
X87207188Y-137767944D01*
X87245397Y-137594635D01*
X87335703Y-137380236D01*
X87412069Y-137201492D01*
X87425382Y-137097363D01*
X87422888Y-137093999D01*
X87323315Y-137087722D01*
X87122296Y-137120743D01*
X87034654Y-137141378D01*
X86717169Y-137185043D01*
X86443870Y-137159768D01*
X86442264Y-137159310D01*
X86251926Y-137126156D01*
X85943695Y-137095279D01*
X85568996Y-137071258D01*
X85358009Y-137062776D01*
X84518716Y-137036495D01*
X83589880Y-137830025D01*
G36*
X92741586Y-132671509D02*
G01*
X92693722Y-132885120D01*
X92638816Y-133217201D01*
X92634898Y-133244166D01*
X92599058Y-133578534D01*
X92568112Y-134027747D01*
X92545017Y-134537326D01*
X92532725Y-135052794D01*
X92531875Y-135143795D01*
X92523436Y-136387257D01*
X92304933Y-136304183D01*
X92119056Y-136269545D01*
X91894320Y-136313209D01*
X91676027Y-136397659D01*
X91430056Y-136488357D01*
X91244273Y-136529535D01*
X91183479Y-136523441D01*
X91109131Y-136539922D01*
X91100177Y-136583503D01*
X91078211Y-136751487D01*
X91047969Y-136884833D01*
X91033928Y-137017878D01*
X91119051Y-137068712D01*
X91256956Y-137075333D01*
X91384128Y-137084712D01*
X91473092Y-137131160D01*
X91533700Y-137242137D01*
X91575807Y-137445107D01*
X91609267Y-137767533D01*
X91636693Y-138133666D01*
X91672532Y-138641666D01*
X90910954Y-138655724D01*
X90149375Y-138669781D01*
X90207764Y-137978390D01*
X90253780Y-137578731D01*
X90315621Y-137319832D01*
X90400461Y-137173341D01*
X90414803Y-137160000D01*
X90536498Y-136977749D01*
X90575923Y-136818557D01*
X90563321Y-136671035D01*
X90468818Y-136616483D01*
X90315696Y-136613321D01*
X90086136Y-136620384D01*
X89763506Y-136629491D01*
X89471500Y-136637263D01*
X88900000Y-136652000D01*
X88900000Y-137042870D01*
X88907261Y-137279410D01*
X88943431Y-137386381D01*
X89030097Y-137403390D01*
X89090500Y-137392424D01*
X89307876Y-137332876D01*
X89418512Y-137292918D01*
X89494351Y-137277099D01*
X89521040Y-137338456D01*
X89503255Y-137510756D01*
X89472667Y-137684196D01*
X89444500Y-137937812D01*
X89426453Y-138313499D01*
X89419785Y-138764226D01*
X89425757Y-139242963D01*
X89428460Y-139334275D01*
X89439108Y-139771041D01*
X89441530Y-140147951D01*
X89436027Y-140432332D01*
X89422902Y-140591515D01*
X89416638Y-140611495D01*
X89308871Y-140677862D01*
X89099877Y-140752341D01*
X89012159Y-140776111D01*
X88719315Y-140820785D01*
X88564722Y-140770774D01*
X88543336Y-140621621D01*
X88618587Y-140428238D01*
X88769414Y-140152845D01*
X88876270Y-140018863D01*
X88956034Y-140009683D01*
X88997063Y-140055825D01*
X89022242Y-140017411D01*
X89043530Y-139836243D01*
X89059140Y-139538889D01*
X89067283Y-139151916D01*
X89068037Y-139001500D01*
X89067629Y-138537841D01*
X89062338Y-138216860D01*
X89047879Y-138011901D01*
X89019968Y-137896310D01*
X88974320Y-137843432D01*
X88906650Y-137826612D01*
X88878833Y-137824437D01*
X88645609Y-137800864D01*
X88460935Y-137751698D01*
X88301473Y-137689117D01*
X88055712Y-137608006D01*
X87881704Y-137570081D01*
X87747325Y-137573198D01*
X87671353Y-137660866D01*
X87618098Y-137874862D01*
X87617213Y-137879666D01*
X87590185Y-138081816D01*
X87556982Y-138414318D01*
X87521006Y-138838463D01*
X87485660Y-139315542D01*
X87469163Y-139563760D01*
X87383364Y-140909187D01*
X87104515Y-141147819D01*
X86940257Y-141295304D01*
X86897136Y-141365813D01*
X86964052Y-141388138D01*
X87011170Y-141389892D01*
X87182097Y-141427350D01*
X87249000Y-141478000D01*
X87368420Y-141549125D01*
X87465664Y-141562666D01*
X87600149Y-141616899D01*
X87630000Y-141689666D01*
X87674863Y-141802351D01*
X87713054Y-141816666D01*
X87789039Y-141889296D01*
X87846936Y-142049500D01*
X87918216Y-142313295D01*
X87987581Y-142519416D01*
X88032555Y-142767022D01*
X87970713Y-142955843D01*
X87910267Y-143136475D01*
X87921344Y-143247926D01*
X88029981Y-143285488D01*
X88304121Y-143313307D01*
X88744813Y-143331441D01*
X89353111Y-143339947D01*
X89634538Y-143340666D01*
X91290416Y-143340666D01*
X91236230Y-143150166D01*
X91199411Y-142973944D01*
X91153268Y-142688558D01*
X91107288Y-142353130D01*
X91103748Y-142324666D01*
X91049663Y-141901303D01*
X90988022Y-141441106D01*
X90940875Y-141104722D01*
X90899528Y-140806964D01*
X90871183Y-140579925D01*
X90861738Y-140470995D01*
X90861841Y-140469722D01*
X90870107Y-140211098D01*
X90844012Y-139982762D01*
X90792654Y-139834792D01*
X90741500Y-139807169D01*
X90671068Y-139911140D01*
X90660458Y-140097183D01*
X90637202Y-140322781D01*
X90538904Y-140466851D01*
X90397199Y-140491030D01*
X90352780Y-140470310D01*
X90282926Y-140330624D01*
X90267129Y-140032815D01*
X90270953Y-139946216D01*
X90297000Y-139488792D01*
X90702760Y-139403078D01*
X90957347Y-139328149D01*
X91142272Y-139235419D01*
X91188297Y-139191182D01*
X91252212Y-139114690D01*
X91269159Y-139197415D01*
X91269370Y-139213166D01*
X91339490Y-139338235D01*
X91437021Y-139361333D01*
X91589436Y-139408101D01*
X91695021Y-139563132D01*
X91763909Y-139848516D01*
X91796268Y-140144500D01*
X91813820Y-140418027D01*
X91801423Y-140563397D01*
X91745140Y-140621026D01*
X91631036Y-140631332D01*
X91628408Y-140631333D01*
X91477872Y-140665815D01*
X91461310Y-140737166D01*
X91611634Y-141199888D01*
X91719463Y-141647852D01*
X91737649Y-141753166D01*
X91789497Y-141957079D01*
X91857139Y-142065355D01*
X91873897Y-142070666D01*
X91922427Y-141997204D01*
X91903208Y-141795937D01*
X91903115Y-141795500D01*
X91861096Y-141595561D01*
X91837768Y-141481278D01*
X91837160Y-141478000D01*
X91873236Y-141386535D01*
X91972680Y-141208994D01*
X92015456Y-141139333D01*
X92201367Y-140843000D01*
X92204575Y-141139333D01*
X92225737Y-141369608D01*
X92278367Y-141695657D01*
X92351366Y-142049355D01*
X92356314Y-142070666D01*
X92442628Y-142486088D01*
X92470432Y-142764006D01*
X92437929Y-142926468D01*
X92343323Y-142995524D01*
X92280459Y-143002000D01*
X92143410Y-143064851D01*
X92117333Y-143171333D01*
X92130140Y-143252000D01*
X92190112Y-143302028D01*
X92329579Y-143328649D01*
X92580872Y-143339095D01*
X92874337Y-143340666D01*
X93290045Y-143329300D01*
X93567264Y-143296388D01*
X93691217Y-143243707D01*
X93692141Y-143242288D01*
X93684800Y-143119332D01*
X93556972Y-142990183D01*
X93353565Y-142884969D01*
X93119484Y-142833820D01*
X93081620Y-142832666D01*
X92885449Y-142815756D01*
X92806832Y-142739872D01*
X92794667Y-142618021D01*
X92811581Y-142469615D01*
X92890575Y-142458782D01*
X92965358Y-142494726D01*
X93104381Y-142537853D01*
X93185838Y-142447109D01*
X93206670Y-142395169D01*
X93225152Y-142215582D01*
X93105455Y-142060649D01*
X93099479Y-142055614D01*
X92921667Y-141906966D01*
X93125289Y-141904150D01*
X93264275Y-141893800D01*
X93266934Y-141839552D01*
X93171828Y-141727758D01*
X93070918Y-141581427D01*
X93069935Y-141426780D01*
X93116005Y-141285914D01*
X93173352Y-141081395D01*
X93141610Y-140951166D01*
X93090633Y-140891013D01*
X92993079Y-140810407D01*
X92964982Y-140864306D01*
X92964000Y-140909523D01*
X92897561Y-141027640D01*
X92752333Y-141054666D01*
X92582419Y-141011278D01*
X92540667Y-140902266D01*
X92489917Y-140717569D01*
X92443905Y-140653104D01*
X92389650Y-140518964D01*
X92356359Y-140289713D01*
X92347168Y-140034028D01*
X92365214Y-139820590D01*
X92401572Y-139726206D01*
X92444496Y-139606838D01*
X92456000Y-139474222D01*
X92495461Y-139313303D01*
X92587101Y-139282879D01*
X92667667Y-139361333D01*
X92786857Y-139453347D01*
X92901471Y-139407947D01*
X92960841Y-139250659D01*
X92961767Y-139213166D01*
X92989103Y-138801496D01*
X93077997Y-138442529D01*
X93105474Y-138377022D01*
X93163912Y-138157698D01*
X93168953Y-138049000D01*
X93158695Y-137851926D01*
X93147361Y-137590570D01*
X93145869Y-137552296D01*
X93127655Y-137342226D01*
X93072391Y-137259198D01*
X92946096Y-137260951D01*
X92916045Y-137266463D01*
X92698757Y-137308000D01*
X92927043Y-137069721D01*
X93082569Y-136854832D01*
X93101836Y-136692039D01*
X93069404Y-136541596D01*
X93034605Y-136277534D01*
X93004667Y-135955297D01*
X93003169Y-135935124D01*
X92969282Y-135583867D01*
X92924232Y-135261293D01*
X92878784Y-135041418D01*
X92835851Y-134835746D01*
X92837477Y-134705070D01*
X92840359Y-134699232D01*
X92872289Y-134556520D01*
X92885811Y-134298540D01*
X92882589Y-133978163D01*
X92864288Y-133648261D01*
X92832570Y-133361705D01*
X92792567Y-133180666D01*
X92786364Y-133075004D01*
X92791862Y-132876576D01*
X92792576Y-132863166D01*
X92796048Y-132648365D01*
X92777373Y-132588535D01*
X92741586Y-132671509D01*
X92741586Y-132671509D01*
G37*
X92741586Y-132671509D02*
X92693722Y-132885120D01*
X92638816Y-133217201D01*
X92634898Y-133244166D01*
X92599058Y-133578534D01*
X92568112Y-134027747D01*
X92545017Y-134537326D01*
X92532725Y-135052794D01*
X92531875Y-135143795D01*
X92523436Y-136387257D01*
X92304933Y-136304183D01*
X92119056Y-136269545D01*
X91894320Y-136313209D01*
X91676027Y-136397659D01*
X91430056Y-136488357D01*
X91244273Y-136529535D01*
X91183479Y-136523441D01*
X91109131Y-136539922D01*
X91100177Y-136583503D01*
X91078211Y-136751487D01*
X91047969Y-136884833D01*
X91033928Y-137017878D01*
X91119051Y-137068712D01*
X91256956Y-137075333D01*
X91384128Y-137084712D01*
X91473092Y-137131160D01*
X91533700Y-137242137D01*
X91575807Y-137445107D01*
X91609267Y-137767533D01*
X91636693Y-138133666D01*
X91672532Y-138641666D01*
X90910954Y-138655724D01*
X90149375Y-138669781D01*
X90207764Y-137978390D01*
X90253780Y-137578731D01*
X90315621Y-137319832D01*
X90400461Y-137173341D01*
X90414803Y-137160000D01*
X90536498Y-136977749D01*
X90575923Y-136818557D01*
X90563321Y-136671035D01*
X90468818Y-136616483D01*
X90315696Y-136613321D01*
X90086136Y-136620384D01*
X89763506Y-136629491D01*
X89471500Y-136637263D01*
X88900000Y-136652000D01*
X88900000Y-137042870D01*
X88907261Y-137279410D01*
X88943431Y-137386381D01*
X89030097Y-137403390D01*
X89090500Y-137392424D01*
X89307876Y-137332876D01*
X89418512Y-137292918D01*
X89494351Y-137277099D01*
X89521040Y-137338456D01*
X89503255Y-137510756D01*
X89472667Y-137684196D01*
X89444500Y-137937812D01*
X89426453Y-138313499D01*
X89419785Y-138764226D01*
X89425757Y-139242963D01*
X89428460Y-139334275D01*
X89439108Y-139771041D01*
X89441530Y-140147951D01*
X89436027Y-140432332D01*
X89422902Y-140591515D01*
X89416638Y-140611495D01*
X89308871Y-140677862D01*
X89099877Y-140752341D01*
X89012159Y-140776111D01*
X88719315Y-140820785D01*
X88564722Y-140770774D01*
X88543336Y-140621621D01*
X88618587Y-140428238D01*
X88769414Y-140152845D01*
X88876270Y-140018863D01*
X88956034Y-140009683D01*
X88997063Y-140055825D01*
X89022242Y-140017411D01*
X89043530Y-139836243D01*
X89059140Y-139538889D01*
X89067283Y-139151916D01*
X89068037Y-139001500D01*
X89067629Y-138537841D01*
X89062338Y-138216860D01*
X89047879Y-138011901D01*
X89019968Y-137896310D01*
X88974320Y-137843432D01*
X88906650Y-137826612D01*
X88878833Y-137824437D01*
X88645609Y-137800864D01*
X88460935Y-137751698D01*
X88301473Y-137689117D01*
X88055712Y-137608006D01*
X87881704Y-137570081D01*
X87747325Y-137573198D01*
X87671353Y-137660866D01*
X87618098Y-137874862D01*
X87617213Y-137879666D01*
X87590185Y-138081816D01*
X87556982Y-138414318D01*
X87521006Y-138838463D01*
X87485660Y-139315542D01*
X87469163Y-139563760D01*
X87383364Y-140909187D01*
X87104515Y-141147819D01*
X86940257Y-141295304D01*
X86897136Y-141365813D01*
X86964052Y-141388138D01*
X87011170Y-141389892D01*
X87182097Y-141427350D01*
X87249000Y-141478000D01*
X87368420Y-141549125D01*
X87465664Y-141562666D01*
X87600149Y-141616899D01*
X87630000Y-141689666D01*
X87674863Y-141802351D01*
X87713054Y-141816666D01*
X87789039Y-141889296D01*
X87846936Y-142049500D01*
X87918216Y-142313295D01*
X87987581Y-142519416D01*
X88032555Y-142767022D01*
X87970713Y-142955843D01*
X87910267Y-143136475D01*
X87921344Y-143247926D01*
X88029981Y-143285488D01*
X88304121Y-143313307D01*
X88744813Y-143331441D01*
X89353111Y-143339947D01*
X89634538Y-143340666D01*
X91290416Y-143340666D01*
X91236230Y-143150166D01*
X91199411Y-142973944D01*
X91153268Y-142688558D01*
X91107288Y-142353130D01*
X91103748Y-142324666D01*
X91049663Y-141901303D01*
X90988022Y-141441106D01*
X90940875Y-141104722D01*
X90899528Y-140806964D01*
X90871183Y-140579925D01*
X90861738Y-140470995D01*
X90861841Y-140469722D01*
X90870107Y-140211098D01*
X90844012Y-139982762D01*
X90792654Y-139834792D01*
X90741500Y-139807169D01*
X90671068Y-139911140D01*
X90660458Y-140097183D01*
X90637202Y-140322781D01*
X90538904Y-140466851D01*
X90397199Y-140491030D01*
X90352780Y-140470310D01*
X90282926Y-140330624D01*
X90267129Y-140032815D01*
X90270953Y-139946216D01*
X90297000Y-139488792D01*
X90702760Y-139403078D01*
X90957347Y-139328149D01*
X91142272Y-139235419D01*
X91188297Y-139191182D01*
X91252212Y-139114690D01*
X91269159Y-139197415D01*
X91269370Y-139213166D01*
X91339490Y-139338235D01*
X91437021Y-139361333D01*
X91589436Y-139408101D01*
X91695021Y-139563132D01*
X91763909Y-139848516D01*
X91796268Y-140144500D01*
X91813820Y-140418027D01*
X91801423Y-140563397D01*
X91745140Y-140621026D01*
X91631036Y-140631332D01*
X91628408Y-140631333D01*
X91477872Y-140665815D01*
X91461310Y-140737166D01*
X91611634Y-141199888D01*
X91719463Y-141647852D01*
X91737649Y-141753166D01*
X91789497Y-141957079D01*
X91857139Y-142065355D01*
X91873897Y-142070666D01*
X91922427Y-141997204D01*
X91903208Y-141795937D01*
X91903115Y-141795500D01*
X91861096Y-141595561D01*
X91837768Y-141481278D01*
X91837160Y-141478000D01*
X91873236Y-141386535D01*
X91972680Y-141208994D01*
X92015456Y-141139333D01*
X92201367Y-140843000D01*
X92204575Y-141139333D01*
X92225737Y-141369608D01*
X92278367Y-141695657D01*
X92351366Y-142049355D01*
X92356314Y-142070666D01*
X92442628Y-142486088D01*
X92470432Y-142764006D01*
X92437929Y-142926468D01*
X92343323Y-142995524D01*
X92280459Y-143002000D01*
X92143410Y-143064851D01*
X92117333Y-143171333D01*
X92130140Y-143252000D01*
X92190112Y-143302028D01*
X92329579Y-143328649D01*
X92580872Y-143339095D01*
X92874337Y-143340666D01*
X93290045Y-143329300D01*
X93567264Y-143296388D01*
X93691217Y-143243707D01*
X93692141Y-143242288D01*
X93684800Y-143119332D01*
X93556972Y-142990183D01*
X93353565Y-142884969D01*
X93119484Y-142833820D01*
X93081620Y-142832666D01*
X92885449Y-142815756D01*
X92806832Y-142739872D01*
X92794667Y-142618021D01*
X92811581Y-142469615D01*
X92890575Y-142458782D01*
X92965358Y-142494726D01*
X93104381Y-142537853D01*
X93185838Y-142447109D01*
X93206670Y-142395169D01*
X93225152Y-142215582D01*
X93105455Y-142060649D01*
X93099479Y-142055614D01*
X92921667Y-141906966D01*
X93125289Y-141904150D01*
X93264275Y-141893800D01*
X93266934Y-141839552D01*
X93171828Y-141727758D01*
X93070918Y-141581427D01*
X93069935Y-141426780D01*
X93116005Y-141285914D01*
X93173352Y-141081395D01*
X93141610Y-140951166D01*
X93090633Y-140891013D01*
X92993079Y-140810407D01*
X92964982Y-140864306D01*
X92964000Y-140909523D01*
X92897561Y-141027640D01*
X92752333Y-141054666D01*
X92582419Y-141011278D01*
X92540667Y-140902266D01*
X92489917Y-140717569D01*
X92443905Y-140653104D01*
X92389650Y-140518964D01*
X92356359Y-140289713D01*
X92347168Y-140034028D01*
X92365214Y-139820590D01*
X92401572Y-139726206D01*
X92444496Y-139606838D01*
X92456000Y-139474222D01*
X92495461Y-139313303D01*
X92587101Y-139282879D01*
X92667667Y-139361333D01*
X92786857Y-139453347D01*
X92901471Y-139407947D01*
X92960841Y-139250659D01*
X92961767Y-139213166D01*
X92989103Y-138801496D01*
X93077997Y-138442529D01*
X93105474Y-138377022D01*
X93163912Y-138157698D01*
X93168953Y-138049000D01*
X93158695Y-137851926D01*
X93147361Y-137590570D01*
X93145869Y-137552296D01*
X93127655Y-137342226D01*
X93072391Y-137259198D01*
X92946096Y-137260951D01*
X92916045Y-137266463D01*
X92698757Y-137308000D01*
X92927043Y-137069721D01*
X93082569Y-136854832D01*
X93101836Y-136692039D01*
X93069404Y-136541596D01*
X93034605Y-136277534D01*
X93004667Y-135955297D01*
X93003169Y-135935124D01*
X92969282Y-135583867D01*
X92924232Y-135261293D01*
X92878784Y-135041418D01*
X92835851Y-134835746D01*
X92837477Y-134705070D01*
X92840359Y-134699232D01*
X92872289Y-134556520D01*
X92885811Y-134298540D01*
X92882589Y-133978163D01*
X92864288Y-133648261D01*
X92832570Y-133361705D01*
X92792567Y-133180666D01*
X92786364Y-133075004D01*
X92791862Y-132876576D01*
X92792576Y-132863166D01*
X92796048Y-132648365D01*
X92777373Y-132588535D01*
X92741586Y-132671509D01*
G36*
X51583077Y-104118833D02*
G01*
X51562000Y-143764000D01*
X85047667Y-143764000D01*
X87880219Y-143763995D01*
X90548353Y-143763963D01*
X93056986Y-143763881D01*
X95411033Y-143763723D01*
X97615411Y-143763463D01*
X99675035Y-143763078D01*
X101594822Y-143762543D01*
X103379686Y-143761832D01*
X105034545Y-143760920D01*
X106564315Y-143759784D01*
X107973910Y-143758397D01*
X109268247Y-143756736D01*
X110452242Y-143754774D01*
X111530811Y-143752489D01*
X112508870Y-143749853D01*
X113391335Y-143746843D01*
X114183121Y-143743435D01*
X114889146Y-143739602D01*
X115514323Y-143735320D01*
X116063571Y-143730564D01*
X116541804Y-143725310D01*
X116953938Y-143719532D01*
X117304889Y-143713206D01*
X117599574Y-143706306D01*
X117842909Y-143698809D01*
X118039808Y-143690689D01*
X118195189Y-143681920D01*
X118313966Y-143672480D01*
X118401057Y-143662341D01*
X118461377Y-143651481D01*
X118499842Y-143639873D01*
X118521367Y-143627493D01*
X118530869Y-143614316D01*
X118533264Y-143600317D01*
X118533333Y-143594666D01*
X118531334Y-143568923D01*
X118519299Y-143545931D01*
X118488171Y-143525535D01*
X118428896Y-143507578D01*
X118332416Y-143491906D01*
X118189677Y-143478363D01*
X117991621Y-143466794D01*
X117729192Y-143457043D01*
X117393336Y-143448954D01*
X116974995Y-143442374D01*
X116465113Y-143437145D01*
X115854635Y-143433112D01*
X115134505Y-143430121D01*
X114295666Y-143428015D01*
X113329062Y-143426640D01*
X112225638Y-143425839D01*
X110976337Y-143425458D01*
X109572104Y-143425341D01*
X108667010Y-143425333D01*
X107151894Y-143425522D01*
X105797303Y-143426165D01*
X104594429Y-143427374D01*
X103534465Y-143429262D01*
X102608602Y-143431943D01*
X101808032Y-143435528D01*
X101123949Y-143440131D01*
X100547543Y-143445864D01*
X100070007Y-143452841D01*
X99682533Y-143461174D01*
X99376313Y-143470976D01*
X99142539Y-143482359D01*
X98972404Y-143495437D01*
X98857099Y-143510323D01*
X98787817Y-143527129D01*
X98755749Y-143545967D01*
X98751951Y-143552333D01*
X98729693Y-143571966D01*
X98672907Y-143589502D01*
X98572724Y-143605056D01*
X98420271Y-143618743D01*
X98206680Y-143630679D01*
X97923079Y-143640978D01*
X97560598Y-143649757D01*
X97110366Y-143657129D01*
X96563513Y-143663211D01*
X95911168Y-143668117D01*
X95144461Y-143671964D01*
X94254521Y-143674865D01*
X93232478Y-143676937D01*
X92069462Y-143678294D01*
X90756601Y-143679052D01*
X89285025Y-143679326D01*
X88975608Y-143679333D01*
X87472964Y-143679145D01*
X86130822Y-143678504D01*
X84940353Y-143677296D01*
X83892727Y-143675404D01*
X82979113Y-143672714D01*
X82190683Y-143669110D01*
X81518606Y-143664478D01*
X80954051Y-143658700D01*
X80488190Y-143651664D01*
X80112191Y-143643252D01*
X79817225Y-143633350D01*
X79594461Y-143621843D01*
X79435071Y-143608615D01*
X79330223Y-143593551D01*
X79271088Y-143576535D01*
X79248835Y-143557454D01*
X79248000Y-143552333D01*
X79234089Y-143535723D01*
X79187409Y-143520604D01*
X79100536Y-143506906D01*
X78966050Y-143494561D01*
X78776527Y-143483502D01*
X78524545Y-143473659D01*
X78202683Y-143464965D01*
X77803517Y-143457351D01*
X77319626Y-143450748D01*
X76743588Y-143445090D01*
X76067980Y-143440306D01*
X75285380Y-143436330D01*
X74388365Y-143433092D01*
X73369515Y-143430525D01*
X72221405Y-143428559D01*
X70936615Y-143427128D01*
X69507722Y-143426161D01*
X67927303Y-143425592D01*
X66187937Y-143425352D01*
X65447424Y-143425333D01*
X51646847Y-143425333D01*
X51604153Y-64473667D01*
X51583077Y-104118833D01*
X51583077Y-104118833D01*
G37*
X51583077Y-104118833D02*
X51562000Y-143764000D01*
X85047667Y-143764000D01*
X87880219Y-143763995D01*
X90548353Y-143763963D01*
X93056986Y-143763881D01*
X95411033Y-143763723D01*
X97615411Y-143763463D01*
X99675035Y-143763078D01*
X101594822Y-143762543D01*
X103379686Y-143761832D01*
X105034545Y-143760920D01*
X106564315Y-143759784D01*
X107973910Y-143758397D01*
X109268247Y-143756736D01*
X110452242Y-143754774D01*
X111530811Y-143752489D01*
X112508870Y-143749853D01*
X113391335Y-143746843D01*
X114183121Y-143743435D01*
X114889146Y-143739602D01*
X115514323Y-143735320D01*
X116063571Y-143730564D01*
X116541804Y-143725310D01*
X116953938Y-143719532D01*
X117304889Y-143713206D01*
X117599574Y-143706306D01*
X117842909Y-143698809D01*
X118039808Y-143690689D01*
X118195189Y-143681920D01*
X118313966Y-143672480D01*
X118401057Y-143662341D01*
X118461377Y-143651481D01*
X118499842Y-143639873D01*
X118521367Y-143627493D01*
X118530869Y-143614316D01*
X118533264Y-143600317D01*
X118533333Y-143594666D01*
X118531334Y-143568923D01*
X118519299Y-143545931D01*
X118488171Y-143525535D01*
X118428896Y-143507578D01*
X118332416Y-143491906D01*
X118189677Y-143478363D01*
X117991621Y-143466794D01*
X117729192Y-143457043D01*
X117393336Y-143448954D01*
X116974995Y-143442374D01*
X116465113Y-143437145D01*
X115854635Y-143433112D01*
X115134505Y-143430121D01*
X114295666Y-143428015D01*
X113329062Y-143426640D01*
X112225638Y-143425839D01*
X110976337Y-143425458D01*
X109572104Y-143425341D01*
X108667010Y-143425333D01*
X107151894Y-143425522D01*
X105797303Y-143426165D01*
X104594429Y-143427374D01*
X103534465Y-143429262D01*
X102608602Y-143431943D01*
X101808032Y-143435528D01*
X101123949Y-143440131D01*
X100547543Y-143445864D01*
X100070007Y-143452841D01*
X99682533Y-143461174D01*
X99376313Y-143470976D01*
X99142539Y-143482359D01*
X98972404Y-143495437D01*
X98857099Y-143510323D01*
X98787817Y-143527129D01*
X98755749Y-143545967D01*
X98751951Y-143552333D01*
X98729693Y-143571966D01*
X98672907Y-143589502D01*
X98572724Y-143605056D01*
X98420271Y-143618743D01*
X98206680Y-143630679D01*
X97923079Y-143640978D01*
X97560598Y-143649757D01*
X97110366Y-143657129D01*
X96563513Y-143663211D01*
X95911168Y-143668117D01*
X95144461Y-143671964D01*
X94254521Y-143674865D01*
X93232478Y-143676937D01*
X92069462Y-143678294D01*
X90756601Y-143679052D01*
X89285025Y-143679326D01*
X88975608Y-143679333D01*
X87472964Y-143679145D01*
X86130822Y-143678504D01*
X84940353Y-143677296D01*
X83892727Y-143675404D01*
X82979113Y-143672714D01*
X82190683Y-143669110D01*
X81518606Y-143664478D01*
X80954051Y-143658700D01*
X80488190Y-143651664D01*
X80112191Y-143643252D01*
X79817225Y-143633350D01*
X79594461Y-143621843D01*
X79435071Y-143608615D01*
X79330223Y-143593551D01*
X79271088Y-143576535D01*
X79248835Y-143557454D01*
X79248000Y-143552333D01*
X79234089Y-143535723D01*
X79187409Y-143520604D01*
X79100536Y-143506906D01*
X78966050Y-143494561D01*
X78776527Y-143483502D01*
X78524545Y-143473659D01*
X78202683Y-143464965D01*
X77803517Y-143457351D01*
X77319626Y-143450748D01*
X76743588Y-143445090D01*
X76067980Y-143440306D01*
X75285380Y-143436330D01*
X74388365Y-143433092D01*
X73369515Y-143430525D01*
X72221405Y-143428559D01*
X70936615Y-143427128D01*
X69507722Y-143426161D01*
X67927303Y-143425592D01*
X66187937Y-143425352D01*
X65447424Y-143425333D01*
X51646847Y-143425333D01*
X51604153Y-64473667D01*
X51583077Y-104118833D01*
D11*
X123320000Y-63820000D02*
X123320000Y-66360000D01*
X125860000Y-63820000D02*
X123320000Y-63820000D01*
X95380000Y-48580000D02*
X125860000Y-48580000D01*
X95380000Y-66360000D02*
X95380000Y-48580000D01*
X125860000Y-66360000D02*
X95380000Y-66360000D01*
X125860000Y-48580000D02*
X125860000Y-66360000D01*
D12*
X126839714Y-51686666D02*
X126114000Y-51686666D01*
X126984857Y-52049523D02*
X126476857Y-50779523D01*
X125968857Y-52049523D01*
X125460857Y-52049523D02*
X125460857Y-51202857D01*
X125460857Y-51444761D02*
X125388285Y-51323809D01*
X125315714Y-51263333D01*
X125170571Y-51202857D01*
X125025428Y-51202857D01*
X123864285Y-52049523D02*
X123864285Y-50779523D01*
X123864285Y-51989047D02*
X124009428Y-52049523D01*
X124299714Y-52049523D01*
X124444857Y-51989047D01*
X124517428Y-51928571D01*
X124590000Y-51807619D01*
X124590000Y-51444761D01*
X124517428Y-51323809D01*
X124444857Y-51263333D01*
X124299714Y-51202857D01*
X124009428Y-51202857D01*
X123864285Y-51263333D01*
X122340285Y-52049523D02*
X123211142Y-52049523D01*
X122775714Y-52049523D02*
X122775714Y-50779523D01*
X122920857Y-50960952D01*
X123066000Y-51081904D01*
X123211142Y-51142380D01*
M02*
