G04 #@! TF.GenerationSoftware,KiCad,Pcbnew,(5.1.0)-1*
G04 #@! TF.CreationDate,2019-03-23T00:40:19+01:00*
G04 #@! TF.ProjectId,Schematic2,53636865-6d61-4746-9963-322e6b696361,rev?*
G04 #@! TF.SameCoordinates,Original*
G04 #@! TF.FileFunction,Paste,Top*
G04 #@! TF.FilePolarity,Positive*
%FSLAX46Y46*%
G04 Gerber Fmt 4.6, Leading zero omitted, Abs format (unit mm)*
G04 Created by KiCad (PCBNEW (5.1.0)-1) date 2019-03-23 00:40:19*
%MOMM*%
%LPD*%
G04 APERTURE LIST*
%ADD10R,0.450000X0.600000*%
%ADD11C,0.100000*%
%ADD12C,1.425000*%
G04 APERTURE END LIST*
D10*
X86970000Y-135920000D03*
X86970000Y-138020000D03*
X107970000Y-135920000D03*
X107970000Y-138020000D03*
X128670000Y-135920000D03*
X128670000Y-138020000D03*
X65970000Y-135920000D03*
X65970000Y-138020000D03*
D11*
G36*
X43482004Y-99616204D02*
G01*
X43506273Y-99619804D01*
X43530071Y-99625765D01*
X43553171Y-99634030D01*
X43575349Y-99644520D01*
X43596393Y-99657133D01*
X43616098Y-99671747D01*
X43634277Y-99688223D01*
X43650753Y-99706402D01*
X43665367Y-99726107D01*
X43677980Y-99747151D01*
X43688470Y-99769329D01*
X43696735Y-99792429D01*
X43702696Y-99816227D01*
X43706296Y-99840496D01*
X43707500Y-99865000D01*
X43707500Y-101115000D01*
X43706296Y-101139504D01*
X43702696Y-101163773D01*
X43696735Y-101187571D01*
X43688470Y-101210671D01*
X43677980Y-101232849D01*
X43665367Y-101253893D01*
X43650753Y-101273598D01*
X43634277Y-101291777D01*
X43616098Y-101308253D01*
X43596393Y-101322867D01*
X43575349Y-101335480D01*
X43553171Y-101345970D01*
X43530071Y-101354235D01*
X43506273Y-101360196D01*
X43482004Y-101363796D01*
X43457500Y-101365000D01*
X42532500Y-101365000D01*
X42507996Y-101363796D01*
X42483727Y-101360196D01*
X42459929Y-101354235D01*
X42436829Y-101345970D01*
X42414651Y-101335480D01*
X42393607Y-101322867D01*
X42373902Y-101308253D01*
X42355723Y-101291777D01*
X42339247Y-101273598D01*
X42324633Y-101253893D01*
X42312020Y-101232849D01*
X42301530Y-101210671D01*
X42293265Y-101187571D01*
X42287304Y-101163773D01*
X42283704Y-101139504D01*
X42282500Y-101115000D01*
X42282500Y-99865000D01*
X42283704Y-99840496D01*
X42287304Y-99816227D01*
X42293265Y-99792429D01*
X42301530Y-99769329D01*
X42312020Y-99747151D01*
X42324633Y-99726107D01*
X42339247Y-99706402D01*
X42355723Y-99688223D01*
X42373902Y-99671747D01*
X42393607Y-99657133D01*
X42414651Y-99644520D01*
X42436829Y-99634030D01*
X42459929Y-99625765D01*
X42483727Y-99619804D01*
X42507996Y-99616204D01*
X42532500Y-99615000D01*
X43457500Y-99615000D01*
X43482004Y-99616204D01*
X43482004Y-99616204D01*
G37*
D12*
X42995000Y-100490000D03*
D11*
G36*
X46457004Y-99616204D02*
G01*
X46481273Y-99619804D01*
X46505071Y-99625765D01*
X46528171Y-99634030D01*
X46550349Y-99644520D01*
X46571393Y-99657133D01*
X46591098Y-99671747D01*
X46609277Y-99688223D01*
X46625753Y-99706402D01*
X46640367Y-99726107D01*
X46652980Y-99747151D01*
X46663470Y-99769329D01*
X46671735Y-99792429D01*
X46677696Y-99816227D01*
X46681296Y-99840496D01*
X46682500Y-99865000D01*
X46682500Y-101115000D01*
X46681296Y-101139504D01*
X46677696Y-101163773D01*
X46671735Y-101187571D01*
X46663470Y-101210671D01*
X46652980Y-101232849D01*
X46640367Y-101253893D01*
X46625753Y-101273598D01*
X46609277Y-101291777D01*
X46591098Y-101308253D01*
X46571393Y-101322867D01*
X46550349Y-101335480D01*
X46528171Y-101345970D01*
X46505071Y-101354235D01*
X46481273Y-101360196D01*
X46457004Y-101363796D01*
X46432500Y-101365000D01*
X45507500Y-101365000D01*
X45482996Y-101363796D01*
X45458727Y-101360196D01*
X45434929Y-101354235D01*
X45411829Y-101345970D01*
X45389651Y-101335480D01*
X45368607Y-101322867D01*
X45348902Y-101308253D01*
X45330723Y-101291777D01*
X45314247Y-101273598D01*
X45299633Y-101253893D01*
X45287020Y-101232849D01*
X45276530Y-101210671D01*
X45268265Y-101187571D01*
X45262304Y-101163773D01*
X45258704Y-101139504D01*
X45257500Y-101115000D01*
X45257500Y-99865000D01*
X45258704Y-99840496D01*
X45262304Y-99816227D01*
X45268265Y-99792429D01*
X45276530Y-99769329D01*
X45287020Y-99747151D01*
X45299633Y-99726107D01*
X45314247Y-99706402D01*
X45330723Y-99688223D01*
X45348902Y-99671747D01*
X45368607Y-99657133D01*
X45389651Y-99644520D01*
X45411829Y-99634030D01*
X45434929Y-99625765D01*
X45458727Y-99619804D01*
X45482996Y-99616204D01*
X45507500Y-99615000D01*
X46432500Y-99615000D01*
X46457004Y-99616204D01*
X46457004Y-99616204D01*
G37*
D12*
X45970000Y-100490000D03*
D11*
G36*
X43502004Y-108066204D02*
G01*
X43526273Y-108069804D01*
X43550071Y-108075765D01*
X43573171Y-108084030D01*
X43595349Y-108094520D01*
X43616393Y-108107133D01*
X43636098Y-108121747D01*
X43654277Y-108138223D01*
X43670753Y-108156402D01*
X43685367Y-108176107D01*
X43697980Y-108197151D01*
X43708470Y-108219329D01*
X43716735Y-108242429D01*
X43722696Y-108266227D01*
X43726296Y-108290496D01*
X43727500Y-108315000D01*
X43727500Y-109565000D01*
X43726296Y-109589504D01*
X43722696Y-109613773D01*
X43716735Y-109637571D01*
X43708470Y-109660671D01*
X43697980Y-109682849D01*
X43685367Y-109703893D01*
X43670753Y-109723598D01*
X43654277Y-109741777D01*
X43636098Y-109758253D01*
X43616393Y-109772867D01*
X43595349Y-109785480D01*
X43573171Y-109795970D01*
X43550071Y-109804235D01*
X43526273Y-109810196D01*
X43502004Y-109813796D01*
X43477500Y-109815000D01*
X42552500Y-109815000D01*
X42527996Y-109813796D01*
X42503727Y-109810196D01*
X42479929Y-109804235D01*
X42456829Y-109795970D01*
X42434651Y-109785480D01*
X42413607Y-109772867D01*
X42393902Y-109758253D01*
X42375723Y-109741777D01*
X42359247Y-109723598D01*
X42344633Y-109703893D01*
X42332020Y-109682849D01*
X42321530Y-109660671D01*
X42313265Y-109637571D01*
X42307304Y-109613773D01*
X42303704Y-109589504D01*
X42302500Y-109565000D01*
X42302500Y-108315000D01*
X42303704Y-108290496D01*
X42307304Y-108266227D01*
X42313265Y-108242429D01*
X42321530Y-108219329D01*
X42332020Y-108197151D01*
X42344633Y-108176107D01*
X42359247Y-108156402D01*
X42375723Y-108138223D01*
X42393902Y-108121747D01*
X42413607Y-108107133D01*
X42434651Y-108094520D01*
X42456829Y-108084030D01*
X42479929Y-108075765D01*
X42503727Y-108069804D01*
X42527996Y-108066204D01*
X42552500Y-108065000D01*
X43477500Y-108065000D01*
X43502004Y-108066204D01*
X43502004Y-108066204D01*
G37*
D12*
X43015000Y-108940000D03*
D11*
G36*
X46477004Y-108066204D02*
G01*
X46501273Y-108069804D01*
X46525071Y-108075765D01*
X46548171Y-108084030D01*
X46570349Y-108094520D01*
X46591393Y-108107133D01*
X46611098Y-108121747D01*
X46629277Y-108138223D01*
X46645753Y-108156402D01*
X46660367Y-108176107D01*
X46672980Y-108197151D01*
X46683470Y-108219329D01*
X46691735Y-108242429D01*
X46697696Y-108266227D01*
X46701296Y-108290496D01*
X46702500Y-108315000D01*
X46702500Y-109565000D01*
X46701296Y-109589504D01*
X46697696Y-109613773D01*
X46691735Y-109637571D01*
X46683470Y-109660671D01*
X46672980Y-109682849D01*
X46660367Y-109703893D01*
X46645753Y-109723598D01*
X46629277Y-109741777D01*
X46611098Y-109758253D01*
X46591393Y-109772867D01*
X46570349Y-109785480D01*
X46548171Y-109795970D01*
X46525071Y-109804235D01*
X46501273Y-109810196D01*
X46477004Y-109813796D01*
X46452500Y-109815000D01*
X45527500Y-109815000D01*
X45502996Y-109813796D01*
X45478727Y-109810196D01*
X45454929Y-109804235D01*
X45431829Y-109795970D01*
X45409651Y-109785480D01*
X45388607Y-109772867D01*
X45368902Y-109758253D01*
X45350723Y-109741777D01*
X45334247Y-109723598D01*
X45319633Y-109703893D01*
X45307020Y-109682849D01*
X45296530Y-109660671D01*
X45288265Y-109637571D01*
X45282304Y-109613773D01*
X45278704Y-109589504D01*
X45277500Y-109565000D01*
X45277500Y-108315000D01*
X45278704Y-108290496D01*
X45282304Y-108266227D01*
X45288265Y-108242429D01*
X45296530Y-108219329D01*
X45307020Y-108197151D01*
X45319633Y-108176107D01*
X45334247Y-108156402D01*
X45350723Y-108138223D01*
X45368902Y-108121747D01*
X45388607Y-108107133D01*
X45409651Y-108094520D01*
X45431829Y-108084030D01*
X45454929Y-108075765D01*
X45478727Y-108069804D01*
X45502996Y-108066204D01*
X45527500Y-108065000D01*
X46452500Y-108065000D01*
X46477004Y-108066204D01*
X46477004Y-108066204D01*
G37*
D12*
X45990000Y-108940000D03*
D11*
G36*
X43462004Y-102366204D02*
G01*
X43486273Y-102369804D01*
X43510071Y-102375765D01*
X43533171Y-102384030D01*
X43555349Y-102394520D01*
X43576393Y-102407133D01*
X43596098Y-102421747D01*
X43614277Y-102438223D01*
X43630753Y-102456402D01*
X43645367Y-102476107D01*
X43657980Y-102497151D01*
X43668470Y-102519329D01*
X43676735Y-102542429D01*
X43682696Y-102566227D01*
X43686296Y-102590496D01*
X43687500Y-102615000D01*
X43687500Y-103865000D01*
X43686296Y-103889504D01*
X43682696Y-103913773D01*
X43676735Y-103937571D01*
X43668470Y-103960671D01*
X43657980Y-103982849D01*
X43645367Y-104003893D01*
X43630753Y-104023598D01*
X43614277Y-104041777D01*
X43596098Y-104058253D01*
X43576393Y-104072867D01*
X43555349Y-104085480D01*
X43533171Y-104095970D01*
X43510071Y-104104235D01*
X43486273Y-104110196D01*
X43462004Y-104113796D01*
X43437500Y-104115000D01*
X42512500Y-104115000D01*
X42487996Y-104113796D01*
X42463727Y-104110196D01*
X42439929Y-104104235D01*
X42416829Y-104095970D01*
X42394651Y-104085480D01*
X42373607Y-104072867D01*
X42353902Y-104058253D01*
X42335723Y-104041777D01*
X42319247Y-104023598D01*
X42304633Y-104003893D01*
X42292020Y-103982849D01*
X42281530Y-103960671D01*
X42273265Y-103937571D01*
X42267304Y-103913773D01*
X42263704Y-103889504D01*
X42262500Y-103865000D01*
X42262500Y-102615000D01*
X42263704Y-102590496D01*
X42267304Y-102566227D01*
X42273265Y-102542429D01*
X42281530Y-102519329D01*
X42292020Y-102497151D01*
X42304633Y-102476107D01*
X42319247Y-102456402D01*
X42335723Y-102438223D01*
X42353902Y-102421747D01*
X42373607Y-102407133D01*
X42394651Y-102394520D01*
X42416829Y-102384030D01*
X42439929Y-102375765D01*
X42463727Y-102369804D01*
X42487996Y-102366204D01*
X42512500Y-102365000D01*
X43437500Y-102365000D01*
X43462004Y-102366204D01*
X43462004Y-102366204D01*
G37*
D12*
X42975000Y-103240000D03*
D11*
G36*
X46437004Y-102366204D02*
G01*
X46461273Y-102369804D01*
X46485071Y-102375765D01*
X46508171Y-102384030D01*
X46530349Y-102394520D01*
X46551393Y-102407133D01*
X46571098Y-102421747D01*
X46589277Y-102438223D01*
X46605753Y-102456402D01*
X46620367Y-102476107D01*
X46632980Y-102497151D01*
X46643470Y-102519329D01*
X46651735Y-102542429D01*
X46657696Y-102566227D01*
X46661296Y-102590496D01*
X46662500Y-102615000D01*
X46662500Y-103865000D01*
X46661296Y-103889504D01*
X46657696Y-103913773D01*
X46651735Y-103937571D01*
X46643470Y-103960671D01*
X46632980Y-103982849D01*
X46620367Y-104003893D01*
X46605753Y-104023598D01*
X46589277Y-104041777D01*
X46571098Y-104058253D01*
X46551393Y-104072867D01*
X46530349Y-104085480D01*
X46508171Y-104095970D01*
X46485071Y-104104235D01*
X46461273Y-104110196D01*
X46437004Y-104113796D01*
X46412500Y-104115000D01*
X45487500Y-104115000D01*
X45462996Y-104113796D01*
X45438727Y-104110196D01*
X45414929Y-104104235D01*
X45391829Y-104095970D01*
X45369651Y-104085480D01*
X45348607Y-104072867D01*
X45328902Y-104058253D01*
X45310723Y-104041777D01*
X45294247Y-104023598D01*
X45279633Y-104003893D01*
X45267020Y-103982849D01*
X45256530Y-103960671D01*
X45248265Y-103937571D01*
X45242304Y-103913773D01*
X45238704Y-103889504D01*
X45237500Y-103865000D01*
X45237500Y-102615000D01*
X45238704Y-102590496D01*
X45242304Y-102566227D01*
X45248265Y-102542429D01*
X45256530Y-102519329D01*
X45267020Y-102497151D01*
X45279633Y-102476107D01*
X45294247Y-102456402D01*
X45310723Y-102438223D01*
X45328902Y-102421747D01*
X45348607Y-102407133D01*
X45369651Y-102394520D01*
X45391829Y-102384030D01*
X45414929Y-102375765D01*
X45438727Y-102369804D01*
X45462996Y-102366204D01*
X45487500Y-102365000D01*
X46412500Y-102365000D01*
X46437004Y-102366204D01*
X46437004Y-102366204D01*
G37*
D12*
X45950000Y-103240000D03*
D11*
G36*
X43497004Y-105206204D02*
G01*
X43521273Y-105209804D01*
X43545071Y-105215765D01*
X43568171Y-105224030D01*
X43590349Y-105234520D01*
X43611393Y-105247133D01*
X43631098Y-105261747D01*
X43649277Y-105278223D01*
X43665753Y-105296402D01*
X43680367Y-105316107D01*
X43692980Y-105337151D01*
X43703470Y-105359329D01*
X43711735Y-105382429D01*
X43717696Y-105406227D01*
X43721296Y-105430496D01*
X43722500Y-105455000D01*
X43722500Y-106705000D01*
X43721296Y-106729504D01*
X43717696Y-106753773D01*
X43711735Y-106777571D01*
X43703470Y-106800671D01*
X43692980Y-106822849D01*
X43680367Y-106843893D01*
X43665753Y-106863598D01*
X43649277Y-106881777D01*
X43631098Y-106898253D01*
X43611393Y-106912867D01*
X43590349Y-106925480D01*
X43568171Y-106935970D01*
X43545071Y-106944235D01*
X43521273Y-106950196D01*
X43497004Y-106953796D01*
X43472500Y-106955000D01*
X42547500Y-106955000D01*
X42522996Y-106953796D01*
X42498727Y-106950196D01*
X42474929Y-106944235D01*
X42451829Y-106935970D01*
X42429651Y-106925480D01*
X42408607Y-106912867D01*
X42388902Y-106898253D01*
X42370723Y-106881777D01*
X42354247Y-106863598D01*
X42339633Y-106843893D01*
X42327020Y-106822849D01*
X42316530Y-106800671D01*
X42308265Y-106777571D01*
X42302304Y-106753773D01*
X42298704Y-106729504D01*
X42297500Y-106705000D01*
X42297500Y-105455000D01*
X42298704Y-105430496D01*
X42302304Y-105406227D01*
X42308265Y-105382429D01*
X42316530Y-105359329D01*
X42327020Y-105337151D01*
X42339633Y-105316107D01*
X42354247Y-105296402D01*
X42370723Y-105278223D01*
X42388902Y-105261747D01*
X42408607Y-105247133D01*
X42429651Y-105234520D01*
X42451829Y-105224030D01*
X42474929Y-105215765D01*
X42498727Y-105209804D01*
X42522996Y-105206204D01*
X42547500Y-105205000D01*
X43472500Y-105205000D01*
X43497004Y-105206204D01*
X43497004Y-105206204D01*
G37*
D12*
X43010000Y-106080000D03*
D11*
G36*
X46472004Y-105206204D02*
G01*
X46496273Y-105209804D01*
X46520071Y-105215765D01*
X46543171Y-105224030D01*
X46565349Y-105234520D01*
X46586393Y-105247133D01*
X46606098Y-105261747D01*
X46624277Y-105278223D01*
X46640753Y-105296402D01*
X46655367Y-105316107D01*
X46667980Y-105337151D01*
X46678470Y-105359329D01*
X46686735Y-105382429D01*
X46692696Y-105406227D01*
X46696296Y-105430496D01*
X46697500Y-105455000D01*
X46697500Y-106705000D01*
X46696296Y-106729504D01*
X46692696Y-106753773D01*
X46686735Y-106777571D01*
X46678470Y-106800671D01*
X46667980Y-106822849D01*
X46655367Y-106843893D01*
X46640753Y-106863598D01*
X46624277Y-106881777D01*
X46606098Y-106898253D01*
X46586393Y-106912867D01*
X46565349Y-106925480D01*
X46543171Y-106935970D01*
X46520071Y-106944235D01*
X46496273Y-106950196D01*
X46472004Y-106953796D01*
X46447500Y-106955000D01*
X45522500Y-106955000D01*
X45497996Y-106953796D01*
X45473727Y-106950196D01*
X45449929Y-106944235D01*
X45426829Y-106935970D01*
X45404651Y-106925480D01*
X45383607Y-106912867D01*
X45363902Y-106898253D01*
X45345723Y-106881777D01*
X45329247Y-106863598D01*
X45314633Y-106843893D01*
X45302020Y-106822849D01*
X45291530Y-106800671D01*
X45283265Y-106777571D01*
X45277304Y-106753773D01*
X45273704Y-106729504D01*
X45272500Y-106705000D01*
X45272500Y-105455000D01*
X45273704Y-105430496D01*
X45277304Y-105406227D01*
X45283265Y-105382429D01*
X45291530Y-105359329D01*
X45302020Y-105337151D01*
X45314633Y-105316107D01*
X45329247Y-105296402D01*
X45345723Y-105278223D01*
X45363902Y-105261747D01*
X45383607Y-105247133D01*
X45404651Y-105234520D01*
X45426829Y-105224030D01*
X45449929Y-105215765D01*
X45473727Y-105209804D01*
X45497996Y-105206204D01*
X45522500Y-105205000D01*
X46447500Y-105205000D01*
X46472004Y-105206204D01*
X46472004Y-105206204D01*
G37*
D12*
X45985000Y-106080000D03*
D10*
X66038000Y-56860000D03*
X66038000Y-58960000D03*
X128720000Y-56570000D03*
X128720000Y-58670000D03*
X87120000Y-56860000D03*
X87120000Y-58960000D03*
X107948000Y-56606000D03*
X107948000Y-58706000D03*
X65970000Y-75920000D03*
X65970000Y-78020000D03*
D11*
G36*
X43462004Y-96866204D02*
G01*
X43486273Y-96869804D01*
X43510071Y-96875765D01*
X43533171Y-96884030D01*
X43555349Y-96894520D01*
X43576393Y-96907133D01*
X43596098Y-96921747D01*
X43614277Y-96938223D01*
X43630753Y-96956402D01*
X43645367Y-96976107D01*
X43657980Y-96997151D01*
X43668470Y-97019329D01*
X43676735Y-97042429D01*
X43682696Y-97066227D01*
X43686296Y-97090496D01*
X43687500Y-97115000D01*
X43687500Y-98365000D01*
X43686296Y-98389504D01*
X43682696Y-98413773D01*
X43676735Y-98437571D01*
X43668470Y-98460671D01*
X43657980Y-98482849D01*
X43645367Y-98503893D01*
X43630753Y-98523598D01*
X43614277Y-98541777D01*
X43596098Y-98558253D01*
X43576393Y-98572867D01*
X43555349Y-98585480D01*
X43533171Y-98595970D01*
X43510071Y-98604235D01*
X43486273Y-98610196D01*
X43462004Y-98613796D01*
X43437500Y-98615000D01*
X42512500Y-98615000D01*
X42487996Y-98613796D01*
X42463727Y-98610196D01*
X42439929Y-98604235D01*
X42416829Y-98595970D01*
X42394651Y-98585480D01*
X42373607Y-98572867D01*
X42353902Y-98558253D01*
X42335723Y-98541777D01*
X42319247Y-98523598D01*
X42304633Y-98503893D01*
X42292020Y-98482849D01*
X42281530Y-98460671D01*
X42273265Y-98437571D01*
X42267304Y-98413773D01*
X42263704Y-98389504D01*
X42262500Y-98365000D01*
X42262500Y-97115000D01*
X42263704Y-97090496D01*
X42267304Y-97066227D01*
X42273265Y-97042429D01*
X42281530Y-97019329D01*
X42292020Y-96997151D01*
X42304633Y-96976107D01*
X42319247Y-96956402D01*
X42335723Y-96938223D01*
X42353902Y-96921747D01*
X42373607Y-96907133D01*
X42394651Y-96894520D01*
X42416829Y-96884030D01*
X42439929Y-96875765D01*
X42463727Y-96869804D01*
X42487996Y-96866204D01*
X42512500Y-96865000D01*
X43437500Y-96865000D01*
X43462004Y-96866204D01*
X43462004Y-96866204D01*
G37*
D12*
X42975000Y-97740000D03*
D11*
G36*
X46437004Y-96866204D02*
G01*
X46461273Y-96869804D01*
X46485071Y-96875765D01*
X46508171Y-96884030D01*
X46530349Y-96894520D01*
X46551393Y-96907133D01*
X46571098Y-96921747D01*
X46589277Y-96938223D01*
X46605753Y-96956402D01*
X46620367Y-96976107D01*
X46632980Y-96997151D01*
X46643470Y-97019329D01*
X46651735Y-97042429D01*
X46657696Y-97066227D01*
X46661296Y-97090496D01*
X46662500Y-97115000D01*
X46662500Y-98365000D01*
X46661296Y-98389504D01*
X46657696Y-98413773D01*
X46651735Y-98437571D01*
X46643470Y-98460671D01*
X46632980Y-98482849D01*
X46620367Y-98503893D01*
X46605753Y-98523598D01*
X46589277Y-98541777D01*
X46571098Y-98558253D01*
X46551393Y-98572867D01*
X46530349Y-98585480D01*
X46508171Y-98595970D01*
X46485071Y-98604235D01*
X46461273Y-98610196D01*
X46437004Y-98613796D01*
X46412500Y-98615000D01*
X45487500Y-98615000D01*
X45462996Y-98613796D01*
X45438727Y-98610196D01*
X45414929Y-98604235D01*
X45391829Y-98595970D01*
X45369651Y-98585480D01*
X45348607Y-98572867D01*
X45328902Y-98558253D01*
X45310723Y-98541777D01*
X45294247Y-98523598D01*
X45279633Y-98503893D01*
X45267020Y-98482849D01*
X45256530Y-98460671D01*
X45248265Y-98437571D01*
X45242304Y-98413773D01*
X45238704Y-98389504D01*
X45237500Y-98365000D01*
X45237500Y-97115000D01*
X45238704Y-97090496D01*
X45242304Y-97066227D01*
X45248265Y-97042429D01*
X45256530Y-97019329D01*
X45267020Y-96997151D01*
X45279633Y-96976107D01*
X45294247Y-96956402D01*
X45310723Y-96938223D01*
X45328902Y-96921747D01*
X45348607Y-96907133D01*
X45369651Y-96894520D01*
X45391829Y-96884030D01*
X45414929Y-96875765D01*
X45438727Y-96869804D01*
X45462996Y-96866204D01*
X45487500Y-96865000D01*
X46412500Y-96865000D01*
X46437004Y-96866204D01*
X46437004Y-96866204D01*
G37*
D12*
X45950000Y-97740000D03*
D10*
X107970000Y-96220000D03*
X107970000Y-98320000D03*
X128770000Y-116120000D03*
X128770000Y-118220000D03*
X65970000Y-116120000D03*
X65970000Y-118220000D03*
X107970000Y-75920000D03*
X107970000Y-78020000D03*
X65970000Y-96220000D03*
X65970000Y-98320000D03*
X86970000Y-116120000D03*
X86970000Y-118220000D03*
X86970000Y-75920000D03*
X86970000Y-78020000D03*
X108070000Y-116120000D03*
X108070000Y-118220000D03*
X128770000Y-75920000D03*
X128770000Y-78020000D03*
X128670000Y-96220000D03*
X128670000Y-98320000D03*
X86970000Y-96220000D03*
X86970000Y-98320000D03*
D11*
G36*
X43482004Y-94176204D02*
G01*
X43506273Y-94179804D01*
X43530071Y-94185765D01*
X43553171Y-94194030D01*
X43575349Y-94204520D01*
X43596393Y-94217133D01*
X43616098Y-94231747D01*
X43634277Y-94248223D01*
X43650753Y-94266402D01*
X43665367Y-94286107D01*
X43677980Y-94307151D01*
X43688470Y-94329329D01*
X43696735Y-94352429D01*
X43702696Y-94376227D01*
X43706296Y-94400496D01*
X43707500Y-94425000D01*
X43707500Y-95675000D01*
X43706296Y-95699504D01*
X43702696Y-95723773D01*
X43696735Y-95747571D01*
X43688470Y-95770671D01*
X43677980Y-95792849D01*
X43665367Y-95813893D01*
X43650753Y-95833598D01*
X43634277Y-95851777D01*
X43616098Y-95868253D01*
X43596393Y-95882867D01*
X43575349Y-95895480D01*
X43553171Y-95905970D01*
X43530071Y-95914235D01*
X43506273Y-95920196D01*
X43482004Y-95923796D01*
X43457500Y-95925000D01*
X42532500Y-95925000D01*
X42507996Y-95923796D01*
X42483727Y-95920196D01*
X42459929Y-95914235D01*
X42436829Y-95905970D01*
X42414651Y-95895480D01*
X42393607Y-95882867D01*
X42373902Y-95868253D01*
X42355723Y-95851777D01*
X42339247Y-95833598D01*
X42324633Y-95813893D01*
X42312020Y-95792849D01*
X42301530Y-95770671D01*
X42293265Y-95747571D01*
X42287304Y-95723773D01*
X42283704Y-95699504D01*
X42282500Y-95675000D01*
X42282500Y-94425000D01*
X42283704Y-94400496D01*
X42287304Y-94376227D01*
X42293265Y-94352429D01*
X42301530Y-94329329D01*
X42312020Y-94307151D01*
X42324633Y-94286107D01*
X42339247Y-94266402D01*
X42355723Y-94248223D01*
X42373902Y-94231747D01*
X42393607Y-94217133D01*
X42414651Y-94204520D01*
X42436829Y-94194030D01*
X42459929Y-94185765D01*
X42483727Y-94179804D01*
X42507996Y-94176204D01*
X42532500Y-94175000D01*
X43457500Y-94175000D01*
X43482004Y-94176204D01*
X43482004Y-94176204D01*
G37*
D12*
X42995000Y-95050000D03*
D11*
G36*
X46457004Y-94176204D02*
G01*
X46481273Y-94179804D01*
X46505071Y-94185765D01*
X46528171Y-94194030D01*
X46550349Y-94204520D01*
X46571393Y-94217133D01*
X46591098Y-94231747D01*
X46609277Y-94248223D01*
X46625753Y-94266402D01*
X46640367Y-94286107D01*
X46652980Y-94307151D01*
X46663470Y-94329329D01*
X46671735Y-94352429D01*
X46677696Y-94376227D01*
X46681296Y-94400496D01*
X46682500Y-94425000D01*
X46682500Y-95675000D01*
X46681296Y-95699504D01*
X46677696Y-95723773D01*
X46671735Y-95747571D01*
X46663470Y-95770671D01*
X46652980Y-95792849D01*
X46640367Y-95813893D01*
X46625753Y-95833598D01*
X46609277Y-95851777D01*
X46591098Y-95868253D01*
X46571393Y-95882867D01*
X46550349Y-95895480D01*
X46528171Y-95905970D01*
X46505071Y-95914235D01*
X46481273Y-95920196D01*
X46457004Y-95923796D01*
X46432500Y-95925000D01*
X45507500Y-95925000D01*
X45482996Y-95923796D01*
X45458727Y-95920196D01*
X45434929Y-95914235D01*
X45411829Y-95905970D01*
X45389651Y-95895480D01*
X45368607Y-95882867D01*
X45348902Y-95868253D01*
X45330723Y-95851777D01*
X45314247Y-95833598D01*
X45299633Y-95813893D01*
X45287020Y-95792849D01*
X45276530Y-95770671D01*
X45268265Y-95747571D01*
X45262304Y-95723773D01*
X45258704Y-95699504D01*
X45257500Y-95675000D01*
X45257500Y-94425000D01*
X45258704Y-94400496D01*
X45262304Y-94376227D01*
X45268265Y-94352429D01*
X45276530Y-94329329D01*
X45287020Y-94307151D01*
X45299633Y-94286107D01*
X45314247Y-94266402D01*
X45330723Y-94248223D01*
X45348902Y-94231747D01*
X45368607Y-94217133D01*
X45389651Y-94204520D01*
X45411829Y-94194030D01*
X45434929Y-94185765D01*
X45458727Y-94179804D01*
X45482996Y-94176204D01*
X45507500Y-94175000D01*
X46432500Y-94175000D01*
X46457004Y-94176204D01*
X46457004Y-94176204D01*
G37*
D12*
X45970000Y-95050000D03*
D11*
G36*
X43482004Y-91496204D02*
G01*
X43506273Y-91499804D01*
X43530071Y-91505765D01*
X43553171Y-91514030D01*
X43575349Y-91524520D01*
X43596393Y-91537133D01*
X43616098Y-91551747D01*
X43634277Y-91568223D01*
X43650753Y-91586402D01*
X43665367Y-91606107D01*
X43677980Y-91627151D01*
X43688470Y-91649329D01*
X43696735Y-91672429D01*
X43702696Y-91696227D01*
X43706296Y-91720496D01*
X43707500Y-91745000D01*
X43707500Y-92995000D01*
X43706296Y-93019504D01*
X43702696Y-93043773D01*
X43696735Y-93067571D01*
X43688470Y-93090671D01*
X43677980Y-93112849D01*
X43665367Y-93133893D01*
X43650753Y-93153598D01*
X43634277Y-93171777D01*
X43616098Y-93188253D01*
X43596393Y-93202867D01*
X43575349Y-93215480D01*
X43553171Y-93225970D01*
X43530071Y-93234235D01*
X43506273Y-93240196D01*
X43482004Y-93243796D01*
X43457500Y-93245000D01*
X42532500Y-93245000D01*
X42507996Y-93243796D01*
X42483727Y-93240196D01*
X42459929Y-93234235D01*
X42436829Y-93225970D01*
X42414651Y-93215480D01*
X42393607Y-93202867D01*
X42373902Y-93188253D01*
X42355723Y-93171777D01*
X42339247Y-93153598D01*
X42324633Y-93133893D01*
X42312020Y-93112849D01*
X42301530Y-93090671D01*
X42293265Y-93067571D01*
X42287304Y-93043773D01*
X42283704Y-93019504D01*
X42282500Y-92995000D01*
X42282500Y-91745000D01*
X42283704Y-91720496D01*
X42287304Y-91696227D01*
X42293265Y-91672429D01*
X42301530Y-91649329D01*
X42312020Y-91627151D01*
X42324633Y-91606107D01*
X42339247Y-91586402D01*
X42355723Y-91568223D01*
X42373902Y-91551747D01*
X42393607Y-91537133D01*
X42414651Y-91524520D01*
X42436829Y-91514030D01*
X42459929Y-91505765D01*
X42483727Y-91499804D01*
X42507996Y-91496204D01*
X42532500Y-91495000D01*
X43457500Y-91495000D01*
X43482004Y-91496204D01*
X43482004Y-91496204D01*
G37*
D12*
X42995000Y-92370000D03*
D11*
G36*
X46457004Y-91496204D02*
G01*
X46481273Y-91499804D01*
X46505071Y-91505765D01*
X46528171Y-91514030D01*
X46550349Y-91524520D01*
X46571393Y-91537133D01*
X46591098Y-91551747D01*
X46609277Y-91568223D01*
X46625753Y-91586402D01*
X46640367Y-91606107D01*
X46652980Y-91627151D01*
X46663470Y-91649329D01*
X46671735Y-91672429D01*
X46677696Y-91696227D01*
X46681296Y-91720496D01*
X46682500Y-91745000D01*
X46682500Y-92995000D01*
X46681296Y-93019504D01*
X46677696Y-93043773D01*
X46671735Y-93067571D01*
X46663470Y-93090671D01*
X46652980Y-93112849D01*
X46640367Y-93133893D01*
X46625753Y-93153598D01*
X46609277Y-93171777D01*
X46591098Y-93188253D01*
X46571393Y-93202867D01*
X46550349Y-93215480D01*
X46528171Y-93225970D01*
X46505071Y-93234235D01*
X46481273Y-93240196D01*
X46457004Y-93243796D01*
X46432500Y-93245000D01*
X45507500Y-93245000D01*
X45482996Y-93243796D01*
X45458727Y-93240196D01*
X45434929Y-93234235D01*
X45411829Y-93225970D01*
X45389651Y-93215480D01*
X45368607Y-93202867D01*
X45348902Y-93188253D01*
X45330723Y-93171777D01*
X45314247Y-93153598D01*
X45299633Y-93133893D01*
X45287020Y-93112849D01*
X45276530Y-93090671D01*
X45268265Y-93067571D01*
X45262304Y-93043773D01*
X45258704Y-93019504D01*
X45257500Y-92995000D01*
X45257500Y-91745000D01*
X45258704Y-91720496D01*
X45262304Y-91696227D01*
X45268265Y-91672429D01*
X45276530Y-91649329D01*
X45287020Y-91627151D01*
X45299633Y-91606107D01*
X45314247Y-91586402D01*
X45330723Y-91568223D01*
X45348902Y-91551747D01*
X45368607Y-91537133D01*
X45389651Y-91524520D01*
X45411829Y-91514030D01*
X45434929Y-91505765D01*
X45458727Y-91499804D01*
X45482996Y-91496204D01*
X45507500Y-91495000D01*
X46432500Y-91495000D01*
X46457004Y-91496204D01*
X46457004Y-91496204D01*
G37*
D12*
X45970000Y-92370000D03*
M02*
