G04 #@! TF.GenerationSoftware,KiCad,Pcbnew,(5.1.0)-1*
G04 #@! TF.CreationDate,2019-03-23T00:29:26+01:00*
G04 #@! TF.ProjectId,Schematic2,53636865-6d61-4746-9963-322e6b696361,rev?*
G04 #@! TF.SameCoordinates,Original*
G04 #@! TF.FileFunction,Copper,L2,Bot*
G04 #@! TF.FilePolarity,Positive*
%FSLAX46Y46*%
G04 Gerber Fmt 4.6, Leading zero omitted, Abs format (unit mm)*
G04 Created by KiCad (PCBNEW (5.1.0)-1) date 2019-03-23 00:29:26*
%MOMM*%
%LPD*%
G04 APERTURE LIST*
%ADD10C,2.000000*%
%ADD11C,1.600000*%
%ADD12R,3.200000X2.000000*%
%ADD13R,2.000000X2.000000*%
%ADD14C,1.700000*%
%ADD15C,1.400000*%
%ADD16O,1.400000X1.400000*%
%ADD17R,2.500000X2.500000*%
%ADD18C,1.752600*%
%ADD19C,1.500000*%
%ADD20R,1.752600X1.752600*%
%ADD21C,0.800000*%
%ADD22C,0.400000*%
G04 APERTURE END LIST*
D10*
X76470000Y-143370000D03*
X71470000Y-141270000D03*
X55470000Y-143370000D03*
X50470000Y-141270000D03*
X97470000Y-143370000D03*
X92470000Y-141270000D03*
X118470000Y-143370000D03*
X113470000Y-141270000D03*
X55470000Y-123370000D03*
X50470000Y-121270000D03*
X118470000Y-123370000D03*
X113470000Y-121270000D03*
X118470000Y-103370000D03*
X113470000Y-101270000D03*
X76470000Y-123370000D03*
X71470000Y-121270000D03*
X97470000Y-123370000D03*
X92470000Y-121270000D03*
X118470000Y-83370000D03*
X113470000Y-81270000D03*
D11*
X97470000Y-63370000D03*
D10*
X92470000Y-61270000D03*
X55470000Y-103370000D03*
X50470000Y-101270000D03*
X31470000Y-35470000D03*
X31470000Y-40470000D03*
D12*
X38470000Y-32370000D03*
X38470000Y-43570000D03*
D10*
X45970000Y-35470000D03*
X45970000Y-37970000D03*
D13*
X45970000Y-40470000D03*
D10*
X55470000Y-83370000D03*
X50470000Y-81270000D03*
X97470000Y-103370000D03*
X92470000Y-101270000D03*
X55470000Y-63370000D03*
X50470000Y-61270000D03*
X76470000Y-103370000D03*
X71470000Y-101270000D03*
D14*
X118470000Y-63370000D03*
D10*
X113470000Y-61270000D03*
X97470000Y-83370000D03*
X92470000Y-81270000D03*
X76470000Y-83370000D03*
X71470000Y-81270000D03*
D15*
X33018000Y-46734000D03*
D16*
X33018000Y-49274000D03*
D17*
X38480000Y-114122000D03*
D10*
X39720000Y-53870000D03*
X34720000Y-53870000D03*
X42220000Y-123870000D03*
X39720000Y-123870000D03*
X37220000Y-123870000D03*
X34720000Y-123870000D03*
D17*
X38480000Y-66370000D03*
D10*
X76470000Y-63370000D03*
X71470000Y-61270000D03*
D18*
X124590000Y-49850000D03*
X122050000Y-49850000D03*
X119510000Y-49850000D03*
X116970000Y-49850000D03*
X114430000Y-49850000D03*
X111890000Y-49850000D03*
X109350000Y-49850000D03*
X106810000Y-49850000D03*
X104270000Y-49850000D03*
X101730000Y-49850000D03*
X99190000Y-49850000D03*
X96650000Y-49850000D03*
D19*
X96650000Y-65090000D03*
D18*
X99190000Y-65090000D03*
X101730000Y-65090000D03*
X104270000Y-65090000D03*
X106810000Y-65090000D03*
X109350000Y-65090000D03*
X111890000Y-65090000D03*
X114430000Y-65090000D03*
X116970000Y-65090000D03*
D11*
X119510000Y-65090000D03*
D18*
X122050000Y-65090000D03*
D20*
X124590000Y-65090000D03*
D17*
X114612000Y-37960000D03*
D10*
X54360000Y-36720000D03*
X54360000Y-41720000D03*
X124360000Y-34220000D03*
X124360000Y-36720000D03*
X124360000Y-39220000D03*
X124360000Y-41720000D03*
D17*
X66860000Y-37960000D03*
D21*
X109460000Y-67940000D03*
X110240000Y-86710000D03*
X110240000Y-84540000D03*
X110350000Y-69310000D03*
X110660000Y-107840000D03*
X111040000Y-70600000D03*
X110660000Y-106000000D03*
X111230000Y-86880000D03*
X111270000Y-84560000D03*
X112270000Y-84630000D03*
X111640010Y-71920000D03*
X112320000Y-86880000D03*
X111190000Y-126100000D03*
X111830000Y-106000000D03*
X111220000Y-127950000D03*
X111830000Y-107910000D03*
X32510000Y-51687000D03*
X34669000Y-93597000D03*
X34669000Y-91438000D03*
X41692000Y-39533579D03*
X68140000Y-94620000D03*
X68450000Y-54980000D03*
X89370000Y-92430000D03*
X89370000Y-68400000D03*
X96660000Y-68400000D03*
X36447000Y-108964000D03*
X34161000Y-108964000D03*
X38517000Y-46264000D03*
X36680000Y-45860000D03*
X68960000Y-108990000D03*
X72080000Y-55190000D03*
X63540000Y-106170000D03*
X64190000Y-55040000D03*
X98390000Y-52919990D03*
X106800000Y-52900000D03*
X62720000Y-105090000D03*
X63110000Y-54860000D03*
X98373053Y-51920131D03*
X109340000Y-51890000D03*
X108450000Y-93630000D03*
X112720000Y-93640000D03*
X125570000Y-93670000D03*
X125640000Y-68270000D03*
X127420000Y-68250000D03*
X127350000Y-52570000D03*
X47990000Y-100500000D03*
X48550000Y-107500000D03*
X108340000Y-109320000D03*
X113930000Y-109320000D03*
X117270000Y-109270000D03*
X33183000Y-92454000D03*
X42490000Y-42950000D03*
X38160000Y-95040000D03*
X35685000Y-91438000D03*
X35685000Y-100455000D03*
X58279314Y-42249315D03*
X54300000Y-44640000D03*
X36950000Y-91440000D03*
X36900000Y-106050000D03*
D22*
X113470000Y-101270000D02*
X115400000Y-101270000D01*
X113470000Y-121270000D02*
X114884213Y-121270000D01*
X113470000Y-81270000D02*
X115400000Y-81270000D01*
X115400000Y-76310000D02*
X115400000Y-121270000D01*
X119510000Y-52780002D02*
X115230002Y-57060000D01*
X119510000Y-49850000D02*
X119510000Y-52780002D01*
X120660001Y-71049999D02*
X115400000Y-76310000D01*
X118220002Y-61270000D02*
X120660001Y-63709999D01*
X115230002Y-59509998D02*
X113470000Y-61270000D01*
X113470000Y-61270000D02*
X118220002Y-61270000D01*
X120660001Y-63709999D02*
X120660001Y-71049999D01*
X115230002Y-57060000D02*
X115230002Y-59509998D01*
X115400000Y-139340000D02*
X113470000Y-141270000D01*
X115400000Y-121720000D02*
X114950000Y-121270000D01*
X115400000Y-121750000D02*
X115400000Y-121720000D01*
X114950000Y-121270000D02*
X115400000Y-121270000D01*
X114884213Y-121270000D02*
X114950000Y-121270000D01*
X115400000Y-121750000D02*
X115400000Y-139340000D01*
X115400000Y-121270000D02*
X115400000Y-121750000D01*
X94660000Y-121190000D02*
X94660000Y-101230000D01*
X94700000Y-61280000D02*
X94700000Y-57131998D01*
X92470000Y-65600000D02*
X92470000Y-61270000D01*
X94620000Y-101270000D02*
X94660000Y-101230000D01*
X115810000Y-55000000D02*
X116970000Y-53840000D01*
X96220000Y-55000000D02*
X115810000Y-55000000D01*
X94710000Y-57121998D02*
X94710000Y-56510000D01*
X94660000Y-101230000D02*
X94660000Y-81280000D01*
X94700000Y-57131998D02*
X94710000Y-57121998D01*
X92470000Y-61270000D02*
X93884213Y-61270000D01*
X94580000Y-121270000D02*
X94660000Y-121190000D01*
X94660000Y-67790000D02*
X92470000Y-65600000D01*
X94660000Y-81280000D02*
X94660000Y-67790000D01*
X93894213Y-81280000D02*
X94660000Y-81280000D01*
X116970000Y-53840000D02*
X116970000Y-49850000D01*
X92470000Y-81270000D02*
X93884213Y-81270000D01*
X94710000Y-56510000D02*
X96220000Y-55000000D01*
X92470000Y-101270000D02*
X94620000Y-101270000D01*
X93884213Y-61270000D02*
X93894213Y-61280000D01*
X93884213Y-81270000D02*
X93894213Y-81280000D01*
X93894213Y-61280000D02*
X94700000Y-61280000D01*
X93469999Y-140270001D02*
X93469999Y-140250001D01*
X92470000Y-141270000D02*
X93469999Y-140270001D01*
X93469999Y-140250001D02*
X94660000Y-139060000D01*
X94660000Y-121935000D02*
X93995000Y-121270000D01*
X94660000Y-121965000D02*
X94660000Y-121935000D01*
X93995000Y-121270000D02*
X92470000Y-121270000D01*
X94580000Y-121270000D02*
X93995000Y-121270000D01*
X94660000Y-121965000D02*
X94660000Y-121190000D01*
X94660000Y-139060000D02*
X94660000Y-121965000D01*
X71488176Y-101288176D02*
X71470000Y-101270000D01*
X72894213Y-81260000D02*
X73530000Y-81260000D01*
X71488176Y-101367900D02*
X71488176Y-101288176D01*
X73530000Y-63330000D02*
X71470000Y-61270000D01*
X96051458Y-54320000D02*
X114400000Y-54320000D01*
X71470000Y-81270000D02*
X72884213Y-81270000D01*
X73550000Y-57775787D02*
X73550000Y-54770000D01*
X73550000Y-54770000D02*
X95601458Y-54770000D01*
X71470000Y-61270000D02*
X71470000Y-59855787D01*
X71470000Y-101270000D02*
X73530000Y-101270000D01*
X71470000Y-59855787D02*
X73550000Y-57775787D01*
X95601458Y-54770000D02*
X96051458Y-54320000D01*
X114400000Y-54320000D02*
X114430000Y-54290000D01*
X73530000Y-81260000D02*
X73530000Y-63330000D01*
X72884213Y-81270000D02*
X72894213Y-81260000D01*
X114430000Y-54290000D02*
X114430000Y-49850000D01*
X72469999Y-140270001D02*
X72469999Y-140170001D01*
X71470000Y-141270000D02*
X72469999Y-140270001D01*
X72469999Y-140170001D02*
X73530000Y-139110000D01*
X73530000Y-121760000D02*
X73040000Y-121270000D01*
X73530000Y-121790000D02*
X73530000Y-121760000D01*
X73040000Y-121270000D02*
X73530000Y-121270000D01*
X71470000Y-121270000D02*
X73040000Y-121270000D01*
X73530000Y-121790000D02*
X73530000Y-81260000D01*
X73530000Y-139110000D02*
X73530000Y-121790000D01*
X50470000Y-101270000D02*
X52500000Y-101270000D01*
X50470000Y-59855787D02*
X52480000Y-57845787D01*
X50470000Y-61270000D02*
X50470000Y-59855787D01*
X52480000Y-57845787D02*
X52480000Y-54060000D01*
X95462916Y-54060000D02*
X95802926Y-53719990D01*
X52480000Y-54060000D02*
X95462916Y-54060000D01*
X95802926Y-53719990D02*
X111830000Y-53719990D01*
X111890000Y-53659990D02*
X111890000Y-49850000D01*
X111830000Y-53719990D02*
X111890000Y-53659990D01*
X50470000Y-81270000D02*
X52500000Y-81270000D01*
X52500000Y-63300000D02*
X50470000Y-61270000D01*
X51469999Y-140250001D02*
X52500000Y-139220000D01*
X50470000Y-141270000D02*
X51469999Y-140270001D01*
X51469999Y-140270001D02*
X51469999Y-140250001D01*
X50470000Y-121270000D02*
X52500000Y-121270000D01*
X52500000Y-121715000D02*
X52070000Y-121285000D01*
X52500000Y-121715000D02*
X52500000Y-63300000D01*
X52500000Y-139220000D02*
X52500000Y-121715000D01*
X109460000Y-67740000D02*
X106810000Y-65090000D01*
X109460000Y-67940000D02*
X109460000Y-67740000D01*
X110240000Y-86710000D02*
X110240000Y-84540000D01*
X110350000Y-69310000D02*
X108490000Y-69310000D01*
X108490000Y-69310000D02*
X104270000Y-65090000D01*
X110660000Y-107840000D02*
X110660000Y-106000000D01*
X107240000Y-70600000D02*
X101730000Y-65090000D01*
X111230000Y-86880000D02*
X111230000Y-84600000D01*
X111040000Y-70600000D02*
X107240000Y-70600000D01*
X111230000Y-84600000D02*
X111270000Y-84560000D01*
X102030000Y-67930000D02*
X99190000Y-65090000D01*
X111220000Y-126130000D02*
X111190000Y-126100000D01*
X103721458Y-67930000D02*
X102030000Y-67930000D01*
X111640010Y-71920000D02*
X107711458Y-71920000D01*
X112320000Y-84680000D02*
X112270000Y-84630000D01*
X107711458Y-71920000D02*
X103721458Y-67930000D01*
X111220000Y-127950000D02*
X111220000Y-126130000D01*
X111830000Y-107910000D02*
X111830000Y-106000000D01*
X112320000Y-86880000D02*
X112320000Y-84680000D01*
X32537000Y-51687000D02*
X34720000Y-53870000D01*
X34669000Y-91438000D02*
X34669000Y-93597000D01*
X32510000Y-51687000D02*
X32537000Y-51687000D01*
X41692000Y-39533579D02*
X37426421Y-39533579D01*
X37426421Y-39533579D02*
X31530000Y-45430000D01*
X31530000Y-45430000D02*
X31530000Y-49260000D01*
X31544000Y-49274000D02*
X33018000Y-49274000D01*
X31530000Y-49260000D02*
X31544000Y-49274000D01*
X68140000Y-94620000D02*
X68140000Y-55290000D01*
X68140000Y-55290000D02*
X68450000Y-54980000D01*
X89370000Y-92430000D02*
X89370000Y-68400000D01*
X96660000Y-65100000D02*
X96650000Y-65090000D01*
X96660000Y-68400000D02*
X96660000Y-65100000D01*
X34161000Y-108964000D02*
X36447000Y-108964000D01*
X38517000Y-46264000D02*
X38113000Y-45860000D01*
X38113000Y-45860000D02*
X36680000Y-45860000D01*
X68960000Y-108990000D02*
X68960000Y-56060000D01*
X68960000Y-56060000D02*
X69830000Y-55190000D01*
X69830000Y-55190000D02*
X72080000Y-55190000D01*
X63540000Y-106170000D02*
X63540000Y-55690000D01*
X63540000Y-55690000D02*
X64190000Y-55040000D01*
X98390000Y-52919990D02*
X106780010Y-52919990D01*
X106780010Y-52919990D02*
X106800000Y-52900000D01*
X62720000Y-105090000D02*
X62720000Y-55250000D01*
X62720000Y-55250000D02*
X63110000Y-54860000D01*
X98373053Y-51920131D02*
X109309869Y-51920131D01*
X109309869Y-51920131D02*
X109340000Y-51890000D01*
X108450000Y-93630000D02*
X112710000Y-93630000D01*
X112710000Y-93630000D02*
X112720000Y-93640000D01*
X125570000Y-93670000D02*
X125570000Y-68340000D01*
X125570000Y-68340000D02*
X125640000Y-68270000D01*
X127420000Y-67684315D02*
X127130010Y-67394325D01*
X127420000Y-68250000D02*
X127420000Y-67684315D01*
X127130010Y-67394325D02*
X127130010Y-52789990D01*
X127130010Y-52789990D02*
X127350000Y-52570000D01*
X47990000Y-100500000D02*
X48550000Y-101060000D01*
X48550000Y-101060000D02*
X48550000Y-107500000D01*
X108340000Y-109320000D02*
X113930000Y-109320000D01*
X126530000Y-51790000D02*
X124590000Y-49850000D01*
X117270000Y-109270000D02*
X126530000Y-100010000D01*
X126530000Y-100010000D02*
X126530000Y-51790000D01*
X76470000Y-103370000D02*
X76470000Y-103449725D01*
X76470000Y-103449725D02*
X76488176Y-103467901D01*
X76470000Y-103380044D02*
X76470000Y-103370000D01*
X76404792Y-103445252D02*
X76470000Y-103380044D01*
X33145000Y-58545000D02*
X33145000Y-59180000D01*
X37082000Y-54608000D02*
X33145000Y-58545000D01*
X37082000Y-46734000D02*
X37082000Y-54608000D01*
X33018000Y-46734000D02*
X37082000Y-46734000D01*
X33145000Y-59180000D02*
X33145000Y-92416000D01*
X33145000Y-92416000D02*
X33183000Y-92454000D01*
X42490000Y-42950000D02*
X42490000Y-45770000D01*
X42490000Y-45770000D02*
X41570000Y-46690000D01*
X41570000Y-46690000D02*
X41570000Y-88040000D01*
X41570000Y-88040000D02*
X38160000Y-91450000D01*
X38160000Y-91450000D02*
X38160000Y-95040000D01*
X35685000Y-91438000D02*
X35685000Y-100455000D01*
X58279314Y-42249315D02*
X55888629Y-44640000D01*
X55888629Y-44640000D02*
X54300000Y-44640000D01*
X36950000Y-91440000D02*
X36950000Y-106000000D01*
X36950000Y-106000000D02*
X36900000Y-106050000D01*
M02*
