M48
; DRILL file {KiCad (5.1.0)-1} date 2019-03-23 00:09:09
; FORMAT={-:-/ absolute / inch / decimal}
; #@! TF.CreationDate,2019-03-23T00:09:09+01:00
; #@! TF.GenerationSoftware,Kicad,Pcbnew,(5.1.0)-1
; #@! TF.FileFunction,Plated,1,2,PTH
FMAT,2
INCH
T1C0.0157
T2C0.0276
T3C0.0394
T4C0.0430
T5C0.0472
T6C0.0591
T7C0.0787
%
G90
G05
T1
X1.2799Y-2.0349
X1.3064Y-3.6399
X1.3449Y-4.2899
X1.3649Y-3.5999
X1.3649Y-3.6849
X1.4049Y-3.5999
X1.4049Y-3.9549
X1.4349Y-4.2899
X1.4441Y-1.8055
X1.4528Y-4.1752
X1.4547Y-3.6
X1.5024Y-3.7417
X1.5164Y-1.8214
X1.6414Y-1.5564
X1.6728Y-1.6909
X1.8894Y-3.9567
X1.9114Y-4.2323
X2.1378Y-1.7575
X2.2945Y-1.6634
X2.4693Y-4.1374
X2.4846Y-2.1598
X2.5016Y-4.1799
X2.5272Y-2.1669
X2.6827Y-3.7252
X2.6949Y-2.1646
X2.715Y-4.2909
X2.8378Y-2.1728
X3.5185Y-2.6929
X3.5185Y-3.639
X3.8055Y-2.6929
X3.873Y-2.0441
X3.8736Y-2.0835
X4.2047Y-2.0827
X4.2654Y-4.3039
X4.2697Y-3.6862
X4.3047Y-2.0429
X4.3094Y-2.6748
X4.3402Y-3.3283
X4.3402Y-3.4138
X4.3445Y-2.7287
X4.3567Y-4.1732
X4.3567Y-4.2457
X4.3717Y-2.7795
X4.3776Y-4.9646
X4.3787Y-5.0374
X4.3791Y-3.4205
X4.3807Y-3.3291
X4.3953Y-2.8315
X4.4028Y-4.1732
X4.4028Y-4.2484
X4.4201Y-3.3319
X4.422Y-3.4205
X4.4378Y-3.6866
X4.4854Y-4.3039
X4.6169Y-4.302
X4.9437Y-3.6878
X4.9465Y-2.6878
X5.0138Y-2.0697
X5.0165Y-2.687
T2
X1.2999Y-1.8399
X1.2999Y-1.9399
T3
X1.3669Y-2.1209
X1.3669Y-4.8768
X1.4654Y-4.8768
X1.5638Y-2.1209
X1.5638Y-4.8768
X1.6622Y-4.8768
X2.1402Y-1.4457
X2.1402Y-1.6425
X4.8961Y-1.3472
X4.8961Y-1.4457
X4.8961Y-1.5441
X4.8961Y-1.6425
X3.8374Y-2.4949
X1.239Y-1.3965
X1.239Y-1.5933
X1.8098Y-1.3965
X1.8098Y-1.4949
X1.8098Y-1.5933
T4
X3.8051Y-1.9626
X3.8051Y-2.5626
X3.9051Y-1.9626
X3.9051Y-2.5626
X4.0051Y-1.9626
X4.0051Y-2.5626
X4.1051Y-1.9626
X4.1051Y-2.5626
X4.2051Y-1.9626
X4.2051Y-2.5626
X4.3051Y-1.9626
X4.3051Y-2.5626
X4.4051Y-1.9626
X4.4051Y-2.5626
X4.5051Y-1.9626
X4.5051Y-2.5626
X4.6051Y-1.9626
X4.6051Y-2.5626
X4.7051Y-1.9626
X4.7051Y-2.5626
X4.8051Y-1.9626
X4.8051Y-2.5626
X4.9051Y-1.9626
X4.9051Y-2.5626
T5
X2.8138Y-3.1996
X3.0106Y-3.2823
X3.6406Y-3.1996
X3.8374Y-3.2823
X2.8138Y-3.987
X3.0106Y-4.0697
X1.987Y-3.1996
X2.1839Y-3.2823
X4.4673Y-5.5618
X4.6642Y-5.6445
X1.987Y-2.4122
X2.1839Y-2.4949
X4.4673Y-4.7744
X4.6642Y-4.8571
X1.987Y-5.5618
X2.1839Y-5.6445
X4.4673Y-3.987
X4.6642Y-4.0697
X2.8138Y-2.4122
X3.0106Y-2.4949
X3.6406Y-5.5618
X3.8374Y-5.6445
X4.4673Y-3.1996
X4.6642Y-3.2823
X3.6406Y-4.7744
X3.8374Y-4.8571
X3.6406Y-3.987
X3.8374Y-4.0697
X2.8138Y-4.7744
X3.0106Y-4.8571
X1.987Y-4.7744
X2.1839Y-4.8571
X4.4673Y-2.4122
X4.6642Y-2.4949
X2.8138Y-5.5618
X3.0106Y-5.6445
X1.987Y-3.987
X2.1839Y-4.0697
X3.6406Y-2.4122
T6
G00X1.5402Y-1.2744
M15
G01X1.489Y-1.2744
M16
G05
G00X1.5402Y-1.7154
M15
G01X1.489Y-1.7154
M16
G05
T7
G00X1.515Y-2.613
M15
G01X1.515Y-2.613
M16
G05
G00X1.515Y-4.493
M15
G01X1.515Y-4.493
M16
G05
G00X2.6323Y-1.4945
M15
G01X2.6323Y-1.4945
M16
G05
G00X4.5123Y-1.4945
M15
G01X4.5123Y-1.4945
M16
G05
T0
M30
