M48
; DRILL file {KiCad (5.1.0)-1} date 2019-03-23 00:09:09
; FORMAT={-:-/ absolute / inch / decimal}
; #@! TF.CreationDate,2019-03-23T00:09:09+01:00
; #@! TF.GenerationSoftware,Kicad,Pcbnew,(5.1.0)-1
; #@! TF.FileFunction,NonPlated,1,2,NPTH
FMAT,2
INCH
T1C0.0669
T2C0.1339
%
G90
G05
T1
X4.4476Y-3.8374
X4.8807Y-3.8374
X2.7941Y-2.2626
X3.2272Y-2.2626
X3.6209Y-5.4122
X4.0539Y-5.4122
X4.4476Y-3.05
X4.8807Y-3.05
X3.6209Y-4.6248
X4.0539Y-4.6248
X3.6209Y-3.8374
X4.0539Y-3.8374
X2.7941Y-4.6248
X3.2272Y-4.6248
X1.9673Y-4.6248
X2.4004Y-4.6248
X4.4476Y-2.2626
X4.8807Y-2.2626
X2.7941Y-5.4122
X3.2272Y-5.4122
X1.9673Y-3.8374
X2.4004Y-3.8374
X3.6209Y-2.2626
X4.0539Y-2.2626
X2.7941Y-3.05
X3.2272Y-3.05
X3.6209Y-3.05
X4.0539Y-3.05
X2.7941Y-3.8374
X3.2272Y-3.8374
X1.9673Y-3.05
X2.4004Y-3.05
X4.4476Y-5.4122
X4.8807Y-5.4122
X1.9673Y-2.2626
X2.4004Y-2.2626
X4.4476Y-4.6248
X4.8807Y-4.6248
X1.9673Y-5.4122
X2.4004Y-5.4122
T2
X3.0106Y-3.05
X3.8374Y-3.05
X3.0106Y-3.8374
X2.1839Y-3.05
X4.6642Y-5.4122
X2.1839Y-2.2626
X4.6642Y-4.6248
X2.1839Y-5.4122
X4.6642Y-3.8374
X3.0106Y-2.2626
X3.8374Y-5.4122
X4.6642Y-3.05
X3.8374Y-4.6248
X3.8374Y-3.8374
X3.0106Y-4.6248
X2.1839Y-4.6248
X4.6642Y-2.2626
X3.0106Y-5.4122
X2.1839Y-3.8374
X3.8374Y-2.2626
T0
M30
