G04 #@! TF.GenerationSoftware,KiCad,Pcbnew,(5.1.0)-1*
G04 #@! TF.CreationDate,2019-03-23T01:01:18+01:00*
G04 #@! TF.ProjectId,Schematic2,53636865-6d61-4746-9963-322e6b696361,rev?*
G04 #@! TF.SameCoordinates,Original*
G04 #@! TF.FileFunction,Legend,Bot*
G04 #@! TF.FilePolarity,Positive*
%FSLAX46Y46*%
G04 Gerber Fmt 4.6, Leading zero omitted, Abs format (unit mm)*
G04 Created by KiCad (PCBNEW (5.1.0)-1) date 2019-03-23 01:01:18*
%MOMM*%
%LPD*%
G04 APERTURE LIST*
%ADD10C,0.010000*%
%ADD11C,0.381000*%
%ADD12C,0.203200*%
G04 APERTURE END LIST*
D10*
G36*
X86887687Y-123780447D02*
G01*
X86826720Y-123935051D01*
X86895216Y-124089467D01*
X87063088Y-124186783D01*
X87106557Y-124194457D01*
X87275459Y-124190663D01*
X87334301Y-124096742D01*
X87338667Y-124013832D01*
X87274107Y-123846851D01*
X87124692Y-123743153D01*
X86956820Y-123737101D01*
X86887687Y-123780447D01*
X86887687Y-123780447D01*
G37*
X86887687Y-123780447D02*
X86826720Y-123935051D01*
X86895216Y-124089467D01*
X87063088Y-124186783D01*
X87106557Y-124194457D01*
X87275459Y-124190663D01*
X87334301Y-124096742D01*
X87338667Y-124013832D01*
X87274107Y-123846851D01*
X87124692Y-123743153D01*
X86956820Y-123737101D01*
X86887687Y-123780447D01*
G36*
X120358667Y-62191667D02*
G01*
X120401000Y-62234000D01*
X120443333Y-62191667D01*
X120401000Y-62149334D01*
X120358667Y-62191667D01*
X120358667Y-62191667D01*
G37*
X120358667Y-62191667D02*
X120401000Y-62234000D01*
X120443333Y-62191667D01*
X120401000Y-62149334D01*
X120358667Y-62191667D01*
G36*
X76623329Y-65882442D02*
G01*
X76220057Y-66116739D01*
X75868651Y-66323586D01*
X75595288Y-66487363D01*
X75426143Y-66592450D01*
X75384839Y-66621523D01*
X75436882Y-66676857D01*
X75608119Y-66797674D01*
X75869891Y-66966913D01*
X76193540Y-67167511D01*
X76550407Y-67382406D01*
X76911836Y-67594536D01*
X77249167Y-67786839D01*
X77533743Y-67942252D01*
X77736906Y-68043712D01*
X77825805Y-68074817D01*
X77921212Y-68033765D01*
X78134326Y-67921706D01*
X78437173Y-67753950D01*
X78801780Y-67545811D01*
X78956667Y-67455834D01*
X79347964Y-67227678D01*
X79697437Y-67024397D01*
X79973894Y-66864098D01*
X80146145Y-66764887D01*
X80175794Y-66748085D01*
X80234037Y-66697398D01*
X80217219Y-66633105D01*
X80105754Y-66537091D01*
X79880053Y-66391238D01*
X79625461Y-66239089D01*
X79233341Y-66010037D01*
X78816700Y-65769873D01*
X78449351Y-65561064D01*
X78358996Y-65510440D01*
X77803659Y-65200837D01*
X76623329Y-65882442D01*
X76623329Y-65882442D01*
G37*
X76623329Y-65882442D02*
X76220057Y-66116739D01*
X75868651Y-66323586D01*
X75595288Y-66487363D01*
X75426143Y-66592450D01*
X75384839Y-66621523D01*
X75436882Y-66676857D01*
X75608119Y-66797674D01*
X75869891Y-66966913D01*
X76193540Y-67167511D01*
X76550407Y-67382406D01*
X76911836Y-67594536D01*
X77249167Y-67786839D01*
X77533743Y-67942252D01*
X77736906Y-68043712D01*
X77825805Y-68074817D01*
X77921212Y-68033765D01*
X78134326Y-67921706D01*
X78437173Y-67753950D01*
X78801780Y-67545811D01*
X78956667Y-67455834D01*
X79347964Y-67227678D01*
X79697437Y-67024397D01*
X79973894Y-66864098D01*
X80146145Y-66764887D01*
X80175794Y-66748085D01*
X80234037Y-66697398D01*
X80217219Y-66633105D01*
X80105754Y-66537091D01*
X79880053Y-66391238D01*
X79625461Y-66239089D01*
X79233341Y-66010037D01*
X78816700Y-65769873D01*
X78449351Y-65561064D01*
X78358996Y-65510440D01*
X77803659Y-65200837D01*
X76623329Y-65882442D01*
G36*
X111292230Y-65913280D02*
G01*
X111061994Y-66019192D01*
X110740408Y-66177512D01*
X110355818Y-66373350D01*
X109936575Y-66591816D01*
X109511027Y-66818017D01*
X109107523Y-67037065D01*
X108754412Y-67234067D01*
X108480044Y-67394134D01*
X108337623Y-67484670D01*
X108236304Y-67562818D01*
X108221497Y-67630050D01*
X108310208Y-67722750D01*
X108519440Y-67877304D01*
X108521974Y-67879124D01*
X108892535Y-68145240D01*
X110280808Y-67352660D01*
X110722115Y-67095992D01*
X111113748Y-66859274D01*
X111431139Y-66658082D01*
X111649717Y-66507990D01*
X111744913Y-66424574D01*
X111744962Y-66424488D01*
X111758213Y-66251541D01*
X111669520Y-66058061D01*
X111521246Y-65912112D01*
X111402765Y-65874667D01*
X111292230Y-65913280D01*
X111292230Y-65913280D01*
G37*
X111292230Y-65913280D02*
X111061994Y-66019192D01*
X110740408Y-66177512D01*
X110355818Y-66373350D01*
X109936575Y-66591816D01*
X109511027Y-66818017D01*
X109107523Y-67037065D01*
X108754412Y-67234067D01*
X108480044Y-67394134D01*
X108337623Y-67484670D01*
X108236304Y-67562818D01*
X108221497Y-67630050D01*
X108310208Y-67722750D01*
X108519440Y-67877304D01*
X108521974Y-67879124D01*
X108892535Y-68145240D01*
X110280808Y-67352660D01*
X110722115Y-67095992D01*
X111113748Y-66859274D01*
X111431139Y-66658082D01*
X111649717Y-66507990D01*
X111744913Y-66424574D01*
X111744962Y-66424488D01*
X111758213Y-66251541D01*
X111669520Y-66058061D01*
X111521246Y-65912112D01*
X111402765Y-65874667D01*
X111292230Y-65913280D01*
G36*
X108822126Y-64911408D02*
G01*
X108285012Y-65190278D01*
X107643101Y-65538061D01*
X106934688Y-65933123D01*
X106198066Y-66353831D01*
X105471531Y-66778550D01*
X104793375Y-67185646D01*
X104754824Y-67209184D01*
X103586648Y-67923179D01*
X103908157Y-68166568D01*
X104114764Y-68309237D01*
X104271967Y-68393417D01*
X104314333Y-68403558D01*
X104404701Y-68361085D01*
X104624536Y-68243035D01*
X104956909Y-68058925D01*
X105384892Y-67818275D01*
X105891553Y-67530603D01*
X106459964Y-67205428D01*
X107066000Y-66856425D01*
X107796994Y-66433111D01*
X108392465Y-66084211D01*
X108863994Y-65800270D01*
X109223160Y-65571830D01*
X109481545Y-65389434D01*
X109650727Y-65243626D01*
X109742288Y-65124949D01*
X109767807Y-65023945D01*
X109738866Y-64931158D01*
X109667043Y-64837131D01*
X109610499Y-64778499D01*
X109435251Y-64603251D01*
X108822126Y-64911408D01*
X108822126Y-64911408D01*
G37*
X108822126Y-64911408D02*
X108285012Y-65190278D01*
X107643101Y-65538061D01*
X106934688Y-65933123D01*
X106198066Y-66353831D01*
X105471531Y-66778550D01*
X104793375Y-67185646D01*
X104754824Y-67209184D01*
X103586648Y-67923179D01*
X103908157Y-68166568D01*
X104114764Y-68309237D01*
X104271967Y-68393417D01*
X104314333Y-68403558D01*
X104404701Y-68361085D01*
X104624536Y-68243035D01*
X104956909Y-68058925D01*
X105384892Y-67818275D01*
X105891553Y-67530603D01*
X106459964Y-67205428D01*
X107066000Y-66856425D01*
X107796994Y-66433111D01*
X108392465Y-66084211D01*
X108863994Y-65800270D01*
X109223160Y-65571830D01*
X109481545Y-65389434D01*
X109650727Y-65243626D01*
X109742288Y-65124949D01*
X109767807Y-65023945D01*
X109738866Y-64931158D01*
X109667043Y-64837131D01*
X109610499Y-64778499D01*
X109435251Y-64603251D01*
X108822126Y-64911408D01*
G36*
X115650738Y-68605788D02*
G01*
X115374147Y-68727403D01*
X115136878Y-68848337D01*
X114726287Y-69067033D01*
X114274898Y-69312401D01*
X113807095Y-69570631D01*
X113347261Y-69827913D01*
X112919779Y-70070435D01*
X112549032Y-70284387D01*
X112259403Y-70455959D01*
X112075275Y-70571341D01*
X112020614Y-70613389D01*
X112059097Y-70692833D01*
X112199004Y-70816236D01*
X112391181Y-70950089D01*
X112586479Y-71060886D01*
X112735744Y-71115118D01*
X112758018Y-71116096D01*
X112860932Y-71073004D01*
X113086524Y-70957197D01*
X113411303Y-70781444D01*
X113811778Y-70558517D01*
X114264455Y-70301186D01*
X114389667Y-70229144D01*
X114856875Y-69955424D01*
X115280007Y-69699546D01*
X115634586Y-69476951D01*
X115896138Y-69303084D01*
X116040188Y-69193387D01*
X116053988Y-69179025D01*
X116149737Y-68952929D01*
X116103938Y-68729544D01*
X115951803Y-68581754D01*
X115833447Y-68560458D01*
X115650738Y-68605788D01*
X115650738Y-68605788D01*
G37*
X115650738Y-68605788D02*
X115374147Y-68727403D01*
X115136878Y-68848337D01*
X114726287Y-69067033D01*
X114274898Y-69312401D01*
X113807095Y-69570631D01*
X113347261Y-69827913D01*
X112919779Y-70070435D01*
X112549032Y-70284387D01*
X112259403Y-70455959D01*
X112075275Y-70571341D01*
X112020614Y-70613389D01*
X112059097Y-70692833D01*
X112199004Y-70816236D01*
X112391181Y-70950089D01*
X112586479Y-71060886D01*
X112735744Y-71115118D01*
X112758018Y-71116096D01*
X112860932Y-71073004D01*
X113086524Y-70957197D01*
X113411303Y-70781444D01*
X113811778Y-70558517D01*
X114264455Y-70301186D01*
X114389667Y-70229144D01*
X114856875Y-69955424D01*
X115280007Y-69699546D01*
X115634586Y-69476951D01*
X115896138Y-69303084D01*
X116040188Y-69193387D01*
X116053988Y-69179025D01*
X116149737Y-68952929D01*
X116103938Y-68729544D01*
X115951803Y-68581754D01*
X115833447Y-68560458D01*
X115650738Y-68605788D01*
G36*
X74722871Y-67198467D02*
G01*
X74664721Y-67287254D01*
X74532839Y-67504826D01*
X74337850Y-67833142D01*
X74090377Y-68254161D01*
X73801044Y-68749842D01*
X73480475Y-69302144D01*
X73287477Y-69636015D01*
X72899305Y-70311755D01*
X72591492Y-70855820D01*
X72357175Y-71281677D01*
X72189493Y-71602793D01*
X72081583Y-71832635D01*
X72026582Y-71984669D01*
X72017628Y-72072363D01*
X72031872Y-72100040D01*
X72146846Y-72180887D01*
X72372172Y-72321201D01*
X72677082Y-72503387D01*
X73030805Y-72709851D01*
X73402572Y-72922998D01*
X73761613Y-73125234D01*
X74077159Y-73298964D01*
X74318439Y-73426595D01*
X74454684Y-73490531D01*
X74470844Y-73494667D01*
X74546184Y-73426480D01*
X74677777Y-73245757D01*
X74840124Y-72988253D01*
X74878412Y-72923167D01*
X75271150Y-72246141D01*
X75655568Y-71582089D01*
X76022490Y-70946979D01*
X76362738Y-70356779D01*
X76667132Y-69827457D01*
X76926495Y-69374981D01*
X77131649Y-69015320D01*
X77273417Y-68764441D01*
X77342619Y-68638312D01*
X77348000Y-68626533D01*
X77277962Y-68564370D01*
X77087326Y-68441867D01*
X76805309Y-68274917D01*
X76461127Y-68079414D01*
X76083997Y-67871251D01*
X75703136Y-67666324D01*
X75347760Y-67480524D01*
X75047085Y-67329747D01*
X74830330Y-67229886D01*
X74726710Y-67196834D01*
X74722871Y-67198467D01*
X74722871Y-67198467D01*
G37*
X74722871Y-67198467D02*
X74664721Y-67287254D01*
X74532839Y-67504826D01*
X74337850Y-67833142D01*
X74090377Y-68254161D01*
X73801044Y-68749842D01*
X73480475Y-69302144D01*
X73287477Y-69636015D01*
X72899305Y-70311755D01*
X72591492Y-70855820D01*
X72357175Y-71281677D01*
X72189493Y-71602793D01*
X72081583Y-71832635D01*
X72026582Y-71984669D01*
X72017628Y-72072363D01*
X72031872Y-72100040D01*
X72146846Y-72180887D01*
X72372172Y-72321201D01*
X72677082Y-72503387D01*
X73030805Y-72709851D01*
X73402572Y-72922998D01*
X73761613Y-73125234D01*
X74077159Y-73298964D01*
X74318439Y-73426595D01*
X74454684Y-73490531D01*
X74470844Y-73494667D01*
X74546184Y-73426480D01*
X74677777Y-73245757D01*
X74840124Y-72988253D01*
X74878412Y-72923167D01*
X75271150Y-72246141D01*
X75655568Y-71582089D01*
X76022490Y-70946979D01*
X76362738Y-70356779D01*
X76667132Y-69827457D01*
X76926495Y-69374981D01*
X77131649Y-69015320D01*
X77273417Y-68764441D01*
X77342619Y-68638312D01*
X77348000Y-68626533D01*
X77277962Y-68564370D01*
X77087326Y-68441867D01*
X76805309Y-68274917D01*
X76461127Y-68079414D01*
X76083997Y-67871251D01*
X75703136Y-67666324D01*
X75347760Y-67480524D01*
X75047085Y-67329747D01*
X74830330Y-67229886D01*
X74726710Y-67196834D01*
X74722871Y-67198467D01*
G36*
X57490041Y-65893588D02*
G01*
X57084218Y-66129515D01*
X56735296Y-66338139D01*
X56467573Y-66504458D01*
X56305349Y-66613473D01*
X56267509Y-66648203D01*
X56338585Y-66700315D01*
X56543600Y-66828422D01*
X56869259Y-67024875D01*
X57302266Y-67282024D01*
X57829328Y-67592221D01*
X58437151Y-67947817D01*
X59112438Y-68341162D01*
X59841897Y-68764608D01*
X60612232Y-69210505D01*
X61410149Y-69671205D01*
X62222353Y-70139058D01*
X63035550Y-70606415D01*
X63836445Y-71065627D01*
X64611745Y-71509045D01*
X65348153Y-71929019D01*
X66032376Y-72317902D01*
X66651120Y-72668044D01*
X67191089Y-72971795D01*
X67638989Y-73221507D01*
X67981526Y-73409530D01*
X68205405Y-73528216D01*
X68297332Y-73569915D01*
X68297818Y-73569906D01*
X68408216Y-73525715D01*
X68636442Y-73409823D01*
X68954797Y-73237111D01*
X69335584Y-73022461D01*
X69583400Y-72879206D01*
X69973332Y-72645547D01*
X70299582Y-72438164D01*
X70539201Y-72272627D01*
X70669239Y-72164511D01*
X70684067Y-72132342D01*
X70601970Y-72080784D01*
X70384229Y-71951109D01*
X70041910Y-71749754D01*
X69586078Y-71483159D01*
X69027800Y-71157761D01*
X68378143Y-70780000D01*
X67648171Y-70356313D01*
X66848953Y-69893140D01*
X65991553Y-69396918D01*
X65087038Y-68874087D01*
X64664032Y-68629796D01*
X58711064Y-65192842D01*
X57490041Y-65893588D01*
X57490041Y-65893588D01*
G37*
X57490041Y-65893588D02*
X57084218Y-66129515D01*
X56735296Y-66338139D01*
X56467573Y-66504458D01*
X56305349Y-66613473D01*
X56267509Y-66648203D01*
X56338585Y-66700315D01*
X56543600Y-66828422D01*
X56869259Y-67024875D01*
X57302266Y-67282024D01*
X57829328Y-67592221D01*
X58437151Y-67947817D01*
X59112438Y-68341162D01*
X59841897Y-68764608D01*
X60612232Y-69210505D01*
X61410149Y-69671205D01*
X62222353Y-70139058D01*
X63035550Y-70606415D01*
X63836445Y-71065627D01*
X64611745Y-71509045D01*
X65348153Y-71929019D01*
X66032376Y-72317902D01*
X66651120Y-72668044D01*
X67191089Y-72971795D01*
X67638989Y-73221507D01*
X67981526Y-73409530D01*
X68205405Y-73528216D01*
X68297332Y-73569915D01*
X68297818Y-73569906D01*
X68408216Y-73525715D01*
X68636442Y-73409823D01*
X68954797Y-73237111D01*
X69335584Y-73022461D01*
X69583400Y-72879206D01*
X69973332Y-72645547D01*
X70299582Y-72438164D01*
X70539201Y-72272627D01*
X70669239Y-72164511D01*
X70684067Y-72132342D01*
X70601970Y-72080784D01*
X70384229Y-71951109D01*
X70041910Y-71749754D01*
X69586078Y-71483159D01*
X69027800Y-71157761D01*
X68378143Y-70780000D01*
X67648171Y-70356313D01*
X66848953Y-69893140D01*
X65991553Y-69396918D01*
X65087038Y-68874087D01*
X64664032Y-68629796D01*
X58711064Y-65192842D01*
X57490041Y-65893588D01*
G36*
X102471197Y-68623111D02*
G01*
X102250693Y-68726535D01*
X101971632Y-68873410D01*
X101919903Y-68902106D01*
X101591005Y-69084411D01*
X101272026Y-69258569D01*
X101031158Y-69387354D01*
X101028125Y-69388939D01*
X100542571Y-69698147D01*
X100165647Y-70077588D01*
X99863347Y-70546152D01*
X99573000Y-71081667D01*
X99545180Y-72621718D01*
X99517360Y-74161770D01*
X99859307Y-74336218D01*
X100084819Y-74442004D01*
X100251994Y-74503955D01*
X100289294Y-74510667D01*
X100325156Y-74426811D01*
X100351880Y-74178023D01*
X100369221Y-73768468D01*
X100376933Y-73202314D01*
X100377333Y-73013398D01*
X100379323Y-72459088D01*
X100387057Y-72044873D01*
X100403186Y-71741547D01*
X100430359Y-71519900D01*
X100471225Y-71350723D01*
X100528433Y-71204808D01*
X100544463Y-71170886D01*
X100837516Y-70731301D01*
X101294052Y-70281487D01*
X101908875Y-69826064D01*
X102393491Y-69527740D01*
X103266649Y-69024073D01*
X102978166Y-68804037D01*
X102776946Y-68667265D01*
X102621120Y-68590232D01*
X102589245Y-68584000D01*
X102471197Y-68623111D01*
X102471197Y-68623111D01*
G37*
X102471197Y-68623111D02*
X102250693Y-68726535D01*
X101971632Y-68873410D01*
X101919903Y-68902106D01*
X101591005Y-69084411D01*
X101272026Y-69258569D01*
X101031158Y-69387354D01*
X101028125Y-69388939D01*
X100542571Y-69698147D01*
X100165647Y-70077588D01*
X99863347Y-70546152D01*
X99573000Y-71081667D01*
X99545180Y-72621718D01*
X99517360Y-74161770D01*
X99859307Y-74336218D01*
X100084819Y-74442004D01*
X100251994Y-74503955D01*
X100289294Y-74510667D01*
X100325156Y-74426811D01*
X100351880Y-74178023D01*
X100369221Y-73768468D01*
X100376933Y-73202314D01*
X100377333Y-73013398D01*
X100379323Y-72459088D01*
X100387057Y-72044873D01*
X100403186Y-71741547D01*
X100430359Y-71519900D01*
X100471225Y-71350723D01*
X100528433Y-71204808D01*
X100544463Y-71170886D01*
X100837516Y-70731301D01*
X101294052Y-70281487D01*
X101908875Y-69826064D01*
X102393491Y-69527740D01*
X103266649Y-69024073D01*
X102978166Y-68804037D01*
X102776946Y-68667265D01*
X102621120Y-68590232D01*
X102589245Y-68584000D01*
X102471197Y-68623111D01*
G36*
X113421679Y-67269247D02*
G01*
X113167543Y-67381454D01*
X112816123Y-67554654D01*
X112387287Y-67777547D01*
X111900901Y-68038833D01*
X111376834Y-68327213D01*
X110834953Y-68631385D01*
X110295126Y-68940051D01*
X109777220Y-69241909D01*
X109301104Y-69525660D01*
X108886644Y-69780003D01*
X108553709Y-69993640D01*
X108322166Y-70155268D01*
X108211882Y-70253589D01*
X108206585Y-70273425D01*
X108289639Y-70348538D01*
X108482425Y-70499123D01*
X108756139Y-70703273D01*
X109079378Y-70937225D01*
X109506098Y-71256884D01*
X109783011Y-71499680D01*
X109910849Y-71666278D01*
X109920305Y-71702303D01*
X109899419Y-71779447D01*
X109814320Y-71875643D01*
X109647543Y-72003013D01*
X109381623Y-72173677D01*
X108999093Y-72399757D01*
X108534080Y-72664344D01*
X107913619Y-73019464D01*
X107424929Y-73314613D01*
X107048129Y-73565155D01*
X106763336Y-73786453D01*
X106550667Y-73993867D01*
X106390242Y-74202762D01*
X106269247Y-74414329D01*
X106103606Y-74754701D01*
X106018582Y-74981203D01*
X106015193Y-75129425D01*
X106094462Y-75234957D01*
X106257409Y-75333391D01*
X106296187Y-75353347D01*
X106557884Y-75477541D01*
X106711879Y-75512424D01*
X106796709Y-75454055D01*
X106850911Y-75298492D01*
X106851399Y-75296550D01*
X106977683Y-75007148D01*
X107207830Y-74669064D01*
X107506413Y-74329908D01*
X107714952Y-74136064D01*
X107878753Y-74016900D01*
X108165350Y-73829761D01*
X108550055Y-73589869D01*
X109008180Y-73312450D01*
X109515037Y-73012726D01*
X109879906Y-72801082D01*
X111720145Y-71742297D01*
X110831375Y-71115648D01*
X110454843Y-70844842D01*
X110200388Y-70646142D01*
X110047595Y-70500173D01*
X109976048Y-70387557D01*
X109964803Y-70293215D01*
X109996355Y-70218156D01*
X110085638Y-70122611D01*
X110247782Y-69996500D01*
X110497918Y-69829740D01*
X110851175Y-69612251D01*
X111322685Y-69333950D01*
X111927576Y-68984757D01*
X111934333Y-68980882D01*
X112544345Y-68628637D01*
X113020383Y-68347350D01*
X113377284Y-68127166D01*
X113629881Y-67958235D01*
X113793010Y-67830703D01*
X113881505Y-67734719D01*
X113909333Y-67669173D01*
X113876106Y-67426854D01*
X113723309Y-67267771D01*
X113558663Y-67229334D01*
X113421679Y-67269247D01*
X113421679Y-67269247D01*
G37*
X113421679Y-67269247D02*
X113167543Y-67381454D01*
X112816123Y-67554654D01*
X112387287Y-67777547D01*
X111900901Y-68038833D01*
X111376834Y-68327213D01*
X110834953Y-68631385D01*
X110295126Y-68940051D01*
X109777220Y-69241909D01*
X109301104Y-69525660D01*
X108886644Y-69780003D01*
X108553709Y-69993640D01*
X108322166Y-70155268D01*
X108211882Y-70253589D01*
X108206585Y-70273425D01*
X108289639Y-70348538D01*
X108482425Y-70499123D01*
X108756139Y-70703273D01*
X109079378Y-70937225D01*
X109506098Y-71256884D01*
X109783011Y-71499680D01*
X109910849Y-71666278D01*
X109920305Y-71702303D01*
X109899419Y-71779447D01*
X109814320Y-71875643D01*
X109647543Y-72003013D01*
X109381623Y-72173677D01*
X108999093Y-72399757D01*
X108534080Y-72664344D01*
X107913619Y-73019464D01*
X107424929Y-73314613D01*
X107048129Y-73565155D01*
X106763336Y-73786453D01*
X106550667Y-73993867D01*
X106390242Y-74202762D01*
X106269247Y-74414329D01*
X106103606Y-74754701D01*
X106018582Y-74981203D01*
X106015193Y-75129425D01*
X106094462Y-75234957D01*
X106257409Y-75333391D01*
X106296187Y-75353347D01*
X106557884Y-75477541D01*
X106711879Y-75512424D01*
X106796709Y-75454055D01*
X106850911Y-75298492D01*
X106851399Y-75296550D01*
X106977683Y-75007148D01*
X107207830Y-74669064D01*
X107506413Y-74329908D01*
X107714952Y-74136064D01*
X107878753Y-74016900D01*
X108165350Y-73829761D01*
X108550055Y-73589869D01*
X109008180Y-73312450D01*
X109515037Y-73012726D01*
X109879906Y-72801082D01*
X111720145Y-71742297D01*
X110831375Y-71115648D01*
X110454843Y-70844842D01*
X110200388Y-70646142D01*
X110047595Y-70500173D01*
X109976048Y-70387557D01*
X109964803Y-70293215D01*
X109996355Y-70218156D01*
X110085638Y-70122611D01*
X110247782Y-69996500D01*
X110497918Y-69829740D01*
X110851175Y-69612251D01*
X111322685Y-69333950D01*
X111927576Y-68984757D01*
X111934333Y-68980882D01*
X112544345Y-68628637D01*
X113020383Y-68347350D01*
X113377284Y-68127166D01*
X113629881Y-67958235D01*
X113793010Y-67830703D01*
X113881505Y-67734719D01*
X113909333Y-67669173D01*
X113876106Y-67426854D01*
X113723309Y-67267771D01*
X113558663Y-67229334D01*
X113421679Y-67269247D01*
G36*
X61795704Y-74466910D02*
G01*
X61580913Y-74575205D01*
X61288343Y-74735515D01*
X60946639Y-74930783D01*
X60584448Y-75143951D01*
X60230416Y-75357962D01*
X59913187Y-75555757D01*
X59661407Y-75720280D01*
X59503722Y-75834472D01*
X59465535Y-75879774D01*
X59549498Y-75933532D01*
X59759494Y-76059510D01*
X60074690Y-76245637D01*
X60474258Y-76479842D01*
X60937364Y-76750053D01*
X61443179Y-77044201D01*
X61970871Y-77350214D01*
X62499609Y-77656021D01*
X63008563Y-77949551D01*
X63476901Y-78218733D01*
X63883792Y-78451496D01*
X64208405Y-78635770D01*
X64429910Y-78759483D01*
X64501847Y-78798170D01*
X64736693Y-78919764D01*
X64690333Y-76002988D01*
X63335667Y-75216183D01*
X62902590Y-74966871D01*
X62518401Y-74749912D01*
X62207529Y-74578760D01*
X61994404Y-74466872D01*
X61904072Y-74427689D01*
X61795704Y-74466910D01*
X61795704Y-74466910D01*
G37*
X61795704Y-74466910D02*
X61580913Y-74575205D01*
X61288343Y-74735515D01*
X60946639Y-74930783D01*
X60584448Y-75143951D01*
X60230416Y-75357962D01*
X59913187Y-75555757D01*
X59661407Y-75720280D01*
X59503722Y-75834472D01*
X59465535Y-75879774D01*
X59549498Y-75933532D01*
X59759494Y-76059510D01*
X60074690Y-76245637D01*
X60474258Y-76479842D01*
X60937364Y-76750053D01*
X61443179Y-77044201D01*
X61970871Y-77350214D01*
X62499609Y-77656021D01*
X63008563Y-77949551D01*
X63476901Y-78218733D01*
X63883792Y-78451496D01*
X64208405Y-78635770D01*
X64429910Y-78759483D01*
X64501847Y-78798170D01*
X64736693Y-78919764D01*
X64690333Y-76002988D01*
X63335667Y-75216183D01*
X62902590Y-74966871D01*
X62518401Y-74749912D01*
X62207529Y-74578760D01*
X61994404Y-74466872D01*
X61904072Y-74427689D01*
X61795704Y-74466910D01*
G36*
X89370667Y-74813048D02*
G01*
X89367552Y-75362614D01*
X89357007Y-75765610D01*
X89337234Y-76044705D01*
X89306432Y-76222570D01*
X89262804Y-76321873D01*
X89249714Y-76337048D01*
X89166472Y-76384156D01*
X89010321Y-76417988D01*
X88758594Y-76440343D01*
X88388620Y-76453021D01*
X87877729Y-76457820D01*
X87725714Y-76458000D01*
X86322667Y-76458000D01*
X86322667Y-77304667D01*
X87725714Y-77304667D01*
X88275280Y-77307782D01*
X88678276Y-77318327D01*
X88957372Y-77338100D01*
X89135237Y-77368901D01*
X89234540Y-77412530D01*
X89249714Y-77425619D01*
X89296822Y-77508862D01*
X89330654Y-77665012D01*
X89353010Y-77916740D01*
X89365688Y-78286714D01*
X89370487Y-78797605D01*
X89370667Y-78949619D01*
X89370667Y-80352667D01*
X90302000Y-80352667D01*
X90302000Y-78949619D01*
X90305115Y-78400053D01*
X90315660Y-77997057D01*
X90335433Y-77717962D01*
X90366235Y-77540097D01*
X90409863Y-77440794D01*
X90422953Y-77425619D01*
X90506195Y-77378511D01*
X90662346Y-77344679D01*
X90914073Y-77322324D01*
X91284047Y-77309646D01*
X91794938Y-77304847D01*
X91946953Y-77304667D01*
X93350000Y-77304667D01*
X93350000Y-76458000D01*
X91946953Y-76458000D01*
X91397387Y-76454885D01*
X90994391Y-76444340D01*
X90715295Y-76424567D01*
X90537430Y-76393766D01*
X90438127Y-76350137D01*
X90422953Y-76337048D01*
X90375845Y-76253805D01*
X90342013Y-76097655D01*
X90319657Y-75845927D01*
X90306979Y-75475953D01*
X90302180Y-74965062D01*
X90302000Y-74813048D01*
X90302000Y-73410000D01*
X89370667Y-73410000D01*
X89370667Y-74813048D01*
X89370667Y-74813048D01*
G37*
X89370667Y-74813048D02*
X89367552Y-75362614D01*
X89357007Y-75765610D01*
X89337234Y-76044705D01*
X89306432Y-76222570D01*
X89262804Y-76321873D01*
X89249714Y-76337048D01*
X89166472Y-76384156D01*
X89010321Y-76417988D01*
X88758594Y-76440343D01*
X88388620Y-76453021D01*
X87877729Y-76457820D01*
X87725714Y-76458000D01*
X86322667Y-76458000D01*
X86322667Y-77304667D01*
X87725714Y-77304667D01*
X88275280Y-77307782D01*
X88678276Y-77318327D01*
X88957372Y-77338100D01*
X89135237Y-77368901D01*
X89234540Y-77412530D01*
X89249714Y-77425619D01*
X89296822Y-77508862D01*
X89330654Y-77665012D01*
X89353010Y-77916740D01*
X89365688Y-78286714D01*
X89370487Y-78797605D01*
X89370667Y-78949619D01*
X89370667Y-80352667D01*
X90302000Y-80352667D01*
X90302000Y-78949619D01*
X90305115Y-78400053D01*
X90315660Y-77997057D01*
X90335433Y-77717962D01*
X90366235Y-77540097D01*
X90409863Y-77440794D01*
X90422953Y-77425619D01*
X90506195Y-77378511D01*
X90662346Y-77344679D01*
X90914073Y-77322324D01*
X91284047Y-77309646D01*
X91794938Y-77304847D01*
X91946953Y-77304667D01*
X93350000Y-77304667D01*
X93350000Y-76458000D01*
X91946953Y-76458000D01*
X91397387Y-76454885D01*
X90994391Y-76444340D01*
X90715295Y-76424567D01*
X90537430Y-76393766D01*
X90438127Y-76350137D01*
X90422953Y-76337048D01*
X90375845Y-76253805D01*
X90342013Y-76097655D01*
X90319657Y-75845927D01*
X90306979Y-75475953D01*
X90302180Y-74965062D01*
X90302000Y-74813048D01*
X90302000Y-73410000D01*
X89370667Y-73410000D01*
X89370667Y-74813048D01*
G36*
X106879908Y-68380265D02*
G01*
X106670399Y-68490720D01*
X106358335Y-68665466D01*
X105964746Y-68892604D01*
X105510663Y-69160235D01*
X105230162Y-69327946D01*
X104724337Y-69629964D01*
X104242520Y-69914037D01*
X103811893Y-70164417D01*
X103459639Y-70365354D01*
X103212940Y-70501100D01*
X103144662Y-70536205D01*
X102576505Y-70885203D01*
X102136451Y-71322334D01*
X101799697Y-71865306D01*
X101521615Y-72430170D01*
X101490077Y-74248196D01*
X101474290Y-74936883D01*
X101453309Y-75464908D01*
X101426537Y-75840881D01*
X101393376Y-76073411D01*
X101356697Y-76168065D01*
X101276656Y-76196864D01*
X101130284Y-76168005D01*
X100893757Y-76073058D01*
X100543248Y-75903589D01*
X100392761Y-75826922D01*
X99530667Y-75383936D01*
X99530667Y-78031587D01*
X99531591Y-78783677D01*
X99534931Y-79384223D01*
X99541537Y-79851006D01*
X99552260Y-80201810D01*
X99567952Y-80454415D01*
X99589462Y-80626604D01*
X99617642Y-80736159D01*
X99653342Y-80800862D01*
X99663714Y-80812286D01*
X99880813Y-80933975D01*
X100099743Y-80894919D01*
X100245533Y-80757161D01*
X100291337Y-80665258D01*
X100325546Y-80523280D01*
X100349697Y-80308617D01*
X100365331Y-79998654D01*
X100373986Y-79570780D01*
X100377199Y-79002382D01*
X100377333Y-78820195D01*
X100380267Y-78182820D01*
X100389683Y-77698709D01*
X100406508Y-77351884D01*
X100431667Y-77126368D01*
X100466086Y-77006182D01*
X100483740Y-76983092D01*
X100583182Y-76966629D01*
X100774493Y-77020348D01*
X101075584Y-77150822D01*
X101457406Y-77340423D01*
X102324667Y-77786064D01*
X102325494Y-75322866D01*
X102326142Y-74611146D01*
X102328536Y-74047406D01*
X102334153Y-73610291D01*
X102344470Y-73278447D01*
X102360961Y-73030520D01*
X102385104Y-72845156D01*
X102418375Y-72701002D01*
X102462249Y-72576702D01*
X102518202Y-72450904D01*
X102525029Y-72436334D01*
X102667344Y-72175510D01*
X102850767Y-71926359D01*
X103091343Y-71676444D01*
X103405122Y-71413332D01*
X103808151Y-71124588D01*
X104316478Y-70797779D01*
X104946152Y-70420468D01*
X105645191Y-70018748D01*
X106172432Y-69718405D01*
X106648024Y-69444686D01*
X107053006Y-69208732D01*
X107368416Y-69021681D01*
X107575295Y-68894673D01*
X107654681Y-68838848D01*
X107654976Y-68838000D01*
X107593198Y-68774765D01*
X107440296Y-68656591D01*
X107247584Y-68520110D01*
X107066375Y-68401958D01*
X106965828Y-68345998D01*
X106879908Y-68380265D01*
X106879908Y-68380265D01*
G37*
X106879908Y-68380265D02*
X106670399Y-68490720D01*
X106358335Y-68665466D01*
X105964746Y-68892604D01*
X105510663Y-69160235D01*
X105230162Y-69327946D01*
X104724337Y-69629964D01*
X104242520Y-69914037D01*
X103811893Y-70164417D01*
X103459639Y-70365354D01*
X103212940Y-70501100D01*
X103144662Y-70536205D01*
X102576505Y-70885203D01*
X102136451Y-71322334D01*
X101799697Y-71865306D01*
X101521615Y-72430170D01*
X101490077Y-74248196D01*
X101474290Y-74936883D01*
X101453309Y-75464908D01*
X101426537Y-75840881D01*
X101393376Y-76073411D01*
X101356697Y-76168065D01*
X101276656Y-76196864D01*
X101130284Y-76168005D01*
X100893757Y-76073058D01*
X100543248Y-75903589D01*
X100392761Y-75826922D01*
X99530667Y-75383936D01*
X99530667Y-78031587D01*
X99531591Y-78783677D01*
X99534931Y-79384223D01*
X99541537Y-79851006D01*
X99552260Y-80201810D01*
X99567952Y-80454415D01*
X99589462Y-80626604D01*
X99617642Y-80736159D01*
X99653342Y-80800862D01*
X99663714Y-80812286D01*
X99880813Y-80933975D01*
X100099743Y-80894919D01*
X100245533Y-80757161D01*
X100291337Y-80665258D01*
X100325546Y-80523280D01*
X100349697Y-80308617D01*
X100365331Y-79998654D01*
X100373986Y-79570780D01*
X100377199Y-79002382D01*
X100377333Y-78820195D01*
X100380267Y-78182820D01*
X100389683Y-77698709D01*
X100406508Y-77351884D01*
X100431667Y-77126368D01*
X100466086Y-77006182D01*
X100483740Y-76983092D01*
X100583182Y-76966629D01*
X100774493Y-77020348D01*
X101075584Y-77150822D01*
X101457406Y-77340423D01*
X102324667Y-77786064D01*
X102325494Y-75322866D01*
X102326142Y-74611146D01*
X102328536Y-74047406D01*
X102334153Y-73610291D01*
X102344470Y-73278447D01*
X102360961Y-73030520D01*
X102385104Y-72845156D01*
X102418375Y-72701002D01*
X102462249Y-72576702D01*
X102518202Y-72450904D01*
X102525029Y-72436334D01*
X102667344Y-72175510D01*
X102850767Y-71926359D01*
X103091343Y-71676444D01*
X103405122Y-71413332D01*
X103808151Y-71124588D01*
X104316478Y-70797779D01*
X104946152Y-70420468D01*
X105645191Y-70018748D01*
X106172432Y-69718405D01*
X106648024Y-69444686D01*
X107053006Y-69208732D01*
X107368416Y-69021681D01*
X107575295Y-68894673D01*
X107654681Y-68838848D01*
X107654976Y-68838000D01*
X107593198Y-68774765D01*
X107440296Y-68656591D01*
X107247584Y-68520110D01*
X107066375Y-68401958D01*
X106965828Y-68345998D01*
X106879908Y-68380265D01*
G36*
X101478000Y-80163068D02*
G01*
X101480353Y-80745392D01*
X101488584Y-81182224D01*
X101504458Y-81497354D01*
X101529735Y-81714572D01*
X101566178Y-81857671D01*
X101609801Y-81942495D01*
X101797406Y-82092186D01*
X102025743Y-82123738D01*
X102223067Y-82029067D01*
X102265039Y-81918878D01*
X102295337Y-81677139D01*
X102314669Y-81292954D01*
X102323742Y-80755430D01*
X102324667Y-80464160D01*
X102324667Y-79000853D01*
X101901333Y-78786334D01*
X101478000Y-78571814D01*
X101478000Y-80163068D01*
X101478000Y-80163068D01*
G37*
X101478000Y-80163068D02*
X101480353Y-80745392D01*
X101488584Y-81182224D01*
X101504458Y-81497354D01*
X101529735Y-81714572D01*
X101566178Y-81857671D01*
X101609801Y-81942495D01*
X101797406Y-82092186D01*
X102025743Y-82123738D01*
X102223067Y-82029067D01*
X102265039Y-81918878D01*
X102295337Y-81677139D01*
X102314669Y-81292954D01*
X102323742Y-80755430D01*
X102324667Y-80464160D01*
X102324667Y-79000853D01*
X101901333Y-78786334D01*
X101478000Y-78571814D01*
X101478000Y-80163068D01*
G36*
X115242216Y-75419260D02*
G01*
X114627438Y-75624522D01*
X114005383Y-75943434D01*
X113397644Y-76369138D01*
X112924239Y-76793974D01*
X112480897Y-77316084D01*
X112114251Y-77905190D01*
X111832782Y-78532050D01*
X111644973Y-79167418D01*
X111559304Y-79782052D01*
X111584257Y-80346706D01*
X111728315Y-80832137D01*
X111743833Y-80863894D01*
X111878547Y-81094416D01*
X112031093Y-81239337D01*
X112262650Y-81348384D01*
X112397432Y-81395202D01*
X112705695Y-81482788D01*
X112944914Y-81503543D01*
X113199025Y-81463231D01*
X113240412Y-81453081D01*
X113746005Y-81245784D01*
X114234000Y-80895753D01*
X114676347Y-80429265D01*
X115044999Y-79872596D01*
X115150197Y-79663961D01*
X115321399Y-79174891D01*
X115343074Y-78754378D01*
X115214181Y-78389586D01*
X115028048Y-78154715D01*
X114790347Y-78023421D01*
X114477493Y-77986866D01*
X114156285Y-78047468D01*
X114008667Y-78117848D01*
X113893112Y-78197543D01*
X113927420Y-78204087D01*
X113966333Y-78192312D01*
X114175555Y-78137314D01*
X114396027Y-78093122D01*
X114687949Y-78116719D01*
X114923917Y-78273620D01*
X115091789Y-78533559D01*
X115179425Y-78866274D01*
X115174685Y-79241501D01*
X115065427Y-79628975D01*
X115037015Y-79690951D01*
X114845928Y-80012501D01*
X114584286Y-80360065D01*
X114292061Y-80688113D01*
X114009225Y-80951110D01*
X113811848Y-81086547D01*
X113567699Y-81168961D01*
X113251982Y-81221168D01*
X113103371Y-81229720D01*
X112812893Y-81218336D01*
X112614696Y-81156733D01*
X112433545Y-81019423D01*
X112406062Y-80993475D01*
X112168340Y-80654170D01*
X112034308Y-80211167D01*
X112004374Y-79694959D01*
X112078949Y-79136037D01*
X112258441Y-78564894D01*
X112370150Y-78318796D01*
X112720713Y-77763316D01*
X113183791Y-77244834D01*
X113724855Y-76789457D01*
X114309377Y-76423290D01*
X114902828Y-76172441D01*
X115337643Y-76075100D01*
X115905382Y-76074510D01*
X116411867Y-76212398D01*
X116835683Y-76476214D01*
X117155417Y-76853407D01*
X117325370Y-77240055D01*
X117401572Y-77644718D01*
X117433886Y-78146916D01*
X117423609Y-78681312D01*
X117372038Y-79182571D01*
X117280471Y-79585358D01*
X117278680Y-79590667D01*
X117071379Y-80129305D01*
X116805201Y-80715840D01*
X116508512Y-81294161D01*
X116209679Y-81808156D01*
X116001155Y-82117758D01*
X115789224Y-82417549D01*
X115673156Y-82606508D01*
X115652881Y-82678104D01*
X115728331Y-82625802D01*
X115899436Y-82443070D01*
X116003309Y-82321688D01*
X116386070Y-81847699D01*
X116685477Y-81428699D01*
X116942005Y-81004176D01*
X117149356Y-80608287D01*
X117424977Y-79993396D01*
X117610329Y-79413980D01*
X117719214Y-78809619D01*
X117765436Y-78119892D01*
X117769088Y-77895627D01*
X117769820Y-77468553D01*
X117758981Y-77163672D01*
X117728247Y-76933873D01*
X117669294Y-76732046D01*
X117573798Y-76511082D01*
X117496180Y-76351107D01*
X117313516Y-76014591D01*
X117138150Y-75786793D01*
X116925921Y-75615107D01*
X116827001Y-75553976D01*
X116363588Y-75377127D01*
X115828130Y-75334509D01*
X115242216Y-75419260D01*
X115242216Y-75419260D01*
G37*
X115242216Y-75419260D02*
X114627438Y-75624522D01*
X114005383Y-75943434D01*
X113397644Y-76369138D01*
X112924239Y-76793974D01*
X112480897Y-77316084D01*
X112114251Y-77905190D01*
X111832782Y-78532050D01*
X111644973Y-79167418D01*
X111559304Y-79782052D01*
X111584257Y-80346706D01*
X111728315Y-80832137D01*
X111743833Y-80863894D01*
X111878547Y-81094416D01*
X112031093Y-81239337D01*
X112262650Y-81348384D01*
X112397432Y-81395202D01*
X112705695Y-81482788D01*
X112944914Y-81503543D01*
X113199025Y-81463231D01*
X113240412Y-81453081D01*
X113746005Y-81245784D01*
X114234000Y-80895753D01*
X114676347Y-80429265D01*
X115044999Y-79872596D01*
X115150197Y-79663961D01*
X115321399Y-79174891D01*
X115343074Y-78754378D01*
X115214181Y-78389586D01*
X115028048Y-78154715D01*
X114790347Y-78023421D01*
X114477493Y-77986866D01*
X114156285Y-78047468D01*
X114008667Y-78117848D01*
X113893112Y-78197543D01*
X113927420Y-78204087D01*
X113966333Y-78192312D01*
X114175555Y-78137314D01*
X114396027Y-78093122D01*
X114687949Y-78116719D01*
X114923917Y-78273620D01*
X115091789Y-78533559D01*
X115179425Y-78866274D01*
X115174685Y-79241501D01*
X115065427Y-79628975D01*
X115037015Y-79690951D01*
X114845928Y-80012501D01*
X114584286Y-80360065D01*
X114292061Y-80688113D01*
X114009225Y-80951110D01*
X113811848Y-81086547D01*
X113567699Y-81168961D01*
X113251982Y-81221168D01*
X113103371Y-81229720D01*
X112812893Y-81218336D01*
X112614696Y-81156733D01*
X112433545Y-81019423D01*
X112406062Y-80993475D01*
X112168340Y-80654170D01*
X112034308Y-80211167D01*
X112004374Y-79694959D01*
X112078949Y-79136037D01*
X112258441Y-78564894D01*
X112370150Y-78318796D01*
X112720713Y-77763316D01*
X113183791Y-77244834D01*
X113724855Y-76789457D01*
X114309377Y-76423290D01*
X114902828Y-76172441D01*
X115337643Y-76075100D01*
X115905382Y-76074510D01*
X116411867Y-76212398D01*
X116835683Y-76476214D01*
X117155417Y-76853407D01*
X117325370Y-77240055D01*
X117401572Y-77644718D01*
X117433886Y-78146916D01*
X117423609Y-78681312D01*
X117372038Y-79182571D01*
X117280471Y-79585358D01*
X117278680Y-79590667D01*
X117071379Y-80129305D01*
X116805201Y-80715840D01*
X116508512Y-81294161D01*
X116209679Y-81808156D01*
X116001155Y-82117758D01*
X115789224Y-82417549D01*
X115673156Y-82606508D01*
X115652881Y-82678104D01*
X115728331Y-82625802D01*
X115899436Y-82443070D01*
X116003309Y-82321688D01*
X116386070Y-81847699D01*
X116685477Y-81428699D01*
X116942005Y-81004176D01*
X117149356Y-80608287D01*
X117424977Y-79993396D01*
X117610329Y-79413980D01*
X117719214Y-78809619D01*
X117765436Y-78119892D01*
X117769088Y-77895627D01*
X117769820Y-77468553D01*
X117758981Y-77163672D01*
X117728247Y-76933873D01*
X117669294Y-76732046D01*
X117573798Y-76511082D01*
X117496180Y-76351107D01*
X117313516Y-76014591D01*
X117138150Y-75786793D01*
X116925921Y-75615107D01*
X116827001Y-75553976D01*
X116363588Y-75377127D01*
X115828130Y-75334509D01*
X115242216Y-75419260D01*
G36*
X107044175Y-70911487D02*
G01*
X106834927Y-71020845D01*
X106568632Y-71175417D01*
X106538325Y-71193828D01*
X106182350Y-71403678D01*
X105767320Y-71637640D01*
X105398604Y-71836809D01*
X104829779Y-72180487D01*
X104399734Y-72551548D01*
X104077930Y-72979322D01*
X103942706Y-73235030D01*
X103721667Y-73706334D01*
X103697197Y-78459483D01*
X103692288Y-79484608D01*
X103689165Y-80353607D01*
X103688130Y-81079680D01*
X103689486Y-81676030D01*
X103693535Y-82155857D01*
X103700578Y-82532361D01*
X103710918Y-82818745D01*
X103724857Y-83028207D01*
X103742697Y-83173951D01*
X103764739Y-83269176D01*
X103791287Y-83327083D01*
X103809078Y-83348983D01*
X104033882Y-83472994D01*
X104271434Y-83440183D01*
X104392953Y-83352286D01*
X104422309Y-83307956D01*
X104447072Y-83229603D01*
X104467622Y-83103836D01*
X104484339Y-82917267D01*
X104497603Y-82656508D01*
X104507796Y-82308169D01*
X104515297Y-81858862D01*
X104520487Y-81295199D01*
X104523747Y-80603789D01*
X104525456Y-79771245D01*
X104525996Y-78784178D01*
X104526000Y-78669910D01*
X104526000Y-74120581D01*
X104744304Y-73682503D01*
X104950104Y-73345331D01*
X105232219Y-73022333D01*
X105611034Y-72696129D01*
X106106936Y-72349339D01*
X106740310Y-71964583D01*
X106799067Y-71930760D01*
X107169358Y-71715289D01*
X107480330Y-71528510D01*
X107705582Y-71386731D01*
X107818717Y-71306262D01*
X107826952Y-71295760D01*
X107760491Y-71222233D01*
X107601322Y-71106818D01*
X107406921Y-70985842D01*
X107234766Y-70895634D01*
X107153345Y-70870000D01*
X107044175Y-70911487D01*
X107044175Y-70911487D01*
G37*
X107044175Y-70911487D02*
X106834927Y-71020845D01*
X106568632Y-71175417D01*
X106538325Y-71193828D01*
X106182350Y-71403678D01*
X105767320Y-71637640D01*
X105398604Y-71836809D01*
X104829779Y-72180487D01*
X104399734Y-72551548D01*
X104077930Y-72979322D01*
X103942706Y-73235030D01*
X103721667Y-73706334D01*
X103697197Y-78459483D01*
X103692288Y-79484608D01*
X103689165Y-80353607D01*
X103688130Y-81079680D01*
X103689486Y-81676030D01*
X103693535Y-82155857D01*
X103700578Y-82532361D01*
X103710918Y-82818745D01*
X103724857Y-83028207D01*
X103742697Y-83173951D01*
X103764739Y-83269176D01*
X103791287Y-83327083D01*
X103809078Y-83348983D01*
X104033882Y-83472994D01*
X104271434Y-83440183D01*
X104392953Y-83352286D01*
X104422309Y-83307956D01*
X104447072Y-83229603D01*
X104467622Y-83103836D01*
X104484339Y-82917267D01*
X104497603Y-82656508D01*
X104507796Y-82308169D01*
X104515297Y-81858862D01*
X104520487Y-81295199D01*
X104523747Y-80603789D01*
X104525456Y-79771245D01*
X104525996Y-78784178D01*
X104526000Y-78669910D01*
X104526000Y-74120581D01*
X104744304Y-73682503D01*
X104950104Y-73345331D01*
X105232219Y-73022333D01*
X105611034Y-72696129D01*
X106106936Y-72349339D01*
X106740310Y-71964583D01*
X106799067Y-71930760D01*
X107169358Y-71715289D01*
X107480330Y-71528510D01*
X107705582Y-71386731D01*
X107818717Y-71306262D01*
X107826952Y-71295760D01*
X107760491Y-71222233D01*
X107601322Y-71106818D01*
X107406921Y-70985842D01*
X107234766Y-70895634D01*
X107153345Y-70870000D01*
X107044175Y-70911487D01*
G36*
X105944748Y-76958722D02*
G01*
X105924670Y-77192359D01*
X105908420Y-77584457D01*
X105895948Y-78137224D01*
X105887202Y-78852870D01*
X105882131Y-79733607D01*
X105880667Y-80672495D01*
X105881276Y-81587364D01*
X105883434Y-82347782D01*
X105887632Y-82968623D01*
X105894363Y-83464767D01*
X105904120Y-83851090D01*
X105917396Y-84142469D01*
X105934683Y-84353783D01*
X105956475Y-84499908D01*
X105983263Y-84595721D01*
X106012468Y-84651828D01*
X106200073Y-84801520D01*
X106428410Y-84833072D01*
X106625733Y-84738400D01*
X106651887Y-84666638D01*
X106673621Y-84501080D01*
X106691224Y-84230944D01*
X106704983Y-83845448D01*
X106715186Y-83333808D01*
X106722120Y-82685243D01*
X106726073Y-81888969D01*
X106727333Y-80934203D01*
X106727333Y-77223442D01*
X106392040Y-77052388D01*
X106168459Y-76947768D01*
X106003387Y-76887292D01*
X105968706Y-76881334D01*
X105944748Y-76958722D01*
X105944748Y-76958722D01*
G37*
X105944748Y-76958722D02*
X105924670Y-77192359D01*
X105908420Y-77584457D01*
X105895948Y-78137224D01*
X105887202Y-78852870D01*
X105882131Y-79733607D01*
X105880667Y-80672495D01*
X105881276Y-81587364D01*
X105883434Y-82347782D01*
X105887632Y-82968623D01*
X105894363Y-83464767D01*
X105904120Y-83851090D01*
X105917396Y-84142469D01*
X105934683Y-84353783D01*
X105956475Y-84499908D01*
X105983263Y-84595721D01*
X106012468Y-84651828D01*
X106200073Y-84801520D01*
X106428410Y-84833072D01*
X106625733Y-84738400D01*
X106651887Y-84666638D01*
X106673621Y-84501080D01*
X106691224Y-84230944D01*
X106704983Y-83845448D01*
X106715186Y-83333808D01*
X106722120Y-82685243D01*
X106726073Y-81888969D01*
X106727333Y-80934203D01*
X106727333Y-77223442D01*
X106392040Y-77052388D01*
X106168459Y-76947768D01*
X106003387Y-76887292D01*
X105968706Y-76881334D01*
X105944748Y-76958722D01*
G36*
X117701328Y-69854073D02*
G01*
X117459893Y-69959513D01*
X117159785Y-70117240D01*
X116573686Y-70440696D01*
X115980005Y-70775862D01*
X115354511Y-71136950D01*
X114672972Y-71538169D01*
X113911158Y-71993729D01*
X113044838Y-72517843D01*
X112484667Y-72859005D01*
X111895105Y-73218188D01*
X111322061Y-73566219D01*
X110789773Y-73888461D01*
X110322478Y-74170275D01*
X109944411Y-74397023D01*
X109679809Y-74554066D01*
X109629772Y-74583311D01*
X109206809Y-74856642D01*
X108889166Y-75140125D01*
X108625021Y-75488187D01*
X108409171Y-75865334D01*
X108209000Y-76246334D01*
X108184581Y-81084200D01*
X108179718Y-82119064D01*
X108176603Y-82997679D01*
X108175532Y-83733124D01*
X108176799Y-84338475D01*
X108180697Y-84826813D01*
X108187521Y-85211214D01*
X108197564Y-85504757D01*
X108211122Y-85720520D01*
X108228488Y-85871581D01*
X108249957Y-85971019D01*
X108275821Y-86031911D01*
X108296462Y-86058367D01*
X108493439Y-86182890D01*
X108696813Y-86145278D01*
X108783811Y-86088834D01*
X108814609Y-86054328D01*
X108840799Y-85991686D01*
X108862840Y-85887605D01*
X108881191Y-85728780D01*
X108896312Y-85501910D01*
X108908661Y-85193691D01*
X108918697Y-84790821D01*
X108926880Y-84279996D01*
X108933668Y-83647914D01*
X108939521Y-82881271D01*
X108944897Y-81966766D01*
X108948160Y-81326334D01*
X108953224Y-80320466D01*
X108958130Y-79469771D01*
X108963465Y-78760093D01*
X108969813Y-78177273D01*
X108977761Y-77707154D01*
X108987895Y-77335576D01*
X109000799Y-77048383D01*
X109017060Y-76831417D01*
X109037262Y-76670520D01*
X109061993Y-76551534D01*
X109091836Y-76460301D01*
X109127378Y-76382663D01*
X109154781Y-76331000D01*
X109261776Y-76149188D01*
X109386427Y-75974616D01*
X109540651Y-75798918D01*
X109736366Y-75613729D01*
X109985491Y-75410681D01*
X110299944Y-75181411D01*
X110691641Y-74917551D01*
X111172503Y-74610735D01*
X111754445Y-74252599D01*
X112449387Y-73834776D01*
X113269246Y-73348899D01*
X114093333Y-72864366D01*
X114834344Y-72428210D01*
X115533772Y-72013627D01*
X116177450Y-71629215D01*
X116751212Y-71283571D01*
X117240890Y-70985293D01*
X117632316Y-70742979D01*
X117911325Y-70565226D01*
X118063748Y-70460632D01*
X118085988Y-70441336D01*
X118182572Y-70218752D01*
X118132437Y-69995878D01*
X117974709Y-69846887D01*
X117861966Y-69820169D01*
X117701328Y-69854073D01*
X117701328Y-69854073D01*
G37*
X117701328Y-69854073D02*
X117459893Y-69959513D01*
X117159785Y-70117240D01*
X116573686Y-70440696D01*
X115980005Y-70775862D01*
X115354511Y-71136950D01*
X114672972Y-71538169D01*
X113911158Y-71993729D01*
X113044838Y-72517843D01*
X112484667Y-72859005D01*
X111895105Y-73218188D01*
X111322061Y-73566219D01*
X110789773Y-73888461D01*
X110322478Y-74170275D01*
X109944411Y-74397023D01*
X109679809Y-74554066D01*
X109629772Y-74583311D01*
X109206809Y-74856642D01*
X108889166Y-75140125D01*
X108625021Y-75488187D01*
X108409171Y-75865334D01*
X108209000Y-76246334D01*
X108184581Y-81084200D01*
X108179718Y-82119064D01*
X108176603Y-82997679D01*
X108175532Y-83733124D01*
X108176799Y-84338475D01*
X108180697Y-84826813D01*
X108187521Y-85211214D01*
X108197564Y-85504757D01*
X108211122Y-85720520D01*
X108228488Y-85871581D01*
X108249957Y-85971019D01*
X108275821Y-86031911D01*
X108296462Y-86058367D01*
X108493439Y-86182890D01*
X108696813Y-86145278D01*
X108783811Y-86088834D01*
X108814609Y-86054328D01*
X108840799Y-85991686D01*
X108862840Y-85887605D01*
X108881191Y-85728780D01*
X108896312Y-85501910D01*
X108908661Y-85193691D01*
X108918697Y-84790821D01*
X108926880Y-84279996D01*
X108933668Y-83647914D01*
X108939521Y-82881271D01*
X108944897Y-81966766D01*
X108948160Y-81326334D01*
X108953224Y-80320466D01*
X108958130Y-79469771D01*
X108963465Y-78760093D01*
X108969813Y-78177273D01*
X108977761Y-77707154D01*
X108987895Y-77335576D01*
X109000799Y-77048383D01*
X109017060Y-76831417D01*
X109037262Y-76670520D01*
X109061993Y-76551534D01*
X109091836Y-76460301D01*
X109127378Y-76382663D01*
X109154781Y-76331000D01*
X109261776Y-76149188D01*
X109386427Y-75974616D01*
X109540651Y-75798918D01*
X109736366Y-75613729D01*
X109985491Y-75410681D01*
X110299944Y-75181411D01*
X110691641Y-74917551D01*
X111172503Y-74610735D01*
X111754445Y-74252599D01*
X112449387Y-73834776D01*
X113269246Y-73348899D01*
X114093333Y-72864366D01*
X114834344Y-72428210D01*
X115533772Y-72013627D01*
X116177450Y-71629215D01*
X116751212Y-71283571D01*
X117240890Y-70985293D01*
X117632316Y-70742979D01*
X117911325Y-70565226D01*
X118063748Y-70460632D01*
X118085988Y-70441336D01*
X118182572Y-70218752D01*
X118132437Y-69995878D01*
X117974709Y-69846887D01*
X117861966Y-69820169D01*
X117701328Y-69854073D01*
G36*
X77402650Y-75401995D02*
G01*
X77331104Y-75517717D01*
X77187507Y-75759356D01*
X76984101Y-76105971D01*
X76733127Y-76536616D01*
X76446830Y-77030350D01*
X76137450Y-77566227D01*
X76131439Y-77576662D01*
X74974912Y-79584324D01*
X74997290Y-82230659D01*
X75019667Y-84876995D01*
X76205000Y-85573453D01*
X76607925Y-85808283D01*
X76960088Y-86009911D01*
X77235578Y-86163789D01*
X77408486Y-86255370D01*
X77453833Y-86274622D01*
X77464755Y-86193121D01*
X77475083Y-85956306D01*
X77484655Y-85578198D01*
X77493311Y-85072816D01*
X77500888Y-84454180D01*
X77507226Y-83736308D01*
X77512164Y-82933222D01*
X77515539Y-82058940D01*
X77517191Y-81127483D01*
X77517333Y-80757161D01*
X77516905Y-79639556D01*
X77515466Y-78680423D01*
X77512783Y-77868903D01*
X77508624Y-77194138D01*
X77502755Y-76645269D01*
X77494946Y-76211437D01*
X77484962Y-75881782D01*
X77472572Y-75645445D01*
X77457542Y-75491569D01*
X77439642Y-75409293D01*
X77418637Y-75387759D01*
X77402650Y-75401995D01*
X77402650Y-75401995D01*
G37*
X77402650Y-75401995D02*
X77331104Y-75517717D01*
X77187507Y-75759356D01*
X76984101Y-76105971D01*
X76733127Y-76536616D01*
X76446830Y-77030350D01*
X76137450Y-77566227D01*
X76131439Y-77576662D01*
X74974912Y-79584324D01*
X74997290Y-82230659D01*
X75019667Y-84876995D01*
X76205000Y-85573453D01*
X76607925Y-85808283D01*
X76960088Y-86009911D01*
X77235578Y-86163789D01*
X77408486Y-86255370D01*
X77453833Y-86274622D01*
X77464755Y-86193121D01*
X77475083Y-85956306D01*
X77484655Y-85578198D01*
X77493311Y-85072816D01*
X77500888Y-84454180D01*
X77507226Y-83736308D01*
X77512164Y-82933222D01*
X77515539Y-82058940D01*
X77517191Y-81127483D01*
X77517333Y-80757161D01*
X77516905Y-79639556D01*
X77515466Y-78680423D01*
X77512783Y-77868903D01*
X77508624Y-77194138D01*
X77502755Y-76645269D01*
X77494946Y-76211437D01*
X77484962Y-75881782D01*
X77472572Y-75645445D01*
X77457542Y-75491569D01*
X77439642Y-75409293D01*
X77418637Y-75387759D01*
X77402650Y-75401995D01*
G36*
X99954000Y-86321667D02*
G01*
X99976140Y-86464808D01*
X100075772Y-86523408D01*
X100250333Y-86533334D01*
X100546667Y-86533334D01*
X100546667Y-91105334D01*
X100250333Y-91105334D01*
X100049935Y-91121148D01*
X99967896Y-91192313D01*
X99954000Y-91317000D01*
X99954000Y-91528667D01*
X100913556Y-91528667D01*
X101300904Y-91523958D01*
X101623862Y-91511176D01*
X101846072Y-91492343D01*
X101929556Y-91472222D01*
X101978045Y-91347718D01*
X101986000Y-91260556D01*
X101951835Y-91157849D01*
X101821546Y-91112799D01*
X101647333Y-91105334D01*
X101308667Y-91105334D01*
X101308667Y-86533334D01*
X101647333Y-86533334D01*
X101865531Y-86521780D01*
X101962512Y-86467287D01*
X101985879Y-86340100D01*
X101986000Y-86321667D01*
X101986000Y-86110000D01*
X99954000Y-86110000D01*
X99954000Y-86321667D01*
X99954000Y-86321667D01*
G37*
X99954000Y-86321667D02*
X99976140Y-86464808D01*
X100075772Y-86523408D01*
X100250333Y-86533334D01*
X100546667Y-86533334D01*
X100546667Y-91105334D01*
X100250333Y-91105334D01*
X100049935Y-91121148D01*
X99967896Y-91192313D01*
X99954000Y-91317000D01*
X99954000Y-91528667D01*
X100913556Y-91528667D01*
X101300904Y-91523958D01*
X101623862Y-91511176D01*
X101846072Y-91492343D01*
X101929556Y-91472222D01*
X101978045Y-91347718D01*
X101986000Y-91260556D01*
X101951835Y-91157849D01*
X101821546Y-91112799D01*
X101647333Y-91105334D01*
X101308667Y-91105334D01*
X101308667Y-86533334D01*
X101647333Y-86533334D01*
X101865531Y-86521780D01*
X101962512Y-86467287D01*
X101985879Y-86340100D01*
X101986000Y-86321667D01*
X101986000Y-86110000D01*
X99954000Y-86110000D01*
X99954000Y-86321667D01*
G36*
X104149989Y-87608664D02*
G01*
X103803303Y-87755547D01*
X103520910Y-87960394D01*
X103388615Y-88131142D01*
X103339316Y-88259272D01*
X103303316Y-88441489D01*
X103278814Y-88702592D01*
X103264011Y-89067380D01*
X103257106Y-89560651D01*
X103256000Y-89958129D01*
X103256000Y-91528667D01*
X103834679Y-91528667D01*
X103862840Y-90052969D01*
X103874707Y-89512561D01*
X103888840Y-89114005D01*
X103908559Y-88829819D01*
X103937184Y-88632525D01*
X103978034Y-88494643D01*
X104034430Y-88388694D01*
X104069972Y-88338469D01*
X104174572Y-88215080D01*
X104289056Y-88143587D01*
X104460749Y-88109942D01*
X104736978Y-88100093D01*
X104874305Y-88099667D01*
X105243284Y-88088140D01*
X105472499Y-88046796D01*
X105590374Y-87965486D01*
X105625330Y-87834062D01*
X105625370Y-87831516D01*
X105549746Y-87760196D01*
X105352428Y-87684814D01*
X105080319Y-87617061D01*
X104780325Y-87568627D01*
X104500666Y-87551193D01*
X104149989Y-87608664D01*
X104149989Y-87608664D01*
G37*
X104149989Y-87608664D02*
X103803303Y-87755547D01*
X103520910Y-87960394D01*
X103388615Y-88131142D01*
X103339316Y-88259272D01*
X103303316Y-88441489D01*
X103278814Y-88702592D01*
X103264011Y-89067380D01*
X103257106Y-89560651D01*
X103256000Y-89958129D01*
X103256000Y-91528667D01*
X103834679Y-91528667D01*
X103862840Y-90052969D01*
X103874707Y-89512561D01*
X103888840Y-89114005D01*
X103908559Y-88829819D01*
X103937184Y-88632525D01*
X103978034Y-88494643D01*
X104034430Y-88388694D01*
X104069972Y-88338469D01*
X104174572Y-88215080D01*
X104289056Y-88143587D01*
X104460749Y-88109942D01*
X104736978Y-88100093D01*
X104874305Y-88099667D01*
X105243284Y-88088140D01*
X105472499Y-88046796D01*
X105590374Y-87965486D01*
X105625330Y-87834062D01*
X105625370Y-87831516D01*
X105549746Y-87760196D01*
X105352428Y-87684814D01*
X105080319Y-87617061D01*
X104780325Y-87568627D01*
X104500666Y-87551193D01*
X104149989Y-87608664D01*
G36*
X108231730Y-87693410D02*
G01*
X107893348Y-87872494D01*
X107840927Y-87916737D01*
X107571236Y-88225361D01*
X107396490Y-88584438D01*
X107303682Y-89031549D01*
X107279462Y-89539000D01*
X107287686Y-89943501D01*
X107318477Y-90236780D01*
X107382109Y-90476501D01*
X107488854Y-90720327D01*
X107490521Y-90723679D01*
X107771016Y-91143125D01*
X108119186Y-91408127D01*
X108538056Y-91520747D01*
X108666021Y-91525277D01*
X108961826Y-91495109D01*
X109226615Y-91423878D01*
X109288500Y-91395573D01*
X109486749Y-91255710D01*
X109523788Y-91149003D01*
X109406387Y-91087253D01*
X109141318Y-91082266D01*
X109110345Y-91085014D01*
X108746053Y-91086921D01*
X108487198Y-90991624D01*
X108286400Y-90772354D01*
X108164597Y-90550724D01*
X108067707Y-90321570D01*
X108016210Y-90099744D01*
X108001800Y-89825449D01*
X108014460Y-89469789D01*
X108053297Y-89065141D01*
X108117486Y-88723977D01*
X108190118Y-88513759D01*
X108421250Y-88238625D01*
X108741052Y-88096237D01*
X109119601Y-88098472D01*
X109193266Y-88115575D01*
X109402805Y-88164180D01*
X109496508Y-88148870D01*
X109520703Y-88054488D01*
X109521333Y-88008234D01*
X109496056Y-87849702D01*
X109395344Y-87744837D01*
X109181877Y-87664934D01*
X109024514Y-87626130D01*
X108634109Y-87605071D01*
X108231730Y-87693410D01*
X108231730Y-87693410D01*
G37*
X108231730Y-87693410D02*
X107893348Y-87872494D01*
X107840927Y-87916737D01*
X107571236Y-88225361D01*
X107396490Y-88584438D01*
X107303682Y-89031549D01*
X107279462Y-89539000D01*
X107287686Y-89943501D01*
X107318477Y-90236780D01*
X107382109Y-90476501D01*
X107488854Y-90720327D01*
X107490521Y-90723679D01*
X107771016Y-91143125D01*
X108119186Y-91408127D01*
X108538056Y-91520747D01*
X108666021Y-91525277D01*
X108961826Y-91495109D01*
X109226615Y-91423878D01*
X109288500Y-91395573D01*
X109486749Y-91255710D01*
X109523788Y-91149003D01*
X109406387Y-91087253D01*
X109141318Y-91082266D01*
X109110345Y-91085014D01*
X108746053Y-91086921D01*
X108487198Y-90991624D01*
X108286400Y-90772354D01*
X108164597Y-90550724D01*
X108067707Y-90321570D01*
X108016210Y-90099744D01*
X108001800Y-89825449D01*
X108014460Y-89469789D01*
X108053297Y-89065141D01*
X108117486Y-88723977D01*
X108190118Y-88513759D01*
X108421250Y-88238625D01*
X108741052Y-88096237D01*
X109119601Y-88098472D01*
X109193266Y-88115575D01*
X109402805Y-88164180D01*
X109496508Y-88148870D01*
X109520703Y-88054488D01*
X109521333Y-88008234D01*
X109496056Y-87849702D01*
X109395344Y-87744837D01*
X109181877Y-87664934D01*
X109024514Y-87626130D01*
X108634109Y-87605071D01*
X108231730Y-87693410D01*
G36*
X112532923Y-88713500D02*
G01*
X112308709Y-89346101D01*
X112101762Y-89929963D01*
X111919096Y-90445307D01*
X111767720Y-90872352D01*
X111654647Y-91191320D01*
X111586888Y-91382429D01*
X111570850Y-91427636D01*
X111589153Y-91492270D01*
X111722867Y-91518176D01*
X111975805Y-91512303D01*
X112420079Y-91486334D01*
X112959369Y-89962334D01*
X113975464Y-89938694D01*
X114991558Y-89915054D01*
X115240946Y-90700694D01*
X115490333Y-91486334D01*
X115861302Y-91512912D01*
X116096796Y-91516784D01*
X116192909Y-91478937D01*
X116192905Y-91428246D01*
X116156154Y-91323867D01*
X116070223Y-91079548D01*
X115942078Y-90715101D01*
X115778684Y-90250341D01*
X115587008Y-89705080D01*
X115461670Y-89348500D01*
X114771571Y-89348500D01*
X114692618Y-89375701D01*
X114481049Y-89397079D01*
X114173559Y-89409761D01*
X113960628Y-89412000D01*
X113585938Y-89409258D01*
X113351655Y-89397292D01*
X113228890Y-89370491D01*
X113188755Y-89323245D01*
X113197706Y-89263834D01*
X113241103Y-89131408D01*
X113326777Y-88873065D01*
X113443206Y-88523447D01*
X113578869Y-88117197D01*
X113610287Y-88023258D01*
X113975751Y-86930848D01*
X114374113Y-88107924D01*
X114514812Y-88527949D01*
X114633575Y-88890673D01*
X114720785Y-89166077D01*
X114766826Y-89324143D01*
X114771571Y-89348500D01*
X115461670Y-89348500D01*
X115374016Y-89099132D01*
X115238473Y-88713500D01*
X114323406Y-86110000D01*
X113455678Y-86110000D01*
X112532923Y-88713500D01*
X112532923Y-88713500D01*
G37*
X112532923Y-88713500D02*
X112308709Y-89346101D01*
X112101762Y-89929963D01*
X111919096Y-90445307D01*
X111767720Y-90872352D01*
X111654647Y-91191320D01*
X111586888Y-91382429D01*
X111570850Y-91427636D01*
X111589153Y-91492270D01*
X111722867Y-91518176D01*
X111975805Y-91512303D01*
X112420079Y-91486334D01*
X112959369Y-89962334D01*
X113975464Y-89938694D01*
X114991558Y-89915054D01*
X115240946Y-90700694D01*
X115490333Y-91486334D01*
X115861302Y-91512912D01*
X116096796Y-91516784D01*
X116192909Y-91478937D01*
X116192905Y-91428246D01*
X116156154Y-91323867D01*
X116070223Y-91079548D01*
X115942078Y-90715101D01*
X115778684Y-90250341D01*
X115587008Y-89705080D01*
X115461670Y-89348500D01*
X114771571Y-89348500D01*
X114692618Y-89375701D01*
X114481049Y-89397079D01*
X114173559Y-89409761D01*
X113960628Y-89412000D01*
X113585938Y-89409258D01*
X113351655Y-89397292D01*
X113228890Y-89370491D01*
X113188755Y-89323245D01*
X113197706Y-89263834D01*
X113241103Y-89131408D01*
X113326777Y-88873065D01*
X113443206Y-88523447D01*
X113578869Y-88117197D01*
X113610287Y-88023258D01*
X113975751Y-86930848D01*
X114374113Y-88107924D01*
X114514812Y-88527949D01*
X114633575Y-88890673D01*
X114720785Y-89166077D01*
X114766826Y-89324143D01*
X114771571Y-89348500D01*
X115461670Y-89348500D01*
X115374016Y-89099132D01*
X115238473Y-88713500D01*
X114323406Y-86110000D01*
X113455678Y-86110000D01*
X112532923Y-88713500D01*
G36*
X104187333Y-89357975D02*
G01*
X104198217Y-89486457D01*
X104258759Y-89552940D01*
X104410792Y-89577772D01*
X104646504Y-89581334D01*
X104960717Y-89600402D01*
X105183786Y-89672921D01*
X105366171Y-89800526D01*
X105542959Y-89984377D01*
X105616085Y-90187287D01*
X105626667Y-90378435D01*
X105557576Y-90726896D01*
X105363143Y-90976023D01*
X105062627Y-91114593D01*
X104675287Y-91131385D01*
X104420167Y-91081380D01*
X104241165Y-91072667D01*
X104181449Y-91152493D01*
X104245914Y-91284542D01*
X104377833Y-91395436D01*
X104766312Y-91553534D01*
X105196070Y-91566462D01*
X105609236Y-91437313D01*
X105956983Y-91183735D01*
X106182755Y-90858678D01*
X106285343Y-90495566D01*
X106263536Y-90127823D01*
X106116124Y-89788873D01*
X105841898Y-89512142D01*
X105682296Y-89419444D01*
X105405348Y-89319991D01*
X105047012Y-89235240D01*
X104758833Y-89192343D01*
X104187333Y-89134616D01*
X104187333Y-89357975D01*
X104187333Y-89357975D01*
G37*
X104187333Y-89357975D02*
X104198217Y-89486457D01*
X104258759Y-89552940D01*
X104410792Y-89577772D01*
X104646504Y-89581334D01*
X104960717Y-89600402D01*
X105183786Y-89672921D01*
X105366171Y-89800526D01*
X105542959Y-89984377D01*
X105616085Y-90187287D01*
X105626667Y-90378435D01*
X105557576Y-90726896D01*
X105363143Y-90976023D01*
X105062627Y-91114593D01*
X104675287Y-91131385D01*
X104420167Y-91081380D01*
X104241165Y-91072667D01*
X104181449Y-91152493D01*
X104245914Y-91284542D01*
X104377833Y-91395436D01*
X104766312Y-91553534D01*
X105196070Y-91566462D01*
X105609236Y-91437313D01*
X105956983Y-91183735D01*
X106182755Y-90858678D01*
X106285343Y-90495566D01*
X106263536Y-90127823D01*
X106116124Y-89788873D01*
X105841898Y-89512142D01*
X105682296Y-89419444D01*
X105405348Y-89319991D01*
X105047012Y-89235240D01*
X104758833Y-89192343D01*
X104187333Y-89134616D01*
X104187333Y-89357975D01*
G36*
X55861088Y-68652273D02*
G01*
X55853640Y-69176160D01*
X55853256Y-69556830D01*
X55862217Y-69820334D01*
X55882802Y-69992719D01*
X55917292Y-70100037D01*
X55967964Y-70168334D01*
X55995888Y-70192667D01*
X56095883Y-70256615D01*
X56329595Y-70397313D01*
X56683938Y-70607116D01*
X57145826Y-70878378D01*
X57702171Y-71203455D01*
X58339888Y-71574703D01*
X59045890Y-71984475D01*
X59807090Y-72425128D01*
X60610402Y-72889015D01*
X60693302Y-72936824D01*
X61628285Y-73476496D01*
X62426479Y-73938668D01*
X63098179Y-74329747D01*
X63653679Y-74656140D01*
X64103274Y-74924254D01*
X64457258Y-75140497D01*
X64725927Y-75311273D01*
X64919573Y-75442992D01*
X65048493Y-75542058D01*
X65122980Y-75614880D01*
X65153329Y-75667864D01*
X65149835Y-75707417D01*
X65148691Y-75709657D01*
X65112385Y-75830304D01*
X65210341Y-75864909D01*
X65237688Y-75865334D01*
X65294393Y-75871095D01*
X65337064Y-75902421D01*
X65367692Y-75980374D01*
X65388273Y-76126016D01*
X65400800Y-76360410D01*
X65407267Y-76704618D01*
X65409668Y-77179703D01*
X65410000Y-77685667D01*
X65409450Y-78284723D01*
X65406474Y-78735508D01*
X65399082Y-79059083D01*
X65385284Y-79276508D01*
X65363090Y-79408846D01*
X65330510Y-79477158D01*
X65285554Y-79502504D01*
X65238010Y-79506000D01*
X65075204Y-79561171D01*
X65017285Y-79633000D01*
X64937885Y-79744947D01*
X64899687Y-79760000D01*
X64813491Y-79718972D01*
X64597101Y-79601983D01*
X64266717Y-79418181D01*
X63838536Y-79176712D01*
X63328757Y-78886722D01*
X62753581Y-78557356D01*
X62129204Y-78197762D01*
X61975601Y-78109000D01*
X61343495Y-77743954D01*
X60758314Y-77406896D01*
X60236004Y-77106944D01*
X59792507Y-76853214D01*
X59443769Y-76654824D01*
X59205733Y-76520889D01*
X59094345Y-76460527D01*
X59088189Y-76458000D01*
X59078959Y-76538094D01*
X59073423Y-76760158D01*
X59071751Y-77096867D01*
X59074113Y-77520892D01*
X59079168Y-77913895D01*
X59102333Y-79369790D01*
X62169361Y-81140792D01*
X62924281Y-81577470D01*
X63544488Y-81938468D01*
X64042442Y-82231854D01*
X64430601Y-82465696D01*
X64721425Y-82648064D01*
X64927374Y-82787025D01*
X65060908Y-82890648D01*
X65134485Y-82967003D01*
X65160567Y-83024157D01*
X65151611Y-83070178D01*
X65150882Y-83071564D01*
X65111542Y-83194573D01*
X65203424Y-83230662D01*
X65237688Y-83231334D01*
X65279651Y-83234728D01*
X65314196Y-83254937D01*
X65342057Y-83306999D01*
X65363972Y-83405953D01*
X65380676Y-83566835D01*
X65392907Y-83804686D01*
X65401399Y-84134542D01*
X65406890Y-84571442D01*
X65410116Y-85130425D01*
X65411813Y-85826529D01*
X65412717Y-86674791D01*
X65412823Y-86808500D01*
X65415646Y-90385667D01*
X66603075Y-91063000D01*
X67009589Y-91293861D01*
X67366295Y-91494505D01*
X67646501Y-91650071D01*
X67823521Y-91745700D01*
X67870252Y-91768556D01*
X67883424Y-91689655D01*
X67895563Y-91446979D01*
X67906618Y-91046083D01*
X67916540Y-90492524D01*
X67925276Y-89791856D01*
X67932778Y-88949635D01*
X67938993Y-87971417D01*
X67943873Y-86862756D01*
X67947365Y-85629209D01*
X67949421Y-84276331D01*
X67950000Y-83000532D01*
X67950000Y-74204287D01*
X55885000Y-67238879D01*
X55861088Y-68652273D01*
X55861088Y-68652273D01*
G37*
X55861088Y-68652273D02*
X55853640Y-69176160D01*
X55853256Y-69556830D01*
X55862217Y-69820334D01*
X55882802Y-69992719D01*
X55917292Y-70100037D01*
X55967964Y-70168334D01*
X55995888Y-70192667D01*
X56095883Y-70256615D01*
X56329595Y-70397313D01*
X56683938Y-70607116D01*
X57145826Y-70878378D01*
X57702171Y-71203455D01*
X58339888Y-71574703D01*
X59045890Y-71984475D01*
X59807090Y-72425128D01*
X60610402Y-72889015D01*
X60693302Y-72936824D01*
X61628285Y-73476496D01*
X62426479Y-73938668D01*
X63098179Y-74329747D01*
X63653679Y-74656140D01*
X64103274Y-74924254D01*
X64457258Y-75140497D01*
X64725927Y-75311273D01*
X64919573Y-75442992D01*
X65048493Y-75542058D01*
X65122980Y-75614880D01*
X65153329Y-75667864D01*
X65149835Y-75707417D01*
X65148691Y-75709657D01*
X65112385Y-75830304D01*
X65210341Y-75864909D01*
X65237688Y-75865334D01*
X65294393Y-75871095D01*
X65337064Y-75902421D01*
X65367692Y-75980374D01*
X65388273Y-76126016D01*
X65400800Y-76360410D01*
X65407267Y-76704618D01*
X65409668Y-77179703D01*
X65410000Y-77685667D01*
X65409450Y-78284723D01*
X65406474Y-78735508D01*
X65399082Y-79059083D01*
X65385284Y-79276508D01*
X65363090Y-79408846D01*
X65330510Y-79477158D01*
X65285554Y-79502504D01*
X65238010Y-79506000D01*
X65075204Y-79561171D01*
X65017285Y-79633000D01*
X64937885Y-79744947D01*
X64899687Y-79760000D01*
X64813491Y-79718972D01*
X64597101Y-79601983D01*
X64266717Y-79418181D01*
X63838536Y-79176712D01*
X63328757Y-78886722D01*
X62753581Y-78557356D01*
X62129204Y-78197762D01*
X61975601Y-78109000D01*
X61343495Y-77743954D01*
X60758314Y-77406896D01*
X60236004Y-77106944D01*
X59792507Y-76853214D01*
X59443769Y-76654824D01*
X59205733Y-76520889D01*
X59094345Y-76460527D01*
X59088189Y-76458000D01*
X59078959Y-76538094D01*
X59073423Y-76760158D01*
X59071751Y-77096867D01*
X59074113Y-77520892D01*
X59079168Y-77913895D01*
X59102333Y-79369790D01*
X62169361Y-81140792D01*
X62924281Y-81577470D01*
X63544488Y-81938468D01*
X64042442Y-82231854D01*
X64430601Y-82465696D01*
X64721425Y-82648064D01*
X64927374Y-82787025D01*
X65060908Y-82890648D01*
X65134485Y-82967003D01*
X65160567Y-83024157D01*
X65151611Y-83070178D01*
X65150882Y-83071564D01*
X65111542Y-83194573D01*
X65203424Y-83230662D01*
X65237688Y-83231334D01*
X65279651Y-83234728D01*
X65314196Y-83254937D01*
X65342057Y-83306999D01*
X65363972Y-83405953D01*
X65380676Y-83566835D01*
X65392907Y-83804686D01*
X65401399Y-84134542D01*
X65406890Y-84571442D01*
X65410116Y-85130425D01*
X65411813Y-85826529D01*
X65412717Y-86674791D01*
X65412823Y-86808500D01*
X65415646Y-90385667D01*
X66603075Y-91063000D01*
X67009589Y-91293861D01*
X67366295Y-91494505D01*
X67646501Y-91650071D01*
X67823521Y-91745700D01*
X67870252Y-91768556D01*
X67883424Y-91689655D01*
X67895563Y-91446979D01*
X67906618Y-91046083D01*
X67916540Y-90492524D01*
X67925276Y-89791856D01*
X67932778Y-88949635D01*
X67938993Y-87971417D01*
X67943873Y-86862756D01*
X67947365Y-85629209D01*
X67949421Y-84276331D01*
X67950000Y-83000532D01*
X67950000Y-74204287D01*
X55885000Y-67238879D01*
X55861088Y-68652273D01*
G36*
X79358833Y-67979619D02*
G01*
X78067667Y-68723887D01*
X76501333Y-71443555D01*
X76084007Y-72165607D01*
X75741213Y-72752162D01*
X75464994Y-73215607D01*
X75247393Y-73568328D01*
X75080450Y-73822709D01*
X74956208Y-73991137D01*
X74866708Y-74085997D01*
X74803994Y-74119675D01*
X74782771Y-74118283D01*
X74597928Y-74124602D01*
X74519921Y-74165150D01*
X74442249Y-74176752D01*
X74290210Y-74131029D01*
X74048538Y-74020662D01*
X73701970Y-73838330D01*
X73235243Y-73576713D01*
X72945584Y-73410145D01*
X72497798Y-73152094D01*
X72101691Y-72925746D01*
X71779906Y-72743882D01*
X71555085Y-72619282D01*
X71449872Y-72564728D01*
X71445362Y-72563334D01*
X71362203Y-72603605D01*
X71161942Y-72713362D01*
X70873304Y-72876023D01*
X70525014Y-73075003D01*
X70145798Y-73293719D01*
X69764382Y-73515586D01*
X69409490Y-73724022D01*
X69109848Y-73902444D01*
X68894181Y-74034266D01*
X68860167Y-74055808D01*
X68542667Y-74259069D01*
X68542667Y-83020868D01*
X68543267Y-84223270D01*
X68545013Y-85376866D01*
X68547826Y-86470518D01*
X68551623Y-87493085D01*
X68556324Y-88433430D01*
X68561849Y-89280412D01*
X68568116Y-90022892D01*
X68575045Y-90649731D01*
X68582556Y-91149789D01*
X68590567Y-91511928D01*
X68598997Y-91725007D01*
X68606167Y-91780690D01*
X68697205Y-91739731D01*
X68908977Y-91627600D01*
X69215896Y-91458354D01*
X69592374Y-91246049D01*
X69897333Y-91071429D01*
X71125000Y-90364143D01*
X71146706Y-84046072D01*
X71151023Y-82856554D01*
X71155422Y-81825220D01*
X71160184Y-80940920D01*
X71165591Y-80192505D01*
X71171927Y-79568825D01*
X71179473Y-79058730D01*
X71188511Y-78651071D01*
X71199325Y-78334699D01*
X71212197Y-78098463D01*
X71227408Y-77931214D01*
X71245241Y-77821804D01*
X71265979Y-77759081D01*
X71289904Y-77731897D01*
X71306705Y-77728000D01*
X71470011Y-77665021D01*
X71542686Y-77594406D01*
X71592445Y-77556900D01*
X71677093Y-77556786D01*
X71816413Y-77603034D01*
X72030190Y-77704616D01*
X72338209Y-77870502D01*
X72760251Y-78109662D01*
X73058834Y-78281869D01*
X73498358Y-78533919D01*
X73885484Y-78751418D01*
X74197412Y-78921928D01*
X74411347Y-79033010D01*
X74504488Y-79072226D01*
X74506369Y-79071630D01*
X74553896Y-78993563D01*
X74676128Y-78785454D01*
X74863348Y-78464051D01*
X75105839Y-78046099D01*
X75393884Y-77548345D01*
X75717764Y-76987536D01*
X76038211Y-76431723D01*
X76477523Y-75674173D01*
X76840347Y-75059861D01*
X77130409Y-74582895D01*
X77351433Y-74237381D01*
X77507145Y-74017429D01*
X77601270Y-73917145D01*
X77630756Y-73912889D01*
X77782127Y-73985046D01*
X77915267Y-74002667D01*
X78110000Y-74002667D01*
X78110000Y-80148056D01*
X78111019Y-81235596D01*
X78113986Y-82245583D01*
X78118769Y-83167285D01*
X78125236Y-83989971D01*
X78133253Y-84702909D01*
X78142688Y-85295367D01*
X78153407Y-85756615D01*
X78165279Y-86075920D01*
X78178170Y-86242551D01*
X78185678Y-86265222D01*
X78281653Y-86215666D01*
X78498103Y-86096907D01*
X78808466Y-85923733D01*
X79186182Y-85710933D01*
X79452947Y-85559667D01*
X80644539Y-84882334D01*
X80647270Y-76058842D01*
X80650000Y-67235350D01*
X79358833Y-67979619D01*
X79358833Y-67979619D01*
G37*
X79358833Y-67979619D02*
X78067667Y-68723887D01*
X76501333Y-71443555D01*
X76084007Y-72165607D01*
X75741213Y-72752162D01*
X75464994Y-73215607D01*
X75247393Y-73568328D01*
X75080450Y-73822709D01*
X74956208Y-73991137D01*
X74866708Y-74085997D01*
X74803994Y-74119675D01*
X74782771Y-74118283D01*
X74597928Y-74124602D01*
X74519921Y-74165150D01*
X74442249Y-74176752D01*
X74290210Y-74131029D01*
X74048538Y-74020662D01*
X73701970Y-73838330D01*
X73235243Y-73576713D01*
X72945584Y-73410145D01*
X72497798Y-73152094D01*
X72101691Y-72925746D01*
X71779906Y-72743882D01*
X71555085Y-72619282D01*
X71449872Y-72564728D01*
X71445362Y-72563334D01*
X71362203Y-72603605D01*
X71161942Y-72713362D01*
X70873304Y-72876023D01*
X70525014Y-73075003D01*
X70145798Y-73293719D01*
X69764382Y-73515586D01*
X69409490Y-73724022D01*
X69109848Y-73902444D01*
X68894181Y-74034266D01*
X68860167Y-74055808D01*
X68542667Y-74259069D01*
X68542667Y-83020868D01*
X68543267Y-84223270D01*
X68545013Y-85376866D01*
X68547826Y-86470518D01*
X68551623Y-87493085D01*
X68556324Y-88433430D01*
X68561849Y-89280412D01*
X68568116Y-90022892D01*
X68575045Y-90649731D01*
X68582556Y-91149789D01*
X68590567Y-91511928D01*
X68598997Y-91725007D01*
X68606167Y-91780690D01*
X68697205Y-91739731D01*
X68908977Y-91627600D01*
X69215896Y-91458354D01*
X69592374Y-91246049D01*
X69897333Y-91071429D01*
X71125000Y-90364143D01*
X71146706Y-84046072D01*
X71151023Y-82856554D01*
X71155422Y-81825220D01*
X71160184Y-80940920D01*
X71165591Y-80192505D01*
X71171927Y-79568825D01*
X71179473Y-79058730D01*
X71188511Y-78651071D01*
X71199325Y-78334699D01*
X71212197Y-78098463D01*
X71227408Y-77931214D01*
X71245241Y-77821804D01*
X71265979Y-77759081D01*
X71289904Y-77731897D01*
X71306705Y-77728000D01*
X71470011Y-77665021D01*
X71542686Y-77594406D01*
X71592445Y-77556900D01*
X71677093Y-77556786D01*
X71816413Y-77603034D01*
X72030190Y-77704616D01*
X72338209Y-77870502D01*
X72760251Y-78109662D01*
X73058834Y-78281869D01*
X73498358Y-78533919D01*
X73885484Y-78751418D01*
X74197412Y-78921928D01*
X74411347Y-79033010D01*
X74504488Y-79072226D01*
X74506369Y-79071630D01*
X74553896Y-78993563D01*
X74676128Y-78785454D01*
X74863348Y-78464051D01*
X75105839Y-78046099D01*
X75393884Y-77548345D01*
X75717764Y-76987536D01*
X76038211Y-76431723D01*
X76477523Y-75674173D01*
X76840347Y-75059861D01*
X77130409Y-74582895D01*
X77351433Y-74237381D01*
X77507145Y-74017429D01*
X77601270Y-73917145D01*
X77630756Y-73912889D01*
X77782127Y-73985046D01*
X77915267Y-74002667D01*
X78110000Y-74002667D01*
X78110000Y-80148056D01*
X78111019Y-81235596D01*
X78113986Y-82245583D01*
X78118769Y-83167285D01*
X78125236Y-83989971D01*
X78133253Y-84702909D01*
X78142688Y-85295367D01*
X78153407Y-85756615D01*
X78165279Y-86075920D01*
X78178170Y-86242551D01*
X78185678Y-86265222D01*
X78281653Y-86215666D01*
X78498103Y-86096907D01*
X78808466Y-85923733D01*
X79186182Y-85710933D01*
X79452947Y-85559667D01*
X80644539Y-84882334D01*
X80647270Y-76058842D01*
X80650000Y-67235350D01*
X79358833Y-67979619D01*
G36*
X109860000Y-93052667D02*
G01*
X110539712Y-93052667D01*
X110517356Y-90364500D01*
X110495000Y-87676334D01*
X109860000Y-87623778D01*
X109860000Y-93052667D01*
X109860000Y-93052667D01*
G37*
X109860000Y-93052667D02*
X110539712Y-93052667D01*
X110517356Y-90364500D01*
X110495000Y-87676334D01*
X109860000Y-87623778D01*
X109860000Y-93052667D01*
G36*
X86757254Y-95108759D02*
G01*
X86276565Y-95399307D01*
X85849507Y-95814526D01*
X85499390Y-96339791D01*
X85457945Y-96421066D01*
X85306327Y-96753463D01*
X85223150Y-97024946D01*
X85189976Y-97317327D01*
X85187072Y-97623109D01*
X85260787Y-98298339D01*
X85470387Y-98947136D01*
X85822709Y-99580266D01*
X86324588Y-100208494D01*
X86982860Y-100842587D01*
X87498336Y-101263375D01*
X87843819Y-101543353D01*
X88256259Y-101897663D01*
X88683362Y-102280416D01*
X89064669Y-102637842D01*
X89371805Y-102933816D01*
X89630134Y-103182154D01*
X89817914Y-103362002D01*
X89913403Y-103452507D01*
X89921000Y-103459207D01*
X89976984Y-103401083D01*
X90130016Y-103245579D01*
X90357717Y-103015361D01*
X90637707Y-102733092D01*
X90683000Y-102687494D01*
X91061600Y-102321143D01*
X91486887Y-101932873D01*
X91899720Y-101575645D01*
X92164667Y-101360675D01*
X92927564Y-100719186D01*
X93536471Y-100097602D01*
X94003124Y-99481050D01*
X94339256Y-98854655D01*
X94505992Y-98392782D01*
X94604965Y-97806957D01*
X94571457Y-97225363D01*
X94421162Y-96668289D01*
X94169774Y-96156024D01*
X93832987Y-95708858D01*
X93426495Y-95347080D01*
X92965990Y-95090979D01*
X92467168Y-94960846D01*
X91945722Y-94976970D01*
X91874991Y-94991336D01*
X91359110Y-95164977D01*
X90861393Y-95435312D01*
X90443095Y-95765991D01*
X90292660Y-95930287D01*
X90114272Y-96124911D01*
X89959341Y-96247820D01*
X89898597Y-96270000D01*
X89783417Y-96210718D01*
X89600419Y-96055717D01*
X89400734Y-95850907D01*
X88929644Y-95439430D01*
X88368797Y-95131247D01*
X87786287Y-94960179D01*
X87268265Y-94957508D01*
X86757254Y-95108759D01*
X86757254Y-95108759D01*
G37*
X86757254Y-95108759D02*
X86276565Y-95399307D01*
X85849507Y-95814526D01*
X85499390Y-96339791D01*
X85457945Y-96421066D01*
X85306327Y-96753463D01*
X85223150Y-97024946D01*
X85189976Y-97317327D01*
X85187072Y-97623109D01*
X85260787Y-98298339D01*
X85470387Y-98947136D01*
X85822709Y-99580266D01*
X86324588Y-100208494D01*
X86982860Y-100842587D01*
X87498336Y-101263375D01*
X87843819Y-101543353D01*
X88256259Y-101897663D01*
X88683362Y-102280416D01*
X89064669Y-102637842D01*
X89371805Y-102933816D01*
X89630134Y-103182154D01*
X89817914Y-103362002D01*
X89913403Y-103452507D01*
X89921000Y-103459207D01*
X89976984Y-103401083D01*
X90130016Y-103245579D01*
X90357717Y-103015361D01*
X90637707Y-102733092D01*
X90683000Y-102687494D01*
X91061600Y-102321143D01*
X91486887Y-101932873D01*
X91899720Y-101575645D01*
X92164667Y-101360675D01*
X92927564Y-100719186D01*
X93536471Y-100097602D01*
X94003124Y-99481050D01*
X94339256Y-98854655D01*
X94505992Y-98392782D01*
X94604965Y-97806957D01*
X94571457Y-97225363D01*
X94421162Y-96668289D01*
X94169774Y-96156024D01*
X93832987Y-95708858D01*
X93426495Y-95347080D01*
X92965990Y-95090979D01*
X92467168Y-94960846D01*
X91945722Y-94976970D01*
X91874991Y-94991336D01*
X91359110Y-95164977D01*
X90861393Y-95435312D01*
X90443095Y-95765991D01*
X90292660Y-95930287D01*
X90114272Y-96124911D01*
X89959341Y-96247820D01*
X89898597Y-96270000D01*
X89783417Y-96210718D01*
X89600419Y-96055717D01*
X89400734Y-95850907D01*
X88929644Y-95439430D01*
X88368797Y-95131247D01*
X87786287Y-94960179D01*
X87268265Y-94957508D01*
X86757254Y-95108759D01*
G36*
X88693333Y-111721667D02*
G01*
X88735667Y-111764000D01*
X88778000Y-111721667D01*
X88735667Y-111679334D01*
X88693333Y-111721667D01*
X88693333Y-111721667D01*
G37*
X88693333Y-111721667D02*
X88735667Y-111764000D01*
X88778000Y-111721667D01*
X88735667Y-111679334D01*
X88693333Y-111721667D01*
G36*
X88890889Y-111792222D02*
G01*
X88902511Y-111842557D01*
X88947333Y-111848667D01*
X89017024Y-111817689D01*
X89003778Y-111792222D01*
X88903298Y-111782089D01*
X88890889Y-111792222D01*
X88890889Y-111792222D01*
G37*
X88890889Y-111792222D02*
X88902511Y-111842557D01*
X88947333Y-111848667D01*
X89017024Y-111817689D01*
X89003778Y-111792222D01*
X88903298Y-111782089D01*
X88890889Y-111792222D01*
G36*
X91600368Y-113044269D02*
G01*
X91496822Y-113107008D01*
X91487333Y-113142161D01*
X91552615Y-113349302D01*
X91716539Y-113585119D01*
X91931227Y-113793408D01*
X92148002Y-113917711D01*
X92306364Y-113927568D01*
X92399567Y-113802193D01*
X92406584Y-113783872D01*
X92448546Y-113509842D01*
X92348489Y-113318656D01*
X92151901Y-113230414D01*
X91961098Y-113172238D01*
X91861575Y-113107731D01*
X91750372Y-113041896D01*
X91600368Y-113044269D01*
X91600368Y-113044269D01*
G37*
X91600368Y-113044269D02*
X91496822Y-113107008D01*
X91487333Y-113142161D01*
X91552615Y-113349302D01*
X91716539Y-113585119D01*
X91931227Y-113793408D01*
X92148002Y-113917711D01*
X92306364Y-113927568D01*
X92399567Y-113802193D01*
X92406584Y-113783872D01*
X92448546Y-113509842D01*
X92348489Y-113318656D01*
X92151901Y-113230414D01*
X91961098Y-113172238D01*
X91861575Y-113107731D01*
X91750372Y-113041896D01*
X91600368Y-113044269D01*
G36*
X88890889Y-114670889D02*
G01*
X88902511Y-114721223D01*
X88947333Y-114727334D01*
X89017024Y-114696355D01*
X89003778Y-114670889D01*
X88903298Y-114660756D01*
X88890889Y-114670889D01*
X88890889Y-114670889D01*
G37*
X88890889Y-114670889D02*
X88902511Y-114721223D01*
X88947333Y-114727334D01*
X89017024Y-114696355D01*
X89003778Y-114670889D01*
X88903298Y-114660756D01*
X88890889Y-114670889D01*
G36*
X89253835Y-114837623D02*
G01*
X89201333Y-114886792D01*
X89270797Y-114963913D01*
X89418408Y-115015883D01*
X89552997Y-115015173D01*
X89577431Y-115000347D01*
X89623150Y-114888945D01*
X89519915Y-114822046D01*
X89413000Y-114812000D01*
X89253835Y-114837623D01*
X89253835Y-114837623D01*
G37*
X89253835Y-114837623D02*
X89201333Y-114886792D01*
X89270797Y-114963913D01*
X89418408Y-115015883D01*
X89552997Y-115015173D01*
X89577431Y-115000347D01*
X89623150Y-114888945D01*
X89519915Y-114822046D01*
X89413000Y-114812000D01*
X89253835Y-114837623D01*
G36*
X89935010Y-114964527D02*
G01*
X89835457Y-115011638D01*
X89892676Y-115076450D01*
X90091234Y-115145929D01*
X90238604Y-115095100D01*
X90255198Y-115073232D01*
X90242720Y-114988172D01*
X90115069Y-114946993D01*
X89935010Y-114964527D01*
X89935010Y-114964527D01*
G37*
X89935010Y-114964527D02*
X89835457Y-115011638D01*
X89892676Y-115076450D01*
X90091234Y-115145929D01*
X90238604Y-115095100D01*
X90255198Y-115073232D01*
X90242720Y-114988172D01*
X90115069Y-114946993D01*
X89935010Y-114964527D01*
G36*
X86707742Y-117312171D02*
G01*
X86499355Y-117409075D01*
X86365000Y-117474094D01*
X86132556Y-117594509D01*
X86037686Y-117670592D01*
X86061183Y-117721988D01*
X86103420Y-117741592D01*
X86209184Y-117793207D01*
X86167960Y-117837546D01*
X86072508Y-117875149D01*
X85941808Y-117940558D01*
X85942471Y-118031063D01*
X86006640Y-118136043D01*
X86195706Y-118292118D01*
X86347528Y-118325667D01*
X86535043Y-118348607D01*
X86625588Y-118389167D01*
X86746303Y-118447754D01*
X86834133Y-118344080D01*
X86861924Y-118254990D01*
X86873812Y-118032559D01*
X86833288Y-117784472D01*
X86792144Y-117560204D01*
X86800412Y-117393644D01*
X86801911Y-117389482D01*
X86828684Y-117308249D01*
X86807406Y-117280521D01*
X86707742Y-117312171D01*
X86707742Y-117312171D01*
G37*
X86707742Y-117312171D02*
X86499355Y-117409075D01*
X86365000Y-117474094D01*
X86132556Y-117594509D01*
X86037686Y-117670592D01*
X86061183Y-117721988D01*
X86103420Y-117741592D01*
X86209184Y-117793207D01*
X86167960Y-117837546D01*
X86072508Y-117875149D01*
X85941808Y-117940558D01*
X85942471Y-118031063D01*
X86006640Y-118136043D01*
X86195706Y-118292118D01*
X86347528Y-118325667D01*
X86535043Y-118348607D01*
X86625588Y-118389167D01*
X86746303Y-118447754D01*
X86834133Y-118344080D01*
X86861924Y-118254990D01*
X86873812Y-118032559D01*
X86833288Y-117784472D01*
X86792144Y-117560204D01*
X86800412Y-117393644D01*
X86801911Y-117389482D01*
X86828684Y-117308249D01*
X86807406Y-117280521D01*
X86707742Y-117312171D01*
G36*
X84589066Y-118273936D02*
G01*
X84514384Y-118462637D01*
X84467395Y-118709112D01*
X84460000Y-118844250D01*
X84513219Y-118946421D01*
X84633545Y-118944522D01*
X84761980Y-118847492D01*
X84797737Y-118793071D01*
X84845734Y-118602570D01*
X84826765Y-118396826D01*
X84754676Y-118241859D01*
X84673072Y-118198667D01*
X84589066Y-118273936D01*
X84589066Y-118273936D01*
G37*
X84589066Y-118273936D02*
X84514384Y-118462637D01*
X84467395Y-118709112D01*
X84460000Y-118844250D01*
X84513219Y-118946421D01*
X84633545Y-118944522D01*
X84761980Y-118847492D01*
X84797737Y-118793071D01*
X84845734Y-118602570D01*
X84826765Y-118396826D01*
X84754676Y-118241859D01*
X84673072Y-118198667D01*
X84589066Y-118273936D01*
G36*
X88890889Y-122460222D02*
G01*
X88880756Y-122560702D01*
X88890889Y-122573111D01*
X88941223Y-122561489D01*
X88947333Y-122516667D01*
X88916355Y-122446977D01*
X88890889Y-122460222D01*
X88890889Y-122460222D01*
G37*
X88890889Y-122460222D02*
X88880756Y-122560702D01*
X88890889Y-122573111D01*
X88941223Y-122561489D01*
X88947333Y-122516667D01*
X88916355Y-122446977D01*
X88890889Y-122460222D01*
G36*
X87313461Y-117057462D02*
G01*
X87263996Y-117152206D01*
X87190568Y-117375904D01*
X87169333Y-117528690D01*
X87219205Y-117749083D01*
X87352627Y-118052498D01*
X87545310Y-118391405D01*
X87772966Y-118718274D01*
X87785256Y-118733988D01*
X87933282Y-118935925D01*
X87981763Y-119059123D01*
X87944258Y-119150864D01*
X87914141Y-119183478D01*
X87850230Y-119234706D01*
X87782329Y-119238084D01*
X87688763Y-119175587D01*
X87547856Y-119029186D01*
X87337934Y-118780852D01*
X87142104Y-118541370D01*
X87020259Y-118418619D01*
X86947484Y-118392294D01*
X86932014Y-118499992D01*
X86968905Y-118669903D01*
X87033805Y-118821549D01*
X87093845Y-118876000D01*
X87155204Y-118946993D01*
X87169333Y-119045334D01*
X87222273Y-119183238D01*
X87296333Y-119214667D01*
X87398338Y-119288492D01*
X87423333Y-119430538D01*
X87462753Y-119658089D01*
X87557786Y-119906385D01*
X87559956Y-119910608D01*
X87650811Y-120127804D01*
X87770461Y-120474388D01*
X87907915Y-120915155D01*
X88052182Y-121414901D01*
X88188566Y-121924000D01*
X88229103Y-122160855D01*
X88226433Y-122343772D01*
X88223141Y-122356547D01*
X88246252Y-122517953D01*
X88310422Y-122599747D01*
X88409316Y-122656342D01*
X88438600Y-122570426D01*
X88439333Y-122528092D01*
X88418641Y-122371643D01*
X88363029Y-122097344D01*
X88282193Y-121750695D01*
X88227667Y-121534790D01*
X88138226Y-121187435D01*
X88067485Y-120906774D01*
X88024600Y-120729477D01*
X88016000Y-120687065D01*
X88087182Y-120660067D01*
X88183720Y-120654000D01*
X88325223Y-120582692D01*
X88412655Y-120417108D01*
X88421213Y-120229753D01*
X88365401Y-120122868D01*
X88297626Y-119965756D01*
X88272839Y-119722789D01*
X88289664Y-119467332D01*
X88346723Y-119272747D01*
X88382227Y-119226928D01*
X88482178Y-119199120D01*
X88620368Y-119279134D01*
X88784394Y-119436430D01*
X88992352Y-119630642D01*
X89184684Y-119773570D01*
X89250628Y-119808040D01*
X89405805Y-119928624D01*
X89549351Y-120130869D01*
X89561483Y-120154845D01*
X89643647Y-120357842D01*
X89638201Y-120494917D01*
X89575689Y-120604514D01*
X89481814Y-120824306D01*
X89455333Y-121004450D01*
X89434477Y-121182367D01*
X89391833Y-121260778D01*
X89255889Y-121385395D01*
X89113012Y-121607830D01*
X88998488Y-121861913D01*
X88947601Y-122081476D01*
X88947333Y-122094347D01*
X88957615Y-122192132D01*
X88996487Y-122194076D01*
X89075995Y-122084913D01*
X89208182Y-121849378D01*
X89342446Y-121593535D01*
X89550805Y-121211249D01*
X89773764Y-120834122D01*
X89975167Y-120522242D01*
X90049025Y-120419333D01*
X90303764Y-120034446D01*
X90422676Y-119725369D01*
X90411150Y-119474464D01*
X90366856Y-119379119D01*
X90312561Y-119250443D01*
X90355715Y-119141039D01*
X90513667Y-118997517D01*
X90656296Y-118868884D01*
X90703890Y-118797112D01*
X90693800Y-118791754D01*
X90676555Y-118739981D01*
X90722255Y-118668042D01*
X90787575Y-118514901D01*
X90703944Y-118413780D01*
X90487203Y-118377724D01*
X90376758Y-118383456D01*
X90169099Y-118387259D01*
X90055345Y-118358230D01*
X90048000Y-118344074D01*
X89994362Y-118312556D01*
X89957998Y-118328964D01*
X89835646Y-118320232D01*
X89702026Y-118234387D01*
X89512208Y-118131948D01*
X89219847Y-118095229D01*
X89092589Y-118095854D01*
X88865201Y-118097095D01*
X88706678Y-118068492D01*
X88570408Y-117983449D01*
X88409781Y-117815369D01*
X88235209Y-117606622D01*
X88003141Y-117351388D01*
X87777350Y-117145628D01*
X87603185Y-117030213D01*
X87589978Y-117025083D01*
X87414006Y-116986850D01*
X87313461Y-117057462D01*
X87313461Y-117057462D01*
G37*
X87313461Y-117057462D02*
X87263996Y-117152206D01*
X87190568Y-117375904D01*
X87169333Y-117528690D01*
X87219205Y-117749083D01*
X87352627Y-118052498D01*
X87545310Y-118391405D01*
X87772966Y-118718274D01*
X87785256Y-118733988D01*
X87933282Y-118935925D01*
X87981763Y-119059123D01*
X87944258Y-119150864D01*
X87914141Y-119183478D01*
X87850230Y-119234706D01*
X87782329Y-119238084D01*
X87688763Y-119175587D01*
X87547856Y-119029186D01*
X87337934Y-118780852D01*
X87142104Y-118541370D01*
X87020259Y-118418619D01*
X86947484Y-118392294D01*
X86932014Y-118499992D01*
X86968905Y-118669903D01*
X87033805Y-118821549D01*
X87093845Y-118876000D01*
X87155204Y-118946993D01*
X87169333Y-119045334D01*
X87222273Y-119183238D01*
X87296333Y-119214667D01*
X87398338Y-119288492D01*
X87423333Y-119430538D01*
X87462753Y-119658089D01*
X87557786Y-119906385D01*
X87559956Y-119910608D01*
X87650811Y-120127804D01*
X87770461Y-120474388D01*
X87907915Y-120915155D01*
X88052182Y-121414901D01*
X88188566Y-121924000D01*
X88229103Y-122160855D01*
X88226433Y-122343772D01*
X88223141Y-122356547D01*
X88246252Y-122517953D01*
X88310422Y-122599747D01*
X88409316Y-122656342D01*
X88438600Y-122570426D01*
X88439333Y-122528092D01*
X88418641Y-122371643D01*
X88363029Y-122097344D01*
X88282193Y-121750695D01*
X88227667Y-121534790D01*
X88138226Y-121187435D01*
X88067485Y-120906774D01*
X88024600Y-120729477D01*
X88016000Y-120687065D01*
X88087182Y-120660067D01*
X88183720Y-120654000D01*
X88325223Y-120582692D01*
X88412655Y-120417108D01*
X88421213Y-120229753D01*
X88365401Y-120122868D01*
X88297626Y-119965756D01*
X88272839Y-119722789D01*
X88289664Y-119467332D01*
X88346723Y-119272747D01*
X88382227Y-119226928D01*
X88482178Y-119199120D01*
X88620368Y-119279134D01*
X88784394Y-119436430D01*
X88992352Y-119630642D01*
X89184684Y-119773570D01*
X89250628Y-119808040D01*
X89405805Y-119928624D01*
X89549351Y-120130869D01*
X89561483Y-120154845D01*
X89643647Y-120357842D01*
X89638201Y-120494917D01*
X89575689Y-120604514D01*
X89481814Y-120824306D01*
X89455333Y-121004450D01*
X89434477Y-121182367D01*
X89391833Y-121260778D01*
X89255889Y-121385395D01*
X89113012Y-121607830D01*
X88998488Y-121861913D01*
X88947601Y-122081476D01*
X88947333Y-122094347D01*
X88957615Y-122192132D01*
X88996487Y-122194076D01*
X89075995Y-122084913D01*
X89208182Y-121849378D01*
X89342446Y-121593535D01*
X89550805Y-121211249D01*
X89773764Y-120834122D01*
X89975167Y-120522242D01*
X90049025Y-120419333D01*
X90303764Y-120034446D01*
X90422676Y-119725369D01*
X90411150Y-119474464D01*
X90366856Y-119379119D01*
X90312561Y-119250443D01*
X90355715Y-119141039D01*
X90513667Y-118997517D01*
X90656296Y-118868884D01*
X90703890Y-118797112D01*
X90693800Y-118791754D01*
X90676555Y-118739981D01*
X90722255Y-118668042D01*
X90787575Y-118514901D01*
X90703944Y-118413780D01*
X90487203Y-118377724D01*
X90376758Y-118383456D01*
X90169099Y-118387259D01*
X90055345Y-118358230D01*
X90048000Y-118344074D01*
X89994362Y-118312556D01*
X89957998Y-118328964D01*
X89835646Y-118320232D01*
X89702026Y-118234387D01*
X89512208Y-118131948D01*
X89219847Y-118095229D01*
X89092589Y-118095854D01*
X88865201Y-118097095D01*
X88706678Y-118068492D01*
X88570408Y-117983449D01*
X88409781Y-117815369D01*
X88235209Y-117606622D01*
X88003141Y-117351388D01*
X87777350Y-117145628D01*
X87603185Y-117030213D01*
X87589978Y-117025083D01*
X87414006Y-116986850D01*
X87313461Y-117057462D01*
G36*
X83105333Y-112597659D02*
G01*
X83105592Y-113748862D01*
X83106559Y-114742914D01*
X83108517Y-115591995D01*
X83111754Y-116308286D01*
X83116552Y-116903968D01*
X83123199Y-117391222D01*
X83131977Y-117782229D01*
X83143174Y-118089170D01*
X83157073Y-118324225D01*
X83173959Y-118499577D01*
X83194118Y-118627405D01*
X83217834Y-118719891D01*
X83245393Y-118789215D01*
X83250440Y-118799492D01*
X83303376Y-118931190D01*
X83342854Y-119103679D01*
X83371040Y-119342838D01*
X83390104Y-119674548D01*
X83402212Y-120124688D01*
X83409340Y-120696334D01*
X83420608Y-121255485D01*
X83443338Y-121801872D01*
X83475252Y-122309907D01*
X83514069Y-122754006D01*
X83557511Y-123108581D01*
X83603297Y-123348047D01*
X83649150Y-123446817D01*
X83654484Y-123448000D01*
X83691708Y-123377752D01*
X83729303Y-123257500D01*
X83761693Y-123053560D01*
X83780485Y-122775939D01*
X83782187Y-122686000D01*
X83794133Y-122448491D01*
X83824911Y-122089343D01*
X83869262Y-121654528D01*
X83921927Y-121190017D01*
X83977644Y-120741782D01*
X84031155Y-120355795D01*
X84077199Y-120078027D01*
X84084908Y-120040167D01*
X84100664Y-119871758D01*
X84027820Y-119811906D01*
X83958727Y-119807334D01*
X83812732Y-119750875D01*
X83782667Y-119638000D01*
X83839014Y-119501552D01*
X83971386Y-119475918D01*
X84124780Y-119564649D01*
X84166053Y-119613248D01*
X84242686Y-119690619D01*
X84316396Y-119661041D01*
X84425507Y-119504787D01*
X84447921Y-119468177D01*
X84624068Y-119178525D01*
X84330368Y-118936432D01*
X84154582Y-118773843D01*
X84067519Y-118618382D01*
X84043551Y-118435750D01*
X83769197Y-118435750D01*
X83746365Y-118585777D01*
X83647836Y-118756028D01*
X83491285Y-118773806D01*
X83326645Y-118661883D01*
X83244073Y-118471780D01*
X83315872Y-118233917D01*
X83382844Y-118135167D01*
X83524163Y-118034024D01*
X83652249Y-118070969D01*
X83742222Y-118215159D01*
X83769197Y-118435750D01*
X84043551Y-118435750D01*
X84038729Y-118399014D01*
X84036667Y-118251285D01*
X84064453Y-117910906D01*
X84164065Y-117649005D01*
X84248333Y-117521334D01*
X84382042Y-117308480D01*
X84455277Y-117130413D01*
X84460000Y-117094673D01*
X84536979Y-116893138D01*
X84761083Y-116759471D01*
X85122063Y-116699035D01*
X85222000Y-116696068D01*
X85500175Y-116708150D01*
X85714513Y-116743638D01*
X85790135Y-116775530D01*
X85962260Y-116816286D01*
X86275704Y-116777375D01*
X86295326Y-116773257D01*
X86542089Y-116730162D01*
X86716307Y-116717249D01*
X86758507Y-116724730D01*
X86850683Y-116703829D01*
X86869861Y-116679746D01*
X86981065Y-116631149D01*
X87038552Y-116642598D01*
X87164286Y-116611297D01*
X87259648Y-116494781D01*
X87318371Y-116337310D01*
X87266141Y-116269492D01*
X87177850Y-116168491D01*
X87169333Y-116116129D01*
X87129829Y-115941455D01*
X87087643Y-115848018D01*
X87025241Y-115678525D01*
X86947420Y-115384803D01*
X86863335Y-115010162D01*
X86782140Y-114597913D01*
X86712989Y-114191367D01*
X86668429Y-113864510D01*
X86645274Y-113591162D01*
X86657449Y-113463319D01*
X86707191Y-113460419D01*
X86711965Y-113464221D01*
X86790150Y-113458555D01*
X86849012Y-113343944D01*
X86874120Y-113180705D01*
X86851040Y-113029157D01*
X86826229Y-112986689D01*
X86820979Y-112864856D01*
X86897235Y-112771898D01*
X87064742Y-112599839D01*
X87169333Y-112468847D01*
X87370439Y-112318567D01*
X87669394Y-112236023D01*
X88042455Y-112181102D01*
X87844871Y-112341096D01*
X87696277Y-112528267D01*
X87633460Y-112805877D01*
X87629587Y-112866072D01*
X87643983Y-113185031D01*
X87725634Y-113348602D01*
X87874531Y-113356776D01*
X88015495Y-113272559D01*
X88233853Y-113113903D01*
X88486947Y-112942272D01*
X88516056Y-112923398D01*
X88787992Y-112722662D01*
X88910992Y-112553232D01*
X88895223Y-112388448D01*
X88779832Y-112231617D01*
X88558475Y-112055302D01*
X88316999Y-111939114D01*
X88058333Y-111863939D01*
X88301534Y-111856303D01*
X88462795Y-111838294D01*
X88481846Y-111781565D01*
X88437725Y-111719729D01*
X88378057Y-111627547D01*
X88454547Y-111630839D01*
X88490858Y-111641974D01*
X88600289Y-111671140D01*
X88571699Y-111629054D01*
X88502013Y-111570478D01*
X88426279Y-111491897D01*
X88454208Y-111435671D01*
X88610808Y-111376552D01*
X88727296Y-111343010D01*
X88873672Y-111277770D01*
X88123632Y-111277770D01*
X88074660Y-111479188D01*
X88020341Y-111570840D01*
X87901887Y-111720530D01*
X87807117Y-111748445D01*
X87680403Y-111683022D01*
X87605947Y-111552375D01*
X87632324Y-111370611D01*
X87735202Y-111200663D01*
X87890248Y-111105463D01*
X87904709Y-111102883D01*
X88063610Y-111138691D01*
X88123632Y-111277770D01*
X88873672Y-111277770D01*
X89009592Y-111217191D01*
X89155191Y-111047551D01*
X89150982Y-110854961D01*
X89092621Y-110761360D01*
X89040224Y-110674987D01*
X89122688Y-110677162D01*
X89159664Y-110687269D01*
X89350838Y-110731175D01*
X89614409Y-110779680D01*
X89682735Y-110790673D01*
X89950363Y-110860508D01*
X90169510Y-110964635D01*
X90205561Y-110991790D01*
X90317791Y-111106135D01*
X90301847Y-111181340D01*
X90232160Y-111234883D01*
X90143820Y-111332493D01*
X90189812Y-111400853D01*
X90271456Y-111529381D01*
X90316812Y-111713320D01*
X90268047Y-111944340D01*
X90086257Y-112120820D01*
X89803744Y-112224823D01*
X89452812Y-112238413D01*
X89386116Y-112230061D01*
X89156531Y-112200574D01*
X89055282Y-112216718D01*
X89043490Y-112297421D01*
X89063754Y-112386990D01*
X89075005Y-112564698D01*
X89032311Y-112652808D01*
X88943600Y-112755648D01*
X88992819Y-112824628D01*
X89137170Y-112815826D01*
X89265426Y-112786030D01*
X89257433Y-112836925D01*
X89220375Y-112884056D01*
X89155057Y-113055392D01*
X89166598Y-113150269D01*
X89248023Y-113261477D01*
X89336908Y-113286105D01*
X89370667Y-113221800D01*
X89436447Y-113142025D01*
X89598702Y-113133402D01*
X89804802Y-113186822D01*
X90002118Y-113293176D01*
X90059076Y-113340945D01*
X90268761Y-113490594D01*
X90430528Y-113514236D01*
X90515638Y-113417912D01*
X90506418Y-113246929D01*
X90507333Y-113059151D01*
X90559918Y-112766352D01*
X90649869Y-112419465D01*
X90762879Y-112069420D01*
X90884644Y-111767148D01*
X90964550Y-111615834D01*
X91107662Y-111471661D01*
X91236015Y-111425334D01*
X91379383Y-111386707D01*
X91416778Y-111344415D01*
X91514596Y-111305457D01*
X91737306Y-111330126D01*
X91772773Y-111337816D01*
X92075924Y-111382789D01*
X92250874Y-111339112D01*
X92320829Y-111193964D01*
X92320648Y-111035098D01*
X92332726Y-110810176D01*
X92395377Y-110653038D01*
X92399791Y-110648343D01*
X92489893Y-110452187D01*
X92484757Y-110184926D01*
X92407799Y-109959267D01*
X92256924Y-109750791D01*
X92048957Y-109557058D01*
X91840991Y-109425715D01*
X91733336Y-109396378D01*
X91582347Y-109342043D01*
X91389126Y-109212843D01*
X91361538Y-109189857D01*
X91080590Y-109012421D01*
X90779621Y-108921236D01*
X90523886Y-108935628D01*
X90514593Y-108939027D01*
X90405292Y-108935794D01*
X90386667Y-108894392D01*
X90312535Y-108819432D01*
X90107223Y-108808517D01*
X89796360Y-108861775D01*
X89684082Y-108890913D01*
X89476908Y-108964887D01*
X89402836Y-109050201D01*
X89414621Y-109144441D01*
X89418418Y-109274909D01*
X89300764Y-109308667D01*
X89140539Y-109365704D01*
X89086049Y-109435667D01*
X88972898Y-109548297D01*
X88907657Y-109562667D01*
X88793710Y-109629258D01*
X88778000Y-109689667D01*
X88709161Y-109798522D01*
X88636500Y-109816667D01*
X88410196Y-109890129D01*
X88265460Y-110076847D01*
X88240766Y-110326319D01*
X88242265Y-110334156D01*
X88251493Y-110521437D01*
X88195917Y-110578667D01*
X88111481Y-110647070D01*
X88100667Y-110705667D01*
X88029335Y-110808906D01*
X87923407Y-110832667D01*
X87754380Y-110905257D01*
X87701866Y-111002000D01*
X87616818Y-111139597D01*
X87540459Y-111171334D01*
X87436834Y-111239320D01*
X87423333Y-111298334D01*
X87352747Y-111401762D01*
X87254000Y-111425334D01*
X87111210Y-111379179D01*
X87104328Y-111264637D01*
X87232833Y-111119860D01*
X87332722Y-111033626D01*
X87290084Y-111007234D01*
X87219711Y-111004693D01*
X87110825Y-110991251D01*
X87129226Y-110927405D01*
X87199772Y-110845810D01*
X87304679Y-110623344D01*
X87350513Y-110265321D01*
X87351351Y-110235640D01*
X87378664Y-109945970D01*
X87437644Y-109729714D01*
X87477123Y-109666116D01*
X87576765Y-109490735D01*
X87592667Y-109397653D01*
X87653912Y-109216146D01*
X87719667Y-109139334D01*
X87834987Y-108998615D01*
X87805427Y-108906675D01*
X87699630Y-108885334D01*
X87652489Y-108848528D01*
X87722327Y-108730155D01*
X87916394Y-108518281D01*
X87932463Y-108502016D01*
X88317767Y-108162879D01*
X88698022Y-107918582D01*
X89040762Y-107787515D01*
X89222500Y-107771336D01*
X89391079Y-107760341D01*
X89455333Y-107714935D01*
X89527575Y-107626430D01*
X89701345Y-107533247D01*
X89912212Y-107464339D01*
X90053799Y-107446000D01*
X90216799Y-107371933D01*
X90319295Y-107230186D01*
X90403318Y-107093081D01*
X90469534Y-107109352D01*
X90481170Y-107127918D01*
X90551075Y-107185425D01*
X90697488Y-107203193D01*
X90956373Y-107183030D01*
X91130283Y-107160529D01*
X91715852Y-107079594D01*
X92257759Y-107403305D01*
X92707221Y-107711605D01*
X93168939Y-108096880D01*
X93604814Y-108521423D01*
X93976750Y-108947524D01*
X94246650Y-109337476D01*
X94287232Y-109412086D01*
X94386603Y-109613775D01*
X94455023Y-109788407D01*
X94498125Y-109974043D01*
X94521545Y-110208743D01*
X94530915Y-110530567D01*
X94531869Y-110977576D01*
X94531617Y-111063086D01*
X94522449Y-111630072D01*
X94497483Y-112054661D01*
X94454343Y-112363254D01*
X94396204Y-112568334D01*
X94305546Y-112838342D01*
X94207032Y-113187090D01*
X94141399Y-113455270D01*
X94045829Y-113786605D01*
X93923206Y-114088067D01*
X93823694Y-114259603D01*
X93490956Y-114792673D01*
X93324437Y-115297808D01*
X93314391Y-115366091D01*
X93216405Y-115673668D01*
X93058645Y-115907471D01*
X92916831Y-116069414D01*
X92844410Y-116179342D01*
X92842000Y-116190292D01*
X92910035Y-116261381D01*
X93077679Y-116363724D01*
X93117167Y-116383968D01*
X93368651Y-116548253D01*
X93597261Y-116756550D01*
X93604000Y-116764208D01*
X93739011Y-116892747D01*
X93911992Y-116993332D01*
X94158827Y-117079685D01*
X94515403Y-117165529D01*
X94808157Y-117224676D01*
X95041302Y-117317345D01*
X95189157Y-117428052D01*
X95364716Y-117539699D01*
X95623928Y-117628965D01*
X95720667Y-117648706D01*
X96014415Y-117714932D01*
X96277690Y-117803694D01*
X96334500Y-117829853D01*
X96567333Y-117949015D01*
X96567333Y-106684000D01*
X83105333Y-106684000D01*
X83105333Y-112597659D01*
X83105333Y-112597659D01*
G37*
X83105333Y-112597659D02*
X83105592Y-113748862D01*
X83106559Y-114742914D01*
X83108517Y-115591995D01*
X83111754Y-116308286D01*
X83116552Y-116903968D01*
X83123199Y-117391222D01*
X83131977Y-117782229D01*
X83143174Y-118089170D01*
X83157073Y-118324225D01*
X83173959Y-118499577D01*
X83194118Y-118627405D01*
X83217834Y-118719891D01*
X83245393Y-118789215D01*
X83250440Y-118799492D01*
X83303376Y-118931190D01*
X83342854Y-119103679D01*
X83371040Y-119342838D01*
X83390104Y-119674548D01*
X83402212Y-120124688D01*
X83409340Y-120696334D01*
X83420608Y-121255485D01*
X83443338Y-121801872D01*
X83475252Y-122309907D01*
X83514069Y-122754006D01*
X83557511Y-123108581D01*
X83603297Y-123348047D01*
X83649150Y-123446817D01*
X83654484Y-123448000D01*
X83691708Y-123377752D01*
X83729303Y-123257500D01*
X83761693Y-123053560D01*
X83780485Y-122775939D01*
X83782187Y-122686000D01*
X83794133Y-122448491D01*
X83824911Y-122089343D01*
X83869262Y-121654528D01*
X83921927Y-121190017D01*
X83977644Y-120741782D01*
X84031155Y-120355795D01*
X84077199Y-120078027D01*
X84084908Y-120040167D01*
X84100664Y-119871758D01*
X84027820Y-119811906D01*
X83958727Y-119807334D01*
X83812732Y-119750875D01*
X83782667Y-119638000D01*
X83839014Y-119501552D01*
X83971386Y-119475918D01*
X84124780Y-119564649D01*
X84166053Y-119613248D01*
X84242686Y-119690619D01*
X84316396Y-119661041D01*
X84425507Y-119504787D01*
X84447921Y-119468177D01*
X84624068Y-119178525D01*
X84330368Y-118936432D01*
X84154582Y-118773843D01*
X84067519Y-118618382D01*
X84043551Y-118435750D01*
X83769197Y-118435750D01*
X83746365Y-118585777D01*
X83647836Y-118756028D01*
X83491285Y-118773806D01*
X83326645Y-118661883D01*
X83244073Y-118471780D01*
X83315872Y-118233917D01*
X83382844Y-118135167D01*
X83524163Y-118034024D01*
X83652249Y-118070969D01*
X83742222Y-118215159D01*
X83769197Y-118435750D01*
X84043551Y-118435750D01*
X84038729Y-118399014D01*
X84036667Y-118251285D01*
X84064453Y-117910906D01*
X84164065Y-117649005D01*
X84248333Y-117521334D01*
X84382042Y-117308480D01*
X84455277Y-117130413D01*
X84460000Y-117094673D01*
X84536979Y-116893138D01*
X84761083Y-116759471D01*
X85122063Y-116699035D01*
X85222000Y-116696068D01*
X85500175Y-116708150D01*
X85714513Y-116743638D01*
X85790135Y-116775530D01*
X85962260Y-116816286D01*
X86275704Y-116777375D01*
X86295326Y-116773257D01*
X86542089Y-116730162D01*
X86716307Y-116717249D01*
X86758507Y-116724730D01*
X86850683Y-116703829D01*
X86869861Y-116679746D01*
X86981065Y-116631149D01*
X87038552Y-116642598D01*
X87164286Y-116611297D01*
X87259648Y-116494781D01*
X87318371Y-116337310D01*
X87266141Y-116269492D01*
X87177850Y-116168491D01*
X87169333Y-116116129D01*
X87129829Y-115941455D01*
X87087643Y-115848018D01*
X87025241Y-115678525D01*
X86947420Y-115384803D01*
X86863335Y-115010162D01*
X86782140Y-114597913D01*
X86712989Y-114191367D01*
X86668429Y-113864510D01*
X86645274Y-113591162D01*
X86657449Y-113463319D01*
X86707191Y-113460419D01*
X86711965Y-113464221D01*
X86790150Y-113458555D01*
X86849012Y-113343944D01*
X86874120Y-113180705D01*
X86851040Y-113029157D01*
X86826229Y-112986689D01*
X86820979Y-112864856D01*
X86897235Y-112771898D01*
X87064742Y-112599839D01*
X87169333Y-112468847D01*
X87370439Y-112318567D01*
X87669394Y-112236023D01*
X88042455Y-112181102D01*
X87844871Y-112341096D01*
X87696277Y-112528267D01*
X87633460Y-112805877D01*
X87629587Y-112866072D01*
X87643983Y-113185031D01*
X87725634Y-113348602D01*
X87874531Y-113356776D01*
X88015495Y-113272559D01*
X88233853Y-113113903D01*
X88486947Y-112942272D01*
X88516056Y-112923398D01*
X88787992Y-112722662D01*
X88910992Y-112553232D01*
X88895223Y-112388448D01*
X88779832Y-112231617D01*
X88558475Y-112055302D01*
X88316999Y-111939114D01*
X88058333Y-111863939D01*
X88301534Y-111856303D01*
X88462795Y-111838294D01*
X88481846Y-111781565D01*
X88437725Y-111719729D01*
X88378057Y-111627547D01*
X88454547Y-111630839D01*
X88490858Y-111641974D01*
X88600289Y-111671140D01*
X88571699Y-111629054D01*
X88502013Y-111570478D01*
X88426279Y-111491897D01*
X88454208Y-111435671D01*
X88610808Y-111376552D01*
X88727296Y-111343010D01*
X88873672Y-111277770D01*
X88123632Y-111277770D01*
X88074660Y-111479188D01*
X88020341Y-111570840D01*
X87901887Y-111720530D01*
X87807117Y-111748445D01*
X87680403Y-111683022D01*
X87605947Y-111552375D01*
X87632324Y-111370611D01*
X87735202Y-111200663D01*
X87890248Y-111105463D01*
X87904709Y-111102883D01*
X88063610Y-111138691D01*
X88123632Y-111277770D01*
X88873672Y-111277770D01*
X89009592Y-111217191D01*
X89155191Y-111047551D01*
X89150982Y-110854961D01*
X89092621Y-110761360D01*
X89040224Y-110674987D01*
X89122688Y-110677162D01*
X89159664Y-110687269D01*
X89350838Y-110731175D01*
X89614409Y-110779680D01*
X89682735Y-110790673D01*
X89950363Y-110860508D01*
X90169510Y-110964635D01*
X90205561Y-110991790D01*
X90317791Y-111106135D01*
X90301847Y-111181340D01*
X90232160Y-111234883D01*
X90143820Y-111332493D01*
X90189812Y-111400853D01*
X90271456Y-111529381D01*
X90316812Y-111713320D01*
X90268047Y-111944340D01*
X90086257Y-112120820D01*
X89803744Y-112224823D01*
X89452812Y-112238413D01*
X89386116Y-112230061D01*
X89156531Y-112200574D01*
X89055282Y-112216718D01*
X89043490Y-112297421D01*
X89063754Y-112386990D01*
X89075005Y-112564698D01*
X89032311Y-112652808D01*
X88943600Y-112755648D01*
X88992819Y-112824628D01*
X89137170Y-112815826D01*
X89265426Y-112786030D01*
X89257433Y-112836925D01*
X89220375Y-112884056D01*
X89155057Y-113055392D01*
X89166598Y-113150269D01*
X89248023Y-113261477D01*
X89336908Y-113286105D01*
X89370667Y-113221800D01*
X89436447Y-113142025D01*
X89598702Y-113133402D01*
X89804802Y-113186822D01*
X90002118Y-113293176D01*
X90059076Y-113340945D01*
X90268761Y-113490594D01*
X90430528Y-113514236D01*
X90515638Y-113417912D01*
X90506418Y-113246929D01*
X90507333Y-113059151D01*
X90559918Y-112766352D01*
X90649869Y-112419465D01*
X90762879Y-112069420D01*
X90884644Y-111767148D01*
X90964550Y-111615834D01*
X91107662Y-111471661D01*
X91236015Y-111425334D01*
X91379383Y-111386707D01*
X91416778Y-111344415D01*
X91514596Y-111305457D01*
X91737306Y-111330126D01*
X91772773Y-111337816D01*
X92075924Y-111382789D01*
X92250874Y-111339112D01*
X92320829Y-111193964D01*
X92320648Y-111035098D01*
X92332726Y-110810176D01*
X92395377Y-110653038D01*
X92399791Y-110648343D01*
X92489893Y-110452187D01*
X92484757Y-110184926D01*
X92407799Y-109959267D01*
X92256924Y-109750791D01*
X92048957Y-109557058D01*
X91840991Y-109425715D01*
X91733336Y-109396378D01*
X91582347Y-109342043D01*
X91389126Y-109212843D01*
X91361538Y-109189857D01*
X91080590Y-109012421D01*
X90779621Y-108921236D01*
X90523886Y-108935628D01*
X90514593Y-108939027D01*
X90405292Y-108935794D01*
X90386667Y-108894392D01*
X90312535Y-108819432D01*
X90107223Y-108808517D01*
X89796360Y-108861775D01*
X89684082Y-108890913D01*
X89476908Y-108964887D01*
X89402836Y-109050201D01*
X89414621Y-109144441D01*
X89418418Y-109274909D01*
X89300764Y-109308667D01*
X89140539Y-109365704D01*
X89086049Y-109435667D01*
X88972898Y-109548297D01*
X88907657Y-109562667D01*
X88793710Y-109629258D01*
X88778000Y-109689667D01*
X88709161Y-109798522D01*
X88636500Y-109816667D01*
X88410196Y-109890129D01*
X88265460Y-110076847D01*
X88240766Y-110326319D01*
X88242265Y-110334156D01*
X88251493Y-110521437D01*
X88195917Y-110578667D01*
X88111481Y-110647070D01*
X88100667Y-110705667D01*
X88029335Y-110808906D01*
X87923407Y-110832667D01*
X87754380Y-110905257D01*
X87701866Y-111002000D01*
X87616818Y-111139597D01*
X87540459Y-111171334D01*
X87436834Y-111239320D01*
X87423333Y-111298334D01*
X87352747Y-111401762D01*
X87254000Y-111425334D01*
X87111210Y-111379179D01*
X87104328Y-111264637D01*
X87232833Y-111119860D01*
X87332722Y-111033626D01*
X87290084Y-111007234D01*
X87219711Y-111004693D01*
X87110825Y-110991251D01*
X87129226Y-110927405D01*
X87199772Y-110845810D01*
X87304679Y-110623344D01*
X87350513Y-110265321D01*
X87351351Y-110235640D01*
X87378664Y-109945970D01*
X87437644Y-109729714D01*
X87477123Y-109666116D01*
X87576765Y-109490735D01*
X87592667Y-109397653D01*
X87653912Y-109216146D01*
X87719667Y-109139334D01*
X87834987Y-108998615D01*
X87805427Y-108906675D01*
X87699630Y-108885334D01*
X87652489Y-108848528D01*
X87722327Y-108730155D01*
X87916394Y-108518281D01*
X87932463Y-108502016D01*
X88317767Y-108162879D01*
X88698022Y-107918582D01*
X89040762Y-107787515D01*
X89222500Y-107771336D01*
X89391079Y-107760341D01*
X89455333Y-107714935D01*
X89527575Y-107626430D01*
X89701345Y-107533247D01*
X89912212Y-107464339D01*
X90053799Y-107446000D01*
X90216799Y-107371933D01*
X90319295Y-107230186D01*
X90403318Y-107093081D01*
X90469534Y-107109352D01*
X90481170Y-107127918D01*
X90551075Y-107185425D01*
X90697488Y-107203193D01*
X90956373Y-107183030D01*
X91130283Y-107160529D01*
X91715852Y-107079594D01*
X92257759Y-107403305D01*
X92707221Y-107711605D01*
X93168939Y-108096880D01*
X93604814Y-108521423D01*
X93976750Y-108947524D01*
X94246650Y-109337476D01*
X94287232Y-109412086D01*
X94386603Y-109613775D01*
X94455023Y-109788407D01*
X94498125Y-109974043D01*
X94521545Y-110208743D01*
X94530915Y-110530567D01*
X94531869Y-110977576D01*
X94531617Y-111063086D01*
X94522449Y-111630072D01*
X94497483Y-112054661D01*
X94454343Y-112363254D01*
X94396204Y-112568334D01*
X94305546Y-112838342D01*
X94207032Y-113187090D01*
X94141399Y-113455270D01*
X94045829Y-113786605D01*
X93923206Y-114088067D01*
X93823694Y-114259603D01*
X93490956Y-114792673D01*
X93324437Y-115297808D01*
X93314391Y-115366091D01*
X93216405Y-115673668D01*
X93058645Y-115907471D01*
X92916831Y-116069414D01*
X92844410Y-116179342D01*
X92842000Y-116190292D01*
X92910035Y-116261381D01*
X93077679Y-116363724D01*
X93117167Y-116383968D01*
X93368651Y-116548253D01*
X93597261Y-116756550D01*
X93604000Y-116764208D01*
X93739011Y-116892747D01*
X93911992Y-116993332D01*
X94158827Y-117079685D01*
X94515403Y-117165529D01*
X94808157Y-117224676D01*
X95041302Y-117317345D01*
X95189157Y-117428052D01*
X95364716Y-117539699D01*
X95623928Y-117628965D01*
X95720667Y-117648706D01*
X96014415Y-117714932D01*
X96277690Y-117803694D01*
X96334500Y-117829853D01*
X96567333Y-117949015D01*
X96567333Y-106684000D01*
X83105333Y-106684000D01*
X83105333Y-112597659D01*
G36*
X83107563Y-125272375D02*
G01*
X83141224Y-125365294D01*
X83228022Y-125424297D01*
X83313931Y-125420539D01*
X83303630Y-125348688D01*
X83220270Y-125239357D01*
X83180942Y-125226000D01*
X83107563Y-125272375D01*
X83107563Y-125272375D01*
G37*
X83107563Y-125272375D02*
X83141224Y-125365294D01*
X83228022Y-125424297D01*
X83313931Y-125420539D01*
X83303630Y-125348688D01*
X83220270Y-125239357D01*
X83180942Y-125226000D01*
X83107563Y-125272375D01*
G36*
X83444000Y-125607000D02*
G01*
X83486333Y-125649334D01*
X83528667Y-125607000D01*
X83486333Y-125564667D01*
X83444000Y-125607000D01*
X83444000Y-125607000D01*
G37*
X83444000Y-125607000D02*
X83486333Y-125649334D01*
X83528667Y-125607000D01*
X83486333Y-125564667D01*
X83444000Y-125607000D01*
G36*
X83782667Y-125945667D02*
G01*
X83825000Y-125988000D01*
X83867333Y-125945667D01*
X83825000Y-125903334D01*
X83782667Y-125945667D01*
X83782667Y-125945667D01*
G37*
X83782667Y-125945667D02*
X83825000Y-125988000D01*
X83867333Y-125945667D01*
X83825000Y-125903334D01*
X83782667Y-125945667D01*
G36*
X96412500Y-121106545D02*
G01*
X96237346Y-121195571D01*
X95999834Y-121240378D01*
X95768194Y-121236702D01*
X95610655Y-121180277D01*
X95591126Y-121157889D01*
X95501347Y-121094012D01*
X95419548Y-121167407D01*
X95361647Y-121346200D01*
X95343559Y-121598517D01*
X95345759Y-121649275D01*
X95341565Y-121977058D01*
X95299099Y-122322981D01*
X95228844Y-122637495D01*
X95141279Y-122871054D01*
X95067360Y-122965374D01*
X94973809Y-123090753D01*
X94967700Y-123243870D01*
X95043163Y-123350378D01*
X95098789Y-123363334D01*
X95187404Y-123377339D01*
X95160495Y-123446135D01*
X95086708Y-123531516D01*
X95014062Y-123641517D01*
X94968238Y-123801572D01*
X94943784Y-124048051D01*
X94935254Y-124417323D01*
X94934975Y-124544283D01*
X94947644Y-125041160D01*
X94993037Y-125423197D01*
X95083184Y-125743621D01*
X95230118Y-126055655D01*
X95306700Y-126188726D01*
X95451860Y-126431785D01*
X95755597Y-126128048D01*
X95931122Y-125930189D01*
X96040823Y-125763551D01*
X96059333Y-125703668D01*
X96131299Y-125593385D01*
X96260883Y-125532438D01*
X96377917Y-125484079D01*
X96460981Y-125390169D01*
X96515709Y-125225135D01*
X96547734Y-124963404D01*
X96562689Y-124579403D01*
X96566177Y-124146500D01*
X96567333Y-123194000D01*
X96355667Y-123194000D01*
X96187211Y-123142819D01*
X96148731Y-123001576D01*
X96240206Y-122788722D01*
X96356287Y-122635669D01*
X96568574Y-122389667D01*
X96186954Y-122317008D01*
X95960441Y-122259690D01*
X95823678Y-122197705D01*
X95805333Y-122172139D01*
X95867562Y-122059784D01*
X96026092Y-121891668D01*
X96238686Y-121709403D01*
X96376833Y-121609077D01*
X96537524Y-121408032D01*
X96567333Y-121223807D01*
X96559132Y-121052341D01*
X96513190Y-121025870D01*
X96412500Y-121106545D01*
X96412500Y-121106545D01*
G37*
X96412500Y-121106545D02*
X96237346Y-121195571D01*
X95999834Y-121240378D01*
X95768194Y-121236702D01*
X95610655Y-121180277D01*
X95591126Y-121157889D01*
X95501347Y-121094012D01*
X95419548Y-121167407D01*
X95361647Y-121346200D01*
X95343559Y-121598517D01*
X95345759Y-121649275D01*
X95341565Y-121977058D01*
X95299099Y-122322981D01*
X95228844Y-122637495D01*
X95141279Y-122871054D01*
X95067360Y-122965374D01*
X94973809Y-123090753D01*
X94967700Y-123243870D01*
X95043163Y-123350378D01*
X95098789Y-123363334D01*
X95187404Y-123377339D01*
X95160495Y-123446135D01*
X95086708Y-123531516D01*
X95014062Y-123641517D01*
X94968238Y-123801572D01*
X94943784Y-124048051D01*
X94935254Y-124417323D01*
X94934975Y-124544283D01*
X94947644Y-125041160D01*
X94993037Y-125423197D01*
X95083184Y-125743621D01*
X95230118Y-126055655D01*
X95306700Y-126188726D01*
X95451860Y-126431785D01*
X95755597Y-126128048D01*
X95931122Y-125930189D01*
X96040823Y-125763551D01*
X96059333Y-125703668D01*
X96131299Y-125593385D01*
X96260883Y-125532438D01*
X96377917Y-125484079D01*
X96460981Y-125390169D01*
X96515709Y-125225135D01*
X96547734Y-124963404D01*
X96562689Y-124579403D01*
X96566177Y-124146500D01*
X96567333Y-123194000D01*
X96355667Y-123194000D01*
X96187211Y-123142819D01*
X96148731Y-123001576D01*
X96240206Y-122788722D01*
X96356287Y-122635669D01*
X96568574Y-122389667D01*
X96186954Y-122317008D01*
X95960441Y-122259690D01*
X95823678Y-122197705D01*
X95805333Y-122172139D01*
X95867562Y-122059784D01*
X96026092Y-121891668D01*
X96238686Y-121709403D01*
X96376833Y-121609077D01*
X96537524Y-121408032D01*
X96567333Y-121223807D01*
X96559132Y-121052341D01*
X96513190Y-121025870D01*
X96412500Y-121106545D01*
G36*
X83120154Y-126190222D02*
G01*
X83105505Y-126374186D01*
X83105333Y-126423074D01*
X83119901Y-126661090D01*
X83160581Y-126743768D01*
X83222842Y-126665423D01*
X83247860Y-126601834D01*
X83348084Y-126411051D01*
X83418108Y-126316053D01*
X83483149Y-126211647D01*
X83415245Y-126158682D01*
X83320572Y-126137294D01*
X83181204Y-126125383D01*
X83120154Y-126190222D01*
X83120154Y-126190222D01*
G37*
X83120154Y-126190222D02*
X83105505Y-126374186D01*
X83105333Y-126423074D01*
X83119901Y-126661090D01*
X83160581Y-126743768D01*
X83222842Y-126665423D01*
X83247860Y-126601834D01*
X83348084Y-126411051D01*
X83418108Y-126316053D01*
X83483149Y-126211647D01*
X83415245Y-126158682D01*
X83320572Y-126137294D01*
X83181204Y-126125383D01*
X83120154Y-126190222D01*
G36*
X86862867Y-122948068D02*
G01*
X86650103Y-122973188D01*
X86495383Y-123037804D01*
X86343125Y-123158407D01*
X86281969Y-123215167D01*
X86108330Y-123401886D01*
X86009641Y-123591481D01*
X85955744Y-123852907D01*
X85939445Y-123998334D01*
X85916969Y-124286899D01*
X85934326Y-124473324D01*
X86011248Y-124623603D01*
X86167466Y-124803731D01*
X86186250Y-124823834D01*
X86358743Y-124996591D01*
X86506770Y-125091686D01*
X86691778Y-125132212D01*
X86975215Y-125141263D01*
X87031065Y-125141334D01*
X87578763Y-125141334D01*
X87574610Y-125603496D01*
X87570457Y-126065659D01*
X87264062Y-125939404D01*
X87040694Y-125826950D01*
X86883066Y-125711682D01*
X86866498Y-125692781D01*
X86786012Y-125625350D01*
X86658993Y-125619785D01*
X86433156Y-125675515D01*
X86392596Y-125687598D01*
X86031212Y-125842665D01*
X85749871Y-126053159D01*
X85582932Y-126289092D01*
X85552227Y-126421042D01*
X85543788Y-126623000D01*
X85486392Y-126417611D01*
X85352608Y-126214556D01*
X85125082Y-126112072D01*
X84856511Y-126125704D01*
X84709984Y-126188571D01*
X84489245Y-126287855D01*
X84304476Y-126326667D01*
X84139044Y-126399242D01*
X84079000Y-126496000D01*
X84010713Y-126632593D01*
X83964549Y-126665334D01*
X83885228Y-126730891D01*
X83770610Y-126891497D01*
X83753802Y-126919334D01*
X83593450Y-127110292D01*
X83387966Y-127172606D01*
X83354547Y-127173334D01*
X83178285Y-127198291D01*
X83105333Y-127258000D01*
X83188379Y-127288747D01*
X83431249Y-127313018D01*
X83824538Y-127330361D01*
X84358845Y-127340318D01*
X84855500Y-127342667D01*
X85459062Y-127340927D01*
X85915754Y-127334648D01*
X86248013Y-127322239D01*
X86478277Y-127302108D01*
X86628983Y-127272665D01*
X86722570Y-127232320D01*
X86754433Y-127208036D01*
X86896335Y-127138569D01*
X87060136Y-127126634D01*
X87186697Y-127164920D01*
X87216876Y-127246116D01*
X87207899Y-127264096D01*
X87255381Y-127308333D01*
X87434461Y-127336458D01*
X87612849Y-127342667D01*
X88066359Y-127342667D01*
X88032832Y-126771167D01*
X88000013Y-126428305D01*
X87943012Y-126212618D01*
X87850032Y-126082403D01*
X87834285Y-126069260D01*
X87739814Y-125983171D01*
X87723367Y-125897838D01*
X87791727Y-125761562D01*
X87895036Y-125606161D01*
X88000608Y-125432182D01*
X88071354Y-125252909D01*
X88117133Y-125024121D01*
X88147807Y-124701595D01*
X88165804Y-124391812D01*
X88189837Y-123990535D01*
X88217328Y-123727870D01*
X88254983Y-123573127D01*
X88269933Y-123551874D01*
X87717183Y-123551874D01*
X87713025Y-123768572D01*
X87697202Y-124057434D01*
X87658167Y-124624534D01*
X87307917Y-124650123D01*
X87071228Y-124653477D01*
X86908369Y-124630591D01*
X86883850Y-124618806D01*
X86745648Y-124591532D01*
X86706915Y-124601470D01*
X86571979Y-124584276D01*
X86492141Y-124407731D01*
X86467290Y-124071482D01*
X86473979Y-123868644D01*
X86504813Y-123315621D01*
X87092899Y-123369525D01*
X87388405Y-123400714D01*
X87608491Y-123431673D01*
X87707630Y-123455941D01*
X87708611Y-123456881D01*
X87717183Y-123551874D01*
X88269933Y-123551874D01*
X88309508Y-123495616D01*
X88367401Y-123469202D01*
X88497982Y-123385495D01*
X88524000Y-123318050D01*
X88553309Y-123141387D01*
X88573964Y-123077647D01*
X88581790Y-122993544D01*
X88484220Y-122990300D01*
X88383464Y-123016087D01*
X88148481Y-123045007D01*
X87973667Y-123018316D01*
X87806762Y-122984402D01*
X87529493Y-122958508D01*
X87200812Y-122946074D01*
X87189257Y-122945951D01*
X86862867Y-122948068D01*
X86862867Y-122948068D01*
G37*
X86862867Y-122948068D02*
X86650103Y-122973188D01*
X86495383Y-123037804D01*
X86343125Y-123158407D01*
X86281969Y-123215167D01*
X86108330Y-123401886D01*
X86009641Y-123591481D01*
X85955744Y-123852907D01*
X85939445Y-123998334D01*
X85916969Y-124286899D01*
X85934326Y-124473324D01*
X86011248Y-124623603D01*
X86167466Y-124803731D01*
X86186250Y-124823834D01*
X86358743Y-124996591D01*
X86506770Y-125091686D01*
X86691778Y-125132212D01*
X86975215Y-125141263D01*
X87031065Y-125141334D01*
X87578763Y-125141334D01*
X87574610Y-125603496D01*
X87570457Y-126065659D01*
X87264062Y-125939404D01*
X87040694Y-125826950D01*
X86883066Y-125711682D01*
X86866498Y-125692781D01*
X86786012Y-125625350D01*
X86658993Y-125619785D01*
X86433156Y-125675515D01*
X86392596Y-125687598D01*
X86031212Y-125842665D01*
X85749871Y-126053159D01*
X85582932Y-126289092D01*
X85552227Y-126421042D01*
X85543788Y-126623000D01*
X85486392Y-126417611D01*
X85352608Y-126214556D01*
X85125082Y-126112072D01*
X84856511Y-126125704D01*
X84709984Y-126188571D01*
X84489245Y-126287855D01*
X84304476Y-126326667D01*
X84139044Y-126399242D01*
X84079000Y-126496000D01*
X84010713Y-126632593D01*
X83964549Y-126665334D01*
X83885228Y-126730891D01*
X83770610Y-126891497D01*
X83753802Y-126919334D01*
X83593450Y-127110292D01*
X83387966Y-127172606D01*
X83354547Y-127173334D01*
X83178285Y-127198291D01*
X83105333Y-127258000D01*
X83188379Y-127288747D01*
X83431249Y-127313018D01*
X83824538Y-127330361D01*
X84358845Y-127340318D01*
X84855500Y-127342667D01*
X85459062Y-127340927D01*
X85915754Y-127334648D01*
X86248013Y-127322239D01*
X86478277Y-127302108D01*
X86628983Y-127272665D01*
X86722570Y-127232320D01*
X86754433Y-127208036D01*
X86896335Y-127138569D01*
X87060136Y-127126634D01*
X87186697Y-127164920D01*
X87216876Y-127246116D01*
X87207899Y-127264096D01*
X87255381Y-127308333D01*
X87434461Y-127336458D01*
X87612849Y-127342667D01*
X88066359Y-127342667D01*
X88032832Y-126771167D01*
X88000013Y-126428305D01*
X87943012Y-126212618D01*
X87850032Y-126082403D01*
X87834285Y-126069260D01*
X87739814Y-125983171D01*
X87723367Y-125897838D01*
X87791727Y-125761562D01*
X87895036Y-125606161D01*
X88000608Y-125432182D01*
X88071354Y-125252909D01*
X88117133Y-125024121D01*
X88147807Y-124701595D01*
X88165804Y-124391812D01*
X88189837Y-123990535D01*
X88217328Y-123727870D01*
X88254983Y-123573127D01*
X88269933Y-123551874D01*
X87717183Y-123551874D01*
X87713025Y-123768572D01*
X87697202Y-124057434D01*
X87658167Y-124624534D01*
X87307917Y-124650123D01*
X87071228Y-124653477D01*
X86908369Y-124630591D01*
X86883850Y-124618806D01*
X86745648Y-124591532D01*
X86706915Y-124601470D01*
X86571979Y-124584276D01*
X86492141Y-124407731D01*
X86467290Y-124071482D01*
X86473979Y-123868644D01*
X86504813Y-123315621D01*
X87092899Y-123369525D01*
X87388405Y-123400714D01*
X87608491Y-123431673D01*
X87707630Y-123455941D01*
X87708611Y-123456881D01*
X87717183Y-123551874D01*
X88269933Y-123551874D01*
X88309508Y-123495616D01*
X88367401Y-123469202D01*
X88497982Y-123385495D01*
X88524000Y-123318050D01*
X88553309Y-123141387D01*
X88573964Y-123077647D01*
X88581790Y-122993544D01*
X88484220Y-122990300D01*
X88383464Y-123016087D01*
X88148481Y-123045007D01*
X87973667Y-123018316D01*
X87806762Y-122984402D01*
X87529493Y-122958508D01*
X87200812Y-122946074D01*
X87189257Y-122945951D01*
X86862867Y-122948068D01*
G36*
X92505903Y-120315334D02*
G01*
X92472519Y-120446643D01*
X92445109Y-120708584D01*
X92426609Y-121062484D01*
X92419963Y-121447042D01*
X92418141Y-121871907D01*
X92410641Y-122154425D01*
X92392460Y-122321581D01*
X92358593Y-122400359D01*
X92304037Y-122417745D01*
X92242208Y-122405605D01*
X92073277Y-122409495D01*
X91840727Y-122468596D01*
X91600327Y-122561061D01*
X91407843Y-122665043D01*
X91319044Y-122758695D01*
X91318000Y-122767658D01*
X91390437Y-122833559D01*
X91529667Y-122855334D01*
X91653069Y-122868271D01*
X91716177Y-122935314D01*
X91739265Y-123098803D01*
X91742490Y-123299834D01*
X91751604Y-123589431D01*
X91773526Y-123830402D01*
X91788831Y-123913667D01*
X91799100Y-124002225D01*
X91748731Y-124054294D01*
X91604381Y-124080820D01*
X91332708Y-124092751D01*
X91237137Y-124094813D01*
X90640257Y-124106625D01*
X90651645Y-123602844D01*
X90682678Y-123251677D01*
X90752903Y-123022177D01*
X90787074Y-122975022D01*
X90866499Y-122814644D01*
X90859057Y-122715323D01*
X90781179Y-122628343D01*
X90613907Y-122615438D01*
X90491000Y-122631901D01*
X90225984Y-122667563D01*
X90001478Y-122684809D01*
X89984500Y-122685068D01*
X89831273Y-122733661D01*
X89794000Y-122865917D01*
X89816705Y-122986403D01*
X89917648Y-123014682D01*
X90056932Y-122993247D01*
X90233658Y-122971036D01*
X90283901Y-123013885D01*
X90268598Y-123074255D01*
X90249769Y-123204904D01*
X90234050Y-123469394D01*
X90222847Y-123832241D01*
X90217564Y-124257959D01*
X90217333Y-124368767D01*
X90217333Y-125529684D01*
X89880520Y-125619585D01*
X89660559Y-125665971D01*
X89518654Y-125673031D01*
X89499520Y-125665298D01*
X89454779Y-125512211D01*
X89515719Y-125293647D01*
X89624667Y-125118230D01*
X89710960Y-124978181D01*
X89762711Y-124798708D01*
X89787770Y-124535865D01*
X89794000Y-124170157D01*
X89790376Y-123815385D01*
X89775187Y-123598670D01*
X89741962Y-123488812D01*
X89684228Y-123454609D01*
X89645833Y-123455912D01*
X89463087Y-123438139D01*
X89251046Y-123373421D01*
X89027056Y-123317729D01*
X88916613Y-123360187D01*
X88885075Y-123434917D01*
X88951567Y-123449297D01*
X89031210Y-123463159D01*
X88960288Y-123522752D01*
X88953529Y-123527046D01*
X88895039Y-123617751D01*
X88846578Y-123820573D01*
X88805119Y-124154053D01*
X88767639Y-124636732D01*
X88764509Y-124685723D01*
X88729804Y-125161890D01*
X88693144Y-125492690D01*
X88650414Y-125702076D01*
X88597497Y-125814000D01*
X88566032Y-125840843D01*
X88478983Y-125942889D01*
X88533538Y-126034495D01*
X88698330Y-126072667D01*
X88833088Y-126114103D01*
X88862667Y-126169166D01*
X88924048Y-126294879D01*
X88997442Y-126364216D01*
X89098997Y-126538482D01*
X89144453Y-126870631D01*
X89145608Y-126902624D01*
X89159000Y-127342483D01*
X91404668Y-127342667D01*
X91354390Y-126982834D01*
X91309278Y-126678877D01*
X91252575Y-126320943D01*
X91226389Y-126162950D01*
X91176987Y-125798631D01*
X91142796Y-125414783D01*
X91135981Y-125273950D01*
X91124098Y-125058327D01*
X91106325Y-125010022D01*
X91087133Y-125099000D01*
X91038044Y-125305835D01*
X90976407Y-125429845D01*
X90861125Y-125463453D01*
X90749074Y-125366308D01*
X90666966Y-125175352D01*
X90640667Y-124965470D01*
X90653397Y-124751597D01*
X90724415Y-124647871D01*
X90902961Y-124595348D01*
X90958167Y-124585405D01*
X91191846Y-124518599D01*
X91355936Y-124426198D01*
X91371487Y-124409747D01*
X91456928Y-124334189D01*
X91512709Y-124408199D01*
X91516996Y-124419178D01*
X91623690Y-124533261D01*
X91685760Y-124548667D01*
X91782867Y-124622388D01*
X91855255Y-124801367D01*
X91857750Y-124813250D01*
X91908302Y-125183350D01*
X91882970Y-125406358D01*
X91783667Y-125480000D01*
X91684132Y-125492224D01*
X91668544Y-125558482D01*
X91732662Y-125723157D01*
X91755600Y-125773835D01*
X91854534Y-125990970D01*
X92009042Y-125756652D01*
X92118333Y-125502840D01*
X92164109Y-125221713D01*
X92192920Y-124954932D01*
X92265309Y-124714027D01*
X92361679Y-124545643D01*
X92462435Y-124496424D01*
X92468056Y-124498228D01*
X92560376Y-124467617D01*
X92570350Y-124434761D01*
X92598140Y-124301052D01*
X92657163Y-124069342D01*
X92697387Y-123922631D01*
X92779193Y-123527658D01*
X92766437Y-123265266D01*
X92659846Y-123138854D01*
X92528703Y-123133299D01*
X92322757Y-123172668D01*
X92540045Y-122945868D01*
X92668389Y-122765900D01*
X92746377Y-122571705D01*
X92760727Y-122414987D01*
X92698152Y-122347449D01*
X92693833Y-122347334D01*
X92661542Y-122304875D01*
X92636881Y-122166130D01*
X92618755Y-121914045D01*
X92606071Y-121531565D01*
X92597733Y-121001638D01*
X92596018Y-120823334D01*
X92586094Y-120494534D01*
X92562014Y-120322826D01*
X92521682Y-120296402D01*
X92505903Y-120315334D01*
X92505903Y-120315334D01*
G37*
X92505903Y-120315334D02*
X92472519Y-120446643D01*
X92445109Y-120708584D01*
X92426609Y-121062484D01*
X92419963Y-121447042D01*
X92418141Y-121871907D01*
X92410641Y-122154425D01*
X92392460Y-122321581D01*
X92358593Y-122400359D01*
X92304037Y-122417745D01*
X92242208Y-122405605D01*
X92073277Y-122409495D01*
X91840727Y-122468596D01*
X91600327Y-122561061D01*
X91407843Y-122665043D01*
X91319044Y-122758695D01*
X91318000Y-122767658D01*
X91390437Y-122833559D01*
X91529667Y-122855334D01*
X91653069Y-122868271D01*
X91716177Y-122935314D01*
X91739265Y-123098803D01*
X91742490Y-123299834D01*
X91751604Y-123589431D01*
X91773526Y-123830402D01*
X91788831Y-123913667D01*
X91799100Y-124002225D01*
X91748731Y-124054294D01*
X91604381Y-124080820D01*
X91332708Y-124092751D01*
X91237137Y-124094813D01*
X90640257Y-124106625D01*
X90651645Y-123602844D01*
X90682678Y-123251677D01*
X90752903Y-123022177D01*
X90787074Y-122975022D01*
X90866499Y-122814644D01*
X90859057Y-122715323D01*
X90781179Y-122628343D01*
X90613907Y-122615438D01*
X90491000Y-122631901D01*
X90225984Y-122667563D01*
X90001478Y-122684809D01*
X89984500Y-122685068D01*
X89831273Y-122733661D01*
X89794000Y-122865917D01*
X89816705Y-122986403D01*
X89917648Y-123014682D01*
X90056932Y-122993247D01*
X90233658Y-122971036D01*
X90283901Y-123013885D01*
X90268598Y-123074255D01*
X90249769Y-123204904D01*
X90234050Y-123469394D01*
X90222847Y-123832241D01*
X90217564Y-124257959D01*
X90217333Y-124368767D01*
X90217333Y-125529684D01*
X89880520Y-125619585D01*
X89660559Y-125665971D01*
X89518654Y-125673031D01*
X89499520Y-125665298D01*
X89454779Y-125512211D01*
X89515719Y-125293647D01*
X89624667Y-125118230D01*
X89710960Y-124978181D01*
X89762711Y-124798708D01*
X89787770Y-124535865D01*
X89794000Y-124170157D01*
X89790376Y-123815385D01*
X89775187Y-123598670D01*
X89741962Y-123488812D01*
X89684228Y-123454609D01*
X89645833Y-123455912D01*
X89463087Y-123438139D01*
X89251046Y-123373421D01*
X89027056Y-123317729D01*
X88916613Y-123360187D01*
X88885075Y-123434917D01*
X88951567Y-123449297D01*
X89031210Y-123463159D01*
X88960288Y-123522752D01*
X88953529Y-123527046D01*
X88895039Y-123617751D01*
X88846578Y-123820573D01*
X88805119Y-124154053D01*
X88767639Y-124636732D01*
X88764509Y-124685723D01*
X88729804Y-125161890D01*
X88693144Y-125492690D01*
X88650414Y-125702076D01*
X88597497Y-125814000D01*
X88566032Y-125840843D01*
X88478983Y-125942889D01*
X88533538Y-126034495D01*
X88698330Y-126072667D01*
X88833088Y-126114103D01*
X88862667Y-126169166D01*
X88924048Y-126294879D01*
X88997442Y-126364216D01*
X89098997Y-126538482D01*
X89144453Y-126870631D01*
X89145608Y-126902624D01*
X89159000Y-127342483D01*
X91404668Y-127342667D01*
X91354390Y-126982834D01*
X91309278Y-126678877D01*
X91252575Y-126320943D01*
X91226389Y-126162950D01*
X91176987Y-125798631D01*
X91142796Y-125414783D01*
X91135981Y-125273950D01*
X91124098Y-125058327D01*
X91106325Y-125010022D01*
X91087133Y-125099000D01*
X91038044Y-125305835D01*
X90976407Y-125429845D01*
X90861125Y-125463453D01*
X90749074Y-125366308D01*
X90666966Y-125175352D01*
X90640667Y-124965470D01*
X90653397Y-124751597D01*
X90724415Y-124647871D01*
X90902961Y-124595348D01*
X90958167Y-124585405D01*
X91191846Y-124518599D01*
X91355936Y-124426198D01*
X91371487Y-124409747D01*
X91456928Y-124334189D01*
X91512709Y-124408199D01*
X91516996Y-124419178D01*
X91623690Y-124533261D01*
X91685760Y-124548667D01*
X91782867Y-124622388D01*
X91855255Y-124801367D01*
X91857750Y-124813250D01*
X91908302Y-125183350D01*
X91882970Y-125406358D01*
X91783667Y-125480000D01*
X91684132Y-125492224D01*
X91668544Y-125558482D01*
X91732662Y-125723157D01*
X91755600Y-125773835D01*
X91854534Y-125990970D01*
X92009042Y-125756652D01*
X92118333Y-125502840D01*
X92164109Y-125221713D01*
X92192920Y-124954932D01*
X92265309Y-124714027D01*
X92361679Y-124545643D01*
X92462435Y-124496424D01*
X92468056Y-124498228D01*
X92560376Y-124467617D01*
X92570350Y-124434761D01*
X92598140Y-124301052D01*
X92657163Y-124069342D01*
X92697387Y-123922631D01*
X92779193Y-123527658D01*
X92766437Y-123265266D01*
X92659846Y-123138854D01*
X92528703Y-123133299D01*
X92322757Y-123172668D01*
X92540045Y-122945868D01*
X92668389Y-122765900D01*
X92746377Y-122571705D01*
X92760727Y-122414987D01*
X92698152Y-122347449D01*
X92693833Y-122347334D01*
X92661542Y-122304875D01*
X92636881Y-122166130D01*
X92618755Y-121914045D01*
X92606071Y-121531565D01*
X92597733Y-121001638D01*
X92596018Y-120823334D01*
X92586094Y-120494534D01*
X92562014Y-120322826D01*
X92521682Y-120296402D01*
X92505903Y-120315334D01*
G36*
X92181837Y-125635727D02*
G01*
X92178546Y-125851936D01*
X92239686Y-126217833D01*
X92293360Y-126453667D01*
X92367286Y-126763038D01*
X92403006Y-126950788D01*
X92400075Y-127060366D01*
X92358047Y-127135221D01*
X92285619Y-127209619D01*
X92228982Y-127281438D01*
X92259129Y-127321150D01*
X92403603Y-127337683D01*
X92687786Y-127339974D01*
X92971890Y-127335123D01*
X93111992Y-127318461D01*
X93133391Y-127281324D01*
X93061388Y-127215048D01*
X93058651Y-127212974D01*
X92845350Y-127112576D01*
X92698818Y-127088667D01*
X92543497Y-127036087D01*
X92506031Y-126921129D01*
X92591762Y-126807962D01*
X92672667Y-126774532D01*
X92813235Y-126717646D01*
X92817819Y-126629459D01*
X92701878Y-126481500D01*
X92627367Y-126367068D01*
X92650282Y-126326667D01*
X92717950Y-126252279D01*
X92768191Y-126069827D01*
X92772743Y-126035982D01*
X92785489Y-125843118D01*
X92737084Y-125774829D01*
X92591922Y-125788296D01*
X92570340Y-125792566D01*
X92395456Y-125804070D01*
X92335609Y-125730461D01*
X92334000Y-125702250D01*
X92291372Y-125582946D01*
X92249333Y-125564667D01*
X92181837Y-125635727D01*
X92181837Y-125635727D01*
G37*
X92181837Y-125635727D02*
X92178546Y-125851936D01*
X92239686Y-126217833D01*
X92293360Y-126453667D01*
X92367286Y-126763038D01*
X92403006Y-126950788D01*
X92400075Y-127060366D01*
X92358047Y-127135221D01*
X92285619Y-127209619D01*
X92228982Y-127281438D01*
X92259129Y-127321150D01*
X92403603Y-127337683D01*
X92687786Y-127339974D01*
X92971890Y-127335123D01*
X93111992Y-127318461D01*
X93133391Y-127281324D01*
X93061388Y-127215048D01*
X93058651Y-127212974D01*
X92845350Y-127112576D01*
X92698818Y-127088667D01*
X92543497Y-127036087D01*
X92506031Y-126921129D01*
X92591762Y-126807962D01*
X92672667Y-126774532D01*
X92813235Y-126717646D01*
X92817819Y-126629459D01*
X92701878Y-126481500D01*
X92627367Y-126367068D01*
X92650282Y-126326667D01*
X92717950Y-126252279D01*
X92768191Y-126069827D01*
X92772743Y-126035982D01*
X92785489Y-125843118D01*
X92737084Y-125774829D01*
X92591922Y-125788296D01*
X92570340Y-125792566D01*
X92395456Y-125804070D01*
X92335609Y-125730461D01*
X92334000Y-125702250D01*
X92291372Y-125582946D01*
X92249333Y-125564667D01*
X92181837Y-125635727D01*
G36*
X53472000Y-127850667D02*
G01*
X86957667Y-127850667D01*
X89814050Y-127850617D01*
X92505873Y-127850456D01*
X95037907Y-127850164D01*
X97414926Y-127849725D01*
X99641703Y-127849120D01*
X101723009Y-127848331D01*
X103663617Y-127847340D01*
X105468301Y-127846129D01*
X107141832Y-127844679D01*
X108688984Y-127842973D01*
X110114528Y-127840992D01*
X111423238Y-127838719D01*
X112619886Y-127836134D01*
X113709245Y-127833221D01*
X114696087Y-127829961D01*
X115585185Y-127826336D01*
X116381312Y-127822328D01*
X117089240Y-127817919D01*
X117713742Y-127813090D01*
X118259590Y-127807823D01*
X118731558Y-127802102D01*
X119134417Y-127795906D01*
X119472940Y-127789219D01*
X119751901Y-127782022D01*
X119976071Y-127774296D01*
X120150223Y-127766025D01*
X120279130Y-127757190D01*
X120367565Y-127747772D01*
X120420299Y-127737754D01*
X120442107Y-127727118D01*
X120443333Y-127723667D01*
X120429220Y-127705746D01*
X120381523Y-127689566D01*
X120292209Y-127675039D01*
X120153244Y-127662080D01*
X119956596Y-127650602D01*
X119694231Y-127640517D01*
X119358114Y-127631740D01*
X118940213Y-127624183D01*
X118432493Y-127617760D01*
X117826922Y-127612384D01*
X117115466Y-127607968D01*
X116290091Y-127604426D01*
X115342764Y-127601672D01*
X114265450Y-127599617D01*
X113050118Y-127598176D01*
X111688732Y-127597262D01*
X110173261Y-127596788D01*
X108674667Y-127596667D01*
X106950581Y-127597242D01*
X105347965Y-127598949D01*
X103871000Y-127601759D01*
X102523869Y-127605644D01*
X101310753Y-127610574D01*
X100235835Y-127616521D01*
X99303297Y-127623457D01*
X98517321Y-127631352D01*
X97882088Y-127640179D01*
X97401781Y-127649907D01*
X97080583Y-127660510D01*
X96922674Y-127671958D01*
X96906000Y-127677311D01*
X96833162Y-127721955D01*
X96655341Y-127723671D01*
X96630833Y-127720669D01*
X96522761Y-127717144D01*
X96252609Y-127713261D01*
X95827629Y-127709052D01*
X95255075Y-127704548D01*
X94542198Y-127699782D01*
X93696251Y-127694784D01*
X92724488Y-127689586D01*
X91634160Y-127684221D01*
X90432521Y-127678719D01*
X89126823Y-127673113D01*
X87724319Y-127667434D01*
X86232262Y-127661714D01*
X84657903Y-127655984D01*
X83008497Y-127650277D01*
X81291294Y-127644623D01*
X79513549Y-127639055D01*
X77682514Y-127633604D01*
X75805441Y-127628302D01*
X74956275Y-127625996D01*
X53556883Y-127568610D01*
X53535500Y-94837805D01*
X53514116Y-62107001D01*
X53472000Y-127850667D01*
X53472000Y-127850667D01*
G37*
X53472000Y-127850667D02*
X86957667Y-127850667D01*
X89814050Y-127850617D01*
X92505873Y-127850456D01*
X95037907Y-127850164D01*
X97414926Y-127849725D01*
X99641703Y-127849120D01*
X101723009Y-127848331D01*
X103663617Y-127847340D01*
X105468301Y-127846129D01*
X107141832Y-127844679D01*
X108688984Y-127842973D01*
X110114528Y-127840992D01*
X111423238Y-127838719D01*
X112619886Y-127836134D01*
X113709245Y-127833221D01*
X114696087Y-127829961D01*
X115585185Y-127826336D01*
X116381312Y-127822328D01*
X117089240Y-127817919D01*
X117713742Y-127813090D01*
X118259590Y-127807823D01*
X118731558Y-127802102D01*
X119134417Y-127795906D01*
X119472940Y-127789219D01*
X119751901Y-127782022D01*
X119976071Y-127774296D01*
X120150223Y-127766025D01*
X120279130Y-127757190D01*
X120367565Y-127747772D01*
X120420299Y-127737754D01*
X120442107Y-127727118D01*
X120443333Y-127723667D01*
X120429220Y-127705746D01*
X120381523Y-127689566D01*
X120292209Y-127675039D01*
X120153244Y-127662080D01*
X119956596Y-127650602D01*
X119694231Y-127640517D01*
X119358114Y-127631740D01*
X118940213Y-127624183D01*
X118432493Y-127617760D01*
X117826922Y-127612384D01*
X117115466Y-127607968D01*
X116290091Y-127604426D01*
X115342764Y-127601672D01*
X114265450Y-127599617D01*
X113050118Y-127598176D01*
X111688732Y-127597262D01*
X110173261Y-127596788D01*
X108674667Y-127596667D01*
X106950581Y-127597242D01*
X105347965Y-127598949D01*
X103871000Y-127601759D01*
X102523869Y-127605644D01*
X101310753Y-127610574D01*
X100235835Y-127616521D01*
X99303297Y-127623457D01*
X98517321Y-127631352D01*
X97882088Y-127640179D01*
X97401781Y-127649907D01*
X97080583Y-127660510D01*
X96922674Y-127671958D01*
X96906000Y-127677311D01*
X96833162Y-127721955D01*
X96655341Y-127723671D01*
X96630833Y-127720669D01*
X96522761Y-127717144D01*
X96252609Y-127713261D01*
X95827629Y-127709052D01*
X95255075Y-127704548D01*
X94542198Y-127699782D01*
X93696251Y-127694784D01*
X92724488Y-127689586D01*
X91634160Y-127684221D01*
X90432521Y-127678719D01*
X89126823Y-127673113D01*
X87724319Y-127667434D01*
X86232262Y-127661714D01*
X84657903Y-127655984D01*
X83008497Y-127650277D01*
X81291294Y-127644623D01*
X79513549Y-127639055D01*
X77682514Y-127633604D01*
X75805441Y-127628302D01*
X74956275Y-127625996D01*
X53556883Y-127568610D01*
X53535500Y-94837805D01*
X53514116Y-62107001D01*
X53472000Y-127850667D01*
D11*
X123320000Y-63820000D02*
X123320000Y-66360000D01*
X125860000Y-63820000D02*
X123320000Y-63820000D01*
X95380000Y-48580000D02*
X125860000Y-48580000D01*
X95380000Y-66360000D02*
X95380000Y-48580000D01*
X125860000Y-66360000D02*
X95380000Y-66360000D01*
X125860000Y-48580000D02*
X125860000Y-66360000D01*
D12*
X126839714Y-51686666D02*
X126114000Y-51686666D01*
X126984857Y-52049523D02*
X126476857Y-50779523D01*
X125968857Y-52049523D01*
X125460857Y-52049523D02*
X125460857Y-51202857D01*
X125460857Y-51444761D02*
X125388285Y-51323809D01*
X125315714Y-51263333D01*
X125170571Y-51202857D01*
X125025428Y-51202857D01*
X123864285Y-52049523D02*
X123864285Y-50779523D01*
X123864285Y-51989047D02*
X124009428Y-52049523D01*
X124299714Y-52049523D01*
X124444857Y-51989047D01*
X124517428Y-51928571D01*
X124590000Y-51807619D01*
X124590000Y-51444761D01*
X124517428Y-51323809D01*
X124444857Y-51263333D01*
X124299714Y-51202857D01*
X124009428Y-51202857D01*
X123864285Y-51263333D01*
X122340285Y-52049523D02*
X123211142Y-52049523D01*
X122775714Y-52049523D02*
X122775714Y-50779523D01*
X122920857Y-50960952D01*
X123066000Y-51081904D01*
X123211142Y-51142380D01*
M02*
