M48
METRIC,TZ
T1C1.700
T2C3.400
%
G90
G05
T1
X91970Y-77470
X102970Y-77470
X70970Y-97470
X81970Y-97470
X49970Y-77470
X60970Y-77470
X49970Y-57470
X60970Y-57470
X112970Y-117470
X123970Y-117470
X112970Y-97470
X123970Y-97470
X70970Y-57470
X81970Y-57470
X112970Y-77470
X123970Y-77470
X91970Y-117470
X102970Y-117470
X91970Y-97470
X102970Y-97470
X70970Y-117470
X81970Y-117470
X49970Y-117470
X60970Y-117470
X112970Y-57470
X123970Y-57470
X49970Y-97470
X60970Y-97470
X91970Y-57470
X102970Y-57470
X70970Y-77470
X81970Y-77470
T2
X76470Y-77470
X97470Y-77470
X76470Y-97470
X55470Y-77470
X55470Y-57470
X118470Y-117470
X118470Y-97470
X76470Y-57470
X118470Y-77470
X97470Y-117470
X97470Y-97470
X76470Y-117470
X55470Y-117470
X118470Y-57470
X55470Y-97470
X97470Y-57470
T0
M30
