G04 #@! TF.GenerationSoftware,KiCad,Pcbnew,(5.1.0)-1*
G04 #@! TF.CreationDate,2019-03-23T01:01:18+01:00*
G04 #@! TF.ProjectId,Schematic2,53636865-6d61-4746-9963-322e6b696361,rev?*
G04 #@! TF.SameCoordinates,Original*
G04 #@! TF.FileFunction,Copper,L1,Top*
G04 #@! TF.FilePolarity,Positive*
%FSLAX46Y46*%
G04 Gerber Fmt 4.6, Leading zero omitted, Abs format (unit mm)*
G04 Created by KiCad (PCBNEW (5.1.0)-1) date 2019-03-23 01:01:18*
%MOMM*%
%LPD*%
G04 APERTURE LIST*
%ADD10C,2.000000*%
%ADD11C,1.600000*%
%ADD12R,3.200000X2.000000*%
%ADD13R,2.000000X2.000000*%
%ADD14C,0.100000*%
%ADD15C,1.425000*%
%ADD16C,1.700000*%
%ADD17C,1.400000*%
%ADD18O,1.400000X1.400000*%
%ADD19R,2.500000X2.500000*%
%ADD20R,0.450000X0.600000*%
%ADD21C,1.752600*%
%ADD22C,1.500000*%
%ADD23R,1.752600X1.752600*%
%ADD24C,0.800000*%
%ADD25C,0.400000*%
%ADD26C,0.250000*%
G04 APERTURE END LIST*
D10*
X55470000Y-123370000D03*
X50470000Y-121270000D03*
X118470000Y-123370000D03*
X113470000Y-121270000D03*
X118470000Y-103370000D03*
X113470000Y-101270000D03*
X76470000Y-123370000D03*
X71470000Y-121270000D03*
X97470000Y-123370000D03*
X92470000Y-121270000D03*
X118470000Y-83370000D03*
X113470000Y-81270000D03*
D11*
X97470000Y-63370000D03*
D10*
X92470000Y-61270000D03*
X55470000Y-103370000D03*
X50470000Y-101270000D03*
X31470000Y-35470000D03*
X31470000Y-40470000D03*
D12*
X38470000Y-32370000D03*
X38470000Y-43570000D03*
D10*
X45970000Y-35470000D03*
X45970000Y-37970000D03*
D13*
X45970000Y-40470000D03*
D10*
X55470000Y-83370000D03*
X50470000Y-81270000D03*
X97470000Y-103370000D03*
X92470000Y-101270000D03*
X55470000Y-63370000D03*
X50470000Y-61270000D03*
X76470000Y-103370000D03*
X71470000Y-101270000D03*
D14*
G36*
X43482004Y-99616204D02*
G01*
X43506273Y-99619804D01*
X43530071Y-99625765D01*
X43553171Y-99634030D01*
X43575349Y-99644520D01*
X43596393Y-99657133D01*
X43616098Y-99671747D01*
X43634277Y-99688223D01*
X43650753Y-99706402D01*
X43665367Y-99726107D01*
X43677980Y-99747151D01*
X43688470Y-99769329D01*
X43696735Y-99792429D01*
X43702696Y-99816227D01*
X43706296Y-99840496D01*
X43707500Y-99865000D01*
X43707500Y-101115000D01*
X43706296Y-101139504D01*
X43702696Y-101163773D01*
X43696735Y-101187571D01*
X43688470Y-101210671D01*
X43677980Y-101232849D01*
X43665367Y-101253893D01*
X43650753Y-101273598D01*
X43634277Y-101291777D01*
X43616098Y-101308253D01*
X43596393Y-101322867D01*
X43575349Y-101335480D01*
X43553171Y-101345970D01*
X43530071Y-101354235D01*
X43506273Y-101360196D01*
X43482004Y-101363796D01*
X43457500Y-101365000D01*
X42532500Y-101365000D01*
X42507996Y-101363796D01*
X42483727Y-101360196D01*
X42459929Y-101354235D01*
X42436829Y-101345970D01*
X42414651Y-101335480D01*
X42393607Y-101322867D01*
X42373902Y-101308253D01*
X42355723Y-101291777D01*
X42339247Y-101273598D01*
X42324633Y-101253893D01*
X42312020Y-101232849D01*
X42301530Y-101210671D01*
X42293265Y-101187571D01*
X42287304Y-101163773D01*
X42283704Y-101139504D01*
X42282500Y-101115000D01*
X42282500Y-99865000D01*
X42283704Y-99840496D01*
X42287304Y-99816227D01*
X42293265Y-99792429D01*
X42301530Y-99769329D01*
X42312020Y-99747151D01*
X42324633Y-99726107D01*
X42339247Y-99706402D01*
X42355723Y-99688223D01*
X42373902Y-99671747D01*
X42393607Y-99657133D01*
X42414651Y-99644520D01*
X42436829Y-99634030D01*
X42459929Y-99625765D01*
X42483727Y-99619804D01*
X42507996Y-99616204D01*
X42532500Y-99615000D01*
X43457500Y-99615000D01*
X43482004Y-99616204D01*
X43482004Y-99616204D01*
G37*
D15*
X42995000Y-100490000D03*
D14*
G36*
X46457004Y-99616204D02*
G01*
X46481273Y-99619804D01*
X46505071Y-99625765D01*
X46528171Y-99634030D01*
X46550349Y-99644520D01*
X46571393Y-99657133D01*
X46591098Y-99671747D01*
X46609277Y-99688223D01*
X46625753Y-99706402D01*
X46640367Y-99726107D01*
X46652980Y-99747151D01*
X46663470Y-99769329D01*
X46671735Y-99792429D01*
X46677696Y-99816227D01*
X46681296Y-99840496D01*
X46682500Y-99865000D01*
X46682500Y-101115000D01*
X46681296Y-101139504D01*
X46677696Y-101163773D01*
X46671735Y-101187571D01*
X46663470Y-101210671D01*
X46652980Y-101232849D01*
X46640367Y-101253893D01*
X46625753Y-101273598D01*
X46609277Y-101291777D01*
X46591098Y-101308253D01*
X46571393Y-101322867D01*
X46550349Y-101335480D01*
X46528171Y-101345970D01*
X46505071Y-101354235D01*
X46481273Y-101360196D01*
X46457004Y-101363796D01*
X46432500Y-101365000D01*
X45507500Y-101365000D01*
X45482996Y-101363796D01*
X45458727Y-101360196D01*
X45434929Y-101354235D01*
X45411829Y-101345970D01*
X45389651Y-101335480D01*
X45368607Y-101322867D01*
X45348902Y-101308253D01*
X45330723Y-101291777D01*
X45314247Y-101273598D01*
X45299633Y-101253893D01*
X45287020Y-101232849D01*
X45276530Y-101210671D01*
X45268265Y-101187571D01*
X45262304Y-101163773D01*
X45258704Y-101139504D01*
X45257500Y-101115000D01*
X45257500Y-99865000D01*
X45258704Y-99840496D01*
X45262304Y-99816227D01*
X45268265Y-99792429D01*
X45276530Y-99769329D01*
X45287020Y-99747151D01*
X45299633Y-99726107D01*
X45314247Y-99706402D01*
X45330723Y-99688223D01*
X45348902Y-99671747D01*
X45368607Y-99657133D01*
X45389651Y-99644520D01*
X45411829Y-99634030D01*
X45434929Y-99625765D01*
X45458727Y-99619804D01*
X45482996Y-99616204D01*
X45507500Y-99615000D01*
X46432500Y-99615000D01*
X46457004Y-99616204D01*
X46457004Y-99616204D01*
G37*
D15*
X45970000Y-100490000D03*
D14*
G36*
X43502004Y-108066204D02*
G01*
X43526273Y-108069804D01*
X43550071Y-108075765D01*
X43573171Y-108084030D01*
X43595349Y-108094520D01*
X43616393Y-108107133D01*
X43636098Y-108121747D01*
X43654277Y-108138223D01*
X43670753Y-108156402D01*
X43685367Y-108176107D01*
X43697980Y-108197151D01*
X43708470Y-108219329D01*
X43716735Y-108242429D01*
X43722696Y-108266227D01*
X43726296Y-108290496D01*
X43727500Y-108315000D01*
X43727500Y-109565000D01*
X43726296Y-109589504D01*
X43722696Y-109613773D01*
X43716735Y-109637571D01*
X43708470Y-109660671D01*
X43697980Y-109682849D01*
X43685367Y-109703893D01*
X43670753Y-109723598D01*
X43654277Y-109741777D01*
X43636098Y-109758253D01*
X43616393Y-109772867D01*
X43595349Y-109785480D01*
X43573171Y-109795970D01*
X43550071Y-109804235D01*
X43526273Y-109810196D01*
X43502004Y-109813796D01*
X43477500Y-109815000D01*
X42552500Y-109815000D01*
X42527996Y-109813796D01*
X42503727Y-109810196D01*
X42479929Y-109804235D01*
X42456829Y-109795970D01*
X42434651Y-109785480D01*
X42413607Y-109772867D01*
X42393902Y-109758253D01*
X42375723Y-109741777D01*
X42359247Y-109723598D01*
X42344633Y-109703893D01*
X42332020Y-109682849D01*
X42321530Y-109660671D01*
X42313265Y-109637571D01*
X42307304Y-109613773D01*
X42303704Y-109589504D01*
X42302500Y-109565000D01*
X42302500Y-108315000D01*
X42303704Y-108290496D01*
X42307304Y-108266227D01*
X42313265Y-108242429D01*
X42321530Y-108219329D01*
X42332020Y-108197151D01*
X42344633Y-108176107D01*
X42359247Y-108156402D01*
X42375723Y-108138223D01*
X42393902Y-108121747D01*
X42413607Y-108107133D01*
X42434651Y-108094520D01*
X42456829Y-108084030D01*
X42479929Y-108075765D01*
X42503727Y-108069804D01*
X42527996Y-108066204D01*
X42552500Y-108065000D01*
X43477500Y-108065000D01*
X43502004Y-108066204D01*
X43502004Y-108066204D01*
G37*
D15*
X43015000Y-108940000D03*
D14*
G36*
X46477004Y-108066204D02*
G01*
X46501273Y-108069804D01*
X46525071Y-108075765D01*
X46548171Y-108084030D01*
X46570349Y-108094520D01*
X46591393Y-108107133D01*
X46611098Y-108121747D01*
X46629277Y-108138223D01*
X46645753Y-108156402D01*
X46660367Y-108176107D01*
X46672980Y-108197151D01*
X46683470Y-108219329D01*
X46691735Y-108242429D01*
X46697696Y-108266227D01*
X46701296Y-108290496D01*
X46702500Y-108315000D01*
X46702500Y-109565000D01*
X46701296Y-109589504D01*
X46697696Y-109613773D01*
X46691735Y-109637571D01*
X46683470Y-109660671D01*
X46672980Y-109682849D01*
X46660367Y-109703893D01*
X46645753Y-109723598D01*
X46629277Y-109741777D01*
X46611098Y-109758253D01*
X46591393Y-109772867D01*
X46570349Y-109785480D01*
X46548171Y-109795970D01*
X46525071Y-109804235D01*
X46501273Y-109810196D01*
X46477004Y-109813796D01*
X46452500Y-109815000D01*
X45527500Y-109815000D01*
X45502996Y-109813796D01*
X45478727Y-109810196D01*
X45454929Y-109804235D01*
X45431829Y-109795970D01*
X45409651Y-109785480D01*
X45388607Y-109772867D01*
X45368902Y-109758253D01*
X45350723Y-109741777D01*
X45334247Y-109723598D01*
X45319633Y-109703893D01*
X45307020Y-109682849D01*
X45296530Y-109660671D01*
X45288265Y-109637571D01*
X45282304Y-109613773D01*
X45278704Y-109589504D01*
X45277500Y-109565000D01*
X45277500Y-108315000D01*
X45278704Y-108290496D01*
X45282304Y-108266227D01*
X45288265Y-108242429D01*
X45296530Y-108219329D01*
X45307020Y-108197151D01*
X45319633Y-108176107D01*
X45334247Y-108156402D01*
X45350723Y-108138223D01*
X45368902Y-108121747D01*
X45388607Y-108107133D01*
X45409651Y-108094520D01*
X45431829Y-108084030D01*
X45454929Y-108075765D01*
X45478727Y-108069804D01*
X45502996Y-108066204D01*
X45527500Y-108065000D01*
X46452500Y-108065000D01*
X46477004Y-108066204D01*
X46477004Y-108066204D01*
G37*
D15*
X45990000Y-108940000D03*
D14*
G36*
X43462004Y-102366204D02*
G01*
X43486273Y-102369804D01*
X43510071Y-102375765D01*
X43533171Y-102384030D01*
X43555349Y-102394520D01*
X43576393Y-102407133D01*
X43596098Y-102421747D01*
X43614277Y-102438223D01*
X43630753Y-102456402D01*
X43645367Y-102476107D01*
X43657980Y-102497151D01*
X43668470Y-102519329D01*
X43676735Y-102542429D01*
X43682696Y-102566227D01*
X43686296Y-102590496D01*
X43687500Y-102615000D01*
X43687500Y-103865000D01*
X43686296Y-103889504D01*
X43682696Y-103913773D01*
X43676735Y-103937571D01*
X43668470Y-103960671D01*
X43657980Y-103982849D01*
X43645367Y-104003893D01*
X43630753Y-104023598D01*
X43614277Y-104041777D01*
X43596098Y-104058253D01*
X43576393Y-104072867D01*
X43555349Y-104085480D01*
X43533171Y-104095970D01*
X43510071Y-104104235D01*
X43486273Y-104110196D01*
X43462004Y-104113796D01*
X43437500Y-104115000D01*
X42512500Y-104115000D01*
X42487996Y-104113796D01*
X42463727Y-104110196D01*
X42439929Y-104104235D01*
X42416829Y-104095970D01*
X42394651Y-104085480D01*
X42373607Y-104072867D01*
X42353902Y-104058253D01*
X42335723Y-104041777D01*
X42319247Y-104023598D01*
X42304633Y-104003893D01*
X42292020Y-103982849D01*
X42281530Y-103960671D01*
X42273265Y-103937571D01*
X42267304Y-103913773D01*
X42263704Y-103889504D01*
X42262500Y-103865000D01*
X42262500Y-102615000D01*
X42263704Y-102590496D01*
X42267304Y-102566227D01*
X42273265Y-102542429D01*
X42281530Y-102519329D01*
X42292020Y-102497151D01*
X42304633Y-102476107D01*
X42319247Y-102456402D01*
X42335723Y-102438223D01*
X42353902Y-102421747D01*
X42373607Y-102407133D01*
X42394651Y-102394520D01*
X42416829Y-102384030D01*
X42439929Y-102375765D01*
X42463727Y-102369804D01*
X42487996Y-102366204D01*
X42512500Y-102365000D01*
X43437500Y-102365000D01*
X43462004Y-102366204D01*
X43462004Y-102366204D01*
G37*
D15*
X42975000Y-103240000D03*
D14*
G36*
X46437004Y-102366204D02*
G01*
X46461273Y-102369804D01*
X46485071Y-102375765D01*
X46508171Y-102384030D01*
X46530349Y-102394520D01*
X46551393Y-102407133D01*
X46571098Y-102421747D01*
X46589277Y-102438223D01*
X46605753Y-102456402D01*
X46620367Y-102476107D01*
X46632980Y-102497151D01*
X46643470Y-102519329D01*
X46651735Y-102542429D01*
X46657696Y-102566227D01*
X46661296Y-102590496D01*
X46662500Y-102615000D01*
X46662500Y-103865000D01*
X46661296Y-103889504D01*
X46657696Y-103913773D01*
X46651735Y-103937571D01*
X46643470Y-103960671D01*
X46632980Y-103982849D01*
X46620367Y-104003893D01*
X46605753Y-104023598D01*
X46589277Y-104041777D01*
X46571098Y-104058253D01*
X46551393Y-104072867D01*
X46530349Y-104085480D01*
X46508171Y-104095970D01*
X46485071Y-104104235D01*
X46461273Y-104110196D01*
X46437004Y-104113796D01*
X46412500Y-104115000D01*
X45487500Y-104115000D01*
X45462996Y-104113796D01*
X45438727Y-104110196D01*
X45414929Y-104104235D01*
X45391829Y-104095970D01*
X45369651Y-104085480D01*
X45348607Y-104072867D01*
X45328902Y-104058253D01*
X45310723Y-104041777D01*
X45294247Y-104023598D01*
X45279633Y-104003893D01*
X45267020Y-103982849D01*
X45256530Y-103960671D01*
X45248265Y-103937571D01*
X45242304Y-103913773D01*
X45238704Y-103889504D01*
X45237500Y-103865000D01*
X45237500Y-102615000D01*
X45238704Y-102590496D01*
X45242304Y-102566227D01*
X45248265Y-102542429D01*
X45256530Y-102519329D01*
X45267020Y-102497151D01*
X45279633Y-102476107D01*
X45294247Y-102456402D01*
X45310723Y-102438223D01*
X45328902Y-102421747D01*
X45348607Y-102407133D01*
X45369651Y-102394520D01*
X45391829Y-102384030D01*
X45414929Y-102375765D01*
X45438727Y-102369804D01*
X45462996Y-102366204D01*
X45487500Y-102365000D01*
X46412500Y-102365000D01*
X46437004Y-102366204D01*
X46437004Y-102366204D01*
G37*
D15*
X45950000Y-103240000D03*
D14*
G36*
X43497004Y-105206204D02*
G01*
X43521273Y-105209804D01*
X43545071Y-105215765D01*
X43568171Y-105224030D01*
X43590349Y-105234520D01*
X43611393Y-105247133D01*
X43631098Y-105261747D01*
X43649277Y-105278223D01*
X43665753Y-105296402D01*
X43680367Y-105316107D01*
X43692980Y-105337151D01*
X43703470Y-105359329D01*
X43711735Y-105382429D01*
X43717696Y-105406227D01*
X43721296Y-105430496D01*
X43722500Y-105455000D01*
X43722500Y-106705000D01*
X43721296Y-106729504D01*
X43717696Y-106753773D01*
X43711735Y-106777571D01*
X43703470Y-106800671D01*
X43692980Y-106822849D01*
X43680367Y-106843893D01*
X43665753Y-106863598D01*
X43649277Y-106881777D01*
X43631098Y-106898253D01*
X43611393Y-106912867D01*
X43590349Y-106925480D01*
X43568171Y-106935970D01*
X43545071Y-106944235D01*
X43521273Y-106950196D01*
X43497004Y-106953796D01*
X43472500Y-106955000D01*
X42547500Y-106955000D01*
X42522996Y-106953796D01*
X42498727Y-106950196D01*
X42474929Y-106944235D01*
X42451829Y-106935970D01*
X42429651Y-106925480D01*
X42408607Y-106912867D01*
X42388902Y-106898253D01*
X42370723Y-106881777D01*
X42354247Y-106863598D01*
X42339633Y-106843893D01*
X42327020Y-106822849D01*
X42316530Y-106800671D01*
X42308265Y-106777571D01*
X42302304Y-106753773D01*
X42298704Y-106729504D01*
X42297500Y-106705000D01*
X42297500Y-105455000D01*
X42298704Y-105430496D01*
X42302304Y-105406227D01*
X42308265Y-105382429D01*
X42316530Y-105359329D01*
X42327020Y-105337151D01*
X42339633Y-105316107D01*
X42354247Y-105296402D01*
X42370723Y-105278223D01*
X42388902Y-105261747D01*
X42408607Y-105247133D01*
X42429651Y-105234520D01*
X42451829Y-105224030D01*
X42474929Y-105215765D01*
X42498727Y-105209804D01*
X42522996Y-105206204D01*
X42547500Y-105205000D01*
X43472500Y-105205000D01*
X43497004Y-105206204D01*
X43497004Y-105206204D01*
G37*
D15*
X43010000Y-106080000D03*
D14*
G36*
X46472004Y-105206204D02*
G01*
X46496273Y-105209804D01*
X46520071Y-105215765D01*
X46543171Y-105224030D01*
X46565349Y-105234520D01*
X46586393Y-105247133D01*
X46606098Y-105261747D01*
X46624277Y-105278223D01*
X46640753Y-105296402D01*
X46655367Y-105316107D01*
X46667980Y-105337151D01*
X46678470Y-105359329D01*
X46686735Y-105382429D01*
X46692696Y-105406227D01*
X46696296Y-105430496D01*
X46697500Y-105455000D01*
X46697500Y-106705000D01*
X46696296Y-106729504D01*
X46692696Y-106753773D01*
X46686735Y-106777571D01*
X46678470Y-106800671D01*
X46667980Y-106822849D01*
X46655367Y-106843893D01*
X46640753Y-106863598D01*
X46624277Y-106881777D01*
X46606098Y-106898253D01*
X46586393Y-106912867D01*
X46565349Y-106925480D01*
X46543171Y-106935970D01*
X46520071Y-106944235D01*
X46496273Y-106950196D01*
X46472004Y-106953796D01*
X46447500Y-106955000D01*
X45522500Y-106955000D01*
X45497996Y-106953796D01*
X45473727Y-106950196D01*
X45449929Y-106944235D01*
X45426829Y-106935970D01*
X45404651Y-106925480D01*
X45383607Y-106912867D01*
X45363902Y-106898253D01*
X45345723Y-106881777D01*
X45329247Y-106863598D01*
X45314633Y-106843893D01*
X45302020Y-106822849D01*
X45291530Y-106800671D01*
X45283265Y-106777571D01*
X45277304Y-106753773D01*
X45273704Y-106729504D01*
X45272500Y-106705000D01*
X45272500Y-105455000D01*
X45273704Y-105430496D01*
X45277304Y-105406227D01*
X45283265Y-105382429D01*
X45291530Y-105359329D01*
X45302020Y-105337151D01*
X45314633Y-105316107D01*
X45329247Y-105296402D01*
X45345723Y-105278223D01*
X45363902Y-105261747D01*
X45383607Y-105247133D01*
X45404651Y-105234520D01*
X45426829Y-105224030D01*
X45449929Y-105215765D01*
X45473727Y-105209804D01*
X45497996Y-105206204D01*
X45522500Y-105205000D01*
X46447500Y-105205000D01*
X46472004Y-105206204D01*
X46472004Y-105206204D01*
G37*
D15*
X45985000Y-106080000D03*
D16*
X118470000Y-63370000D03*
D10*
X113470000Y-61270000D03*
X97470000Y-83370000D03*
X92470000Y-81270000D03*
X76470000Y-83370000D03*
X71470000Y-81270000D03*
D17*
X33018000Y-46734000D03*
D18*
X33018000Y-49274000D03*
D19*
X38480000Y-114122000D03*
D10*
X39720000Y-53870000D03*
X34720000Y-53870000D03*
X42220000Y-123870000D03*
X39720000Y-123870000D03*
X37220000Y-123870000D03*
X34720000Y-123870000D03*
D19*
X38480000Y-66370000D03*
D10*
X76470000Y-63370000D03*
X71470000Y-61270000D03*
D20*
X66038000Y-56860000D03*
X66038000Y-58960000D03*
X128720000Y-56570000D03*
X128720000Y-58670000D03*
X87120000Y-56860000D03*
X87120000Y-58960000D03*
D21*
X124590000Y-49850000D03*
X122050000Y-49850000D03*
X119510000Y-49850000D03*
X116970000Y-49850000D03*
X114430000Y-49850000D03*
X111890000Y-49850000D03*
X109350000Y-49850000D03*
X106810000Y-49850000D03*
X104270000Y-49850000D03*
X101730000Y-49850000D03*
X99190000Y-49850000D03*
X96650000Y-49850000D03*
D22*
X96650000Y-65090000D03*
D21*
X99190000Y-65090000D03*
X101730000Y-65090000D03*
X104270000Y-65090000D03*
X106810000Y-65090000D03*
X109350000Y-65090000D03*
X111890000Y-65090000D03*
X114430000Y-65090000D03*
X116970000Y-65090000D03*
D11*
X119510000Y-65090000D03*
D21*
X122050000Y-65090000D03*
D23*
X124590000Y-65090000D03*
D20*
X107948000Y-56606000D03*
X107948000Y-58706000D03*
X65970000Y-75920000D03*
X65970000Y-78020000D03*
D14*
G36*
X43462004Y-96866204D02*
G01*
X43486273Y-96869804D01*
X43510071Y-96875765D01*
X43533171Y-96884030D01*
X43555349Y-96894520D01*
X43576393Y-96907133D01*
X43596098Y-96921747D01*
X43614277Y-96938223D01*
X43630753Y-96956402D01*
X43645367Y-96976107D01*
X43657980Y-96997151D01*
X43668470Y-97019329D01*
X43676735Y-97042429D01*
X43682696Y-97066227D01*
X43686296Y-97090496D01*
X43687500Y-97115000D01*
X43687500Y-98365000D01*
X43686296Y-98389504D01*
X43682696Y-98413773D01*
X43676735Y-98437571D01*
X43668470Y-98460671D01*
X43657980Y-98482849D01*
X43645367Y-98503893D01*
X43630753Y-98523598D01*
X43614277Y-98541777D01*
X43596098Y-98558253D01*
X43576393Y-98572867D01*
X43555349Y-98585480D01*
X43533171Y-98595970D01*
X43510071Y-98604235D01*
X43486273Y-98610196D01*
X43462004Y-98613796D01*
X43437500Y-98615000D01*
X42512500Y-98615000D01*
X42487996Y-98613796D01*
X42463727Y-98610196D01*
X42439929Y-98604235D01*
X42416829Y-98595970D01*
X42394651Y-98585480D01*
X42373607Y-98572867D01*
X42353902Y-98558253D01*
X42335723Y-98541777D01*
X42319247Y-98523598D01*
X42304633Y-98503893D01*
X42292020Y-98482849D01*
X42281530Y-98460671D01*
X42273265Y-98437571D01*
X42267304Y-98413773D01*
X42263704Y-98389504D01*
X42262500Y-98365000D01*
X42262500Y-97115000D01*
X42263704Y-97090496D01*
X42267304Y-97066227D01*
X42273265Y-97042429D01*
X42281530Y-97019329D01*
X42292020Y-96997151D01*
X42304633Y-96976107D01*
X42319247Y-96956402D01*
X42335723Y-96938223D01*
X42353902Y-96921747D01*
X42373607Y-96907133D01*
X42394651Y-96894520D01*
X42416829Y-96884030D01*
X42439929Y-96875765D01*
X42463727Y-96869804D01*
X42487996Y-96866204D01*
X42512500Y-96865000D01*
X43437500Y-96865000D01*
X43462004Y-96866204D01*
X43462004Y-96866204D01*
G37*
D15*
X42975000Y-97740000D03*
D14*
G36*
X46437004Y-96866204D02*
G01*
X46461273Y-96869804D01*
X46485071Y-96875765D01*
X46508171Y-96884030D01*
X46530349Y-96894520D01*
X46551393Y-96907133D01*
X46571098Y-96921747D01*
X46589277Y-96938223D01*
X46605753Y-96956402D01*
X46620367Y-96976107D01*
X46632980Y-96997151D01*
X46643470Y-97019329D01*
X46651735Y-97042429D01*
X46657696Y-97066227D01*
X46661296Y-97090496D01*
X46662500Y-97115000D01*
X46662500Y-98365000D01*
X46661296Y-98389504D01*
X46657696Y-98413773D01*
X46651735Y-98437571D01*
X46643470Y-98460671D01*
X46632980Y-98482849D01*
X46620367Y-98503893D01*
X46605753Y-98523598D01*
X46589277Y-98541777D01*
X46571098Y-98558253D01*
X46551393Y-98572867D01*
X46530349Y-98585480D01*
X46508171Y-98595970D01*
X46485071Y-98604235D01*
X46461273Y-98610196D01*
X46437004Y-98613796D01*
X46412500Y-98615000D01*
X45487500Y-98615000D01*
X45462996Y-98613796D01*
X45438727Y-98610196D01*
X45414929Y-98604235D01*
X45391829Y-98595970D01*
X45369651Y-98585480D01*
X45348607Y-98572867D01*
X45328902Y-98558253D01*
X45310723Y-98541777D01*
X45294247Y-98523598D01*
X45279633Y-98503893D01*
X45267020Y-98482849D01*
X45256530Y-98460671D01*
X45248265Y-98437571D01*
X45242304Y-98413773D01*
X45238704Y-98389504D01*
X45237500Y-98365000D01*
X45237500Y-97115000D01*
X45238704Y-97090496D01*
X45242304Y-97066227D01*
X45248265Y-97042429D01*
X45256530Y-97019329D01*
X45267020Y-96997151D01*
X45279633Y-96976107D01*
X45294247Y-96956402D01*
X45310723Y-96938223D01*
X45328902Y-96921747D01*
X45348607Y-96907133D01*
X45369651Y-96894520D01*
X45391829Y-96884030D01*
X45414929Y-96875765D01*
X45438727Y-96869804D01*
X45462996Y-96866204D01*
X45487500Y-96865000D01*
X46412500Y-96865000D01*
X46437004Y-96866204D01*
X46437004Y-96866204D01*
G37*
D15*
X45950000Y-97740000D03*
D20*
X107970000Y-96220000D03*
X107970000Y-98320000D03*
X128770000Y-116120000D03*
X128770000Y-118220000D03*
X65970000Y-116120000D03*
X65970000Y-118220000D03*
X107970000Y-75920000D03*
X107970000Y-78020000D03*
X65970000Y-96220000D03*
X65970000Y-98320000D03*
X86970000Y-116120000D03*
X86970000Y-118220000D03*
X86970000Y-75920000D03*
X86970000Y-78020000D03*
X108070000Y-116120000D03*
X108070000Y-118220000D03*
X128770000Y-75920000D03*
X128770000Y-78020000D03*
X128670000Y-96220000D03*
X128670000Y-98320000D03*
X86970000Y-96220000D03*
X86970000Y-98320000D03*
D14*
G36*
X43482004Y-94176204D02*
G01*
X43506273Y-94179804D01*
X43530071Y-94185765D01*
X43553171Y-94194030D01*
X43575349Y-94204520D01*
X43596393Y-94217133D01*
X43616098Y-94231747D01*
X43634277Y-94248223D01*
X43650753Y-94266402D01*
X43665367Y-94286107D01*
X43677980Y-94307151D01*
X43688470Y-94329329D01*
X43696735Y-94352429D01*
X43702696Y-94376227D01*
X43706296Y-94400496D01*
X43707500Y-94425000D01*
X43707500Y-95675000D01*
X43706296Y-95699504D01*
X43702696Y-95723773D01*
X43696735Y-95747571D01*
X43688470Y-95770671D01*
X43677980Y-95792849D01*
X43665367Y-95813893D01*
X43650753Y-95833598D01*
X43634277Y-95851777D01*
X43616098Y-95868253D01*
X43596393Y-95882867D01*
X43575349Y-95895480D01*
X43553171Y-95905970D01*
X43530071Y-95914235D01*
X43506273Y-95920196D01*
X43482004Y-95923796D01*
X43457500Y-95925000D01*
X42532500Y-95925000D01*
X42507996Y-95923796D01*
X42483727Y-95920196D01*
X42459929Y-95914235D01*
X42436829Y-95905970D01*
X42414651Y-95895480D01*
X42393607Y-95882867D01*
X42373902Y-95868253D01*
X42355723Y-95851777D01*
X42339247Y-95833598D01*
X42324633Y-95813893D01*
X42312020Y-95792849D01*
X42301530Y-95770671D01*
X42293265Y-95747571D01*
X42287304Y-95723773D01*
X42283704Y-95699504D01*
X42282500Y-95675000D01*
X42282500Y-94425000D01*
X42283704Y-94400496D01*
X42287304Y-94376227D01*
X42293265Y-94352429D01*
X42301530Y-94329329D01*
X42312020Y-94307151D01*
X42324633Y-94286107D01*
X42339247Y-94266402D01*
X42355723Y-94248223D01*
X42373902Y-94231747D01*
X42393607Y-94217133D01*
X42414651Y-94204520D01*
X42436829Y-94194030D01*
X42459929Y-94185765D01*
X42483727Y-94179804D01*
X42507996Y-94176204D01*
X42532500Y-94175000D01*
X43457500Y-94175000D01*
X43482004Y-94176204D01*
X43482004Y-94176204D01*
G37*
D15*
X42995000Y-95050000D03*
D14*
G36*
X46457004Y-94176204D02*
G01*
X46481273Y-94179804D01*
X46505071Y-94185765D01*
X46528171Y-94194030D01*
X46550349Y-94204520D01*
X46571393Y-94217133D01*
X46591098Y-94231747D01*
X46609277Y-94248223D01*
X46625753Y-94266402D01*
X46640367Y-94286107D01*
X46652980Y-94307151D01*
X46663470Y-94329329D01*
X46671735Y-94352429D01*
X46677696Y-94376227D01*
X46681296Y-94400496D01*
X46682500Y-94425000D01*
X46682500Y-95675000D01*
X46681296Y-95699504D01*
X46677696Y-95723773D01*
X46671735Y-95747571D01*
X46663470Y-95770671D01*
X46652980Y-95792849D01*
X46640367Y-95813893D01*
X46625753Y-95833598D01*
X46609277Y-95851777D01*
X46591098Y-95868253D01*
X46571393Y-95882867D01*
X46550349Y-95895480D01*
X46528171Y-95905970D01*
X46505071Y-95914235D01*
X46481273Y-95920196D01*
X46457004Y-95923796D01*
X46432500Y-95925000D01*
X45507500Y-95925000D01*
X45482996Y-95923796D01*
X45458727Y-95920196D01*
X45434929Y-95914235D01*
X45411829Y-95905970D01*
X45389651Y-95895480D01*
X45368607Y-95882867D01*
X45348902Y-95868253D01*
X45330723Y-95851777D01*
X45314247Y-95833598D01*
X45299633Y-95813893D01*
X45287020Y-95792849D01*
X45276530Y-95770671D01*
X45268265Y-95747571D01*
X45262304Y-95723773D01*
X45258704Y-95699504D01*
X45257500Y-95675000D01*
X45257500Y-94425000D01*
X45258704Y-94400496D01*
X45262304Y-94376227D01*
X45268265Y-94352429D01*
X45276530Y-94329329D01*
X45287020Y-94307151D01*
X45299633Y-94286107D01*
X45314247Y-94266402D01*
X45330723Y-94248223D01*
X45348902Y-94231747D01*
X45368607Y-94217133D01*
X45389651Y-94204520D01*
X45411829Y-94194030D01*
X45434929Y-94185765D01*
X45458727Y-94179804D01*
X45482996Y-94176204D01*
X45507500Y-94175000D01*
X46432500Y-94175000D01*
X46457004Y-94176204D01*
X46457004Y-94176204D01*
G37*
D15*
X45970000Y-95050000D03*
D14*
G36*
X43482004Y-91496204D02*
G01*
X43506273Y-91499804D01*
X43530071Y-91505765D01*
X43553171Y-91514030D01*
X43575349Y-91524520D01*
X43596393Y-91537133D01*
X43616098Y-91551747D01*
X43634277Y-91568223D01*
X43650753Y-91586402D01*
X43665367Y-91606107D01*
X43677980Y-91627151D01*
X43688470Y-91649329D01*
X43696735Y-91672429D01*
X43702696Y-91696227D01*
X43706296Y-91720496D01*
X43707500Y-91745000D01*
X43707500Y-92995000D01*
X43706296Y-93019504D01*
X43702696Y-93043773D01*
X43696735Y-93067571D01*
X43688470Y-93090671D01*
X43677980Y-93112849D01*
X43665367Y-93133893D01*
X43650753Y-93153598D01*
X43634277Y-93171777D01*
X43616098Y-93188253D01*
X43596393Y-93202867D01*
X43575349Y-93215480D01*
X43553171Y-93225970D01*
X43530071Y-93234235D01*
X43506273Y-93240196D01*
X43482004Y-93243796D01*
X43457500Y-93245000D01*
X42532500Y-93245000D01*
X42507996Y-93243796D01*
X42483727Y-93240196D01*
X42459929Y-93234235D01*
X42436829Y-93225970D01*
X42414651Y-93215480D01*
X42393607Y-93202867D01*
X42373902Y-93188253D01*
X42355723Y-93171777D01*
X42339247Y-93153598D01*
X42324633Y-93133893D01*
X42312020Y-93112849D01*
X42301530Y-93090671D01*
X42293265Y-93067571D01*
X42287304Y-93043773D01*
X42283704Y-93019504D01*
X42282500Y-92995000D01*
X42282500Y-91745000D01*
X42283704Y-91720496D01*
X42287304Y-91696227D01*
X42293265Y-91672429D01*
X42301530Y-91649329D01*
X42312020Y-91627151D01*
X42324633Y-91606107D01*
X42339247Y-91586402D01*
X42355723Y-91568223D01*
X42373902Y-91551747D01*
X42393607Y-91537133D01*
X42414651Y-91524520D01*
X42436829Y-91514030D01*
X42459929Y-91505765D01*
X42483727Y-91499804D01*
X42507996Y-91496204D01*
X42532500Y-91495000D01*
X43457500Y-91495000D01*
X43482004Y-91496204D01*
X43482004Y-91496204D01*
G37*
D15*
X42995000Y-92370000D03*
D14*
G36*
X46457004Y-91496204D02*
G01*
X46481273Y-91499804D01*
X46505071Y-91505765D01*
X46528171Y-91514030D01*
X46550349Y-91524520D01*
X46571393Y-91537133D01*
X46591098Y-91551747D01*
X46609277Y-91568223D01*
X46625753Y-91586402D01*
X46640367Y-91606107D01*
X46652980Y-91627151D01*
X46663470Y-91649329D01*
X46671735Y-91672429D01*
X46677696Y-91696227D01*
X46681296Y-91720496D01*
X46682500Y-91745000D01*
X46682500Y-92995000D01*
X46681296Y-93019504D01*
X46677696Y-93043773D01*
X46671735Y-93067571D01*
X46663470Y-93090671D01*
X46652980Y-93112849D01*
X46640367Y-93133893D01*
X46625753Y-93153598D01*
X46609277Y-93171777D01*
X46591098Y-93188253D01*
X46571393Y-93202867D01*
X46550349Y-93215480D01*
X46528171Y-93225970D01*
X46505071Y-93234235D01*
X46481273Y-93240196D01*
X46457004Y-93243796D01*
X46432500Y-93245000D01*
X45507500Y-93245000D01*
X45482996Y-93243796D01*
X45458727Y-93240196D01*
X45434929Y-93234235D01*
X45411829Y-93225970D01*
X45389651Y-93215480D01*
X45368607Y-93202867D01*
X45348902Y-93188253D01*
X45330723Y-93171777D01*
X45314247Y-93153598D01*
X45299633Y-93133893D01*
X45287020Y-93112849D01*
X45276530Y-93090671D01*
X45268265Y-93067571D01*
X45262304Y-93043773D01*
X45258704Y-93019504D01*
X45257500Y-92995000D01*
X45257500Y-91745000D01*
X45258704Y-91720496D01*
X45262304Y-91696227D01*
X45268265Y-91672429D01*
X45276530Y-91649329D01*
X45287020Y-91627151D01*
X45299633Y-91606107D01*
X45314247Y-91586402D01*
X45330723Y-91568223D01*
X45348902Y-91551747D01*
X45368607Y-91537133D01*
X45389651Y-91524520D01*
X45411829Y-91514030D01*
X45434929Y-91505765D01*
X45458727Y-91499804D01*
X45482996Y-91496204D01*
X45507500Y-91495000D01*
X46432500Y-91495000D01*
X46457004Y-91496204D01*
X46457004Y-91496204D01*
G37*
D15*
X45970000Y-92370000D03*
D19*
X114612000Y-37960000D03*
D10*
X54360000Y-36720000D03*
X54360000Y-41720000D03*
X124360000Y-34220000D03*
X124360000Y-36720000D03*
X124360000Y-39220000D03*
X124360000Y-41720000D03*
D19*
X66860000Y-37960000D03*
D24*
X109460000Y-67940000D03*
X110240000Y-86710000D03*
X110240000Y-84540000D03*
X110350000Y-69310000D03*
X110660000Y-107840000D03*
X111040000Y-70600000D03*
X110660000Y-106000000D03*
X111230000Y-86880000D03*
X111270000Y-84560000D03*
X112270000Y-84630000D03*
X111640010Y-71920000D03*
X112320000Y-86880000D03*
X111830000Y-106000000D03*
X111830000Y-107910000D03*
X32510000Y-51687000D03*
X34669000Y-93597000D03*
X34669000Y-91438000D03*
X41692000Y-39533579D03*
X68140000Y-94620000D03*
X68450000Y-54980000D03*
X89370000Y-92430000D03*
X89370000Y-68400000D03*
X96660000Y-68400000D03*
X36447000Y-108964000D03*
X34161000Y-108964000D03*
X38517000Y-46264000D03*
X36680000Y-45860000D03*
X68960000Y-108990000D03*
X72080000Y-55190000D03*
X63540000Y-106170000D03*
X64190000Y-55040000D03*
X98390000Y-52919990D03*
X106800000Y-52900000D03*
X62720000Y-105090000D03*
X63110000Y-54860000D03*
X98373053Y-51920131D03*
X109340000Y-51890000D03*
X108450000Y-93630000D03*
X112720000Y-93640000D03*
X125570000Y-93670000D03*
X125640000Y-68270000D03*
X127420000Y-68250000D03*
X127350000Y-52570000D03*
X47990000Y-100500000D03*
X48550000Y-107500000D03*
X108340000Y-109320000D03*
X113930000Y-109320000D03*
X117270000Y-109270000D03*
X33183000Y-92454000D03*
X42490000Y-42950000D03*
X38160000Y-95040000D03*
X35685000Y-91438000D03*
X35685000Y-100455000D03*
X58279314Y-42249315D03*
X54300000Y-44640000D03*
X36950000Y-91440000D03*
X36900000Y-106050000D03*
D25*
X65970000Y-78020000D02*
X65970000Y-78720000D01*
X65970000Y-78720000D02*
X69140000Y-81890000D01*
X69140000Y-81890000D02*
X69140000Y-85520000D01*
X128770000Y-78720000D02*
X128770000Y-78020000D01*
X128770000Y-85490000D02*
X128770000Y-78720000D01*
X86970000Y-78020000D02*
X86970000Y-85520000D01*
X69140000Y-85520000D02*
X128740000Y-85520000D01*
X107970000Y-78020000D02*
X107970000Y-79960000D01*
X107970000Y-79960000D02*
X109550000Y-79960000D01*
X109550000Y-68030000D02*
X109460000Y-67940000D01*
X107970000Y-79960000D02*
X107970000Y-85520000D01*
X128740000Y-85520000D02*
X128770000Y-85490000D01*
X109550000Y-79960000D02*
X109550000Y-68030000D01*
X128720000Y-67010000D02*
X128720000Y-58670000D01*
X66038000Y-58960000D02*
X66038000Y-67040000D01*
X128750000Y-67040000D02*
X128720000Y-67010000D01*
X87120000Y-58960000D02*
X87120000Y-67040000D01*
X107948000Y-58706000D02*
X107948000Y-58781000D01*
X109330000Y-60163000D02*
X109330000Y-65090000D01*
X109350000Y-66990000D02*
X109350000Y-65090000D01*
X109300000Y-67040000D02*
X128750000Y-67040000D01*
X109300000Y-67040000D02*
X109350000Y-66990000D01*
X66038000Y-67040000D02*
X109300000Y-67040000D01*
X107948000Y-58781000D02*
X109330000Y-60163000D01*
X107970000Y-99710000D02*
X110150000Y-99710000D01*
X110240000Y-69420000D02*
X110350000Y-69310000D01*
X110240000Y-84540000D02*
X110240000Y-69420000D01*
X110150000Y-86800000D02*
X110240000Y-86710000D01*
X128620000Y-106890000D02*
X128670000Y-106840000D01*
X110150000Y-99710000D02*
X110150000Y-86800000D01*
X86970000Y-98320000D02*
X86970000Y-106890000D01*
X107970000Y-98320000D02*
X107970000Y-99710000D01*
X107970000Y-99710000D02*
X107970000Y-106890000D01*
X65970000Y-98320000D02*
X65970000Y-106890000D01*
X65970000Y-106890000D02*
X128620000Y-106890000D01*
X128670000Y-106840000D02*
X128670000Y-98320000D01*
X128770000Y-126940000D02*
X128770000Y-118920000D01*
X86970000Y-118220000D02*
X86970000Y-126180000D01*
X110750010Y-105344305D02*
X110750010Y-99958532D01*
X110610000Y-119610000D02*
X110610000Y-107890000D01*
X108070000Y-118220000D02*
X108070000Y-119610000D01*
X111040001Y-83030001D02*
X110840010Y-82830010D01*
X65970000Y-118220000D02*
X65970000Y-126980000D01*
X110610000Y-107890000D02*
X110660000Y-107840000D01*
X110660000Y-106000000D02*
X110660000Y-105434315D01*
X110660000Y-105434315D02*
X110750010Y-105344305D01*
X110840010Y-82830010D02*
X110840010Y-70799990D01*
X110750010Y-99958532D02*
X110750010Y-87359990D01*
X128770000Y-118920000D02*
X128770000Y-118220000D01*
X108070000Y-119610000D02*
X108070000Y-126980000D01*
X86970000Y-126980000D02*
X86970000Y-126180000D01*
X111270000Y-84560000D02*
X111040001Y-84330001D01*
X108070000Y-119610000D02*
X110610000Y-119610000D01*
X111040001Y-84330001D02*
X111040001Y-83030001D01*
X128730000Y-126980000D02*
X128770000Y-126940000D01*
X110750010Y-87359990D02*
X111230000Y-86880000D01*
X110840010Y-70799990D02*
X111040000Y-70600000D01*
X65970000Y-126980000D02*
X128730000Y-126980000D01*
X111350020Y-100207064D02*
X111350020Y-87943982D01*
X111350020Y-87943982D02*
X112320000Y-86974002D01*
X111440020Y-82581478D02*
X111440020Y-72119990D01*
X111440020Y-72119990D02*
X111640010Y-71920000D01*
X112070001Y-84430001D02*
X112070001Y-83211459D01*
X112320000Y-86974002D02*
X112320000Y-86880000D01*
X111830000Y-106000000D02*
X111830000Y-105434315D01*
X111190000Y-119878542D02*
X111210010Y-119858532D01*
X111350020Y-104954335D02*
X111350020Y-100207064D01*
X112270000Y-84630000D02*
X112070001Y-84430001D01*
X111210010Y-119858532D02*
X111210010Y-108529990D01*
X111830000Y-105434315D02*
X111350020Y-104954335D01*
X112070001Y-83211459D02*
X111440020Y-82581478D01*
X111210010Y-108529990D02*
X111830000Y-107910000D01*
X33018000Y-49274000D02*
X33018000Y-51179000D01*
X34720000Y-91387000D02*
X34669000Y-91438000D01*
X34720000Y-53870000D02*
X34720000Y-91387000D01*
X34669000Y-93597000D02*
X34669000Y-97407000D01*
X33018000Y-51179000D02*
X32510000Y-51687000D01*
X34669000Y-97407000D02*
X35002000Y-97740000D01*
X47384213Y-37970000D02*
X45970000Y-37970000D01*
X49195787Y-37970000D02*
X47384213Y-37970000D01*
X52945787Y-41720000D02*
X49195787Y-37970000D01*
X54360000Y-41720000D02*
X52945787Y-41720000D01*
X45970000Y-37970000D02*
X43390000Y-37970000D01*
X43390000Y-37970000D02*
X43255579Y-37970000D01*
X43255579Y-37970000D02*
X41692000Y-39533579D01*
X35002000Y-97740000D02*
X42975000Y-97740000D01*
X45950000Y-97740000D02*
X47130000Y-97740000D01*
X47130000Y-97740000D02*
X50260000Y-94610000D01*
X50260000Y-94610000D02*
X50270000Y-94620000D01*
X50270000Y-94620000D02*
X68140000Y-94620000D01*
X69260009Y-54169991D02*
X99020009Y-54169991D01*
X68450000Y-54980000D02*
X69260009Y-54169991D01*
X99190000Y-54000000D02*
X99190000Y-49850000D01*
X99020009Y-54169991D02*
X99190000Y-54000000D01*
X45970000Y-92370000D02*
X89310000Y-92370000D01*
X89310000Y-92370000D02*
X89370000Y-92430000D01*
X89370000Y-68400000D02*
X89935685Y-68400000D01*
X89935685Y-68400000D02*
X96660000Y-68400000D01*
X34542000Y-51306000D02*
X32383000Y-53465000D01*
X32383000Y-53465000D02*
X32383000Y-108964000D01*
X34720000Y-122455787D02*
X34161000Y-121896787D01*
X32383000Y-108964000D02*
X34161000Y-108964000D01*
X34161000Y-121896787D02*
X34161000Y-108964000D01*
X34720000Y-123870000D02*
X34720000Y-122455787D01*
X31470000Y-35470000D02*
X34542000Y-35470000D01*
D26*
X34624000Y-45770000D02*
X34542000Y-45688000D01*
D25*
X34542000Y-35470000D02*
X34542000Y-45688000D01*
X124360000Y-41720000D02*
X59940000Y-41720000D01*
X58539999Y-43120001D02*
X56719999Y-43120001D01*
X59940000Y-41720000D02*
X58539999Y-43120001D01*
X56719999Y-43120001D02*
X56000000Y-43840000D01*
X56000000Y-43840000D02*
X41520000Y-43840000D01*
X41520000Y-43840000D02*
X41520000Y-43960000D01*
X40940542Y-46264000D02*
X38517000Y-46264000D01*
X41520000Y-43960000D02*
X41520000Y-45684542D01*
X41520000Y-45684542D02*
X40940542Y-46264000D01*
X34560000Y-45860000D02*
X34542000Y-45878000D01*
X36680000Y-45860000D02*
X34560000Y-45860000D01*
X34542000Y-45688000D02*
X34542000Y-45878000D01*
X34542000Y-45878000D02*
X34542000Y-51306000D01*
X42991000Y-108964000D02*
X43015000Y-108940000D01*
X36447000Y-108964000D02*
X42991000Y-108964000D01*
X45990000Y-108940000D02*
X68910000Y-108940000D01*
X68910000Y-108940000D02*
X68960000Y-108990000D01*
X72080000Y-55190000D02*
X74790000Y-55190000D01*
X74790000Y-55190000D02*
X75210000Y-54770000D01*
X75210000Y-54770000D02*
X104190000Y-54770000D01*
X104270000Y-54690000D02*
X104270000Y-49850000D01*
X104190000Y-54770000D02*
X104270000Y-54690000D01*
X45985000Y-106080000D02*
X63450000Y-106080000D01*
X63450000Y-106080000D02*
X63540000Y-106170000D01*
X64190000Y-55040000D02*
X66310010Y-52919990D01*
X66310010Y-52919990D02*
X98390000Y-52919990D01*
X106800000Y-49860000D02*
X106810000Y-49850000D01*
X106800000Y-52900000D02*
X106800000Y-49860000D01*
X45950000Y-103240000D02*
X47800000Y-105090000D01*
X47800000Y-105090000D02*
X62720000Y-105090000D01*
X63110000Y-54860000D02*
X66049869Y-51920131D01*
X66049869Y-51920131D02*
X98373053Y-51920131D01*
X109340000Y-49860000D02*
X109350000Y-49850000D01*
X109340000Y-51890000D02*
X109340000Y-49860000D01*
X50391458Y-93630000D02*
X108450000Y-93630000D01*
X45970000Y-95050000D02*
X47390000Y-93630000D01*
X47390000Y-93630000D02*
X50391458Y-93630000D01*
X112720000Y-93640000D02*
X125540000Y-93640000D01*
X125540000Y-93640000D02*
X125570000Y-93670000D01*
X125640000Y-68270000D02*
X127400000Y-68270000D01*
X127400000Y-68270000D02*
X127420000Y-68250000D01*
X122050000Y-52570000D02*
X122050000Y-49850000D01*
X127350000Y-52570000D02*
X122050000Y-52570000D01*
X45970000Y-100490000D02*
X47980000Y-100490000D01*
X47980000Y-100490000D02*
X47990000Y-100500000D01*
X48550000Y-107500000D02*
X106520000Y-107500000D01*
X106520000Y-107500000D02*
X108340000Y-109320000D01*
X113930000Y-109320000D02*
X117220000Y-109320000D01*
X117220000Y-109320000D02*
X117270000Y-109270000D01*
X55374581Y-63370000D02*
X55370509Y-63374072D01*
X55374454Y-63398037D02*
X55377062Y-63405743D01*
X55380287Y-63413206D02*
X55384098Y-63420359D01*
X55384098Y-63420359D02*
X55388492Y-63427196D01*
X55470000Y-63370000D02*
X55470000Y-60010000D01*
X55377062Y-63405743D02*
X55380287Y-63413206D01*
X55370509Y-63374072D02*
X55371169Y-63382154D01*
X55470000Y-63370000D02*
X55374581Y-63370000D01*
X55372487Y-63390163D02*
X55374454Y-63398037D01*
X55404792Y-63435208D02*
X55404792Y-63445251D01*
X55470000Y-63370000D02*
X55404792Y-63435208D01*
X55494312Y-63445251D02*
X55569574Y-63369989D01*
X55388492Y-63427196D02*
X55393436Y-63433662D01*
X55404792Y-63445251D02*
X55494312Y-63445251D01*
X63880000Y-56820000D02*
X66038000Y-56820000D01*
X55371169Y-63382154D02*
X55372487Y-63390163D01*
X55470000Y-60010000D02*
X63880000Y-60010000D01*
X63880000Y-60010000D02*
X63880000Y-59550000D01*
X63880000Y-59740000D02*
X63880000Y-59550000D01*
X63880000Y-59550000D02*
X63880000Y-56820000D01*
X76470000Y-59840000D02*
X84790000Y-59840000D01*
X84780000Y-59310000D02*
X84790000Y-56860000D01*
X76470000Y-63370000D02*
X76470000Y-59840000D01*
X84790000Y-56860000D02*
X87120000Y-56860000D01*
X84790000Y-59840000D02*
X84790000Y-59320000D01*
X84790000Y-59220000D02*
X84780000Y-59310000D01*
X84790000Y-59320000D02*
X84780000Y-59310000D01*
X105840000Y-59990000D02*
X105840000Y-56620000D01*
X105840000Y-56620000D02*
X105854000Y-56606000D01*
X105854000Y-56606000D02*
X107948000Y-56606000D01*
X97470000Y-63370000D02*
X97470000Y-59990000D01*
X97470000Y-59990000D02*
X105840000Y-59990000D01*
X118470000Y-63370000D02*
X118470000Y-59890000D01*
X118470000Y-59890000D02*
X126870000Y-59890000D01*
X126870000Y-59890000D02*
X126870000Y-56590000D01*
X126870000Y-56590000D02*
X128720000Y-56590000D01*
X55470000Y-79960000D02*
X63940000Y-79960000D01*
X63940000Y-75920000D02*
X65970000Y-75920000D01*
X63940000Y-79960000D02*
X63940000Y-75920000D01*
X55470000Y-83370000D02*
X55470000Y-79960000D01*
X84940000Y-79920000D02*
X84940000Y-75910000D01*
X84940000Y-75910000D02*
X86970000Y-75910000D01*
X76470000Y-79920000D02*
X84940000Y-79920000D01*
X76470000Y-83370000D02*
X76470000Y-79920000D01*
X105950000Y-75920000D02*
X107970000Y-75920000D01*
X97470000Y-80000000D02*
X105950000Y-80000000D01*
X105950000Y-80000000D02*
X105950000Y-75920000D01*
X97470000Y-83370000D02*
X97470000Y-80000000D01*
X118470000Y-83370000D02*
X118470000Y-79930000D01*
X126970000Y-79930000D02*
X126970000Y-75920000D01*
X126970000Y-75920000D02*
X128770000Y-75920000D01*
X118470000Y-79930000D02*
X126970000Y-79930000D01*
X55470000Y-99980000D02*
X63990000Y-99980000D01*
X63990000Y-96210000D02*
X65970000Y-96210000D01*
X63990000Y-99980000D02*
X63990000Y-96210000D01*
X55470000Y-103370000D02*
X55470000Y-99980000D01*
X84970000Y-99980000D02*
X84970000Y-96250000D01*
X84970000Y-96250000D02*
X86970000Y-96250000D01*
X76470000Y-99980000D02*
X84970000Y-99980000D01*
X76470000Y-103370000D02*
X76470000Y-99980000D01*
X97470000Y-103370000D02*
X97470000Y-99990000D01*
X97470000Y-99990000D02*
X106000000Y-99990000D01*
X106000000Y-99990000D02*
X106000000Y-96180000D01*
X106000000Y-96180000D02*
X107970000Y-96180000D01*
X118470000Y-103370000D02*
X118470000Y-99950000D01*
X127030000Y-99950000D02*
X127030000Y-96220000D01*
X118470000Y-99950000D02*
X127030000Y-99950000D01*
X127030000Y-96220000D02*
X128670000Y-96220000D01*
X55470000Y-123370000D02*
X55470000Y-119970000D01*
X55470000Y-119970000D02*
X64040000Y-119970000D01*
X64040000Y-116120000D02*
X65970000Y-116120000D01*
X64040000Y-119970000D02*
X64040000Y-116120000D01*
X84990000Y-119950000D02*
X84990000Y-116140000D01*
X84990000Y-116140000D02*
X86970000Y-116140000D01*
X76470000Y-123370000D02*
X76470000Y-119950000D01*
X76470000Y-119950000D02*
X84990000Y-119950000D01*
X106020000Y-119880000D02*
X106020000Y-116140000D01*
X97470000Y-123370000D02*
X97470000Y-119880000D01*
X106020000Y-116140000D02*
X108070000Y-116140000D01*
X97470000Y-119880000D02*
X106020000Y-119880000D01*
X118470000Y-119990000D02*
X126960000Y-119990000D01*
X126960000Y-119990000D02*
X126960000Y-116140000D01*
X118470000Y-123370000D02*
X118470000Y-119990000D01*
X126960000Y-116140000D02*
X128770000Y-116140000D01*
X33018000Y-45744051D02*
X33018000Y-46734000D01*
X32884213Y-40470000D02*
X33018000Y-40603787D01*
X31470000Y-40470000D02*
X32884213Y-40470000D01*
X33183000Y-92454000D02*
X42911000Y-92454000D01*
X33018000Y-40603787D02*
X33018000Y-45744051D01*
X42911000Y-92454000D02*
X42995000Y-92370000D01*
X44890000Y-42950000D02*
X42490000Y-42950000D01*
X45970000Y-40470000D02*
X45970000Y-41870000D01*
X45970000Y-41870000D02*
X44890000Y-42950000D01*
X42985000Y-95040000D02*
X42995000Y-95050000D01*
X38160000Y-95040000D02*
X42985000Y-95040000D01*
X44555787Y-35470000D02*
X40892000Y-39133787D01*
X40892000Y-39133787D02*
X40892000Y-45464000D01*
X40892000Y-45464000D02*
X37717000Y-45464000D01*
X37717000Y-45464000D02*
X37717000Y-55116000D01*
X37717000Y-55116000D02*
X35685000Y-57148000D01*
X35685000Y-57148000D02*
X35685000Y-91438000D01*
X42960000Y-100455000D02*
X42995000Y-100490000D01*
X35685000Y-100455000D02*
X42960000Y-100455000D01*
X45970000Y-35470000D02*
X44555787Y-35470000D01*
X37220000Y-123870000D02*
X37220000Y-117388750D01*
X37220000Y-117388750D02*
X35304000Y-115472750D01*
X35313000Y-103240000D02*
X42975000Y-103240000D01*
X35304000Y-115472750D02*
X35304000Y-103249000D01*
X35304000Y-103249000D02*
X35313000Y-103240000D01*
X60308630Y-40219999D02*
X58279314Y-42249315D01*
X124360000Y-39220000D02*
X123360001Y-40219999D01*
X123360001Y-40219999D02*
X60308630Y-40219999D01*
X44592880Y-44640000D02*
X42120000Y-47112880D01*
X54300000Y-44640000D02*
X44592880Y-44640000D01*
X42120000Y-47112880D02*
X42120000Y-86270000D01*
X42120000Y-86270000D02*
X36950000Y-91440000D01*
X42980000Y-106050000D02*
X43010000Y-106080000D01*
X36900000Y-106050000D02*
X42980000Y-106050000D01*
M02*
