M48
METRIC,TZ
T1C0.400
T2C0.700
T3C1.000
T4C1.092
T5C1.200
T6C1.500
T7C2.000
%
G90
G05
T1
X32510Y-51687
X33183Y-92454
X34161Y-108964
X34669Y-91438
X34669Y-93597
X35685Y-91438
X35685Y-100455
X36447Y-108964
X36680Y-45860
X36900Y-106050
X36950Y-91440
X38160Y-95040
X38517Y-46264
X41692Y-39534
X42490Y-42950
X47990Y-100500
X48550Y-107500
X54300Y-44640
X58279Y-42249
X62720Y-105090
X63110Y-54860
X63540Y-106170
X64190Y-55040
X68140Y-94620
X68450Y-54980
X68960Y-108990
X72080Y-55190
X89370Y-68400
X89370Y-92430
X96660Y-68400
X98373Y-51920
X98390Y-52920
X106800Y-52900
X108340Y-109320
X108450Y-93630
X109340Y-51890
X109460Y-67940
X110240Y-84540
X110240Y-86710
X110350Y-69310
X110660Y-106000
X110660Y-107840
X111040Y-70600
X111230Y-86880
X111270Y-84560
X111640Y-71920
X111830Y-106000
X111830Y-107910
X112270Y-84630
X112320Y-86880
X112720Y-93640
X113930Y-109320
X117270Y-109270
X125570Y-93670
X125640Y-68270
X127350Y-52570
X127420Y-68250
T2
X33018Y-46734
X33018Y-49274
T3
X34720Y-53870
X34720Y-123870
X37220Y-123870
X39720Y-53870
X39720Y-123870
X42220Y-123870
X54360Y-36720
X54360Y-41720
X124360Y-34220
X124360Y-36720
X124360Y-39220
X124360Y-41720
X97470Y-63370
X31470Y-35470
X31470Y-40470
X45970Y-35470
X45970Y-37970
X45970Y-40470
T4
X96650Y-49850
X96650Y-65090
X99190Y-49850
X99190Y-65090
X101730Y-49850
X101730Y-65090
X104270Y-49850
X104270Y-65090
X106810Y-49850
X106810Y-65090
X109350Y-49850
X109350Y-65090
X111890Y-49850
X111890Y-65090
X114430Y-49850
X114430Y-65090
X116970Y-49850
X116970Y-65090
X119510Y-49850
X119510Y-65090
X122050Y-49850
X122050Y-65090
X124590Y-49850
X124590Y-65090
T5
X71470Y-81270
X76470Y-83370
X92470Y-81270
X97470Y-83370
X71470Y-101270
X76470Y-103370
X50470Y-81270
X55470Y-83370
X50470Y-61270
X55470Y-63370
X113470Y-121270
X118470Y-123370
X113470Y-101270
X118470Y-103370
X71470Y-61270
X76470Y-63370
X113470Y-81270
X118470Y-83370
X92470Y-121270
X97470Y-123370
X92470Y-101270
X97470Y-103370
X71470Y-121270
X76470Y-123370
X50470Y-121270
X55470Y-123370
X113470Y-61270
X118470Y-63370
X50470Y-101270
X55470Y-103370
X92470Y-61270
T6
G00X39120Y-32370
M15
G01X37820Y-32370
M16
G05
G00X39120Y-43570
M15
G01X37820Y-43570
M16
G05
T7
G00X38480Y-66370
M15
G01X38480Y-66370
M16
G05
G00X38480Y-114122
M15
G01X38480Y-114122
M16
G05
G00X66860Y-37960
M15
G01X66860Y-37960
M16
G05
G00X114612Y-37960
M15
G01X114612Y-37960
M16
G05
T0
M30
